%FSLAX45Y45*%
G04 Gerber Fmt 4.5, Leading zero omitted, Abs format (unit mm)*
G04 Created by KiCad (PCBNEW (6.0.0-0)) date 2022-03-22 21:17:25*
%MOMM*%
%LPD*%
G01*
G04 APERTURE LIST*
%TA.AperFunction,Profile*%
%ADD10C,0.200000*%
%TD*%
%ADD11C,0.200000*%
%ADD12C,0.040000*%
%ADD13C,0.080000*%
%ADD14C,0.100000*%
%ADD15C,0.101600*%
%ADD16C,0.110000*%
%ADD17C,0.120000*%
%ADD18C,0.190000*%
%ADD19C,0.220000*%
G04 APERTURE END LIST*
D10*
X16936061Y-17581324D02*
X15611600Y-16469970D01*
X8273000Y-11300000D02*
X11873000Y-11300000D01*
X14600000Y-13400000D02*
X14600000Y-15400000D01*
X12573000Y-19034600D02*
G75*
G03*
X16904848Y-17909244I0J8900000D01*
G01*
X11873000Y-11300000D02*
G75*
G03*
X12073000Y-11100000I0J200000D01*
G01*
X14600000Y-13400000D02*
G75*
G03*
X14300000Y-13100000I-300000J0D01*
G01*
X13173000Y-11300000D02*
X16773000Y-11300000D01*
X15723000Y-4984600D02*
G75*
G03*
X15573000Y-5134600I0J-150000D01*
G01*
X5806231Y-12026912D02*
X4481771Y-13138266D01*
X4164253Y-7218615D02*
G75*
G03*
X4164253Y-13050585I8408748J-2915985D01*
G01*
X20664229Y-13138266D02*
G75*
G03*
X20981747Y-13050585I128558J153209D01*
G01*
X9596028Y-15765554D02*
X6510647Y-12088540D01*
X4481771Y-7130934D02*
G75*
G03*
X4164253Y-7218615I-128558J-153209D01*
G01*
X9783000Y-11904600D02*
G75*
G03*
X9783000Y-11904600I-160000J0D01*
G01*
X8209939Y-17581324D02*
G75*
G03*
X8241152Y-17909244I128558J-153209D01*
G01*
X17896493Y-12549835D02*
G75*
G03*
X17896493Y-12549835I-160000J0D01*
G01*
X9534400Y-16469970D02*
G75*
G03*
X9596028Y-15765554I-321394J383022D01*
G01*
X12573000Y-7334600D02*
X15273000Y-7334600D01*
X9423000Y-4984600D02*
X9285722Y-4984600D01*
X18073000Y-11100000D02*
G75*
G03*
X18273000Y-11300000I200000J0D01*
G01*
X20828355Y-7930667D02*
G75*
G03*
X20828355Y-7930667I-160000J0D01*
G01*
X6510647Y-12088540D02*
G75*
G03*
X5806231Y-12026912I-383022J-321394D01*
G01*
X5375000Y-10135000D02*
G75*
G03*
X5375000Y-10135000I-600000J0D01*
G01*
X20981747Y-13050585D02*
G75*
G03*
X20981747Y-7218615I-8408748J2915985D01*
G01*
X7569507Y-12549835D02*
G75*
G03*
X7569507Y-12549835I-160000J0D01*
G01*
X16773000Y-9000000D02*
X13173000Y-9000000D01*
X13173000Y-9000000D02*
G75*
G03*
X12973000Y-9200000I0J-200000D01*
G01*
X18273000Y-9000000D02*
G75*
G03*
X18073000Y-9200000I0J-200000D01*
G01*
X15573000Y-5134600D02*
X15573000Y-7034600D01*
X9573000Y-5134600D02*
X9573000Y-7034600D01*
X8273000Y-9000000D02*
G75*
G03*
X8073000Y-9200000I0J-200000D01*
G01*
X18073000Y-9200000D02*
X18073000Y-11100000D01*
X15273000Y-7334600D02*
G75*
G03*
X15573000Y-7034600I0J300000D01*
G01*
X18873000Y-11300000D02*
G75*
G03*
X19073000Y-11100000I0J200000D01*
G01*
X12973000Y-9200000D02*
X12973000Y-11100000D01*
X19073000Y-11100000D02*
X19073000Y-9200000D01*
X8073000Y-9200000D02*
X8073000Y-11100000D01*
X18873000Y-9000000D02*
X18273000Y-9000000D01*
X7073000Y-9200000D02*
G75*
G03*
X6873000Y-9000000I-200000J0D01*
G01*
X11100000Y-15400000D02*
G75*
G03*
X11400000Y-15700000I300000J0D01*
G01*
X12973000Y-11100000D02*
G75*
G03*
X13173000Y-11300000I200000J0D01*
G01*
X18635353Y-8180660D02*
X16013487Y-5056042D01*
X20981747Y-7218615D02*
G75*
G03*
X20664229Y-7130934I-188961J-65528D01*
G01*
X6073000Y-11100000D02*
G75*
G03*
X6273000Y-11300000I200000J0D01*
G01*
X8241152Y-17909244D02*
G75*
G03*
X12573000Y-19034600I4331848J7774644D01*
G01*
X9090454Y-17692640D02*
G75*
G03*
X9090454Y-17692640I-160000J0D01*
G01*
X9783000Y-8364600D02*
G75*
G03*
X9783000Y-8364600I-160000J0D01*
G01*
X9573000Y-7034600D02*
G75*
G03*
X9873000Y-7334600I300000J0D01*
G01*
X7569507Y-7719365D02*
G75*
G03*
X7569507Y-7719365I-160000J0D01*
G01*
X16013487Y-5056042D02*
G75*
G03*
X15860278Y-4984600I-153209J-128557D01*
G01*
X5806231Y-8242288D02*
G75*
G03*
X6510647Y-8180660I321394J383022D01*
G01*
X4637645Y-12338533D02*
G75*
G03*
X4637645Y-12338533I-160000J0D01*
G01*
X11100000Y-15400000D02*
X11100000Y-13400000D01*
X16008173Y-5468953D02*
G75*
G03*
X16008173Y-5468953I-160000J0D01*
G01*
X15549972Y-15765554D02*
X18635353Y-12088540D01*
X15683000Y-8364600D02*
G75*
G03*
X15683000Y-8364600I-160000J0D01*
G01*
X7073000Y-9200000D02*
X7073000Y-11100000D01*
X9457827Y-14800247D02*
G75*
G03*
X9457827Y-14800247I-160000J0D01*
G01*
X20664229Y-7130934D02*
X19339769Y-8242288D01*
X8073000Y-11100000D02*
G75*
G03*
X8273000Y-11300000I200000J0D01*
G01*
X19339769Y-12026912D02*
X20664229Y-13138266D01*
X16008173Y-14800247D02*
G75*
G03*
X16008173Y-14800247I-160000J0D01*
G01*
X11400000Y-13100000D02*
G75*
G03*
X11100000Y-13400000I0J-300000D01*
G01*
X15723000Y-4984600D02*
X15860278Y-4984600D01*
X11873000Y-9000000D02*
X8273000Y-9000000D01*
X14300000Y-15700000D02*
X11400000Y-15700000D01*
X18635353Y-8180660D02*
G75*
G03*
X19339769Y-8242288I383022J321394D01*
G01*
X6510647Y-8180660D02*
X9132513Y-5056042D01*
X16904848Y-17909244D02*
G75*
G03*
X16936061Y-17581324I-97345J174711D01*
G01*
X8209939Y-17581324D02*
X9534400Y-16469970D01*
X6873000Y-11300000D02*
G75*
G03*
X7073000Y-11100000I0J200000D01*
G01*
X10810000Y-12920000D02*
G75*
G03*
X10810000Y-12920000I-160000J0D01*
G01*
X11400000Y-13100000D02*
X14300000Y-13100000D01*
X20828355Y-12338533D02*
G75*
G03*
X20828355Y-12338533I-160000J0D01*
G01*
X17896493Y-7719365D02*
G75*
G03*
X17896493Y-7719365I-160000J0D01*
G01*
X4164253Y-13050585D02*
G75*
G03*
X4481771Y-13138266I188961J65528D01*
G01*
X6073000Y-11100000D02*
X6073000Y-9200000D01*
X12573000Y-7334600D02*
X9873000Y-7334600D01*
X12073000Y-11100000D02*
X12073000Y-9200000D01*
X4481771Y-7130934D02*
X5806231Y-8242288D01*
X4637645Y-7930667D02*
G75*
G03*
X4637645Y-7930667I-160000J0D01*
G01*
X19339769Y-12026912D02*
G75*
G03*
X18635353Y-12088540I-321394J-383022D01*
G01*
X6873000Y-11300000D02*
X6273000Y-11300000D01*
X18273000Y-11300000D02*
X18873000Y-11300000D01*
X15683000Y-11904600D02*
G75*
G03*
X15683000Y-11904600I-160000J0D01*
G01*
X19073000Y-9200000D02*
G75*
G03*
X18873000Y-9000000I-200000J0D01*
G01*
X16773000Y-11300000D02*
G75*
G03*
X16973000Y-11100000I0J200000D01*
G01*
X6273000Y-9000000D02*
X6873000Y-9000000D01*
X9573000Y-5134600D02*
G75*
G03*
X9423000Y-4984600I-150000J0D01*
G01*
X16973000Y-11100000D02*
X16973000Y-9200000D01*
X15549972Y-15765554D02*
G75*
G03*
X15611600Y-16469970I383022J-321394D01*
G01*
X9285722Y-4984600D02*
G75*
G03*
X9132513Y-5056042I0J-200000D01*
G01*
X16375546Y-17692640D02*
G75*
G03*
X16375546Y-17692640I-160000J0D01*
G01*
X16973000Y-9200000D02*
G75*
G03*
X16773000Y-9000000I-200000J0D01*
G01*
X9457827Y-5468953D02*
G75*
G03*
X9457827Y-5468953I-160000J0D01*
G01*
X12073000Y-9200000D02*
G75*
G03*
X11873000Y-9000000I-200000J0D01*
G01*
X10810000Y-15876000D02*
G75*
G03*
X10810000Y-15876000I-160000J0D01*
G01*
X6273000Y-9000000D02*
G75*
G03*
X6073000Y-9200000I0J-200000D01*
G01*
X14300000Y-15700000D02*
G75*
G03*
X14600000Y-15400000I0J300000D01*
G01*
D11*
D12*
X10110000Y-17530000D02*
X10150000Y-17570000D01*
X10150000Y-17530000D02*
X10110000Y-17570000D01*
X10110000Y-17720000D02*
X10150000Y-17760000D01*
X10150000Y-17720000D02*
X10110000Y-17760000D01*
X10110000Y-17930000D02*
X10150000Y-17970000D01*
X10150000Y-17930000D02*
X10110000Y-17970000D01*
X10110000Y-18130000D02*
X10150000Y-18170000D01*
X10150000Y-18130000D02*
X10110000Y-18170000D01*
X11803700Y-16642400D02*
X11843700Y-16682400D01*
X11843700Y-16642400D02*
X11803700Y-16682400D01*
X12565700Y-17417100D02*
X12605700Y-17457100D01*
X12605700Y-17417100D02*
X12565700Y-17457100D01*
X13770000Y-17660000D02*
X13810000Y-17700000D01*
X13810000Y-17660000D02*
X13770000Y-17700000D01*
X13880000Y-17560000D02*
X13920000Y-17600000D01*
X13920000Y-17560000D02*
X13880000Y-17600000D01*
X14000000Y-17320000D02*
X14040000Y-17360000D01*
X14040000Y-17320000D02*
X14000000Y-17360000D01*
X14490000Y-17400000D02*
X14530000Y-17440000D01*
X14530000Y-17400000D02*
X14490000Y-17440000D01*
X14780000Y-16560000D02*
X14820000Y-16600000D01*
X14820000Y-16560000D02*
X14780000Y-16600000D01*
X14780000Y-16680000D02*
X14820000Y-16720000D01*
X14820000Y-16680000D02*
X14780000Y-16720000D01*
X15050000Y-17580000D02*
X15090000Y-17620000D01*
X15090000Y-17580000D02*
X15050000Y-17620000D01*
X15050000Y-17680000D02*
X15090000Y-17720000D01*
X15090000Y-17680000D02*
X15050000Y-17720000D01*
X15050000Y-17980000D02*
X15090000Y-18020000D01*
X15090000Y-17980000D02*
X15050000Y-18020000D01*
D13*
X16283135Y-8153400D02*
G75*
G03*
X16283135Y-8153400I-40000J0D01*
G01*
X16633135Y-8153400D02*
G75*
G03*
X16633135Y-8153400I-40000J0D01*
G01*
D14*
X8293200Y-7663600D02*
X8293200Y-7763600D01*
X8243200Y-7713600D02*
X8343200Y-7713600D01*
X9393200Y-7663600D02*
X9393200Y-7763600D01*
X9343200Y-7713600D02*
X9443200Y-7713600D01*
X13855000Y-7553400D02*
X13855000Y-7653400D01*
X13805000Y-7603400D02*
X13905000Y-7603400D01*
X13855000Y-8653400D02*
X13855000Y-8753400D01*
X13805000Y-8703400D02*
X13905000Y-8703400D01*
D15*
X9823221Y-13127921D02*
X9823221Y-13056079D01*
X9751379Y-13056079D01*
X9751379Y-13127921D01*
X9823221Y-13127921D01*
X9823221Y-13635921D02*
X9823221Y-13564079D01*
X9751379Y-13564079D01*
X9751379Y-13635921D01*
X9823221Y-13635921D01*
X9848621Y-13381921D02*
X9848621Y-13310079D01*
X9776779Y-13310079D01*
X9776779Y-13381921D01*
X9848621Y-13381921D01*
X12913721Y-12763861D02*
X12913721Y-12692019D01*
X12841879Y-12692019D01*
X12841879Y-12763861D01*
X12913721Y-12763861D01*
X12913721Y-16063321D02*
X12913721Y-15991479D01*
X12841879Y-15991479D01*
X12841879Y-16063321D01*
X12913721Y-16063321D01*
X13167721Y-12809581D02*
X13167721Y-12737739D01*
X13095879Y-12737739D01*
X13095879Y-12809581D01*
X13167721Y-12809581D01*
X13167721Y-16109041D02*
X13167721Y-16037199D01*
X13095879Y-16037199D01*
X13095879Y-16109041D01*
X13167721Y-16109041D01*
X13421721Y-12763861D02*
X13421721Y-12692019D01*
X13349879Y-12692019D01*
X13349879Y-12763861D01*
X13421721Y-12763861D01*
X13421721Y-16063321D02*
X13421721Y-15991479D01*
X13349879Y-15991479D01*
X13349879Y-16063321D01*
X13421721Y-16063321D01*
X13675721Y-12809581D02*
X13675721Y-12737739D01*
X13603879Y-12737739D01*
X13603879Y-12809581D01*
X13675721Y-12809581D01*
X13675721Y-16109041D02*
X13675721Y-16037199D01*
X13603879Y-16037199D01*
X13603879Y-16109041D01*
X13675721Y-16109041D01*
X13929721Y-12763861D02*
X13929721Y-12692019D01*
X13857879Y-12692019D01*
X13857879Y-12763861D01*
X13929721Y-12763861D01*
X13929721Y-16063321D02*
X13929721Y-15991479D01*
X13857879Y-15991479D01*
X13857879Y-16063321D01*
X13929721Y-16063321D01*
X14183721Y-12809581D02*
X14183721Y-12737739D01*
X14111879Y-12737739D01*
X14111879Y-12809581D01*
X14183721Y-12809581D01*
X14183721Y-16109041D02*
X14183721Y-16037199D01*
X14111879Y-16037199D01*
X14111879Y-16109041D01*
X14183721Y-16109041D01*
X14437721Y-12763861D02*
X14437721Y-12692019D01*
X14365879Y-12692019D01*
X14365879Y-12763861D01*
X14437721Y-12763861D01*
X14437721Y-16063321D02*
X14437721Y-15991479D01*
X14365879Y-15991479D01*
X14365879Y-16063321D01*
X14437721Y-16063321D01*
X14691721Y-12809581D02*
X14691721Y-12737739D01*
X14619879Y-12737739D01*
X14619879Y-12809581D01*
X14691721Y-12809581D01*
X14691721Y-16109041D02*
X14691721Y-16037199D01*
X14619879Y-16037199D01*
X14619879Y-16109041D01*
X14691721Y-16109041D01*
X15200921Y-12910521D02*
X15200921Y-12838679D01*
X15129079Y-12838679D01*
X15129079Y-12910521D01*
X15200921Y-12910521D01*
X15454921Y-12961321D02*
X15454921Y-12889479D01*
X15383079Y-12889479D01*
X15383079Y-12961321D01*
X15454921Y-12961321D01*
X15708921Y-12910521D02*
X15708921Y-12838679D01*
X15637079Y-12838679D01*
X15637079Y-12910521D01*
X15708921Y-12910521D01*
X15962921Y-12961321D02*
X15962921Y-12889479D01*
X15891079Y-12889479D01*
X15891079Y-12961321D01*
X15962921Y-12961321D01*
X16216921Y-12910521D02*
X16216921Y-12838679D01*
X16145079Y-12838679D01*
X16145079Y-12910521D01*
X16216921Y-12910521D01*
X16470921Y-12961321D02*
X16470921Y-12889479D01*
X16399079Y-12889479D01*
X16399079Y-12961321D01*
X16470921Y-12961321D01*
D16*
X10985500Y-16983000D02*
X11040500Y-16928000D01*
X10985500Y-16873000D01*
X10930500Y-16928000D01*
X10985500Y-16983000D01*
X10985500Y-18507000D02*
X11040500Y-18452000D01*
X10985500Y-18397000D01*
X10930500Y-18452000D01*
X10985500Y-18507000D01*
X11239500Y-16983000D02*
X11294500Y-16928000D01*
X11239500Y-16873000D01*
X11184500Y-16928000D01*
X11239500Y-16983000D01*
X11239500Y-18507000D02*
X11294500Y-18452000D01*
X11239500Y-18397000D01*
X11184500Y-18452000D01*
X11239500Y-18507000D01*
X11328400Y-8614800D02*
X11383400Y-8559800D01*
X11328400Y-8504800D01*
X11273400Y-8559800D01*
X11328400Y-8614800D01*
X11493500Y-16983000D02*
X11548500Y-16928000D01*
X11493500Y-16873000D01*
X11438500Y-16928000D01*
X11493500Y-16983000D01*
X11493500Y-18507000D02*
X11548500Y-18452000D01*
X11493500Y-18397000D01*
X11438500Y-18452000D01*
X11493500Y-18507000D01*
X11747500Y-16983000D02*
X11802500Y-16928000D01*
X11747500Y-16873000D01*
X11692500Y-16928000D01*
X11747500Y-16983000D01*
X11747500Y-18507000D02*
X11802500Y-18452000D01*
X11747500Y-18397000D01*
X11692500Y-18452000D01*
X11747500Y-18507000D01*
X12001500Y-16983000D02*
X12056500Y-16928000D01*
X12001500Y-16873000D01*
X11946500Y-16928000D01*
X12001500Y-16983000D01*
X12001500Y-18507000D02*
X12056500Y-18452000D01*
X12001500Y-18397000D01*
X11946500Y-18452000D01*
X12001500Y-18507000D01*
X12255500Y-16983000D02*
X12310500Y-16928000D01*
X12255500Y-16873000D01*
X12200500Y-16928000D01*
X12255500Y-16983000D01*
X12255500Y-18507000D02*
X12310500Y-18452000D01*
X12255500Y-18397000D01*
X12200500Y-18452000D01*
X12255500Y-18507000D01*
X12344400Y-8614800D02*
X12399400Y-8559800D01*
X12344400Y-8504800D01*
X12289400Y-8559800D01*
X12344400Y-8614800D01*
X12509500Y-16983000D02*
X12564500Y-16928000D01*
X12509500Y-16873000D01*
X12454500Y-16928000D01*
X12509500Y-16983000D01*
X12509500Y-18507000D02*
X12564500Y-18452000D01*
X12509500Y-18397000D01*
X12454500Y-18452000D01*
X12509500Y-18507000D01*
X12763500Y-16983000D02*
X12818500Y-16928000D01*
X12763500Y-16873000D01*
X12708500Y-16928000D01*
X12763500Y-16983000D01*
X12763500Y-18507000D02*
X12818500Y-18452000D01*
X12763500Y-18397000D01*
X12708500Y-18452000D01*
X12763500Y-18507000D01*
X13017500Y-16983000D02*
X13072500Y-16928000D01*
X13017500Y-16873000D01*
X12962500Y-16928000D01*
X13017500Y-16983000D01*
X13017500Y-18507000D02*
X13072500Y-18452000D01*
X13017500Y-18397000D01*
X12962500Y-18452000D01*
X13017500Y-18507000D01*
X13271500Y-16983000D02*
X13326500Y-16928000D01*
X13271500Y-16873000D01*
X13216500Y-16928000D01*
X13271500Y-16983000D01*
X13271500Y-18507000D02*
X13326500Y-18452000D01*
X13271500Y-18397000D01*
X13216500Y-18452000D01*
X13271500Y-18507000D01*
X13525500Y-16983000D02*
X13580500Y-16928000D01*
X13525500Y-16873000D01*
X13470500Y-16928000D01*
X13525500Y-16983000D01*
X13525500Y-18507000D02*
X13580500Y-18452000D01*
X13525500Y-18397000D01*
X13470500Y-18452000D01*
X13525500Y-18507000D01*
X13779500Y-16983000D02*
X13834500Y-16928000D01*
X13779500Y-16873000D01*
X13724500Y-16928000D01*
X13779500Y-16983000D01*
X13779500Y-18507000D02*
X13834500Y-18452000D01*
X13779500Y-18397000D01*
X13724500Y-18452000D01*
X13779500Y-18507000D01*
X14033500Y-16983000D02*
X14088500Y-16928000D01*
X14033500Y-16873000D01*
X13978500Y-16928000D01*
X14033500Y-16983000D01*
X14033500Y-18507000D02*
X14088500Y-18452000D01*
X14033500Y-18397000D01*
X13978500Y-18452000D01*
X14033500Y-18507000D01*
X14287500Y-16983000D02*
X14342500Y-16928000D01*
X14287500Y-16873000D01*
X14232500Y-16928000D01*
X14287500Y-16983000D01*
X14287500Y-17237000D02*
X14342500Y-17182000D01*
X14287500Y-17127000D01*
X14232500Y-17182000D01*
X14287500Y-17237000D01*
X14287500Y-17491000D02*
X14342500Y-17436000D01*
X14287500Y-17381000D01*
X14232500Y-17436000D01*
X14287500Y-17491000D01*
X14287500Y-17745000D02*
X14342500Y-17690000D01*
X14287500Y-17635000D01*
X14232500Y-17690000D01*
X14287500Y-17745000D01*
X14287500Y-17999000D02*
X14342500Y-17944000D01*
X14287500Y-17889000D01*
X14232500Y-17944000D01*
X14287500Y-17999000D01*
X14287500Y-18253000D02*
X14342500Y-18198000D01*
X14287500Y-18143000D01*
X14232500Y-18198000D01*
X14287500Y-18253000D01*
X14287500Y-18507000D02*
X14342500Y-18452000D01*
X14287500Y-18397000D01*
X14232500Y-18452000D01*
X14287500Y-18507000D01*
D17*
X11268400Y-7942800D02*
X11388400Y-8062800D01*
X11388400Y-7942800D02*
X11268400Y-8062800D01*
X11388400Y-8002800D02*
G75*
G03*
X11388400Y-8002800I-60000J0D01*
G01*
X12792400Y-7942800D02*
X12912400Y-8062800D01*
X12912400Y-7942800D02*
X12792400Y-8062800D01*
X12912400Y-8002800D02*
G75*
G03*
X12912400Y-8002800I-60000J0D01*
G01*
D18*
X8498200Y-7118600D02*
X8688200Y-7308600D01*
X8688200Y-7118600D02*
X8498200Y-7308600D01*
X8593200Y-7118600D02*
X8593200Y-7308600D01*
X8498200Y-7213600D02*
X8688200Y-7213600D01*
X8998200Y-7118600D02*
X9188200Y-7308600D01*
X9188200Y-7118600D02*
X8998200Y-7308600D01*
X9093200Y-7118600D02*
X9093200Y-7308600D01*
X8998200Y-7213600D02*
X9188200Y-7213600D01*
X13260000Y-7808400D02*
X13450000Y-7998400D01*
X13450000Y-7808400D02*
X13260000Y-7998400D01*
X13355000Y-7808400D02*
X13355000Y-7998400D01*
X13260000Y-7903400D02*
X13450000Y-7903400D01*
X13260000Y-8308400D02*
X13450000Y-8498400D01*
X13450000Y-8308400D02*
X13260000Y-8498400D01*
X13355000Y-8308400D02*
X13355000Y-8498400D01*
X13260000Y-8403400D02*
X13450000Y-8403400D01*
D19*
X10018302Y-8221200D02*
X10238302Y-8441200D01*
X10238302Y-8221200D02*
X10018302Y-8441200D01*
X10206084Y-8408983D02*
X10206084Y-8253417D01*
X10050519Y-8253417D01*
X10050519Y-8408983D01*
X10206084Y-8408983D01*
D11*
X3920619Y-19355076D02*
X3920619Y-19155076D01*
X3968238Y-19155076D01*
X3996809Y-19164600D01*
X4015857Y-19183648D01*
X4025381Y-19202695D01*
X4034905Y-19240790D01*
X4034905Y-19269362D01*
X4025381Y-19307457D01*
X4015857Y-19326505D01*
X3996809Y-19345552D01*
X3968238Y-19355076D01*
X3920619Y-19355076D01*
X4120619Y-19355076D02*
X4120619Y-19221743D01*
X4120619Y-19259838D02*
X4130143Y-19240790D01*
X4139667Y-19231267D01*
X4158714Y-19221743D01*
X4177762Y-19221743D01*
X4244429Y-19355076D02*
X4244429Y-19221743D01*
X4244429Y-19155076D02*
X4234905Y-19164600D01*
X4244429Y-19174124D01*
X4253952Y-19164600D01*
X4244429Y-19155076D01*
X4244429Y-19174124D01*
X4368238Y-19355076D02*
X4349190Y-19345552D01*
X4339667Y-19326505D01*
X4339667Y-19155076D01*
X4473000Y-19355076D02*
X4453952Y-19345552D01*
X4444429Y-19326505D01*
X4444429Y-19155076D01*
X4701571Y-19355076D02*
X4701571Y-19155076D01*
X4768238Y-19297933D01*
X4834905Y-19155076D01*
X4834905Y-19355076D01*
X5015857Y-19355076D02*
X5015857Y-19250314D01*
X5006333Y-19231267D01*
X4987286Y-19221743D01*
X4949190Y-19221743D01*
X4930143Y-19231267D01*
X5015857Y-19345552D02*
X4996810Y-19355076D01*
X4949190Y-19355076D01*
X4930143Y-19345552D01*
X4920619Y-19326505D01*
X4920619Y-19307457D01*
X4930143Y-19288410D01*
X4949190Y-19278886D01*
X4996810Y-19278886D01*
X5015857Y-19269362D01*
X5111095Y-19221743D02*
X5111095Y-19421743D01*
X5111095Y-19231267D02*
X5130143Y-19221743D01*
X5168238Y-19221743D01*
X5187286Y-19231267D01*
X5196810Y-19240790D01*
X5206333Y-19259838D01*
X5206333Y-19316981D01*
X5196810Y-19336029D01*
X5187286Y-19345552D01*
X5168238Y-19355076D01*
X5130143Y-19355076D01*
X5111095Y-19345552D01*
X5292048Y-19336029D02*
X5301571Y-19345552D01*
X5292048Y-19355076D01*
X5282524Y-19345552D01*
X5292048Y-19336029D01*
X5292048Y-19355076D01*
X5292048Y-19231267D02*
X5301571Y-19240790D01*
X5292048Y-19250314D01*
X5282524Y-19240790D01*
X5292048Y-19231267D01*
X5292048Y-19250314D01*
D12*
X3623000Y-19664600D02*
X3663000Y-19704600D01*
X3663000Y-19664600D02*
X3623000Y-19704600D01*
D11*
X3958714Y-19575076D02*
X3977762Y-19575076D01*
X3996809Y-19584600D01*
X4006333Y-19594124D01*
X4015857Y-19613171D01*
X4025381Y-19651267D01*
X4025381Y-19698886D01*
X4015857Y-19736981D01*
X4006333Y-19756029D01*
X3996809Y-19765552D01*
X3977762Y-19775076D01*
X3958714Y-19775076D01*
X3939667Y-19765552D01*
X3930143Y-19756029D01*
X3920619Y-19736981D01*
X3911095Y-19698886D01*
X3911095Y-19651267D01*
X3920619Y-19613171D01*
X3930143Y-19594124D01*
X3939667Y-19584600D01*
X3958714Y-19575076D01*
X4111095Y-19756029D02*
X4120619Y-19765552D01*
X4111095Y-19775076D01*
X4101571Y-19765552D01*
X4111095Y-19756029D01*
X4111095Y-19775076D01*
X4292048Y-19641743D02*
X4292048Y-19775076D01*
X4244429Y-19565552D02*
X4196810Y-19708410D01*
X4320619Y-19708410D01*
X4434905Y-19575076D02*
X4453952Y-19575076D01*
X4473000Y-19584600D01*
X4482524Y-19594124D01*
X4492048Y-19613171D01*
X4501571Y-19651267D01*
X4501571Y-19698886D01*
X4492048Y-19736981D01*
X4482524Y-19756029D01*
X4473000Y-19765552D01*
X4453952Y-19775076D01*
X4434905Y-19775076D01*
X4415857Y-19765552D01*
X4406333Y-19756029D01*
X4396810Y-19736981D01*
X4387286Y-19698886D01*
X4387286Y-19651267D01*
X4396810Y-19613171D01*
X4406333Y-19594124D01*
X4415857Y-19584600D01*
X4434905Y-19575076D01*
X4625381Y-19575076D02*
X4644429Y-19575076D01*
X4663476Y-19584600D01*
X4673000Y-19594124D01*
X4682524Y-19613171D01*
X4692048Y-19651267D01*
X4692048Y-19698886D01*
X4682524Y-19736981D01*
X4673000Y-19756029D01*
X4663476Y-19765552D01*
X4644429Y-19775076D01*
X4625381Y-19775076D01*
X4606333Y-19765552D01*
X4596810Y-19756029D01*
X4587286Y-19736981D01*
X4577762Y-19698886D01*
X4577762Y-19651267D01*
X4587286Y-19613171D01*
X4596810Y-19594124D01*
X4606333Y-19584600D01*
X4625381Y-19575076D01*
X4777762Y-19775076D02*
X4777762Y-19641743D01*
X4777762Y-19660790D02*
X4787286Y-19651267D01*
X4806333Y-19641743D01*
X4834905Y-19641743D01*
X4853952Y-19651267D01*
X4863476Y-19670314D01*
X4863476Y-19775076D01*
X4863476Y-19670314D02*
X4873000Y-19651267D01*
X4892048Y-19641743D01*
X4920619Y-19641743D01*
X4939667Y-19651267D01*
X4949190Y-19670314D01*
X4949190Y-19775076D01*
X5044429Y-19775076D02*
X5044429Y-19641743D01*
X5044429Y-19660790D02*
X5053952Y-19651267D01*
X5073000Y-19641743D01*
X5101571Y-19641743D01*
X5120619Y-19651267D01*
X5130143Y-19670314D01*
X5130143Y-19775076D01*
X5130143Y-19670314D02*
X5139667Y-19651267D01*
X5158714Y-19641743D01*
X5187286Y-19641743D01*
X5206333Y-19651267D01*
X5215857Y-19670314D01*
X5215857Y-19775076D01*
X5606333Y-19565552D02*
X5434905Y-19822695D01*
X5863476Y-19575076D02*
X5882524Y-19575076D01*
X5901571Y-19584600D01*
X5911095Y-19594124D01*
X5920619Y-19613171D01*
X5930143Y-19651267D01*
X5930143Y-19698886D01*
X5920619Y-19736981D01*
X5911095Y-19756029D01*
X5901571Y-19765552D01*
X5882524Y-19775076D01*
X5863476Y-19775076D01*
X5844428Y-19765552D01*
X5834905Y-19756029D01*
X5825381Y-19736981D01*
X5815857Y-19698886D01*
X5815857Y-19651267D01*
X5825381Y-19613171D01*
X5834905Y-19594124D01*
X5844428Y-19584600D01*
X5863476Y-19575076D01*
X6015857Y-19756029D02*
X6025381Y-19765552D01*
X6015857Y-19775076D01*
X6006333Y-19765552D01*
X6015857Y-19756029D01*
X6015857Y-19775076D01*
X6149190Y-19575076D02*
X6168238Y-19575076D01*
X6187286Y-19584600D01*
X6196809Y-19594124D01*
X6206333Y-19613171D01*
X6215857Y-19651267D01*
X6215857Y-19698886D01*
X6206333Y-19736981D01*
X6196809Y-19756029D01*
X6187286Y-19765552D01*
X6168238Y-19775076D01*
X6149190Y-19775076D01*
X6130143Y-19765552D01*
X6120619Y-19756029D01*
X6111095Y-19736981D01*
X6101571Y-19698886D01*
X6101571Y-19651267D01*
X6111095Y-19613171D01*
X6120619Y-19594124D01*
X6130143Y-19584600D01*
X6149190Y-19575076D01*
X6406333Y-19775076D02*
X6292048Y-19775076D01*
X6349190Y-19775076D02*
X6349190Y-19575076D01*
X6330143Y-19603648D01*
X6311095Y-19622695D01*
X6292048Y-19632219D01*
X6587286Y-19575076D02*
X6492048Y-19575076D01*
X6482524Y-19670314D01*
X6492048Y-19660790D01*
X6511095Y-19651267D01*
X6558714Y-19651267D01*
X6577762Y-19660790D01*
X6587286Y-19670314D01*
X6596809Y-19689362D01*
X6596809Y-19736981D01*
X6587286Y-19756029D01*
X6577762Y-19765552D01*
X6558714Y-19775076D01*
X6511095Y-19775076D01*
X6492048Y-19765552D01*
X6482524Y-19756029D01*
X6663476Y-19575076D02*
X6796809Y-19575076D01*
X6711095Y-19775076D01*
X6863476Y-19575076D02*
X6863476Y-19613171D01*
X6939667Y-19575076D02*
X6939667Y-19613171D01*
X7234905Y-19851267D02*
X7225381Y-19841743D01*
X7206333Y-19813171D01*
X7196809Y-19794124D01*
X7187286Y-19765552D01*
X7177762Y-19717933D01*
X7177762Y-19679838D01*
X7187286Y-19632219D01*
X7196809Y-19603648D01*
X7206333Y-19584600D01*
X7225381Y-19556029D01*
X7234905Y-19546505D01*
X7415857Y-19775076D02*
X7301571Y-19775076D01*
X7358714Y-19775076D02*
X7358714Y-19575076D01*
X7339667Y-19603648D01*
X7320619Y-19622695D01*
X7301571Y-19632219D01*
X7596809Y-19575076D02*
X7501571Y-19575076D01*
X7492048Y-19670314D01*
X7501571Y-19660790D01*
X7520619Y-19651267D01*
X7568238Y-19651267D01*
X7587286Y-19660790D01*
X7596809Y-19670314D01*
X7606333Y-19689362D01*
X7606333Y-19736981D01*
X7596809Y-19756029D01*
X7587286Y-19765552D01*
X7568238Y-19775076D01*
X7520619Y-19775076D01*
X7501571Y-19765552D01*
X7492048Y-19756029D01*
X7844428Y-19775076D02*
X7844428Y-19575076D01*
X7930143Y-19775076D02*
X7930143Y-19670314D01*
X7920619Y-19651267D01*
X7901571Y-19641743D01*
X7873000Y-19641743D01*
X7853952Y-19651267D01*
X7844428Y-19660790D01*
X8053952Y-19775076D02*
X8034905Y-19765552D01*
X8025381Y-19756029D01*
X8015857Y-19736981D01*
X8015857Y-19679838D01*
X8025381Y-19660790D01*
X8034905Y-19651267D01*
X8053952Y-19641743D01*
X8082524Y-19641743D01*
X8101571Y-19651267D01*
X8111095Y-19660790D01*
X8120619Y-19679838D01*
X8120619Y-19736981D01*
X8111095Y-19756029D01*
X8101571Y-19765552D01*
X8082524Y-19775076D01*
X8053952Y-19775076D01*
X8234905Y-19775076D02*
X8215857Y-19765552D01*
X8206333Y-19746505D01*
X8206333Y-19575076D01*
X8387286Y-19765552D02*
X8368238Y-19775076D01*
X8330143Y-19775076D01*
X8311095Y-19765552D01*
X8301571Y-19746505D01*
X8301571Y-19670314D01*
X8311095Y-19651267D01*
X8330143Y-19641743D01*
X8368238Y-19641743D01*
X8387286Y-19651267D01*
X8396810Y-19670314D01*
X8396810Y-19689362D01*
X8301571Y-19708410D01*
X8473000Y-19765552D02*
X8492048Y-19775076D01*
X8530143Y-19775076D01*
X8549190Y-19765552D01*
X8558714Y-19746505D01*
X8558714Y-19736981D01*
X8549190Y-19717933D01*
X8530143Y-19708410D01*
X8501571Y-19708410D01*
X8482524Y-19698886D01*
X8473000Y-19679838D01*
X8473000Y-19670314D01*
X8482524Y-19651267D01*
X8501571Y-19641743D01*
X8530143Y-19641743D01*
X8549190Y-19651267D01*
X8625381Y-19851267D02*
X8634905Y-19841743D01*
X8653952Y-19813171D01*
X8663476Y-19794124D01*
X8673000Y-19765552D01*
X8682524Y-19717933D01*
X8682524Y-19679838D01*
X8673000Y-19632219D01*
X8663476Y-19603648D01*
X8653952Y-19584600D01*
X8634905Y-19556029D01*
X8625381Y-19546505D01*
D13*
X3663000Y-19948600D02*
G75*
G03*
X3663000Y-19948600I-40000J0D01*
G01*
D11*
X3958714Y-19839076D02*
X3977762Y-19839076D01*
X3996809Y-19848600D01*
X4006333Y-19858124D01*
X4015857Y-19877171D01*
X4025381Y-19915267D01*
X4025381Y-19962886D01*
X4015857Y-20000981D01*
X4006333Y-20020029D01*
X3996809Y-20029552D01*
X3977762Y-20039076D01*
X3958714Y-20039076D01*
X3939667Y-20029552D01*
X3930143Y-20020029D01*
X3920619Y-20000981D01*
X3911095Y-19962886D01*
X3911095Y-19915267D01*
X3920619Y-19877171D01*
X3930143Y-19858124D01*
X3939667Y-19848600D01*
X3958714Y-19839076D01*
X4111095Y-20020029D02*
X4120619Y-20029552D01*
X4111095Y-20039076D01*
X4101571Y-20029552D01*
X4111095Y-20020029D01*
X4111095Y-20039076D01*
X4234905Y-19924790D02*
X4215857Y-19915267D01*
X4206333Y-19905743D01*
X4196810Y-19886695D01*
X4196810Y-19877171D01*
X4206333Y-19858124D01*
X4215857Y-19848600D01*
X4234905Y-19839076D01*
X4273000Y-19839076D01*
X4292048Y-19848600D01*
X4301571Y-19858124D01*
X4311095Y-19877171D01*
X4311095Y-19886695D01*
X4301571Y-19905743D01*
X4292048Y-19915267D01*
X4273000Y-19924790D01*
X4234905Y-19924790D01*
X4215857Y-19934314D01*
X4206333Y-19943838D01*
X4196810Y-19962886D01*
X4196810Y-20000981D01*
X4206333Y-20020029D01*
X4215857Y-20029552D01*
X4234905Y-20039076D01*
X4273000Y-20039076D01*
X4292048Y-20029552D01*
X4301571Y-20020029D01*
X4311095Y-20000981D01*
X4311095Y-19962886D01*
X4301571Y-19943838D01*
X4292048Y-19934314D01*
X4273000Y-19924790D01*
X4434905Y-19839076D02*
X4453952Y-19839076D01*
X4473000Y-19848600D01*
X4482524Y-19858124D01*
X4492048Y-19877171D01*
X4501571Y-19915267D01*
X4501571Y-19962886D01*
X4492048Y-20000981D01*
X4482524Y-20020029D01*
X4473000Y-20029552D01*
X4453952Y-20039076D01*
X4434905Y-20039076D01*
X4415857Y-20029552D01*
X4406333Y-20020029D01*
X4396810Y-20000981D01*
X4387286Y-19962886D01*
X4387286Y-19915267D01*
X4396810Y-19877171D01*
X4406333Y-19858124D01*
X4415857Y-19848600D01*
X4434905Y-19839076D01*
X4625381Y-19839076D02*
X4644429Y-19839076D01*
X4663476Y-19848600D01*
X4673000Y-19858124D01*
X4682524Y-19877171D01*
X4692048Y-19915267D01*
X4692048Y-19962886D01*
X4682524Y-20000981D01*
X4673000Y-20020029D01*
X4663476Y-20029552D01*
X4644429Y-20039076D01*
X4625381Y-20039076D01*
X4606333Y-20029552D01*
X4596810Y-20020029D01*
X4587286Y-20000981D01*
X4577762Y-19962886D01*
X4577762Y-19915267D01*
X4587286Y-19877171D01*
X4596810Y-19858124D01*
X4606333Y-19848600D01*
X4625381Y-19839076D01*
X4777762Y-20039076D02*
X4777762Y-19905743D01*
X4777762Y-19924790D02*
X4787286Y-19915267D01*
X4806333Y-19905743D01*
X4834905Y-19905743D01*
X4853952Y-19915267D01*
X4863476Y-19934314D01*
X4863476Y-20039076D01*
X4863476Y-19934314D02*
X4873000Y-19915267D01*
X4892048Y-19905743D01*
X4920619Y-19905743D01*
X4939667Y-19915267D01*
X4949190Y-19934314D01*
X4949190Y-20039076D01*
X5044429Y-20039076D02*
X5044429Y-19905743D01*
X5044429Y-19924790D02*
X5053952Y-19915267D01*
X5073000Y-19905743D01*
X5101571Y-19905743D01*
X5120619Y-19915267D01*
X5130143Y-19934314D01*
X5130143Y-20039076D01*
X5130143Y-19934314D02*
X5139667Y-19915267D01*
X5158714Y-19905743D01*
X5187286Y-19905743D01*
X5206333Y-19915267D01*
X5215857Y-19934314D01*
X5215857Y-20039076D01*
X5606333Y-19829552D02*
X5434905Y-20086695D01*
X5863476Y-19839076D02*
X5882524Y-19839076D01*
X5901571Y-19848600D01*
X5911095Y-19858124D01*
X5920619Y-19877171D01*
X5930143Y-19915267D01*
X5930143Y-19962886D01*
X5920619Y-20000981D01*
X5911095Y-20020029D01*
X5901571Y-20029552D01*
X5882524Y-20039076D01*
X5863476Y-20039076D01*
X5844428Y-20029552D01*
X5834905Y-20020029D01*
X5825381Y-20000981D01*
X5815857Y-19962886D01*
X5815857Y-19915267D01*
X5825381Y-19877171D01*
X5834905Y-19858124D01*
X5844428Y-19848600D01*
X5863476Y-19839076D01*
X6015857Y-20020029D02*
X6025381Y-20029552D01*
X6015857Y-20039076D01*
X6006333Y-20029552D01*
X6015857Y-20020029D01*
X6015857Y-20039076D01*
X6149190Y-19839076D02*
X6168238Y-19839076D01*
X6187286Y-19848600D01*
X6196809Y-19858124D01*
X6206333Y-19877171D01*
X6215857Y-19915267D01*
X6215857Y-19962886D01*
X6206333Y-20000981D01*
X6196809Y-20020029D01*
X6187286Y-20029552D01*
X6168238Y-20039076D01*
X6149190Y-20039076D01*
X6130143Y-20029552D01*
X6120619Y-20020029D01*
X6111095Y-20000981D01*
X6101571Y-19962886D01*
X6101571Y-19915267D01*
X6111095Y-19877171D01*
X6120619Y-19858124D01*
X6130143Y-19848600D01*
X6149190Y-19839076D01*
X6282524Y-19839076D02*
X6406333Y-19839076D01*
X6339667Y-19915267D01*
X6368238Y-19915267D01*
X6387286Y-19924790D01*
X6396809Y-19934314D01*
X6406333Y-19953362D01*
X6406333Y-20000981D01*
X6396809Y-20020029D01*
X6387286Y-20029552D01*
X6368238Y-20039076D01*
X6311095Y-20039076D01*
X6292048Y-20029552D01*
X6282524Y-20020029D01*
X6596809Y-20039076D02*
X6482524Y-20039076D01*
X6539667Y-20039076D02*
X6539667Y-19839076D01*
X6520619Y-19867648D01*
X6501571Y-19886695D01*
X6482524Y-19896219D01*
X6777762Y-19839076D02*
X6682524Y-19839076D01*
X6673000Y-19934314D01*
X6682524Y-19924790D01*
X6701571Y-19915267D01*
X6749190Y-19915267D01*
X6768238Y-19924790D01*
X6777762Y-19934314D01*
X6787286Y-19953362D01*
X6787286Y-20000981D01*
X6777762Y-20020029D01*
X6768238Y-20029552D01*
X6749190Y-20039076D01*
X6701571Y-20039076D01*
X6682524Y-20029552D01*
X6673000Y-20020029D01*
X6863476Y-19839076D02*
X6863476Y-19877171D01*
X6939667Y-19839076D02*
X6939667Y-19877171D01*
X7234905Y-20115267D02*
X7225381Y-20105743D01*
X7206333Y-20077171D01*
X7196809Y-20058124D01*
X7187286Y-20029552D01*
X7177762Y-19981933D01*
X7177762Y-19943838D01*
X7187286Y-19896219D01*
X7196809Y-19867648D01*
X7206333Y-19848600D01*
X7225381Y-19820029D01*
X7234905Y-19810505D01*
X7301571Y-19858124D02*
X7311095Y-19848600D01*
X7330143Y-19839076D01*
X7377762Y-19839076D01*
X7396809Y-19848600D01*
X7406333Y-19858124D01*
X7415857Y-19877171D01*
X7415857Y-19896219D01*
X7406333Y-19924790D01*
X7292048Y-20039076D01*
X7415857Y-20039076D01*
X7653952Y-20039076D02*
X7653952Y-19839076D01*
X7739667Y-20039076D02*
X7739667Y-19934314D01*
X7730143Y-19915267D01*
X7711095Y-19905743D01*
X7682524Y-19905743D01*
X7663476Y-19915267D01*
X7653952Y-19924790D01*
X7863476Y-20039076D02*
X7844428Y-20029552D01*
X7834905Y-20020029D01*
X7825381Y-20000981D01*
X7825381Y-19943838D01*
X7834905Y-19924790D01*
X7844428Y-19915267D01*
X7863476Y-19905743D01*
X7892048Y-19905743D01*
X7911095Y-19915267D01*
X7920619Y-19924790D01*
X7930143Y-19943838D01*
X7930143Y-20000981D01*
X7920619Y-20020029D01*
X7911095Y-20029552D01*
X7892048Y-20039076D01*
X7863476Y-20039076D01*
X8044428Y-20039076D02*
X8025381Y-20029552D01*
X8015857Y-20010505D01*
X8015857Y-19839076D01*
X8196809Y-20029552D02*
X8177762Y-20039076D01*
X8139667Y-20039076D01*
X8120619Y-20029552D01*
X8111095Y-20010505D01*
X8111095Y-19934314D01*
X8120619Y-19915267D01*
X8139667Y-19905743D01*
X8177762Y-19905743D01*
X8196809Y-19915267D01*
X8206333Y-19934314D01*
X8206333Y-19953362D01*
X8111095Y-19972410D01*
X8282524Y-20029552D02*
X8301571Y-20039076D01*
X8339667Y-20039076D01*
X8358714Y-20029552D01*
X8368238Y-20010505D01*
X8368238Y-20000981D01*
X8358714Y-19981933D01*
X8339667Y-19972410D01*
X8311095Y-19972410D01*
X8292048Y-19962886D01*
X8282524Y-19943838D01*
X8282524Y-19934314D01*
X8292048Y-19915267D01*
X8311095Y-19905743D01*
X8339667Y-19905743D01*
X8358714Y-19915267D01*
X8434905Y-20115267D02*
X8444429Y-20105743D01*
X8463476Y-20077171D01*
X8473000Y-20058124D01*
X8482524Y-20029552D01*
X8492048Y-19981933D01*
X8492048Y-19943838D01*
X8482524Y-19896219D01*
X8473000Y-19867648D01*
X8463476Y-19848600D01*
X8444429Y-19820029D01*
X8434905Y-19810505D01*
D14*
X3613000Y-20162600D02*
X3613000Y-20262600D01*
X3563000Y-20212600D02*
X3663000Y-20212600D01*
D11*
X4025381Y-20303076D02*
X3911095Y-20303076D01*
X3968238Y-20303076D02*
X3968238Y-20103076D01*
X3949190Y-20131648D01*
X3930143Y-20150695D01*
X3911095Y-20160219D01*
X4111095Y-20284029D02*
X4120619Y-20293552D01*
X4111095Y-20303076D01*
X4101571Y-20293552D01*
X4111095Y-20284029D01*
X4111095Y-20303076D01*
X4244429Y-20103076D02*
X4263476Y-20103076D01*
X4282524Y-20112600D01*
X4292048Y-20122124D01*
X4301571Y-20141171D01*
X4311095Y-20179267D01*
X4311095Y-20226886D01*
X4301571Y-20264981D01*
X4292048Y-20284029D01*
X4282524Y-20293552D01*
X4263476Y-20303076D01*
X4244429Y-20303076D01*
X4225381Y-20293552D01*
X4215857Y-20284029D01*
X4206333Y-20264981D01*
X4196810Y-20226886D01*
X4196810Y-20179267D01*
X4206333Y-20141171D01*
X4215857Y-20122124D01*
X4225381Y-20112600D01*
X4244429Y-20103076D01*
X4434905Y-20103076D02*
X4453952Y-20103076D01*
X4473000Y-20112600D01*
X4482524Y-20122124D01*
X4492048Y-20141171D01*
X4501571Y-20179267D01*
X4501571Y-20226886D01*
X4492048Y-20264981D01*
X4482524Y-20284029D01*
X4473000Y-20293552D01*
X4453952Y-20303076D01*
X4434905Y-20303076D01*
X4415857Y-20293552D01*
X4406333Y-20284029D01*
X4396810Y-20264981D01*
X4387286Y-20226886D01*
X4387286Y-20179267D01*
X4396810Y-20141171D01*
X4406333Y-20122124D01*
X4415857Y-20112600D01*
X4434905Y-20103076D01*
X4625381Y-20103076D02*
X4644429Y-20103076D01*
X4663476Y-20112600D01*
X4673000Y-20122124D01*
X4682524Y-20141171D01*
X4692048Y-20179267D01*
X4692048Y-20226886D01*
X4682524Y-20264981D01*
X4673000Y-20284029D01*
X4663476Y-20293552D01*
X4644429Y-20303076D01*
X4625381Y-20303076D01*
X4606333Y-20293552D01*
X4596810Y-20284029D01*
X4587286Y-20264981D01*
X4577762Y-20226886D01*
X4577762Y-20179267D01*
X4587286Y-20141171D01*
X4596810Y-20122124D01*
X4606333Y-20112600D01*
X4625381Y-20103076D01*
X4777762Y-20303076D02*
X4777762Y-20169743D01*
X4777762Y-20188790D02*
X4787286Y-20179267D01*
X4806333Y-20169743D01*
X4834905Y-20169743D01*
X4853952Y-20179267D01*
X4863476Y-20198314D01*
X4863476Y-20303076D01*
X4863476Y-20198314D02*
X4873000Y-20179267D01*
X4892048Y-20169743D01*
X4920619Y-20169743D01*
X4939667Y-20179267D01*
X4949190Y-20198314D01*
X4949190Y-20303076D01*
X5044429Y-20303076D02*
X5044429Y-20169743D01*
X5044429Y-20188790D02*
X5053952Y-20179267D01*
X5073000Y-20169743D01*
X5101571Y-20169743D01*
X5120619Y-20179267D01*
X5130143Y-20198314D01*
X5130143Y-20303076D01*
X5130143Y-20198314D02*
X5139667Y-20179267D01*
X5158714Y-20169743D01*
X5187286Y-20169743D01*
X5206333Y-20179267D01*
X5215857Y-20198314D01*
X5215857Y-20303076D01*
X5606333Y-20093552D02*
X5434905Y-20350695D01*
X5863476Y-20103076D02*
X5882524Y-20103076D01*
X5901571Y-20112600D01*
X5911095Y-20122124D01*
X5920619Y-20141171D01*
X5930143Y-20179267D01*
X5930143Y-20226886D01*
X5920619Y-20264981D01*
X5911095Y-20284029D01*
X5901571Y-20293552D01*
X5882524Y-20303076D01*
X5863476Y-20303076D01*
X5844428Y-20293552D01*
X5834905Y-20284029D01*
X5825381Y-20264981D01*
X5815857Y-20226886D01*
X5815857Y-20179267D01*
X5825381Y-20141171D01*
X5834905Y-20122124D01*
X5844428Y-20112600D01*
X5863476Y-20103076D01*
X6015857Y-20284029D02*
X6025381Y-20293552D01*
X6015857Y-20303076D01*
X6006333Y-20293552D01*
X6015857Y-20284029D01*
X6015857Y-20303076D01*
X6149190Y-20103076D02*
X6168238Y-20103076D01*
X6187286Y-20112600D01*
X6196809Y-20122124D01*
X6206333Y-20141171D01*
X6215857Y-20179267D01*
X6215857Y-20226886D01*
X6206333Y-20264981D01*
X6196809Y-20284029D01*
X6187286Y-20293552D01*
X6168238Y-20303076D01*
X6149190Y-20303076D01*
X6130143Y-20293552D01*
X6120619Y-20284029D01*
X6111095Y-20264981D01*
X6101571Y-20226886D01*
X6101571Y-20179267D01*
X6111095Y-20141171D01*
X6120619Y-20122124D01*
X6130143Y-20112600D01*
X6149190Y-20103076D01*
X6282524Y-20103076D02*
X6406333Y-20103076D01*
X6339667Y-20179267D01*
X6368238Y-20179267D01*
X6387286Y-20188790D01*
X6396809Y-20198314D01*
X6406333Y-20217362D01*
X6406333Y-20264981D01*
X6396809Y-20284029D01*
X6387286Y-20293552D01*
X6368238Y-20303076D01*
X6311095Y-20303076D01*
X6292048Y-20293552D01*
X6282524Y-20284029D01*
X6501571Y-20303076D02*
X6539667Y-20303076D01*
X6558714Y-20293552D01*
X6568238Y-20284029D01*
X6587286Y-20255457D01*
X6596809Y-20217362D01*
X6596809Y-20141171D01*
X6587286Y-20122124D01*
X6577762Y-20112600D01*
X6558714Y-20103076D01*
X6520619Y-20103076D01*
X6501571Y-20112600D01*
X6492048Y-20122124D01*
X6482524Y-20141171D01*
X6482524Y-20188790D01*
X6492048Y-20207838D01*
X6501571Y-20217362D01*
X6520619Y-20226886D01*
X6558714Y-20226886D01*
X6577762Y-20217362D01*
X6587286Y-20207838D01*
X6596809Y-20188790D01*
X6768238Y-20169743D02*
X6768238Y-20303076D01*
X6720619Y-20093552D02*
X6673000Y-20236410D01*
X6796809Y-20236410D01*
X6863476Y-20103076D02*
X6863476Y-20141171D01*
X6939667Y-20103076D02*
X6939667Y-20141171D01*
X7234905Y-20379267D02*
X7225381Y-20369743D01*
X7206333Y-20341171D01*
X7196809Y-20322124D01*
X7187286Y-20293552D01*
X7177762Y-20245933D01*
X7177762Y-20207838D01*
X7187286Y-20160219D01*
X7196809Y-20131648D01*
X7206333Y-20112600D01*
X7225381Y-20084029D01*
X7234905Y-20074505D01*
X7396809Y-20169743D02*
X7396809Y-20303076D01*
X7349190Y-20093552D02*
X7301571Y-20236410D01*
X7425381Y-20236410D01*
X7653952Y-20303076D02*
X7653952Y-20103076D01*
X7739667Y-20303076D02*
X7739667Y-20198314D01*
X7730143Y-20179267D01*
X7711095Y-20169743D01*
X7682524Y-20169743D01*
X7663476Y-20179267D01*
X7653952Y-20188790D01*
X7863476Y-20303076D02*
X7844428Y-20293552D01*
X7834905Y-20284029D01*
X7825381Y-20264981D01*
X7825381Y-20207838D01*
X7834905Y-20188790D01*
X7844428Y-20179267D01*
X7863476Y-20169743D01*
X7892048Y-20169743D01*
X7911095Y-20179267D01*
X7920619Y-20188790D01*
X7930143Y-20207838D01*
X7930143Y-20264981D01*
X7920619Y-20284029D01*
X7911095Y-20293552D01*
X7892048Y-20303076D01*
X7863476Y-20303076D01*
X8044428Y-20303076D02*
X8025381Y-20293552D01*
X8015857Y-20274505D01*
X8015857Y-20103076D01*
X8196809Y-20293552D02*
X8177762Y-20303076D01*
X8139667Y-20303076D01*
X8120619Y-20293552D01*
X8111095Y-20274505D01*
X8111095Y-20198314D01*
X8120619Y-20179267D01*
X8139667Y-20169743D01*
X8177762Y-20169743D01*
X8196809Y-20179267D01*
X8206333Y-20198314D01*
X8206333Y-20217362D01*
X8111095Y-20236410D01*
X8282524Y-20293552D02*
X8301571Y-20303076D01*
X8339667Y-20303076D01*
X8358714Y-20293552D01*
X8368238Y-20274505D01*
X8368238Y-20264981D01*
X8358714Y-20245933D01*
X8339667Y-20236410D01*
X8311095Y-20236410D01*
X8292048Y-20226886D01*
X8282524Y-20207838D01*
X8282524Y-20198314D01*
X8292048Y-20179267D01*
X8311095Y-20169743D01*
X8339667Y-20169743D01*
X8358714Y-20179267D01*
X8434905Y-20379267D02*
X8444429Y-20369743D01*
X8463476Y-20341171D01*
X8473000Y-20322124D01*
X8482524Y-20293552D01*
X8492048Y-20245933D01*
X8492048Y-20207838D01*
X8482524Y-20160219D01*
X8473000Y-20131648D01*
X8463476Y-20112600D01*
X8444429Y-20084029D01*
X8434905Y-20074505D01*
D15*
X3648121Y-20512521D02*
X3648121Y-20440679D01*
X3576279Y-20440679D01*
X3576279Y-20512521D01*
X3648121Y-20512521D01*
D11*
X4025381Y-20567076D02*
X3911095Y-20567076D01*
X3968238Y-20567076D02*
X3968238Y-20367076D01*
X3949190Y-20395648D01*
X3930143Y-20414695D01*
X3911095Y-20424219D01*
X4111095Y-20548029D02*
X4120619Y-20557552D01*
X4111095Y-20567076D01*
X4101571Y-20557552D01*
X4111095Y-20548029D01*
X4111095Y-20567076D01*
X4244429Y-20367076D02*
X4263476Y-20367076D01*
X4282524Y-20376600D01*
X4292048Y-20386124D01*
X4301571Y-20405171D01*
X4311095Y-20443267D01*
X4311095Y-20490886D01*
X4301571Y-20528981D01*
X4292048Y-20548029D01*
X4282524Y-20557552D01*
X4263476Y-20567076D01*
X4244429Y-20567076D01*
X4225381Y-20557552D01*
X4215857Y-20548029D01*
X4206333Y-20528981D01*
X4196810Y-20490886D01*
X4196810Y-20443267D01*
X4206333Y-20405171D01*
X4215857Y-20386124D01*
X4225381Y-20376600D01*
X4244429Y-20367076D01*
X4501571Y-20567076D02*
X4387286Y-20567076D01*
X4444429Y-20567076D02*
X4444429Y-20367076D01*
X4425381Y-20395648D01*
X4406333Y-20414695D01*
X4387286Y-20424219D01*
X4673000Y-20367076D02*
X4634905Y-20367076D01*
X4615857Y-20376600D01*
X4606333Y-20386124D01*
X4587286Y-20414695D01*
X4577762Y-20452790D01*
X4577762Y-20528981D01*
X4587286Y-20548029D01*
X4596810Y-20557552D01*
X4615857Y-20567076D01*
X4653952Y-20567076D01*
X4673000Y-20557552D01*
X4682524Y-20548029D01*
X4692048Y-20528981D01*
X4692048Y-20481362D01*
X4682524Y-20462314D01*
X4673000Y-20452790D01*
X4653952Y-20443267D01*
X4615857Y-20443267D01*
X4596810Y-20452790D01*
X4587286Y-20462314D01*
X4577762Y-20481362D01*
X4777762Y-20567076D02*
X4777762Y-20433743D01*
X4777762Y-20452790D02*
X4787286Y-20443267D01*
X4806333Y-20433743D01*
X4834905Y-20433743D01*
X4853952Y-20443267D01*
X4863476Y-20462314D01*
X4863476Y-20567076D01*
X4863476Y-20462314D02*
X4873000Y-20443267D01*
X4892048Y-20433743D01*
X4920619Y-20433743D01*
X4939667Y-20443267D01*
X4949190Y-20462314D01*
X4949190Y-20567076D01*
X5044429Y-20567076D02*
X5044429Y-20433743D01*
X5044429Y-20452790D02*
X5053952Y-20443267D01*
X5073000Y-20433743D01*
X5101571Y-20433743D01*
X5120619Y-20443267D01*
X5130143Y-20462314D01*
X5130143Y-20567076D01*
X5130143Y-20462314D02*
X5139667Y-20443267D01*
X5158714Y-20433743D01*
X5187286Y-20433743D01*
X5206333Y-20443267D01*
X5215857Y-20462314D01*
X5215857Y-20567076D01*
X5606333Y-20357552D02*
X5434905Y-20614695D01*
X5863476Y-20367076D02*
X5882524Y-20367076D01*
X5901571Y-20376600D01*
X5911095Y-20386124D01*
X5920619Y-20405171D01*
X5930143Y-20443267D01*
X5930143Y-20490886D01*
X5920619Y-20528981D01*
X5911095Y-20548029D01*
X5901571Y-20557552D01*
X5882524Y-20567076D01*
X5863476Y-20567076D01*
X5844428Y-20557552D01*
X5834905Y-20548029D01*
X5825381Y-20528981D01*
X5815857Y-20490886D01*
X5815857Y-20443267D01*
X5825381Y-20405171D01*
X5834905Y-20386124D01*
X5844428Y-20376600D01*
X5863476Y-20367076D01*
X6015857Y-20548029D02*
X6025381Y-20557552D01*
X6015857Y-20567076D01*
X6006333Y-20557552D01*
X6015857Y-20548029D01*
X6015857Y-20567076D01*
X6149190Y-20367076D02*
X6168238Y-20367076D01*
X6187286Y-20376600D01*
X6196809Y-20386124D01*
X6206333Y-20405171D01*
X6215857Y-20443267D01*
X6215857Y-20490886D01*
X6206333Y-20528981D01*
X6196809Y-20548029D01*
X6187286Y-20557552D01*
X6168238Y-20567076D01*
X6149190Y-20567076D01*
X6130143Y-20557552D01*
X6120619Y-20548029D01*
X6111095Y-20528981D01*
X6101571Y-20490886D01*
X6101571Y-20443267D01*
X6111095Y-20405171D01*
X6120619Y-20386124D01*
X6130143Y-20376600D01*
X6149190Y-20367076D01*
X6387286Y-20433743D02*
X6387286Y-20567076D01*
X6339667Y-20357552D02*
X6292048Y-20500410D01*
X6415857Y-20500410D01*
X6530143Y-20367076D02*
X6549190Y-20367076D01*
X6568238Y-20376600D01*
X6577762Y-20386124D01*
X6587286Y-20405171D01*
X6596809Y-20443267D01*
X6596809Y-20490886D01*
X6587286Y-20528981D01*
X6577762Y-20548029D01*
X6568238Y-20557552D01*
X6549190Y-20567076D01*
X6530143Y-20567076D01*
X6511095Y-20557552D01*
X6501571Y-20548029D01*
X6492048Y-20528981D01*
X6482524Y-20490886D01*
X6482524Y-20443267D01*
X6492048Y-20405171D01*
X6501571Y-20386124D01*
X6511095Y-20376600D01*
X6530143Y-20367076D01*
X6720619Y-20367076D02*
X6739667Y-20367076D01*
X6758714Y-20376600D01*
X6768238Y-20386124D01*
X6777762Y-20405171D01*
X6787286Y-20443267D01*
X6787286Y-20490886D01*
X6777762Y-20528981D01*
X6768238Y-20548029D01*
X6758714Y-20557552D01*
X6739667Y-20567076D01*
X6720619Y-20567076D01*
X6701571Y-20557552D01*
X6692048Y-20548029D01*
X6682524Y-20528981D01*
X6673000Y-20490886D01*
X6673000Y-20443267D01*
X6682524Y-20405171D01*
X6692048Y-20386124D01*
X6701571Y-20376600D01*
X6720619Y-20367076D01*
X6863476Y-20367076D02*
X6863476Y-20405171D01*
X6939667Y-20367076D02*
X6939667Y-20405171D01*
X7234905Y-20643267D02*
X7225381Y-20633743D01*
X7206333Y-20605171D01*
X7196809Y-20586124D01*
X7187286Y-20557552D01*
X7177762Y-20509933D01*
X7177762Y-20471838D01*
X7187286Y-20424219D01*
X7196809Y-20395648D01*
X7206333Y-20376600D01*
X7225381Y-20348029D01*
X7234905Y-20338505D01*
X7301571Y-20386124D02*
X7311095Y-20376600D01*
X7330143Y-20367076D01*
X7377762Y-20367076D01*
X7396809Y-20376600D01*
X7406333Y-20386124D01*
X7415857Y-20405171D01*
X7415857Y-20424219D01*
X7406333Y-20452790D01*
X7292048Y-20567076D01*
X7415857Y-20567076D01*
X7596809Y-20367076D02*
X7501571Y-20367076D01*
X7492048Y-20462314D01*
X7501571Y-20452790D01*
X7520619Y-20443267D01*
X7568238Y-20443267D01*
X7587286Y-20452790D01*
X7596809Y-20462314D01*
X7606333Y-20481362D01*
X7606333Y-20528981D01*
X7596809Y-20548029D01*
X7587286Y-20557552D01*
X7568238Y-20567076D01*
X7520619Y-20567076D01*
X7501571Y-20557552D01*
X7492048Y-20548029D01*
X7844428Y-20567076D02*
X7844428Y-20367076D01*
X7930143Y-20567076D02*
X7930143Y-20462314D01*
X7920619Y-20443267D01*
X7901571Y-20433743D01*
X7873000Y-20433743D01*
X7853952Y-20443267D01*
X7844428Y-20452790D01*
X8053952Y-20567076D02*
X8034905Y-20557552D01*
X8025381Y-20548029D01*
X8015857Y-20528981D01*
X8015857Y-20471838D01*
X8025381Y-20452790D01*
X8034905Y-20443267D01*
X8053952Y-20433743D01*
X8082524Y-20433743D01*
X8101571Y-20443267D01*
X8111095Y-20452790D01*
X8120619Y-20471838D01*
X8120619Y-20528981D01*
X8111095Y-20548029D01*
X8101571Y-20557552D01*
X8082524Y-20567076D01*
X8053952Y-20567076D01*
X8234905Y-20567076D02*
X8215857Y-20557552D01*
X8206333Y-20538505D01*
X8206333Y-20367076D01*
X8387286Y-20557552D02*
X8368238Y-20567076D01*
X8330143Y-20567076D01*
X8311095Y-20557552D01*
X8301571Y-20538505D01*
X8301571Y-20462314D01*
X8311095Y-20443267D01*
X8330143Y-20433743D01*
X8368238Y-20433743D01*
X8387286Y-20443267D01*
X8396810Y-20462314D01*
X8396810Y-20481362D01*
X8301571Y-20500410D01*
X8473000Y-20557552D02*
X8492048Y-20567076D01*
X8530143Y-20567076D01*
X8549190Y-20557552D01*
X8558714Y-20538505D01*
X8558714Y-20528981D01*
X8549190Y-20509933D01*
X8530143Y-20500410D01*
X8501571Y-20500410D01*
X8482524Y-20490886D01*
X8473000Y-20471838D01*
X8473000Y-20462314D01*
X8482524Y-20443267D01*
X8501571Y-20433743D01*
X8530143Y-20433743D01*
X8549190Y-20443267D01*
X8625381Y-20643267D02*
X8634905Y-20633743D01*
X8653952Y-20605171D01*
X8663476Y-20586124D01*
X8673000Y-20557552D01*
X8682524Y-20509933D01*
X8682524Y-20471838D01*
X8673000Y-20424219D01*
X8663476Y-20395648D01*
X8653952Y-20376600D01*
X8634905Y-20348029D01*
X8625381Y-20338505D01*
D16*
X3608000Y-20795600D02*
X3663000Y-20740600D01*
X3608000Y-20685600D01*
X3553000Y-20740600D01*
X3608000Y-20795600D01*
D11*
X4025381Y-20831076D02*
X3911095Y-20831076D01*
X3968238Y-20831076D02*
X3968238Y-20631076D01*
X3949190Y-20659648D01*
X3930143Y-20678695D01*
X3911095Y-20688219D01*
X4111095Y-20812029D02*
X4120619Y-20821552D01*
X4111095Y-20831076D01*
X4101571Y-20821552D01*
X4111095Y-20812029D01*
X4111095Y-20831076D01*
X4311095Y-20831076D02*
X4196810Y-20831076D01*
X4253952Y-20831076D02*
X4253952Y-20631076D01*
X4234905Y-20659648D01*
X4215857Y-20678695D01*
X4196810Y-20688219D01*
X4434905Y-20631076D02*
X4453952Y-20631076D01*
X4473000Y-20640600D01*
X4482524Y-20650124D01*
X4492048Y-20669171D01*
X4501571Y-20707267D01*
X4501571Y-20754886D01*
X4492048Y-20792981D01*
X4482524Y-20812029D01*
X4473000Y-20821552D01*
X4453952Y-20831076D01*
X4434905Y-20831076D01*
X4415857Y-20821552D01*
X4406333Y-20812029D01*
X4396810Y-20792981D01*
X4387286Y-20754886D01*
X4387286Y-20707267D01*
X4396810Y-20669171D01*
X4406333Y-20650124D01*
X4415857Y-20640600D01*
X4434905Y-20631076D01*
X4625381Y-20631076D02*
X4644429Y-20631076D01*
X4663476Y-20640600D01*
X4673000Y-20650124D01*
X4682524Y-20669171D01*
X4692048Y-20707267D01*
X4692048Y-20754886D01*
X4682524Y-20792981D01*
X4673000Y-20812029D01*
X4663476Y-20821552D01*
X4644429Y-20831076D01*
X4625381Y-20831076D01*
X4606333Y-20821552D01*
X4596810Y-20812029D01*
X4587286Y-20792981D01*
X4577762Y-20754886D01*
X4577762Y-20707267D01*
X4587286Y-20669171D01*
X4596810Y-20650124D01*
X4606333Y-20640600D01*
X4625381Y-20631076D01*
X4777762Y-20831076D02*
X4777762Y-20697743D01*
X4777762Y-20716790D02*
X4787286Y-20707267D01*
X4806333Y-20697743D01*
X4834905Y-20697743D01*
X4853952Y-20707267D01*
X4863476Y-20726314D01*
X4863476Y-20831076D01*
X4863476Y-20726314D02*
X4873000Y-20707267D01*
X4892048Y-20697743D01*
X4920619Y-20697743D01*
X4939667Y-20707267D01*
X4949190Y-20726314D01*
X4949190Y-20831076D01*
X5044429Y-20831076D02*
X5044429Y-20697743D01*
X5044429Y-20716790D02*
X5053952Y-20707267D01*
X5073000Y-20697743D01*
X5101571Y-20697743D01*
X5120619Y-20707267D01*
X5130143Y-20726314D01*
X5130143Y-20831076D01*
X5130143Y-20726314D02*
X5139667Y-20707267D01*
X5158714Y-20697743D01*
X5187286Y-20697743D01*
X5206333Y-20707267D01*
X5215857Y-20726314D01*
X5215857Y-20831076D01*
X5606333Y-20621552D02*
X5434905Y-20878695D01*
X5863476Y-20631076D02*
X5882524Y-20631076D01*
X5901571Y-20640600D01*
X5911095Y-20650124D01*
X5920619Y-20669171D01*
X5930143Y-20707267D01*
X5930143Y-20754886D01*
X5920619Y-20792981D01*
X5911095Y-20812029D01*
X5901571Y-20821552D01*
X5882524Y-20831076D01*
X5863476Y-20831076D01*
X5844428Y-20821552D01*
X5834905Y-20812029D01*
X5825381Y-20792981D01*
X5815857Y-20754886D01*
X5815857Y-20707267D01*
X5825381Y-20669171D01*
X5834905Y-20650124D01*
X5844428Y-20640600D01*
X5863476Y-20631076D01*
X6015857Y-20812029D02*
X6025381Y-20821552D01*
X6015857Y-20831076D01*
X6006333Y-20821552D01*
X6015857Y-20812029D01*
X6015857Y-20831076D01*
X6149190Y-20631076D02*
X6168238Y-20631076D01*
X6187286Y-20640600D01*
X6196809Y-20650124D01*
X6206333Y-20669171D01*
X6215857Y-20707267D01*
X6215857Y-20754886D01*
X6206333Y-20792981D01*
X6196809Y-20812029D01*
X6187286Y-20821552D01*
X6168238Y-20831076D01*
X6149190Y-20831076D01*
X6130143Y-20821552D01*
X6120619Y-20812029D01*
X6111095Y-20792981D01*
X6101571Y-20754886D01*
X6101571Y-20707267D01*
X6111095Y-20669171D01*
X6120619Y-20650124D01*
X6130143Y-20640600D01*
X6149190Y-20631076D01*
X6387286Y-20697743D02*
X6387286Y-20831076D01*
X6339667Y-20621552D02*
X6292048Y-20764410D01*
X6415857Y-20764410D01*
X6473000Y-20631076D02*
X6596809Y-20631076D01*
X6530143Y-20707267D01*
X6558714Y-20707267D01*
X6577762Y-20716790D01*
X6587286Y-20726314D01*
X6596809Y-20745362D01*
X6596809Y-20792981D01*
X6587286Y-20812029D01*
X6577762Y-20821552D01*
X6558714Y-20831076D01*
X6501571Y-20831076D01*
X6482524Y-20821552D01*
X6473000Y-20812029D01*
X6663476Y-20631076D02*
X6787286Y-20631076D01*
X6720619Y-20707267D01*
X6749190Y-20707267D01*
X6768238Y-20716790D01*
X6777762Y-20726314D01*
X6787286Y-20745362D01*
X6787286Y-20792981D01*
X6777762Y-20812029D01*
X6768238Y-20821552D01*
X6749190Y-20831076D01*
X6692048Y-20831076D01*
X6673000Y-20821552D01*
X6663476Y-20812029D01*
X6863476Y-20631076D02*
X6863476Y-20669171D01*
X6939667Y-20631076D02*
X6939667Y-20669171D01*
X7234905Y-20907267D02*
X7225381Y-20897743D01*
X7206333Y-20869171D01*
X7196809Y-20850124D01*
X7187286Y-20821552D01*
X7177762Y-20773933D01*
X7177762Y-20735838D01*
X7187286Y-20688219D01*
X7196809Y-20659648D01*
X7206333Y-20640600D01*
X7225381Y-20612029D01*
X7234905Y-20602505D01*
X7292048Y-20631076D02*
X7415857Y-20631076D01*
X7349190Y-20707267D01*
X7377762Y-20707267D01*
X7396809Y-20716790D01*
X7406333Y-20726314D01*
X7415857Y-20745362D01*
X7415857Y-20792981D01*
X7406333Y-20812029D01*
X7396809Y-20821552D01*
X7377762Y-20831076D01*
X7320619Y-20831076D01*
X7301571Y-20821552D01*
X7292048Y-20812029D01*
X7596809Y-20631076D02*
X7501571Y-20631076D01*
X7492048Y-20726314D01*
X7501571Y-20716790D01*
X7520619Y-20707267D01*
X7568238Y-20707267D01*
X7587286Y-20716790D01*
X7596809Y-20726314D01*
X7606333Y-20745362D01*
X7606333Y-20792981D01*
X7596809Y-20812029D01*
X7587286Y-20821552D01*
X7568238Y-20831076D01*
X7520619Y-20831076D01*
X7501571Y-20821552D01*
X7492048Y-20812029D01*
X7844428Y-20831076D02*
X7844428Y-20631076D01*
X7930143Y-20831076D02*
X7930143Y-20726314D01*
X7920619Y-20707267D01*
X7901571Y-20697743D01*
X7873000Y-20697743D01*
X7853952Y-20707267D01*
X7844428Y-20716790D01*
X8053952Y-20831076D02*
X8034905Y-20821552D01*
X8025381Y-20812029D01*
X8015857Y-20792981D01*
X8015857Y-20735838D01*
X8025381Y-20716790D01*
X8034905Y-20707267D01*
X8053952Y-20697743D01*
X8082524Y-20697743D01*
X8101571Y-20707267D01*
X8111095Y-20716790D01*
X8120619Y-20735838D01*
X8120619Y-20792981D01*
X8111095Y-20812029D01*
X8101571Y-20821552D01*
X8082524Y-20831076D01*
X8053952Y-20831076D01*
X8234905Y-20831076D02*
X8215857Y-20821552D01*
X8206333Y-20802505D01*
X8206333Y-20631076D01*
X8387286Y-20821552D02*
X8368238Y-20831076D01*
X8330143Y-20831076D01*
X8311095Y-20821552D01*
X8301571Y-20802505D01*
X8301571Y-20726314D01*
X8311095Y-20707267D01*
X8330143Y-20697743D01*
X8368238Y-20697743D01*
X8387286Y-20707267D01*
X8396810Y-20726314D01*
X8396810Y-20745362D01*
X8301571Y-20764410D01*
X8473000Y-20821552D02*
X8492048Y-20831076D01*
X8530143Y-20831076D01*
X8549190Y-20821552D01*
X8558714Y-20802505D01*
X8558714Y-20792981D01*
X8549190Y-20773933D01*
X8530143Y-20764410D01*
X8501571Y-20764410D01*
X8482524Y-20754886D01*
X8473000Y-20735838D01*
X8473000Y-20726314D01*
X8482524Y-20707267D01*
X8501571Y-20697743D01*
X8530143Y-20697743D01*
X8549190Y-20707267D01*
X8625381Y-20907267D02*
X8634905Y-20897743D01*
X8653952Y-20869171D01*
X8663476Y-20850124D01*
X8673000Y-20821552D01*
X8682524Y-20773933D01*
X8682524Y-20735838D01*
X8673000Y-20688219D01*
X8663476Y-20659648D01*
X8653952Y-20640600D01*
X8634905Y-20612029D01*
X8625381Y-20602505D01*
D17*
X3543000Y-20944600D02*
X3663000Y-21064600D01*
X3663000Y-20944600D02*
X3543000Y-21064600D01*
X3663000Y-21004600D02*
G75*
G03*
X3663000Y-21004600I-60000J0D01*
G01*
D11*
X4025381Y-21095076D02*
X3911095Y-21095076D01*
X3968238Y-21095076D02*
X3968238Y-20895076D01*
X3949190Y-20923648D01*
X3930143Y-20942695D01*
X3911095Y-20952219D01*
X4111095Y-21076029D02*
X4120619Y-21085552D01*
X4111095Y-21095076D01*
X4101571Y-21085552D01*
X4111095Y-21076029D01*
X4111095Y-21095076D01*
X4196810Y-20914124D02*
X4206333Y-20904600D01*
X4225381Y-20895076D01*
X4273000Y-20895076D01*
X4292048Y-20904600D01*
X4301571Y-20914124D01*
X4311095Y-20933171D01*
X4311095Y-20952219D01*
X4301571Y-20980790D01*
X4187286Y-21095076D01*
X4311095Y-21095076D01*
X4434905Y-20895076D02*
X4453952Y-20895076D01*
X4473000Y-20904600D01*
X4482524Y-20914124D01*
X4492048Y-20933171D01*
X4501571Y-20971267D01*
X4501571Y-21018886D01*
X4492048Y-21056981D01*
X4482524Y-21076029D01*
X4473000Y-21085552D01*
X4453952Y-21095076D01*
X4434905Y-21095076D01*
X4415857Y-21085552D01*
X4406333Y-21076029D01*
X4396810Y-21056981D01*
X4387286Y-21018886D01*
X4387286Y-20971267D01*
X4396810Y-20933171D01*
X4406333Y-20914124D01*
X4415857Y-20904600D01*
X4434905Y-20895076D01*
X4625381Y-20895076D02*
X4644429Y-20895076D01*
X4663476Y-20904600D01*
X4673000Y-20914124D01*
X4682524Y-20933171D01*
X4692048Y-20971267D01*
X4692048Y-21018886D01*
X4682524Y-21056981D01*
X4673000Y-21076029D01*
X4663476Y-21085552D01*
X4644429Y-21095076D01*
X4625381Y-21095076D01*
X4606333Y-21085552D01*
X4596810Y-21076029D01*
X4587286Y-21056981D01*
X4577762Y-21018886D01*
X4577762Y-20971267D01*
X4587286Y-20933171D01*
X4596810Y-20914124D01*
X4606333Y-20904600D01*
X4625381Y-20895076D01*
X4777762Y-21095076D02*
X4777762Y-20961743D01*
X4777762Y-20980790D02*
X4787286Y-20971267D01*
X4806333Y-20961743D01*
X4834905Y-20961743D01*
X4853952Y-20971267D01*
X4863476Y-20990314D01*
X4863476Y-21095076D01*
X4863476Y-20990314D02*
X4873000Y-20971267D01*
X4892048Y-20961743D01*
X4920619Y-20961743D01*
X4939667Y-20971267D01*
X4949190Y-20990314D01*
X4949190Y-21095076D01*
X5044429Y-21095076D02*
X5044429Y-20961743D01*
X5044429Y-20980790D02*
X5053952Y-20971267D01*
X5073000Y-20961743D01*
X5101571Y-20961743D01*
X5120619Y-20971267D01*
X5130143Y-20990314D01*
X5130143Y-21095076D01*
X5130143Y-20990314D02*
X5139667Y-20971267D01*
X5158714Y-20961743D01*
X5187286Y-20961743D01*
X5206333Y-20971267D01*
X5215857Y-20990314D01*
X5215857Y-21095076D01*
X5606333Y-20885552D02*
X5434905Y-21142695D01*
X5863476Y-20895076D02*
X5882524Y-20895076D01*
X5901571Y-20904600D01*
X5911095Y-20914124D01*
X5920619Y-20933171D01*
X5930143Y-20971267D01*
X5930143Y-21018886D01*
X5920619Y-21056981D01*
X5911095Y-21076029D01*
X5901571Y-21085552D01*
X5882524Y-21095076D01*
X5863476Y-21095076D01*
X5844428Y-21085552D01*
X5834905Y-21076029D01*
X5825381Y-21056981D01*
X5815857Y-21018886D01*
X5815857Y-20971267D01*
X5825381Y-20933171D01*
X5834905Y-20914124D01*
X5844428Y-20904600D01*
X5863476Y-20895076D01*
X6015857Y-21076029D02*
X6025381Y-21085552D01*
X6015857Y-21095076D01*
X6006333Y-21085552D01*
X6015857Y-21076029D01*
X6015857Y-21095076D01*
X6149190Y-20895076D02*
X6168238Y-20895076D01*
X6187286Y-20904600D01*
X6196809Y-20914124D01*
X6206333Y-20933171D01*
X6215857Y-20971267D01*
X6215857Y-21018886D01*
X6206333Y-21056981D01*
X6196809Y-21076029D01*
X6187286Y-21085552D01*
X6168238Y-21095076D01*
X6149190Y-21095076D01*
X6130143Y-21085552D01*
X6120619Y-21076029D01*
X6111095Y-21056981D01*
X6101571Y-21018886D01*
X6101571Y-20971267D01*
X6111095Y-20933171D01*
X6120619Y-20914124D01*
X6130143Y-20904600D01*
X6149190Y-20895076D01*
X6387286Y-20961743D02*
X6387286Y-21095076D01*
X6339667Y-20885552D02*
X6292048Y-21028410D01*
X6415857Y-21028410D01*
X6473000Y-20895076D02*
X6606333Y-20895076D01*
X6520619Y-21095076D01*
X6673000Y-20914124D02*
X6682524Y-20904600D01*
X6701571Y-20895076D01*
X6749190Y-20895076D01*
X6768238Y-20904600D01*
X6777762Y-20914124D01*
X6787286Y-20933171D01*
X6787286Y-20952219D01*
X6777762Y-20980790D01*
X6663476Y-21095076D01*
X6787286Y-21095076D01*
X6863476Y-20895076D02*
X6863476Y-20933171D01*
X6939667Y-20895076D02*
X6939667Y-20933171D01*
X7234905Y-21171267D02*
X7225381Y-21161743D01*
X7206333Y-21133171D01*
X7196809Y-21114124D01*
X7187286Y-21085552D01*
X7177762Y-21037933D01*
X7177762Y-20999838D01*
X7187286Y-20952219D01*
X7196809Y-20923648D01*
X7206333Y-20904600D01*
X7225381Y-20876029D01*
X7234905Y-20866505D01*
X7301571Y-20914124D02*
X7311095Y-20904600D01*
X7330143Y-20895076D01*
X7377762Y-20895076D01*
X7396809Y-20904600D01*
X7406333Y-20914124D01*
X7415857Y-20933171D01*
X7415857Y-20952219D01*
X7406333Y-20980790D01*
X7292048Y-21095076D01*
X7415857Y-21095076D01*
X7653952Y-21095076D02*
X7653952Y-20895076D01*
X7739667Y-21095076D02*
X7739667Y-20990314D01*
X7730143Y-20971267D01*
X7711095Y-20961743D01*
X7682524Y-20961743D01*
X7663476Y-20971267D01*
X7653952Y-20980790D01*
X7863476Y-21095076D02*
X7844428Y-21085552D01*
X7834905Y-21076029D01*
X7825381Y-21056981D01*
X7825381Y-20999838D01*
X7834905Y-20980790D01*
X7844428Y-20971267D01*
X7863476Y-20961743D01*
X7892048Y-20961743D01*
X7911095Y-20971267D01*
X7920619Y-20980790D01*
X7930143Y-20999838D01*
X7930143Y-21056981D01*
X7920619Y-21076029D01*
X7911095Y-21085552D01*
X7892048Y-21095076D01*
X7863476Y-21095076D01*
X8044428Y-21095076D02*
X8025381Y-21085552D01*
X8015857Y-21066505D01*
X8015857Y-20895076D01*
X8196809Y-21085552D02*
X8177762Y-21095076D01*
X8139667Y-21095076D01*
X8120619Y-21085552D01*
X8111095Y-21066505D01*
X8111095Y-20990314D01*
X8120619Y-20971267D01*
X8139667Y-20961743D01*
X8177762Y-20961743D01*
X8196809Y-20971267D01*
X8206333Y-20990314D01*
X8206333Y-21009362D01*
X8111095Y-21028410D01*
X8282524Y-21085552D02*
X8301571Y-21095076D01*
X8339667Y-21095076D01*
X8358714Y-21085552D01*
X8368238Y-21066505D01*
X8368238Y-21056981D01*
X8358714Y-21037933D01*
X8339667Y-21028410D01*
X8311095Y-21028410D01*
X8292048Y-21018886D01*
X8282524Y-20999838D01*
X8282524Y-20990314D01*
X8292048Y-20971267D01*
X8311095Y-20961743D01*
X8339667Y-20961743D01*
X8358714Y-20971267D01*
X8434905Y-21171267D02*
X8444429Y-21161743D01*
X8463476Y-21133171D01*
X8473000Y-21114124D01*
X8482524Y-21085552D01*
X8492048Y-21037933D01*
X8492048Y-20999838D01*
X8482524Y-20952219D01*
X8473000Y-20923648D01*
X8463476Y-20904600D01*
X8444429Y-20876029D01*
X8434905Y-20866505D01*
D18*
X3473000Y-21173600D02*
X3663000Y-21363600D01*
X3663000Y-21173600D02*
X3473000Y-21363600D01*
X3568000Y-21173600D02*
X3568000Y-21363600D01*
X3473000Y-21268600D02*
X3663000Y-21268600D01*
D11*
X4025381Y-21359076D02*
X3911095Y-21359076D01*
X3968238Y-21359076D02*
X3968238Y-21159076D01*
X3949190Y-21187648D01*
X3930143Y-21206695D01*
X3911095Y-21216219D01*
X4111095Y-21340029D02*
X4120619Y-21349552D01*
X4111095Y-21359076D01*
X4101571Y-21349552D01*
X4111095Y-21340029D01*
X4111095Y-21359076D01*
X4215857Y-21359076D02*
X4253952Y-21359076D01*
X4273000Y-21349552D01*
X4282524Y-21340029D01*
X4301571Y-21311457D01*
X4311095Y-21273362D01*
X4311095Y-21197171D01*
X4301571Y-21178124D01*
X4292048Y-21168600D01*
X4273000Y-21159076D01*
X4234905Y-21159076D01*
X4215857Y-21168600D01*
X4206333Y-21178124D01*
X4196810Y-21197171D01*
X4196810Y-21244790D01*
X4206333Y-21263838D01*
X4215857Y-21273362D01*
X4234905Y-21282886D01*
X4273000Y-21282886D01*
X4292048Y-21273362D01*
X4301571Y-21263838D01*
X4311095Y-21244790D01*
X4434905Y-21159076D02*
X4453952Y-21159076D01*
X4473000Y-21168600D01*
X4482524Y-21178124D01*
X4492048Y-21197171D01*
X4501571Y-21235267D01*
X4501571Y-21282886D01*
X4492048Y-21320981D01*
X4482524Y-21340029D01*
X4473000Y-21349552D01*
X4453952Y-21359076D01*
X4434905Y-21359076D01*
X4415857Y-21349552D01*
X4406333Y-21340029D01*
X4396810Y-21320981D01*
X4387286Y-21282886D01*
X4387286Y-21235267D01*
X4396810Y-21197171D01*
X4406333Y-21178124D01*
X4415857Y-21168600D01*
X4434905Y-21159076D01*
X4625381Y-21159076D02*
X4644429Y-21159076D01*
X4663476Y-21168600D01*
X4673000Y-21178124D01*
X4682524Y-21197171D01*
X4692048Y-21235267D01*
X4692048Y-21282886D01*
X4682524Y-21320981D01*
X4673000Y-21340029D01*
X4663476Y-21349552D01*
X4644429Y-21359076D01*
X4625381Y-21359076D01*
X4606333Y-21349552D01*
X4596810Y-21340029D01*
X4587286Y-21320981D01*
X4577762Y-21282886D01*
X4577762Y-21235267D01*
X4587286Y-21197171D01*
X4596810Y-21178124D01*
X4606333Y-21168600D01*
X4625381Y-21159076D01*
X4777762Y-21359076D02*
X4777762Y-21225743D01*
X4777762Y-21244790D02*
X4787286Y-21235267D01*
X4806333Y-21225743D01*
X4834905Y-21225743D01*
X4853952Y-21235267D01*
X4863476Y-21254314D01*
X4863476Y-21359076D01*
X4863476Y-21254314D02*
X4873000Y-21235267D01*
X4892048Y-21225743D01*
X4920619Y-21225743D01*
X4939667Y-21235267D01*
X4949190Y-21254314D01*
X4949190Y-21359076D01*
X5044429Y-21359076D02*
X5044429Y-21225743D01*
X5044429Y-21244790D02*
X5053952Y-21235267D01*
X5073000Y-21225743D01*
X5101571Y-21225743D01*
X5120619Y-21235267D01*
X5130143Y-21254314D01*
X5130143Y-21359076D01*
X5130143Y-21254314D02*
X5139667Y-21235267D01*
X5158714Y-21225743D01*
X5187286Y-21225743D01*
X5206333Y-21235267D01*
X5215857Y-21254314D01*
X5215857Y-21359076D01*
X5606333Y-21149552D02*
X5434905Y-21406695D01*
X5863476Y-21159076D02*
X5882524Y-21159076D01*
X5901571Y-21168600D01*
X5911095Y-21178124D01*
X5920619Y-21197171D01*
X5930143Y-21235267D01*
X5930143Y-21282886D01*
X5920619Y-21320981D01*
X5911095Y-21340029D01*
X5901571Y-21349552D01*
X5882524Y-21359076D01*
X5863476Y-21359076D01*
X5844428Y-21349552D01*
X5834905Y-21340029D01*
X5825381Y-21320981D01*
X5815857Y-21282886D01*
X5815857Y-21235267D01*
X5825381Y-21197171D01*
X5834905Y-21178124D01*
X5844428Y-21168600D01*
X5863476Y-21159076D01*
X6015857Y-21340029D02*
X6025381Y-21349552D01*
X6015857Y-21359076D01*
X6006333Y-21349552D01*
X6015857Y-21340029D01*
X6015857Y-21359076D01*
X6149190Y-21159076D02*
X6168238Y-21159076D01*
X6187286Y-21168600D01*
X6196809Y-21178124D01*
X6206333Y-21197171D01*
X6215857Y-21235267D01*
X6215857Y-21282886D01*
X6206333Y-21320981D01*
X6196809Y-21340029D01*
X6187286Y-21349552D01*
X6168238Y-21359076D01*
X6149190Y-21359076D01*
X6130143Y-21349552D01*
X6120619Y-21340029D01*
X6111095Y-21320981D01*
X6101571Y-21282886D01*
X6101571Y-21235267D01*
X6111095Y-21197171D01*
X6120619Y-21178124D01*
X6130143Y-21168600D01*
X6149190Y-21159076D01*
X6282524Y-21159076D02*
X6415857Y-21159076D01*
X6330143Y-21359076D01*
X6577762Y-21225743D02*
X6577762Y-21359076D01*
X6530143Y-21149552D02*
X6482524Y-21292410D01*
X6606333Y-21292410D01*
X6711095Y-21244790D02*
X6692048Y-21235267D01*
X6682524Y-21225743D01*
X6673000Y-21206695D01*
X6673000Y-21197171D01*
X6682524Y-21178124D01*
X6692048Y-21168600D01*
X6711095Y-21159076D01*
X6749190Y-21159076D01*
X6768238Y-21168600D01*
X6777762Y-21178124D01*
X6787286Y-21197171D01*
X6787286Y-21206695D01*
X6777762Y-21225743D01*
X6768238Y-21235267D01*
X6749190Y-21244790D01*
X6711095Y-21244790D01*
X6692048Y-21254314D01*
X6682524Y-21263838D01*
X6673000Y-21282886D01*
X6673000Y-21320981D01*
X6682524Y-21340029D01*
X6692048Y-21349552D01*
X6711095Y-21359076D01*
X6749190Y-21359076D01*
X6768238Y-21349552D01*
X6777762Y-21340029D01*
X6787286Y-21320981D01*
X6787286Y-21282886D01*
X6777762Y-21263838D01*
X6768238Y-21254314D01*
X6749190Y-21244790D01*
X6863476Y-21159076D02*
X6863476Y-21197171D01*
X6939667Y-21159076D02*
X6939667Y-21197171D01*
X7234905Y-21435267D02*
X7225381Y-21425743D01*
X7206333Y-21397171D01*
X7196809Y-21378124D01*
X7187286Y-21349552D01*
X7177762Y-21301933D01*
X7177762Y-21263838D01*
X7187286Y-21216219D01*
X7196809Y-21187648D01*
X7206333Y-21168600D01*
X7225381Y-21140029D01*
X7234905Y-21130505D01*
X7396809Y-21225743D02*
X7396809Y-21359076D01*
X7349190Y-21149552D02*
X7301571Y-21292410D01*
X7425381Y-21292410D01*
X7653952Y-21359076D02*
X7653952Y-21159076D01*
X7739667Y-21359076D02*
X7739667Y-21254314D01*
X7730143Y-21235267D01*
X7711095Y-21225743D01*
X7682524Y-21225743D01*
X7663476Y-21235267D01*
X7653952Y-21244790D01*
X7863476Y-21359076D02*
X7844428Y-21349552D01*
X7834905Y-21340029D01*
X7825381Y-21320981D01*
X7825381Y-21263838D01*
X7834905Y-21244790D01*
X7844428Y-21235267D01*
X7863476Y-21225743D01*
X7892048Y-21225743D01*
X7911095Y-21235267D01*
X7920619Y-21244790D01*
X7930143Y-21263838D01*
X7930143Y-21320981D01*
X7920619Y-21340029D01*
X7911095Y-21349552D01*
X7892048Y-21359076D01*
X7863476Y-21359076D01*
X8044428Y-21359076D02*
X8025381Y-21349552D01*
X8015857Y-21330505D01*
X8015857Y-21159076D01*
X8196809Y-21349552D02*
X8177762Y-21359076D01*
X8139667Y-21359076D01*
X8120619Y-21349552D01*
X8111095Y-21330505D01*
X8111095Y-21254314D01*
X8120619Y-21235267D01*
X8139667Y-21225743D01*
X8177762Y-21225743D01*
X8196809Y-21235267D01*
X8206333Y-21254314D01*
X8206333Y-21273362D01*
X8111095Y-21292410D01*
X8282524Y-21349552D02*
X8301571Y-21359076D01*
X8339667Y-21359076D01*
X8358714Y-21349552D01*
X8368238Y-21330505D01*
X8368238Y-21320981D01*
X8358714Y-21301933D01*
X8339667Y-21292410D01*
X8311095Y-21292410D01*
X8292048Y-21282886D01*
X8282524Y-21263838D01*
X8282524Y-21254314D01*
X8292048Y-21235267D01*
X8311095Y-21225743D01*
X8339667Y-21225743D01*
X8358714Y-21235267D01*
X8434905Y-21435267D02*
X8444429Y-21425743D01*
X8463476Y-21397171D01*
X8473000Y-21378124D01*
X8482524Y-21349552D01*
X8492048Y-21301933D01*
X8492048Y-21263838D01*
X8482524Y-21216219D01*
X8473000Y-21187648D01*
X8463476Y-21168600D01*
X8444429Y-21140029D01*
X8434905Y-21130505D01*
X3463000Y-21478600D02*
X3663000Y-21678600D01*
X3663000Y-21478600D02*
X3463000Y-21678600D01*
X3633711Y-21649311D02*
X3633711Y-21507889D01*
X3492289Y-21507889D01*
X3492289Y-21649311D01*
X3633711Y-21649311D01*
X3911095Y-21488124D02*
X3920619Y-21478600D01*
X3939667Y-21469076D01*
X3987286Y-21469076D01*
X4006333Y-21478600D01*
X4015857Y-21488124D01*
X4025381Y-21507171D01*
X4025381Y-21526219D01*
X4015857Y-21554790D01*
X3901571Y-21669076D01*
X4025381Y-21669076D01*
X4111095Y-21650029D02*
X4120619Y-21659552D01*
X4111095Y-21669076D01*
X4101571Y-21659552D01*
X4111095Y-21650029D01*
X4111095Y-21669076D01*
X4196810Y-21488124D02*
X4206333Y-21478600D01*
X4225381Y-21469076D01*
X4273000Y-21469076D01*
X4292048Y-21478600D01*
X4301571Y-21488124D01*
X4311095Y-21507171D01*
X4311095Y-21526219D01*
X4301571Y-21554790D01*
X4187286Y-21669076D01*
X4311095Y-21669076D01*
X4434905Y-21469076D02*
X4453952Y-21469076D01*
X4473000Y-21478600D01*
X4482524Y-21488124D01*
X4492048Y-21507171D01*
X4501571Y-21545267D01*
X4501571Y-21592886D01*
X4492048Y-21630981D01*
X4482524Y-21650029D01*
X4473000Y-21659552D01*
X4453952Y-21669076D01*
X4434905Y-21669076D01*
X4415857Y-21659552D01*
X4406333Y-21650029D01*
X4396810Y-21630981D01*
X4387286Y-21592886D01*
X4387286Y-21545267D01*
X4396810Y-21507171D01*
X4406333Y-21488124D01*
X4415857Y-21478600D01*
X4434905Y-21469076D01*
X4625381Y-21469076D02*
X4644429Y-21469076D01*
X4663476Y-21478600D01*
X4673000Y-21488124D01*
X4682524Y-21507171D01*
X4692048Y-21545267D01*
X4692048Y-21592886D01*
X4682524Y-21630981D01*
X4673000Y-21650029D01*
X4663476Y-21659552D01*
X4644429Y-21669076D01*
X4625381Y-21669076D01*
X4606333Y-21659552D01*
X4596810Y-21650029D01*
X4587286Y-21630981D01*
X4577762Y-21592886D01*
X4577762Y-21545267D01*
X4587286Y-21507171D01*
X4596810Y-21488124D01*
X4606333Y-21478600D01*
X4625381Y-21469076D01*
X4777762Y-21669076D02*
X4777762Y-21535743D01*
X4777762Y-21554790D02*
X4787286Y-21545267D01*
X4806333Y-21535743D01*
X4834905Y-21535743D01*
X4853952Y-21545267D01*
X4863476Y-21564314D01*
X4863476Y-21669076D01*
X4863476Y-21564314D02*
X4873000Y-21545267D01*
X4892048Y-21535743D01*
X4920619Y-21535743D01*
X4939667Y-21545267D01*
X4949190Y-21564314D01*
X4949190Y-21669076D01*
X5044429Y-21669076D02*
X5044429Y-21535743D01*
X5044429Y-21554790D02*
X5053952Y-21545267D01*
X5073000Y-21535743D01*
X5101571Y-21535743D01*
X5120619Y-21545267D01*
X5130143Y-21564314D01*
X5130143Y-21669076D01*
X5130143Y-21564314D02*
X5139667Y-21545267D01*
X5158714Y-21535743D01*
X5187286Y-21535743D01*
X5206333Y-21545267D01*
X5215857Y-21564314D01*
X5215857Y-21669076D01*
X5606333Y-21459552D02*
X5434905Y-21716695D01*
X5863476Y-21469076D02*
X5882524Y-21469076D01*
X5901571Y-21478600D01*
X5911095Y-21488124D01*
X5920619Y-21507171D01*
X5930143Y-21545267D01*
X5930143Y-21592886D01*
X5920619Y-21630981D01*
X5911095Y-21650029D01*
X5901571Y-21659552D01*
X5882524Y-21669076D01*
X5863476Y-21669076D01*
X5844428Y-21659552D01*
X5834905Y-21650029D01*
X5825381Y-21630981D01*
X5815857Y-21592886D01*
X5815857Y-21545267D01*
X5825381Y-21507171D01*
X5834905Y-21488124D01*
X5844428Y-21478600D01*
X5863476Y-21469076D01*
X6015857Y-21650029D02*
X6025381Y-21659552D01*
X6015857Y-21669076D01*
X6006333Y-21659552D01*
X6015857Y-21650029D01*
X6015857Y-21669076D01*
X6149190Y-21469076D02*
X6168238Y-21469076D01*
X6187286Y-21478600D01*
X6196809Y-21488124D01*
X6206333Y-21507171D01*
X6215857Y-21545267D01*
X6215857Y-21592886D01*
X6206333Y-21630981D01*
X6196809Y-21650029D01*
X6187286Y-21659552D01*
X6168238Y-21669076D01*
X6149190Y-21669076D01*
X6130143Y-21659552D01*
X6120619Y-21650029D01*
X6111095Y-21630981D01*
X6101571Y-21592886D01*
X6101571Y-21545267D01*
X6111095Y-21507171D01*
X6120619Y-21488124D01*
X6130143Y-21478600D01*
X6149190Y-21469076D01*
X6330143Y-21554790D02*
X6311095Y-21545267D01*
X6301571Y-21535743D01*
X6292048Y-21516695D01*
X6292048Y-21507171D01*
X6301571Y-21488124D01*
X6311095Y-21478600D01*
X6330143Y-21469076D01*
X6368238Y-21469076D01*
X6387286Y-21478600D01*
X6396809Y-21488124D01*
X6406333Y-21507171D01*
X6406333Y-21516695D01*
X6396809Y-21535743D01*
X6387286Y-21545267D01*
X6368238Y-21554790D01*
X6330143Y-21554790D01*
X6311095Y-21564314D01*
X6301571Y-21573838D01*
X6292048Y-21592886D01*
X6292048Y-21630981D01*
X6301571Y-21650029D01*
X6311095Y-21659552D01*
X6330143Y-21669076D01*
X6368238Y-21669076D01*
X6387286Y-21659552D01*
X6396809Y-21650029D01*
X6406333Y-21630981D01*
X6406333Y-21592886D01*
X6396809Y-21573838D01*
X6387286Y-21564314D01*
X6368238Y-21554790D01*
X6577762Y-21469076D02*
X6539667Y-21469076D01*
X6520619Y-21478600D01*
X6511095Y-21488124D01*
X6492048Y-21516695D01*
X6482524Y-21554790D01*
X6482524Y-21630981D01*
X6492048Y-21650029D01*
X6501571Y-21659552D01*
X6520619Y-21669076D01*
X6558714Y-21669076D01*
X6577762Y-21659552D01*
X6587286Y-21650029D01*
X6596809Y-21630981D01*
X6596809Y-21583362D01*
X6587286Y-21564314D01*
X6577762Y-21554790D01*
X6558714Y-21545267D01*
X6520619Y-21545267D01*
X6501571Y-21554790D01*
X6492048Y-21564314D01*
X6482524Y-21583362D01*
X6768238Y-21469076D02*
X6730143Y-21469076D01*
X6711095Y-21478600D01*
X6701571Y-21488124D01*
X6682524Y-21516695D01*
X6673000Y-21554790D01*
X6673000Y-21630981D01*
X6682524Y-21650029D01*
X6692048Y-21659552D01*
X6711095Y-21669076D01*
X6749190Y-21669076D01*
X6768238Y-21659552D01*
X6777762Y-21650029D01*
X6787286Y-21630981D01*
X6787286Y-21583362D01*
X6777762Y-21564314D01*
X6768238Y-21554790D01*
X6749190Y-21545267D01*
X6711095Y-21545267D01*
X6692048Y-21554790D01*
X6682524Y-21564314D01*
X6673000Y-21583362D01*
X6863476Y-21469076D02*
X6863476Y-21507171D01*
X6939667Y-21469076D02*
X6939667Y-21507171D01*
X7234905Y-21745267D02*
X7225381Y-21735743D01*
X7206333Y-21707171D01*
X7196809Y-21688124D01*
X7187286Y-21659552D01*
X7177762Y-21611933D01*
X7177762Y-21573838D01*
X7187286Y-21526219D01*
X7196809Y-21497648D01*
X7206333Y-21478600D01*
X7225381Y-21450029D01*
X7234905Y-21440505D01*
X7415857Y-21669076D02*
X7301571Y-21669076D01*
X7358714Y-21669076D02*
X7358714Y-21469076D01*
X7339667Y-21497648D01*
X7320619Y-21516695D01*
X7301571Y-21526219D01*
X7653952Y-21669076D02*
X7653952Y-21469076D01*
X7739667Y-21669076D02*
X7739667Y-21564314D01*
X7730143Y-21545267D01*
X7711095Y-21535743D01*
X7682524Y-21535743D01*
X7663476Y-21545267D01*
X7653952Y-21554790D01*
X7863476Y-21669076D02*
X7844428Y-21659552D01*
X7834905Y-21650029D01*
X7825381Y-21630981D01*
X7825381Y-21573838D01*
X7834905Y-21554790D01*
X7844428Y-21545267D01*
X7863476Y-21535743D01*
X7892048Y-21535743D01*
X7911095Y-21545267D01*
X7920619Y-21554790D01*
X7930143Y-21573838D01*
X7930143Y-21630981D01*
X7920619Y-21650029D01*
X7911095Y-21659552D01*
X7892048Y-21669076D01*
X7863476Y-21669076D01*
X8044428Y-21669076D02*
X8025381Y-21659552D01*
X8015857Y-21640505D01*
X8015857Y-21469076D01*
X8196809Y-21659552D02*
X8177762Y-21669076D01*
X8139667Y-21669076D01*
X8120619Y-21659552D01*
X8111095Y-21640505D01*
X8111095Y-21564314D01*
X8120619Y-21545267D01*
X8139667Y-21535743D01*
X8177762Y-21535743D01*
X8196809Y-21545267D01*
X8206333Y-21564314D01*
X8206333Y-21583362D01*
X8111095Y-21602410D01*
X8273000Y-21745267D02*
X8282524Y-21735743D01*
X8301571Y-21707171D01*
X8311095Y-21688124D01*
X8320619Y-21659552D01*
X8330143Y-21611933D01*
X8330143Y-21573838D01*
X8320619Y-21526219D01*
X8311095Y-21497648D01*
X8301571Y-21478600D01*
X8282524Y-21450029D01*
X8273000Y-21440505D01*
M02*
