M48
; DRILL file {KiCad (6.0.0-0)} date 2022 March 22, Tuesday 21:17:25
; FORMAT={-:-/ absolute / metric / decimal}
; #@! TF.CreationDate,2022-03-22T21:17:25+08:00
; #@! TF.GenerationSoftware,Kicad,Pcbnew,(6.0.0-0)
; #@! TF.FileFunction,Plated,1,2,PTH
FMAT,2
METRIC
; #@! TA.AperFunction,Plated,PTH,ViaDrill
T1C0.400
; #@! TA.AperFunction,Plated,PTH,ComponentDrill
T2C0.800
; #@! TA.AperFunction,Plated,PTH,ComponentDrill
T3C1.000
; #@! TA.AperFunction,Plated,PTH,ComponentDrill
T4C1.016
; #@! TA.AperFunction,Plated,PTH,ComponentDrill
T5C1.100
; #@! TA.AperFunction,Plated,PTH,ComponentDrill
T6C1.200
; #@! TA.AperFunction,Plated,PTH,ComponentDrill
T7C1.900
; #@! TA.AperFunction,Plated,PTH,ViaDrill
T8C2.200
%
G90
G05
T1
X101.3Y-175.5
X101.3Y-177.4
X101.3Y-179.5
X101.3Y-181.5
X118.237Y-166.624
X125.857Y-174.371
X137.9Y-176.8
X139.0Y-175.8
X140.2Y-173.4
X145.1Y-174.2
X148.0Y-165.8
X148.0Y-167.0
X150.7Y-176.0
X150.7Y-177.0
X150.7Y-180.0
T2
X162.431Y-81.534
X165.931Y-81.534
T3
X82.932Y-77.136
X93.932Y-77.136
X138.55Y-76.034
X138.55Y-87.034
T4
X97.873Y-130.92
X97.873Y-136.0
X98.127Y-133.46
X128.778Y-127.279
X128.778Y-160.274
X131.318Y-127.737
X131.318Y-160.731
X133.858Y-127.279
X133.858Y-160.274
X136.398Y-127.737
X136.398Y-160.731
X138.938Y-127.279
X138.938Y-160.274
X141.478Y-127.737
X141.478Y-160.731
X144.018Y-127.279
X144.018Y-160.274
X146.558Y-127.737
X146.558Y-160.731
X151.65Y-128.746
X154.19Y-129.254
X156.73Y-128.746
X159.27Y-129.254
X161.81Y-128.746
X164.35Y-129.254
T5
X109.855Y-169.28
X109.855Y-184.52
X112.395Y-169.28
X112.395Y-184.52
X113.284Y-85.598
X114.935Y-169.28
X114.935Y-184.52
X117.475Y-169.28
X117.475Y-184.52
X120.015Y-169.28
X120.015Y-184.52
X122.555Y-169.28
X122.555Y-184.52
X123.444Y-85.598
X125.095Y-169.28
X125.095Y-184.52
X127.635Y-169.28
X127.635Y-184.52
X130.175Y-169.28
X130.175Y-184.52
X132.715Y-169.28
X132.715Y-184.52
X135.255Y-169.28
X135.255Y-184.52
X137.795Y-169.28
X137.795Y-184.52
X140.335Y-169.28
X140.335Y-184.52
X142.875Y-169.28
X142.875Y-171.82
X142.875Y-174.36
X142.875Y-176.9
X142.875Y-179.44
X142.875Y-181.98
X142.875Y-184.52
T6
X113.284Y-80.028
X128.524Y-80.028
T7
X85.932Y-72.136
X90.932Y-72.136
X133.55Y-79.034
X133.55Y-84.034
T8
X101.283Y-83.312
T0
M30
