%TF.GenerationSoftware,KiCad,Pcbnew,(6.0.0-0)*%
%TF.CreationDate,2022-03-22T21:17:21+08:00*%
%TF.ProjectId,layer2,6c617965-7232-42e6-9b69-6361645f7063,rev?*%
%TF.SameCoordinates,Original*%
%TF.FileFunction,Legend,Bot*%
%TF.FilePolarity,Positive*%
%FSLAX46Y46*%
G04 Gerber Fmt 4.6, Leading zero omitted, Abs format (unit mm)*
G04 Created by KiCad (PCBNEW (6.0.0-0)) date 2022-03-22 21:17:21*
%MOMM*%
%LPD*%
G01*
G04 APERTURE LIST*
%ADD10C,0.300000*%
%ADD11C,1.600000*%
%ADD12R,2.400000X2.400000*%
%ADD13O,2.400000X2.400000*%
%ADD14C,2.082800*%
%ADD15C,1.400000*%
%ADD16R,3.500000X3.500000*%
%ADD17C,3.500000*%
%ADD18R,2.200000X2.200000*%
%ADD19O,2.200000X2.200000*%
%ADD20R,1.600000X1.600000*%
G04 APERTURE END LIST*
D10*
X134051428Y-76621428D02*
X134194285Y-76550000D01*
X134265714Y-76478571D01*
X134337142Y-76335714D01*
X134337142Y-76264285D01*
X134265714Y-76121428D01*
X134194285Y-76050000D01*
X134051428Y-75978571D01*
X133765714Y-75978571D01*
X133622857Y-76050000D01*
X133551428Y-76121428D01*
X133480000Y-76264285D01*
X133480000Y-76335714D01*
X133551428Y-76478571D01*
X133622857Y-76550000D01*
X133765714Y-76621428D01*
X134051428Y-76621428D01*
X134194285Y-76692857D01*
X134265714Y-76764285D01*
X134337142Y-76907142D01*
X134337142Y-77192857D01*
X134265714Y-77335714D01*
X134194285Y-77407142D01*
X134051428Y-77478571D01*
X133765714Y-77478571D01*
X133622857Y-77407142D01*
X133551428Y-77335714D01*
X133480000Y-77192857D01*
X133480000Y-76907142D01*
X133551428Y-76764285D01*
X133622857Y-76692857D01*
X133765714Y-76621428D01*
X132551428Y-75978571D02*
X132408571Y-75978571D01*
X132265714Y-76050000D01*
X132194285Y-76121428D01*
X132122857Y-76264285D01*
X132051428Y-76550000D01*
X132051428Y-76907142D01*
X132122857Y-77192857D01*
X132194285Y-77335714D01*
X132265714Y-77407142D01*
X132408571Y-77478571D01*
X132551428Y-77478571D01*
X132694285Y-77407142D01*
X132765714Y-77335714D01*
X132837142Y-77192857D01*
X132908571Y-76907142D01*
X132908571Y-76550000D01*
X132837142Y-76264285D01*
X132765714Y-76121428D01*
X132694285Y-76050000D01*
X132551428Y-75978571D01*
X131551428Y-75978571D02*
X130551428Y-75978571D01*
X131194285Y-77478571D01*
X129337142Y-75978571D02*
X129622857Y-75978571D01*
X129765714Y-76050000D01*
X129837142Y-76121428D01*
X129980000Y-76335714D01*
X130051428Y-76621428D01*
X130051428Y-77192857D01*
X129980000Y-77335714D01*
X129908571Y-77407142D01*
X129765714Y-77478571D01*
X129480000Y-77478571D01*
X129337142Y-77407142D01*
X129265714Y-77335714D01*
X129194285Y-77192857D01*
X129194285Y-76835714D01*
X129265714Y-76692857D01*
X129337142Y-76621428D01*
X129480000Y-76550000D01*
X129765714Y-76550000D01*
X129908571Y-76621428D01*
X129980000Y-76692857D01*
X130051428Y-76835714D01*
X126551428Y-77478571D02*
X127051428Y-76764285D01*
X127408571Y-77478571D02*
X127408571Y-75978571D01*
X126837142Y-75978571D01*
X126694285Y-76050000D01*
X126622857Y-76121428D01*
X126551428Y-76264285D01*
X126551428Y-76478571D01*
X126622857Y-76621428D01*
X126694285Y-76692857D01*
X126837142Y-76764285D01*
X127408571Y-76764285D01*
X125622857Y-75978571D02*
X125337142Y-75978571D01*
X125194285Y-76050000D01*
X125051428Y-76192857D01*
X124980000Y-76478571D01*
X124980000Y-76978571D01*
X125051428Y-77264285D01*
X125194285Y-77407142D01*
X125337142Y-77478571D01*
X125622857Y-77478571D01*
X125765714Y-77407142D01*
X125908571Y-77264285D01*
X125980000Y-76978571D01*
X125980000Y-76478571D01*
X125908571Y-76192857D01*
X125765714Y-76050000D01*
X125622857Y-75978571D01*
X123837142Y-76692857D02*
X123622857Y-76764285D01*
X123551428Y-76835714D01*
X123480000Y-76978571D01*
X123480000Y-77192857D01*
X123551428Y-77335714D01*
X123622857Y-77407142D01*
X123765714Y-77478571D01*
X124337142Y-77478571D01*
X124337142Y-75978571D01*
X123837142Y-75978571D01*
X123694285Y-76050000D01*
X123622857Y-76121428D01*
X123551428Y-76264285D01*
X123551428Y-76407142D01*
X123622857Y-76550000D01*
X123694285Y-76621428D01*
X123837142Y-76692857D01*
X124337142Y-76692857D01*
X122551428Y-75978571D02*
X122265714Y-75978571D01*
X122122857Y-76050000D01*
X121980000Y-76192857D01*
X121908571Y-76478571D01*
X121908571Y-76978571D01*
X121980000Y-77264285D01*
X122122857Y-77407142D01*
X122265714Y-77478571D01*
X122551428Y-77478571D01*
X122694285Y-77407142D01*
X122837142Y-77264285D01*
X122908571Y-76978571D01*
X122908571Y-76478571D01*
X122837142Y-76192857D01*
X122694285Y-76050000D01*
X122551428Y-75978571D01*
X121480000Y-75978571D02*
X120622857Y-75978571D01*
X121051428Y-77478571D02*
X121051428Y-75978571D01*
X120122857Y-77478571D02*
X120122857Y-75978571D01*
X118551428Y-77335714D02*
X118622857Y-77407142D01*
X118837142Y-77478571D01*
X118980000Y-77478571D01*
X119194285Y-77407142D01*
X119337142Y-77264285D01*
X119408571Y-77121428D01*
X119480000Y-76835714D01*
X119480000Y-76621428D01*
X119408571Y-76335714D01*
X119337142Y-76192857D01*
X119194285Y-76050000D01*
X118980000Y-75978571D01*
X118837142Y-75978571D01*
X118622857Y-76050000D01*
X118551428Y-76121428D01*
X117980000Y-77407142D02*
X117765714Y-77478571D01*
X117408571Y-77478571D01*
X117265714Y-77407142D01*
X117194285Y-77335714D01*
X117122857Y-77192857D01*
X117122857Y-77050000D01*
X117194285Y-76907142D01*
X117265714Y-76835714D01*
X117408571Y-76764285D01*
X117694285Y-76692857D01*
X117837142Y-76621428D01*
X117908571Y-76550000D01*
X117980000Y-76407142D01*
X117980000Y-76264285D01*
X117908571Y-76121428D01*
X117837142Y-76050000D01*
X117694285Y-75978571D01*
X117337142Y-75978571D01*
X117122857Y-76050000D01*
%LPC*%
D11*
%TO.C,MU0*%
X112395000Y-184520000D03*
X114935000Y-184520000D03*
X117475000Y-184520000D03*
X120015000Y-184520000D03*
X142875000Y-179440000D03*
X114935000Y-169280000D03*
X122555000Y-184520000D03*
X125095000Y-184520000D03*
X127635000Y-184520000D03*
X130175000Y-184520000D03*
X132715000Y-184520000D03*
X135255000Y-184520000D03*
X137795000Y-184520000D03*
X140335000Y-184520000D03*
X142875000Y-184520000D03*
X142875000Y-169280000D03*
X140335000Y-169280000D03*
X137795000Y-169280000D03*
X135255000Y-169280000D03*
X132715000Y-169280000D03*
X130175000Y-169280000D03*
X127635000Y-169280000D03*
X125095000Y-169280000D03*
X122555000Y-169280000D03*
X120015000Y-169280000D03*
X117475000Y-169280000D03*
X109855000Y-184520000D03*
X142875000Y-176900000D03*
X112395000Y-169280000D03*
X142875000Y-171820000D03*
X142875000Y-174360000D03*
X142875000Y-181980000D03*
X109855000Y-169280000D03*
%TD*%
D12*
%TO.C,DRIBBLERD1*%
X113284000Y-80028000D03*
D13*
X128524000Y-80028000D03*
%TD*%
D14*
%TO.C,BUCKJ1*%
X97873000Y-136000000D03*
X98127000Y-133460000D03*
X97873000Y-130920000D03*
%TD*%
%TO.C,OPENMVJ1*%
X128778000Y-160274000D03*
X131318000Y-160731200D03*
X133858000Y-160274000D03*
X136398000Y-160731200D03*
X138938000Y-160274000D03*
X141478000Y-160731200D03*
X144018000Y-160274000D03*
X146558000Y-160731200D03*
%TD*%
D15*
%TO.C,J1*%
X82932000Y-77136000D03*
X93932000Y-77136000D03*
D16*
X90932000Y-72136000D03*
D17*
X85932000Y-72136000D03*
%TD*%
D15*
%TO.C,DRIBBLERJ1*%
X138550000Y-87034000D03*
X138550000Y-76034000D03*
D16*
X133550000Y-79034000D03*
D17*
X133550000Y-84034000D03*
%TD*%
D14*
%TO.C,BTJ1*%
X151650000Y-128746000D03*
X154190000Y-129254000D03*
X156730000Y-128746000D03*
X159270000Y-129254000D03*
X161810000Y-128746000D03*
X164350000Y-129254000D03*
%TD*%
D18*
%TO.C,DRIBBLERD2*%
X113284000Y-85598000D03*
D19*
X123444000Y-85598000D03*
%TD*%
D14*
%TO.C,OPENMVJ2*%
X128778000Y-127279400D03*
X131318000Y-127736600D03*
X133858000Y-127279400D03*
X136398000Y-127736600D03*
X138938000Y-127279400D03*
X141478000Y-127736600D03*
X144018000Y-127279400D03*
X146558000Y-127736600D03*
%TD*%
D20*
%TO.C,DRIBBLERCP1*%
X162431349Y-81534000D03*
D11*
X165931349Y-81534000D03*
%TD*%
M02*
