%TF.GenerationSoftware,KiCad,Pcbnew,(6.0.0-0)*%
%TF.CreationDate,2022-03-22T21:17:22+08:00*%
%TF.ProjectId,layer2,6c617965-7232-42e6-9b69-6361645f7063,rev?*%
%TF.SameCoordinates,Original*%
%TF.FileFunction,Soldermask,Bot*%
%TF.FilePolarity,Negative*%
%FSLAX46Y46*%
G04 Gerber Fmt 4.6, Leading zero omitted, Abs format (unit mm)*
G04 Created by KiCad (PCBNEW (6.0.0-0)) date 2022-03-22 21:17:22*
%MOMM*%
%LPD*%
G01*
G04 APERTURE LIST*
%ADD10C,1.600000*%
%ADD11R,2.400000X2.400000*%
%ADD12O,2.400000X2.400000*%
%ADD13C,2.082800*%
%ADD14C,1.400000*%
%ADD15R,3.500000X3.500000*%
%ADD16C,3.500000*%
%ADD17R,2.200000X2.200000*%
%ADD18O,2.200000X2.200000*%
%ADD19R,1.600000X1.600000*%
G04 APERTURE END LIST*
D10*
%TO.C,MU0*%
X112395000Y-184520000D03*
X114935000Y-184520000D03*
X117475000Y-184520000D03*
X120015000Y-184520000D03*
X142875000Y-179440000D03*
X114935000Y-169280000D03*
X122555000Y-184520000D03*
X125095000Y-184520000D03*
X127635000Y-184520000D03*
X130175000Y-184520000D03*
X132715000Y-184520000D03*
X135255000Y-184520000D03*
X137795000Y-184520000D03*
X140335000Y-184520000D03*
X142875000Y-184520000D03*
X142875000Y-169280000D03*
X140335000Y-169280000D03*
X137795000Y-169280000D03*
X135255000Y-169280000D03*
X132715000Y-169280000D03*
X130175000Y-169280000D03*
X127635000Y-169280000D03*
X125095000Y-169280000D03*
X122555000Y-169280000D03*
X120015000Y-169280000D03*
X117475000Y-169280000D03*
X109855000Y-184520000D03*
X142875000Y-176900000D03*
X112395000Y-169280000D03*
X142875000Y-171820000D03*
X142875000Y-174360000D03*
X142875000Y-181980000D03*
X109855000Y-169280000D03*
%TD*%
D11*
%TO.C,DRIBBLERD1*%
X113284000Y-80028000D03*
D12*
X128524000Y-80028000D03*
%TD*%
D13*
%TO.C,BUCKJ1*%
X97873000Y-136000000D03*
X98127000Y-133460000D03*
X97873000Y-130920000D03*
%TD*%
%TO.C,OPENMVJ1*%
X128778000Y-160274000D03*
X131318000Y-160731200D03*
X133858000Y-160274000D03*
X136398000Y-160731200D03*
X138938000Y-160274000D03*
X141478000Y-160731200D03*
X144018000Y-160274000D03*
X146558000Y-160731200D03*
%TD*%
D14*
%TO.C,J1*%
X82932000Y-77136000D03*
X93932000Y-77136000D03*
D15*
X90932000Y-72136000D03*
D16*
X85932000Y-72136000D03*
%TD*%
D14*
%TO.C,DRIBBLERJ1*%
X138550000Y-87034000D03*
X138550000Y-76034000D03*
D15*
X133550000Y-79034000D03*
D16*
X133550000Y-84034000D03*
%TD*%
D13*
%TO.C,BTJ1*%
X151650000Y-128746000D03*
X154190000Y-129254000D03*
X156730000Y-128746000D03*
X159270000Y-129254000D03*
X161810000Y-128746000D03*
X164350000Y-129254000D03*
%TD*%
D17*
%TO.C,DRIBBLERD2*%
X113284000Y-85598000D03*
D18*
X123444000Y-85598000D03*
%TD*%
D13*
%TO.C,OPENMVJ2*%
X128778000Y-127279400D03*
X131318000Y-127736600D03*
X133858000Y-127279400D03*
X136398000Y-127736600D03*
X138938000Y-127279400D03*
X141478000Y-127736600D03*
X144018000Y-127279400D03*
X146558000Y-127736600D03*
%TD*%
D19*
%TO.C,DRIBBLERCP1*%
X162431349Y-81534000D03*
D10*
X165931349Y-81534000D03*
%TD*%
M02*
