0
SECTION
2
HEADER
9
$INSUNITS
70
4
9
$ACADVER
1
AC1014
9
$HANDSEED
5
FFFF
0
ENDSEC
0
SECTION
2
TABLES
0
TABLE
2
VPORT
5
8
100
AcDbSymbolTable
0
ENDTAB
0
TABLE
2
LTYPE
5
5
100
AcDbSymbolTable
0
LTYPE
5
14
100
AcDbSymbolTableRecord
100
AcDbLinetypeTableRecord
2
BYBLOCK
70
0
0
LTYPE
5
15
100
AcDbSymbolTableRecord
100
AcDbLinetypeTableRecord
2
BYLAYER
70
0
0
ENDTAB
0
TABLE
2
LAYER
5
2
100
AcDbSymbolTable
70
2
0
LAYER
5
50
100
AcDbSymbolTableRecord
100
AcDbLayerTableRecord
2
0
70
0
6
CONTINUOUS
0
ENDTAB
0
TABLE
2
STYLE
5
3
100
AcDbSymbolTable
70
1
0
STYLE
5
11
100
AcDbSymbolTableRecord
100
AcDbTextStyleTableRecord
2
STANDARD
70
0
0
ENDTAB
0
TABLE
2
VIEW
5
6
100
AcDbSymbolTable
70
0
0
ENDTAB
0
TABLE
2
UCS
5
7
100
AcDbSymbolTable
70
0
0
ENDTAB
0
TABLE
2
APPID
5
9
100
AcDbSymbolTable
70
2
0
APPID
5
12
100
AcDbSymbolTableRecord
100
AcDbRegAppTableRecord
2
ACAD
70
0
0
ENDTAB
0
TABLE
2
DIMSTYLE
5
A
100
AcDbSymbolTable
70
1
0
ENDTAB
0
TABLE
2
BLOCK_RECORD
5
1
100
AcDbSymbolTable
70
1
0
BLOCK_RECORD
5
1F
100
AcDbSymbolTableRecord
100
AcDbBlockTableRecord
2
*MODEL_SPACE
0
BLOCK_RECORD
5
1B
100
AcDbSymbolTableRecord
100
AcDbBlockTableRecord
2
*PAPER_SPACE
0
ENDTAB
0
ENDSEC
0
SECTION
2
BLOCKS
0
BLOCK
5
20
100
AcDbEntity
100
AcDbBlockBegin
2
*MODEL_SPACE
0
ENDBLK
5
21
100
AcDbEntity
100
AcDbBlockEnd
0
BLOCK
5
1C
100
AcDbEntity
100
AcDbBlockBegin
2
*PAPER_SPACE
0
ENDBLK
5
1D
100
AcDbEntity
100
AcDbBlockEnd
0
ENDSEC
0
SECTION
2
ENTITIES
0
ARC
5
100
100
AcDbEntity
8
0
100
AcDbCircle
10
61.252361449748356
20
26.597947421341871
30
0
40
5.0000000000000231
210
0
220
0
230
1
100
AcDbArc
50
219.99999999999994
51
310.00010006813926
0
LINE
5
101
100
AcDbEntity
8
0
100
AcDbLine
10
79.016018918111541
20
34.976432707985794
30
0
11
64.46630618773014
21
22.767730818955101
31
0
0
ARC
5
102
100
AcDbEntity
8
0
100
AcDbCircle
10
0
20
0
30
0
40
89.018862162027403
210
0
220
0
230
1
100
AcDbArc
50
270
51
302.62650299334547
0
LINE
5
103
100
AcDbEntity
8
0
100
AcDbLine
10
9.8785217473532777e-19
20
67.511533075113917
30
0
11
-17.87548456929304
21
67.511530877245804
31
0
0
ARC
5
104
100
AcDbEntity
8
0
100
AcDbCircle
10
36.849470860502535
20
-55.707760113836812
30
0
40
5.0000000000000178
210
0
220
0
230
1
100
AcDbArc
50
140.05348707133732
51
230.01344129811409
0
LINE
5
105
100
AcDbEntity
8
0
100
AcDbLine
10
48.202341680060599
20
-71.755164224371015
30
0
11
33.636431451128416
21
-59.538736197527342
31
0
0
ARC
5
106
100
AcDbEntity
8
0
100
AcDbCircle
10
80.30847795866606
20
-33.427819291426445
30
0
40
1.9999999999999216
210
0
220
0
230
1
100
AcDbArc
50
230.0084213668959
51
337.40083528171687
0
LINE
5
107
100
AcDbEntity
8
0
100
AcDbLine
10
33.016250021174571
20
-52.49739907542665
30
0
11
57.41471086212438
21
-23.365258663776437
31
0
0
ARC
5
108
100
AcDbEntity
8
0
100
AcDbCircle
10
61.24793170145233
20
-26.575619702186589
30
0
40
5.0000000000000444
210
0
220
-0
230
1
100
AcDbArc
50
50.008421366896627
51
140.05348707133729
0
ARC
5
109
100
AcDbEntity
8
0
100
AcDbCircle
10
0
20
0
30
0
40
89.018862162027418
210
0
220
0
230
1
100
AcDbArc
50
237.37349700665453
51
270
0
LINE
5
110
100
AcDbEntity
8
0
100
AcDbLine
10
64.461306746889008
20
-22.744925141488057
30
0
11
79.023127940491435
21
-34.960097115705764
31
0
0
ARC
5
111
100
AcDbEntity
8
0
100
AcDbCircle
10
46.917125916311008
20
-73.287554657847295
30
0
40
1.9999999999999543
210
-0
220
0
230
1
100
AcDbArc
50
-57.373497006654794
51
50.013441298116625
0
ARC
5
112
100
AcDbEntity
8
0
100
AcDbCircle
10
0
20
0
30
0
40
88.98776198188925
210
0
220
0
230
1
100
AcDbArc
50
-22.599164718283969
51
22.610956188888881
0
ARC
5
113
100
AcDbEntity
8
0
100
AcDbCircle
10
0
20
0
30
0
40
88.98776198188925
210
0
220
0
230
1
100
AcDbArc
50
157.38904381111115
51
202.59916471828393
0
CIRCLE
5
114
100
AcDbEntity
8
0
100
AcDbCircle
10
-80.953553770727609
20
22.03933147556695
30
0
40
1.6000000000000019
210
0
220
0
230
1
0
ARC
5
115
100
AcDbEntity
8
0
100
AcDbCircle
10
-36.629461969780415
20
77.823262887240276
30
0
40
3.0000000000001039
210
0
220
-0
230
1
100
AcDbArc
50
45.17245014103726
51
115.20519207749483
0
LINE
5
116
100
AcDbEntity
8
0
100
AcDbLine
10
-34.514536023373111
20
79.950958410855847
30
0
11
-24.925238953527156
21
70.41921246519415
31
0
0
ARC
5
117
100
AcDbEntity
8
0
100
AcDbCircle
10
-61.252361449748335
20
26.597947421341882
30
0
40
5.0000000000000178
210
0
220
0
230
1
100
AcDbArc
50
229.99989993186065
51
319.99999999999977
0
ARC
5
118
100
AcDbEntity
8
0
100
AcDbCircle
10
0
20
0
30
0
40
89.012660292611088
210
0
220
0
230
1
100
AcDbArc
50
115.20519207749641
51
122.61235088714824
0
CIRCLE
5
119
100
AcDbEntity
8
0
100
AcDbCircle
10
-51.634934071949317
20
24.152348903248505
30
0
40
1.6000000000000003
210
0
220
0
230
1
0
ARC
5
120
100
AcDbEntity
8
0
100
AcDbCircle
10
-46.917125916310987
20
-73.287554657847252
30
0
40
2.0000000000000155
210
0
220
0
230
1
100
AcDbArc
50
129.98655870188617
51
237.37349700665544
0
ARC
5
121
100
AcDbEntity
8
0
100
AcDbCircle
10
-17.875485798836252
20
77.511530877245761
30
0
40
10.000000000000036
210
0
220
0
230
1
100
AcDbArc
50
225.17245014103651
51
270.00000704476366
0
LINE
5
122
100
AcDbEntity
8
0
100
AcDbLine
10
-33.016250021174564
20
-52.497399075426657
30
0
11
-57.41471086212438
21
-23.365258663776434
31
0
0
ARC
5
123
100
AcDbEntity
8
0
100
AcDbCircle
10
-46.895679884814811
20
73.293916932706878
30
0
40
1.9999999999987121
210
0
220
0
230
1
100
AcDbArc
50
122.61235088714859
51
230.00120776548059
0
LINE
5
124
100
AcDbEntity
8
0
100
AcDbLine
10
-33.612648335127616
20
59.537838793243758
30
0
11
-48.181222808258752
21
71.76180094754676
31
0
0
LINE
5
125
100
AcDbEntity
8
0
100
AcDbLine
10
-79.016018918111556
20
34.976432707985794
30
0
11
-64.466306187730126
21
22.767730818955108
31
0
0
ARC
5
126
100
AcDbEntity
8
0
100
AcDbCircle
10
-36.826505643737526
20
55.707548830343406
30
0
40
4.9999999999999902
210
0
220
0
230
1
100
AcDbArc
50
-40.000000000000107
51
50.001207765480487
0
ARC
5
127
100
AcDbEntity
8
0
100
AcDbCircle
10
-36.849470860502528
20
-55.707760113836812
30
0
40
5.0000000000000009
210
0
220
0
230
1
100
AcDbArc
50
-50.013441298113989
51
39.946512928662642
0
ARC
5
128
100
AcDbEntity
8
0
100
AcDbCircle
10
-80.301596813304286
20
33.444346067031091
30
0
40
2.0000000000000089
210
0
220
-0
230
1
100
AcDbArc
50
49.99989993186022
51
157.38904381111229
0
ARC
5
129
100
AcDbEntity
8
0
100
AcDbCircle
10
-80.308477958665435
20
-33.427819291426431
30
0
40
2.000000000000584
210
0
220
0
230
1
100
AcDbArc
50
202.59916471827648
51
309.9915786330659
0
CIRCLE
5
130
100
AcDbEntity
8
0
100
AcDbCircle
10
-80.953553770727609
20
-22.039331475566954
30
0
40
1.6000000000000019
210
0
220
0
230
1
0
LINE
5
131
100
AcDbEntity
8
0
100
AcDbLine
10
-57.422139234153455
20
23.384009372909166
30
0
11
-32.996283428142654
21
52.493610781910711
31
0
0
LINE
5
132
100
AcDbEntity
8
0
100
AcDbLine
10
-64.46130674688898
20
-22.744925141488103
30
0
11
-79.023127940491406
21
-34.960097115707114
31
0
0
LINE
5
133
100
AcDbEntity
8
0
100
AcDbLine
10
-48.202341680060655
20
-71.755164224371029
30
0
11
-33.636431451128402
21
-59.538736197527335
31
0
0
ARC
5
134
100
AcDbEntity
8
0
100
AcDbCircle
10
-61.247931701452323
20
-26.575619702186589
30
0
40
4.9999999999999991
210
0
220
-0
230
1
100
AcDbArc
50
39.946512928662806
51
129.99157863310356
0
ARC
5
135
100
AcDbEntity
8
0
100
AcDbCircle
10
0
20
0
30
0
40
89.012660292611088
210
0
220
-0
230
1
100
AcDbArc
50
57.387649112851818
51
64.794808104980433
0
LINE
5
136
100
AcDbEntity
8
0
100
AcDbLine
10
24.925237540098493
20
70.419213788432756
30
0
11
34.514536039493102
21
79.950958789903041
31
0
0
ARC
5
137
100
AcDbEntity
8
0
100
AcDbCircle
10
36.629461721927214
20
77.82326300389866
30
0
40
3.0000000000000311
210
0
220
-0
230
1
100
AcDbArc
50
64.7948081049812
51
134.82754275054609
0
LINE
5
138
100
AcDbEntity
8
0
100
AcDbLine
10
0
20
67.511533075113931
30
0
11
17.875485265318179
21
67.511533075113931
31
0
0
ARC
5
139
100
AcDbEntity
8
0
100
AcDbCircle
10
36.826505643737505
20
55.707548830343434
30
0
40
5.0000000000000089
210
0
220
0
230
1
100
AcDbArc
50
129.99879223451981
51
220.00000000000006
0
ARC
5
140
100
AcDbEntity
8
0
100
AcDbCircle
10
46.895679884814783
20
73.293916932706878
30
0
40
2.0000000000000067
210
-0
220
0
230
1
100
AcDbArc
50
-50.001207765480387
51
57.387649112852294
0
ARC
5
141
100
AcDbEntity
8
0
100
AcDbCircle
10
17.875485265318179
20
77.511533075113917
30
0
40
9.9999999999999911
210
0
220
0
230
1
100
AcDbArc
50
270
51
314.82754275054629
0
LINE
5
142
100
AcDbEntity
8
0
100
AcDbLine
10
33.612648335127602
20
59.537838793243736
30
0
11
48.181222808258745
21
71.761800947546746
31
0
0
LINE
5
143
100
AcDbEntity
8
0
100
AcDbLine
10
57.422139234153448
20
23.384009372909166
30
0
11
32.996283428142618
21
52.493610781910732
31
0
0
ARC
5
144
100
AcDbEntity
8
0
100
AcDbCircle
10
80.301596813304243
20
33.444346067031098
30
0
40
1.9999999999999911
210
0
220
-0
230
1
100
AcDbArc
50
22.610956188887538
51
130.00010006813929
0
LINE
5
145
100
AcDbEntity
8
0
100
AcDbLine
10
37.161777022937962
20
47.500024510493041
30
0
11
53.231467265101443
21
28.348913432518593
31
0
0
ENDSEC
0
SECTION
2
OBJECTS
0
DICTIONARY
5
C
100
AcDbDictionary
3
ACAD_GROUP
350
D
3
ACAD_MLINESTYLE
350
17
0
DICTIONARY
5
D
100
AcDbDictionary
0
DICTIONARY
5
1A
330
C
100
AcDbDictionary
0
DICTIONARY
5
17
100
AcDbDictionary
0
ENDSEC
0
EOF
