0
SECTION
2
HEADER
9
$INSUNITS
70
4
9
$ACADVER
1
AC1014
9
$HANDSEED
5
FFFF
0
ENDSEC
0
SECTION
2
TABLES
0
TABLE
2
VPORT
5
8
100
AcDbSymbolTable
0
ENDTAB
0
TABLE
2
LTYPE
5
5
100
AcDbSymbolTable
0
LTYPE
5
14
100
AcDbSymbolTableRecord
100
AcDbLinetypeTableRecord
2
BYBLOCK
70
0
0
LTYPE
5
15
100
AcDbSymbolTableRecord
100
AcDbLinetypeTableRecord
2
BYLAYER
70
0
0
ENDTAB
0
TABLE
2
LAYER
5
2
100
AcDbSymbolTable
70
2
0
LAYER
5
50
100
AcDbSymbolTableRecord
100
AcDbLayerTableRecord
2
0
70
0
6
CONTINUOUS
0
ENDTAB
0
TABLE
2
STYLE
5
3
100
AcDbSymbolTable
70
1
0
STYLE
5
11
100
AcDbSymbolTableRecord
100
AcDbTextStyleTableRecord
2
STANDARD
70
0
0
ENDTAB
0
TABLE
2
VIEW
5
6
100
AcDbSymbolTable
70
0
0
ENDTAB
0
TABLE
2
UCS
5
7
100
AcDbSymbolTable
70
0
0
ENDTAB
0
TABLE
2
APPID
5
9
100
AcDbSymbolTable
70
2
0
APPID
5
12
100
AcDbSymbolTableRecord
100
AcDbRegAppTableRecord
2
ACAD
70
0
0
ENDTAB
0
TABLE
2
DIMSTYLE
5
A
100
AcDbSymbolTable
70
1
0
ENDTAB
0
TABLE
2
BLOCK_RECORD
5
1
100
AcDbSymbolTable
70
1
0
BLOCK_RECORD
5
1F
100
AcDbSymbolTableRecord
100
AcDbBlockTableRecord
2
*MODEL_SPACE
0
BLOCK_RECORD
5
1B
100
AcDbSymbolTableRecord
100
AcDbBlockTableRecord
2
*PAPER_SPACE
0
ENDTAB
0
ENDSEC
0
SECTION
2
BLOCKS
0
BLOCK
5
20
100
AcDbEntity
100
AcDbBlockBegin
2
*MODEL_SPACE
0
ENDBLK
5
21
100
AcDbEntity
100
AcDbBlockEnd
0
BLOCK
5
1C
100
AcDbEntity
100
AcDbBlockBegin
2
*PAPER_SPACE
0
ENDBLK
5
1D
100
AcDbEntity
100
AcDbBlockEnd
0
ENDSEC
0
SECTION
2
ENTITIES
0
ARC
5
100
100
AcDbEntity
8
0
100
AcDbCircle
10
82.19786665431235
20
-28.504573623892103
30
0
40
1.9999999999999987
210
0
220
0
230
1
100
AcDbArc
50
230.00000000000031
51
340.87447860822601
0
LINE
5
101
100
AcDbEntity
8
0
100
AcDbLine
10
67.667685040524205
20
-18.923118169488127
30
0
11
80.912291434939277
21
-30.036662510130068
31
0
0
ARC
5
102
100
AcDbEntity
8
0
100
AcDbCircle
10
64.453746992091524
20
-22.753340385082939
30
0
40
4.9999999999999218
210
0
220
-0
230
1
100
AcDbArc
50
49.999999999999567
51
140.00000000000074
0
ARC
5
103
100
AcDbEntity
8
0
100
AcDbCircle
10
0
20
0
30
0
40
89
210
0
220
0
230
1
100
AcDbArc
50
270
51
299.12552139177336
0
ARC
5
104
100
AcDbEntity
8
0
100
AcDbCircle
10
42.345034853746952
20
-75.999329097268742
30
0
40
1.9999999999999771
210
-0
220
0
230
1
100
AcDbArc
50
-60.874478608228699
51
50.00000000000022
0
LINE
5
105
100
AcDbEntity
8
0
100
AcDbLine
10
43.63061007312001
20
-74.467240211030798
30
0
11
30.386003678704924
21
-63.353695870388869
31
0
0
ARC
5
106
100
AcDbEntity
8
0
100
AcDbCircle
10
33.599941727137654
20
-59.523473654793975
30
0
40
5.0000000000000213
210
0
220
0
230
1
100
AcDbArc
50
140.00000000000023
51
229.99999999999972
0
LINE
5
107
100
AcDbEntity
8
0
100
AcDbLine
10
29.769719511542739
20
-56.30953560636128
30
0
11
60.623524776496652
21
-19.53940233665034
31
0
0
ARC
5
108
100
AcDbEntity
8
0
100
AcDbCircle
10
-82.19786665431235
20
-28.504573623892107
30
0
40
1.9999999999999925
210
0
220
0
230
1
100
AcDbArc
50
199.1255213917739
51
309.99999999999977
0
ARC
5
109
100
AcDbEntity
8
0
100
AcDbCircle
10
-64.453746992091524
20
-22.753340385082943
30
0
40
4.9999999999999281
210
0
220
-0
230
1
100
AcDbArc
50
39.999999999999297
51
130.0000000000004
0
LINE
5
110
100
AcDbEntity
8
0
100
AcDbLine
10
-80.912291434939277
20
30.03666251013005
30
0
11
-67.667685040524219
21
18.92311816948812
31
0
0
ARC
5
111
100
AcDbEntity
8
0
100
AcDbCircle
10
-32.872783373557709
20
49.50000044703485
30
0
40
2.0000000000000018
210
0
220
-0
230
1
100
AcDbArc
50
90
51
140.00000000000017
0
LINE
5
112
100
AcDbEntity
8
0
100
AcDbLine
10
-31.500000000000014
20
51.50000044703485
30
0
11
-32.872783373557709
21
51.50000044703485
31
0
0
LINE
5
113
100
AcDbEntity
8
0
100
AcDbLine
10
-60.623524776496623
20
19.539402336650316
30
0
11
-34.404872259795667
21
50.785575666407922
31
0
0
ARC
5
114
100
AcDbEntity
8
0
100
AcDbCircle
10
-31.500000000000014
20
50.000000447034836
30
0
40
1.5000000000000124
210
0
220
-0
230
1
100
AcDbArc
50
0
51
90
0
LINE
5
115
100
AcDbEntity
8
0
100
AcDbLine
10
60.623524776496623
20
19.539402336650319
30
0
11
34.404872259795667
21
50.785575666407922
31
0
0
ARC
5
116
100
AcDbEntity
8
0
100
AcDbCircle
10
82.19786665431235
20
28.504573623892103
30
0
40
1.9999999999999882
210
0
220
-0
230
1
100
AcDbArc
50
19.125521391773425
51
129.99999999999994
0
LINE
5
117
100
AcDbEntity
8
0
100
AcDbLine
10
80.912291434939277
20
30.036662510130054
30
0
11
67.667685040524219
21
18.923118169488124
31
0
0
ARC
5
118
100
AcDbEntity
8
0
100
AcDbCircle
10
64.453746992091524
20
22.753340385083021
30
0
40
5.0000000000000071
210
0
220
0
230
1
100
AcDbArc
50
219.99999999999994
51
309.99999999999989
0
LINE
5
119
100
AcDbEntity
8
0
100
AcDbLine
10
31.500000000000014
20
51.50000044703485
30
0
11
32.872783373557709
21
51.50000044703485
31
0
0
ARC
5
120
100
AcDbEntity
8
0
100
AcDbCircle
10
32.872783373557709
20
49.50000044703485
30
0
40
1.9999999999999973
210
0
220
-0
230
1
100
AcDbArc
50
39.999999999999829
51
90
0
LINE
5
121
100
AcDbEntity
8
0
100
AcDbLine
10
0
20
28.000000447034836
30
0
11
-27
21
28.000000447034836
31
0
0
ARC
5
122
100
AcDbEntity
8
0
100
AcDbCircle
10
-27
20
31.000000447034832
30
0
40
2.9999999999999982
210
0
220
0
230
1
100
AcDbArc
50
180
51
270
0
ARC
5
123
100
AcDbEntity
8
0
100
AcDbCircle
10
-82.19786665431235
20
28.504573623892107
30
0
40
1.9999999999999816
210
0
220
-0
230
1
100
AcDbArc
50
49.999999999999901
51
160.87447860822641
0
ARC
5
124
100
AcDbEntity
8
0
100
AcDbCircle
10
-64.453746992091524
20
22.753340385083032
30
0
40
5.0000000000000178
210
0
220
0
230
1
100
AcDbArc
50
230.00000000000017
51
319.99999999999989
0
LINE
5
125
100
AcDbEntity
8
0
100
AcDbLine
10
-30
20
50.000000447034836
30
0
11
-30
21
31.000000447034832
31
0
0
LINE
5
126
100
AcDbEntity
8
0
100
AcDbLine
10
30
20
50.000000447034836
30
0
11
30
21
31.000000447034832
31
0
0
LINE
5
127
100
AcDbEntity
8
0
100
AcDbLine
10
0
20
28.000000447034836
30
0
11
27
21
28.000000447034836
31
0
0
ARC
5
128
100
AcDbEntity
8
0
100
AcDbCircle
10
0
20
0
30
0
40
88.999999999999986
210
0
220
0
230
1
100
AcDbArc
50
160.87447860822658
51
199.12552139177339
0
ARC
5
129
100
AcDbEntity
8
0
100
AcDbCircle
10
31.500000000000014
20
50.000000447034836
30
0
40
1.5000000000000124
210
0
220
-0
230
1
100
AcDbArc
50
90
51
180
0
ARC
5
130
100
AcDbEntity
8
0
100
AcDbCircle
10
0
20
0
30
0
40
88.999999999999986
210
0
220
0
230
1
100
AcDbArc
50
-19.1255213917734
51
19.125521391773407
0
ARC
5
131
100
AcDbEntity
8
0
100
AcDbCircle
10
27
20
31.000000447034832
30
0
40
2.9999999999999982
210
0
220
0
230
1
100
AcDbArc
50
-90
51
0
0
ARC
5
132
100
AcDbEntity
8
0
100
AcDbCircle
10
0
20
0
30
0
40
89
210
0
220
0
230
1
100
AcDbArc
50
240.87447860822667
51
270
0
LINE
5
133
100
AcDbEntity
8
0
100
AcDbLine
10
-43.63061007312001
20
-74.467240211030798
30
0
11
-30.386003678704924
21
-63.353695870388869
31
0
0
LINE
5
134
100
AcDbEntity
8
0
100
AcDbLine
10
-29.769719511542739
20
-56.30953560636128
30
0
11
-60.623524776496652
21
-19.53940233665034
31
0
0
LINE
5
135
100
AcDbEntity
8
0
100
AcDbLine
10
-67.667685040524205
20
-18.923118169488127
30
0
11
-80.912291434939277
21
-30.036662510130068
31
0
0
ARC
5
136
100
AcDbEntity
8
0
100
AcDbCircle
10
-42.345034853746952
20
-75.999329097268742
30
0
40
1.999999999999976
210
0
220
0
230
1
100
AcDbArc
50
129.9999999999998
51
240.87447860822869
0
ARC
5
137
100
AcDbEntity
8
0
100
AcDbCircle
10
-33.599941727137654
20
-59.523473654793975
30
0
40
5.0000000000000249
210
0
220
0
230
1
100
AcDbArc
50
-49.999999999999737
51
39.999999999999794
0
ENDSEC
0
SECTION
2
OBJECTS
0
DICTIONARY
5
C
100
AcDbDictionary
3
ACAD_GROUP
350
D
3
ACAD_MLINESTYLE
350
17
0
DICTIONARY
5
D
100
AcDbDictionary
0
DICTIONARY
5
1A
330
C
100
AcDbDictionary
0
DICTIONARY
5
17
100
AcDbDictionary
0
ENDSEC
0
EOF
