M48
; DRILL file {KiCad (6.0.0-0)} date 2022 March 23, Wednesday 00:11:22
; FORMAT={-:-/ absolute / metric / decimal}
; #@! TF.CreationDate,2022-03-23T00:11:22+08:00
; #@! TF.GenerationSoftware,Kicad,Pcbnew,(6.0.0-0)
; #@! TF.FileFunction,Plated,1,2,PTH
FMAT,2
METRIC
; #@! TA.AperFunction,Plated,PTH,ViaDrill
T1C0.400
; #@! TA.AperFunction,Plated,PTH,ComponentDrill
T2C1.016
; #@! TA.AperFunction,Plated,PTH,ComponentDrill
T3C1.100
; #@! TA.AperFunction,Plated,PTH,ComponentDrill
T4C1.200
; #@! TA.AperFunction,Plated,PTH,ViaDrill
T5C1.700
; #@! TA.AperFunction,Plated,PTH,ViaDrill
T6C2.200
; #@! TA.AperFunction,Plated,PTH,ComponentDrill
T7C2.700
; #@! TA.AperFunction,Plated,PTH,ComponentDrill
T8C4.500
%
G90
G05
T1
X71.12Y-83.82
X71.33Y-102.18
X71.374Y-119.126
X72.236Y-97.822
X74.68Y-97.786
X78.232Y-100.584
X80.772Y-133.858
X82.098Y-122.962
X84.531Y-79.121
X86.614Y-100.838
X88.646Y-127.254
X91.088Y-111.972
X91.63Y-72.326
X92.078Y-131.662
X92.964Y-93.98
X96.468Y-129.142
X96.984Y-80.336
X98.254Y-109.038
X99.06Y-52.324
X99.06Y-152.4
X99.13Y-64.851
X101.63Y-102.351
X101.668Y-132.342
X104.13Y-59.826
X105.41Y-85.598
X105.718Y-112.332
X107.405Y-101.146
X107.417Y-97.058
X108.718Y-77.372
X109.474Y-55.169
X110.744Y-51.816
X110.744Y-80.772
X110.744Y-94.234
X110.888Y-108.002
X111.478Y-130.192
X113.13Y-97.446
X113.13Y-101.145
X113.792Y-78.232
X116.332Y-57.912
X116.93Y-66.626
X117.805Y-116.866
X118.11Y-96.774
X118.14Y-115.616
X118.669Y-154.534
X118.73Y-128.896
X119.126Y-52.527
X119.151Y-131.013
X119.498Y-88.002
X119.698Y-119.922
X119.73Y-104.771
X119.73Y-106.946
X119.738Y-126.622
X119.88Y-98.546
X120.066Y-101.092
X120.167Y-108.966
X120.396Y-123.444
X120.523Y-168.529
X120.523Y-171.577
X121.158Y-178.664
X121.548Y-113.402
X121.568Y-105.502
X121.666Y-70.104
X121.666Y-95.25
X121.895Y-116.84
X121.92Y-160.528
X121.92Y-181.61
X122.98Y-106.944
X123.288Y-101.292
X123.968Y-113.402
X123.978Y-118.062
X124.13Y-136.226
X124.655Y-94.671
X124.993Y-110.719
X124.993Y-121.666
X125.425Y-148.539
X125.432Y-102.434
X126.289Y-53.594
X127.12Y-115.576
X127.555Y-103.721
X127.762Y-91.054
X127.762Y-107.188
X128.09Y-152.396
X128.118Y-150.825
X128.13Y-155.046
X129.11Y-114.576
X129.54Y-160.528
X129.905Y-105.446
X130.12Y-91.046
X130.205Y-67.076
X130.302Y-69.85
X130.683Y-156.464
X131.14Y-118.948
X131.158Y-95.862
X131.455Y-67.076
X131.455Y-72.576
X131.578Y-108.782
X131.63Y-149.826
X131.88Y-99.546
X132.105Y-104.648
X132.588Y-117.582
X132.728Y-100.622
X132.73Y-72.576
X132.778Y-94.242
X133.318Y-127.262
X133.602Y-102.742
X133.848Y-83.992
X134.239Y-100.533
X134.518Y-116.332
X134.537Y-102.388
X134.874Y-133.096
X134.933Y-99.509
X135.306Y-115.646
X135.382Y-101.854
X135.636Y-91.948
X135.636Y-126.492
X136.169Y-115.037
X136.195Y-168.199
X136.398Y-68.326
X137.414Y-108.458
X137.414Y-113.538
X137.719Y-172.847
X137.854Y-102.43
X137.918Y-95.332
X138.378Y-99.892
X138.53Y-96.871
X138.938Y-149.86
X139.928Y-138.172
X139.954Y-131.064
X140.208Y-122.784
X140.208Y-128.956
X140.755Y-49.616
X140.766Y-51.781
X141.224Y-129.286
X141.478Y-133.858
X141.655Y-106.596
X141.707Y-126.416
X142.113Y-147.777
X142.135Y-102.526
X142.418Y-110.112
X143.205Y-128.956
X143.231Y-121.336
X143.256Y-94.742
X143.258Y-104.542
X143.764Y-64.008
X143.878Y-80.372
X144.018Y-91.44
X144.018Y-98.806
X144.221Y-122.123
X144.221Y-128.956
X144.272Y-168.046
X144.272Y-173.228
X145.796Y-103.378
X146.05Y-45.466
X146.05Y-46.99
X146.05Y-48.514
X146.05Y-168.046
X146.05Y-173.228
X146.188Y-107.612
X146.508Y-100.552
X147.269Y-104.885
X147.32Y-118.618
X148.336Y-130.556
X148.361Y-143.078
X148.59Y-101.6
X148.844Y-97.536
X149.259Y-103.751
X149.526Y-91.735
X149.648Y-99.052
X149.708Y-122.849
X149.758Y-125.197
X149.86Y-93.98
X150.167Y-96.296
X150.343Y-102.667
X150.548Y-91.732
X150.622Y-87.63
X150.91Y-112.546
X151.155Y-100.912
X152.12Y-112.546
X152.4Y-121.92
X152.4Y-125.222
X152.538Y-90.483
X152.908Y-68.326
X153.048Y-91.342
X153.118Y-97.562
X153.543Y-121.92
X153.543Y-125.222
X153.617Y-178.631
X153.645Y-174.673
X153.67Y-179.629
X153.721Y-175.673
X153.924Y-45.72
X153.924Y-48.26
X153.924Y-50.8
X153.924Y-137.566
X154.432Y-109.093
X154.432Y-110.363
X154.48Y-116.796
X154.48Y-118.056
X154.483Y-96.774
X154.559Y-121.92
X154.559Y-125.222
X156.094Y-114.518
X156.63Y-129.826
X157.094Y-114.493
X157.608Y-86.78
X158.134Y-114.509
X158.928Y-87.493
X159.004Y-70.104
X159.258Y-112.573
X159.258Y-114.503
X159.278Y-103.642
X160.274Y-93.472
X160.274Y-112.522
X160.274Y-114.503
X160.446Y-89.16
X161.29Y-112.674
X161.29Y-114.503
X161.315Y-78.105
X161.823Y-131.14
X162.052Y-86.004
X162.052Y-122.326
X162.052Y-125.273
X163.271Y-122.326
X163.271Y-125.273
X163.78Y-118.021
X163.78Y-119.346
X163.83Y-111.633
X163.83Y-114.32
X163.83Y-115.545
X164.236Y-74.778
X164.592Y-122.276
X164.592Y-125.273
X165.456Y-111.582
X166.497Y-111.569
X168.173Y-107.01
X168.173Y-116.307
X168.402Y-78.486
X169.808Y-118.262
X170.155Y-114.452
X170.518Y-123.212
X170.688Y-68.58
X171.45Y-104.14
X174.422Y-107.239
X176.78Y-99.146
X180.13Y-99.906
X180.13Y-102.171
X180.992Y-112.183
X180.992Y-115.641
X181.61Y-80.01
X181.991Y-112.141
X181.991Y-115.672
X183.134Y-112.166
X183.134Y-115.646
X184.404Y-112.166
X184.404Y-115.646
X185.547Y-112.141
X185.547Y-115.697
X185.938Y-118.162
X186.131Y-104.572
X186.69Y-112.116
X186.69Y-115.672
X188.214Y-112.116
X188.722Y-100.482
X191.77Y-110.998
X193.04Y-80.01
X198.12Y-101.6
X198.12Y-120.904
X200.038Y-102.562
X201.168Y-99.314
T2
X69.806Y-90.75
X70.06Y-88.21
X70.06Y-93.29
X93.13Y-27.198
X93.13Y-30.094
X117.983Y-163.066
X117.983Y-168.146
X117.983Y-173.226
X117.983Y-178.306
X117.983Y-183.386
X118.237Y-160.526
X118.237Y-165.606
X118.237Y-170.686
X118.237Y-175.766
X118.237Y-180.846
X118.237Y-185.926
X133.223Y-163.061
X133.223Y-168.141
X133.223Y-173.221
X133.223Y-178.301
X133.223Y-183.381
X133.477Y-160.521
X133.477Y-165.601
X133.477Y-170.681
X133.477Y-175.761
X133.477Y-180.841
X133.477Y-185.921
X158.13Y-27.198
X158.13Y-30.094
X196.638Y-106.828
X196.638Y-109.546
X196.638Y-112.264
X196.723Y-90.373
X196.723Y-93.091
X196.723Y-95.809
T3
X153.975Y-83.287
X163.906Y-93.503
X164.135Y-83.287
X166.446Y-93.503
X168.986Y-93.503
T4
X105.41Y-166.497
X105.41Y-173.997
X149.657Y-78.664
X164.897Y-78.664
T5
X162.408Y-91.161
T6
X159.893Y-84.277
X164.211Y-97.155
X168.986Y-83.414
T7
X47.244Y-97.066
X47.244Y-105.626
X70.06Y-108.84
X70.06Y-113.84
X105.41Y-159.258
X181.102Y-86.908
X181.102Y-91.908
X187.579Y-86.908
X187.579Y-91.908
T8
X62.186Y-87.471
X62.186Y-94.671
X62.186Y-107.74
X62.186Y-114.94
X81.744Y-105.512
X88.944Y-105.512
T0
M30
