%FSLAX45Y45*%
G04 Gerber Fmt 4.5, Leading zero omitted, Abs format (unit mm)*
G04 Created by KiCad (PCBNEW (6.0.0-0)) date 2022-03-23 00:11:23*
%MOMM*%
%LPD*%
G01*
G04 APERTURE LIST*
%TA.AperFunction,Profile*%
%ADD10C,0.200000*%
%TD*%
%ADD11C,0.200000*%
G04 APERTURE END LIST*
D10*
X20474602Y-6636957D02*
X19019631Y-7857827D01*
X17391122Y-2958420D02*
G75*
G03*
X17370359Y-2636741I-128554J153212D01*
G01*
X17393234Y-17310116D02*
X15936643Y-16088474D01*
X15934265Y-4180816D02*
G75*
G03*
X15872628Y-4885239I321386J-383029D01*
G01*
X19019131Y-12409092D02*
G75*
G03*
X18314471Y-12471126I-321338J-383069D01*
G01*
X4671398Y-6636957D02*
G75*
G03*
X4358213Y-6713271I-128558J-153209D01*
G01*
X4357509Y-13554238D02*
G75*
G03*
X4670687Y-13630610I184643J76857D01*
G01*
X15065524Y-3092679D02*
X16024454Y-2139504D01*
X9211735Y-4180816D02*
X7754878Y-2958420D01*
X19019131Y-12409092D02*
X20475313Y-13630610D01*
X12573000Y-19036486D02*
G75*
G03*
X17372545Y-17631796I0J8901887D01*
G01*
X14360548Y-3383447D02*
G75*
G03*
X15065524Y-3092679I0J1000000D01*
G01*
X7752766Y-17310117D02*
G75*
G03*
X7773455Y-17631796I128522J-153239D01*
G01*
X6126869Y-12409092D02*
X4670687Y-13630610D01*
X9271375Y-15384340D02*
X6831529Y-12471126D01*
X12573000Y-3383447D02*
X10785452Y-3383447D01*
X20788491Y-13554238D02*
G75*
G03*
X20787787Y-6713271I-8215491J3419638D01*
G01*
X15874625Y-15384340D02*
X18314471Y-12471126D01*
X17372545Y-17631796D02*
G75*
G03*
X17393234Y-17310116I-107832J168441D01*
G01*
X18315214Y-7796199D02*
X15872628Y-4885239D01*
X6830786Y-7796199D02*
X9273372Y-4885239D01*
X8782295Y-2080837D02*
G75*
G03*
X7775641Y-2636741I3790700J-8053755D01*
G01*
X4671398Y-6636957D02*
X6126369Y-7857827D01*
X7775641Y-2636741D02*
G75*
G03*
X7754878Y-2958420I107791J-168467D01*
G01*
X18315214Y-7796199D02*
G75*
G03*
X19019631Y-7857827I383022J321394D01*
G01*
X16363705Y-2080837D02*
G75*
G03*
X16024454Y-2139504I-127758J-271437D01*
G01*
X9273372Y-4885239D02*
G75*
G03*
X9211735Y-4180816I-383022J321394D01*
G01*
X6831529Y-12471126D02*
G75*
G03*
X6126869Y-12409092I-383322J-321036D01*
G01*
X15874625Y-15384340D02*
G75*
G03*
X15936643Y-16088474I383322J-321036D01*
G01*
X15934265Y-4180816D02*
X17391122Y-2958420D01*
X7773455Y-17631796D02*
G75*
G03*
X12573000Y-19036486I4799545J7497197D01*
G01*
X20787787Y-6713271D02*
G75*
G03*
X20474602Y-6636957I-184627J-76894D01*
G01*
X12573000Y-3383447D02*
X14360548Y-3383447D01*
X20475313Y-13630610D02*
G75*
G03*
X20788491Y-13554238I128535J153228D01*
G01*
X10080476Y-3092679D02*
G75*
G03*
X10785452Y-3383447I704975J709232D01*
G01*
X17370359Y-2636741D02*
G75*
G03*
X16363705Y-2080837I-4797354J-7497851D01*
G01*
X4358213Y-6713271D02*
G75*
G03*
X4357509Y-13554238I8214786J-3421329D01*
G01*
X9121546Y-2139504D02*
X10080476Y-3092679D01*
X9121546Y-2139504D02*
G75*
G03*
X8782295Y-2080837I-211493J-212769D01*
G01*
X9209357Y-16088474D02*
G75*
G03*
X9271375Y-15384340I-321304J383098D01*
G01*
X7752766Y-17310116D02*
X9209357Y-16088474D01*
X6126369Y-7857827D02*
G75*
G03*
X6830786Y-7796199I321395J383022D01*
G01*
X20596400Y-11535200D02*
G75*
G03*
X20596400Y-11535200I-160000J0D01*
G01*
X17236400Y-9855200D02*
G75*
G03*
X17236400Y-9855200I-160000J0D01*
G01*
X20828355Y-12338533D02*
G75*
G03*
X20828355Y-12338533I-160000J0D01*
G01*
X17896493Y-12549835D02*
G75*
G03*
X17896493Y-12549835I-160000J0D01*
G01*
X9457827Y-14800247D02*
G75*
G03*
X9457827Y-14800247I-160000J0D01*
G01*
X9090454Y-17692640D02*
G75*
G03*
X9090454Y-17692640I-160000J0D01*
G01*
X16008173Y-5468953D02*
G75*
G03*
X16008173Y-5468953I-160000J0D01*
G01*
X14903000Y-7134600D02*
G75*
G03*
X14903000Y-7134600I-160000J0D01*
G01*
X20828355Y-7930667D02*
G75*
G03*
X20828355Y-7930667I-160000J0D01*
G01*
X4637645Y-7930667D02*
G75*
G03*
X4637645Y-7930667I-160000J0D01*
G01*
X16375546Y-17692640D02*
G75*
G03*
X16375546Y-17692640I-160000J0D01*
G01*
X10563000Y-7134600D02*
G75*
G03*
X10563000Y-7134600I-160000J0D01*
G01*
X12133000Y-4433447D02*
G75*
G03*
X12133000Y-4433447I-160000J0D01*
G01*
X16008173Y-14800247D02*
G75*
G03*
X16008173Y-14800247I-160000J0D01*
G01*
X12133000Y-5933447D02*
G75*
G03*
X12133000Y-5933447I-160000J0D01*
G01*
X9090454Y-2576561D02*
G75*
G03*
X9090454Y-2576561I-160000J0D01*
G01*
X13333000Y-5933447D02*
G75*
G03*
X13333000Y-5933447I-160000J0D01*
G01*
X9457827Y-5468953D02*
G75*
G03*
X9457827Y-5468953I-160000J0D01*
G01*
X4637645Y-12338533D02*
G75*
G03*
X4637645Y-12338533I-160000J0D01*
G01*
X7569507Y-12549835D02*
G75*
G03*
X7569507Y-12549835I-160000J0D01*
G01*
X14233000Y-3734600D02*
G75*
G03*
X14233000Y-3734600I-160000J0D01*
G01*
X7569507Y-7719365D02*
G75*
G03*
X7569507Y-7719365I-160000J0D01*
G01*
X13333000Y-4433447D02*
G75*
G03*
X13333000Y-4433447I-160000J0D01*
G01*
X16375546Y-2576561D02*
G75*
G03*
X16375546Y-2576561I-160000J0D01*
G01*
X17896493Y-7719365D02*
G75*
G03*
X17896493Y-7719365I-160000J0D01*
G01*
X11233000Y-3734600D02*
G75*
G03*
X11233000Y-3734600I-160000J0D01*
G01*
D11*
X3921843Y-19356962D02*
X3921843Y-19156962D01*
X3969462Y-19156962D01*
X3998033Y-19166486D01*
X4017081Y-19185534D01*
X4026605Y-19204581D01*
X4036128Y-19242677D01*
X4036128Y-19271248D01*
X4026605Y-19309343D01*
X4017081Y-19328391D01*
X3998033Y-19347439D01*
X3969462Y-19356962D01*
X3921843Y-19356962D01*
X4121843Y-19356962D02*
X4121843Y-19223629D01*
X4121843Y-19261724D02*
X4131367Y-19242677D01*
X4140890Y-19233153D01*
X4159938Y-19223629D01*
X4178986Y-19223629D01*
X4245652Y-19356962D02*
X4245652Y-19223629D01*
X4245652Y-19156962D02*
X4236129Y-19166486D01*
X4245652Y-19176010D01*
X4255176Y-19166486D01*
X4245652Y-19156962D01*
X4245652Y-19176010D01*
X4369462Y-19356962D02*
X4350414Y-19347439D01*
X4340890Y-19328391D01*
X4340890Y-19156962D01*
X4474224Y-19356962D02*
X4455176Y-19347439D01*
X4445652Y-19328391D01*
X4445652Y-19156962D01*
X4702795Y-19356962D02*
X4702795Y-19156962D01*
X4769462Y-19299820D01*
X4836129Y-19156962D01*
X4836129Y-19356962D01*
X5017081Y-19356962D02*
X5017081Y-19252200D01*
X5007557Y-19233153D01*
X4988510Y-19223629D01*
X4950414Y-19223629D01*
X4931367Y-19233153D01*
X5017081Y-19347439D02*
X4998033Y-19356962D01*
X4950414Y-19356962D01*
X4931367Y-19347439D01*
X4921843Y-19328391D01*
X4921843Y-19309343D01*
X4931367Y-19290296D01*
X4950414Y-19280772D01*
X4998033Y-19280772D01*
X5017081Y-19271248D01*
X5112319Y-19223629D02*
X5112319Y-19423629D01*
X5112319Y-19233153D02*
X5131367Y-19223629D01*
X5169462Y-19223629D01*
X5188510Y-19233153D01*
X5198033Y-19242677D01*
X5207557Y-19261724D01*
X5207557Y-19318867D01*
X5198033Y-19337915D01*
X5188510Y-19347439D01*
X5169462Y-19356962D01*
X5131367Y-19356962D01*
X5112319Y-19347439D01*
X5293271Y-19337915D02*
X5302795Y-19347439D01*
X5293271Y-19356962D01*
X5283748Y-19347439D01*
X5293271Y-19337915D01*
X5293271Y-19356962D01*
X5293271Y-19233153D02*
X5302795Y-19242677D01*
X5293271Y-19252200D01*
X5283748Y-19242677D01*
X5293271Y-19233153D01*
X5293271Y-19252200D01*
M02*
