%TF.GenerationSoftware,KiCad,Pcbnew,(6.0.0-0)*%
%TF.CreationDate,2022-03-23T00:11:19+08:00*%
%TF.ProjectId,layer1,6c617965-7231-42e6-9b69-6361645f7063,rev?*%
%TF.SameCoordinates,Original*%
%TF.FileFunction,Soldermask,Bot*%
%TF.FilePolarity,Negative*%
%FSLAX46Y46*%
G04 Gerber Fmt 4.6, Leading zero omitted, Abs format (unit mm)*
G04 Created by KiCad (PCBNEW (6.0.0-0)) date 2022-03-23 00:11:19*
%MOMM*%
%LPD*%
G01*
G04 APERTURE LIST*
G04 Aperture macros list*
%AMRoundRect*
0 Rectangle with rounded corners*
0 $1 Rounding radius*
0 $2 $3 $4 $5 $6 $7 $8 $9 X,Y pos of 4 corners*
0 Add a 4 corners polygon primitive as box body*
4,1,4,$2,$3,$4,$5,$6,$7,$8,$9,$2,$3,0*
0 Add four circle primitives for the rounded corners*
1,1,$1+$1,$2,$3*
1,1,$1+$1,$4,$5*
1,1,$1+$1,$6,$7*
1,1,$1+$1,$8,$9*
0 Add four rect primitives between the rounded corners*
20,1,$1+$1,$2,$3,$4,$5,0*
20,1,$1+$1,$4,$5,$6,$7,0*
20,1,$1+$1,$6,$7,$8,$9,0*
20,1,$1+$1,$8,$9,$2,$3,0*%
%AMRotRect*
0 Rectangle, with rotation*
0 The origin of the aperture is its center*
0 $1 length*
0 $2 width*
0 $3 Rotation angle, in degrees counterclockwise*
0 Add horizontal line*
21,1,$1,$2,0,0,$3*%
G04 Aperture macros list end*
%ADD10C,4.000000*%
%ADD11C,2.082800*%
%ADD12RoundRect,1.500000X1.500000X-1.500000X1.500000X1.500000X-1.500000X1.500000X-1.500000X-1.500000X0*%
%ADD13C,6.000000*%
%ADD14RoundRect,1.500000X-1.500000X1.500000X-1.500000X-1.500000X1.500000X-1.500000X1.500000X1.500000X0*%
%ADD15R,2.200000X2.200000*%
%ADD16O,2.200000X2.200000*%
%ADD17R,1.905000X2.000000*%
%ADD18O,1.905000X2.000000*%
%ADD19R,2.400000X2.400000*%
%ADD20O,2.400000X2.400000*%
%ADD21R,3.800000X3.800000*%
%ADD22RoundRect,1.500000X-1.500000X-1.500000X1.500000X-1.500000X1.500000X1.500000X-1.500000X1.500000X0*%
%ADD23C,2.400000*%
%ADD24RotRect,1.600000X2.400000X22.500000*%
%ADD25RotRect,1.600000X2.400000X326.250000*%
%ADD26RotRect,1.600000X2.400000X247.500000*%
%ADD27RotRect,0.800000X0.800000X331.875000*%
%ADD28RoundRect,0.101600X0.549910X0.499110X-0.549910X0.499110X-0.549910X-0.499110X0.549910X-0.499110X0*%
%ADD29RotRect,0.800000X0.800000X286.875000*%
%ADD30RotRect,1.600000X2.400000X303.750000*%
%ADD31RoundRect,0.101600X-0.549910X-0.499110X0.549910X-0.499110X0.549910X0.499110X-0.549910X0.499110X0*%
%ADD32RotRect,0.800000X0.800000X343.125000*%
%ADD33R,0.800000X0.800000*%
%ADD34R,1.600000X2.400000*%
%ADD35RotRect,0.800000X0.800000X95.625000*%
%ADD36RotRect,1.600000X2.400000X213.750000*%
%ADD37RoundRect,0.150000X-0.150000X0.875000X-0.150000X-0.875000X0.150000X-0.875000X0.150000X0.875000X0*%
%ADD38RotRect,0.800000X0.800000X219.375000*%
%ADD39RotRect,1.600000X2.400000X67.500000*%
%ADD40RotRect,1.600000X2.400000X191.250000*%
%ADD41RotRect,0.800000X0.800000X28.125000*%
%ADD42RotRect,0.800000X0.800000X118.125000*%
%ADD43RotRect,0.800000X0.800000X84.375000*%
%ADD44RotRect,1.600000X2.400000X135.000000*%
%ADD45RotRect,0.800000X0.800000X140.625000*%
%ADD46R,2.400000X1.600000*%
%ADD47RotRect,0.800000X0.800000X208.125000*%
%ADD48RotRect,1.600000X2.400000X157.500000*%
%ADD49RotRect,1.600000X2.400000X348.750000*%
%ADD50RotRect,1.600000X2.400000X202.500000*%
%ADD51RotRect,1.600000X2.400000X225.000000*%
%ADD52RotRect,0.800000X0.800000X298.125000*%
%ADD53RotRect,0.800000X0.800000X230.625000*%
%ADD54RotRect,0.800000X0.800000X196.875000*%
%ADD55RotRect,1.600000X2.400000X56.250000*%
%ADD56RotRect,0.800000X0.800000X185.625000*%
%ADD57RotRect,0.800000X0.800000X253.125000*%
%ADD58RotRect,1.600000X2.400000X112.500000*%
%ADD59RotRect,0.800000X0.800000X309.375000*%
%ADD60RotRect,0.800000X0.800000X163.125000*%
%ADD61RotRect,0.800000X0.800000X275.625000*%
%ADD62RotRect,0.800000X0.800000X5.625000*%
%ADD63RotRect,0.800000X0.800000X354.375000*%
%ADD64RotRect,1.600000X2.400000X33.750000*%
%ADD65RotRect,1.600000X2.400000X168.750000*%
%ADD66RoundRect,0.150000X0.150000X-0.875000X0.150000X0.875000X-0.150000X0.875000X-0.150000X-0.875000X0*%
%ADD67RotRect,0.800000X0.800000X61.875000*%
%ADD68RotRect,1.600000X2.400000X337.500000*%
%ADD69RotRect,1.600000X2.400000X146.250000*%
%ADD70RotRect,0.800000X0.800000X106.875000*%
%ADD71RotRect,0.800000X0.800000X39.375000*%
%ADD72RotRect,1.600000X2.400000X123.750000*%
%ADD73RotRect,1.600000X2.400000X292.500000*%
%ADD74RotRect,0.800000X0.800000X174.375000*%
%ADD75RotRect,1.600000X2.400000X281.250000*%
%ADD76RotRect,0.800000X0.800000X50.625000*%
%ADD77RotRect,0.800000X0.800000X264.375000*%
%ADD78RotRect,1.600000X2.400000X78.750000*%
%ADD79RotRect,1.600000X2.400000X101.250000*%
%ADD80RotRect,0.800000X0.800000X320.625000*%
%ADD81RotRect,1.600000X2.400000X236.250000*%
%ADD82RotRect,1.600000X2.400000X258.750000*%
%ADD83RotRect,1.600000X2.400000X11.250000*%
%ADD84RotRect,0.800000X0.800000X129.375000*%
%ADD85RotRect,0.800000X0.800000X151.875000*%
%ADD86RotRect,0.800000X0.800000X241.875000*%
%ADD87RotRect,1.600000X2.400000X45.000000*%
%ADD88RotRect,0.800000X0.800000X73.125000*%
%ADD89RotRect,0.800000X0.800000X16.875000*%
%ADD90RotRect,1.600000X2.400000X315.000000*%
G04 APERTURE END LIST*
D10*
%TO.C,REF\u002A\u002A*%
X105410000Y-159258000D03*
%TD*%
D11*
%TO.C,SW1*%
X196723000Y-90373200D03*
X196723000Y-93091000D03*
X196723000Y-95808800D03*
%TD*%
D12*
%TO.C,J0*%
X62186320Y-94671000D03*
D13*
X62186320Y-87471000D03*
%TD*%
D14*
%TO.C,J1*%
X62186320Y-107740000D03*
D13*
X62186320Y-114940000D03*
%TD*%
D10*
%TO.C,J3*%
X47244000Y-105625900D03*
%TD*%
D11*
%TO.C,SW2*%
X196638320Y-106828200D03*
X196638320Y-109546000D03*
X196638320Y-112263800D03*
%TD*%
%TO.C,GATE1R1*%
X158129951Y-27198200D03*
X158129951Y-30093800D03*
%TD*%
D15*
%TO.C,SOLENOIDD2*%
X153974800Y-83286600D03*
D16*
X164134800Y-83286600D03*
%TD*%
D11*
%TO.C,MJ1*%
X118237000Y-160525919D03*
X117983000Y-163065919D03*
X118237000Y-165605919D03*
X117983000Y-168145919D03*
X118237000Y-170685919D03*
X117983000Y-173225919D03*
X118237000Y-175765919D03*
X117983000Y-178305919D03*
X118237000Y-180845919D03*
X117983000Y-183385919D03*
X118237000Y-185925919D03*
%TD*%
D17*
%TO.C,SOLENOIDQ2*%
X163906200Y-93502600D03*
D18*
X166446200Y-93502600D03*
X168986200Y-93502600D03*
%TD*%
D19*
%TO.C,SOLENOIDD1*%
X149656800Y-78663800D03*
D20*
X164896800Y-78663800D03*
%TD*%
D21*
%TO.C,BOOSTJ2*%
X181102000Y-86908000D03*
D10*
X181102000Y-91908000D03*
%TD*%
%TO.C,J4*%
X47244000Y-97066100D03*
%TD*%
D21*
%TO.C,BOOSTJ1*%
X70060320Y-108840000D03*
D10*
X70060320Y-113840000D03*
%TD*%
D11*
%TO.C,GATE1D1*%
X93129951Y-30093800D03*
X93129951Y-27198200D03*
%TD*%
D22*
%TO.C,J2*%
X81744000Y-105511600D03*
D13*
X88944000Y-105511600D03*
%TD*%
D11*
%TO.C,BUCKJ1*%
X70060320Y-88210213D03*
X69806320Y-90750213D03*
X70060320Y-93290213D03*
%TD*%
D19*
%TO.C,C4*%
X105410000Y-166497000D03*
D23*
X105410000Y-173997000D03*
%TD*%
D10*
%TO.C,SOLENOIDJ1*%
X187579000Y-91908000D03*
D21*
X187579000Y-86908000D03*
%TD*%
D11*
%TO.C,MJ2*%
X133477000Y-160521000D03*
X133223000Y-163061000D03*
X133477000Y-165601000D03*
X133223000Y-168141000D03*
X133477000Y-170681000D03*
X133223000Y-173221000D03*
X133477000Y-175761000D03*
X133223000Y-178301000D03*
X133477000Y-180841000D03*
X133223000Y-183381000D03*
X133477000Y-185921000D03*
%TD*%
D24*
%TO.C,D27*%
X171573145Y-82357047D03*
X174206201Y-81266399D03*
%TD*%
D25*
%TO.C,D22*%
X166987735Y-128913489D03*
X169357423Y-130496865D03*
%TD*%
D26*
%TO.C,D15*%
X106741079Y-147189113D03*
X105650431Y-149822169D03*
%TD*%
D27*
%TO.C,R7*%
X80042902Y-76934367D03*
X81365784Y-77641463D03*
%TD*%
D28*
%TO.C,R37*%
X116978311Y-64825919D03*
X115281591Y-64825919D03*
%TD*%
D29*
%TO.C,R3*%
X110692043Y-51781267D03*
X111127471Y-53216677D03*
%TD*%
D30*
%TO.C,D20*%
X153297521Y-142603703D03*
X154880897Y-144973391D03*
%TD*%
D31*
%TO.C,C2*%
X134506591Y-128825919D03*
X136203311Y-128825919D03*
%TD*%
D32*
%TO.C,R8*%
X76156614Y-86316696D03*
X77592024Y-86752124D03*
%TD*%
D33*
%TO.C,R35*%
X193129951Y-100598500D03*
X193129951Y-102098500D03*
%TD*%
D34*
%TO.C,D9*%
X76109636Y-101345919D03*
X73259636Y-101345919D03*
%TD*%
D28*
%TO.C,C1*%
X116978311Y-74225919D03*
X115281591Y-74225919D03*
%TD*%
D35*
%TO.C,R18*%
X130807631Y-152909154D03*
X130660605Y-151416376D03*
%TD*%
D36*
%TO.C,D12*%
X84472167Y-128913489D03*
X82102479Y-130496865D03*
%TD*%
D37*
%TO.C,U1*%
X118744951Y-64954604D03*
X120014951Y-64954604D03*
X121284951Y-64954604D03*
X122554951Y-64954604D03*
X123824951Y-64954604D03*
X125094951Y-64954604D03*
X126364951Y-64954604D03*
X127634951Y-64954604D03*
X128904951Y-64954604D03*
X130174951Y-64954604D03*
X131444951Y-64954604D03*
X132714951Y-64954604D03*
X132714951Y-74254604D03*
X131444951Y-74254604D03*
X130174951Y-74254604D03*
X128904951Y-74254604D03*
X127634951Y-74254604D03*
X126364951Y-74254604D03*
X125094951Y-74254604D03*
X123824951Y-74254604D03*
X122554951Y-74254604D03*
X121284951Y-74254604D03*
X120014951Y-74254604D03*
X118744951Y-74254604D03*
%TD*%
D38*
%TO.C,R29*%
X165774985Y-68490494D03*
X164615469Y-69442084D03*
%TD*%
D39*
%TO.C,D31*%
X144718823Y-55502725D03*
X145809471Y-52869669D03*
%TD*%
D40*
%TO.C,D10*%
X77063076Y-111026362D03*
X74267838Y-111582370D03*
%TD*%
D41*
%TO.C,R12*%
X80042902Y-125774841D03*
X81365784Y-125067745D03*
%TD*%
D42*
%TO.C,R20*%
X150150188Y-147041653D03*
X149443092Y-145718771D03*
%TD*%
D34*
%TO.C,D33*%
X53404951Y-101345919D03*
X56254951Y-101345919D03*
%TD*%
D43*
%TO.C,R17*%
X120652271Y-152909154D03*
X120799297Y-151416376D03*
%TD*%
D44*
%TO.C,D5*%
X90643090Y-66259058D03*
X88627836Y-64243804D03*
%TD*%
D45*
%TO.C,R22*%
X165774985Y-134218714D03*
X164615469Y-133267124D03*
%TD*%
D46*
%TO.C,D17*%
X125729951Y-150966234D03*
X125729951Y-153816234D03*
%TD*%
D47*
%TO.C,R28*%
X171417000Y-76934367D03*
X170094118Y-77641463D03*
%TD*%
D48*
%TO.C,D7*%
X79886757Y-82357047D03*
X77253701Y-81266399D03*
%TD*%
D34*
%TO.C,D35*%
X198054951Y-101345919D03*
X195204951Y-101345919D03*
%TD*%
D31*
%TO.C,R38*%
X130081591Y-76962000D03*
X131778311Y-76962000D03*
%TD*%
D49*
%TO.C,D24*%
X174396826Y-111026362D03*
X177192064Y-111582370D03*
%TD*%
D28*
%TO.C,R40*%
X121378311Y-126625919D03*
X119681591Y-126625919D03*
%TD*%
D50*
%TO.C,D11*%
X79886757Y-120334791D03*
X77253701Y-121425439D03*
%TD*%
D51*
%TO.C,D13*%
X90643090Y-136432780D03*
X88627836Y-138448034D03*
%TD*%
D52*
%TO.C,R4*%
X101309714Y-55667555D03*
X102016810Y-56990437D03*
%TD*%
D53*
%TO.C,R30*%
X158594061Y-61309570D03*
X157642471Y-62469086D03*
%TD*%
D31*
%TO.C,R39*%
X134481591Y-138225919D03*
X136178311Y-138225919D03*
%TD*%
D54*
%TO.C,R27*%
X175303288Y-86316696D03*
X173867878Y-86752124D03*
%TD*%
D46*
%TO.C,D34*%
X125729951Y-178671000D03*
X125729951Y-175821000D03*
%TD*%
D55*
%TO.C,D30*%
X153297521Y-60088135D03*
X154880897Y-57718447D03*
%TD*%
D56*
%TO.C,R26*%
X177284501Y-96276924D03*
X175791723Y-96423950D03*
%TD*%
D57*
%TO.C,R32*%
X140767859Y-51781267D03*
X140332431Y-53216677D03*
%TD*%
D58*
%TO.C,D3*%
X106741079Y-55502725D03*
X105650431Y-52869669D03*
%TD*%
D46*
%TO.C,D1*%
X125729951Y-51725604D03*
X125729951Y-48875604D03*
%TD*%
D59*
%TO.C,R5*%
X92865841Y-61309570D03*
X93817431Y-62469086D03*
%TD*%
D60*
%TO.C,R24*%
X175303288Y-116392512D03*
X173867878Y-115957084D03*
%TD*%
D61*
%TO.C,R2*%
X120652271Y-49800054D03*
X120799297Y-51292832D03*
%TD*%
D62*
%TO.C,R10*%
X74175401Y-106432284D03*
X75668179Y-106285258D03*
%TD*%
D63*
%TO.C,R9*%
X74175401Y-96276924D03*
X75668179Y-96423950D03*
%TD*%
D64*
%TO.C,D28*%
X166987735Y-73778349D03*
X169357423Y-72194973D03*
%TD*%
D65*
%TO.C,D8*%
X77063076Y-91665476D03*
X74267838Y-91109468D03*
%TD*%
D34*
%TO.C,D25*%
X175350266Y-101345919D03*
X178200266Y-101345919D03*
%TD*%
D66*
%TO.C,U2*%
X132714951Y-138236335D03*
X131444951Y-138236335D03*
X130174951Y-138236335D03*
X128904951Y-138236335D03*
X127634951Y-138236335D03*
X126364951Y-138236335D03*
X125094951Y-138236335D03*
X123824951Y-138236335D03*
X122554951Y-138236335D03*
X121284951Y-138236335D03*
X120014951Y-138236335D03*
X118744951Y-138236335D03*
X118744951Y-128936335D03*
X120014951Y-128936335D03*
X121284951Y-128936335D03*
X122554951Y-128936335D03*
X123824951Y-128936335D03*
X125094951Y-128936335D03*
X126364951Y-128936335D03*
X127634951Y-128936335D03*
X128904951Y-128936335D03*
X130174951Y-128936335D03*
X131444951Y-128936335D03*
X132714951Y-128936335D03*
%TD*%
D67*
%TO.C,R15*%
X101309714Y-147041653D03*
X102016810Y-145718771D03*
%TD*%
D68*
%TO.C,D23*%
X171573145Y-120334791D03*
X174206201Y-121425439D03*
%TD*%
D33*
%TO.C,R34*%
X126479951Y-173746000D03*
X124979951Y-173746000D03*
%TD*%
D69*
%TO.C,D6*%
X84472167Y-73778349D03*
X82102479Y-72194973D03*
%TD*%
D70*
%TO.C,R19*%
X140767859Y-150927941D03*
X140332431Y-149492531D03*
%TD*%
D71*
%TO.C,R13*%
X85684917Y-134218714D03*
X86844433Y-133267124D03*
%TD*%
D72*
%TO.C,D4*%
X98162381Y-60088135D03*
X96579005Y-57718447D03*
%TD*%
D73*
%TO.C,D19*%
X144718823Y-147189113D03*
X145809471Y-149822169D03*
%TD*%
D74*
%TO.C,R25*%
X177284501Y-106432284D03*
X175791723Y-106285258D03*
%TD*%
D75*
%TO.C,D18*%
X135410394Y-150012794D03*
X135966402Y-152808032D03*
%TD*%
D33*
%TO.C,R33*%
X58329951Y-100598500D03*
X58329951Y-102098500D03*
%TD*%
D76*
%TO.C,R14*%
X92865841Y-141399638D03*
X93817431Y-140240122D03*
%TD*%
D77*
%TO.C,R1*%
X130807631Y-49800054D03*
X130660605Y-51292832D03*
%TD*%
D78*
%TO.C,D32*%
X135410394Y-52679044D03*
X135966402Y-49883806D03*
%TD*%
D79*
%TO.C,D2*%
X116049508Y-52679044D03*
X115493500Y-49883806D03*
%TD*%
D80*
%TO.C,R6*%
X85684917Y-68490494D03*
X86844433Y-69442084D03*
%TD*%
D81*
%TO.C,D14*%
X98162381Y-142603703D03*
X96579005Y-144973391D03*
%TD*%
D82*
%TO.C,D16*%
X116049508Y-150012794D03*
X115493500Y-152808032D03*
%TD*%
D83*
%TO.C,D26*%
X174396826Y-91665476D03*
X177192064Y-91109468D03*
%TD*%
D84*
%TO.C,R21*%
X158594061Y-141399638D03*
X157642471Y-140240122D03*
%TD*%
D85*
%TO.C,R23*%
X171417000Y-125774841D03*
X170094118Y-125067745D03*
%TD*%
D86*
%TO.C,R31*%
X150150188Y-55667555D03*
X149443092Y-56990437D03*
%TD*%
D87*
%TO.C,D29*%
X160816812Y-66259058D03*
X162832066Y-64243804D03*
%TD*%
D88*
%TO.C,R16*%
X110692043Y-150927941D03*
X111127471Y-149492531D03*
%TD*%
D89*
%TO.C,R11*%
X76156614Y-116392512D03*
X77592024Y-115957084D03*
%TD*%
D90*
%TO.C,D21*%
X160816812Y-136432780D03*
X162832066Y-138448034D03*
%TD*%
M02*
