%TF.GenerationSoftware,KiCad,Pcbnew,(6.0.0-0)*%
%TF.CreationDate,2022-03-23T00:11:19+08:00*%
%TF.ProjectId,layer1,6c617965-7231-42e6-9b69-6361645f7063,rev?*%
%TF.SameCoordinates,Original*%
%TF.FileFunction,Legend,Bot*%
%TF.FilePolarity,Positive*%
%FSLAX46Y46*%
G04 Gerber Fmt 4.6, Leading zero omitted, Abs format (unit mm)*
G04 Created by KiCad (PCBNEW (6.0.0-0)) date 2022-03-23 00:11:19*
%MOMM*%
%LPD*%
G01*
G04 APERTURE LIST*
G04 Aperture macros list*
%AMRoundRect*
0 Rectangle with rounded corners*
0 $1 Rounding radius*
0 $2 $3 $4 $5 $6 $7 $8 $9 X,Y pos of 4 corners*
0 Add a 4 corners polygon primitive as box body*
4,1,4,$2,$3,$4,$5,$6,$7,$8,$9,$2,$3,0*
0 Add four circle primitives for the rounded corners*
1,1,$1+$1,$2,$3*
1,1,$1+$1,$4,$5*
1,1,$1+$1,$6,$7*
1,1,$1+$1,$8,$9*
0 Add four rect primitives between the rounded corners*
20,1,$1+$1,$2,$3,$4,$5,0*
20,1,$1+$1,$4,$5,$6,$7,0*
20,1,$1+$1,$6,$7,$8,$9,0*
20,1,$1+$1,$8,$9,$2,$3,0*%
%AMRotRect*
0 Rectangle, with rotation*
0 The origin of the aperture is its center*
0 $1 length*
0 $2 width*
0 $3 Rotation angle, in degrees counterclockwise*
0 Add horizontal line*
21,1,$1,$2,0,0,$3*%
G04 Aperture macros list end*
%ADD10C,0.270000*%
%ADD11C,0.150000*%
%ADD12C,0.127000*%
%ADD13C,0.200000*%
%ADD14C,0.066040*%
%ADD15C,0.120000*%
%ADD16C,4.000000*%
%ADD17C,2.082800*%
%ADD18RoundRect,1.500000X1.500000X-1.500000X1.500000X1.500000X-1.500000X1.500000X-1.500000X-1.500000X0*%
%ADD19C,6.000000*%
%ADD20RoundRect,1.500000X-1.500000X1.500000X-1.500000X-1.500000X1.500000X-1.500000X1.500000X1.500000X0*%
%ADD21R,2.200000X2.200000*%
%ADD22O,2.200000X2.200000*%
%ADD23R,1.905000X2.000000*%
%ADD24O,1.905000X2.000000*%
%ADD25R,2.400000X2.400000*%
%ADD26O,2.400000X2.400000*%
%ADD27R,3.800000X3.800000*%
%ADD28RoundRect,1.500000X-1.500000X-1.500000X1.500000X-1.500000X1.500000X1.500000X-1.500000X1.500000X0*%
%ADD29C,2.400000*%
%ADD30RotRect,1.600000X2.400000X22.500000*%
%ADD31RotRect,1.600000X2.400000X326.250000*%
%ADD32RotRect,1.600000X2.400000X247.500000*%
%ADD33RotRect,0.800000X0.800000X331.875000*%
%ADD34RoundRect,0.101600X0.549910X0.499110X-0.549910X0.499110X-0.549910X-0.499110X0.549910X-0.499110X0*%
%ADD35RotRect,0.800000X0.800000X286.875000*%
%ADD36RotRect,1.600000X2.400000X303.750000*%
%ADD37RoundRect,0.101600X-0.549910X-0.499110X0.549910X-0.499110X0.549910X0.499110X-0.549910X0.499110X0*%
%ADD38RotRect,0.800000X0.800000X343.125000*%
%ADD39R,0.800000X0.800000*%
%ADD40R,1.600000X2.400000*%
%ADD41RotRect,0.800000X0.800000X95.625000*%
%ADD42RotRect,1.600000X2.400000X213.750000*%
%ADD43RoundRect,0.150000X-0.150000X0.875000X-0.150000X-0.875000X0.150000X-0.875000X0.150000X0.875000X0*%
%ADD44RotRect,0.800000X0.800000X219.375000*%
%ADD45RotRect,1.600000X2.400000X67.500000*%
%ADD46RotRect,1.600000X2.400000X191.250000*%
%ADD47RotRect,0.800000X0.800000X28.125000*%
%ADD48RotRect,0.800000X0.800000X118.125000*%
%ADD49RotRect,0.800000X0.800000X84.375000*%
%ADD50RotRect,1.600000X2.400000X135.000000*%
%ADD51RotRect,0.800000X0.800000X140.625000*%
%ADD52R,2.400000X1.600000*%
%ADD53RotRect,0.800000X0.800000X208.125000*%
%ADD54RotRect,1.600000X2.400000X157.500000*%
%ADD55RotRect,1.600000X2.400000X348.750000*%
%ADD56RotRect,1.600000X2.400000X202.500000*%
%ADD57RotRect,1.600000X2.400000X225.000000*%
%ADD58RotRect,0.800000X0.800000X298.125000*%
%ADD59RotRect,0.800000X0.800000X230.625000*%
%ADD60RotRect,0.800000X0.800000X196.875000*%
%ADD61RotRect,1.600000X2.400000X56.250000*%
%ADD62RotRect,0.800000X0.800000X185.625000*%
%ADD63RotRect,0.800000X0.800000X253.125000*%
%ADD64RotRect,1.600000X2.400000X112.500000*%
%ADD65RotRect,0.800000X0.800000X309.375000*%
%ADD66RotRect,0.800000X0.800000X163.125000*%
%ADD67RotRect,0.800000X0.800000X275.625000*%
%ADD68RotRect,0.800000X0.800000X5.625000*%
%ADD69RotRect,0.800000X0.800000X354.375000*%
%ADD70RotRect,1.600000X2.400000X33.750000*%
%ADD71RotRect,1.600000X2.400000X168.750000*%
%ADD72RoundRect,0.150000X0.150000X-0.875000X0.150000X0.875000X-0.150000X0.875000X-0.150000X-0.875000X0*%
%ADD73RotRect,0.800000X0.800000X61.875000*%
%ADD74RotRect,1.600000X2.400000X337.500000*%
%ADD75RotRect,1.600000X2.400000X146.250000*%
%ADD76RotRect,0.800000X0.800000X106.875000*%
%ADD77RotRect,0.800000X0.800000X39.375000*%
%ADD78RotRect,1.600000X2.400000X123.750000*%
%ADD79RotRect,1.600000X2.400000X292.500000*%
%ADD80RotRect,0.800000X0.800000X174.375000*%
%ADD81RotRect,1.600000X2.400000X281.250000*%
%ADD82RotRect,0.800000X0.800000X50.625000*%
%ADD83RotRect,0.800000X0.800000X264.375000*%
%ADD84RotRect,1.600000X2.400000X78.750000*%
%ADD85RotRect,1.600000X2.400000X101.250000*%
%ADD86RotRect,0.800000X0.800000X320.625000*%
%ADD87RotRect,1.600000X2.400000X236.250000*%
%ADD88RotRect,1.600000X2.400000X258.750000*%
%ADD89RotRect,1.600000X2.400000X11.250000*%
%ADD90RotRect,0.800000X0.800000X129.375000*%
%ADD91RotRect,0.800000X0.800000X151.875000*%
%ADD92RotRect,0.800000X0.800000X241.875000*%
%ADD93RotRect,1.600000X2.400000X45.000000*%
%ADD94RotRect,0.800000X0.800000X73.125000*%
%ADD95RotRect,0.800000X0.800000X16.875000*%
%ADD96RotRect,1.600000X2.400000X315.000000*%
G04 APERTURE END LIST*
D10*
X123653256Y-86528664D02*
X123683868Y-86824182D01*
X123775714Y-87078479D01*
X123947488Y-87310577D01*
X123966780Y-87329203D01*
X123653256Y-85972563D02*
X123653256Y-86528664D01*
X124004428Y-86390648D02*
X123808032Y-86185213D01*
X123669945Y-85972563D01*
X123669945Y-85972563D02*
X123653256Y-85972563D01*
D11*
%TO.C,D27*%
X175156661Y-84111635D02*
X174773977Y-83187755D01*
X174554006Y-83278871D01*
X174440246Y-83377534D01*
X174388704Y-83501968D01*
X174381156Y-83608180D01*
X174410054Y-83802380D01*
X174464723Y-83934363D01*
X174581609Y-84092117D01*
X174662049Y-84161882D01*
X174786484Y-84213425D01*
X174936690Y-84202750D01*
X175156661Y-84111635D01*
X173930538Y-83640204D02*
X173868321Y-83614433D01*
X173762109Y-83606885D01*
X173542138Y-83698000D01*
X173472373Y-83778440D01*
X173446601Y-83840658D01*
X173439053Y-83946869D01*
X173475499Y-84034858D01*
X173574162Y-84148617D01*
X174320770Y-84457872D01*
X173748844Y-84694772D01*
X173058201Y-83898453D02*
X172442282Y-84153576D01*
X173220913Y-84913448D01*
%TO.C,D22*%
X166003118Y-130766347D02*
X165447548Y-131597817D01*
X165645517Y-131730096D01*
X165790754Y-131769869D01*
X165922853Y-131743593D01*
X166015358Y-131690861D01*
X166160775Y-131558942D01*
X166240142Y-131440160D01*
X166306371Y-131255329D01*
X166319689Y-131149686D01*
X166293413Y-131017587D01*
X166201087Y-130898626D01*
X166003118Y-130766347D01*
X166292335Y-132047744D02*
X166305473Y-132113794D01*
X166358205Y-132206299D01*
X166556174Y-132338577D01*
X166661817Y-132351895D01*
X166727867Y-132338757D01*
X166820372Y-132286025D01*
X166873284Y-132206838D01*
X166913057Y-132061600D01*
X166755400Y-131269006D01*
X167270120Y-131612931D01*
X167084211Y-132576859D02*
X167097349Y-132642908D01*
X167150081Y-132735413D01*
X167348050Y-132867692D01*
X167453693Y-132881010D01*
X167519743Y-132867872D01*
X167612248Y-132815140D01*
X167665159Y-132735952D01*
X167704933Y-132590715D01*
X167547276Y-131798121D01*
X168061995Y-132142045D01*
%TO.C,D15*%
X104731733Y-146584889D02*
X103807853Y-146202206D01*
X103716738Y-146422177D01*
X103706064Y-146572383D01*
X103757606Y-146696818D01*
X103827372Y-146777258D01*
X103985126Y-146894144D01*
X104117108Y-146948813D01*
X104311308Y-146977711D01*
X104417520Y-146970163D01*
X104541955Y-146918621D01*
X104640618Y-146804861D01*
X104731733Y-146584889D01*
X104148596Y-147992706D02*
X104367273Y-147464775D01*
X104257934Y-147728740D02*
X103334055Y-147346057D01*
X103502484Y-147312737D01*
X103626918Y-147261195D01*
X103707359Y-147191429D01*
X102878479Y-148445913D02*
X103060710Y-148005971D01*
X103518875Y-148144207D01*
X103456658Y-148169978D01*
X103376218Y-148239744D01*
X103285103Y-148459715D01*
X103292651Y-148565926D01*
X103318422Y-148628144D01*
X103388188Y-148708584D01*
X103608159Y-148799699D01*
X103714370Y-148792151D01*
X103776588Y-148766380D01*
X103857028Y-148696614D01*
X103948143Y-148476643D01*
X103940595Y-148370431D01*
X103914824Y-148308214D01*
%TO.C,R7*%
X80089382Y-78186165D02*
X79757576Y-78354376D01*
X79766851Y-78013768D02*
X79465157Y-78578198D01*
X79680178Y-78693129D01*
X79748300Y-78694984D01*
X79789544Y-78682473D01*
X79845154Y-78643084D01*
X79888253Y-78562451D01*
X79890108Y-78494330D01*
X79877597Y-78453086D01*
X79838208Y-78397475D01*
X79623188Y-78282544D01*
X79975832Y-78851159D02*
X80352118Y-79052288D01*
X80411914Y-78358561D01*
D12*
%TO.C,R37*%
X116521836Y-63831690D02*
X116725036Y-63541404D01*
X116870179Y-63831690D02*
X116870179Y-63222090D01*
X116637951Y-63222090D01*
X116579893Y-63251119D01*
X116550865Y-63280147D01*
X116521836Y-63338204D01*
X116521836Y-63425290D01*
X116550865Y-63483347D01*
X116579893Y-63512376D01*
X116637951Y-63541404D01*
X116870179Y-63541404D01*
X116318636Y-63222090D02*
X115941265Y-63222090D01*
X116144465Y-63454319D01*
X116057379Y-63454319D01*
X115999322Y-63483347D01*
X115970293Y-63512376D01*
X115941265Y-63570433D01*
X115941265Y-63715576D01*
X115970293Y-63773633D01*
X115999322Y-63802661D01*
X116057379Y-63831690D01*
X116231551Y-63831690D01*
X116289608Y-63802661D01*
X116318636Y-63773633D01*
X115738065Y-63222090D02*
X115331665Y-63222090D01*
X115592922Y-63831690D01*
X116579893Y-65762090D02*
X116202522Y-65762090D01*
X116405722Y-65994319D01*
X116318636Y-65994319D01*
X116260579Y-66023347D01*
X116231551Y-66052376D01*
X116202522Y-66110433D01*
X116202522Y-66255576D01*
X116231551Y-66313633D01*
X116260579Y-66342661D01*
X116318636Y-66371690D01*
X116492808Y-66371690D01*
X116550865Y-66342661D01*
X116579893Y-66313633D01*
X115941265Y-66371690D02*
X115941265Y-65762090D01*
X115883208Y-66139461D02*
X115709036Y-66371690D01*
X115709036Y-65965290D02*
X115941265Y-66197519D01*
D11*
%TO.C,R3*%
X109839756Y-52699289D02*
X109486189Y-52583609D01*
X109733595Y-52349322D02*
X109121153Y-52535104D01*
X109191927Y-52768415D01*
X109238784Y-52817896D01*
X109276795Y-52838213D01*
X109343970Y-52849684D01*
X109431461Y-52823143D01*
X109480942Y-52776286D01*
X109501259Y-52738275D01*
X109512730Y-52671101D01*
X109441956Y-52437789D01*
X109289241Y-53089218D02*
X109404249Y-53468349D01*
X109575633Y-53193427D01*
X109602174Y-53280919D01*
X109649031Y-53330400D01*
X109687042Y-53350717D01*
X109754216Y-53362187D01*
X109900036Y-53317954D01*
X109949517Y-53271096D01*
X109969834Y-53233085D01*
X109981304Y-53165911D01*
X109928224Y-52990927D01*
X109881366Y-52941446D01*
X109843355Y-52921129D01*
%TO.C,D20*%
X151678796Y-143938723D02*
X150847326Y-144494294D01*
X150979605Y-144692263D01*
X151098565Y-144784588D01*
X151230665Y-144810864D01*
X151336308Y-144797547D01*
X151521139Y-144731318D01*
X151639920Y-144651950D01*
X151771840Y-144506534D01*
X151824571Y-144414029D01*
X151850848Y-144281929D01*
X151811074Y-144136692D01*
X151678796Y-143938723D01*
X151455628Y-145233258D02*
X151442490Y-145299308D01*
X151455808Y-145404951D01*
X151588086Y-145602920D01*
X151680591Y-145655652D01*
X151746641Y-145668790D01*
X151852284Y-145655472D01*
X151931472Y-145602561D01*
X152023798Y-145483600D01*
X152181454Y-144691005D01*
X152525379Y-145205725D01*
X152037834Y-146276014D02*
X152090745Y-146355202D01*
X152183250Y-146407934D01*
X152249300Y-146421072D01*
X152354943Y-146407754D01*
X152539774Y-146341525D01*
X152737743Y-146209246D01*
X152869662Y-146063830D01*
X152922394Y-145971324D01*
X152935532Y-145905275D01*
X152922215Y-145799632D01*
X152869303Y-145720444D01*
X152776798Y-145667712D01*
X152710748Y-145654574D01*
X152605105Y-145667892D01*
X152420274Y-145734121D01*
X152222305Y-145866400D01*
X152090386Y-146011816D01*
X152037654Y-146104321D01*
X152024516Y-146170371D01*
X152037834Y-146276014D01*
D12*
%TO.C,C2*%
X135456551Y-130313633D02*
X135485579Y-130342661D01*
X135572665Y-130371690D01*
X135630722Y-130371690D01*
X135717808Y-130342661D01*
X135775865Y-130284604D01*
X135804893Y-130226547D01*
X135833922Y-130110433D01*
X135833922Y-130023347D01*
X135804893Y-129907233D01*
X135775865Y-129849176D01*
X135717808Y-129791119D01*
X135630722Y-129762090D01*
X135572665Y-129762090D01*
X135485579Y-129791119D01*
X135456551Y-129820147D01*
X135224322Y-129820147D02*
X135195293Y-129791119D01*
X135137236Y-129762090D01*
X134992093Y-129762090D01*
X134934036Y-129791119D01*
X134905008Y-129820147D01*
X134875979Y-129878204D01*
X134875979Y-129936261D01*
X134905008Y-130023347D01*
X135253351Y-130371690D01*
X134875979Y-130371690D01*
X136399979Y-127222090D02*
X136341922Y-127222090D01*
X136283865Y-127251119D01*
X136254836Y-127280147D01*
X136225808Y-127338204D01*
X136196779Y-127454319D01*
X136196779Y-127599461D01*
X136225808Y-127715576D01*
X136254836Y-127773633D01*
X136283865Y-127802661D01*
X136341922Y-127831690D01*
X136399979Y-127831690D01*
X136458036Y-127802661D01*
X136487065Y-127773633D01*
X136516093Y-127715576D01*
X136545122Y-127599461D01*
X136545122Y-127454319D01*
X136516093Y-127338204D01*
X136487065Y-127280147D01*
X136458036Y-127251119D01*
X136399979Y-127222090D01*
X135935522Y-127773633D02*
X135906493Y-127802661D01*
X135935522Y-127831690D01*
X135964551Y-127802661D01*
X135935522Y-127773633D01*
X135935522Y-127831690D01*
X135325922Y-127831690D02*
X135674265Y-127831690D01*
X135500093Y-127831690D02*
X135500093Y-127222090D01*
X135558151Y-127309176D01*
X135616208Y-127367233D01*
X135674265Y-127396261D01*
X135064665Y-127425290D02*
X135064665Y-128034890D01*
X134774379Y-127744604D02*
X134745351Y-127802661D01*
X134687293Y-127831690D01*
X135064665Y-127744604D02*
X135035636Y-127802661D01*
X134977579Y-127831690D01*
X134861465Y-127831690D01*
X134803408Y-127802661D01*
X134774379Y-127744604D01*
X134774379Y-127425290D01*
X134222836Y-127512376D02*
X134426036Y-127512376D01*
X134426036Y-127831690D02*
X134426036Y-127222090D01*
X134135751Y-127222090D01*
D11*
%TO.C,R8*%
X76446415Y-87535373D02*
X76153800Y-87765084D01*
X76096448Y-87429212D02*
X75910666Y-88041653D01*
X76143977Y-88112428D01*
X76211152Y-88100957D01*
X76249163Y-88080640D01*
X76296020Y-88031159D01*
X76322560Y-87943667D01*
X76311090Y-87876493D01*
X76290773Y-87838482D01*
X76241292Y-87791625D01*
X76007981Y-87720850D01*
X76690221Y-87991501D02*
X76623046Y-88002971D01*
X76585035Y-88023288D01*
X76538178Y-88072769D01*
X76529331Y-88101933D01*
X76540802Y-88169108D01*
X76561119Y-88207118D01*
X76610600Y-88253976D01*
X76727255Y-88289363D01*
X76794430Y-88277893D01*
X76832441Y-88257575D01*
X76879298Y-88208094D01*
X76888145Y-88178931D01*
X76876674Y-88111756D01*
X76856357Y-88073745D01*
X76806876Y-88026888D01*
X76690221Y-87991501D01*
X76640740Y-87944643D01*
X76620423Y-87906633D01*
X76608952Y-87839458D01*
X76644339Y-87722803D01*
X76691197Y-87673322D01*
X76729207Y-87653004D01*
X76796382Y-87641534D01*
X76913038Y-87676921D01*
X76962519Y-87723779D01*
X76982836Y-87761789D01*
X76994306Y-87828964D01*
X76958919Y-87945619D01*
X76912062Y-87995100D01*
X76874051Y-88015418D01*
X76806876Y-88026888D01*
%TO.C,R35*%
X192013074Y-100969071D02*
X191708312Y-100755738D01*
X192013074Y-100603357D02*
X191373074Y-100603357D01*
X191373074Y-100847166D01*
X191403551Y-100908119D01*
X191434027Y-100938595D01*
X191494979Y-100969071D01*
X191586408Y-100969071D01*
X191647360Y-100938595D01*
X191677836Y-100908119D01*
X191708312Y-100847166D01*
X191708312Y-100603357D01*
X191373074Y-101182404D02*
X191373074Y-101578595D01*
X191616884Y-101365261D01*
X191616884Y-101456690D01*
X191647360Y-101517642D01*
X191677836Y-101548119D01*
X191738789Y-101578595D01*
X191891170Y-101578595D01*
X191952122Y-101548119D01*
X191982598Y-101517642D01*
X192013074Y-101456690D01*
X192013074Y-101273833D01*
X191982598Y-101212880D01*
X191952122Y-101182404D01*
X191373074Y-102157642D02*
X191373074Y-101852880D01*
X191677836Y-101822404D01*
X191647360Y-101852880D01*
X191616884Y-101913833D01*
X191616884Y-102066214D01*
X191647360Y-102127166D01*
X191677836Y-102157642D01*
X191738789Y-102188119D01*
X191891170Y-102188119D01*
X191952122Y-102157642D01*
X191982598Y-102127166D01*
X192013074Y-102066214D01*
X192013074Y-101913833D01*
X191982598Y-101852880D01*
X191952122Y-101822404D01*
%TO.C,D9*%
X75422731Y-99258299D02*
X75422731Y-98258299D01*
X75184636Y-98258299D01*
X75041778Y-98305919D01*
X74946540Y-98401157D01*
X74898921Y-98496395D01*
X74851302Y-98686871D01*
X74851302Y-98829728D01*
X74898921Y-99020204D01*
X74946540Y-99115442D01*
X75041778Y-99210680D01*
X75184636Y-99258299D01*
X75422731Y-99258299D01*
X74375112Y-99258299D02*
X74184636Y-99258299D01*
X74089397Y-99210680D01*
X74041778Y-99163061D01*
X73946540Y-99020204D01*
X73898921Y-98829728D01*
X73898921Y-98448776D01*
X73946540Y-98353538D01*
X73994159Y-98305919D01*
X74089397Y-98258299D01*
X74279874Y-98258299D01*
X74375112Y-98305919D01*
X74422731Y-98353538D01*
X74470350Y-98448776D01*
X74470350Y-98686871D01*
X74422731Y-98782109D01*
X74375112Y-98829728D01*
X74279874Y-98877347D01*
X74089397Y-98877347D01*
X73994159Y-98829728D01*
X73946540Y-98782109D01*
X73898921Y-98686871D01*
D12*
%TO.C,C1*%
X116231551Y-73173633D02*
X116260579Y-73202661D01*
X116347665Y-73231690D01*
X116405722Y-73231690D01*
X116492808Y-73202661D01*
X116550865Y-73144604D01*
X116579893Y-73086547D01*
X116608922Y-72970433D01*
X116608922Y-72883347D01*
X116579893Y-72767233D01*
X116550865Y-72709176D01*
X116492808Y-72651119D01*
X116405722Y-72622090D01*
X116347665Y-72622090D01*
X116260579Y-72651119D01*
X116231551Y-72680147D01*
X115650979Y-73231690D02*
X115999322Y-73231690D01*
X115825151Y-73231690D02*
X115825151Y-72622090D01*
X115883208Y-72709176D01*
X115941265Y-72767233D01*
X115999322Y-72796261D01*
X117174979Y-75162090D02*
X117116922Y-75162090D01*
X117058865Y-75191119D01*
X117029836Y-75220147D01*
X117000808Y-75278204D01*
X116971779Y-75394319D01*
X116971779Y-75539461D01*
X117000808Y-75655576D01*
X117029836Y-75713633D01*
X117058865Y-75742661D01*
X117116922Y-75771690D01*
X117174979Y-75771690D01*
X117233036Y-75742661D01*
X117262065Y-75713633D01*
X117291093Y-75655576D01*
X117320122Y-75539461D01*
X117320122Y-75394319D01*
X117291093Y-75278204D01*
X117262065Y-75220147D01*
X117233036Y-75191119D01*
X117174979Y-75162090D01*
X116710522Y-75713633D02*
X116681493Y-75742661D01*
X116710522Y-75771690D01*
X116739551Y-75742661D01*
X116710522Y-75713633D01*
X116710522Y-75771690D01*
X116100922Y-75771690D02*
X116449265Y-75771690D01*
X116275093Y-75771690D02*
X116275093Y-75162090D01*
X116333151Y-75249176D01*
X116391208Y-75307233D01*
X116449265Y-75336261D01*
X115839665Y-75365290D02*
X115839665Y-75974890D01*
X115549379Y-75684604D02*
X115520351Y-75742661D01*
X115462293Y-75771690D01*
X115839665Y-75684604D02*
X115810636Y-75742661D01*
X115752579Y-75771690D01*
X115636465Y-75771690D01*
X115578408Y-75742661D01*
X115549379Y-75684604D01*
X115549379Y-75365290D01*
X114997836Y-75452376D02*
X115201036Y-75452376D01*
X115201036Y-75771690D02*
X115201036Y-75162090D01*
X114910751Y-75162090D01*
D11*
%TO.C,R18*%
X132348116Y-151602687D02*
X132023911Y-151420253D01*
X132312270Y-151238734D02*
X131675352Y-151301464D01*
X131699249Y-151544100D01*
X131735553Y-151601772D01*
X131768870Y-151629114D01*
X131832516Y-151653469D01*
X131923504Y-151644507D01*
X131981176Y-151608204D01*
X132008518Y-151574887D01*
X132032873Y-151511241D01*
X132008975Y-151268605D01*
X132407860Y-152209276D02*
X132372014Y-151845322D01*
X132389937Y-152027299D02*
X131753019Y-152090030D01*
X131838032Y-152020409D01*
X131892717Y-151953776D01*
X131917072Y-151890130D01*
X132079753Y-152609075D02*
X132043449Y-152551403D01*
X132010132Y-152524061D01*
X131946486Y-152499706D01*
X131916157Y-152502693D01*
X131858485Y-152538997D01*
X131831143Y-152572314D01*
X131806788Y-152635960D01*
X131818737Y-152757278D01*
X131855041Y-152814949D01*
X131888357Y-152842291D01*
X131952003Y-152866647D01*
X131982333Y-152863659D01*
X132040004Y-152827356D01*
X132067347Y-152794039D01*
X132091702Y-152730393D01*
X132079753Y-152609075D01*
X132104108Y-152545429D01*
X132131450Y-152512112D01*
X132189122Y-152475809D01*
X132310440Y-152463860D01*
X132374086Y-152488215D01*
X132407402Y-152515557D01*
X132443706Y-152573229D01*
X132455655Y-152694547D01*
X132431300Y-152758193D01*
X132403958Y-152791509D01*
X132346286Y-152827813D01*
X132224968Y-152839762D01*
X132161322Y-152815407D01*
X132128005Y-152788065D01*
X132091702Y-152730393D01*
%TO.C,D12*%
X83137146Y-127294764D02*
X82581575Y-126463294D01*
X82383606Y-126595573D01*
X82291281Y-126714533D01*
X82265005Y-126846633D01*
X82278322Y-126952276D01*
X82344551Y-127137107D01*
X82423919Y-127255888D01*
X82569335Y-127387808D01*
X82661840Y-127440539D01*
X82793940Y-127466816D01*
X82939177Y-127427042D01*
X83137146Y-127294764D01*
X81870144Y-128141347D02*
X82345270Y-127823878D01*
X82107707Y-127982612D02*
X81552137Y-127151143D01*
X81710692Y-127217013D01*
X81842791Y-127243289D01*
X81948434Y-127229971D01*
X81050735Y-127600711D02*
X80984686Y-127587572D01*
X80879042Y-127600890D01*
X80681073Y-127733169D01*
X80628342Y-127825674D01*
X80615203Y-127891723D01*
X80628521Y-127997367D01*
X80681433Y-128076554D01*
X80800394Y-128168880D01*
X81592988Y-128326537D01*
X81078268Y-128670461D01*
%TO.C,U1*%
X116532331Y-68842699D02*
X117341855Y-68842699D01*
X117437093Y-68890318D01*
X117484712Y-68937937D01*
X117532331Y-69033175D01*
X117532331Y-69223651D01*
X117484712Y-69318889D01*
X117437093Y-69366508D01*
X117341855Y-69414127D01*
X116532331Y-69414127D01*
X117532331Y-70414127D02*
X117532331Y-69842699D01*
X117532331Y-70128413D02*
X116532331Y-70128413D01*
X116675189Y-70033175D01*
X116770427Y-69937937D01*
X116818046Y-69842699D01*
%TO.C,R29*%
X164779990Y-67862225D02*
X164751560Y-67491304D01*
X165062691Y-67630218D02*
X164656679Y-67135492D01*
X164468212Y-67290163D01*
X164440429Y-67352389D01*
X164436205Y-67395281D01*
X164451314Y-67461732D01*
X164509316Y-67532407D01*
X164571542Y-67560190D01*
X164614434Y-67564415D01*
X164680885Y-67549305D01*
X164869352Y-67394634D01*
X164224179Y-67569286D02*
X164181287Y-67565062D01*
X164114836Y-67580171D01*
X163997044Y-67676840D01*
X163969261Y-67739067D01*
X163965036Y-67781959D01*
X163980146Y-67848410D01*
X164018813Y-67895527D01*
X164100373Y-67946868D01*
X164615081Y-67997562D01*
X164308822Y-68248903D01*
X164073238Y-68442242D02*
X163979004Y-68519577D01*
X163912553Y-68534687D01*
X163869661Y-68530462D01*
X163764542Y-68498455D01*
X163663648Y-68423555D01*
X163508977Y-68235087D01*
X163493868Y-68168637D01*
X163498093Y-68125744D01*
X163525875Y-68063518D01*
X163620109Y-67986183D01*
X163686560Y-67971073D01*
X163729452Y-67975298D01*
X163791678Y-68003081D01*
X163888348Y-68120873D01*
X163903457Y-68187324D01*
X163899233Y-68230216D01*
X163871450Y-68292442D01*
X163777216Y-68369778D01*
X163710765Y-68384887D01*
X163667873Y-68380663D01*
X163605647Y-68352880D01*
%TO.C,D31*%
X148493433Y-54209477D02*
X147569553Y-53826794D01*
X147478438Y-54046765D01*
X147467764Y-54196971D01*
X147519306Y-54321406D01*
X147589072Y-54401846D01*
X147746826Y-54518732D01*
X147878808Y-54573401D01*
X148073008Y-54602299D01*
X148179220Y-54594751D01*
X148303655Y-54543209D01*
X148402318Y-54429449D01*
X148493433Y-54209477D01*
X147223316Y-54662685D02*
X146986417Y-55234610D01*
X147465932Y-55072435D01*
X147411263Y-55204418D01*
X147418811Y-55310629D01*
X147444582Y-55372846D01*
X147514348Y-55453287D01*
X147734319Y-55544402D01*
X147840531Y-55536854D01*
X147902748Y-55511082D01*
X147983188Y-55441317D01*
X148092527Y-55177351D01*
X148084978Y-55071140D01*
X148059207Y-55008922D01*
X147545836Y-56497179D02*
X147764512Y-55969248D01*
X147655174Y-56233214D02*
X146731295Y-55850530D01*
X146899723Y-55817211D01*
X147024158Y-55765668D01*
X147104598Y-55695903D01*
%TO.C,D10*%
X76449136Y-109019964D02*
X76254046Y-108039178D01*
X76020526Y-108085628D01*
X75889703Y-108160203D01*
X75814875Y-108272191D01*
X75786751Y-108374889D01*
X75777207Y-108570995D01*
X75805077Y-108711107D01*
X75888941Y-108888634D01*
X75954226Y-108972752D01*
X76066214Y-109047580D01*
X76215616Y-109066414D01*
X76449136Y-109019964D01*
X74954606Y-109317244D02*
X75515055Y-109205764D01*
X75234831Y-109261504D02*
X75039740Y-108280719D01*
X75161018Y-108402251D01*
X75273007Y-108477079D01*
X75375705Y-108505203D01*
X74152363Y-108457229D02*
X74058955Y-108475809D01*
X73974837Y-108541093D01*
X73937423Y-108597087D01*
X73909299Y-108699785D01*
X73899755Y-108895892D01*
X73946205Y-109129412D01*
X74030069Y-109306938D01*
X74095353Y-109391056D01*
X74151347Y-109428470D01*
X74254045Y-109456594D01*
X74347453Y-109438014D01*
X74431572Y-109372730D01*
X74468986Y-109316736D01*
X74497110Y-109214038D01*
X74506654Y-109017932D01*
X74460204Y-108784412D01*
X74376339Y-108606885D01*
X74311055Y-108522767D01*
X74255061Y-108485353D01*
X74152363Y-108457229D01*
%TO.C,R12*%
X81839438Y-126698100D02*
X81883917Y-126328759D01*
X82161969Y-126525703D02*
X81860275Y-125961273D01*
X81645254Y-126076205D01*
X81605865Y-126131815D01*
X81593354Y-126173059D01*
X81595209Y-126241180D01*
X81638308Y-126321813D01*
X81693919Y-126361202D01*
X81735163Y-126373713D01*
X81803284Y-126371858D01*
X82018305Y-126256927D01*
X81301886Y-126985427D02*
X81624417Y-126813031D01*
X81463151Y-126899229D02*
X81161457Y-126334799D01*
X81258312Y-126386699D01*
X81340800Y-126411722D01*
X81408921Y-126409867D01*
X80813904Y-126589684D02*
X80772660Y-126577173D01*
X80704538Y-126579028D01*
X80570150Y-126650860D01*
X80530761Y-126706470D01*
X80518250Y-126747714D01*
X80520105Y-126815835D01*
X80548838Y-126869591D01*
X80618815Y-126935857D01*
X81113742Y-127085992D01*
X80764334Y-127272755D01*
%TO.C,R20*%
X151073447Y-145245116D02*
X150704106Y-145200637D01*
X150901050Y-144922585D02*
X150336620Y-145224279D01*
X150451552Y-145439300D01*
X150507162Y-145478689D01*
X150548406Y-145491200D01*
X150616527Y-145489345D01*
X150697160Y-145446246D01*
X150736549Y-145390635D01*
X150749060Y-145349391D01*
X150747205Y-145281270D01*
X150632274Y-145066249D01*
X150677703Y-145733098D02*
X150665192Y-145774342D01*
X150667047Y-145842464D01*
X150738879Y-145976852D01*
X150794489Y-146016241D01*
X150835733Y-146028752D01*
X150903855Y-146026897D01*
X150957610Y-145998164D01*
X151023877Y-145928187D01*
X151174011Y-145433260D01*
X151360774Y-145782668D01*
X150983107Y-146433771D02*
X151011840Y-146487526D01*
X151067451Y-146526915D01*
X151108695Y-146539426D01*
X151176816Y-146537571D01*
X151298693Y-146506983D01*
X151433081Y-146435151D01*
X151526225Y-146350808D01*
X151565614Y-146295198D01*
X151578125Y-146253954D01*
X151576270Y-146185832D01*
X151547537Y-146132077D01*
X151491927Y-146092688D01*
X151450683Y-146080177D01*
X151382561Y-146082032D01*
X151260684Y-146112620D01*
X151126296Y-146184452D01*
X151033152Y-146268795D01*
X150993764Y-146324405D01*
X150981252Y-146365649D01*
X150983107Y-146433771D01*
%TO.C,D33*%
X56078285Y-104592380D02*
X56078285Y-103592380D01*
X55840190Y-103592380D01*
X55697333Y-103640000D01*
X55602095Y-103735238D01*
X55554476Y-103830476D01*
X55506857Y-104020952D01*
X55506857Y-104163809D01*
X55554476Y-104354285D01*
X55602095Y-104449523D01*
X55697333Y-104544761D01*
X55840190Y-104592380D01*
X56078285Y-104592380D01*
X55173523Y-103592380D02*
X54554476Y-103592380D01*
X54887809Y-103973333D01*
X54744952Y-103973333D01*
X54649714Y-104020952D01*
X54602095Y-104068571D01*
X54554476Y-104163809D01*
X54554476Y-104401904D01*
X54602095Y-104497142D01*
X54649714Y-104544761D01*
X54744952Y-104592380D01*
X55030666Y-104592380D01*
X55125904Y-104544761D01*
X55173523Y-104497142D01*
X54221142Y-103592380D02*
X53602095Y-103592380D01*
X53935428Y-103973333D01*
X53792571Y-103973333D01*
X53697333Y-104020952D01*
X53649714Y-104068571D01*
X53602095Y-104163809D01*
X53602095Y-104401904D01*
X53649714Y-104497142D01*
X53697333Y-104544761D01*
X53792571Y-104592380D01*
X54078285Y-104592380D01*
X54173523Y-104544761D01*
X54221142Y-104497142D01*
%TO.C,R17*%
X122418035Y-151928323D02*
X122135651Y-151686145D01*
X122453881Y-151564370D02*
X121816963Y-151501639D01*
X121793066Y-151744275D01*
X121817421Y-151807921D01*
X121844763Y-151841237D01*
X121902435Y-151877541D01*
X121993423Y-151886503D01*
X122057069Y-151862148D01*
X122090386Y-151834805D01*
X122126690Y-151777134D01*
X122150587Y-151534498D01*
X122358291Y-152534912D02*
X122394138Y-152170959D01*
X122376215Y-152352936D02*
X121739296Y-152290205D01*
X121836259Y-152238507D01*
X121902892Y-152183823D01*
X121939196Y-152126151D01*
X121700463Y-152684487D02*
X121658642Y-153109099D01*
X122322445Y-152898865D01*
%TO.C,D5*%
X91229483Y-62613586D02*
X90522376Y-63320692D01*
X90690735Y-63489051D01*
X90825422Y-63556395D01*
X90960109Y-63556395D01*
X91061124Y-63522723D01*
X91229483Y-63421708D01*
X91330498Y-63320692D01*
X91431514Y-63152334D01*
X91465185Y-63051318D01*
X91465185Y-62916631D01*
X91397842Y-62781944D01*
X91229483Y-62613586D01*
X91566201Y-64364517D02*
X91229483Y-64027799D01*
X91532529Y-63657410D01*
X91532529Y-63724754D01*
X91566201Y-63825769D01*
X91734559Y-63994128D01*
X91835575Y-64027799D01*
X91902918Y-64027799D01*
X92003933Y-63994128D01*
X92172292Y-63825769D01*
X92205964Y-63724754D01*
X92205964Y-63657410D01*
X92172292Y-63556395D01*
X92003933Y-63388036D01*
X91902918Y-63354364D01*
X91835575Y-63354364D01*
%TO.C,R22*%
X165928334Y-132150644D02*
X165570086Y-132250891D01*
X165645633Y-131918637D02*
X165239621Y-132413364D01*
X165428089Y-132568035D01*
X165494539Y-132583145D01*
X165537432Y-132578920D01*
X165599658Y-132551137D01*
X165657659Y-132480462D01*
X165672769Y-132414011D01*
X165668544Y-132371119D01*
X165640761Y-132308893D01*
X165452294Y-132154221D01*
X165749457Y-132752925D02*
X165753682Y-132795817D01*
X165781465Y-132858044D01*
X165899257Y-132954713D01*
X165965708Y-132969822D01*
X166008600Y-132965598D01*
X166070826Y-132937815D01*
X166109494Y-132890698D01*
X166143937Y-132800689D01*
X166093243Y-132285981D01*
X166399502Y-132537322D01*
X166220626Y-133139603D02*
X166224850Y-133182495D01*
X166252633Y-133244721D01*
X166370425Y-133341391D01*
X166436876Y-133356500D01*
X166479768Y-133352276D01*
X166541994Y-133324493D01*
X166580662Y-133277376D01*
X166615105Y-133187367D01*
X166564411Y-132672659D01*
X166870670Y-132924000D01*
%TO.C,D17*%
X123642331Y-151176948D02*
X122642331Y-151176948D01*
X122642331Y-151415043D01*
X122689951Y-151557900D01*
X122785189Y-151653138D01*
X122880427Y-151700757D01*
X123070903Y-151748376D01*
X123213760Y-151748376D01*
X123404236Y-151700757D01*
X123499474Y-151653138D01*
X123594712Y-151557900D01*
X123642331Y-151415043D01*
X123642331Y-151176948D01*
X123642331Y-152700757D02*
X123642331Y-152129329D01*
X123642331Y-152415043D02*
X122642331Y-152415043D01*
X122785189Y-152319805D01*
X122880427Y-152224567D01*
X122928046Y-152129329D01*
X122642331Y-153034091D02*
X122642331Y-153700757D01*
X123642331Y-153272186D01*
%TO.C,R28*%
X170619120Y-76133890D02*
X170663599Y-75764549D01*
X170941651Y-75961493D02*
X170639957Y-75397063D01*
X170424936Y-75511995D01*
X170385547Y-75567605D01*
X170373036Y-75608849D01*
X170374891Y-75676970D01*
X170417990Y-75757603D01*
X170473601Y-75796992D01*
X170514845Y-75809503D01*
X170582966Y-75807648D01*
X170797987Y-75692717D01*
X170131138Y-75738146D02*
X170089894Y-75725635D01*
X170021772Y-75727490D01*
X169887384Y-75799322D01*
X169847995Y-75854932D01*
X169835484Y-75896176D01*
X169837339Y-75964298D01*
X169866072Y-76018053D01*
X169936049Y-76084320D01*
X170430976Y-76234454D01*
X170081568Y-76421217D01*
X169586640Y-76271082D02*
X169626029Y-76215472D01*
X169638540Y-76174228D01*
X169636685Y-76106107D01*
X169622318Y-76079229D01*
X169566708Y-76039840D01*
X169525464Y-76027329D01*
X169457343Y-76029184D01*
X169349832Y-76086650D01*
X169310443Y-76142260D01*
X169297932Y-76183504D01*
X169299787Y-76251625D01*
X169314154Y-76278503D01*
X169369764Y-76317892D01*
X169411008Y-76330403D01*
X169479130Y-76328548D01*
X169586640Y-76271082D01*
X169654762Y-76269227D01*
X169696006Y-76281739D01*
X169751616Y-76321127D01*
X169809081Y-76428638D01*
X169810937Y-76496759D01*
X169798425Y-76538003D01*
X169759036Y-76593614D01*
X169651526Y-76651079D01*
X169583404Y-76652934D01*
X169542161Y-76640423D01*
X169486550Y-76601034D01*
X169429085Y-76493524D01*
X169427230Y-76425402D01*
X169439741Y-76384158D01*
X169479130Y-76328548D01*
%TO.C,D7*%
X79033452Y-78764666D02*
X78650769Y-79688546D01*
X78870740Y-79779661D01*
X79020946Y-79790336D01*
X79145380Y-79738793D01*
X79225821Y-79669028D01*
X79342707Y-79511274D01*
X79397376Y-79379291D01*
X79426274Y-79185091D01*
X79418726Y-79078879D01*
X79367183Y-78954445D01*
X79253423Y-78855781D01*
X79033452Y-78764666D01*
X79486660Y-80034783D02*
X80102579Y-80289905D01*
X80089314Y-79202019D01*
%TO.C,D35*%
X197810285Y-99258380D02*
X197810285Y-98258380D01*
X197572190Y-98258380D01*
X197429333Y-98306000D01*
X197334095Y-98401238D01*
X197286476Y-98496476D01*
X197238857Y-98686952D01*
X197238857Y-98829809D01*
X197286476Y-99020285D01*
X197334095Y-99115523D01*
X197429333Y-99210761D01*
X197572190Y-99258380D01*
X197810285Y-99258380D01*
X196905523Y-98258380D02*
X196286476Y-98258380D01*
X196619809Y-98639333D01*
X196476952Y-98639333D01*
X196381714Y-98686952D01*
X196334095Y-98734571D01*
X196286476Y-98829809D01*
X196286476Y-99067904D01*
X196334095Y-99163142D01*
X196381714Y-99210761D01*
X196476952Y-99258380D01*
X196762666Y-99258380D01*
X196857904Y-99210761D01*
X196905523Y-99163142D01*
X195381714Y-98258380D02*
X195857904Y-98258380D01*
X195905523Y-98734571D01*
X195857904Y-98686952D01*
X195762666Y-98639333D01*
X195524571Y-98639333D01*
X195429333Y-98686952D01*
X195381714Y-98734571D01*
X195334095Y-98829809D01*
X195334095Y-99067904D01*
X195381714Y-99163142D01*
X195429333Y-99210761D01*
X195524571Y-99258380D01*
X195762666Y-99258380D01*
X195857904Y-99210761D01*
X195905523Y-99163142D01*
D12*
%TO.C,R38*%
X131321836Y-78507771D02*
X131525036Y-78217485D01*
X131670179Y-78507771D02*
X131670179Y-77898171D01*
X131437951Y-77898171D01*
X131379893Y-77927200D01*
X131350865Y-77956228D01*
X131321836Y-78014285D01*
X131321836Y-78101371D01*
X131350865Y-78159428D01*
X131379893Y-78188457D01*
X131437951Y-78217485D01*
X131670179Y-78217485D01*
X131118636Y-77898171D02*
X130741265Y-77898171D01*
X130944465Y-78130400D01*
X130857379Y-78130400D01*
X130799322Y-78159428D01*
X130770293Y-78188457D01*
X130741265Y-78246514D01*
X130741265Y-78391657D01*
X130770293Y-78449714D01*
X130799322Y-78478742D01*
X130857379Y-78507771D01*
X131031551Y-78507771D01*
X131089608Y-78478742D01*
X131118636Y-78449714D01*
X130392922Y-78159428D02*
X130450979Y-78130400D01*
X130480008Y-78101371D01*
X130509036Y-78043314D01*
X130509036Y-78014285D01*
X130480008Y-77956228D01*
X130450979Y-77927200D01*
X130392922Y-77898171D01*
X130276808Y-77898171D01*
X130218751Y-77927200D01*
X130189722Y-77956228D01*
X130160693Y-78014285D01*
X130160693Y-78043314D01*
X130189722Y-78101371D01*
X130218751Y-78130400D01*
X130276808Y-78159428D01*
X130392922Y-78159428D01*
X130450979Y-78188457D01*
X130480008Y-78217485D01*
X130509036Y-78275542D01*
X130509036Y-78391657D01*
X130480008Y-78449714D01*
X130450979Y-78478742D01*
X130392922Y-78507771D01*
X130276808Y-78507771D01*
X130218751Y-78478742D01*
X130189722Y-78449714D01*
X130160693Y-78391657D01*
X130160693Y-78275542D01*
X130189722Y-78217485D01*
X130218751Y-78188457D01*
X130276808Y-78159428D01*
X131292808Y-75967771D02*
X131641151Y-75967771D01*
X131466979Y-75967771D02*
X131466979Y-75358171D01*
X131525036Y-75445257D01*
X131583093Y-75503314D01*
X131641151Y-75532342D01*
X130915436Y-75358171D02*
X130857379Y-75358171D01*
X130799322Y-75387200D01*
X130770293Y-75416228D01*
X130741265Y-75474285D01*
X130712236Y-75590400D01*
X130712236Y-75735542D01*
X130741265Y-75851657D01*
X130770293Y-75909714D01*
X130799322Y-75938742D01*
X130857379Y-75967771D01*
X130915436Y-75967771D01*
X130973493Y-75938742D01*
X131002522Y-75909714D01*
X131031551Y-75851657D01*
X131060579Y-75735542D01*
X131060579Y-75590400D01*
X131031551Y-75474285D01*
X131002522Y-75416228D01*
X130973493Y-75387200D01*
X130915436Y-75358171D01*
X130450979Y-75967771D02*
X130450979Y-75358171D01*
X130392922Y-75735542D02*
X130218751Y-75967771D01*
X130218751Y-75561371D02*
X130450979Y-75793600D01*
D11*
%TO.C,D24*%
X174196217Y-113114977D02*
X174001127Y-114095762D01*
X174234647Y-114142212D01*
X174384049Y-114123378D01*
X174496037Y-114048550D01*
X174561322Y-113964432D01*
X174645186Y-113786905D01*
X174673056Y-113646793D01*
X174663512Y-113450687D01*
X174635388Y-113347989D01*
X174560560Y-113236001D01*
X174429737Y-113161427D01*
X174196217Y-113114977D01*
X174953788Y-114188154D02*
X174991202Y-114244148D01*
X175075320Y-114309432D01*
X175308840Y-114355882D01*
X175411539Y-114327758D01*
X175467533Y-114290344D01*
X175532817Y-114206226D01*
X175551397Y-114112818D01*
X175532563Y-113963416D01*
X175083594Y-113291487D01*
X175690747Y-113412257D01*
X176401360Y-114233334D02*
X176531420Y-113579477D01*
X176093519Y-114560517D02*
X175999349Y-113813506D01*
X176606502Y-113934276D01*
D12*
%TO.C,R40*%
X120921836Y-125631690D02*
X121125036Y-125341404D01*
X121270179Y-125631690D02*
X121270179Y-125022090D01*
X121037951Y-125022090D01*
X120979893Y-125051119D01*
X120950865Y-125080147D01*
X120921836Y-125138204D01*
X120921836Y-125225290D01*
X120950865Y-125283347D01*
X120979893Y-125312376D01*
X121037951Y-125341404D01*
X121270179Y-125341404D01*
X120399322Y-125225290D02*
X120399322Y-125631690D01*
X120544465Y-124993061D02*
X120689608Y-125428490D01*
X120312236Y-125428490D01*
X119963893Y-125022090D02*
X119905836Y-125022090D01*
X119847779Y-125051119D01*
X119818751Y-125080147D01*
X119789722Y-125138204D01*
X119760693Y-125254319D01*
X119760693Y-125399461D01*
X119789722Y-125515576D01*
X119818751Y-125573633D01*
X119847779Y-125602661D01*
X119905836Y-125631690D01*
X119963893Y-125631690D01*
X120021951Y-125602661D01*
X120050979Y-125573633D01*
X120080008Y-125515576D01*
X120109036Y-125399461D01*
X120109036Y-125254319D01*
X120080008Y-125138204D01*
X120050979Y-125080147D01*
X120021951Y-125051119D01*
X119963893Y-125022090D01*
X120892808Y-128171690D02*
X121241151Y-128171690D01*
X121066979Y-128171690D02*
X121066979Y-127562090D01*
X121125036Y-127649176D01*
X121183093Y-127707233D01*
X121241151Y-127736261D01*
X120515436Y-127562090D02*
X120457379Y-127562090D01*
X120399322Y-127591119D01*
X120370293Y-127620147D01*
X120341265Y-127678204D01*
X120312236Y-127794319D01*
X120312236Y-127939461D01*
X120341265Y-128055576D01*
X120370293Y-128113633D01*
X120399322Y-128142661D01*
X120457379Y-128171690D01*
X120515436Y-128171690D01*
X120573493Y-128142661D01*
X120602522Y-128113633D01*
X120631551Y-128055576D01*
X120660579Y-127939461D01*
X120660579Y-127794319D01*
X120631551Y-127678204D01*
X120602522Y-127620147D01*
X120573493Y-127591119D01*
X120515436Y-127562090D01*
X120050979Y-128171690D02*
X120050979Y-127562090D01*
X119992922Y-127939461D02*
X119818751Y-128171690D01*
X119818751Y-127765290D02*
X120050979Y-127997519D01*
D11*
%TO.C,D11*%
X78893185Y-118486719D02*
X78510501Y-117562839D01*
X78290530Y-117653955D01*
X78176770Y-117752618D01*
X78125228Y-117877052D01*
X78117680Y-117983264D01*
X78146578Y-118177464D01*
X78201247Y-118309447D01*
X78318133Y-118467201D01*
X78398573Y-118536966D01*
X78523008Y-118588509D01*
X78673214Y-118577834D01*
X78893185Y-118486719D01*
X77485368Y-119069856D02*
X78013300Y-118851179D01*
X77749334Y-118960518D02*
X77366651Y-118036638D01*
X77509308Y-118132175D01*
X77633743Y-118183717D01*
X77739954Y-118191265D01*
X76605483Y-119434316D02*
X77133414Y-119215640D01*
X76869449Y-119324978D02*
X76486765Y-118401098D01*
X76629423Y-118496635D01*
X76753858Y-118548178D01*
X76860069Y-118555726D01*
%TO.C,D13*%
X89017923Y-135105607D02*
X88310816Y-134398501D01*
X88142457Y-134566859D01*
X88075114Y-134701546D01*
X88075114Y-134836233D01*
X88108786Y-134937249D01*
X88209801Y-135105607D01*
X88310816Y-135206623D01*
X88479175Y-135307638D01*
X88580190Y-135341310D01*
X88714877Y-135341310D01*
X88849564Y-135273966D01*
X89017923Y-135105607D01*
X87940427Y-136183104D02*
X88344488Y-135779043D01*
X88142457Y-135981073D02*
X87435350Y-135273966D01*
X87603709Y-135307638D01*
X87738396Y-135307638D01*
X87839411Y-135273966D01*
X86997618Y-135711699D02*
X86559885Y-136149432D01*
X87064961Y-136183104D01*
X86963946Y-136284119D01*
X86930274Y-136385134D01*
X86930274Y-136452478D01*
X86963946Y-136553493D01*
X87132305Y-136721852D01*
X87233320Y-136755523D01*
X87300663Y-136755523D01*
X87401679Y-136721852D01*
X87603709Y-136519821D01*
X87637381Y-136418806D01*
X87637381Y-136351462D01*
%TO.C,R4*%
X100643067Y-56789637D02*
X100273727Y-56745158D01*
X100470671Y-56467106D02*
X99906241Y-56768800D01*
X100021172Y-56983821D01*
X100076783Y-57023210D01*
X100118027Y-57035721D01*
X100186148Y-57033866D01*
X100266781Y-56990767D01*
X100306170Y-56935156D01*
X100318681Y-56893912D01*
X100316826Y-56825791D01*
X100201895Y-56610770D01*
X100525376Y-57474563D02*
X100901662Y-57273434D01*
X100238523Y-57455106D02*
X100569855Y-57105223D01*
X100756618Y-57454632D01*
%TO.C,R30*%
X157550586Y-60875360D02*
X157450339Y-60517112D01*
X157782593Y-60592659D02*
X157287866Y-60186647D01*
X157133195Y-60375115D01*
X157118085Y-60441565D01*
X157122310Y-60484458D01*
X157150093Y-60546684D01*
X157220768Y-60604685D01*
X157287219Y-60619795D01*
X157330111Y-60615570D01*
X157392337Y-60587787D01*
X157547009Y-60399320D01*
X156920522Y-60634257D02*
X156669181Y-60940516D01*
X156992986Y-60930279D01*
X156934984Y-61000954D01*
X156919875Y-61067405D01*
X156924099Y-61110297D01*
X156951882Y-61172523D01*
X157069674Y-61269193D01*
X157136125Y-61284302D01*
X157179018Y-61280077D01*
X157241244Y-61252294D01*
X157357247Y-61110944D01*
X157372356Y-61044493D01*
X157368132Y-61001601D01*
X156417841Y-61246776D02*
X156379173Y-61293893D01*
X156364064Y-61360343D01*
X156368288Y-61403236D01*
X156396071Y-61465462D01*
X156470971Y-61566356D01*
X156588763Y-61663025D01*
X156702331Y-61716802D01*
X156768781Y-61731912D01*
X156811674Y-61727687D01*
X156873900Y-61699904D01*
X156912568Y-61652788D01*
X156927677Y-61586337D01*
X156923452Y-61543445D01*
X156895669Y-61481218D01*
X156820770Y-61380324D01*
X156702978Y-61283655D01*
X156589410Y-61229878D01*
X156522959Y-61214768D01*
X156480067Y-61218993D01*
X156417841Y-61246776D01*
D12*
%TO.C,R39*%
X135721836Y-139771690D02*
X135925036Y-139481404D01*
X136070179Y-139771690D02*
X136070179Y-139162090D01*
X135837951Y-139162090D01*
X135779893Y-139191119D01*
X135750865Y-139220147D01*
X135721836Y-139278204D01*
X135721836Y-139365290D01*
X135750865Y-139423347D01*
X135779893Y-139452376D01*
X135837951Y-139481404D01*
X136070179Y-139481404D01*
X135518636Y-139162090D02*
X135141265Y-139162090D01*
X135344465Y-139394319D01*
X135257379Y-139394319D01*
X135199322Y-139423347D01*
X135170293Y-139452376D01*
X135141265Y-139510433D01*
X135141265Y-139655576D01*
X135170293Y-139713633D01*
X135199322Y-139742661D01*
X135257379Y-139771690D01*
X135431551Y-139771690D01*
X135489608Y-139742661D01*
X135518636Y-139713633D01*
X134850979Y-139771690D02*
X134734865Y-139771690D01*
X134676808Y-139742661D01*
X134647779Y-139713633D01*
X134589722Y-139626547D01*
X134560693Y-139510433D01*
X134560693Y-139278204D01*
X134589722Y-139220147D01*
X134618751Y-139191119D01*
X134676808Y-139162090D01*
X134792922Y-139162090D01*
X134850979Y-139191119D01*
X134880008Y-139220147D01*
X134909036Y-139278204D01*
X134909036Y-139423347D01*
X134880008Y-139481404D01*
X134850979Y-139510433D01*
X134792922Y-139539461D01*
X134676808Y-139539461D01*
X134618751Y-139510433D01*
X134589722Y-139481404D01*
X134560693Y-139423347D01*
X135779893Y-136622090D02*
X135402522Y-136622090D01*
X135605722Y-136854319D01*
X135518636Y-136854319D01*
X135460579Y-136883347D01*
X135431551Y-136912376D01*
X135402522Y-136970433D01*
X135402522Y-137115576D01*
X135431551Y-137173633D01*
X135460579Y-137202661D01*
X135518636Y-137231690D01*
X135692808Y-137231690D01*
X135750865Y-137202661D01*
X135779893Y-137173633D01*
X135141265Y-137231690D02*
X135141265Y-136622090D01*
X135083208Y-136999461D02*
X134909036Y-137231690D01*
X134909036Y-136825290D02*
X135141265Y-137057519D01*
D11*
%TO.C,R27*%
X174676904Y-85375941D02*
X174792584Y-85022375D01*
X175026871Y-85269780D02*
X174841089Y-84657338D01*
X174607778Y-84728112D01*
X174558297Y-84774970D01*
X174537980Y-84812980D01*
X174526509Y-84880155D01*
X174553050Y-84967647D01*
X174599907Y-85017128D01*
X174637918Y-85037445D01*
X174705092Y-85048915D01*
X174938403Y-84978141D01*
X174275505Y-84892601D02*
X174237494Y-84872284D01*
X174170319Y-84860814D01*
X174024500Y-84905048D01*
X173975019Y-84951905D01*
X173954702Y-84989916D01*
X173943231Y-85057090D01*
X173960925Y-85115418D01*
X174016629Y-85194063D01*
X174472757Y-85437868D01*
X174093627Y-85552877D01*
X173703697Y-85002362D02*
X173295402Y-85126217D01*
X173743660Y-85659038D01*
%TO.C,D34*%
X128976380Y-176077714D02*
X127976380Y-176077714D01*
X127976380Y-176315809D01*
X128024000Y-176458666D01*
X128119238Y-176553904D01*
X128214476Y-176601523D01*
X128404952Y-176649142D01*
X128547809Y-176649142D01*
X128738285Y-176601523D01*
X128833523Y-176553904D01*
X128928761Y-176458666D01*
X128976380Y-176315809D01*
X128976380Y-176077714D01*
X127976380Y-176982476D02*
X127976380Y-177601523D01*
X128357333Y-177268190D01*
X128357333Y-177411047D01*
X128404952Y-177506285D01*
X128452571Y-177553904D01*
X128547809Y-177601523D01*
X128785904Y-177601523D01*
X128881142Y-177553904D01*
X128928761Y-177506285D01*
X128976380Y-177411047D01*
X128976380Y-177125333D01*
X128928761Y-177030095D01*
X128881142Y-176982476D01*
X128309714Y-178458666D02*
X128976380Y-178458666D01*
X127928761Y-178220571D02*
X128643047Y-177982476D01*
X128643047Y-178601523D01*
%TO.C,D30*%
X157251904Y-59556126D02*
X156420434Y-59000556D01*
X156288155Y-59198525D01*
X156248382Y-59343762D01*
X156274658Y-59475861D01*
X156327390Y-59568366D01*
X156459309Y-59713783D01*
X156578091Y-59793150D01*
X156762922Y-59859379D01*
X156868565Y-59872697D01*
X157000664Y-59846421D01*
X157119625Y-59754095D01*
X157251904Y-59556126D01*
X155917775Y-59752838D02*
X155573851Y-60267557D01*
X156075791Y-60202047D01*
X155996424Y-60320828D01*
X155983106Y-60426471D01*
X155996244Y-60492521D01*
X156048976Y-60585026D01*
X156246945Y-60717305D01*
X156352588Y-60730622D01*
X156418638Y-60717484D01*
X156511143Y-60664752D01*
X156669878Y-60427190D01*
X156683195Y-60321546D01*
X156670057Y-60255497D01*
X155229926Y-60782277D02*
X155177015Y-60861464D01*
X155163697Y-60967107D01*
X155176835Y-61033157D01*
X155229567Y-61125662D01*
X155361487Y-61271079D01*
X155559455Y-61403358D01*
X155744286Y-61469587D01*
X155849930Y-61482904D01*
X155915979Y-61469766D01*
X156008484Y-61417034D01*
X156061396Y-61337847D01*
X156074714Y-61232204D01*
X156061575Y-61166154D01*
X156008844Y-61073649D01*
X155876924Y-60928232D01*
X155678955Y-60795953D01*
X155494124Y-60729724D01*
X155388481Y-60716407D01*
X155322431Y-60729545D01*
X155229926Y-60782277D01*
%TO.C,R26*%
X176853685Y-95232043D02*
X177036119Y-94907838D01*
X177217638Y-95196197D02*
X177154908Y-94559279D01*
X176912272Y-94583176D01*
X176854600Y-94619480D01*
X176827258Y-94652797D01*
X176802903Y-94716443D01*
X176811865Y-94807431D01*
X176848168Y-94865103D01*
X176881485Y-94892445D01*
X176945131Y-94916800D01*
X177187767Y-94892902D01*
X176554293Y-94679681D02*
X176520976Y-94652339D01*
X176457330Y-94627984D01*
X176305683Y-94642920D01*
X176248012Y-94679224D01*
X176220669Y-94712540D01*
X176196314Y-94776186D01*
X176202289Y-94836845D01*
X176241580Y-94924846D01*
X176641379Y-95252953D01*
X176247096Y-95291787D01*
X175638436Y-94708638D02*
X175759753Y-94696689D01*
X175823399Y-94721044D01*
X175856716Y-94748387D01*
X175926336Y-94833401D01*
X175968615Y-94951731D01*
X175992512Y-95194367D01*
X175968157Y-95258013D01*
X175940815Y-95291329D01*
X175883143Y-95327633D01*
X175761825Y-95339582D01*
X175698179Y-95315227D01*
X175664863Y-95287885D01*
X175628559Y-95230213D01*
X175613623Y-95078566D01*
X175637978Y-95014920D01*
X175665320Y-94981603D01*
X175722992Y-94945299D01*
X175844310Y-94933350D01*
X175907956Y-94957706D01*
X175941272Y-94985048D01*
X175977576Y-95042719D01*
%TO.C,R32*%
X139637649Y-51779429D02*
X139407937Y-51486814D01*
X139743810Y-51429462D02*
X139131368Y-51243680D01*
X139060594Y-51476991D01*
X139072065Y-51544166D01*
X139092382Y-51582177D01*
X139141863Y-51629034D01*
X139229354Y-51655574D01*
X139296529Y-51644104D01*
X139334540Y-51623787D01*
X139381397Y-51574306D01*
X139452171Y-51340995D01*
X138963280Y-51797794D02*
X138848272Y-52176925D01*
X139143510Y-52043552D01*
X139116970Y-52131044D01*
X139128440Y-52198218D01*
X139148757Y-52236229D01*
X139198238Y-52283086D01*
X139344058Y-52327320D01*
X139411232Y-52315850D01*
X139449243Y-52295533D01*
X139496101Y-52246052D01*
X139549181Y-52071068D01*
X139537711Y-52003894D01*
X139517394Y-51965883D01*
X138835825Y-52427930D02*
X138797815Y-52448247D01*
X138750957Y-52497728D01*
X138706723Y-52643547D01*
X138718194Y-52710722D01*
X138738511Y-52748733D01*
X138787992Y-52795590D01*
X138846320Y-52813284D01*
X138942658Y-52810660D01*
X139398786Y-52566854D01*
X139283778Y-52945985D01*
%TO.C,D3*%
X108677897Y-52359151D02*
X107754018Y-52741834D01*
X107845133Y-52961805D01*
X107943796Y-53075565D01*
X108068231Y-53127108D01*
X108174442Y-53134656D01*
X108368642Y-53105758D01*
X108500625Y-53051089D01*
X108658379Y-52934203D01*
X108728145Y-52853762D01*
X108779687Y-52729328D01*
X108769012Y-52579122D01*
X108677897Y-52359151D01*
X108100255Y-53577725D02*
X108337154Y-54149651D01*
X108561547Y-53695907D01*
X108616216Y-53827889D01*
X108696657Y-53897655D01*
X108758874Y-53923426D01*
X108865085Y-53930974D01*
X109085057Y-53839859D01*
X109154822Y-53759419D01*
X109180594Y-53697202D01*
X109188142Y-53590990D01*
X109078804Y-53327025D01*
X108998363Y-53257259D01*
X108936146Y-53231488D01*
%TO.C,D1*%
X128722331Y-49562508D02*
X127722331Y-49562508D01*
X127722331Y-49800604D01*
X127769951Y-49943461D01*
X127865189Y-50038699D01*
X127960427Y-50086318D01*
X128150903Y-50133937D01*
X128293760Y-50133937D01*
X128484236Y-50086318D01*
X128579474Y-50038699D01*
X128674712Y-49943461D01*
X128722331Y-49800604D01*
X128722331Y-49562508D01*
X128722331Y-51086318D02*
X128722331Y-50514889D01*
X128722331Y-50800604D02*
X127722331Y-50800604D01*
X127865189Y-50705365D01*
X127960427Y-50610127D01*
X128008046Y-50514889D01*
%TO.C,R5*%
X92429741Y-62483868D02*
X92058819Y-62512298D01*
X92197734Y-62201167D02*
X91703007Y-62607179D01*
X91857679Y-62795646D01*
X91919905Y-62823429D01*
X91962797Y-62827654D01*
X92029248Y-62812544D01*
X92099923Y-62754543D01*
X92127706Y-62692316D01*
X92131930Y-62649424D01*
X92116821Y-62582973D01*
X91962150Y-62394506D01*
X92302358Y-63337490D02*
X92109019Y-63101906D01*
X92325269Y-62885008D01*
X92321045Y-62927901D01*
X92336154Y-62994351D01*
X92432824Y-63112143D01*
X92495050Y-63139926D01*
X92537942Y-63144151D01*
X92604393Y-63129041D01*
X92722185Y-63032372D01*
X92749968Y-62970146D01*
X92754192Y-62927253D01*
X92739083Y-62860803D01*
X92642414Y-62743011D01*
X92580187Y-62715228D01*
X92537295Y-62711003D01*
%TO.C,R24*%
X174685788Y-114469325D02*
X174393173Y-114699037D01*
X174335821Y-114363164D02*
X174150039Y-114975606D01*
X174383350Y-115046380D01*
X174450525Y-115034909D01*
X174488536Y-115014592D01*
X174535393Y-114965111D01*
X174561933Y-114877620D01*
X174550463Y-114810445D01*
X174530146Y-114772434D01*
X174480665Y-114725577D01*
X174247354Y-114654803D01*
X174751011Y-115094213D02*
X174771328Y-115132224D01*
X174820809Y-115179081D01*
X174966628Y-115223315D01*
X175033803Y-115211845D01*
X175071814Y-115191528D01*
X175118671Y-115142047D01*
X175136365Y-115083719D01*
X175133741Y-114987380D01*
X174889936Y-114531252D01*
X175269066Y-114646261D01*
X175670161Y-115213797D02*
X175794016Y-114805502D01*
X175453568Y-115402874D02*
X175440450Y-114921182D01*
X175819581Y-115036190D01*
%TO.C,R2*%
X119637262Y-50534163D02*
X119313057Y-50351729D01*
X119601416Y-50170210D02*
X118964498Y-50232941D01*
X118988395Y-50475576D01*
X119024699Y-50533248D01*
X119058015Y-50560590D01*
X119121662Y-50584945D01*
X119212650Y-50575984D01*
X119270322Y-50539680D01*
X119297664Y-50506363D01*
X119322019Y-50442717D01*
X119298121Y-50200082D01*
X119084900Y-50833555D02*
X119057558Y-50866872D01*
X119033203Y-50930518D01*
X119048139Y-51082165D01*
X119084443Y-51139837D01*
X119117759Y-51167179D01*
X119181405Y-51191534D01*
X119242064Y-51185560D01*
X119330065Y-51146269D01*
X119658172Y-50746469D01*
X119697006Y-51140752D01*
%TO.C,R10*%
X75481867Y-107972769D02*
X75664301Y-107648564D01*
X75845820Y-107936923D02*
X75783090Y-107300005D01*
X75540454Y-107323902D01*
X75482782Y-107360206D01*
X75455440Y-107393523D01*
X75431085Y-107457169D01*
X75440047Y-107548157D01*
X75476350Y-107605829D01*
X75509667Y-107633171D01*
X75573313Y-107657526D01*
X75815949Y-107633628D01*
X74875278Y-108032513D02*
X75239232Y-107996667D01*
X75057255Y-108014590D02*
X74994524Y-107377672D01*
X75064145Y-107462685D01*
X75130778Y-107517370D01*
X75194424Y-107541725D01*
X74418265Y-107434428D02*
X74357606Y-107440403D01*
X74299934Y-107476706D01*
X74272592Y-107510023D01*
X74248237Y-107573669D01*
X74229856Y-107697974D01*
X74244792Y-107849621D01*
X74287070Y-107967952D01*
X74323374Y-108025623D01*
X74356691Y-108052966D01*
X74420337Y-108077321D01*
X74480996Y-108071346D01*
X74538667Y-108035043D01*
X74566010Y-108001726D01*
X74590365Y-107938080D01*
X74608745Y-107813775D01*
X74593809Y-107662128D01*
X74551531Y-107543797D01*
X74515227Y-107486125D01*
X74481911Y-107458783D01*
X74418265Y-107434428D01*
%TO.C,R9*%
X74697387Y-97415647D02*
X74455209Y-97698031D01*
X74333433Y-97379800D02*
X74270703Y-98016719D01*
X74513338Y-98040616D01*
X74576984Y-98016261D01*
X74610301Y-97988919D01*
X74646605Y-97931247D01*
X74655566Y-97840259D01*
X74631211Y-97776613D01*
X74603869Y-97743296D01*
X74546197Y-97706992D01*
X74303562Y-97683095D01*
X75000681Y-97445519D02*
X75121999Y-97457467D01*
X75179671Y-97493771D01*
X75207013Y-97527088D01*
X75258710Y-97624050D01*
X75277091Y-97748355D01*
X75253193Y-97990991D01*
X75216890Y-98048663D01*
X75183573Y-98076005D01*
X75119927Y-98100360D01*
X74998609Y-98088411D01*
X74940937Y-98052107D01*
X74913595Y-98018791D01*
X74889240Y-97955145D01*
X74904176Y-97803497D01*
X74940480Y-97745826D01*
X74973796Y-97718484D01*
X75037443Y-97694128D01*
X75158760Y-97706077D01*
X75216432Y-97742381D01*
X75243774Y-97775698D01*
X75268129Y-97839344D01*
%TO.C,D28*%
X170844698Y-74800114D02*
X170289127Y-73968644D01*
X170091158Y-74100923D01*
X169998833Y-74219883D01*
X169972557Y-74351983D01*
X169985874Y-74457626D01*
X170052103Y-74642457D01*
X170131471Y-74761238D01*
X170276887Y-74893158D01*
X170369392Y-74945889D01*
X170501492Y-74972166D01*
X170646729Y-74932392D01*
X170844698Y-74800114D01*
X169550163Y-74576946D02*
X169484113Y-74563808D01*
X169378470Y-74577126D01*
X169180501Y-74709404D01*
X169127769Y-74801909D01*
X169114631Y-74867959D01*
X169127949Y-74973602D01*
X169180860Y-75052790D01*
X169299821Y-75145116D01*
X170092416Y-75302772D01*
X169577696Y-75646697D01*
X168785102Y-75489040D02*
X168837834Y-75396535D01*
X168850972Y-75330485D01*
X168837654Y-75224842D01*
X168811199Y-75185248D01*
X168718693Y-75132516D01*
X168652644Y-75119378D01*
X168547001Y-75132696D01*
X168388625Y-75238519D01*
X168335894Y-75331024D01*
X168322755Y-75397073D01*
X168336073Y-75502717D01*
X168362529Y-75542311D01*
X168455034Y-75595042D01*
X168521084Y-75608181D01*
X168626727Y-75594863D01*
X168785102Y-75489040D01*
X168890745Y-75475722D01*
X168956795Y-75488860D01*
X169049300Y-75541592D01*
X169155123Y-75699967D01*
X169168441Y-75805611D01*
X169155303Y-75871660D01*
X169102571Y-75964165D01*
X168944196Y-76069988D01*
X168838552Y-76083306D01*
X168772503Y-76070168D01*
X168679998Y-76017436D01*
X168574175Y-75859061D01*
X168560857Y-75753418D01*
X168573995Y-75687368D01*
X168626727Y-75594863D01*
%TO.C,D8*%
X75525328Y-88308593D02*
X75330237Y-89289378D01*
X75563758Y-89335828D01*
X75713160Y-89316994D01*
X75825148Y-89242166D01*
X75890432Y-89158048D01*
X75974296Y-88980522D01*
X76002166Y-88840409D01*
X75992622Y-88644303D01*
X75964498Y-88541605D01*
X75889670Y-88429617D01*
X75758848Y-88355043D01*
X75525328Y-88308593D01*
X76534745Y-89092002D02*
X76432047Y-89120126D01*
X76376053Y-89157540D01*
X76310769Y-89241658D01*
X76301479Y-89288362D01*
X76329603Y-89391060D01*
X76367017Y-89447054D01*
X76451135Y-89512338D01*
X76637951Y-89549498D01*
X76740649Y-89521374D01*
X76796643Y-89483960D01*
X76861927Y-89399842D01*
X76871217Y-89353138D01*
X76843093Y-89250440D01*
X76805679Y-89194446D01*
X76721561Y-89129162D01*
X76534745Y-89092002D01*
X76450627Y-89026718D01*
X76413213Y-88970724D01*
X76385089Y-88868025D01*
X76422249Y-88681209D01*
X76487533Y-88597091D01*
X76543527Y-88559677D01*
X76646225Y-88531553D01*
X76833041Y-88568713D01*
X76917160Y-88633997D01*
X76954574Y-88689991D01*
X76982698Y-88792689D01*
X76945538Y-88979506D01*
X76880253Y-89063624D01*
X76824259Y-89101038D01*
X76721561Y-89129162D01*
%TO.C,D25*%
X177989551Y-104338299D02*
X177989551Y-103338299D01*
X177751456Y-103338299D01*
X177608599Y-103385919D01*
X177513361Y-103481157D01*
X177465742Y-103576395D01*
X177418123Y-103766871D01*
X177418123Y-103909728D01*
X177465742Y-104100204D01*
X177513361Y-104195442D01*
X177608599Y-104290680D01*
X177751456Y-104338299D01*
X177989551Y-104338299D01*
X177037170Y-103433538D02*
X176989551Y-103385919D01*
X176894313Y-103338299D01*
X176656218Y-103338299D01*
X176560980Y-103385919D01*
X176513361Y-103433538D01*
X176465742Y-103528776D01*
X176465742Y-103624014D01*
X176513361Y-103766871D01*
X177084789Y-104338299D01*
X176465742Y-104338299D01*
X175560980Y-103338299D02*
X176037170Y-103338299D01*
X176084789Y-103814490D01*
X176037170Y-103766871D01*
X175941932Y-103719252D01*
X175703837Y-103719252D01*
X175608599Y-103766871D01*
X175560980Y-103814490D01*
X175513361Y-103909728D01*
X175513361Y-104147823D01*
X175560980Y-104243061D01*
X175608599Y-104290680D01*
X175703837Y-104338299D01*
X175941932Y-104338299D01*
X176037170Y-104290680D01*
X176084789Y-104243061D01*
%TO.C,U2*%
X133832331Y-132824430D02*
X134641855Y-132824430D01*
X134737093Y-132872049D01*
X134784712Y-132919668D01*
X134832331Y-133014906D01*
X134832331Y-133205382D01*
X134784712Y-133300620D01*
X134737093Y-133348239D01*
X134641855Y-133395858D01*
X133832331Y-133395858D01*
X133927570Y-133824430D02*
X133879951Y-133872049D01*
X133832331Y-133967287D01*
X133832331Y-134205382D01*
X133879951Y-134300620D01*
X133927570Y-134348239D01*
X134022808Y-134395858D01*
X134118046Y-134395858D01*
X134260903Y-134348239D01*
X134832331Y-133776811D01*
X134832331Y-134395858D01*
%TO.C,R15*%
X103316415Y-146811213D02*
X103148203Y-146479407D01*
X103488811Y-146488682D02*
X102924382Y-146186988D01*
X102809451Y-146402009D01*
X102807596Y-146470131D01*
X102820107Y-146511375D01*
X102859496Y-146566985D01*
X102940128Y-146610084D01*
X103008250Y-146611939D01*
X103049494Y-146599428D01*
X103105104Y-146560039D01*
X103220035Y-146345019D01*
X103029087Y-147348765D02*
X103201484Y-147026234D01*
X103115286Y-147187500D02*
X102550856Y-146885806D01*
X102660221Y-146875150D01*
X102742709Y-146850127D01*
X102798320Y-146810739D01*
X102191696Y-147557746D02*
X102335360Y-147288970D01*
X102618503Y-147405756D01*
X102577259Y-147418267D01*
X102521648Y-147457656D01*
X102449816Y-147592044D01*
X102447961Y-147660166D01*
X102460472Y-147701410D01*
X102499861Y-147757020D01*
X102634249Y-147828852D01*
X102702371Y-147830707D01*
X102743615Y-147818196D01*
X102799225Y-147778807D01*
X102871057Y-147644419D01*
X102872912Y-147576298D01*
X102860401Y-147535054D01*
%TO.C,D23*%
X170968921Y-122344136D02*
X170586238Y-123268016D01*
X170806209Y-123359131D01*
X170956415Y-123369805D01*
X171080850Y-123318263D01*
X171161290Y-123248497D01*
X171278176Y-123090743D01*
X171332845Y-122958761D01*
X171361743Y-122764561D01*
X171354195Y-122658349D01*
X171302653Y-122533914D01*
X171188893Y-122435251D01*
X170968921Y-122344136D01*
X171502569Y-123544487D02*
X171528341Y-123606705D01*
X171598106Y-123687145D01*
X171818077Y-123778260D01*
X171924289Y-123770712D01*
X171986506Y-123744941D01*
X172066947Y-123675175D01*
X172103393Y-123587187D01*
X172114067Y-123436981D01*
X171804812Y-122690373D01*
X172376738Y-122927273D01*
X172302014Y-123978713D02*
X172873940Y-124215613D01*
X172711764Y-123736097D01*
X172843747Y-123790766D01*
X172949958Y-123783218D01*
X173012176Y-123757447D01*
X173092616Y-123687681D01*
X173183731Y-123467710D01*
X173176183Y-123361499D01*
X173150412Y-123299281D01*
X173080646Y-123218841D01*
X172816681Y-123109503D01*
X172710469Y-123117051D01*
X172648252Y-123142822D01*
%TO.C,R34*%
X126109379Y-172629123D02*
X126322712Y-172324361D01*
X126475093Y-172629123D02*
X126475093Y-171989123D01*
X126231284Y-171989123D01*
X126170331Y-172019600D01*
X126139855Y-172050076D01*
X126109379Y-172111028D01*
X126109379Y-172202457D01*
X126139855Y-172263409D01*
X126170331Y-172293885D01*
X126231284Y-172324361D01*
X126475093Y-172324361D01*
X125896046Y-171989123D02*
X125499855Y-171989123D01*
X125713189Y-172232933D01*
X125621760Y-172232933D01*
X125560808Y-172263409D01*
X125530331Y-172293885D01*
X125499855Y-172354838D01*
X125499855Y-172507219D01*
X125530331Y-172568171D01*
X125560808Y-172598647D01*
X125621760Y-172629123D01*
X125804617Y-172629123D01*
X125865570Y-172598647D01*
X125896046Y-172568171D01*
X124951284Y-172202457D02*
X124951284Y-172629123D01*
X125103665Y-171958647D02*
X125256046Y-172415790D01*
X124859855Y-172415790D01*
%TO.C,D6*%
X84336096Y-70088523D02*
X83780526Y-70919992D01*
X83978495Y-71052271D01*
X84123732Y-71092044D01*
X84255831Y-71065768D01*
X84348336Y-71013036D01*
X84493753Y-70881117D01*
X84573120Y-70762336D01*
X84639349Y-70577505D01*
X84652667Y-70471861D01*
X84626391Y-70339762D01*
X84534065Y-70220801D01*
X84336096Y-70088523D01*
X84968340Y-71713664D02*
X84809964Y-71607841D01*
X84757233Y-71515336D01*
X84744095Y-71449286D01*
X84744274Y-71277594D01*
X84810503Y-71092763D01*
X85022149Y-70776012D01*
X85114654Y-70723281D01*
X85180704Y-70710142D01*
X85286347Y-70723460D01*
X85444722Y-70829283D01*
X85497454Y-70921788D01*
X85510592Y-70987838D01*
X85497275Y-71093481D01*
X85364996Y-71291450D01*
X85272491Y-71344182D01*
X85206441Y-71357320D01*
X85100798Y-71344002D01*
X84942423Y-71238179D01*
X84889691Y-71145674D01*
X84876553Y-71079625D01*
X84889870Y-70973981D01*
%TO.C,R19*%
X142023864Y-149346044D02*
X141670298Y-149230364D01*
X141917703Y-148996077D02*
X141305261Y-149181859D01*
X141376035Y-149415170D01*
X141422893Y-149464651D01*
X141460903Y-149484968D01*
X141528078Y-149496439D01*
X141615570Y-149469898D01*
X141665051Y-149423041D01*
X141685368Y-149385030D01*
X141696838Y-149317856D01*
X141626064Y-149084545D01*
X142200800Y-149929321D02*
X142094638Y-149579355D01*
X142147719Y-149754338D02*
X141535277Y-149940120D01*
X141605075Y-149855252D01*
X141645709Y-149779231D01*
X141657180Y-149712056D01*
X142289267Y-150220960D02*
X142324654Y-150337616D01*
X142313184Y-150404791D01*
X142292867Y-150442801D01*
X142223069Y-150527669D01*
X142115260Y-150592220D01*
X141881949Y-150662995D01*
X141814774Y-150651524D01*
X141776763Y-150631207D01*
X141729906Y-150581726D01*
X141694519Y-150465070D01*
X141705989Y-150397896D01*
X141726306Y-150359885D01*
X141775787Y-150313028D01*
X141921607Y-150268794D01*
X141988782Y-150280264D01*
X142026792Y-150300581D01*
X142073650Y-150350062D01*
X142109037Y-150466718D01*
X142097566Y-150533893D01*
X142077249Y-150571903D01*
X142027768Y-150618761D01*
%TO.C,R13*%
X87627052Y-134773747D02*
X87598622Y-134402826D01*
X87909753Y-134541740D02*
X87503741Y-134047014D01*
X87315274Y-134201685D01*
X87287491Y-134263911D01*
X87283267Y-134306803D01*
X87298376Y-134373254D01*
X87356378Y-134443929D01*
X87418604Y-134471712D01*
X87461496Y-134475937D01*
X87527947Y-134460827D01*
X87716414Y-134306156D01*
X87155884Y-135160425D02*
X87438585Y-134928418D01*
X87297234Y-135044421D02*
X86891223Y-134549695D01*
X86996341Y-134581702D01*
X87082126Y-134590151D01*
X87148576Y-134575042D01*
X86584963Y-134801035D02*
X86278704Y-135052376D01*
X86598284Y-135105506D01*
X86527609Y-135163508D01*
X86499826Y-135225734D01*
X86495601Y-135268626D01*
X86510710Y-135335077D01*
X86607380Y-135452869D01*
X86669606Y-135480652D01*
X86712498Y-135484876D01*
X86778949Y-135469767D01*
X86920300Y-135353764D01*
X86948083Y-135291537D01*
X86952307Y-135248645D01*
%TO.C,D4*%
X99448703Y-56627109D02*
X98617233Y-57182680D01*
X98749512Y-57380649D01*
X98868473Y-57472974D01*
X99000572Y-57499250D01*
X99106215Y-57485933D01*
X99291046Y-57419704D01*
X99409827Y-57340336D01*
X99541747Y-57194920D01*
X99594479Y-57102414D01*
X99620755Y-56970315D01*
X99580981Y-56825078D01*
X99448703Y-56627109D01*
X99688061Y-58185303D02*
X100242375Y-57814923D01*
X99239033Y-58198980D02*
X99700661Y-57604175D01*
X100044585Y-58118895D01*
%TO.C,D19*%
X142870751Y-148182684D02*
X141946871Y-148565368D01*
X142037987Y-148785339D01*
X142136650Y-148899099D01*
X142261084Y-148950641D01*
X142367296Y-148958189D01*
X142561496Y-148929291D01*
X142693479Y-148874622D01*
X142851233Y-148757736D01*
X142920998Y-148677296D01*
X142972541Y-148552861D01*
X142961866Y-148402655D01*
X142870751Y-148182684D01*
X143453888Y-149590501D02*
X143235211Y-149062569D01*
X143344550Y-149326535D02*
X142420670Y-149709218D01*
X142516207Y-149566561D01*
X142567749Y-149442126D01*
X142575297Y-149335915D01*
X143636118Y-150030443D02*
X143709010Y-150206420D01*
X143701462Y-150312632D01*
X143675690Y-150374849D01*
X143580154Y-150517507D01*
X143422400Y-150634393D01*
X143070446Y-150780177D01*
X142964234Y-150772629D01*
X142902017Y-150746858D01*
X142821576Y-150677092D01*
X142748684Y-150501115D01*
X142756233Y-150394904D01*
X142782004Y-150332686D01*
X142851769Y-150252246D01*
X143071741Y-150161131D01*
X143177952Y-150168679D01*
X143240169Y-150194450D01*
X143320610Y-150264216D01*
X143393502Y-150440193D01*
X143385954Y-150546404D01*
X143360182Y-150608622D01*
X143290417Y-150689062D01*
%TO.C,R25*%
X176303670Y-104666519D02*
X176061492Y-104948903D01*
X175939717Y-104630673D02*
X175876986Y-105267591D01*
X176119622Y-105291488D01*
X176183268Y-105267133D01*
X176216584Y-105239791D01*
X176252888Y-105182119D01*
X176261850Y-105091131D01*
X176237495Y-105027485D01*
X176210152Y-104994168D01*
X176152481Y-104957864D01*
X175909845Y-104933967D01*
X176489549Y-105266676D02*
X176516892Y-105299992D01*
X176574563Y-105336296D01*
X176726210Y-105351232D01*
X176789856Y-105326877D01*
X176823173Y-105299535D01*
X176859477Y-105241863D01*
X176865451Y-105181204D01*
X176844083Y-105087229D01*
X176515976Y-104687429D01*
X176910259Y-104726263D01*
X177423788Y-105419937D02*
X177120493Y-105390065D01*
X177120036Y-105083784D01*
X177147378Y-105117101D01*
X177205050Y-105153404D01*
X177356697Y-105168340D01*
X177420343Y-105143985D01*
X177453659Y-105116643D01*
X177489963Y-105058971D01*
X177504899Y-104907324D01*
X177480544Y-104843678D01*
X177453202Y-104810361D01*
X177395530Y-104774058D01*
X177243883Y-104759122D01*
X177180237Y-104783477D01*
X177146920Y-104810819D01*
%TO.C,D18*%
X133403996Y-150626733D02*
X132423210Y-150821823D01*
X132469660Y-151055343D01*
X132544235Y-151186166D01*
X132656223Y-151260994D01*
X132758921Y-151289118D01*
X132955027Y-151298662D01*
X133095139Y-151270792D01*
X133272666Y-151186928D01*
X133356784Y-151121643D01*
X133431612Y-151009655D01*
X133450446Y-150860253D01*
X133403996Y-150626733D01*
X133701276Y-152121263D02*
X133589796Y-151560814D01*
X133645536Y-151841038D02*
X132664751Y-152036129D01*
X132786283Y-151914851D01*
X132861111Y-151802862D01*
X132889235Y-151700164D01*
X133252308Y-152793192D02*
X133187024Y-152709074D01*
X133131029Y-152671660D01*
X133028331Y-152643535D01*
X132981627Y-152652825D01*
X132897509Y-152718110D01*
X132860095Y-152774104D01*
X132831971Y-152876802D01*
X132869131Y-153063618D01*
X132934415Y-153147736D01*
X132990409Y-153185150D01*
X133093107Y-153213274D01*
X133139812Y-153203984D01*
X133223930Y-153138700D01*
X133261344Y-153082706D01*
X133289468Y-152980008D01*
X133252308Y-152793192D01*
X133280432Y-152690494D01*
X133317846Y-152634499D01*
X133401964Y-152569215D01*
X133588780Y-152532055D01*
X133691478Y-152560179D01*
X133747472Y-152597593D01*
X133812756Y-152681711D01*
X133849916Y-152868528D01*
X133821792Y-152971226D01*
X133784378Y-153027220D01*
X133700260Y-153092504D01*
X133513444Y-153129664D01*
X133410746Y-153101540D01*
X133354752Y-153064126D01*
X133289468Y-152980008D01*
%TO.C,R33*%
X57213074Y-100969071D02*
X56908312Y-100755738D01*
X57213074Y-100603357D02*
X56573074Y-100603357D01*
X56573074Y-100847166D01*
X56603551Y-100908119D01*
X56634027Y-100938595D01*
X56694979Y-100969071D01*
X56786408Y-100969071D01*
X56847360Y-100938595D01*
X56877836Y-100908119D01*
X56908312Y-100847166D01*
X56908312Y-100603357D01*
X56573074Y-101182404D02*
X56573074Y-101578595D01*
X56816884Y-101365261D01*
X56816884Y-101456690D01*
X56847360Y-101517642D01*
X56877836Y-101548119D01*
X56938789Y-101578595D01*
X57091170Y-101578595D01*
X57152122Y-101548119D01*
X57182598Y-101517642D01*
X57213074Y-101456690D01*
X57213074Y-101273833D01*
X57182598Y-101212880D01*
X57152122Y-101182404D01*
X56573074Y-101791928D02*
X56573074Y-102188119D01*
X56816884Y-101974785D01*
X56816884Y-102066214D01*
X56847360Y-102127166D01*
X56877836Y-102157642D01*
X56938789Y-102188119D01*
X57091170Y-102188119D01*
X57152122Y-102157642D01*
X57182598Y-102127166D01*
X57213074Y-102066214D01*
X57213074Y-101883357D01*
X57182598Y-101822404D01*
X57152122Y-101791928D01*
%TO.C,R14*%
X94878940Y-141565114D02*
X94778693Y-141206866D01*
X95110947Y-141282413D02*
X94616220Y-140876401D01*
X94461549Y-141064869D01*
X94446439Y-141131319D01*
X94450664Y-141174212D01*
X94478447Y-141236438D01*
X94549122Y-141294439D01*
X94615573Y-141309549D01*
X94658465Y-141305324D01*
X94720691Y-141277541D01*
X94875363Y-141089074D01*
X94492262Y-142036282D02*
X94724269Y-141753581D01*
X94608265Y-141894932D02*
X94113539Y-141488920D01*
X94222882Y-141499805D01*
X94308666Y-141491356D01*
X94370893Y-141463573D01*
X93814434Y-142189659D02*
X94144252Y-142460334D01*
X93722636Y-141917196D02*
X94172682Y-142089412D01*
X93921342Y-142395672D01*
%TO.C,R1*%
X129668907Y-50322040D02*
X129386523Y-50079862D01*
X129704754Y-49958086D02*
X129067835Y-49895356D01*
X129043938Y-50137991D01*
X129068293Y-50201637D01*
X129095635Y-50234954D01*
X129153307Y-50271258D01*
X129244295Y-50280219D01*
X129307941Y-50255864D01*
X129341258Y-50228522D01*
X129377562Y-50170850D01*
X129401459Y-49928215D01*
X129609164Y-50928629D02*
X129645010Y-50564675D01*
X129627087Y-50746652D02*
X128990168Y-50683921D01*
X129087131Y-50632224D01*
X129153764Y-50577539D01*
X129190068Y-50519867D01*
%TO.C,D32*%
X138860176Y-50674255D02*
X137879391Y-50479165D01*
X137832941Y-50712685D01*
X137851775Y-50862087D01*
X137926603Y-50974075D01*
X138010721Y-51039360D01*
X138188248Y-51123224D01*
X138328360Y-51151094D01*
X138524466Y-51141550D01*
X138627164Y-51113426D01*
X138739152Y-51038598D01*
X138813726Y-50907775D01*
X138860176Y-50674255D01*
X137702881Y-51366542D02*
X137582111Y-51973695D01*
X138020773Y-51721086D01*
X137992903Y-51861199D01*
X138021027Y-51963897D01*
X138058441Y-52019891D01*
X138142559Y-52085175D01*
X138376080Y-52131625D01*
X138478778Y-52103501D01*
X138534772Y-52066087D01*
X138600056Y-51981969D01*
X138655796Y-51701744D01*
X138627672Y-51599046D01*
X138590258Y-51543052D01*
X137601199Y-52365907D02*
X137545205Y-52403321D01*
X137479921Y-52487439D01*
X137433470Y-52720960D01*
X137461594Y-52823658D01*
X137499009Y-52879652D01*
X137583127Y-52944936D01*
X137676535Y-52963516D01*
X137825937Y-52944682D01*
X138497866Y-52495713D01*
X138377096Y-53102866D01*
%TO.C,D2*%
X118562392Y-49973727D02*
X117581607Y-50168818D01*
X117628057Y-50402338D01*
X117702631Y-50533160D01*
X117814619Y-50607988D01*
X117917317Y-50636112D01*
X118113423Y-50645656D01*
X118253535Y-50617786D01*
X118431062Y-50533922D01*
X118515180Y-50468638D01*
X118590008Y-50356650D01*
X118608842Y-50207248D01*
X118562392Y-49973727D01*
X117860815Y-51084319D02*
X117823401Y-51140313D01*
X117795277Y-51243011D01*
X117841727Y-51476531D01*
X117907011Y-51560650D01*
X117963005Y-51598064D01*
X118065703Y-51626188D01*
X118159111Y-51607608D01*
X118289934Y-51533033D01*
X118738902Y-50861105D01*
X118859672Y-51468257D01*
%TO.C,R6*%
X85486291Y-69727307D02*
X85128043Y-69827554D01*
X85203590Y-69495300D02*
X84797578Y-69990027D01*
X84986046Y-70144698D01*
X85052496Y-70159807D01*
X85095389Y-70155583D01*
X85157615Y-70127800D01*
X85215617Y-70057125D01*
X85230726Y-69990674D01*
X85226501Y-69947782D01*
X85198718Y-69885556D01*
X85010251Y-69730884D01*
X85504331Y-70570044D02*
X85410097Y-70492708D01*
X85382314Y-70430482D01*
X85378090Y-70387590D01*
X85388974Y-70278247D01*
X85442752Y-70164679D01*
X85597423Y-69976212D01*
X85659649Y-69948429D01*
X85702541Y-69944204D01*
X85768992Y-69959314D01*
X85863226Y-70036649D01*
X85891009Y-70098875D01*
X85895233Y-70141768D01*
X85880124Y-70208218D01*
X85783454Y-70326010D01*
X85721228Y-70353793D01*
X85678336Y-70358018D01*
X85611885Y-70342909D01*
X85517651Y-70265573D01*
X85489868Y-70203347D01*
X85485644Y-70160455D01*
X85500753Y-70094004D01*
%TO.C,D14*%
X96309522Y-141619086D02*
X95478052Y-141063516D01*
X95345773Y-141261485D01*
X95306000Y-141406722D01*
X95332276Y-141538821D01*
X95385008Y-141631326D01*
X95516927Y-141776743D01*
X95635709Y-141856110D01*
X95820540Y-141922339D01*
X95926183Y-141935657D01*
X96058282Y-141909381D01*
X96177243Y-141817055D01*
X96309522Y-141619086D01*
X95462938Y-142886088D02*
X95780407Y-142410962D01*
X95621673Y-142648525D02*
X94790203Y-142092955D01*
X94961896Y-142093134D01*
X95093995Y-142066858D01*
X95186500Y-142014126D01*
X94432422Y-143228396D02*
X94986735Y-143598776D01*
X94247950Y-142818781D02*
X94974136Y-143017648D01*
X94630212Y-143532367D01*
%TO.C,D16*%
X113960892Y-149812185D02*
X112980107Y-149617095D01*
X112933657Y-149850615D01*
X112952491Y-150000017D01*
X113027319Y-150112005D01*
X113111437Y-150177290D01*
X113288964Y-150261154D01*
X113429076Y-150289024D01*
X113625182Y-150279480D01*
X113727880Y-150251356D01*
X113839868Y-150176528D01*
X113914442Y-150045705D01*
X113960892Y-149812185D01*
X113663612Y-151306715D02*
X113775092Y-150746266D01*
X113719352Y-151026491D02*
X112738567Y-150831400D01*
X112897259Y-150765862D01*
X113009247Y-150691034D01*
X113074531Y-150606916D01*
X112515606Y-151952298D02*
X112552766Y-151765482D01*
X112618051Y-151681363D01*
X112674045Y-151643949D01*
X112832737Y-151578411D01*
X113028843Y-151568867D01*
X113402476Y-151643187D01*
X113486594Y-151708472D01*
X113524008Y-151764466D01*
X113552132Y-151867164D01*
X113514972Y-152053980D01*
X113449688Y-152138098D01*
X113393694Y-152175512D01*
X113290995Y-152203636D01*
X113057475Y-152157186D01*
X112973357Y-152091902D01*
X112935943Y-152035908D01*
X112907819Y-151933210D01*
X112944979Y-151746394D01*
X113010263Y-151662275D01*
X113066257Y-151624861D01*
X113168955Y-151596737D01*
%TO.C,D26*%
X177569182Y-94085460D02*
X177374092Y-93104674D01*
X177140572Y-93151124D01*
X177009749Y-93225699D01*
X176934921Y-93337687D01*
X176906797Y-93440385D01*
X176897253Y-93636491D01*
X176925123Y-93776603D01*
X177008987Y-93954130D01*
X177074272Y-94038248D01*
X177186260Y-94113076D01*
X177335662Y-94131910D01*
X177569182Y-94085460D01*
X176458591Y-93383883D02*
X176402597Y-93346469D01*
X176299898Y-93318345D01*
X176066378Y-93364795D01*
X175982260Y-93430079D01*
X175944846Y-93486073D01*
X175916722Y-93588771D01*
X175935302Y-93682179D01*
X176009876Y-93813001D01*
X176681805Y-94261970D01*
X176074652Y-94382740D01*
X175038889Y-93569175D02*
X175225705Y-93532015D01*
X175328403Y-93560139D01*
X175384397Y-93597553D01*
X175505675Y-93719085D01*
X175589540Y-93896612D01*
X175663860Y-94270244D01*
X175635736Y-94372942D01*
X175598322Y-94428936D01*
X175514204Y-94494220D01*
X175327387Y-94531380D01*
X175224689Y-94503256D01*
X175168695Y-94465842D01*
X175103411Y-94381724D01*
X175056961Y-94148204D01*
X175085085Y-94045506D01*
X175122499Y-93989512D01*
X175206617Y-93924228D01*
X175393433Y-93887068D01*
X175496131Y-93915192D01*
X175552126Y-93952606D01*
X175617410Y-94036724D01*
%TO.C,R21*%
X159149094Y-139457502D02*
X158778173Y-139485932D01*
X158917087Y-139174801D02*
X158422361Y-139580813D01*
X158577032Y-139769280D01*
X158639258Y-139797063D01*
X158682150Y-139801287D01*
X158748601Y-139786178D01*
X158819276Y-139728176D01*
X158847059Y-139665950D01*
X158851284Y-139623058D01*
X158836174Y-139556607D01*
X158681503Y-139368140D01*
X158856155Y-140013313D02*
X158851931Y-140056205D01*
X158867040Y-140122656D01*
X158963709Y-140240448D01*
X159025936Y-140268231D01*
X159068828Y-140272456D01*
X159135279Y-140257346D01*
X159182396Y-140218679D01*
X159233737Y-140137119D01*
X159284431Y-139622411D01*
X159535772Y-139928670D01*
X159922450Y-140399839D02*
X159690443Y-140117138D01*
X159806446Y-140258488D02*
X159311719Y-140664500D01*
X159343727Y-140559381D01*
X159352176Y-140473597D01*
X159337067Y-140407146D01*
%TO.C,R23*%
X171186560Y-123768139D02*
X170854754Y-123936351D01*
X170864029Y-123595743D02*
X170562335Y-124160172D01*
X170777356Y-124275103D01*
X170845478Y-124276958D01*
X170886722Y-124264447D01*
X170942332Y-124225058D01*
X170985431Y-124144426D01*
X170987286Y-124076304D01*
X170974775Y-124035060D01*
X170935386Y-123979450D01*
X170720366Y-123864519D01*
X171128620Y-124393745D02*
X171141131Y-124434989D01*
X171180520Y-124490599D01*
X171314908Y-124562431D01*
X171383030Y-124564286D01*
X171424274Y-124551775D01*
X171479884Y-124512386D01*
X171508617Y-124458631D01*
X171524838Y-124363632D01*
X171374704Y-123868704D01*
X171724112Y-124055467D01*
X171610562Y-124720461D02*
X171959971Y-124907224D01*
X171886758Y-124591638D01*
X171967391Y-124634738D01*
X172035513Y-124636593D01*
X172076757Y-124624082D01*
X172132367Y-124584693D01*
X172204199Y-124450305D01*
X172206054Y-124382183D01*
X172193543Y-124340939D01*
X172154154Y-124285329D01*
X171992888Y-124199131D01*
X171924767Y-124197275D01*
X171883523Y-124209787D01*
%TO.C,R31*%
X149042053Y-55445259D02*
X148873841Y-55113453D01*
X149214449Y-55122728D02*
X148650020Y-54821034D01*
X148535089Y-55036055D01*
X148533234Y-55104177D01*
X148545745Y-55145421D01*
X148585134Y-55201031D01*
X148665766Y-55244130D01*
X148733888Y-55245985D01*
X148775132Y-55233474D01*
X148830742Y-55194085D01*
X148945673Y-54979065D01*
X148377059Y-55331709D02*
X148190296Y-55681118D01*
X148505881Y-55607905D01*
X148462782Y-55688538D01*
X148460927Y-55756660D01*
X148473438Y-55797904D01*
X148512827Y-55853514D01*
X148647215Y-55925346D01*
X148715336Y-55927201D01*
X148756580Y-55914690D01*
X148812191Y-55875301D01*
X148898389Y-55714035D01*
X148900244Y-55645914D01*
X148887733Y-55604670D01*
X148467398Y-56520363D02*
X148639794Y-56197832D01*
X148553596Y-56359098D02*
X147989166Y-56057404D01*
X148098532Y-56046748D01*
X148181020Y-56021725D01*
X148236630Y-55982337D01*
%TO.C,D29*%
X164799001Y-66508733D02*
X164091894Y-65801627D01*
X163923535Y-65969985D01*
X163856192Y-66104672D01*
X163856192Y-66239359D01*
X163889864Y-66340375D01*
X163990879Y-66508733D01*
X164091894Y-66609749D01*
X164260253Y-66710764D01*
X164361268Y-66744436D01*
X164495955Y-66744436D01*
X164630642Y-66677092D01*
X164799001Y-66508733D01*
X163485802Y-66542405D02*
X163418459Y-66542405D01*
X163317444Y-66576077D01*
X163149085Y-66744436D01*
X163115413Y-66845451D01*
X163115413Y-66912794D01*
X163149085Y-67013810D01*
X163216428Y-67081153D01*
X163351115Y-67148497D01*
X164159238Y-67148497D01*
X163721505Y-67586230D01*
X163384787Y-67922947D02*
X163250100Y-68057634D01*
X163149085Y-68091306D01*
X163081741Y-68091306D01*
X162913383Y-68057634D01*
X162745024Y-67956619D01*
X162475650Y-67687245D01*
X162441978Y-67586230D01*
X162441978Y-67518886D01*
X162475650Y-67417871D01*
X162610337Y-67283184D01*
X162711352Y-67249512D01*
X162778696Y-67249512D01*
X162879711Y-67283184D01*
X163048070Y-67451543D01*
X163081741Y-67552558D01*
X163081741Y-67619901D01*
X163048070Y-67720917D01*
X162913383Y-67855604D01*
X162812367Y-67889275D01*
X162745024Y-67889275D01*
X162644009Y-67855604D01*
%TO.C,R16*%
X112661375Y-150278201D02*
X112431663Y-149985586D01*
X112767536Y-149928234D02*
X112155094Y-149742452D01*
X112084320Y-149975763D01*
X112095791Y-150042938D01*
X112116108Y-150080949D01*
X112165589Y-150127806D01*
X112253080Y-150154346D01*
X112320255Y-150142876D01*
X112358266Y-150122559D01*
X112405123Y-150073078D01*
X112475897Y-149839767D01*
X112484439Y-150861479D02*
X112590601Y-150511512D01*
X112537520Y-150686496D02*
X111925078Y-150500714D01*
X112030264Y-150468926D01*
X112106285Y-150428292D01*
X112153142Y-150378811D01*
X111712756Y-151200647D02*
X111748143Y-151083991D01*
X111795000Y-151034510D01*
X111833011Y-151014193D01*
X111938196Y-150982406D01*
X112063699Y-150988629D01*
X112297010Y-151059403D01*
X112346491Y-151106261D01*
X112366808Y-151144271D01*
X112378278Y-151211446D01*
X112342891Y-151328101D01*
X112296034Y-151377583D01*
X112258023Y-151397900D01*
X112190848Y-151409370D01*
X112045029Y-151365136D01*
X111995548Y-151318279D01*
X111975231Y-151280268D01*
X111963761Y-151213093D01*
X111999148Y-151096438D01*
X112046005Y-151046957D01*
X112084016Y-151026640D01*
X112151190Y-151015169D01*
%TO.C,R11*%
X77738510Y-117648517D02*
X77854190Y-117294951D01*
X78088477Y-117542356D02*
X77902695Y-116929914D01*
X77669384Y-117000688D01*
X77619903Y-117047546D01*
X77599586Y-117085556D01*
X77588115Y-117152731D01*
X77614656Y-117240223D01*
X77661513Y-117289704D01*
X77699524Y-117310021D01*
X77766698Y-117321491D01*
X78000009Y-117250717D01*
X77155233Y-117825453D02*
X77505199Y-117719291D01*
X77330216Y-117772372D02*
X77144434Y-117159930D01*
X77229302Y-117229728D01*
X77305323Y-117270362D01*
X77372498Y-117281833D01*
X76571955Y-118002388D02*
X76921921Y-117896227D01*
X76746938Y-117949307D02*
X76561156Y-117336866D01*
X76646024Y-117406664D01*
X76722045Y-117447298D01*
X76789220Y-117458768D01*
%TO.C,D21*%
X159489639Y-138057946D02*
X158782533Y-138765053D01*
X158950891Y-138933412D01*
X159085578Y-139000755D01*
X159220265Y-139000755D01*
X159321281Y-138967083D01*
X159489639Y-138866068D01*
X159590655Y-138765053D01*
X159691670Y-138596694D01*
X159725342Y-138495679D01*
X159725342Y-138360992D01*
X159657998Y-138226305D01*
X159489639Y-138057946D01*
X159523311Y-139371145D02*
X159523311Y-139438488D01*
X159556983Y-139539503D01*
X159725342Y-139707862D01*
X159826357Y-139741534D01*
X159893700Y-139741534D01*
X159994716Y-139707862D01*
X160062059Y-139640519D01*
X160129403Y-139505832D01*
X160129403Y-138697709D01*
X160567136Y-139135442D01*
X161240571Y-139808877D02*
X160836510Y-139404816D01*
X161038540Y-139606847D02*
X160331433Y-140313954D01*
X160365105Y-140145595D01*
X160365105Y-140010908D01*
X160331433Y-139909893D01*
D12*
%TO.C,D27*%
X170693692Y-81083127D02*
X173927271Y-79743735D01*
X171852075Y-83879711D02*
X175085654Y-82540319D01*
D13*
X170071527Y-83128698D02*
G75*
G03*
X170071527Y-83128698I-100000J0D01*
G01*
D12*
%TO.C,D22*%
X165876652Y-129991358D02*
X168786795Y-131935854D01*
X167558363Y-127474500D02*
X170468506Y-129418996D01*
D13*
X165556319Y-128010499D02*
G75*
G03*
X165556319Y-128010499I-100000J0D01*
G01*
D12*
%TO.C,D15*%
X105467159Y-146309660D02*
X104127767Y-149543239D01*
X108263743Y-147468043D02*
X106924351Y-150701622D01*
D13*
X107427954Y-145510958D02*
G75*
G03*
X107427954Y-145510958I-100000J0D01*
G01*
%TO.C,R7*%
X79260981Y-76462971D02*
G75*
G03*
X79260981Y-76462971I-100000J0D01*
G01*
D14*
%TO.C,R37*%
X116328071Y-65125639D02*
X115931831Y-65125639D01*
X115931831Y-65125639D02*
X115931831Y-64526199D01*
X116328071Y-65125639D02*
X116328071Y-64526199D01*
X116328071Y-64526199D02*
X115931831Y-64526199D01*
D13*
%TO.C,R3*%
X110501759Y-50824326D02*
G75*
G03*
X110501759Y-50824326I-100000J0D01*
G01*
D12*
%TO.C,D20*%
X154375390Y-141492620D02*
X156319886Y-144402763D01*
X151858532Y-143174331D02*
X153803028Y-146084474D01*
D13*
X152328237Y-141183401D02*
G75*
G03*
X152328237Y-141183401I-100000J0D01*
G01*
D14*
%TO.C,C2*%
X135156831Y-128526199D02*
X135156831Y-129125639D01*
X135156831Y-129125639D02*
X135553071Y-129125639D01*
X135156831Y-128526199D02*
X135553071Y-128526199D01*
X135553071Y-128526199D02*
X135553071Y-129125639D01*
D13*
%TO.C,R8*%
X75299673Y-86026412D02*
G75*
G03*
X75299673Y-86026412I-100000J0D01*
G01*
%TO.C,R35*%
X193229951Y-99598500D02*
G75*
G03*
X193229951Y-99598500I-100000J0D01*
G01*
D12*
%TO.C,D9*%
X76434636Y-99832419D02*
X72934636Y-99832419D01*
X76434636Y-102859419D02*
X72934636Y-102859419D01*
D13*
X77984636Y-101245919D02*
G75*
G03*
X77984636Y-101245919I-100000J0D01*
G01*
D14*
%TO.C,C1*%
X116328071Y-74525639D02*
X115931831Y-74525639D01*
X116328071Y-73926199D02*
X115931831Y-73926199D01*
X115931831Y-74525639D02*
X115931831Y-73926199D01*
X116328071Y-74525639D02*
X116328071Y-73926199D01*
D13*
%TO.C,R18*%
X131005648Y-153904338D02*
G75*
G03*
X131005648Y-153904338I-100000J0D01*
G01*
D12*
%TO.C,D12*%
X83901539Y-127474500D02*
X80991396Y-129418996D01*
X85583250Y-129991358D02*
X82673107Y-131935854D01*
D13*
X85992469Y-127844205D02*
G75*
G03*
X85992469Y-127844205I-100000J0D01*
G01*
D15*
%TO.C,U1*%
X133539951Y-69604604D02*
X133539951Y-73464604D01*
X117919951Y-69604604D02*
X117919951Y-73464604D01*
X117919951Y-69604604D02*
X117919951Y-65744604D01*
X117919951Y-73464604D02*
X118184951Y-73464604D01*
X118184951Y-65744604D02*
X118184951Y-63929604D01*
X133539951Y-65744604D02*
X133274951Y-65744604D01*
X133539951Y-69604604D02*
X133539951Y-65744604D01*
X117919951Y-65744604D02*
X118184951Y-65744604D01*
X133539951Y-73464604D02*
X133274951Y-73464604D01*
D13*
%TO.C,R29*%
X166647995Y-67856101D02*
G75*
G03*
X166647995Y-67856101I-100000J0D01*
G01*
D12*
%TO.C,D31*%
X145992743Y-56382178D02*
X147332135Y-53148599D01*
X143196159Y-55223795D02*
X144535551Y-51990216D01*
D13*
X144231948Y-57180880D02*
G75*
G03*
X144231948Y-57180880I-100000J0D01*
G01*
D12*
%TO.C,D10*%
X77677100Y-112447376D02*
X74244352Y-113130193D01*
X77086562Y-109478539D02*
X73653814Y-110161356D01*
D13*
X78884461Y-110581998D02*
G75*
G03*
X78884461Y-110581998I-100000J0D01*
G01*
%TO.C,R12*%
X79260981Y-126246237D02*
G75*
G03*
X79260981Y-126246237I-100000J0D01*
G01*
%TO.C,R20*%
X150721584Y-147923574D02*
G75*
G03*
X150721584Y-147923574I-100000J0D01*
G01*
D12*
%TO.C,D33*%
X53079951Y-102859419D02*
X56579951Y-102859419D01*
X53079951Y-99832419D02*
X56579951Y-99832419D01*
D13*
X51729951Y-101445919D02*
G75*
G03*
X51729951Y-101445919I-100000J0D01*
G01*
%TO.C,R17*%
X120654254Y-153904338D02*
G75*
G03*
X120654254Y-153904338I-100000J0D01*
G01*
D12*
%TO.C,D5*%
X91943106Y-65418662D02*
X89468232Y-62943788D01*
X89802694Y-67559074D02*
X87327820Y-65084200D01*
D13*
X92068915Y-67443462D02*
G75*
G03*
X92068915Y-67443462I-100000J0D01*
G01*
%TO.C,R22*%
X166647995Y-134853107D02*
G75*
G03*
X166647995Y-134853107I-100000J0D01*
G01*
D12*
%TO.C,D17*%
X127243451Y-150641234D02*
X127243451Y-154141234D01*
X124216451Y-150641234D02*
X124216451Y-154141234D01*
D13*
X125729951Y-149191234D02*
G75*
G03*
X125729951Y-149191234I-100000J0D01*
G01*
%TO.C,R28*%
X172398921Y-76462971D02*
G75*
G03*
X172398921Y-76462971I-100000J0D01*
G01*
D12*
%TO.C,D7*%
X79607827Y-83879711D02*
X76374248Y-82540319D01*
X80766210Y-81083127D02*
X77532631Y-79743735D01*
D13*
X81664912Y-82943922D02*
G75*
G03*
X81664912Y-82943922I-100000J0D01*
G01*
D12*
%TO.C,D35*%
X198379951Y-102859419D02*
X194879951Y-102859419D01*
X198379951Y-99832419D02*
X194879951Y-99832419D01*
D13*
X199929951Y-101245919D02*
G75*
G03*
X199929951Y-101245919I-100000J0D01*
G01*
D14*
%TO.C,R38*%
X131128071Y-76662280D02*
X131128071Y-77261720D01*
X130731831Y-76662280D02*
X131128071Y-76662280D01*
X130731831Y-77261720D02*
X131128071Y-77261720D01*
X130731831Y-76662280D02*
X130731831Y-77261720D01*
D12*
%TO.C,D24*%
X173782802Y-112447376D02*
X177215550Y-113130193D01*
X174373340Y-109478539D02*
X177806088Y-110161356D01*
D13*
X172736424Y-110778155D02*
G75*
G03*
X172736424Y-110778155I-100001J0D01*
G01*
D14*
%TO.C,R40*%
X120728071Y-126925639D02*
X120331831Y-126925639D01*
X120728071Y-126326199D02*
X120331831Y-126326199D01*
X120728071Y-126925639D02*
X120728071Y-126326199D01*
X120331831Y-126925639D02*
X120331831Y-126326199D01*
D12*
%TO.C,D11*%
X79607827Y-118812127D02*
X76374248Y-120151519D01*
X80766210Y-121608711D02*
X77532631Y-122948103D01*
D13*
X81588375Y-119563140D02*
G75*
G03*
X81588375Y-119563140I-100000J0D01*
G01*
D12*
%TO.C,D13*%
X91943106Y-137273176D02*
X89468232Y-139748050D01*
X89802694Y-135132764D02*
X87327820Y-137607638D01*
D13*
X91927494Y-135106955D02*
G75*
G03*
X91927494Y-135106955I-100000J0D01*
G01*
%TO.C,R4*%
X100938318Y-54785634D02*
G75*
G03*
X100938318Y-54785634I-100000J0D01*
G01*
%TO.C,R30*%
X159328454Y-60536560D02*
G75*
G03*
X159328454Y-60536560I-100000J0D01*
G01*
D14*
%TO.C,R39*%
X135131831Y-137926199D02*
X135528071Y-137926199D01*
X135131831Y-138525639D02*
X135528071Y-138525639D01*
X135528071Y-137926199D02*
X135528071Y-138525639D01*
X135131831Y-137926199D02*
X135131831Y-138525639D01*
D13*
%TO.C,R27*%
X176360229Y-86026412D02*
G75*
G03*
X176360229Y-86026412I-100000J0D01*
G01*
D12*
%TO.C,D34*%
X124216451Y-178996000D02*
X124216451Y-175496000D01*
X127243451Y-178996000D02*
X127243451Y-175496000D01*
D13*
X125929951Y-180446000D02*
G75*
G03*
X125929951Y-180446000I-100000J0D01*
G01*
D12*
%TO.C,D30*%
X154375390Y-61199218D02*
X156319886Y-58289075D01*
X151858532Y-59517507D02*
X153803028Y-56607364D01*
D13*
X152494531Y-61619551D02*
G75*
G03*
X152494531Y-61619551I-100000J0D01*
G01*
%TO.C,R26*%
X178379685Y-96178907D02*
G75*
G03*
X178379685Y-96178907I-100000J0D01*
G01*
%TO.C,R32*%
X141158143Y-50824326D02*
G75*
G03*
X141158143Y-50824326I-100000J0D01*
G01*
D12*
%TO.C,D3*%
X105467159Y-56382178D02*
X104127767Y-53148599D01*
X108263743Y-55223795D02*
X106924351Y-51990216D01*
D13*
X107612730Y-57104343D02*
G75*
G03*
X107612730Y-57104343I-100000J0D01*
G01*
D12*
%TO.C,D1*%
X124216451Y-52050604D02*
X124216451Y-48550604D01*
X127243451Y-52050604D02*
X127243451Y-48550604D01*
D13*
X125929951Y-53500604D02*
G75*
G03*
X125929951Y-53500604I-100000J0D01*
G01*
%TO.C,R5*%
X92331448Y-60536560D02*
G75*
G03*
X92331448Y-60536560I-100000J0D01*
G01*
%TO.C,R24*%
X176360229Y-116682796D02*
G75*
G03*
X176360229Y-116682796I-100000J0D01*
G01*
%TO.C,R2*%
X120654254Y-48804870D02*
G75*
G03*
X120654254Y-48804870I-100000J0D01*
G01*
%TO.C,R10*%
X73280217Y-106530301D02*
G75*
G03*
X73280217Y-106530301I-100000J0D01*
G01*
%TO.C,R9*%
X73280217Y-96178907D02*
G75*
G03*
X73280217Y-96178907I-100000J0D01*
G01*
D12*
%TO.C,D28*%
X165876652Y-72700480D02*
X168786795Y-70755984D01*
X167558363Y-75217338D02*
X170468506Y-73272842D01*
D13*
X165667433Y-74847633D02*
G75*
G03*
X165667433Y-74847633I-100000J0D01*
G01*
D12*
%TO.C,D8*%
X77677100Y-90244462D02*
X74244352Y-89561645D01*
X77086562Y-93213299D02*
X73653814Y-92530482D01*
D13*
X78923480Y-91913683D02*
G75*
G03*
X78923480Y-91913683I-100001J0D01*
G01*
D12*
%TO.C,D25*%
X175025266Y-102859419D02*
X178525266Y-102859419D01*
X175025266Y-99832419D02*
X178525266Y-99832419D01*
D13*
X173675266Y-101445919D02*
G75*
G03*
X173675266Y-101445919I-100000J0D01*
G01*
D15*
%TO.C,U2*%
X133539951Y-137446335D02*
X133274951Y-137446335D01*
X133274951Y-137446335D02*
X133274951Y-139261335D01*
X133539951Y-129726335D02*
X133274951Y-129726335D01*
X133539951Y-133586335D02*
X133539951Y-137446335D01*
X117919951Y-133586335D02*
X117919951Y-137446335D01*
X117919951Y-137446335D02*
X118184951Y-137446335D01*
X117919951Y-129726335D02*
X118184951Y-129726335D01*
X117919951Y-133586335D02*
X117919951Y-129726335D01*
X133539951Y-133586335D02*
X133539951Y-129726335D01*
D13*
%TO.C,R15*%
X100938318Y-147923574D02*
G75*
G03*
X100938318Y-147923574I-100000J0D01*
G01*
D12*
%TO.C,D23*%
X170693692Y-121608711D02*
X173927271Y-122948103D01*
X171852075Y-118812127D02*
X175085654Y-120151519D01*
D13*
X169994990Y-119747916D02*
G75*
G03*
X169994990Y-119747916I-100000J0D01*
G01*
%TO.C,R34*%
X127579951Y-173746000D02*
G75*
G03*
X127579951Y-173746000I-100000J0D01*
G01*
D12*
%TO.C,D6*%
X85583250Y-72700480D02*
X82673107Y-70755984D01*
X83901539Y-75217338D02*
X80991396Y-73272842D01*
D13*
X86103583Y-74681339D02*
G75*
G03*
X86103583Y-74681339I-100000J0D01*
G01*
%TO.C,R19*%
X141158143Y-151884882D02*
G75*
G03*
X141158143Y-151884882I-100000J0D01*
G01*
%TO.C,R13*%
X85011907Y-134853107D02*
G75*
G03*
X85011907Y-134853107I-100000J0D01*
G01*
D12*
%TO.C,D4*%
X99601370Y-59517507D02*
X97656874Y-56607364D01*
X97084512Y-61199218D02*
X95140016Y-58289075D01*
D13*
X99331665Y-61508437D02*
G75*
G03*
X99331665Y-61508437I-100000J0D01*
G01*
D12*
%TO.C,D19*%
X143196159Y-147468043D02*
X144535551Y-150701622D01*
X145992743Y-146309660D02*
X147332135Y-149543239D01*
D13*
X144047172Y-145587495D02*
G75*
G03*
X144047172Y-145587495I-100000J0D01*
G01*
%TO.C,R25*%
X178379685Y-106530301D02*
G75*
G03*
X178379685Y-106530301I-100000J0D01*
G01*
D12*
%TO.C,D18*%
X133862571Y-149989308D02*
X134545388Y-153422056D01*
X136831408Y-149398770D02*
X137514225Y-152831518D01*
D13*
X135066030Y-148291409D02*
G75*
G03*
X135066030Y-148291409I-100000J0D01*
G01*
%TO.C,R33*%
X58429951Y-99598500D02*
G75*
G03*
X58429951Y-99598500I-100000J0D01*
G01*
%TO.C,R14*%
X92331448Y-142172648D02*
G75*
G03*
X92331448Y-142172648I-100000J0D01*
G01*
%TO.C,R1*%
X131005648Y-48804870D02*
G75*
G03*
X131005648Y-48804870I-100000J0D01*
G01*
D12*
%TO.C,D32*%
X133862571Y-52702530D02*
X134545388Y-49269782D01*
X136831408Y-53293068D02*
X137514225Y-49860320D01*
D13*
X135262188Y-54439447D02*
G75*
G03*
X135262188Y-54439447I-100001J0D01*
G01*
D12*
%TO.C,D2*%
X114628494Y-53293068D02*
X113945677Y-49860320D01*
X117597331Y-52702530D02*
X116914514Y-49269782D01*
D13*
X116593872Y-54400429D02*
G75*
G03*
X116593872Y-54400429I-100000J0D01*
G01*
%TO.C,R6*%
X85011907Y-67856101D02*
G75*
G03*
X85011907Y-67856101I-100000J0D01*
G01*
D12*
%TO.C,D14*%
X99601370Y-143174331D02*
X97656874Y-146084474D01*
X97084512Y-141492620D02*
X95140016Y-144402763D01*
D13*
X99165371Y-141072287D02*
G75*
G03*
X99165371Y-141072287I-100000J0D01*
G01*
D12*
%TO.C,D16*%
X117597331Y-149989308D02*
X116914514Y-153422056D01*
X114628494Y-149398770D02*
X113945677Y-152831518D01*
D13*
X116397716Y-148252391D02*
G75*
G03*
X116397716Y-148252391I-100001J0D01*
G01*
D12*
%TO.C,D26*%
X174373340Y-93213299D02*
X177806088Y-92530482D01*
X173782802Y-90244462D02*
X177215550Y-89561645D01*
D13*
X172775441Y-92109840D02*
G75*
G03*
X172775441Y-92109840I-100000J0D01*
G01*
%TO.C,R21*%
X159328454Y-142172648D02*
G75*
G03*
X159328454Y-142172648I-100000J0D01*
G01*
%TO.C,R23*%
X172398921Y-126246237D02*
G75*
G03*
X172398921Y-126246237I-100000J0D01*
G01*
%TO.C,R31*%
X150721584Y-54785634D02*
G75*
G03*
X150721584Y-54785634I-100000J0D01*
G01*
D12*
%TO.C,D29*%
X161657208Y-67559074D02*
X164132082Y-65084200D01*
X159516796Y-65418662D02*
X161991670Y-62943788D01*
D13*
X159732408Y-67584883D02*
G75*
G03*
X159732408Y-67584883I-100000J0D01*
G01*
%TO.C,R16*%
X110501759Y-151884882D02*
G75*
G03*
X110501759Y-151884882I-100000J0D01*
G01*
%TO.C,R11*%
X75299673Y-116682796D02*
G75*
G03*
X75299673Y-116682796I-100000J0D01*
G01*
D12*
%TO.C,D21*%
X159516796Y-137273176D02*
X161991670Y-139748050D01*
X161657208Y-135132764D02*
X164132082Y-137607638D01*
D13*
X159590987Y-135248376D02*
G75*
G03*
X159590987Y-135248376I-100000J0D01*
G01*
%TD*%
%LPC*%
D16*
%TO.C,REF\u002A\u002A*%
X105410000Y-159258000D03*
%TD*%
D17*
%TO.C,SW1*%
X196723000Y-90373200D03*
X196723000Y-93091000D03*
X196723000Y-95808800D03*
%TD*%
D18*
%TO.C,J0*%
X62186320Y-94671000D03*
D19*
X62186320Y-87471000D03*
%TD*%
D20*
%TO.C,J1*%
X62186320Y-107740000D03*
D19*
X62186320Y-114940000D03*
%TD*%
D16*
%TO.C,J3*%
X47244000Y-105625900D03*
%TD*%
D17*
%TO.C,SW2*%
X196638320Y-106828200D03*
X196638320Y-109546000D03*
X196638320Y-112263800D03*
%TD*%
%TO.C,GATE1R1*%
X158129951Y-27198200D03*
X158129951Y-30093800D03*
%TD*%
D21*
%TO.C,SOLENOIDD2*%
X153974800Y-83286600D03*
D22*
X164134800Y-83286600D03*
%TD*%
D17*
%TO.C,MJ1*%
X118237000Y-160525919D03*
X117983000Y-163065919D03*
X118237000Y-165605919D03*
X117983000Y-168145919D03*
X118237000Y-170685919D03*
X117983000Y-173225919D03*
X118237000Y-175765919D03*
X117983000Y-178305919D03*
X118237000Y-180845919D03*
X117983000Y-183385919D03*
X118237000Y-185925919D03*
%TD*%
D23*
%TO.C,SOLENOIDQ2*%
X163906200Y-93502600D03*
D24*
X166446200Y-93502600D03*
X168986200Y-93502600D03*
%TD*%
D25*
%TO.C,SOLENOIDD1*%
X149656800Y-78663800D03*
D26*
X164896800Y-78663800D03*
%TD*%
D27*
%TO.C,BOOSTJ2*%
X181102000Y-86908000D03*
D16*
X181102000Y-91908000D03*
%TD*%
%TO.C,J4*%
X47244000Y-97066100D03*
%TD*%
D27*
%TO.C,BOOSTJ1*%
X70060320Y-108840000D03*
D16*
X70060320Y-113840000D03*
%TD*%
D17*
%TO.C,GATE1D1*%
X93129951Y-30093800D03*
X93129951Y-27198200D03*
%TD*%
D28*
%TO.C,J2*%
X81744000Y-105511600D03*
D19*
X88944000Y-105511600D03*
%TD*%
D17*
%TO.C,BUCKJ1*%
X70060320Y-88210213D03*
X69806320Y-90750213D03*
X70060320Y-93290213D03*
%TD*%
D25*
%TO.C,C4*%
X105410000Y-166497000D03*
D29*
X105410000Y-173997000D03*
%TD*%
D16*
%TO.C,SOLENOIDJ1*%
X187579000Y-91908000D03*
D27*
X187579000Y-86908000D03*
%TD*%
D17*
%TO.C,MJ2*%
X133477000Y-160521000D03*
X133223000Y-163061000D03*
X133477000Y-165601000D03*
X133223000Y-168141000D03*
X133477000Y-170681000D03*
X133223000Y-173221000D03*
X133477000Y-175761000D03*
X133223000Y-178301000D03*
X133477000Y-180841000D03*
X133223000Y-183381000D03*
X133477000Y-185921000D03*
%TD*%
D30*
%TO.C,D27*%
X171573145Y-82357047D03*
X174206201Y-81266399D03*
%TD*%
D31*
%TO.C,D22*%
X166987735Y-128913489D03*
X169357423Y-130496865D03*
%TD*%
D32*
%TO.C,D15*%
X106741079Y-147189113D03*
X105650431Y-149822169D03*
%TD*%
D33*
%TO.C,R7*%
X80042902Y-76934367D03*
X81365784Y-77641463D03*
%TD*%
D34*
%TO.C,R37*%
X116978311Y-64825919D03*
X115281591Y-64825919D03*
%TD*%
D35*
%TO.C,R3*%
X110692043Y-51781267D03*
X111127471Y-53216677D03*
%TD*%
D36*
%TO.C,D20*%
X153297521Y-142603703D03*
X154880897Y-144973391D03*
%TD*%
D37*
%TO.C,C2*%
X134506591Y-128825919D03*
X136203311Y-128825919D03*
%TD*%
D38*
%TO.C,R8*%
X76156614Y-86316696D03*
X77592024Y-86752124D03*
%TD*%
D39*
%TO.C,R35*%
X193129951Y-100598500D03*
X193129951Y-102098500D03*
%TD*%
D40*
%TO.C,D9*%
X76109636Y-101345919D03*
X73259636Y-101345919D03*
%TD*%
D34*
%TO.C,C1*%
X116978311Y-74225919D03*
X115281591Y-74225919D03*
%TD*%
D41*
%TO.C,R18*%
X130807631Y-152909154D03*
X130660605Y-151416376D03*
%TD*%
D42*
%TO.C,D12*%
X84472167Y-128913489D03*
X82102479Y-130496865D03*
%TD*%
D43*
%TO.C,U1*%
X118744951Y-64954604D03*
X120014951Y-64954604D03*
X121284951Y-64954604D03*
X122554951Y-64954604D03*
X123824951Y-64954604D03*
X125094951Y-64954604D03*
X126364951Y-64954604D03*
X127634951Y-64954604D03*
X128904951Y-64954604D03*
X130174951Y-64954604D03*
X131444951Y-64954604D03*
X132714951Y-64954604D03*
X132714951Y-74254604D03*
X131444951Y-74254604D03*
X130174951Y-74254604D03*
X128904951Y-74254604D03*
X127634951Y-74254604D03*
X126364951Y-74254604D03*
X125094951Y-74254604D03*
X123824951Y-74254604D03*
X122554951Y-74254604D03*
X121284951Y-74254604D03*
X120014951Y-74254604D03*
X118744951Y-74254604D03*
%TD*%
D44*
%TO.C,R29*%
X165774985Y-68490494D03*
X164615469Y-69442084D03*
%TD*%
D45*
%TO.C,D31*%
X144718823Y-55502725D03*
X145809471Y-52869669D03*
%TD*%
D46*
%TO.C,D10*%
X77063076Y-111026362D03*
X74267838Y-111582370D03*
%TD*%
D47*
%TO.C,R12*%
X80042902Y-125774841D03*
X81365784Y-125067745D03*
%TD*%
D48*
%TO.C,R20*%
X150150188Y-147041653D03*
X149443092Y-145718771D03*
%TD*%
D40*
%TO.C,D33*%
X53404951Y-101345919D03*
X56254951Y-101345919D03*
%TD*%
D49*
%TO.C,R17*%
X120652271Y-152909154D03*
X120799297Y-151416376D03*
%TD*%
D50*
%TO.C,D5*%
X90643090Y-66259058D03*
X88627836Y-64243804D03*
%TD*%
D51*
%TO.C,R22*%
X165774985Y-134218714D03*
X164615469Y-133267124D03*
%TD*%
D52*
%TO.C,D17*%
X125729951Y-150966234D03*
X125729951Y-153816234D03*
%TD*%
D53*
%TO.C,R28*%
X171417000Y-76934367D03*
X170094118Y-77641463D03*
%TD*%
D54*
%TO.C,D7*%
X79886757Y-82357047D03*
X77253701Y-81266399D03*
%TD*%
D40*
%TO.C,D35*%
X198054951Y-101345919D03*
X195204951Y-101345919D03*
%TD*%
D37*
%TO.C,R38*%
X130081591Y-76962000D03*
X131778311Y-76962000D03*
%TD*%
D55*
%TO.C,D24*%
X174396826Y-111026362D03*
X177192064Y-111582370D03*
%TD*%
D34*
%TO.C,R40*%
X121378311Y-126625919D03*
X119681591Y-126625919D03*
%TD*%
D56*
%TO.C,D11*%
X79886757Y-120334791D03*
X77253701Y-121425439D03*
%TD*%
D57*
%TO.C,D13*%
X90643090Y-136432780D03*
X88627836Y-138448034D03*
%TD*%
D58*
%TO.C,R4*%
X101309714Y-55667555D03*
X102016810Y-56990437D03*
%TD*%
D59*
%TO.C,R30*%
X158594061Y-61309570D03*
X157642471Y-62469086D03*
%TD*%
D37*
%TO.C,R39*%
X134481591Y-138225919D03*
X136178311Y-138225919D03*
%TD*%
D60*
%TO.C,R27*%
X175303288Y-86316696D03*
X173867878Y-86752124D03*
%TD*%
D52*
%TO.C,D34*%
X125729951Y-178671000D03*
X125729951Y-175821000D03*
%TD*%
D61*
%TO.C,D30*%
X153297521Y-60088135D03*
X154880897Y-57718447D03*
%TD*%
D62*
%TO.C,R26*%
X177284501Y-96276924D03*
X175791723Y-96423950D03*
%TD*%
D63*
%TO.C,R32*%
X140767859Y-51781267D03*
X140332431Y-53216677D03*
%TD*%
D64*
%TO.C,D3*%
X106741079Y-55502725D03*
X105650431Y-52869669D03*
%TD*%
D52*
%TO.C,D1*%
X125729951Y-51725604D03*
X125729951Y-48875604D03*
%TD*%
D65*
%TO.C,R5*%
X92865841Y-61309570D03*
X93817431Y-62469086D03*
%TD*%
D66*
%TO.C,R24*%
X175303288Y-116392512D03*
X173867878Y-115957084D03*
%TD*%
D67*
%TO.C,R2*%
X120652271Y-49800054D03*
X120799297Y-51292832D03*
%TD*%
D68*
%TO.C,R10*%
X74175401Y-106432284D03*
X75668179Y-106285258D03*
%TD*%
D69*
%TO.C,R9*%
X74175401Y-96276924D03*
X75668179Y-96423950D03*
%TD*%
D70*
%TO.C,D28*%
X166987735Y-73778349D03*
X169357423Y-72194973D03*
%TD*%
D71*
%TO.C,D8*%
X77063076Y-91665476D03*
X74267838Y-91109468D03*
%TD*%
D40*
%TO.C,D25*%
X175350266Y-101345919D03*
X178200266Y-101345919D03*
%TD*%
D72*
%TO.C,U2*%
X132714951Y-138236335D03*
X131444951Y-138236335D03*
X130174951Y-138236335D03*
X128904951Y-138236335D03*
X127634951Y-138236335D03*
X126364951Y-138236335D03*
X125094951Y-138236335D03*
X123824951Y-138236335D03*
X122554951Y-138236335D03*
X121284951Y-138236335D03*
X120014951Y-138236335D03*
X118744951Y-138236335D03*
X118744951Y-128936335D03*
X120014951Y-128936335D03*
X121284951Y-128936335D03*
X122554951Y-128936335D03*
X123824951Y-128936335D03*
X125094951Y-128936335D03*
X126364951Y-128936335D03*
X127634951Y-128936335D03*
X128904951Y-128936335D03*
X130174951Y-128936335D03*
X131444951Y-128936335D03*
X132714951Y-128936335D03*
%TD*%
D73*
%TO.C,R15*%
X101309714Y-147041653D03*
X102016810Y-145718771D03*
%TD*%
D74*
%TO.C,D23*%
X171573145Y-120334791D03*
X174206201Y-121425439D03*
%TD*%
D39*
%TO.C,R34*%
X126479951Y-173746000D03*
X124979951Y-173746000D03*
%TD*%
D75*
%TO.C,D6*%
X84472167Y-73778349D03*
X82102479Y-72194973D03*
%TD*%
D76*
%TO.C,R19*%
X140767859Y-150927941D03*
X140332431Y-149492531D03*
%TD*%
D77*
%TO.C,R13*%
X85684917Y-134218714D03*
X86844433Y-133267124D03*
%TD*%
D78*
%TO.C,D4*%
X98162381Y-60088135D03*
X96579005Y-57718447D03*
%TD*%
D79*
%TO.C,D19*%
X144718823Y-147189113D03*
X145809471Y-149822169D03*
%TD*%
D80*
%TO.C,R25*%
X177284501Y-106432284D03*
X175791723Y-106285258D03*
%TD*%
D81*
%TO.C,D18*%
X135410394Y-150012794D03*
X135966402Y-152808032D03*
%TD*%
D39*
%TO.C,R33*%
X58329951Y-100598500D03*
X58329951Y-102098500D03*
%TD*%
D82*
%TO.C,R14*%
X92865841Y-141399638D03*
X93817431Y-140240122D03*
%TD*%
D83*
%TO.C,R1*%
X130807631Y-49800054D03*
X130660605Y-51292832D03*
%TD*%
D84*
%TO.C,D32*%
X135410394Y-52679044D03*
X135966402Y-49883806D03*
%TD*%
D85*
%TO.C,D2*%
X116049508Y-52679044D03*
X115493500Y-49883806D03*
%TD*%
D86*
%TO.C,R6*%
X85684917Y-68490494D03*
X86844433Y-69442084D03*
%TD*%
D87*
%TO.C,D14*%
X98162381Y-142603703D03*
X96579005Y-144973391D03*
%TD*%
D88*
%TO.C,D16*%
X116049508Y-150012794D03*
X115493500Y-152808032D03*
%TD*%
D89*
%TO.C,D26*%
X174396826Y-91665476D03*
X177192064Y-91109468D03*
%TD*%
D90*
%TO.C,R21*%
X158594061Y-141399638D03*
X157642471Y-140240122D03*
%TD*%
D91*
%TO.C,R23*%
X171417000Y-125774841D03*
X170094118Y-125067745D03*
%TD*%
D92*
%TO.C,R31*%
X150150188Y-55667555D03*
X149443092Y-56990437D03*
%TD*%
D93*
%TO.C,D29*%
X160816812Y-66259058D03*
X162832066Y-64243804D03*
%TD*%
D94*
%TO.C,R16*%
X110692043Y-150927941D03*
X111127471Y-149492531D03*
%TD*%
D95*
%TO.C,R11*%
X76156614Y-116392512D03*
X77592024Y-115957084D03*
%TD*%
D96*
%TO.C,D21*%
X160816812Y-136432780D03*
X162832066Y-138448034D03*
%TD*%
M02*
