%TF.GenerationSoftware,KiCad,Pcbnew,(6.0.0-0)*%
%TF.CreationDate,2022-03-23T00:11:20+08:00*%
%TF.ProjectId,layer1,6c617965-7231-42e6-9b69-6361645f7063,rev?*%
%TF.SameCoordinates,Original*%
%TF.FileFunction,Profile,NP*%
%FSLAX46Y46*%
G04 Gerber Fmt 4.6, Leading zero omitted, Abs format (unit mm)*
G04 Created by KiCad (PCBNEW (6.0.0-0)) date 2022-03-23 00:11:20*
%MOMM*%
%LPD*%
G01*
G04 APERTURE LIST*
%TA.AperFunction,Profile*%
%ADD10C,0.200000*%
%TD*%
G04 APERTURE END LIST*
D10*
X204746019Y-66369567D02*
X190196306Y-78578269D01*
X173911223Y-29584198D02*
G75*
G03*
X173703585Y-26367411I-1285544J1532115D01*
G01*
X173932342Y-173101164D02*
X159366431Y-160884736D01*
X159342648Y-41808161D02*
G75*
G03*
X158726283Y-48852389I3213859J-3830290D01*
G01*
X190191307Y-124090925D02*
G75*
G03*
X183144711Y-124711259I-3213375J-3830693D01*
G01*
X46713981Y-66369567D02*
G75*
G03*
X43582130Y-67132710I-1285578J-1532087D01*
G01*
X43575090Y-135542383D02*
G75*
G03*
X46706872Y-136306097I1846432J768565D01*
G01*
X150655238Y-30926786D02*
X160244536Y-21395041D01*
X92117352Y-41808161D02*
X77548777Y-29584199D01*
X190191307Y-124090925D02*
X204753128Y-136306097D01*
X125730000Y-190364862D02*
G75*
G03*
X173725447Y-176317961I-2J89018870D01*
G01*
X143605485Y-33834467D02*
G75*
G03*
X150655238Y-30926786I-1J10000003D01*
G01*
X77527659Y-173101165D02*
G75*
G03*
X77734553Y-176317961I1285216J-1532390D01*
G01*
X61268693Y-124090925D02*
X46706872Y-136306097D01*
X92713750Y-153843399D02*
X68315289Y-124711259D01*
X125730000Y-33834467D02*
X107854515Y-33834469D01*
X207884911Y-135542383D02*
G75*
G03*
X207877870Y-67132710I-82154906J34196382D01*
G01*
X158746250Y-153843399D02*
X183144711Y-124711259D01*
X173725447Y-176317961D02*
G75*
G03*
X173932342Y-173101164I-1078322J1684406D01*
G01*
X183152139Y-77961991D02*
X158726283Y-48852389D01*
X68307861Y-77961991D02*
X92733717Y-48852389D01*
X87822954Y-20808372D02*
G75*
G03*
X77756415Y-26367411I37907002J-80537548D01*
G01*
X46713981Y-66369567D02*
X61263694Y-78578269D01*
X77756415Y-26367410D02*
G75*
G03*
X77548777Y-29584199I1077906J-1684673D01*
G01*
X183152139Y-77961991D02*
G75*
G03*
X190196306Y-78578269I3830222J3213940D01*
G01*
X163637046Y-20808372D02*
G75*
G03*
X160244536Y-21395041I-1277584J-2714366D01*
G01*
X92733717Y-48852389D02*
G75*
G03*
X92117352Y-41808161I-3830224J3213938D01*
G01*
X68315289Y-124711259D02*
G75*
G03*
X61268693Y-124090925I-3833221J-3210359D01*
G01*
X158746250Y-153843399D02*
G75*
G03*
X159366431Y-160884736I3833222J-3210361D01*
G01*
X159342648Y-41808161D02*
X173911223Y-29584199D01*
X77734553Y-176317961D02*
G75*
G03*
X125730000Y-190364862I47995449J74971969D01*
G01*
X207877870Y-67132710D02*
G75*
G03*
X204746019Y-66369567I-1846273J-768944D01*
G01*
X125730000Y-33834467D02*
X143605485Y-33834467D01*
X204753128Y-136306097D02*
G75*
G03*
X207884910Y-135542383I1285350J1532279D01*
G01*
X100804761Y-30926788D02*
G75*
G03*
X107854515Y-33834469I7049754J7092322D01*
G01*
X173703585Y-26367411D02*
G75*
G03*
X163637046Y-20808372I-47973541J-74978509D01*
G01*
X43582131Y-67132710D02*
G75*
G03*
X43575090Y-135542383I82147864J-34213291D01*
G01*
X91215464Y-21395042D02*
X100804761Y-30926788D01*
X91215464Y-21395042D02*
G75*
G03*
X87822954Y-20808372I-2114926J-2127694D01*
G01*
X92093569Y-160884736D02*
G75*
G03*
X92713750Y-153843399I-3213041J3830976D01*
G01*
X77527658Y-173101164D02*
X92093569Y-160884736D01*
X61263694Y-78578269D02*
G75*
G03*
X68307861Y-77961991I3213945J3830218D01*
G01*
X205964000Y-115352000D02*
G75*
G03*
X205964000Y-115352000I-1600000J0D01*
G01*
X172364000Y-98552000D02*
G75*
G03*
X172364000Y-98552000I-1600000J0D01*
G01*
X208283554Y-123385331D02*
G75*
G03*
X208283554Y-123385331I-1600000J0D01*
G01*
X178964934Y-125498349D02*
G75*
G03*
X178964934Y-125498349I-1600000J0D01*
G01*
X94578267Y-148002472D02*
G75*
G03*
X94578267Y-148002472I-1600000J0D01*
G01*
X90904544Y-176926395D02*
G75*
G03*
X90904544Y-176926395I-1600000J0D01*
G01*
X160081733Y-54689528D02*
G75*
G03*
X160081733Y-54689528I-1600000J0D01*
G01*
X149030000Y-71346000D02*
G75*
G03*
X149030000Y-71346000I-1600000J0D01*
G01*
X208283554Y-79306669D02*
G75*
G03*
X208283554Y-79306669I-1600000J0D01*
G01*
X46376446Y-79306669D02*
G75*
G03*
X46376446Y-79306669I-1600000J0D01*
G01*
X163755456Y-176926395D02*
G75*
G03*
X163755456Y-176926395I-1600000J0D01*
G01*
X105630000Y-71346000D02*
G75*
G03*
X105630000Y-71346000I-1600000J0D01*
G01*
X121330000Y-44334467D02*
G75*
G03*
X121330000Y-44334467I-1600000J0D01*
G01*
X160081733Y-148002472D02*
G75*
G03*
X160081733Y-148002472I-1600000J0D01*
G01*
X121330000Y-59334467D02*
G75*
G03*
X121330000Y-59334467I-1600000J0D01*
G01*
X90904544Y-25765605D02*
G75*
G03*
X90904544Y-25765605I-1600000J0D01*
G01*
X133330000Y-59334467D02*
G75*
G03*
X133330000Y-59334467I-1600000J0D01*
G01*
X94578267Y-54689528D02*
G75*
G03*
X94578267Y-54689528I-1600000J0D01*
G01*
X46376446Y-123385331D02*
G75*
G03*
X46376446Y-123385331I-1600000J0D01*
G01*
X75695066Y-125498349D02*
G75*
G03*
X75695066Y-125498349I-1600000J0D01*
G01*
X142330000Y-37346000D02*
G75*
G03*
X142330000Y-37346000I-1600000J0D01*
G01*
X75695066Y-77193651D02*
G75*
G03*
X75695066Y-77193651I-1600000J0D01*
G01*
X133330000Y-44334467D02*
G75*
G03*
X133330000Y-44334467I-1600000J0D01*
G01*
X163755456Y-25765605D02*
G75*
G03*
X163755456Y-25765605I-1600000J0D01*
G01*
X178964934Y-77193651D02*
G75*
G03*
X178964934Y-77193651I-1600000J0D01*
G01*
X112330000Y-37346000D02*
G75*
G03*
X112330000Y-37346000I-1600000J0D01*
G01*
M02*
