%TF.GenerationSoftware,KiCad,Pcbnew,(6.0.0-0)*%
%TF.CreationDate,2022-03-23T00:11:19+08:00*%
%TF.ProjectId,layer1,6c617965-7231-42e6-9b69-6361645f7063,rev?*%
%TF.SameCoordinates,Original*%
%TF.FileFunction,Soldermask,Top*%
%TF.FilePolarity,Negative*%
%FSLAX46Y46*%
G04 Gerber Fmt 4.6, Leading zero omitted, Abs format (unit mm)*
G04 Created by KiCad (PCBNEW (6.0.0-0)) date 2022-03-23 00:11:19*
%MOMM*%
%LPD*%
G01*
G04 APERTURE LIST*
G04 Aperture macros list*
%AMRoundRect*
0 Rectangle with rounded corners*
0 $1 Rounding radius*
0 $2 $3 $4 $5 $6 $7 $8 $9 X,Y pos of 4 corners*
0 Add a 4 corners polygon primitive as box body*
4,1,4,$2,$3,$4,$5,$6,$7,$8,$9,$2,$3,0*
0 Add four circle primitives for the rounded corners*
1,1,$1+$1,$2,$3*
1,1,$1+$1,$4,$5*
1,1,$1+$1,$6,$7*
1,1,$1+$1,$8,$9*
0 Add four rect primitives between the rounded corners*
20,1,$1+$1,$2,$3,$4,$5,0*
20,1,$1+$1,$4,$5,$6,$7,0*
20,1,$1+$1,$6,$7,$8,$9,0*
20,1,$1+$1,$8,$9,$2,$3,0*%
G04 Aperture macros list end*
%ADD10C,4.000000*%
%ADD11C,2.082800*%
%ADD12RoundRect,0.101600X0.499110X-0.549910X0.499110X0.549910X-0.499110X0.549910X-0.499110X-0.549910X0*%
%ADD13RoundRect,0.101600X-0.499110X0.549910X-0.499110X-0.549910X0.499110X-0.549910X0.499110X0.549910X0*%
%ADD14RoundRect,0.101600X-0.549910X-0.499110X0.549910X-0.499110X0.549910X0.499110X-0.549910X0.499110X0*%
%ADD15RoundRect,1.500000X1.500000X-1.500000X1.500000X1.500000X-1.500000X1.500000X-1.500000X-1.500000X0*%
%ADD16C,6.000000*%
%ADD17RoundRect,1.500000X-1.500000X1.500000X-1.500000X-1.500000X1.500000X-1.500000X1.500000X1.500000X0*%
%ADD18RoundRect,0.101600X0.549910X0.499110X-0.549910X0.499110X-0.549910X-0.499110X0.549910X-0.499110X0*%
%ADD19RoundRect,0.109200X-0.670800X0.030800X-0.670800X-0.030800X0.670800X-0.030800X0.670800X0.030800X0*%
%ADD20RoundRect,0.109200X0.030800X0.670800X-0.030800X0.670800X-0.030800X-0.670800X0.030800X-0.670800X0*%
%ADD21RoundRect,0.150000X-0.875000X-0.150000X0.875000X-0.150000X0.875000X0.150000X-0.875000X0.150000X0*%
%ADD22R,2.200000X2.200000*%
%ADD23O,2.200000X2.200000*%
%ADD24R,1.905000X2.000000*%
%ADD25O,1.905000X2.000000*%
%ADD26R,2.400000X2.400000*%
%ADD27O,2.400000X2.400000*%
%ADD28RoundRect,0.150000X-0.150000X-0.625000X0.150000X-0.625000X0.150000X0.625000X-0.150000X0.625000X0*%
%ADD29RoundRect,0.250000X-0.350000X-0.650000X0.350000X-0.650000X0.350000X0.650000X-0.350000X0.650000X0*%
%ADD30R,3.800000X3.800000*%
%ADD31RoundRect,0.101600X-0.398780X-0.449580X0.398780X-0.449580X0.398780X0.449580X-0.398780X0.449580X0*%
%ADD32RoundRect,0.200000X0.200000X0.800000X-0.200000X0.800000X-0.200000X-0.800000X0.200000X-0.800000X0*%
%ADD33RoundRect,1.500000X-1.500000X-1.500000X1.500000X-1.500000X1.500000X1.500000X-1.500000X1.500000X0*%
%ADD34RoundRect,0.101600X-1.198880X0.849630X-1.198880X-0.849630X1.198880X-0.849630X1.198880X0.849630X0*%
%ADD35C,2.400000*%
%ADD36RoundRect,0.150000X0.625000X-0.150000X0.625000X0.150000X-0.625000X0.150000X-0.625000X-0.150000X0*%
%ADD37RoundRect,0.250000X0.650000X-0.350000X0.650000X0.350000X-0.650000X0.350000X-0.650000X-0.350000X0*%
%ADD38RoundRect,0.101600X0.499110X0.499110X-0.499110X0.499110X-0.499110X-0.499110X0.499110X-0.499110X0*%
G04 APERTURE END LIST*
D10*
%TO.C,REF\u002A\u002A*%
X105410000Y-159258000D03*
%TD*%
D11*
%TO.C,SW1*%
X196723000Y-90373200D03*
X196723000Y-93091000D03*
X196723000Y-95808800D03*
%TD*%
D12*
%TO.C,U0FB2*%
X118879951Y-101894360D03*
X118879951Y-100197640D03*
%TD*%
D13*
%TO.C,U0C1*%
X119129951Y-93397640D03*
X119129951Y-95094360D03*
%TD*%
D14*
%TO.C,U0C6*%
X105781591Y-101146000D03*
X107478311Y-101146000D03*
%TD*%
D15*
%TO.C,J0*%
X62186320Y-94671000D03*
D16*
X62186320Y-87471000D03*
%TD*%
D12*
%TO.C,SOLENOIDR4*%
X160451800Y-89189560D03*
X160451800Y-87492840D03*
%TD*%
D17*
%TO.C,J1*%
X62186320Y-107740000D03*
D16*
X62186320Y-114940000D03*
%TD*%
D14*
%TO.C,U0C5*%
X105781591Y-97046000D03*
X107478311Y-97046000D03*
%TD*%
D18*
%TO.C,U0FB1*%
X124728311Y-94671000D03*
X123031591Y-94671000D03*
%TD*%
D10*
%TO.C,J3*%
X47244000Y-105625900D03*
%TD*%
D13*
%TO.C,R36*%
X151629951Y-107422640D03*
X151629951Y-109119360D03*
%TD*%
D11*
%TO.C,SW2*%
X196638320Y-106828200D03*
X196638320Y-109546000D03*
X196638320Y-112263800D03*
%TD*%
D13*
%TO.C,U0R1*%
X206129951Y-98697640D03*
X206129951Y-100394360D03*
%TD*%
%TO.C,SOLENOIDR3*%
X165023800Y-87492840D03*
X165023800Y-89189560D03*
%TD*%
D19*
%TO.C,U0*%
X121549951Y-98595919D03*
X121549951Y-99095919D03*
X121549951Y-99595919D03*
X121549951Y-100095919D03*
X121549951Y-100595919D03*
X121549951Y-101095919D03*
X121549951Y-101595919D03*
X121549951Y-102095919D03*
X121549951Y-102595919D03*
X121549951Y-103095919D03*
X121549951Y-103595919D03*
X121549951Y-104095919D03*
D20*
X122979951Y-105525919D03*
X123479951Y-105525919D03*
X123979951Y-105525919D03*
X124479951Y-105525919D03*
X124979951Y-105525919D03*
X125479951Y-105525919D03*
X125979951Y-105525919D03*
X126479951Y-105525919D03*
X126979951Y-105525919D03*
X127479951Y-105525919D03*
X127979951Y-105525919D03*
X128479951Y-105525919D03*
D19*
X129909951Y-104095919D03*
X129909951Y-103595919D03*
X129909951Y-103095919D03*
X129909951Y-102595919D03*
X129909951Y-102095919D03*
X129909951Y-101595919D03*
X129909951Y-101095919D03*
X129909951Y-100595919D03*
X129909951Y-100095919D03*
X129909951Y-99595919D03*
X129909951Y-99095919D03*
X129909951Y-98595919D03*
D20*
X128479951Y-97165919D03*
X127979951Y-97165919D03*
X127479951Y-97165919D03*
X126979951Y-97165919D03*
X126479951Y-97165919D03*
X125979951Y-97165919D03*
X125479951Y-97165919D03*
X124979951Y-97165919D03*
X124479951Y-97165919D03*
X123979951Y-97165919D03*
X123479951Y-97165919D03*
X122979951Y-97165919D03*
%TD*%
D21*
%TO.C,U3*%
X154479951Y-105351000D03*
X154479951Y-106621000D03*
X154479951Y-107891000D03*
X154479951Y-109161000D03*
X154479951Y-110431000D03*
X154479951Y-111701000D03*
X154479951Y-112971000D03*
X154479951Y-114241000D03*
X154479951Y-115511000D03*
X154479951Y-116781000D03*
X154479951Y-118051000D03*
X154479951Y-119321000D03*
X163779951Y-119321000D03*
X163779951Y-118051000D03*
X163779951Y-116781000D03*
X163779951Y-115511000D03*
X163779951Y-114241000D03*
X163779951Y-112971000D03*
X163779951Y-111701000D03*
X163779951Y-110431000D03*
X163779951Y-109161000D03*
X163779951Y-107891000D03*
X163779951Y-106621000D03*
X163779951Y-105351000D03*
%TD*%
D13*
%TO.C,U0R2*%
X203129951Y-98697640D03*
X203129951Y-100394360D03*
%TD*%
D12*
%TO.C,R42*%
X166852600Y-117180360D03*
X166852600Y-115483640D03*
%TD*%
D13*
%TO.C,LIGHTC1*%
X181629951Y-104197640D03*
X181629951Y-105894360D03*
%TD*%
D11*
%TO.C,GATE1R1*%
X158129951Y-27198200D03*
X158129951Y-30093800D03*
%TD*%
D22*
%TO.C,SOLENOIDD2*%
X153974800Y-83286600D03*
D23*
X164134800Y-83286600D03*
%TD*%
D13*
%TO.C,LIGHTR1*%
X181629951Y-100497559D03*
X181629951Y-102194279D03*
%TD*%
D11*
%TO.C,MJ1*%
X118237000Y-160525919D03*
X117983000Y-163065919D03*
X118237000Y-165605919D03*
X117983000Y-168145919D03*
X118237000Y-170685919D03*
X117983000Y-173225919D03*
X118237000Y-175765919D03*
X117983000Y-178305919D03*
X118237000Y-180845919D03*
X117983000Y-183385919D03*
X118237000Y-185925919D03*
%TD*%
D14*
%TO.C,R41*%
X154481591Y-103296000D03*
X156178311Y-103296000D03*
%TD*%
D24*
%TO.C,SOLENOIDQ2*%
X163906200Y-93502600D03*
D25*
X166446200Y-93502600D03*
X168986200Y-93502600D03*
%TD*%
D26*
%TO.C,SOLENOIDD1*%
X149656800Y-78663800D03*
D27*
X164896800Y-78663800D03*
%TD*%
D14*
%TO.C,U0R44*%
X123031591Y-92971000D03*
X124728311Y-92971000D03*
%TD*%
D13*
%TO.C,U0C4*%
X116879951Y-100197640D03*
X116879951Y-101894360D03*
%TD*%
D28*
%TO.C,TRJ1*%
X140214600Y-128985400D03*
X141214600Y-128985400D03*
X142214600Y-128985400D03*
X143214600Y-128985400D03*
X144214600Y-128985400D03*
D29*
X145514600Y-126460400D03*
X138914600Y-126460400D03*
%TD*%
D30*
%TO.C,BOOSTJ2*%
X181102000Y-86908000D03*
D10*
X181102000Y-91908000D03*
%TD*%
D31*
%TO.C,SOLENOIDQ1*%
X158242000Y-93479620D03*
X160141920Y-93479620D03*
X159191960Y-91381580D03*
%TD*%
D10*
%TO.C,J4*%
X47244000Y-97066100D03*
%TD*%
D13*
%TO.C,U0C2*%
X116629951Y-93397640D03*
X116629951Y-95094360D03*
%TD*%
D30*
%TO.C,BOOSTJ1*%
X70060320Y-108840000D03*
D10*
X70060320Y-113840000D03*
%TD*%
D12*
%TO.C,C3*%
X163778320Y-103590573D03*
X163778320Y-101893853D03*
%TD*%
D32*
%TO.C,SW3*%
X206808320Y-95758000D03*
X202608320Y-95758000D03*
%TD*%
D12*
%TO.C,SOLENOIDR1*%
X158927800Y-89189560D03*
X158927800Y-87492840D03*
%TD*%
D11*
%TO.C,GATE1D1*%
X93129951Y-30093800D03*
X93129951Y-27198200D03*
%TD*%
D33*
%TO.C,J2*%
X81744000Y-105511600D03*
D16*
X88944000Y-105511600D03*
%TD*%
D13*
%TO.C,U0C3*%
X114129951Y-93397640D03*
X114129951Y-95094360D03*
%TD*%
%TO.C,SOLENOIDC1*%
X161975800Y-87492840D03*
X161975800Y-89189560D03*
%TD*%
%TO.C,SOLENOIDR2*%
X163499800Y-87492840D03*
X163499800Y-89189560D03*
%TD*%
D28*
%TO.C,U0J1*%
X202218320Y-107187213D03*
X203218320Y-107187213D03*
X204218320Y-107187213D03*
X205218320Y-107187213D03*
X206218320Y-107187213D03*
X207218320Y-107187213D03*
D29*
X200918320Y-104662213D03*
X208518320Y-104662213D03*
%TD*%
D12*
%TO.C,U0R19*%
X207115000Y-111592360D03*
X207115000Y-109895640D03*
%TD*%
D34*
%TO.C,U0Y1*%
X113129951Y-101220120D03*
X113129951Y-97521880D03*
%TD*%
D11*
%TO.C,BUCKJ1*%
X70060320Y-88210213D03*
X69806320Y-90750213D03*
X70060320Y-93290213D03*
%TD*%
D26*
%TO.C,C4*%
X105410000Y-166497000D03*
D35*
X105410000Y-173997000D03*
%TD*%
D36*
%TO.C,TRJ2*%
X153725000Y-179572800D03*
X153725000Y-178572800D03*
X153725000Y-177572800D03*
X153725000Y-176572800D03*
X153725000Y-175572800D03*
X153725000Y-174572800D03*
X153725000Y-173572800D03*
X153725000Y-172572800D03*
D37*
X151200000Y-171272800D03*
X151200000Y-180872800D03*
%TD*%
D10*
%TO.C,SOLENOIDJ1*%
X187579000Y-91908000D03*
D30*
X187579000Y-86908000D03*
%TD*%
D38*
%TO.C,U0D1*%
X209296000Y-111620300D03*
X209296000Y-109867700D03*
%TD*%
D11*
%TO.C,MJ2*%
X133477000Y-160521000D03*
X133223000Y-163061000D03*
X133477000Y-165601000D03*
X133223000Y-168141000D03*
X133477000Y-170681000D03*
X133223000Y-173221000D03*
X133477000Y-175761000D03*
X133223000Y-178301000D03*
X133477000Y-180841000D03*
X133223000Y-183381000D03*
X133477000Y-185921000D03*
%TD*%
M02*
