%FSLAX45Y45*%
G04 Gerber Fmt 4.5, Leading zero omitted, Abs format (unit mm)*
G04 Created by KiCad (PCBNEW (6.0.0-0)) date 2022-03-27 14:29:01*
%MOMM*%
%LPD*%
G01*
G04 APERTURE LIST*
%TA.AperFunction,Profile*%
%ADD10C,0.200000*%
%TD*%
%ADD11C,0.200000*%
%ADD12C,0.040000*%
%ADD13C,0.080000*%
%ADD14C,0.090000*%
%ADD15C,0.100000*%
%ADD16C,0.270000*%
%ADD17C,0.300000*%
G04 APERTURE END LIST*
D10*
X19598640Y-9598200D02*
X19598640Y-12398200D01*
X12698640Y-12398200D02*
X12698640Y-9598200D01*
X12998640Y-9298200D02*
X19298640Y-9298200D01*
X19598640Y-9598200D02*
G75*
G03*
X19298640Y-9298200I-300000J0D01*
G01*
X12998640Y-9298200D02*
G75*
G03*
X12698640Y-9598200I0J-300000D01*
G01*
X19298640Y-12698200D02*
G75*
G03*
X19598640Y-12398200I0J300000D01*
G01*
X12698640Y-12398200D02*
G75*
G03*
X12998640Y-12698200I300000J0D01*
G01*
X19298640Y-12698200D02*
X12998640Y-12698200D01*
D11*
D12*
X12880660Y-10134920D02*
X12920660Y-10174920D01*
X12920660Y-10134920D02*
X12880660Y-10174920D01*
X12961160Y-10135700D02*
X13001160Y-10175700D01*
X13001160Y-10135700D02*
X12961160Y-10175700D01*
X13042440Y-10135700D02*
X13082440Y-10175700D01*
X13082440Y-10135700D02*
X13042440Y-10175700D01*
X13121180Y-10135700D02*
X13161180Y-10175700D01*
X13161180Y-10135700D02*
X13121180Y-10175700D01*
X13990640Y-11938320D02*
X14030640Y-11978320D01*
X14030640Y-11938320D02*
X13990640Y-11978320D01*
X15133640Y-10729280D02*
X15173640Y-10769280D01*
X15173640Y-10729280D02*
X15133640Y-10769280D01*
X15170083Y-10836779D02*
X15210083Y-10876779D01*
X15210083Y-10836779D02*
X15170083Y-10876779D01*
X15522260Y-10780080D02*
X15562260Y-10820080D01*
X15562260Y-10780080D02*
X15522260Y-10820080D01*
X15526416Y-10471524D02*
X15566416Y-10511524D01*
X15566416Y-10471524D02*
X15526416Y-10511524D01*
X15549289Y-11062931D02*
X15589289Y-11102931D01*
X15589289Y-11062931D02*
X15549289Y-11102931D01*
X15550200Y-11501440D02*
X15590200Y-11541440D01*
X15590200Y-11501440D02*
X15550200Y-11541440D01*
X15664500Y-10899460D02*
X15704500Y-10939460D01*
X15704500Y-10899460D02*
X15664500Y-10939460D01*
X15736590Y-10724200D02*
X15776590Y-10764200D01*
X15776590Y-10724200D02*
X15736590Y-10764200D01*
X15740700Y-10602280D02*
X15780700Y-10642280D01*
X15780700Y-10602280D02*
X15740700Y-10642280D01*
X15795140Y-9980000D02*
X15835140Y-10020000D01*
X15835140Y-9980000D02*
X15795140Y-10020000D01*
X15809280Y-11963720D02*
X15849280Y-12003720D01*
X15849280Y-11963720D02*
X15809280Y-12003720D01*
X15890560Y-10322880D02*
X15930560Y-10362880D01*
X15930560Y-10322880D02*
X15890560Y-10362880D01*
X15890560Y-10472740D02*
X15930560Y-10512740D01*
X15930560Y-10472740D02*
X15890560Y-10512740D01*
X15892040Y-9767500D02*
X15932040Y-9807500D01*
X15932040Y-9767500D02*
X15892040Y-9807500D01*
X16017560Y-12085640D02*
X16057560Y-12125640D01*
X16057560Y-12085640D02*
X16017560Y-12125640D01*
X16058200Y-10602280D02*
X16098200Y-10642280D01*
X16098200Y-10602280D02*
X16058200Y-10642280D01*
X16079410Y-9767355D02*
X16119410Y-9807355D01*
X16119410Y-9767355D02*
X16079410Y-9807355D01*
X16158110Y-10036290D02*
X16198110Y-10076290D01*
X16198110Y-10036290D02*
X16158110Y-10076290D01*
X16182660Y-10185720D02*
X16222660Y-10225720D01*
X16222660Y-10185720D02*
X16182660Y-10225720D01*
X16205940Y-9519999D02*
X16245940Y-9559999D01*
X16245940Y-9519999D02*
X16205940Y-9559999D01*
X16317700Y-9662480D02*
X16357700Y-9702480D01*
X16357700Y-9662480D02*
X16317700Y-9702480D01*
X16388649Y-9543569D02*
X16428649Y-9583569D01*
X16428649Y-9543569D02*
X16388649Y-9583569D01*
X16467540Y-9980000D02*
X16507540Y-10020000D01*
X16507540Y-9980000D02*
X16467540Y-10020000D01*
X16567540Y-10840000D02*
X16607540Y-10880000D01*
X16607540Y-10840000D02*
X16567540Y-10880000D01*
X16568540Y-10979000D02*
X16608540Y-11019000D01*
X16608540Y-10979000D02*
X16568540Y-11019000D01*
X16612340Y-9911400D02*
X16652340Y-9951400D01*
X16652340Y-9911400D02*
X16612340Y-9951400D01*
X16688540Y-9657400D02*
X16728540Y-9697400D01*
X16728540Y-9657400D02*
X16688540Y-9697400D01*
X16727963Y-10382624D02*
X16767963Y-10422624D01*
X16767963Y-10382624D02*
X16727963Y-10422624D01*
X16729804Y-10535024D02*
X16769804Y-10575024D01*
X16769804Y-10535024D02*
X16729804Y-10575024D01*
X16866340Y-9530400D02*
X16906340Y-9570400D01*
X16906340Y-9530400D02*
X16866340Y-9570400D01*
X17108540Y-10032640D02*
X17148540Y-10072640D01*
X17148540Y-10032640D02*
X17108540Y-10072640D01*
X17299588Y-10217648D02*
X17339588Y-10257648D01*
X17339588Y-10217648D02*
X17299588Y-10257648D01*
X18336458Y-11366320D02*
X18376458Y-11406320D01*
X18376458Y-11366320D02*
X18336458Y-11406320D01*
X18522000Y-11664000D02*
X18562000Y-11704000D01*
X18562000Y-11664000D02*
X18522000Y-11704000D01*
X18707420Y-12085640D02*
X18747420Y-12125640D01*
X18747420Y-12085640D02*
X18707420Y-12125640D01*
X19129060Y-10729280D02*
X19169060Y-10769280D01*
X19169060Y-10729280D02*
X19129060Y-10769280D01*
X19210340Y-10729280D02*
X19250340Y-10769280D01*
X19250340Y-10729280D02*
X19210340Y-10769280D01*
X19252004Y-9730036D02*
X19292004Y-9770036D01*
X19292004Y-9730036D02*
X19252004Y-9770036D01*
X19263680Y-11664000D02*
X19303680Y-11704000D01*
X19303680Y-11664000D02*
X19263680Y-11704000D01*
X19300187Y-9633481D02*
X19340187Y-9673481D01*
X19340187Y-9633481D02*
X19300187Y-9673481D01*
D13*
X15400942Y-11600865D02*
G75*
G03*
X15400942Y-11600865I-40000J0D01*
G01*
X15400942Y-11950865D02*
G75*
G03*
X15400942Y-11950865I-40000J0D01*
G01*
X16983100Y-11600865D02*
G75*
G03*
X16983100Y-11600865I-40000J0D01*
G01*
X16983100Y-11950865D02*
G75*
G03*
X16983100Y-11950865I-40000J0D01*
G01*
D14*
X18197500Y-10902220D02*
X18197500Y-10992220D01*
X18152500Y-10947220D02*
X18242500Y-10947220D01*
D15*
X13851956Y-10012096D02*
X13851956Y-9941384D01*
X13781244Y-9941384D01*
X13781244Y-10012096D01*
X13851956Y-10012096D01*
X13851956Y-10990076D02*
X13851956Y-10919364D01*
X13781244Y-10919364D01*
X13781244Y-10990076D01*
X13851956Y-10990076D01*
X14001956Y-10012096D02*
X14001956Y-9941384D01*
X13931244Y-9941384D01*
X13931244Y-10012096D01*
X14001956Y-10012096D01*
X14001956Y-10990076D02*
X14001956Y-10919364D01*
X13931244Y-10919364D01*
X13931244Y-10990076D01*
X14001956Y-10990076D01*
X14151956Y-10012096D02*
X14151956Y-9941384D01*
X14081244Y-9941384D01*
X14081244Y-10012096D01*
X14151956Y-10012096D01*
X14151956Y-10990076D02*
X14151956Y-10919364D01*
X14081244Y-10919364D01*
X14081244Y-10990076D01*
X14151956Y-10990076D01*
X14385845Y-9793526D02*
X14385845Y-9722814D01*
X14315134Y-9722814D01*
X14315134Y-9793526D01*
X14385845Y-9793526D01*
X14385845Y-11195605D02*
X14385845Y-11124894D01*
X14315134Y-11124894D01*
X14315134Y-11195605D01*
X14385845Y-11195605D01*
X15021562Y-11193782D02*
X15021562Y-11123071D01*
X14950851Y-11123071D01*
X14950851Y-11193782D01*
X15021562Y-11193782D01*
X15031516Y-9794036D02*
X15031516Y-9723324D01*
X14960804Y-9723324D01*
X14960804Y-9794036D01*
X15031516Y-9794036D01*
X16138956Y-10378236D02*
X16138956Y-10307524D01*
X16068244Y-10307524D01*
X16068244Y-10378236D01*
X16138956Y-10378236D01*
X16138956Y-10528096D02*
X16138956Y-10457384D01*
X16068244Y-10457384D01*
X16068244Y-10528096D01*
X16138956Y-10528096D01*
X17390696Y-9787739D02*
X17390696Y-9717028D01*
X17319984Y-9717028D01*
X17319984Y-9787739D01*
X17390696Y-9787739D01*
X17390696Y-11189819D02*
X17390696Y-11119108D01*
X17319984Y-11119108D01*
X17319984Y-11189819D01*
X17390696Y-11189819D01*
X18026412Y-11187996D02*
X18026412Y-11117284D01*
X17955701Y-11117284D01*
X17955701Y-11187996D01*
X18026412Y-11187996D01*
X18036366Y-9788249D02*
X18036366Y-9717538D01*
X17965655Y-9717538D01*
X17965655Y-9788249D01*
X18036366Y-9788249D01*
X18232856Y-9985076D02*
X18232856Y-9914364D01*
X18162144Y-9914364D01*
X18162144Y-9985076D01*
X18232856Y-9985076D01*
X18384116Y-9984936D02*
X18384116Y-9914224D01*
X18313404Y-9914224D01*
X18313404Y-9984936D01*
X18384116Y-9984936D01*
X18384116Y-10984936D02*
X18384116Y-10914224D01*
X18313404Y-10914224D01*
X18313404Y-10984936D01*
X18384116Y-10984936D01*
X18535356Y-9985076D02*
X18535356Y-9914364D01*
X18464644Y-9914364D01*
X18464644Y-9985076D01*
X18535356Y-9985076D01*
X18535356Y-10985076D02*
X18535356Y-10914364D01*
X18464644Y-10914364D01*
X18464644Y-10985076D01*
X18535356Y-10985076D01*
X16503020Y-12470000D02*
X16553020Y-12420000D01*
X16503020Y-12370000D01*
X16453020Y-12420000D01*
X16503020Y-12470000D01*
X16757020Y-12470000D02*
X16807020Y-12420000D01*
X16757020Y-12370000D01*
X16707020Y-12420000D01*
X16757020Y-12470000D01*
X17011020Y-12470000D02*
X17061020Y-12420000D01*
X17011020Y-12370000D01*
X16961020Y-12420000D01*
X17011020Y-12470000D01*
X17265020Y-12470000D02*
X17315020Y-12420000D01*
X17265020Y-12370000D01*
X17215020Y-12420000D01*
X17265020Y-12470000D01*
X17519020Y-12470000D02*
X17569020Y-12420000D01*
X17519020Y-12370000D01*
X17469020Y-12420000D01*
X17519020Y-12470000D01*
X17773020Y-12470000D02*
X17823020Y-12420000D01*
X17773020Y-12370000D01*
X17723020Y-12420000D01*
X17773020Y-12470000D01*
X18027020Y-12470000D02*
X18077020Y-12420000D01*
X18027020Y-12370000D01*
X17977020Y-12420000D01*
X18027020Y-12470000D01*
X18281020Y-12470000D02*
X18331020Y-12420000D01*
X18281020Y-12370000D01*
X18231020Y-12420000D01*
X18281020Y-12470000D01*
X18535020Y-12470000D02*
X18585020Y-12420000D01*
X18535020Y-12370000D01*
X18485020Y-12420000D01*
X18535020Y-12470000D01*
X18789020Y-12470000D02*
X18839020Y-12420000D01*
X18789020Y-12370000D01*
X18739020Y-12420000D01*
X18789020Y-12470000D01*
X19043020Y-12470000D02*
X19093020Y-12420000D01*
X19043020Y-12370000D01*
X18993020Y-12420000D01*
X19043020Y-12470000D01*
D16*
X16014740Y-11121200D02*
X16284740Y-11391200D01*
X16284740Y-11121200D02*
X16014740Y-11391200D01*
X16284740Y-11256200D02*
G75*
G03*
X16284740Y-11256200I-135000J0D01*
G01*
X16014740Y-11621200D02*
X16284740Y-11891200D01*
X16284740Y-11621200D02*
X16014740Y-11891200D01*
X16284740Y-11756200D02*
G75*
G03*
X16284740Y-11756200I-135000J0D01*
G01*
D17*
X13755140Y-11387723D02*
X14055140Y-11687723D01*
X14055140Y-11387723D02*
X13755140Y-11687723D01*
X13905140Y-11387723D02*
X13905140Y-11687723D01*
X13755140Y-11537723D02*
X14055140Y-11537723D01*
X18237540Y-11830000D02*
X18537540Y-12130000D01*
X18537540Y-11830000D02*
X18237540Y-12130000D01*
X18387540Y-11830000D02*
X18387540Y-12130000D01*
X18237540Y-11980000D02*
X18537540Y-11980000D01*
D11*
X12946259Y-13018676D02*
X12946259Y-12818676D01*
X12993878Y-12818676D01*
X13022449Y-12828200D01*
X13041497Y-12847248D01*
X13051021Y-12866295D01*
X13060545Y-12904390D01*
X13060545Y-12932962D01*
X13051021Y-12971057D01*
X13041497Y-12990105D01*
X13022449Y-13009152D01*
X12993878Y-13018676D01*
X12946259Y-13018676D01*
X13146259Y-13018676D02*
X13146259Y-12885343D01*
X13146259Y-12923438D02*
X13155783Y-12904390D01*
X13165307Y-12894867D01*
X13184354Y-12885343D01*
X13203402Y-12885343D01*
X13270068Y-13018676D02*
X13270068Y-12885343D01*
X13270068Y-12818676D02*
X13260545Y-12828200D01*
X13270068Y-12837724D01*
X13279592Y-12828200D01*
X13270068Y-12818676D01*
X13270068Y-12837724D01*
X13393878Y-13018676D02*
X13374830Y-13009152D01*
X13365307Y-12990105D01*
X13365307Y-12818676D01*
X13498640Y-13018676D02*
X13479592Y-13009152D01*
X13470068Y-12990105D01*
X13470068Y-12818676D01*
X13727211Y-13018676D02*
X13727211Y-12818676D01*
X13793878Y-12961533D01*
X13860545Y-12818676D01*
X13860545Y-13018676D01*
X14041497Y-13018676D02*
X14041497Y-12913914D01*
X14031973Y-12894867D01*
X14012926Y-12885343D01*
X13974830Y-12885343D01*
X13955783Y-12894867D01*
X14041497Y-13009152D02*
X14022449Y-13018676D01*
X13974830Y-13018676D01*
X13955783Y-13009152D01*
X13946259Y-12990105D01*
X13946259Y-12971057D01*
X13955783Y-12952009D01*
X13974830Y-12942486D01*
X14022449Y-12942486D01*
X14041497Y-12932962D01*
X14136735Y-12885343D02*
X14136735Y-13085343D01*
X14136735Y-12894867D02*
X14155783Y-12885343D01*
X14193878Y-12885343D01*
X14212926Y-12894867D01*
X14222449Y-12904390D01*
X14231973Y-12923438D01*
X14231973Y-12980581D01*
X14222449Y-12999628D01*
X14212926Y-13009152D01*
X14193878Y-13018676D01*
X14155783Y-13018676D01*
X14136735Y-13009152D01*
X14317688Y-12999628D02*
X14327211Y-13009152D01*
X14317688Y-13018676D01*
X14308164Y-13009152D01*
X14317688Y-12999628D01*
X14317688Y-13018676D01*
X14317688Y-12894867D02*
X14327211Y-12904390D01*
X14317688Y-12913914D01*
X14308164Y-12904390D01*
X14317688Y-12894867D01*
X14317688Y-12913914D01*
D12*
X12648640Y-13328200D02*
X12688640Y-13368200D01*
X12688640Y-13328200D02*
X12648640Y-13368200D01*
D11*
X12984354Y-13238676D02*
X13003402Y-13238676D01*
X13022449Y-13248200D01*
X13031973Y-13257724D01*
X13041497Y-13276771D01*
X13051021Y-13314867D01*
X13051021Y-13362486D01*
X13041497Y-13400581D01*
X13031973Y-13419628D01*
X13022449Y-13429152D01*
X13003402Y-13438676D01*
X12984354Y-13438676D01*
X12965307Y-13429152D01*
X12955783Y-13419628D01*
X12946259Y-13400581D01*
X12936735Y-13362486D01*
X12936735Y-13314867D01*
X12946259Y-13276771D01*
X12955783Y-13257724D01*
X12965307Y-13248200D01*
X12984354Y-13238676D01*
X13136735Y-13419628D02*
X13146259Y-13429152D01*
X13136735Y-13438676D01*
X13127211Y-13429152D01*
X13136735Y-13419628D01*
X13136735Y-13438676D01*
X13317688Y-13305343D02*
X13317688Y-13438676D01*
X13270068Y-13229152D02*
X13222449Y-13372009D01*
X13346259Y-13372009D01*
X13460545Y-13238676D02*
X13479592Y-13238676D01*
X13498640Y-13248200D01*
X13508164Y-13257724D01*
X13517688Y-13276771D01*
X13527211Y-13314867D01*
X13527211Y-13362486D01*
X13517688Y-13400581D01*
X13508164Y-13419628D01*
X13498640Y-13429152D01*
X13479592Y-13438676D01*
X13460545Y-13438676D01*
X13441497Y-13429152D01*
X13431973Y-13419628D01*
X13422449Y-13400581D01*
X13412926Y-13362486D01*
X13412926Y-13314867D01*
X13422449Y-13276771D01*
X13431973Y-13257724D01*
X13441497Y-13248200D01*
X13460545Y-13238676D01*
X13651021Y-13238676D02*
X13670068Y-13238676D01*
X13689116Y-13248200D01*
X13698640Y-13257724D01*
X13708164Y-13276771D01*
X13717688Y-13314867D01*
X13717688Y-13362486D01*
X13708164Y-13400581D01*
X13698640Y-13419628D01*
X13689116Y-13429152D01*
X13670068Y-13438676D01*
X13651021Y-13438676D01*
X13631973Y-13429152D01*
X13622449Y-13419628D01*
X13612926Y-13400581D01*
X13603402Y-13362486D01*
X13603402Y-13314867D01*
X13612926Y-13276771D01*
X13622449Y-13257724D01*
X13631973Y-13248200D01*
X13651021Y-13238676D01*
X13803402Y-13438676D02*
X13803402Y-13305343D01*
X13803402Y-13324390D02*
X13812926Y-13314867D01*
X13831973Y-13305343D01*
X13860545Y-13305343D01*
X13879592Y-13314867D01*
X13889116Y-13333914D01*
X13889116Y-13438676D01*
X13889116Y-13333914D02*
X13898640Y-13314867D01*
X13917688Y-13305343D01*
X13946259Y-13305343D01*
X13965307Y-13314867D01*
X13974830Y-13333914D01*
X13974830Y-13438676D01*
X14070068Y-13438676D02*
X14070068Y-13305343D01*
X14070068Y-13324390D02*
X14079592Y-13314867D01*
X14098640Y-13305343D01*
X14127211Y-13305343D01*
X14146259Y-13314867D01*
X14155783Y-13333914D01*
X14155783Y-13438676D01*
X14155783Y-13333914D02*
X14165307Y-13314867D01*
X14184354Y-13305343D01*
X14212926Y-13305343D01*
X14231973Y-13314867D01*
X14241497Y-13333914D01*
X14241497Y-13438676D01*
X14631973Y-13229152D02*
X14460545Y-13486295D01*
X14889116Y-13238676D02*
X14908164Y-13238676D01*
X14927211Y-13248200D01*
X14936735Y-13257724D01*
X14946259Y-13276771D01*
X14955783Y-13314867D01*
X14955783Y-13362486D01*
X14946259Y-13400581D01*
X14936735Y-13419628D01*
X14927211Y-13429152D01*
X14908164Y-13438676D01*
X14889116Y-13438676D01*
X14870068Y-13429152D01*
X14860545Y-13419628D01*
X14851021Y-13400581D01*
X14841497Y-13362486D01*
X14841497Y-13314867D01*
X14851021Y-13276771D01*
X14860545Y-13257724D01*
X14870068Y-13248200D01*
X14889116Y-13238676D01*
X15041497Y-13419628D02*
X15051021Y-13429152D01*
X15041497Y-13438676D01*
X15031973Y-13429152D01*
X15041497Y-13419628D01*
X15041497Y-13438676D01*
X15174830Y-13238676D02*
X15193878Y-13238676D01*
X15212926Y-13248200D01*
X15222449Y-13257724D01*
X15231973Y-13276771D01*
X15241497Y-13314867D01*
X15241497Y-13362486D01*
X15231973Y-13400581D01*
X15222449Y-13419628D01*
X15212926Y-13429152D01*
X15193878Y-13438676D01*
X15174830Y-13438676D01*
X15155783Y-13429152D01*
X15146259Y-13419628D01*
X15136735Y-13400581D01*
X15127211Y-13362486D01*
X15127211Y-13314867D01*
X15136735Y-13276771D01*
X15146259Y-13257724D01*
X15155783Y-13248200D01*
X15174830Y-13238676D01*
X15431973Y-13438676D02*
X15317688Y-13438676D01*
X15374830Y-13438676D02*
X15374830Y-13238676D01*
X15355783Y-13267248D01*
X15336735Y-13286295D01*
X15317688Y-13295819D01*
X15612926Y-13238676D02*
X15517688Y-13238676D01*
X15508164Y-13333914D01*
X15517688Y-13324390D01*
X15536735Y-13314867D01*
X15584354Y-13314867D01*
X15603402Y-13324390D01*
X15612926Y-13333914D01*
X15622449Y-13352962D01*
X15622449Y-13400581D01*
X15612926Y-13419628D01*
X15603402Y-13429152D01*
X15584354Y-13438676D01*
X15536735Y-13438676D01*
X15517688Y-13429152D01*
X15508164Y-13419628D01*
X15689116Y-13238676D02*
X15822449Y-13238676D01*
X15736735Y-13438676D01*
X15889116Y-13238676D02*
X15889116Y-13276771D01*
X15965307Y-13238676D02*
X15965307Y-13276771D01*
X16260545Y-13514867D02*
X16251021Y-13505343D01*
X16231973Y-13476771D01*
X16222449Y-13457724D01*
X16212926Y-13429152D01*
X16203402Y-13381533D01*
X16203402Y-13343438D01*
X16212926Y-13295819D01*
X16222449Y-13267248D01*
X16231973Y-13248200D01*
X16251021Y-13219628D01*
X16260545Y-13210105D01*
X16422449Y-13305343D02*
X16422449Y-13438676D01*
X16374830Y-13229152D02*
X16327211Y-13372009D01*
X16451021Y-13372009D01*
X16622449Y-13238676D02*
X16527211Y-13238676D01*
X16517688Y-13333914D01*
X16527211Y-13324390D01*
X16546259Y-13314867D01*
X16593878Y-13314867D01*
X16612926Y-13324390D01*
X16622449Y-13333914D01*
X16631973Y-13352962D01*
X16631973Y-13400581D01*
X16622449Y-13419628D01*
X16612926Y-13429152D01*
X16593878Y-13438676D01*
X16546259Y-13438676D01*
X16527211Y-13429152D01*
X16517688Y-13419628D01*
X16870069Y-13438676D02*
X16870069Y-13238676D01*
X16955783Y-13438676D02*
X16955783Y-13333914D01*
X16946259Y-13314867D01*
X16927211Y-13305343D01*
X16898640Y-13305343D01*
X16879592Y-13314867D01*
X16870069Y-13324390D01*
X17079592Y-13438676D02*
X17060545Y-13429152D01*
X17051021Y-13419628D01*
X17041497Y-13400581D01*
X17041497Y-13343438D01*
X17051021Y-13324390D01*
X17060545Y-13314867D01*
X17079592Y-13305343D01*
X17108164Y-13305343D01*
X17127211Y-13314867D01*
X17136735Y-13324390D01*
X17146259Y-13343438D01*
X17146259Y-13400581D01*
X17136735Y-13419628D01*
X17127211Y-13429152D01*
X17108164Y-13438676D01*
X17079592Y-13438676D01*
X17260545Y-13438676D02*
X17241497Y-13429152D01*
X17231973Y-13410105D01*
X17231973Y-13238676D01*
X17412926Y-13429152D02*
X17393878Y-13438676D01*
X17355783Y-13438676D01*
X17336735Y-13429152D01*
X17327211Y-13410105D01*
X17327211Y-13333914D01*
X17336735Y-13314867D01*
X17355783Y-13305343D01*
X17393878Y-13305343D01*
X17412926Y-13314867D01*
X17422450Y-13333914D01*
X17422450Y-13352962D01*
X17327211Y-13372009D01*
X17498640Y-13429152D02*
X17517688Y-13438676D01*
X17555783Y-13438676D01*
X17574830Y-13429152D01*
X17584354Y-13410105D01*
X17584354Y-13400581D01*
X17574830Y-13381533D01*
X17555783Y-13372009D01*
X17527211Y-13372009D01*
X17508164Y-13362486D01*
X17498640Y-13343438D01*
X17498640Y-13333914D01*
X17508164Y-13314867D01*
X17527211Y-13305343D01*
X17555783Y-13305343D01*
X17574830Y-13314867D01*
X17651021Y-13514867D02*
X17660545Y-13505343D01*
X17679592Y-13476771D01*
X17689116Y-13457724D01*
X17698640Y-13429152D01*
X17708164Y-13381533D01*
X17708164Y-13343438D01*
X17698640Y-13295819D01*
X17689116Y-13267248D01*
X17679592Y-13248200D01*
X17660545Y-13219628D01*
X17651021Y-13210105D01*
D13*
X12688640Y-13612200D02*
G75*
G03*
X12688640Y-13612200I-40000J0D01*
G01*
D11*
X12984354Y-13502676D02*
X13003402Y-13502676D01*
X13022449Y-13512200D01*
X13031973Y-13521724D01*
X13041497Y-13540771D01*
X13051021Y-13578867D01*
X13051021Y-13626486D01*
X13041497Y-13664581D01*
X13031973Y-13683628D01*
X13022449Y-13693152D01*
X13003402Y-13702676D01*
X12984354Y-13702676D01*
X12965307Y-13693152D01*
X12955783Y-13683628D01*
X12946259Y-13664581D01*
X12936735Y-13626486D01*
X12936735Y-13578867D01*
X12946259Y-13540771D01*
X12955783Y-13521724D01*
X12965307Y-13512200D01*
X12984354Y-13502676D01*
X13136735Y-13683628D02*
X13146259Y-13693152D01*
X13136735Y-13702676D01*
X13127211Y-13693152D01*
X13136735Y-13683628D01*
X13136735Y-13702676D01*
X13260545Y-13588390D02*
X13241497Y-13578867D01*
X13231973Y-13569343D01*
X13222449Y-13550295D01*
X13222449Y-13540771D01*
X13231973Y-13521724D01*
X13241497Y-13512200D01*
X13260545Y-13502676D01*
X13298640Y-13502676D01*
X13317688Y-13512200D01*
X13327211Y-13521724D01*
X13336735Y-13540771D01*
X13336735Y-13550295D01*
X13327211Y-13569343D01*
X13317688Y-13578867D01*
X13298640Y-13588390D01*
X13260545Y-13588390D01*
X13241497Y-13597914D01*
X13231973Y-13607438D01*
X13222449Y-13626486D01*
X13222449Y-13664581D01*
X13231973Y-13683628D01*
X13241497Y-13693152D01*
X13260545Y-13702676D01*
X13298640Y-13702676D01*
X13317688Y-13693152D01*
X13327211Y-13683628D01*
X13336735Y-13664581D01*
X13336735Y-13626486D01*
X13327211Y-13607438D01*
X13317688Y-13597914D01*
X13298640Y-13588390D01*
X13460545Y-13502676D02*
X13479592Y-13502676D01*
X13498640Y-13512200D01*
X13508164Y-13521724D01*
X13517688Y-13540771D01*
X13527211Y-13578867D01*
X13527211Y-13626486D01*
X13517688Y-13664581D01*
X13508164Y-13683628D01*
X13498640Y-13693152D01*
X13479592Y-13702676D01*
X13460545Y-13702676D01*
X13441497Y-13693152D01*
X13431973Y-13683628D01*
X13422449Y-13664581D01*
X13412926Y-13626486D01*
X13412926Y-13578867D01*
X13422449Y-13540771D01*
X13431973Y-13521724D01*
X13441497Y-13512200D01*
X13460545Y-13502676D01*
X13651021Y-13502676D02*
X13670068Y-13502676D01*
X13689116Y-13512200D01*
X13698640Y-13521724D01*
X13708164Y-13540771D01*
X13717688Y-13578867D01*
X13717688Y-13626486D01*
X13708164Y-13664581D01*
X13698640Y-13683628D01*
X13689116Y-13693152D01*
X13670068Y-13702676D01*
X13651021Y-13702676D01*
X13631973Y-13693152D01*
X13622449Y-13683628D01*
X13612926Y-13664581D01*
X13603402Y-13626486D01*
X13603402Y-13578867D01*
X13612926Y-13540771D01*
X13622449Y-13521724D01*
X13631973Y-13512200D01*
X13651021Y-13502676D01*
X13803402Y-13702676D02*
X13803402Y-13569343D01*
X13803402Y-13588390D02*
X13812926Y-13578867D01*
X13831973Y-13569343D01*
X13860545Y-13569343D01*
X13879592Y-13578867D01*
X13889116Y-13597914D01*
X13889116Y-13702676D01*
X13889116Y-13597914D02*
X13898640Y-13578867D01*
X13917688Y-13569343D01*
X13946259Y-13569343D01*
X13965307Y-13578867D01*
X13974830Y-13597914D01*
X13974830Y-13702676D01*
X14070068Y-13702676D02*
X14070068Y-13569343D01*
X14070068Y-13588390D02*
X14079592Y-13578867D01*
X14098640Y-13569343D01*
X14127211Y-13569343D01*
X14146259Y-13578867D01*
X14155783Y-13597914D01*
X14155783Y-13702676D01*
X14155783Y-13597914D02*
X14165307Y-13578867D01*
X14184354Y-13569343D01*
X14212926Y-13569343D01*
X14231973Y-13578867D01*
X14241497Y-13597914D01*
X14241497Y-13702676D01*
X14631973Y-13493152D02*
X14460545Y-13750295D01*
X14889116Y-13502676D02*
X14908164Y-13502676D01*
X14927211Y-13512200D01*
X14936735Y-13521724D01*
X14946259Y-13540771D01*
X14955783Y-13578867D01*
X14955783Y-13626486D01*
X14946259Y-13664581D01*
X14936735Y-13683628D01*
X14927211Y-13693152D01*
X14908164Y-13702676D01*
X14889116Y-13702676D01*
X14870068Y-13693152D01*
X14860545Y-13683628D01*
X14851021Y-13664581D01*
X14841497Y-13626486D01*
X14841497Y-13578867D01*
X14851021Y-13540771D01*
X14860545Y-13521724D01*
X14870068Y-13512200D01*
X14889116Y-13502676D01*
X15041497Y-13683628D02*
X15051021Y-13693152D01*
X15041497Y-13702676D01*
X15031973Y-13693152D01*
X15041497Y-13683628D01*
X15041497Y-13702676D01*
X15174830Y-13502676D02*
X15193878Y-13502676D01*
X15212926Y-13512200D01*
X15222449Y-13521724D01*
X15231973Y-13540771D01*
X15241497Y-13578867D01*
X15241497Y-13626486D01*
X15231973Y-13664581D01*
X15222449Y-13683628D01*
X15212926Y-13693152D01*
X15193878Y-13702676D01*
X15174830Y-13702676D01*
X15155783Y-13693152D01*
X15146259Y-13683628D01*
X15136735Y-13664581D01*
X15127211Y-13626486D01*
X15127211Y-13578867D01*
X15136735Y-13540771D01*
X15146259Y-13521724D01*
X15155783Y-13512200D01*
X15174830Y-13502676D01*
X15308164Y-13502676D02*
X15431973Y-13502676D01*
X15365307Y-13578867D01*
X15393878Y-13578867D01*
X15412926Y-13588390D01*
X15422449Y-13597914D01*
X15431973Y-13616962D01*
X15431973Y-13664581D01*
X15422449Y-13683628D01*
X15412926Y-13693152D01*
X15393878Y-13702676D01*
X15336735Y-13702676D01*
X15317688Y-13693152D01*
X15308164Y-13683628D01*
X15622449Y-13702676D02*
X15508164Y-13702676D01*
X15565307Y-13702676D02*
X15565307Y-13502676D01*
X15546259Y-13531248D01*
X15527211Y-13550295D01*
X15508164Y-13559819D01*
X15803402Y-13502676D02*
X15708164Y-13502676D01*
X15698640Y-13597914D01*
X15708164Y-13588390D01*
X15727211Y-13578867D01*
X15774830Y-13578867D01*
X15793878Y-13588390D01*
X15803402Y-13597914D01*
X15812926Y-13616962D01*
X15812926Y-13664581D01*
X15803402Y-13683628D01*
X15793878Y-13693152D01*
X15774830Y-13702676D01*
X15727211Y-13702676D01*
X15708164Y-13693152D01*
X15698640Y-13683628D01*
X15889116Y-13502676D02*
X15889116Y-13540771D01*
X15965307Y-13502676D02*
X15965307Y-13540771D01*
X16260545Y-13778867D02*
X16251021Y-13769343D01*
X16231973Y-13740771D01*
X16222449Y-13721724D01*
X16212926Y-13693152D01*
X16203402Y-13645533D01*
X16203402Y-13607438D01*
X16212926Y-13559819D01*
X16222449Y-13531248D01*
X16231973Y-13512200D01*
X16251021Y-13483628D01*
X16260545Y-13474105D01*
X16422449Y-13569343D02*
X16422449Y-13702676D01*
X16374830Y-13493152D02*
X16327211Y-13636009D01*
X16451021Y-13636009D01*
X16679592Y-13702676D02*
X16679592Y-13502676D01*
X16765307Y-13702676D02*
X16765307Y-13597914D01*
X16755783Y-13578867D01*
X16736735Y-13569343D01*
X16708164Y-13569343D01*
X16689116Y-13578867D01*
X16679592Y-13588390D01*
X16889116Y-13702676D02*
X16870069Y-13693152D01*
X16860545Y-13683628D01*
X16851021Y-13664581D01*
X16851021Y-13607438D01*
X16860545Y-13588390D01*
X16870069Y-13578867D01*
X16889116Y-13569343D01*
X16917688Y-13569343D01*
X16936735Y-13578867D01*
X16946259Y-13588390D01*
X16955783Y-13607438D01*
X16955783Y-13664581D01*
X16946259Y-13683628D01*
X16936735Y-13693152D01*
X16917688Y-13702676D01*
X16889116Y-13702676D01*
X17070069Y-13702676D02*
X17051021Y-13693152D01*
X17041497Y-13674105D01*
X17041497Y-13502676D01*
X17222450Y-13693152D02*
X17203402Y-13702676D01*
X17165307Y-13702676D01*
X17146259Y-13693152D01*
X17136735Y-13674105D01*
X17136735Y-13597914D01*
X17146259Y-13578867D01*
X17165307Y-13569343D01*
X17203402Y-13569343D01*
X17222450Y-13578867D01*
X17231973Y-13597914D01*
X17231973Y-13616962D01*
X17136735Y-13636009D01*
X17308164Y-13693152D02*
X17327211Y-13702676D01*
X17365307Y-13702676D01*
X17384354Y-13693152D01*
X17393878Y-13674105D01*
X17393878Y-13664581D01*
X17384354Y-13645533D01*
X17365307Y-13636009D01*
X17336735Y-13636009D01*
X17317688Y-13626486D01*
X17308164Y-13607438D01*
X17308164Y-13597914D01*
X17317688Y-13578867D01*
X17336735Y-13569343D01*
X17365307Y-13569343D01*
X17384354Y-13578867D01*
X17460545Y-13778867D02*
X17470069Y-13769343D01*
X17489116Y-13740771D01*
X17498640Y-13721724D01*
X17508164Y-13693152D01*
X17517688Y-13645533D01*
X17517688Y-13607438D01*
X17508164Y-13559819D01*
X17498640Y-13531248D01*
X17489116Y-13512200D01*
X17470069Y-13483628D01*
X17460545Y-13474105D01*
D14*
X12643640Y-13831200D02*
X12643640Y-13921200D01*
X12598640Y-13876200D02*
X12688640Y-13876200D01*
D11*
X12984354Y-13766676D02*
X13003402Y-13766676D01*
X13022449Y-13776200D01*
X13031973Y-13785724D01*
X13041497Y-13804771D01*
X13051021Y-13842867D01*
X13051021Y-13890486D01*
X13041497Y-13928581D01*
X13031973Y-13947628D01*
X13022449Y-13957152D01*
X13003402Y-13966676D01*
X12984354Y-13966676D01*
X12965307Y-13957152D01*
X12955783Y-13947628D01*
X12946259Y-13928581D01*
X12936735Y-13890486D01*
X12936735Y-13842867D01*
X12946259Y-13804771D01*
X12955783Y-13785724D01*
X12965307Y-13776200D01*
X12984354Y-13766676D01*
X13136735Y-13947628D02*
X13146259Y-13957152D01*
X13136735Y-13966676D01*
X13127211Y-13957152D01*
X13136735Y-13947628D01*
X13136735Y-13966676D01*
X13241497Y-13966676D02*
X13279592Y-13966676D01*
X13298640Y-13957152D01*
X13308164Y-13947628D01*
X13327211Y-13919057D01*
X13336735Y-13880962D01*
X13336735Y-13804771D01*
X13327211Y-13785724D01*
X13317688Y-13776200D01*
X13298640Y-13766676D01*
X13260545Y-13766676D01*
X13241497Y-13776200D01*
X13231973Y-13785724D01*
X13222449Y-13804771D01*
X13222449Y-13852390D01*
X13231973Y-13871438D01*
X13241497Y-13880962D01*
X13260545Y-13890486D01*
X13298640Y-13890486D01*
X13317688Y-13880962D01*
X13327211Y-13871438D01*
X13336735Y-13852390D01*
X13460545Y-13766676D02*
X13479592Y-13766676D01*
X13498640Y-13776200D01*
X13508164Y-13785724D01*
X13517688Y-13804771D01*
X13527211Y-13842867D01*
X13527211Y-13890486D01*
X13517688Y-13928581D01*
X13508164Y-13947628D01*
X13498640Y-13957152D01*
X13479592Y-13966676D01*
X13460545Y-13966676D01*
X13441497Y-13957152D01*
X13431973Y-13947628D01*
X13422449Y-13928581D01*
X13412926Y-13890486D01*
X13412926Y-13842867D01*
X13422449Y-13804771D01*
X13431973Y-13785724D01*
X13441497Y-13776200D01*
X13460545Y-13766676D01*
X13651021Y-13766676D02*
X13670068Y-13766676D01*
X13689116Y-13776200D01*
X13698640Y-13785724D01*
X13708164Y-13804771D01*
X13717688Y-13842867D01*
X13717688Y-13890486D01*
X13708164Y-13928581D01*
X13698640Y-13947628D01*
X13689116Y-13957152D01*
X13670068Y-13966676D01*
X13651021Y-13966676D01*
X13631973Y-13957152D01*
X13622449Y-13947628D01*
X13612926Y-13928581D01*
X13603402Y-13890486D01*
X13603402Y-13842867D01*
X13612926Y-13804771D01*
X13622449Y-13785724D01*
X13631973Y-13776200D01*
X13651021Y-13766676D01*
X13803402Y-13966676D02*
X13803402Y-13833343D01*
X13803402Y-13852390D02*
X13812926Y-13842867D01*
X13831973Y-13833343D01*
X13860545Y-13833343D01*
X13879592Y-13842867D01*
X13889116Y-13861914D01*
X13889116Y-13966676D01*
X13889116Y-13861914D02*
X13898640Y-13842867D01*
X13917688Y-13833343D01*
X13946259Y-13833343D01*
X13965307Y-13842867D01*
X13974830Y-13861914D01*
X13974830Y-13966676D01*
X14070068Y-13966676D02*
X14070068Y-13833343D01*
X14070068Y-13852390D02*
X14079592Y-13842867D01*
X14098640Y-13833343D01*
X14127211Y-13833343D01*
X14146259Y-13842867D01*
X14155783Y-13861914D01*
X14155783Y-13966676D01*
X14155783Y-13861914D02*
X14165307Y-13842867D01*
X14184354Y-13833343D01*
X14212926Y-13833343D01*
X14231973Y-13842867D01*
X14241497Y-13861914D01*
X14241497Y-13966676D01*
X14631973Y-13757152D02*
X14460545Y-14014295D01*
X14889116Y-13766676D02*
X14908164Y-13766676D01*
X14927211Y-13776200D01*
X14936735Y-13785724D01*
X14946259Y-13804771D01*
X14955783Y-13842867D01*
X14955783Y-13890486D01*
X14946259Y-13928581D01*
X14936735Y-13947628D01*
X14927211Y-13957152D01*
X14908164Y-13966676D01*
X14889116Y-13966676D01*
X14870068Y-13957152D01*
X14860545Y-13947628D01*
X14851021Y-13928581D01*
X14841497Y-13890486D01*
X14841497Y-13842867D01*
X14851021Y-13804771D01*
X14860545Y-13785724D01*
X14870068Y-13776200D01*
X14889116Y-13766676D01*
X15041497Y-13947628D02*
X15051021Y-13957152D01*
X15041497Y-13966676D01*
X15031973Y-13957152D01*
X15041497Y-13947628D01*
X15041497Y-13966676D01*
X15174830Y-13766676D02*
X15193878Y-13766676D01*
X15212926Y-13776200D01*
X15222449Y-13785724D01*
X15231973Y-13804771D01*
X15241497Y-13842867D01*
X15241497Y-13890486D01*
X15231973Y-13928581D01*
X15222449Y-13947628D01*
X15212926Y-13957152D01*
X15193878Y-13966676D01*
X15174830Y-13966676D01*
X15155783Y-13957152D01*
X15146259Y-13947628D01*
X15136735Y-13928581D01*
X15127211Y-13890486D01*
X15127211Y-13842867D01*
X15136735Y-13804771D01*
X15146259Y-13785724D01*
X15155783Y-13776200D01*
X15174830Y-13766676D01*
X15308164Y-13766676D02*
X15431973Y-13766676D01*
X15365307Y-13842867D01*
X15393878Y-13842867D01*
X15412926Y-13852390D01*
X15422449Y-13861914D01*
X15431973Y-13880962D01*
X15431973Y-13928581D01*
X15422449Y-13947628D01*
X15412926Y-13957152D01*
X15393878Y-13966676D01*
X15336735Y-13966676D01*
X15317688Y-13957152D01*
X15308164Y-13947628D01*
X15612926Y-13766676D02*
X15517688Y-13766676D01*
X15508164Y-13861914D01*
X15517688Y-13852390D01*
X15536735Y-13842867D01*
X15584354Y-13842867D01*
X15603402Y-13852390D01*
X15612926Y-13861914D01*
X15622449Y-13880962D01*
X15622449Y-13928581D01*
X15612926Y-13947628D01*
X15603402Y-13957152D01*
X15584354Y-13966676D01*
X15536735Y-13966676D01*
X15517688Y-13957152D01*
X15508164Y-13947628D01*
X15793878Y-13833343D02*
X15793878Y-13966676D01*
X15746259Y-13757152D02*
X15698640Y-13900009D01*
X15822449Y-13900009D01*
X15889116Y-13766676D02*
X15889116Y-13804771D01*
X15965307Y-13766676D02*
X15965307Y-13804771D01*
X16260545Y-14042867D02*
X16251021Y-14033343D01*
X16231973Y-14004771D01*
X16222449Y-13985724D01*
X16212926Y-13957152D01*
X16203402Y-13909533D01*
X16203402Y-13871438D01*
X16212926Y-13823819D01*
X16222449Y-13795248D01*
X16231973Y-13776200D01*
X16251021Y-13747628D01*
X16260545Y-13738105D01*
X16441497Y-13966676D02*
X16327211Y-13966676D01*
X16384354Y-13966676D02*
X16384354Y-13766676D01*
X16365307Y-13795248D01*
X16346259Y-13814295D01*
X16327211Y-13823819D01*
X16679592Y-13966676D02*
X16679592Y-13766676D01*
X16765307Y-13966676D02*
X16765307Y-13861914D01*
X16755783Y-13842867D01*
X16736735Y-13833343D01*
X16708164Y-13833343D01*
X16689116Y-13842867D01*
X16679592Y-13852390D01*
X16889116Y-13966676D02*
X16870069Y-13957152D01*
X16860545Y-13947628D01*
X16851021Y-13928581D01*
X16851021Y-13871438D01*
X16860545Y-13852390D01*
X16870069Y-13842867D01*
X16889116Y-13833343D01*
X16917688Y-13833343D01*
X16936735Y-13842867D01*
X16946259Y-13852390D01*
X16955783Y-13871438D01*
X16955783Y-13928581D01*
X16946259Y-13947628D01*
X16936735Y-13957152D01*
X16917688Y-13966676D01*
X16889116Y-13966676D01*
X17070069Y-13966676D02*
X17051021Y-13957152D01*
X17041497Y-13938105D01*
X17041497Y-13766676D01*
X17222450Y-13957152D02*
X17203402Y-13966676D01*
X17165307Y-13966676D01*
X17146259Y-13957152D01*
X17136735Y-13938105D01*
X17136735Y-13861914D01*
X17146259Y-13842867D01*
X17165307Y-13833343D01*
X17203402Y-13833343D01*
X17222450Y-13842867D01*
X17231973Y-13861914D01*
X17231973Y-13880962D01*
X17136735Y-13900009D01*
X17298640Y-14042867D02*
X17308164Y-14033343D01*
X17327211Y-14004771D01*
X17336735Y-13985724D01*
X17346259Y-13957152D01*
X17355783Y-13909533D01*
X17355783Y-13871438D01*
X17346259Y-13823819D01*
X17336735Y-13795248D01*
X17327211Y-13776200D01*
X17308164Y-13747628D01*
X17298640Y-13738105D01*
D15*
X12673996Y-14175556D02*
X12673996Y-14104844D01*
X12603284Y-14104844D01*
X12603284Y-14175556D01*
X12673996Y-14175556D01*
D11*
X13051021Y-14230676D02*
X12936735Y-14230676D01*
X12993878Y-14230676D02*
X12993878Y-14030676D01*
X12974830Y-14059248D01*
X12955783Y-14078295D01*
X12936735Y-14087819D01*
X13136735Y-14211628D02*
X13146259Y-14221152D01*
X13136735Y-14230676D01*
X13127211Y-14221152D01*
X13136735Y-14211628D01*
X13136735Y-14230676D01*
X13270068Y-14030676D02*
X13289116Y-14030676D01*
X13308164Y-14040200D01*
X13317688Y-14049724D01*
X13327211Y-14068771D01*
X13336735Y-14106867D01*
X13336735Y-14154486D01*
X13327211Y-14192581D01*
X13317688Y-14211628D01*
X13308164Y-14221152D01*
X13289116Y-14230676D01*
X13270068Y-14230676D01*
X13251021Y-14221152D01*
X13241497Y-14211628D01*
X13231973Y-14192581D01*
X13222449Y-14154486D01*
X13222449Y-14106867D01*
X13231973Y-14068771D01*
X13241497Y-14049724D01*
X13251021Y-14040200D01*
X13270068Y-14030676D01*
X13460545Y-14030676D02*
X13479592Y-14030676D01*
X13498640Y-14040200D01*
X13508164Y-14049724D01*
X13517688Y-14068771D01*
X13527211Y-14106867D01*
X13527211Y-14154486D01*
X13517688Y-14192581D01*
X13508164Y-14211628D01*
X13498640Y-14221152D01*
X13479592Y-14230676D01*
X13460545Y-14230676D01*
X13441497Y-14221152D01*
X13431973Y-14211628D01*
X13422449Y-14192581D01*
X13412926Y-14154486D01*
X13412926Y-14106867D01*
X13422449Y-14068771D01*
X13431973Y-14049724D01*
X13441497Y-14040200D01*
X13460545Y-14030676D01*
X13651021Y-14030676D02*
X13670068Y-14030676D01*
X13689116Y-14040200D01*
X13698640Y-14049724D01*
X13708164Y-14068771D01*
X13717688Y-14106867D01*
X13717688Y-14154486D01*
X13708164Y-14192581D01*
X13698640Y-14211628D01*
X13689116Y-14221152D01*
X13670068Y-14230676D01*
X13651021Y-14230676D01*
X13631973Y-14221152D01*
X13622449Y-14211628D01*
X13612926Y-14192581D01*
X13603402Y-14154486D01*
X13603402Y-14106867D01*
X13612926Y-14068771D01*
X13622449Y-14049724D01*
X13631973Y-14040200D01*
X13651021Y-14030676D01*
X13803402Y-14230676D02*
X13803402Y-14097343D01*
X13803402Y-14116390D02*
X13812926Y-14106867D01*
X13831973Y-14097343D01*
X13860545Y-14097343D01*
X13879592Y-14106867D01*
X13889116Y-14125914D01*
X13889116Y-14230676D01*
X13889116Y-14125914D02*
X13898640Y-14106867D01*
X13917688Y-14097343D01*
X13946259Y-14097343D01*
X13965307Y-14106867D01*
X13974830Y-14125914D01*
X13974830Y-14230676D01*
X14070068Y-14230676D02*
X14070068Y-14097343D01*
X14070068Y-14116390D02*
X14079592Y-14106867D01*
X14098640Y-14097343D01*
X14127211Y-14097343D01*
X14146259Y-14106867D01*
X14155783Y-14125914D01*
X14155783Y-14230676D01*
X14155783Y-14125914D02*
X14165307Y-14106867D01*
X14184354Y-14097343D01*
X14212926Y-14097343D01*
X14231973Y-14106867D01*
X14241497Y-14125914D01*
X14241497Y-14230676D01*
X14631973Y-14021152D02*
X14460545Y-14278295D01*
X14889116Y-14030676D02*
X14908164Y-14030676D01*
X14927211Y-14040200D01*
X14936735Y-14049724D01*
X14946259Y-14068771D01*
X14955783Y-14106867D01*
X14955783Y-14154486D01*
X14946259Y-14192581D01*
X14936735Y-14211628D01*
X14927211Y-14221152D01*
X14908164Y-14230676D01*
X14889116Y-14230676D01*
X14870068Y-14221152D01*
X14860545Y-14211628D01*
X14851021Y-14192581D01*
X14841497Y-14154486D01*
X14841497Y-14106867D01*
X14851021Y-14068771D01*
X14860545Y-14049724D01*
X14870068Y-14040200D01*
X14889116Y-14030676D01*
X15041497Y-14211628D02*
X15051021Y-14221152D01*
X15041497Y-14230676D01*
X15031973Y-14221152D01*
X15041497Y-14211628D01*
X15041497Y-14230676D01*
X15174830Y-14030676D02*
X15193878Y-14030676D01*
X15212926Y-14040200D01*
X15222449Y-14049724D01*
X15231973Y-14068771D01*
X15241497Y-14106867D01*
X15241497Y-14154486D01*
X15231973Y-14192581D01*
X15222449Y-14211628D01*
X15212926Y-14221152D01*
X15193878Y-14230676D01*
X15174830Y-14230676D01*
X15155783Y-14221152D01*
X15146259Y-14211628D01*
X15136735Y-14192581D01*
X15127211Y-14154486D01*
X15127211Y-14106867D01*
X15136735Y-14068771D01*
X15146259Y-14049724D01*
X15155783Y-14040200D01*
X15174830Y-14030676D01*
X15308164Y-14030676D02*
X15431973Y-14030676D01*
X15365307Y-14106867D01*
X15393878Y-14106867D01*
X15412926Y-14116390D01*
X15422449Y-14125914D01*
X15431973Y-14144962D01*
X15431973Y-14192581D01*
X15422449Y-14211628D01*
X15412926Y-14221152D01*
X15393878Y-14230676D01*
X15336735Y-14230676D01*
X15317688Y-14221152D01*
X15308164Y-14211628D01*
X15527211Y-14230676D02*
X15565307Y-14230676D01*
X15584354Y-14221152D01*
X15593878Y-14211628D01*
X15612926Y-14183057D01*
X15622449Y-14144962D01*
X15622449Y-14068771D01*
X15612926Y-14049724D01*
X15603402Y-14040200D01*
X15584354Y-14030676D01*
X15546259Y-14030676D01*
X15527211Y-14040200D01*
X15517688Y-14049724D01*
X15508164Y-14068771D01*
X15508164Y-14116390D01*
X15517688Y-14135438D01*
X15527211Y-14144962D01*
X15546259Y-14154486D01*
X15584354Y-14154486D01*
X15603402Y-14144962D01*
X15612926Y-14135438D01*
X15622449Y-14116390D01*
X15793878Y-14097343D02*
X15793878Y-14230676D01*
X15746259Y-14021152D02*
X15698640Y-14164009D01*
X15822449Y-14164009D01*
X15889116Y-14030676D02*
X15889116Y-14068771D01*
X15965307Y-14030676D02*
X15965307Y-14068771D01*
X16260545Y-14306867D02*
X16251021Y-14297343D01*
X16231973Y-14268771D01*
X16222449Y-14249724D01*
X16212926Y-14221152D01*
X16203402Y-14173533D01*
X16203402Y-14135438D01*
X16212926Y-14087819D01*
X16222449Y-14059248D01*
X16231973Y-14040200D01*
X16251021Y-14011628D01*
X16260545Y-14002105D01*
X16327211Y-14049724D02*
X16336735Y-14040200D01*
X16355783Y-14030676D01*
X16403402Y-14030676D01*
X16422449Y-14040200D01*
X16431973Y-14049724D01*
X16441497Y-14068771D01*
X16441497Y-14087819D01*
X16431973Y-14116390D01*
X16317688Y-14230676D01*
X16441497Y-14230676D01*
X16631973Y-14230676D02*
X16517688Y-14230676D01*
X16574830Y-14230676D02*
X16574830Y-14030676D01*
X16555783Y-14059248D01*
X16536735Y-14078295D01*
X16517688Y-14087819D01*
X16870069Y-14230676D02*
X16870069Y-14030676D01*
X16955783Y-14230676D02*
X16955783Y-14125914D01*
X16946259Y-14106867D01*
X16927211Y-14097343D01*
X16898640Y-14097343D01*
X16879592Y-14106867D01*
X16870069Y-14116390D01*
X17079592Y-14230676D02*
X17060545Y-14221152D01*
X17051021Y-14211628D01*
X17041497Y-14192581D01*
X17041497Y-14135438D01*
X17051021Y-14116390D01*
X17060545Y-14106867D01*
X17079592Y-14097343D01*
X17108164Y-14097343D01*
X17127211Y-14106867D01*
X17136735Y-14116390D01*
X17146259Y-14135438D01*
X17146259Y-14192581D01*
X17136735Y-14211628D01*
X17127211Y-14221152D01*
X17108164Y-14230676D01*
X17079592Y-14230676D01*
X17260545Y-14230676D02*
X17241497Y-14221152D01*
X17231973Y-14202105D01*
X17231973Y-14030676D01*
X17412926Y-14221152D02*
X17393878Y-14230676D01*
X17355783Y-14230676D01*
X17336735Y-14221152D01*
X17327211Y-14202105D01*
X17327211Y-14125914D01*
X17336735Y-14106867D01*
X17355783Y-14097343D01*
X17393878Y-14097343D01*
X17412926Y-14106867D01*
X17422450Y-14125914D01*
X17422450Y-14144962D01*
X17327211Y-14164009D01*
X17498640Y-14221152D02*
X17517688Y-14230676D01*
X17555783Y-14230676D01*
X17574830Y-14221152D01*
X17584354Y-14202105D01*
X17584354Y-14192581D01*
X17574830Y-14173533D01*
X17555783Y-14164009D01*
X17527211Y-14164009D01*
X17508164Y-14154486D01*
X17498640Y-14135438D01*
X17498640Y-14125914D01*
X17508164Y-14106867D01*
X17527211Y-14097343D01*
X17555783Y-14097343D01*
X17574830Y-14106867D01*
X17651021Y-14306867D02*
X17660545Y-14297343D01*
X17679592Y-14268771D01*
X17689116Y-14249724D01*
X17698640Y-14221152D01*
X17708164Y-14173533D01*
X17708164Y-14135438D01*
X17698640Y-14087819D01*
X17689116Y-14059248D01*
X17679592Y-14040200D01*
X17660545Y-14011628D01*
X17651021Y-14002105D01*
D15*
X12638640Y-14454200D02*
X12688640Y-14404200D01*
X12638640Y-14354200D01*
X12588640Y-14404200D01*
X12638640Y-14454200D01*
D11*
X13051021Y-14494676D02*
X12936735Y-14494676D01*
X12993878Y-14494676D02*
X12993878Y-14294676D01*
X12974830Y-14323248D01*
X12955783Y-14342295D01*
X12936735Y-14351819D01*
X13136735Y-14475628D02*
X13146259Y-14485152D01*
X13136735Y-14494676D01*
X13127211Y-14485152D01*
X13136735Y-14475628D01*
X13136735Y-14494676D01*
X13270068Y-14294676D02*
X13289116Y-14294676D01*
X13308164Y-14304200D01*
X13317688Y-14313724D01*
X13327211Y-14332771D01*
X13336735Y-14370867D01*
X13336735Y-14418486D01*
X13327211Y-14456581D01*
X13317688Y-14475628D01*
X13308164Y-14485152D01*
X13289116Y-14494676D01*
X13270068Y-14494676D01*
X13251021Y-14485152D01*
X13241497Y-14475628D01*
X13231973Y-14456581D01*
X13222449Y-14418486D01*
X13222449Y-14370867D01*
X13231973Y-14332771D01*
X13241497Y-14313724D01*
X13251021Y-14304200D01*
X13270068Y-14294676D01*
X13460545Y-14294676D02*
X13479592Y-14294676D01*
X13498640Y-14304200D01*
X13508164Y-14313724D01*
X13517688Y-14332771D01*
X13527211Y-14370867D01*
X13527211Y-14418486D01*
X13517688Y-14456581D01*
X13508164Y-14475628D01*
X13498640Y-14485152D01*
X13479592Y-14494676D01*
X13460545Y-14494676D01*
X13441497Y-14485152D01*
X13431973Y-14475628D01*
X13422449Y-14456581D01*
X13412926Y-14418486D01*
X13412926Y-14370867D01*
X13422449Y-14332771D01*
X13431973Y-14313724D01*
X13441497Y-14304200D01*
X13460545Y-14294676D01*
X13651021Y-14294676D02*
X13670068Y-14294676D01*
X13689116Y-14304200D01*
X13698640Y-14313724D01*
X13708164Y-14332771D01*
X13717688Y-14370867D01*
X13717688Y-14418486D01*
X13708164Y-14456581D01*
X13698640Y-14475628D01*
X13689116Y-14485152D01*
X13670068Y-14494676D01*
X13651021Y-14494676D01*
X13631973Y-14485152D01*
X13622449Y-14475628D01*
X13612926Y-14456581D01*
X13603402Y-14418486D01*
X13603402Y-14370867D01*
X13612926Y-14332771D01*
X13622449Y-14313724D01*
X13631973Y-14304200D01*
X13651021Y-14294676D01*
X13803402Y-14494676D02*
X13803402Y-14361343D01*
X13803402Y-14380390D02*
X13812926Y-14370867D01*
X13831973Y-14361343D01*
X13860545Y-14361343D01*
X13879592Y-14370867D01*
X13889116Y-14389914D01*
X13889116Y-14494676D01*
X13889116Y-14389914D02*
X13898640Y-14370867D01*
X13917688Y-14361343D01*
X13946259Y-14361343D01*
X13965307Y-14370867D01*
X13974830Y-14389914D01*
X13974830Y-14494676D01*
X14070068Y-14494676D02*
X14070068Y-14361343D01*
X14070068Y-14380390D02*
X14079592Y-14370867D01*
X14098640Y-14361343D01*
X14127211Y-14361343D01*
X14146259Y-14370867D01*
X14155783Y-14389914D01*
X14155783Y-14494676D01*
X14155783Y-14389914D02*
X14165307Y-14370867D01*
X14184354Y-14361343D01*
X14212926Y-14361343D01*
X14231973Y-14370867D01*
X14241497Y-14389914D01*
X14241497Y-14494676D01*
X14631973Y-14285152D02*
X14460545Y-14542295D01*
X14889116Y-14294676D02*
X14908164Y-14294676D01*
X14927211Y-14304200D01*
X14936735Y-14313724D01*
X14946259Y-14332771D01*
X14955783Y-14370867D01*
X14955783Y-14418486D01*
X14946259Y-14456581D01*
X14936735Y-14475628D01*
X14927211Y-14485152D01*
X14908164Y-14494676D01*
X14889116Y-14494676D01*
X14870068Y-14485152D01*
X14860545Y-14475628D01*
X14851021Y-14456581D01*
X14841497Y-14418486D01*
X14841497Y-14370867D01*
X14851021Y-14332771D01*
X14860545Y-14313724D01*
X14870068Y-14304200D01*
X14889116Y-14294676D01*
X15041497Y-14475628D02*
X15051021Y-14485152D01*
X15041497Y-14494676D01*
X15031973Y-14485152D01*
X15041497Y-14475628D01*
X15041497Y-14494676D01*
X15174830Y-14294676D02*
X15193878Y-14294676D01*
X15212926Y-14304200D01*
X15222449Y-14313724D01*
X15231973Y-14332771D01*
X15241497Y-14370867D01*
X15241497Y-14418486D01*
X15231973Y-14456581D01*
X15222449Y-14475628D01*
X15212926Y-14485152D01*
X15193878Y-14494676D01*
X15174830Y-14494676D01*
X15155783Y-14485152D01*
X15146259Y-14475628D01*
X15136735Y-14456581D01*
X15127211Y-14418486D01*
X15127211Y-14370867D01*
X15136735Y-14332771D01*
X15146259Y-14313724D01*
X15155783Y-14304200D01*
X15174830Y-14294676D01*
X15308164Y-14294676D02*
X15431973Y-14294676D01*
X15365307Y-14370867D01*
X15393878Y-14370867D01*
X15412926Y-14380390D01*
X15422449Y-14389914D01*
X15431973Y-14408962D01*
X15431973Y-14456581D01*
X15422449Y-14475628D01*
X15412926Y-14485152D01*
X15393878Y-14494676D01*
X15336735Y-14494676D01*
X15317688Y-14485152D01*
X15308164Y-14475628D01*
X15527211Y-14494676D02*
X15565307Y-14494676D01*
X15584354Y-14485152D01*
X15593878Y-14475628D01*
X15612926Y-14447057D01*
X15622449Y-14408962D01*
X15622449Y-14332771D01*
X15612926Y-14313724D01*
X15603402Y-14304200D01*
X15584354Y-14294676D01*
X15546259Y-14294676D01*
X15527211Y-14304200D01*
X15517688Y-14313724D01*
X15508164Y-14332771D01*
X15508164Y-14380390D01*
X15517688Y-14399438D01*
X15527211Y-14408962D01*
X15546259Y-14418486D01*
X15584354Y-14418486D01*
X15603402Y-14408962D01*
X15612926Y-14399438D01*
X15622449Y-14380390D01*
X15793878Y-14361343D02*
X15793878Y-14494676D01*
X15746259Y-14285152D02*
X15698640Y-14428009D01*
X15822449Y-14428009D01*
X15889116Y-14294676D02*
X15889116Y-14332771D01*
X15965307Y-14294676D02*
X15965307Y-14332771D01*
X16260545Y-14570867D02*
X16251021Y-14561343D01*
X16231973Y-14532771D01*
X16222449Y-14513724D01*
X16212926Y-14485152D01*
X16203402Y-14437533D01*
X16203402Y-14399438D01*
X16212926Y-14351819D01*
X16222449Y-14323248D01*
X16231973Y-14304200D01*
X16251021Y-14275628D01*
X16260545Y-14266105D01*
X16441497Y-14494676D02*
X16327211Y-14494676D01*
X16384354Y-14494676D02*
X16384354Y-14294676D01*
X16365307Y-14323248D01*
X16346259Y-14342295D01*
X16327211Y-14351819D01*
X16631973Y-14494676D02*
X16517688Y-14494676D01*
X16574830Y-14494676D02*
X16574830Y-14294676D01*
X16555783Y-14323248D01*
X16536735Y-14342295D01*
X16517688Y-14351819D01*
X16870069Y-14494676D02*
X16870069Y-14294676D01*
X16955783Y-14494676D02*
X16955783Y-14389914D01*
X16946259Y-14370867D01*
X16927211Y-14361343D01*
X16898640Y-14361343D01*
X16879592Y-14370867D01*
X16870069Y-14380390D01*
X17079592Y-14494676D02*
X17060545Y-14485152D01*
X17051021Y-14475628D01*
X17041497Y-14456581D01*
X17041497Y-14399438D01*
X17051021Y-14380390D01*
X17060545Y-14370867D01*
X17079592Y-14361343D01*
X17108164Y-14361343D01*
X17127211Y-14370867D01*
X17136735Y-14380390D01*
X17146259Y-14399438D01*
X17146259Y-14456581D01*
X17136735Y-14475628D01*
X17127211Y-14485152D01*
X17108164Y-14494676D01*
X17079592Y-14494676D01*
X17260545Y-14494676D02*
X17241497Y-14485152D01*
X17231973Y-14466105D01*
X17231973Y-14294676D01*
X17412926Y-14485152D02*
X17393878Y-14494676D01*
X17355783Y-14494676D01*
X17336735Y-14485152D01*
X17327211Y-14466105D01*
X17327211Y-14389914D01*
X17336735Y-14370867D01*
X17355783Y-14361343D01*
X17393878Y-14361343D01*
X17412926Y-14370867D01*
X17422450Y-14389914D01*
X17422450Y-14408962D01*
X17327211Y-14428009D01*
X17498640Y-14485152D02*
X17517688Y-14494676D01*
X17555783Y-14494676D01*
X17574830Y-14485152D01*
X17584354Y-14466105D01*
X17584354Y-14456581D01*
X17574830Y-14437533D01*
X17555783Y-14428009D01*
X17527211Y-14428009D01*
X17508164Y-14418486D01*
X17498640Y-14399438D01*
X17498640Y-14389914D01*
X17508164Y-14370867D01*
X17527211Y-14361343D01*
X17555783Y-14361343D01*
X17574830Y-14370867D01*
X17651021Y-14570867D02*
X17660545Y-14561343D01*
X17679592Y-14532771D01*
X17689116Y-14513724D01*
X17698640Y-14485152D01*
X17708164Y-14437533D01*
X17708164Y-14399438D01*
X17698640Y-14351819D01*
X17689116Y-14323248D01*
X17679592Y-14304200D01*
X17660545Y-14275628D01*
X17651021Y-14266105D01*
X12488640Y-14568200D02*
X12688640Y-14768200D01*
X12688640Y-14568200D02*
X12488640Y-14768200D01*
X12688640Y-14668200D02*
G75*
G03*
X12688640Y-14668200I-100000J0D01*
G01*
X12936735Y-14577724D02*
X12946259Y-14568200D01*
X12965307Y-14558676D01*
X13012926Y-14558676D01*
X13031973Y-14568200D01*
X13041497Y-14577724D01*
X13051021Y-14596771D01*
X13051021Y-14615819D01*
X13041497Y-14644390D01*
X12927211Y-14758676D01*
X13051021Y-14758676D01*
X13136735Y-14739628D02*
X13146259Y-14749152D01*
X13136735Y-14758676D01*
X13127211Y-14749152D01*
X13136735Y-14739628D01*
X13136735Y-14758676D01*
X13212926Y-14558676D02*
X13346259Y-14558676D01*
X13260545Y-14758676D01*
X13460545Y-14558676D02*
X13479592Y-14558676D01*
X13498640Y-14568200D01*
X13508164Y-14577724D01*
X13517688Y-14596771D01*
X13527211Y-14634867D01*
X13527211Y-14682486D01*
X13517688Y-14720581D01*
X13508164Y-14739628D01*
X13498640Y-14749152D01*
X13479592Y-14758676D01*
X13460545Y-14758676D01*
X13441497Y-14749152D01*
X13431973Y-14739628D01*
X13422449Y-14720581D01*
X13412926Y-14682486D01*
X13412926Y-14634867D01*
X13422449Y-14596771D01*
X13431973Y-14577724D01*
X13441497Y-14568200D01*
X13460545Y-14558676D01*
X13651021Y-14558676D02*
X13670068Y-14558676D01*
X13689116Y-14568200D01*
X13698640Y-14577724D01*
X13708164Y-14596771D01*
X13717688Y-14634867D01*
X13717688Y-14682486D01*
X13708164Y-14720581D01*
X13698640Y-14739628D01*
X13689116Y-14749152D01*
X13670068Y-14758676D01*
X13651021Y-14758676D01*
X13631973Y-14749152D01*
X13622449Y-14739628D01*
X13612926Y-14720581D01*
X13603402Y-14682486D01*
X13603402Y-14634867D01*
X13612926Y-14596771D01*
X13622449Y-14577724D01*
X13631973Y-14568200D01*
X13651021Y-14558676D01*
X13803402Y-14758676D02*
X13803402Y-14625343D01*
X13803402Y-14644390D02*
X13812926Y-14634867D01*
X13831973Y-14625343D01*
X13860545Y-14625343D01*
X13879592Y-14634867D01*
X13889116Y-14653914D01*
X13889116Y-14758676D01*
X13889116Y-14653914D02*
X13898640Y-14634867D01*
X13917688Y-14625343D01*
X13946259Y-14625343D01*
X13965307Y-14634867D01*
X13974830Y-14653914D01*
X13974830Y-14758676D01*
X14070068Y-14758676D02*
X14070068Y-14625343D01*
X14070068Y-14644390D02*
X14079592Y-14634867D01*
X14098640Y-14625343D01*
X14127211Y-14625343D01*
X14146259Y-14634867D01*
X14155783Y-14653914D01*
X14155783Y-14758676D01*
X14155783Y-14653914D02*
X14165307Y-14634867D01*
X14184354Y-14625343D01*
X14212926Y-14625343D01*
X14231973Y-14634867D01*
X14241497Y-14653914D01*
X14241497Y-14758676D01*
X14631973Y-14549152D02*
X14460545Y-14806295D01*
X14889116Y-14558676D02*
X14908164Y-14558676D01*
X14927211Y-14568200D01*
X14936735Y-14577724D01*
X14946259Y-14596771D01*
X14955783Y-14634867D01*
X14955783Y-14682486D01*
X14946259Y-14720581D01*
X14936735Y-14739628D01*
X14927211Y-14749152D01*
X14908164Y-14758676D01*
X14889116Y-14758676D01*
X14870068Y-14749152D01*
X14860545Y-14739628D01*
X14851021Y-14720581D01*
X14841497Y-14682486D01*
X14841497Y-14634867D01*
X14851021Y-14596771D01*
X14860545Y-14577724D01*
X14870068Y-14568200D01*
X14889116Y-14558676D01*
X15041497Y-14739628D02*
X15051021Y-14749152D01*
X15041497Y-14758676D01*
X15031973Y-14749152D01*
X15041497Y-14739628D01*
X15041497Y-14758676D01*
X15241497Y-14758676D02*
X15127211Y-14758676D01*
X15184354Y-14758676D02*
X15184354Y-14558676D01*
X15165307Y-14587248D01*
X15146259Y-14606295D01*
X15127211Y-14615819D01*
X15365307Y-14558676D02*
X15384354Y-14558676D01*
X15403402Y-14568200D01*
X15412926Y-14577724D01*
X15422449Y-14596771D01*
X15431973Y-14634867D01*
X15431973Y-14682486D01*
X15422449Y-14720581D01*
X15412926Y-14739628D01*
X15403402Y-14749152D01*
X15384354Y-14758676D01*
X15365307Y-14758676D01*
X15346259Y-14749152D01*
X15336735Y-14739628D01*
X15327211Y-14720581D01*
X15317688Y-14682486D01*
X15317688Y-14634867D01*
X15327211Y-14596771D01*
X15336735Y-14577724D01*
X15346259Y-14568200D01*
X15365307Y-14558676D01*
X15603402Y-14558676D02*
X15565307Y-14558676D01*
X15546259Y-14568200D01*
X15536735Y-14577724D01*
X15517688Y-14606295D01*
X15508164Y-14644390D01*
X15508164Y-14720581D01*
X15517688Y-14739628D01*
X15527211Y-14749152D01*
X15546259Y-14758676D01*
X15584354Y-14758676D01*
X15603402Y-14749152D01*
X15612926Y-14739628D01*
X15622449Y-14720581D01*
X15622449Y-14672962D01*
X15612926Y-14653914D01*
X15603402Y-14644390D01*
X15584354Y-14634867D01*
X15546259Y-14634867D01*
X15527211Y-14644390D01*
X15517688Y-14653914D01*
X15508164Y-14672962D01*
X15689116Y-14558676D02*
X15812926Y-14558676D01*
X15746259Y-14634867D01*
X15774830Y-14634867D01*
X15793878Y-14644390D01*
X15803402Y-14653914D01*
X15812926Y-14672962D01*
X15812926Y-14720581D01*
X15803402Y-14739628D01*
X15793878Y-14749152D01*
X15774830Y-14758676D01*
X15717688Y-14758676D01*
X15698640Y-14749152D01*
X15689116Y-14739628D01*
X15889116Y-14558676D02*
X15889116Y-14596771D01*
X15965307Y-14558676D02*
X15965307Y-14596771D01*
X16260545Y-14834867D02*
X16251021Y-14825343D01*
X16231973Y-14796771D01*
X16222449Y-14777724D01*
X16212926Y-14749152D01*
X16203402Y-14701533D01*
X16203402Y-14663438D01*
X16212926Y-14615819D01*
X16222449Y-14587248D01*
X16231973Y-14568200D01*
X16251021Y-14539628D01*
X16260545Y-14530105D01*
X16327211Y-14577724D02*
X16336735Y-14568200D01*
X16355783Y-14558676D01*
X16403402Y-14558676D01*
X16422449Y-14568200D01*
X16431973Y-14577724D01*
X16441497Y-14596771D01*
X16441497Y-14615819D01*
X16431973Y-14644390D01*
X16317688Y-14758676D01*
X16441497Y-14758676D01*
X16679592Y-14758676D02*
X16679592Y-14558676D01*
X16765307Y-14758676D02*
X16765307Y-14653914D01*
X16755783Y-14634867D01*
X16736735Y-14625343D01*
X16708164Y-14625343D01*
X16689116Y-14634867D01*
X16679592Y-14644390D01*
X16889116Y-14758676D02*
X16870069Y-14749152D01*
X16860545Y-14739628D01*
X16851021Y-14720581D01*
X16851021Y-14663438D01*
X16860545Y-14644390D01*
X16870069Y-14634867D01*
X16889116Y-14625343D01*
X16917688Y-14625343D01*
X16936735Y-14634867D01*
X16946259Y-14644390D01*
X16955783Y-14663438D01*
X16955783Y-14720581D01*
X16946259Y-14739628D01*
X16936735Y-14749152D01*
X16917688Y-14758676D01*
X16889116Y-14758676D01*
X17070069Y-14758676D02*
X17051021Y-14749152D01*
X17041497Y-14730105D01*
X17041497Y-14558676D01*
X17222450Y-14749152D02*
X17203402Y-14758676D01*
X17165307Y-14758676D01*
X17146259Y-14749152D01*
X17136735Y-14730105D01*
X17136735Y-14653914D01*
X17146259Y-14634867D01*
X17165307Y-14625343D01*
X17203402Y-14625343D01*
X17222450Y-14634867D01*
X17231973Y-14653914D01*
X17231973Y-14672962D01*
X17136735Y-14692009D01*
X17308164Y-14749152D02*
X17327211Y-14758676D01*
X17365307Y-14758676D01*
X17384354Y-14749152D01*
X17393878Y-14730105D01*
X17393878Y-14720581D01*
X17384354Y-14701533D01*
X17365307Y-14692009D01*
X17336735Y-14692009D01*
X17317688Y-14682486D01*
X17308164Y-14663438D01*
X17308164Y-14653914D01*
X17317688Y-14634867D01*
X17336735Y-14625343D01*
X17365307Y-14625343D01*
X17384354Y-14634867D01*
X17460545Y-14834867D02*
X17470069Y-14825343D01*
X17489116Y-14796771D01*
X17498640Y-14777724D01*
X17508164Y-14749152D01*
X17517688Y-14701533D01*
X17517688Y-14663438D01*
X17508164Y-14615819D01*
X17498640Y-14587248D01*
X17489116Y-14568200D01*
X17470069Y-14539628D01*
X17460545Y-14530105D01*
X12488640Y-14888200D02*
X12688640Y-15088200D01*
X12688640Y-14888200D02*
X12488640Y-15088200D01*
X12588640Y-14888200D02*
X12588640Y-15088200D01*
X12488640Y-14988200D02*
X12688640Y-14988200D01*
X12927211Y-14878676D02*
X13051021Y-14878676D01*
X12984354Y-14954867D01*
X13012926Y-14954867D01*
X13031973Y-14964390D01*
X13041497Y-14973914D01*
X13051021Y-14992962D01*
X13051021Y-15040581D01*
X13041497Y-15059628D01*
X13031973Y-15069152D01*
X13012926Y-15078676D01*
X12955783Y-15078676D01*
X12936735Y-15069152D01*
X12927211Y-15059628D01*
X13136735Y-15059628D02*
X13146259Y-15069152D01*
X13136735Y-15078676D01*
X13127211Y-15069152D01*
X13136735Y-15059628D01*
X13136735Y-15078676D01*
X13270068Y-14878676D02*
X13289116Y-14878676D01*
X13308164Y-14888200D01*
X13317688Y-14897724D01*
X13327211Y-14916771D01*
X13336735Y-14954867D01*
X13336735Y-15002486D01*
X13327211Y-15040581D01*
X13317688Y-15059628D01*
X13308164Y-15069152D01*
X13289116Y-15078676D01*
X13270068Y-15078676D01*
X13251021Y-15069152D01*
X13241497Y-15059628D01*
X13231973Y-15040581D01*
X13222449Y-15002486D01*
X13222449Y-14954867D01*
X13231973Y-14916771D01*
X13241497Y-14897724D01*
X13251021Y-14888200D01*
X13270068Y-14878676D01*
X13460545Y-14878676D02*
X13479592Y-14878676D01*
X13498640Y-14888200D01*
X13508164Y-14897724D01*
X13517688Y-14916771D01*
X13527211Y-14954867D01*
X13527211Y-15002486D01*
X13517688Y-15040581D01*
X13508164Y-15059628D01*
X13498640Y-15069152D01*
X13479592Y-15078676D01*
X13460545Y-15078676D01*
X13441497Y-15069152D01*
X13431973Y-15059628D01*
X13422449Y-15040581D01*
X13412926Y-15002486D01*
X13412926Y-14954867D01*
X13422449Y-14916771D01*
X13431973Y-14897724D01*
X13441497Y-14888200D01*
X13460545Y-14878676D01*
X13651021Y-14878676D02*
X13670068Y-14878676D01*
X13689116Y-14888200D01*
X13698640Y-14897724D01*
X13708164Y-14916771D01*
X13717688Y-14954867D01*
X13717688Y-15002486D01*
X13708164Y-15040581D01*
X13698640Y-15059628D01*
X13689116Y-15069152D01*
X13670068Y-15078676D01*
X13651021Y-15078676D01*
X13631973Y-15069152D01*
X13622449Y-15059628D01*
X13612926Y-15040581D01*
X13603402Y-15002486D01*
X13603402Y-14954867D01*
X13612926Y-14916771D01*
X13622449Y-14897724D01*
X13631973Y-14888200D01*
X13651021Y-14878676D01*
X13803402Y-15078676D02*
X13803402Y-14945343D01*
X13803402Y-14964390D02*
X13812926Y-14954867D01*
X13831973Y-14945343D01*
X13860545Y-14945343D01*
X13879592Y-14954867D01*
X13889116Y-14973914D01*
X13889116Y-15078676D01*
X13889116Y-14973914D02*
X13898640Y-14954867D01*
X13917688Y-14945343D01*
X13946259Y-14945343D01*
X13965307Y-14954867D01*
X13974830Y-14973914D01*
X13974830Y-15078676D01*
X14070068Y-15078676D02*
X14070068Y-14945343D01*
X14070068Y-14964390D02*
X14079592Y-14954867D01*
X14098640Y-14945343D01*
X14127211Y-14945343D01*
X14146259Y-14954867D01*
X14155783Y-14973914D01*
X14155783Y-15078676D01*
X14155783Y-14973914D02*
X14165307Y-14954867D01*
X14184354Y-14945343D01*
X14212926Y-14945343D01*
X14231973Y-14954867D01*
X14241497Y-14973914D01*
X14241497Y-15078676D01*
X14631973Y-14869152D02*
X14460545Y-15126295D01*
X14889116Y-14878676D02*
X14908164Y-14878676D01*
X14927211Y-14888200D01*
X14936735Y-14897724D01*
X14946259Y-14916771D01*
X14955783Y-14954867D01*
X14955783Y-15002486D01*
X14946259Y-15040581D01*
X14936735Y-15059628D01*
X14927211Y-15069152D01*
X14908164Y-15078676D01*
X14889116Y-15078676D01*
X14870068Y-15069152D01*
X14860545Y-15059628D01*
X14851021Y-15040581D01*
X14841497Y-15002486D01*
X14841497Y-14954867D01*
X14851021Y-14916771D01*
X14860545Y-14897724D01*
X14870068Y-14888200D01*
X14889116Y-14878676D01*
X15041497Y-15059628D02*
X15051021Y-15069152D01*
X15041497Y-15078676D01*
X15031973Y-15069152D01*
X15041497Y-15059628D01*
X15041497Y-15078676D01*
X15241497Y-15078676D02*
X15127211Y-15078676D01*
X15184354Y-15078676D02*
X15184354Y-14878676D01*
X15165307Y-14907248D01*
X15146259Y-14926295D01*
X15127211Y-14935819D01*
X15431973Y-15078676D02*
X15317688Y-15078676D01*
X15374830Y-15078676D02*
X15374830Y-14878676D01*
X15355783Y-14907248D01*
X15336735Y-14926295D01*
X15317688Y-14935819D01*
X15546259Y-14964390D02*
X15527211Y-14954867D01*
X15517688Y-14945343D01*
X15508164Y-14926295D01*
X15508164Y-14916771D01*
X15517688Y-14897724D01*
X15527211Y-14888200D01*
X15546259Y-14878676D01*
X15584354Y-14878676D01*
X15603402Y-14888200D01*
X15612926Y-14897724D01*
X15622449Y-14916771D01*
X15622449Y-14926295D01*
X15612926Y-14945343D01*
X15603402Y-14954867D01*
X15584354Y-14964390D01*
X15546259Y-14964390D01*
X15527211Y-14973914D01*
X15517688Y-14983438D01*
X15508164Y-15002486D01*
X15508164Y-15040581D01*
X15517688Y-15059628D01*
X15527211Y-15069152D01*
X15546259Y-15078676D01*
X15584354Y-15078676D01*
X15603402Y-15069152D01*
X15612926Y-15059628D01*
X15622449Y-15040581D01*
X15622449Y-15002486D01*
X15612926Y-14983438D01*
X15603402Y-14973914D01*
X15584354Y-14964390D01*
X15812926Y-15078676D02*
X15698640Y-15078676D01*
X15755783Y-15078676D02*
X15755783Y-14878676D01*
X15736735Y-14907248D01*
X15717688Y-14926295D01*
X15698640Y-14935819D01*
X15889116Y-14878676D02*
X15889116Y-14916771D01*
X15965307Y-14878676D02*
X15965307Y-14916771D01*
X16260545Y-15154867D02*
X16251021Y-15145343D01*
X16231973Y-15116771D01*
X16222449Y-15097724D01*
X16212926Y-15069152D01*
X16203402Y-15021533D01*
X16203402Y-14983438D01*
X16212926Y-14935819D01*
X16222449Y-14907248D01*
X16231973Y-14888200D01*
X16251021Y-14859628D01*
X16260545Y-14850105D01*
X16327211Y-14897724D02*
X16336735Y-14888200D01*
X16355783Y-14878676D01*
X16403402Y-14878676D01*
X16422449Y-14888200D01*
X16431973Y-14897724D01*
X16441497Y-14916771D01*
X16441497Y-14935819D01*
X16431973Y-14964390D01*
X16317688Y-15078676D01*
X16441497Y-15078676D01*
X16679592Y-15078676D02*
X16679592Y-14878676D01*
X16765307Y-15078676D02*
X16765307Y-14973914D01*
X16755783Y-14954867D01*
X16736735Y-14945343D01*
X16708164Y-14945343D01*
X16689116Y-14954867D01*
X16679592Y-14964390D01*
X16889116Y-15078676D02*
X16870069Y-15069152D01*
X16860545Y-15059628D01*
X16851021Y-15040581D01*
X16851021Y-14983438D01*
X16860545Y-14964390D01*
X16870069Y-14954867D01*
X16889116Y-14945343D01*
X16917688Y-14945343D01*
X16936735Y-14954867D01*
X16946259Y-14964390D01*
X16955783Y-14983438D01*
X16955783Y-15040581D01*
X16946259Y-15059628D01*
X16936735Y-15069152D01*
X16917688Y-15078676D01*
X16889116Y-15078676D01*
X17070069Y-15078676D02*
X17051021Y-15069152D01*
X17041497Y-15050105D01*
X17041497Y-14878676D01*
X17222450Y-15069152D02*
X17203402Y-15078676D01*
X17165307Y-15078676D01*
X17146259Y-15069152D01*
X17136735Y-15050105D01*
X17136735Y-14973914D01*
X17146259Y-14954867D01*
X17165307Y-14945343D01*
X17203402Y-14945343D01*
X17222450Y-14954867D01*
X17231973Y-14973914D01*
X17231973Y-14992962D01*
X17136735Y-15012009D01*
X17308164Y-15069152D02*
X17327211Y-15078676D01*
X17365307Y-15078676D01*
X17384354Y-15069152D01*
X17393878Y-15050105D01*
X17393878Y-15040581D01*
X17384354Y-15021533D01*
X17365307Y-15012009D01*
X17336735Y-15012009D01*
X17317688Y-15002486D01*
X17308164Y-14983438D01*
X17308164Y-14973914D01*
X17317688Y-14954867D01*
X17336735Y-14945343D01*
X17365307Y-14945343D01*
X17384354Y-14954867D01*
X17460545Y-15154867D02*
X17470069Y-15145343D01*
X17489116Y-15116771D01*
X17498640Y-15097724D01*
X17508164Y-15069152D01*
X17517688Y-15021533D01*
X17517688Y-14983438D01*
X17508164Y-14935819D01*
X17498640Y-14907248D01*
X17489116Y-14888200D01*
X17470069Y-14859628D01*
X17460545Y-14850105D01*
M02*
