%TF.GenerationSoftware,KiCad,Pcbnew,(6.0.0-0)*%
%TF.CreationDate,2022-03-27T14:29:04+08:00*%
%TF.ProjectId,driver,64726976-6572-42e6-9b69-6361645f7063,rev?*%
%TF.SameCoordinates,Original*%
%TF.FileFunction,Legend,Top*%
%TF.FilePolarity,Positive*%
%FSLAX46Y46*%
G04 Gerber Fmt 4.6, Leading zero omitted, Abs format (unit mm)*
G04 Created by KiCad (PCBNEW (6.0.0-0)) date 2022-03-27 14:29:04*
%MOMM*%
%LPD*%
G01*
G04 APERTURE LIST*
G04 Aperture macros list*
%AMRoundRect*
0 Rectangle with rounded corners*
0 $1 Rounding radius*
0 $2 $3 $4 $5 $6 $7 $8 $9 X,Y pos of 4 corners*
0 Add a 4 corners polygon primitive as box body*
4,1,4,$2,$3,$4,$5,$6,$7,$8,$9,$2,$3,0*
0 Add four circle primitives for the rounded corners*
1,1,$1+$1,$2,$3*
1,1,$1+$1,$4,$5*
1,1,$1+$1,$6,$7*
1,1,$1+$1,$8,$9*
0 Add four rect primitives between the rounded corners*
20,1,$1+$1,$2,$3,$4,$5,0*
20,1,$1+$1,$4,$5,$6,$7,0*
20,1,$1+$1,$6,$7,$8,$9,0*
20,1,$1+$1,$8,$9,$2,$3,0*%
G04 Aperture macros list end*
%ADD10C,0.127000*%
%ADD11C,0.150000*%
%ADD12C,0.045000*%
%ADD13C,0.120000*%
%ADD14RoundRect,0.101600X-0.499110X0.499110X-0.499110X-0.499110X0.499110X-0.499110X0.499110X0.499110X0*%
%ADD15RoundRect,0.101600X0.499110X-0.499110X0.499110X0.499110X-0.499110X0.499110X-0.499110X-0.499110X0*%
%ADD16RoundRect,0.250000X2.500000X-0.250000X2.500000X0.250000X-2.500000X0.250000X-2.500000X-0.250000X0*%
%ADD17RoundRect,0.250000X1.250000X-0.550000X1.250000X0.550000X-1.250000X0.550000X-1.250000X-0.550000X0*%
%ADD18RoundRect,0.200000X0.200000X0.275000X-0.200000X0.275000X-0.200000X-0.275000X0.200000X-0.275000X0*%
%ADD19RoundRect,0.250000X-2.500000X0.250000X-2.500000X-0.250000X2.500000X-0.250000X2.500000X0.250000X0*%
%ADD20RoundRect,0.250000X-1.250000X0.550000X-1.250000X-0.550000X1.250000X-0.550000X1.250000X0.550000X0*%
%ADD21R,1.700000X1.700000*%
%ADD22O,1.700000X1.700000*%
%ADD23R,1.600000X1.600000*%
%ADD24C,1.600000*%
%ADD25R,3.800000X3.800000*%
%ADD26C,4.000000*%
G04 APERTURE END LIST*
D10*
%TO.C,M2D2*%
X152213128Y-103887971D02*
X152213128Y-103278371D01*
X152416328Y-103713800D01*
X152619528Y-103278371D01*
X152619528Y-103887971D01*
X152880785Y-103336428D02*
X152909814Y-103307400D01*
X152967871Y-103278371D01*
X153113014Y-103278371D01*
X153171071Y-103307400D01*
X153200100Y-103336428D01*
X153229128Y-103394485D01*
X153229128Y-103452542D01*
X153200100Y-103539628D01*
X152851757Y-103887971D01*
X153229128Y-103887971D01*
X153490385Y-103887971D02*
X153490385Y-103278371D01*
X153635528Y-103278371D01*
X153722614Y-103307400D01*
X153780671Y-103365457D01*
X153809700Y-103423514D01*
X153838728Y-103539628D01*
X153838728Y-103626714D01*
X153809700Y-103742828D01*
X153780671Y-103800885D01*
X153722614Y-103858942D01*
X153635528Y-103887971D01*
X153490385Y-103887971D01*
X154070957Y-103336428D02*
X154099985Y-103307400D01*
X154158042Y-103278371D01*
X154303185Y-103278371D01*
X154361242Y-103307400D01*
X154390271Y-103336428D01*
X154419300Y-103394485D01*
X154419300Y-103452542D01*
X154390271Y-103539628D01*
X154041928Y-103887971D01*
X154419300Y-103887971D01*
X152285700Y-105339400D02*
X152227642Y-105310371D01*
X152140557Y-105310371D01*
X152053471Y-105339400D01*
X151995414Y-105397457D01*
X151966385Y-105455514D01*
X151937357Y-105571628D01*
X151937357Y-105658714D01*
X151966385Y-105774828D01*
X151995414Y-105832885D01*
X152053471Y-105890942D01*
X152140557Y-105919971D01*
X152198614Y-105919971D01*
X152285700Y-105890942D01*
X152314728Y-105861914D01*
X152314728Y-105658714D01*
X152198614Y-105658714D01*
X152924328Y-105919971D02*
X152721128Y-105629685D01*
X152575985Y-105919971D02*
X152575985Y-105310371D01*
X152808214Y-105310371D01*
X152866271Y-105339400D01*
X152895300Y-105368428D01*
X152924328Y-105426485D01*
X152924328Y-105513571D01*
X152895300Y-105571628D01*
X152866271Y-105600657D01*
X152808214Y-105629685D01*
X152575985Y-105629685D01*
X153185585Y-105600657D02*
X153388785Y-105600657D01*
X153475871Y-105919971D02*
X153185585Y-105919971D01*
X153185585Y-105310371D01*
X153475871Y-105310371D01*
X153737128Y-105600657D02*
X153940328Y-105600657D01*
X154027414Y-105919971D02*
X153737128Y-105919971D01*
X153737128Y-105310371D01*
X154027414Y-105310371D01*
X154288671Y-105919971D02*
X154288671Y-105310371D01*
X154637014Y-105919971D01*
X154637014Y-105310371D01*
%TO.C,M2D1*%
X152213128Y-103887971D02*
X152213128Y-103278371D01*
X152416328Y-103713800D01*
X152619528Y-103278371D01*
X152619528Y-103887971D01*
X152880785Y-103336428D02*
X152909814Y-103307400D01*
X152967871Y-103278371D01*
X153113014Y-103278371D01*
X153171071Y-103307400D01*
X153200100Y-103336428D01*
X153229128Y-103394485D01*
X153229128Y-103452542D01*
X153200100Y-103539628D01*
X152851757Y-103887971D01*
X153229128Y-103887971D01*
X153490385Y-103887971D02*
X153490385Y-103278371D01*
X153635528Y-103278371D01*
X153722614Y-103307400D01*
X153780671Y-103365457D01*
X153809700Y-103423514D01*
X153838728Y-103539628D01*
X153838728Y-103626714D01*
X153809700Y-103742828D01*
X153780671Y-103800885D01*
X153722614Y-103858942D01*
X153635528Y-103887971D01*
X153490385Y-103887971D01*
X154419300Y-103887971D02*
X154070957Y-103887971D01*
X154245128Y-103887971D02*
X154245128Y-103278371D01*
X154187071Y-103365457D01*
X154129014Y-103423514D01*
X154070957Y-103452542D01*
X152909814Y-101855971D02*
X152706614Y-101565685D01*
X152561471Y-101855971D02*
X152561471Y-101246371D01*
X152793700Y-101246371D01*
X152851757Y-101275400D01*
X152880785Y-101304428D01*
X152909814Y-101362485D01*
X152909814Y-101449571D01*
X152880785Y-101507628D01*
X152851757Y-101536657D01*
X152793700Y-101565685D01*
X152561471Y-101565685D01*
X153171071Y-101536657D02*
X153374271Y-101536657D01*
X153461357Y-101855971D02*
X153171071Y-101855971D01*
X153171071Y-101246371D01*
X153461357Y-101246371D01*
X153722614Y-101855971D02*
X153722614Y-101246371D01*
X153867757Y-101246371D01*
X153954842Y-101275400D01*
X154012900Y-101333457D01*
X154041928Y-101391514D01*
X154070957Y-101507628D01*
X154070957Y-101594714D01*
X154041928Y-101710828D01*
X154012900Y-101768885D01*
X153954842Y-101826942D01*
X153867757Y-101855971D01*
X153722614Y-101855971D01*
%TO.C,M1D1*%
X182744428Y-107951971D02*
X182744428Y-107342371D01*
X182947628Y-107777800D01*
X183150828Y-107342371D01*
X183150828Y-107951971D01*
X183760428Y-107951971D02*
X183412085Y-107951971D01*
X183586257Y-107951971D02*
X183586257Y-107342371D01*
X183528200Y-107429457D01*
X183470142Y-107487514D01*
X183412085Y-107516542D01*
X184021685Y-107951971D02*
X184021685Y-107342371D01*
X184166828Y-107342371D01*
X184253914Y-107371400D01*
X184311971Y-107429457D01*
X184341000Y-107487514D01*
X184370028Y-107603628D01*
X184370028Y-107690714D01*
X184341000Y-107806828D01*
X184311971Y-107864885D01*
X184253914Y-107922942D01*
X184166828Y-107951971D01*
X184021685Y-107951971D01*
X184950600Y-107951971D02*
X184602257Y-107951971D01*
X184776428Y-107951971D02*
X184776428Y-107342371D01*
X184718371Y-107429457D01*
X184660314Y-107487514D01*
X184602257Y-107516542D01*
X183441114Y-105919971D02*
X183237914Y-105629685D01*
X183092771Y-105919971D02*
X183092771Y-105310371D01*
X183325000Y-105310371D01*
X183383057Y-105339400D01*
X183412085Y-105368428D01*
X183441114Y-105426485D01*
X183441114Y-105513571D01*
X183412085Y-105571628D01*
X183383057Y-105600657D01*
X183325000Y-105629685D01*
X183092771Y-105629685D01*
X183702371Y-105600657D02*
X183905571Y-105600657D01*
X183992657Y-105919971D02*
X183702371Y-105919971D01*
X183702371Y-105310371D01*
X183992657Y-105310371D01*
X184253914Y-105919971D02*
X184253914Y-105310371D01*
X184399057Y-105310371D01*
X184486142Y-105339400D01*
X184544200Y-105397457D01*
X184573228Y-105455514D01*
X184602257Y-105571628D01*
X184602257Y-105658714D01*
X184573228Y-105774828D01*
X184544200Y-105832885D01*
X184486142Y-105890942D01*
X184399057Y-105919971D01*
X184253914Y-105919971D01*
D11*
%TO.C,M1J1*%
X185202380Y-106162466D02*
X184202380Y-106162466D01*
X184916666Y-105829133D01*
X184202380Y-105495800D01*
X185202380Y-105495800D01*
X185202380Y-104495800D02*
X185202380Y-105067228D01*
X185202380Y-104781514D02*
X184202380Y-104781514D01*
X184345238Y-104876752D01*
X184440476Y-104971990D01*
X184488095Y-105067228D01*
X184202380Y-103781514D02*
X184916666Y-103781514D01*
X185059523Y-103829133D01*
X185154761Y-103924371D01*
X185202380Y-104067228D01*
X185202380Y-104162466D01*
X185202380Y-102781514D02*
X185202380Y-103352942D01*
X185202380Y-103067228D02*
X184202380Y-103067228D01*
X184345238Y-103162466D01*
X184440476Y-103257704D01*
X184488095Y-103352942D01*
D10*
%TO.C,M1D2*%
X182744428Y-103887971D02*
X182744428Y-103278371D01*
X182947628Y-103713800D01*
X183150828Y-103278371D01*
X183150828Y-103887971D01*
X183760428Y-103887971D02*
X183412085Y-103887971D01*
X183586257Y-103887971D02*
X183586257Y-103278371D01*
X183528200Y-103365457D01*
X183470142Y-103423514D01*
X183412085Y-103452542D01*
X184021685Y-103887971D02*
X184021685Y-103278371D01*
X184166828Y-103278371D01*
X184253914Y-103307400D01*
X184311971Y-103365457D01*
X184341000Y-103423514D01*
X184370028Y-103539628D01*
X184370028Y-103626714D01*
X184341000Y-103742828D01*
X184311971Y-103800885D01*
X184253914Y-103858942D01*
X184166828Y-103887971D01*
X184021685Y-103887971D01*
X184602257Y-103336428D02*
X184631285Y-103307400D01*
X184689342Y-103278371D01*
X184834485Y-103278371D01*
X184892542Y-103307400D01*
X184921571Y-103336428D01*
X184950600Y-103394485D01*
X184950600Y-103452542D01*
X184921571Y-103539628D01*
X184573228Y-103887971D01*
X184950600Y-103887971D01*
X182817000Y-105339400D02*
X182758942Y-105310371D01*
X182671857Y-105310371D01*
X182584771Y-105339400D01*
X182526714Y-105397457D01*
X182497685Y-105455514D01*
X182468657Y-105571628D01*
X182468657Y-105658714D01*
X182497685Y-105774828D01*
X182526714Y-105832885D01*
X182584771Y-105890942D01*
X182671857Y-105919971D01*
X182729914Y-105919971D01*
X182817000Y-105890942D01*
X182846028Y-105861914D01*
X182846028Y-105658714D01*
X182729914Y-105658714D01*
X183455628Y-105919971D02*
X183252428Y-105629685D01*
X183107285Y-105919971D02*
X183107285Y-105310371D01*
X183339514Y-105310371D01*
X183397571Y-105339400D01*
X183426600Y-105368428D01*
X183455628Y-105426485D01*
X183455628Y-105513571D01*
X183426600Y-105571628D01*
X183397571Y-105600657D01*
X183339514Y-105629685D01*
X183107285Y-105629685D01*
X183716885Y-105600657D02*
X183920085Y-105600657D01*
X184007171Y-105919971D02*
X183716885Y-105919971D01*
X183716885Y-105310371D01*
X184007171Y-105310371D01*
X184268428Y-105600657D02*
X184471628Y-105600657D01*
X184558714Y-105919971D02*
X184268428Y-105919971D01*
X184268428Y-105310371D01*
X184558714Y-105310371D01*
X184819971Y-105919971D02*
X184819971Y-105310371D01*
X185168314Y-105919971D01*
X185168314Y-105310371D01*
D12*
%TO.C,M1R0*%
X183554428Y-101101914D02*
X183554428Y-101301914D01*
X183483000Y-100987628D02*
X183411571Y-101201914D01*
X183597285Y-101201914D01*
X183711571Y-101273342D02*
X183725857Y-101287628D01*
X183711571Y-101301914D01*
X183697285Y-101287628D01*
X183711571Y-101273342D01*
X183711571Y-101301914D01*
X183825857Y-101001914D02*
X184025857Y-101001914D01*
X183897285Y-101301914D01*
X184140142Y-101301914D02*
X184140142Y-101001914D01*
X184168714Y-101187628D02*
X184254428Y-101301914D01*
X184254428Y-101101914D02*
X184140142Y-101216200D01*
%TO.C,M2R0*%
X153023128Y-105165914D02*
X153023128Y-105365914D01*
X152951700Y-105051628D02*
X152880271Y-105265914D01*
X153065985Y-105265914D01*
X153180271Y-105337342D02*
X153194557Y-105351628D01*
X153180271Y-105365914D01*
X153165985Y-105351628D01*
X153180271Y-105337342D01*
X153180271Y-105365914D01*
X153294557Y-105065914D02*
X153494557Y-105065914D01*
X153365985Y-105365914D01*
X153608842Y-105365914D02*
X153608842Y-105065914D01*
X153637414Y-105251628D02*
X153723128Y-105365914D01*
X153723128Y-105165914D02*
X153608842Y-105280200D01*
D11*
%TO.C,M2J1*%
X152798726Y-106223666D02*
X151798726Y-106223666D01*
X152513012Y-105890333D01*
X151798726Y-105557000D01*
X152798726Y-105557000D01*
X151893965Y-105128428D02*
X151846346Y-105080809D01*
X151798726Y-104985571D01*
X151798726Y-104747476D01*
X151846346Y-104652238D01*
X151893965Y-104604619D01*
X151989203Y-104557000D01*
X152084441Y-104557000D01*
X152227298Y-104604619D01*
X152798726Y-105176047D01*
X152798726Y-104557000D01*
X151798726Y-103842714D02*
X152513012Y-103842714D01*
X152655869Y-103890333D01*
X152751107Y-103985571D01*
X152798726Y-104128428D01*
X152798726Y-104223666D01*
X152798726Y-102842714D02*
X152798726Y-103414142D01*
X152798726Y-103128428D02*
X151798726Y-103128428D01*
X151941584Y-103223666D01*
X152036822Y-103318904D01*
X152084441Y-103414142D01*
%TO.C,J2*%
X162152580Y-124533333D02*
X162866866Y-124533333D01*
X163009723Y-124580952D01*
X163104961Y-124676190D01*
X163152580Y-124819047D01*
X163152580Y-124914285D01*
X162247819Y-124104761D02*
X162200200Y-124057142D01*
X162152580Y-123961904D01*
X162152580Y-123723809D01*
X162200200Y-123628571D01*
X162247819Y-123580952D01*
X162343057Y-123533333D01*
X162438295Y-123533333D01*
X162581152Y-123580952D01*
X163152580Y-124152380D01*
X163152580Y-123533333D01*
%TO.C,M2CP1*%
X148811798Y-120044365D02*
X147811798Y-120044365D01*
X148526084Y-119711031D01*
X147811798Y-119377698D01*
X148811798Y-119377698D01*
X147907037Y-118949127D02*
X147859418Y-118901508D01*
X147811798Y-118806270D01*
X147811798Y-118568174D01*
X147859418Y-118472936D01*
X147907037Y-118425317D01*
X148002275Y-118377698D01*
X148097513Y-118377698D01*
X148240370Y-118425317D01*
X148811798Y-118996746D01*
X148811798Y-118377698D01*
X148716560Y-117377698D02*
X148764179Y-117425317D01*
X148811798Y-117568174D01*
X148811798Y-117663412D01*
X148764179Y-117806270D01*
X148668941Y-117901508D01*
X148573703Y-117949127D01*
X148383227Y-117996746D01*
X148240370Y-117996746D01*
X148049894Y-117949127D01*
X147954656Y-117901508D01*
X147859418Y-117806270D01*
X147811798Y-117663412D01*
X147811798Y-117568174D01*
X147859418Y-117425317D01*
X147907037Y-117377698D01*
X148811798Y-116949127D02*
X147811798Y-116949127D01*
X147811798Y-116568174D01*
X147859418Y-116472936D01*
X147907037Y-116425317D01*
X148002275Y-116377698D01*
X148145132Y-116377698D01*
X148240370Y-116425317D01*
X148287989Y-116472936D01*
X148335608Y-116568174D01*
X148335608Y-116949127D01*
X148811798Y-115425317D02*
X148811798Y-115996746D01*
X148811798Y-115711031D02*
X147811798Y-115711031D01*
X147954656Y-115806270D01*
X148049894Y-115901508D01*
X148097513Y-115996746D01*
%TO.C,M1CP1*%
X164633380Y-120044365D02*
X163633380Y-120044365D01*
X164347666Y-119711031D01*
X163633380Y-119377698D01*
X164633380Y-119377698D01*
X164633380Y-118377698D02*
X164633380Y-118949127D01*
X164633380Y-118663412D02*
X163633380Y-118663412D01*
X163776238Y-118758651D01*
X163871476Y-118853889D01*
X163919095Y-118949127D01*
X164538142Y-117377698D02*
X164585761Y-117425317D01*
X164633380Y-117568174D01*
X164633380Y-117663412D01*
X164585761Y-117806270D01*
X164490523Y-117901508D01*
X164395285Y-117949127D01*
X164204809Y-117996746D01*
X164061952Y-117996746D01*
X163871476Y-117949127D01*
X163776238Y-117901508D01*
X163681000Y-117806270D01*
X163633380Y-117663412D01*
X163633380Y-117568174D01*
X163681000Y-117425317D01*
X163728619Y-117377698D01*
X164633380Y-116949127D02*
X163633380Y-116949127D01*
X163633380Y-116568174D01*
X163681000Y-116472936D01*
X163728619Y-116425317D01*
X163823857Y-116377698D01*
X163966714Y-116377698D01*
X164061952Y-116425317D01*
X164109571Y-116472936D01*
X164157190Y-116568174D01*
X164157190Y-116949127D01*
X164633380Y-115425317D02*
X164633380Y-115996746D01*
X164633380Y-115711031D02*
X163633380Y-115711031D01*
X163776238Y-115806270D01*
X163871476Y-115901508D01*
X163919095Y-115996746D01*
%TO.C,J1*%
X164949780Y-115395333D02*
X165664066Y-115395333D01*
X165806923Y-115442952D01*
X165902161Y-115538190D01*
X165949780Y-115681047D01*
X165949780Y-115776285D01*
X165949780Y-114395333D02*
X165949780Y-114966761D01*
X165949780Y-114681047D02*
X164949780Y-114681047D01*
X165092638Y-114776285D01*
X165187876Y-114871523D01*
X165235495Y-114966761D01*
X161604542Y-109133428D02*
X161604542Y-107990571D01*
X161604542Y-122133428D02*
X161604542Y-120990571D01*
X162175971Y-121562000D02*
X161033114Y-121562000D01*
D10*
%TO.C,M2D2*%
X153459180Y-104628200D02*
X153144220Y-104945700D01*
X154889200Y-104153220D02*
X154889200Y-105103180D01*
X153459180Y-104153220D02*
X153459180Y-104628200D01*
X153459180Y-104628200D02*
X153459180Y-105103180D01*
X153459180Y-104628200D02*
X153144220Y-104310700D01*
%TO.C,M2D1*%
X151714200Y-103071180D02*
X151714200Y-102121220D01*
X153144220Y-102596200D02*
X153459180Y-102278700D01*
X153144220Y-102596200D02*
X153459180Y-102913700D01*
X153144220Y-103071180D02*
X153144220Y-102596200D01*
X153144220Y-102596200D02*
X153144220Y-102121220D01*
%TO.C,M1D1*%
X183675520Y-106660200D02*
X183990480Y-106342700D01*
X183675520Y-107135180D02*
X183675520Y-106660200D01*
X183675520Y-106660200D02*
X183990480Y-106977700D01*
X182245500Y-107135180D02*
X182245500Y-106185220D01*
X183675520Y-106660200D02*
X183675520Y-106185220D01*
D13*
%TO.C,M1J1*%
X191060000Y-96410800D02*
X191060000Y-98735800D01*
X191060000Y-112580800D02*
X191060000Y-110255800D01*
X190210000Y-112580800D02*
X191060000Y-112580800D01*
X186690000Y-112580800D02*
X185840000Y-112580800D01*
X185840000Y-96410800D02*
X186690000Y-96410800D01*
X191060000Y-110255800D02*
X193450000Y-110255800D01*
X190210000Y-96410800D02*
X191060000Y-96410800D01*
X185840000Y-112580800D02*
X185840000Y-96410800D01*
D10*
%TO.C,M1D2*%
X185420500Y-104153220D02*
X185420500Y-105103180D01*
X183990480Y-104628200D02*
X183990480Y-105103180D01*
X183990480Y-104153220D02*
X183990480Y-104628200D01*
X183990480Y-104628200D02*
X183675520Y-104945700D01*
X183990480Y-104628200D02*
X183675520Y-104310700D01*
D13*
%TO.C,M1R0*%
X184070258Y-103118700D02*
X183595742Y-103118700D01*
X184070258Y-102073700D02*
X183595742Y-102073700D01*
%TO.C,M2R0*%
X153538958Y-107182700D02*
X153064442Y-107182700D01*
X153538958Y-106137700D02*
X153064442Y-106137700D01*
%TO.C,M2J1*%
X146036346Y-98797000D02*
X143646346Y-98797000D01*
X150406346Y-96472000D02*
X151256346Y-96472000D01*
X151256346Y-112642000D02*
X150406346Y-112642000D01*
X146036346Y-112642000D02*
X146036346Y-110317000D01*
X146886346Y-96472000D02*
X146036346Y-96472000D01*
X151256346Y-96472000D02*
X151256346Y-112642000D01*
X146036346Y-96472000D02*
X146036346Y-98797000D01*
X146886346Y-112642000D02*
X146036346Y-112642000D01*
%TO.C,J2*%
X166300200Y-125530000D02*
X191760200Y-125530000D01*
X166300200Y-122870000D02*
X191760200Y-122870000D01*
X165030200Y-125530000D02*
X163700200Y-125530000D01*
X166300200Y-125530000D02*
X166300200Y-122870000D01*
X191760200Y-125530000D02*
X191760200Y-122870000D01*
X163700200Y-125530000D02*
X163700200Y-124200000D01*
%TO.C,M2CP1*%
X150116418Y-115637651D02*
X152569418Y-115637651D01*
X151796418Y-114077651D02*
X155422418Y-114077651D01*
X149962418Y-115917651D02*
X152569418Y-115917651D01*
X150300418Y-115357651D02*
X152569418Y-115357651D01*
X150590418Y-114997651D02*
X152569418Y-114997651D01*
X150047418Y-115757651D02*
X152569418Y-115757651D01*
X149684418Y-116637651D02*
X152569418Y-116637651D01*
X154649418Y-116757651D02*
X157566418Y-116757651D01*
X150894418Y-121768349D02*
X151694418Y-121768349D01*
X151964418Y-113997651D02*
X155254418Y-113997651D01*
X154649418Y-115357651D02*
X156918418Y-115357651D01*
X150217418Y-115477651D02*
X152569418Y-115477651D01*
X154649418Y-115437651D02*
X156974418Y-115437651D01*
X149544418Y-117398651D02*
X157674418Y-117398651D01*
X149567418Y-117198651D02*
X157651418Y-117198651D01*
X154649418Y-115997651D02*
X157295418Y-115997651D01*
X151507418Y-114237651D02*
X155711418Y-114237651D01*
X150958418Y-114637651D02*
X156260418Y-114637651D01*
X149662418Y-116717651D02*
X152569418Y-116717651D01*
X150389418Y-115237651D02*
X152569418Y-115237651D01*
X150069418Y-115717651D02*
X152569418Y-115717651D01*
X149532418Y-117598651D02*
X157686418Y-117598651D01*
X154649418Y-115877651D02*
X157236418Y-115877651D01*
X149538418Y-117478651D02*
X157680418Y-117478651D01*
X149530418Y-117638651D02*
X157688418Y-117638651D01*
X149804418Y-116277651D02*
X152569418Y-116277651D01*
X150003418Y-115837651D02*
X152569418Y-115837651D01*
X150244418Y-115437651D02*
X152569418Y-115437651D01*
X149707418Y-116557651D02*
X152569418Y-116557651D01*
X154649418Y-115557651D02*
X157053418Y-115557651D01*
X151104418Y-114517651D02*
X156114418Y-114517651D01*
X154649418Y-115157651D02*
X156765418Y-115157651D01*
X154649418Y-115837651D02*
X157215418Y-115837651D01*
X149585418Y-117078651D02*
X157633418Y-117078651D01*
X151645418Y-114157651D02*
X155573418Y-114157651D01*
X149633418Y-116837651D02*
X152569418Y-116837651D01*
X154649418Y-115757651D02*
X157171418Y-115757651D01*
X149615418Y-116917651D02*
X152569418Y-116917651D01*
X149642418Y-116797651D02*
X152569418Y-116797651D01*
X149579418Y-117118651D02*
X157639418Y-117118651D01*
X154649418Y-116117651D02*
X157349418Y-116117651D01*
X151155418Y-114477651D02*
X156063418Y-114477651D01*
X154649418Y-115117651D02*
X156733418Y-115117651D01*
X154649418Y-115677651D02*
X157126418Y-115677651D01*
X154649418Y-116877651D02*
X157594418Y-116877651D01*
X149624418Y-116877651D02*
X152569418Y-116877651D01*
X152263418Y-113877651D02*
X154955418Y-113877651D01*
X154649418Y-114997651D02*
X156628418Y-114997651D01*
X149599418Y-116997651D02*
X152569418Y-116997651D01*
X150742418Y-114837651D02*
X156476418Y-114837651D01*
X149607418Y-116957651D02*
X152569418Y-116957651D01*
X150912418Y-114677651D02*
X156306418Y-114677651D01*
X154649418Y-115397651D02*
X156947418Y-115397651D01*
X152057418Y-113957651D02*
X155161418Y-113957651D01*
X154649418Y-115637651D02*
X157102418Y-115637651D01*
X149529418Y-117678651D02*
X157689418Y-117678651D01*
X154649418Y-115957651D02*
X157275418Y-115957651D01*
X154649418Y-115917651D02*
X157256418Y-115917651D01*
X151381418Y-114317651D02*
X155837418Y-114317651D01*
X150271418Y-115397651D02*
X152569418Y-115397651D01*
X149572418Y-117158651D02*
X157646418Y-117158651D01*
X149529418Y-117758651D02*
X157689418Y-117758651D01*
X154649418Y-116037651D02*
X157313418Y-116037651D01*
X154649418Y-116837651D02*
X157585418Y-116837651D01*
X152156418Y-113917651D02*
X155062418Y-113917651D01*
X151005418Y-114597651D02*
X156213418Y-114597651D01*
X149788418Y-116317651D02*
X152569418Y-116317651D01*
X154649418Y-116437651D02*
X157472418Y-116437651D01*
X154649418Y-115037651D02*
X156664418Y-115037651D01*
X150025418Y-115797651D02*
X152569418Y-115797651D01*
X149835418Y-116197651D02*
X152569418Y-116197651D01*
X154649418Y-116637651D02*
X157534418Y-116637651D01*
X151322418Y-114357651D02*
X155896418Y-114357651D01*
X149529418Y-117718651D02*
X157689418Y-117718651D01*
X154649418Y-115197651D02*
X156798418Y-115197651D01*
X154649418Y-115277651D02*
X156859418Y-115277651D01*
X149533418Y-117558651D02*
X157685418Y-117558651D01*
X150329418Y-115317651D02*
X152569418Y-115317651D01*
X150453418Y-115157651D02*
X152569418Y-115157651D01*
X150140418Y-115597651D02*
X152569418Y-115597651D01*
X152511418Y-113797651D02*
X154707418Y-113797651D01*
X149557418Y-117278651D02*
X157661418Y-117278651D01*
X154649418Y-115477651D02*
X157001418Y-115477651D01*
X150420418Y-115197651D02*
X152569418Y-115197651D01*
X150702418Y-114877651D02*
X156516418Y-114877651D01*
X150165418Y-115557651D02*
X152569418Y-115557651D01*
X151294418Y-122168349D02*
X151294418Y-121368349D01*
X149819418Y-116237651D02*
X152569418Y-116237651D01*
X154649418Y-116517651D02*
X157498418Y-116517651D01*
X151443418Y-114277651D02*
X155775418Y-114277651D01*
X154649418Y-115797651D02*
X157193418Y-115797651D01*
X154649418Y-115237651D02*
X156829418Y-115237651D01*
X151719418Y-114117651D02*
X155499418Y-114117651D01*
X154649418Y-116317651D02*
X157430418Y-116317651D01*
X149720418Y-116517651D02*
X152569418Y-116517651D01*
X151264418Y-114397651D02*
X155954418Y-114397651D01*
X151878418Y-114037651D02*
X155340418Y-114037651D01*
X154649418Y-116277651D02*
X157414418Y-116277651D01*
X149592418Y-117037651D02*
X152569418Y-117037651D01*
X154649418Y-116237651D02*
X157399418Y-116237651D01*
X154649418Y-115517651D02*
X157027418Y-115517651D01*
X150092418Y-115677651D02*
X152569418Y-115677651D01*
X154649418Y-116557651D02*
X157511418Y-116557651D01*
X154649418Y-116477651D02*
X157486418Y-116477651D01*
X154649418Y-116997651D02*
X157619418Y-116997651D01*
X154649418Y-116677651D02*
X157545418Y-116677651D01*
X149552418Y-117318651D02*
X157666418Y-117318651D01*
X149548418Y-117358651D02*
X157670418Y-117358651D01*
X151209418Y-114437651D02*
X156009418Y-114437651D01*
X152661418Y-113757651D02*
X154557418Y-113757651D01*
X149561418Y-117238651D02*
X157657418Y-117238651D01*
X150191418Y-115517651D02*
X152569418Y-115517651D01*
X150485418Y-115117651D02*
X152569418Y-115117651D01*
X149695418Y-116597651D02*
X152569418Y-116597651D01*
X149652418Y-116757651D02*
X152569418Y-116757651D01*
X154649418Y-115717651D02*
X157149418Y-115717651D01*
X154649418Y-116357651D02*
X157444418Y-116357651D01*
X149887418Y-116077651D02*
X152569418Y-116077651D01*
X150868418Y-114717651D02*
X156350418Y-114717651D01*
X152380418Y-113837651D02*
X154838418Y-113837651D01*
X149852418Y-116157651D02*
X152569418Y-116157651D01*
X154649418Y-116917651D02*
X157603418Y-116917651D01*
X154649418Y-115317651D02*
X156889418Y-115317651D01*
X150554418Y-115037651D02*
X152569418Y-115037651D01*
X150783418Y-114797651D02*
X156435418Y-114797651D01*
X149905418Y-116037651D02*
X152569418Y-116037651D01*
X149535418Y-117518651D02*
X157683418Y-117518651D01*
X150825418Y-114757651D02*
X156393418Y-114757651D01*
X154649418Y-115077651D02*
X156699418Y-115077651D01*
X152841418Y-113717651D02*
X154377418Y-113717651D01*
X154649418Y-116597651D02*
X157523418Y-116597651D01*
X150664418Y-114917651D02*
X156554418Y-114917651D01*
X154649418Y-116197651D02*
X157383418Y-116197651D01*
X149943418Y-115957651D02*
X152569418Y-115957651D01*
X149541418Y-117438651D02*
X157677418Y-117438651D01*
X151053418Y-114557651D02*
X156165418Y-114557651D01*
X149982418Y-115877651D02*
X152569418Y-115877651D01*
X151575418Y-114197651D02*
X155643418Y-114197651D01*
X154649418Y-116157651D02*
X157366418Y-116157651D01*
X150359418Y-115277651D02*
X152569418Y-115277651D01*
X149732418Y-116477651D02*
X152569418Y-116477651D01*
X154649418Y-115597651D02*
X157078418Y-115597651D01*
X154649418Y-117037651D02*
X157626418Y-117037651D01*
X149759418Y-116397651D02*
X152569418Y-116397651D01*
X154649418Y-116717651D02*
X157556418Y-116717651D01*
X154649418Y-116797651D02*
X157576418Y-116797651D01*
X149746418Y-116437651D02*
X152569418Y-116437651D01*
X149774418Y-116357651D02*
X152569418Y-116357651D01*
X149673418Y-116677651D02*
X152569418Y-116677651D01*
X149923418Y-115997651D02*
X152569418Y-115997651D01*
X154649418Y-116077651D02*
X157331418Y-116077651D01*
X153076418Y-113677651D02*
X154142418Y-113677651D01*
X154649418Y-116397651D02*
X157459418Y-116397651D01*
X149869418Y-116117651D02*
X152569418Y-116117651D01*
X150626418Y-114957651D02*
X156592418Y-114957651D01*
X154649418Y-116957651D02*
X157611418Y-116957651D01*
X150519418Y-115077651D02*
X152569418Y-115077651D01*
X157729418Y-117758651D02*
G75*
G03*
X157729418Y-117758651I-4120000J0D01*
G01*
%TO.C,M1CP1*%
X166827000Y-114597651D02*
X172035000Y-114597651D01*
X167329000Y-114237651D02*
X171533000Y-114237651D01*
X170471000Y-115237651D02*
X172651000Y-115237651D01*
X165529000Y-116557651D02*
X168391000Y-116557651D01*
X166181000Y-115277651D02*
X168391000Y-115277651D01*
X165351000Y-117678651D02*
X173511000Y-117678651D01*
X170471000Y-116637651D02*
X173356000Y-116637651D01*
X165370000Y-117358651D02*
X173492000Y-117358651D01*
X170471000Y-115957651D02*
X173097000Y-115957651D01*
X168663000Y-113717651D02*
X170199000Y-113717651D01*
X165987000Y-115557651D02*
X168391000Y-115557651D01*
X170471000Y-115117651D02*
X172555000Y-115117651D01*
X170471000Y-115637651D02*
X172924000Y-115637651D01*
X167978000Y-113917651D02*
X170884000Y-113917651D01*
X165581000Y-116397651D02*
X168391000Y-116397651D01*
X165691000Y-116117651D02*
X168391000Y-116117651D01*
X165421000Y-116997651D02*
X168391000Y-116997651D01*
X165657000Y-116197651D02*
X168391000Y-116197651D01*
X167879000Y-113957651D02*
X170983000Y-113957651D01*
X165351000Y-117758651D02*
X173511000Y-117758651D01*
X170471000Y-116677651D02*
X173367000Y-116677651D01*
X167265000Y-114277651D02*
X171597000Y-114277651D01*
X165446000Y-116877651D02*
X168391000Y-116877651D01*
X167541000Y-114117651D02*
X171321000Y-114117651D01*
X170471000Y-115597651D02*
X172900000Y-115597651D01*
X165962000Y-115597651D02*
X168391000Y-115597651D01*
X165727000Y-116037651D02*
X168391000Y-116037651D01*
X170471000Y-115917651D02*
X173078000Y-115917651D01*
X165355000Y-117558651D02*
X173507000Y-117558651D01*
X165568000Y-116437651D02*
X168391000Y-116437651D01*
X170471000Y-115517651D02*
X172849000Y-115517651D01*
X165379000Y-117278651D02*
X173483000Y-117278651D01*
X165401000Y-117118651D02*
X173461000Y-117118651D01*
X170471000Y-116797651D02*
X173398000Y-116797651D01*
X165429000Y-116957651D02*
X168391000Y-116957651D01*
X166690000Y-114717651D02*
X172172000Y-114717651D01*
X170471000Y-115757651D02*
X172993000Y-115757651D01*
X166013000Y-115517651D02*
X168391000Y-115517651D01*
X165366000Y-117398651D02*
X173496000Y-117398651D01*
X165455000Y-116837651D02*
X168391000Y-116837651D01*
X167618000Y-114077651D02*
X171244000Y-114077651D01*
X170471000Y-115157651D02*
X172587000Y-115157651D01*
X170471000Y-116277651D02*
X173236000Y-116277651D01*
X165407000Y-117078651D02*
X173455000Y-117078651D01*
X170471000Y-114997651D02*
X172450000Y-114997651D01*
X166093000Y-115397651D02*
X168391000Y-115397651D01*
X170471000Y-116717651D02*
X173378000Y-116717651D01*
X166066000Y-115437651D02*
X168391000Y-115437651D01*
X165784000Y-115917651D02*
X168391000Y-115917651D01*
X170471000Y-115557651D02*
X172875000Y-115557651D01*
X170471000Y-115877651D02*
X173058000Y-115877651D01*
X170471000Y-116037651D02*
X173135000Y-116037651D01*
X166734000Y-114677651D02*
X172128000Y-114677651D01*
X170471000Y-116437651D02*
X173294000Y-116437651D01*
X165474000Y-116757651D02*
X168391000Y-116757651D01*
X165914000Y-115677651D02*
X168391000Y-115677651D01*
X165383000Y-117238651D02*
X173479000Y-117238651D01*
X167467000Y-114157651D02*
X171395000Y-114157651D01*
X170471000Y-116757651D02*
X173388000Y-116757651D01*
X165674000Y-116157651D02*
X168391000Y-116157651D01*
X165765000Y-115957651D02*
X168391000Y-115957651D01*
X165360000Y-117478651D02*
X173502000Y-117478651D01*
X165357000Y-117518651D02*
X173505000Y-117518651D01*
X165354000Y-117598651D02*
X173508000Y-117598651D01*
X165869000Y-115757651D02*
X168391000Y-115757651D01*
X165351000Y-117718651D02*
X173511000Y-117718651D01*
X170471000Y-115437651D02*
X172796000Y-115437651D01*
X166307000Y-115117651D02*
X168391000Y-115117651D01*
X166151000Y-115317651D02*
X168391000Y-115317651D01*
X170471000Y-116837651D02*
X173407000Y-116837651D01*
X165596000Y-116357651D02*
X168391000Y-116357651D01*
X168333000Y-113797651D02*
X170529000Y-113797651D01*
X167700000Y-114037651D02*
X171162000Y-114037651D01*
X170471000Y-115317651D02*
X172711000Y-115317651D01*
X165542000Y-116517651D02*
X168391000Y-116517651D01*
X165495000Y-116677651D02*
X168391000Y-116677651D01*
X166275000Y-115157651D02*
X168391000Y-115157651D01*
X166122000Y-115357651D02*
X168391000Y-115357651D01*
X170471000Y-115797651D02*
X173015000Y-115797651D01*
X170471000Y-117037651D02*
X173448000Y-117037651D01*
X170471000Y-115997651D02*
X173117000Y-115997651D01*
X170471000Y-116397651D02*
X173281000Y-116397651D01*
X166341000Y-115077651D02*
X168391000Y-115077651D01*
X165374000Y-117318651D02*
X173488000Y-117318651D01*
X167144000Y-114357651D02*
X171718000Y-114357651D01*
X167031000Y-114437651D02*
X171831000Y-114437651D01*
X170471000Y-116357651D02*
X173266000Y-116357651D01*
X165847000Y-115797651D02*
X168391000Y-115797651D01*
X166412000Y-114997651D02*
X168391000Y-114997651D01*
X170471000Y-116317651D02*
X173252000Y-116317651D01*
X170471000Y-116997651D02*
X173441000Y-116997651D01*
X165891000Y-115717651D02*
X168391000Y-115717651D01*
X166605000Y-114797651D02*
X172257000Y-114797651D01*
X165506000Y-116637651D02*
X168391000Y-116637651D01*
X166524000Y-114877651D02*
X172338000Y-114877651D01*
X170471000Y-116557651D02*
X173333000Y-116557651D01*
X168085000Y-113877651D02*
X170777000Y-113877651D01*
X170471000Y-115717651D02*
X172971000Y-115717651D01*
X170471000Y-116597651D02*
X173345000Y-116597651D01*
X170471000Y-115277651D02*
X172681000Y-115277651D01*
X170471000Y-116157651D02*
X173188000Y-116157651D01*
X165363000Y-117438651D02*
X173499000Y-117438651D01*
X170471000Y-115077651D02*
X172521000Y-115077651D01*
X168898000Y-113677651D02*
X169964000Y-113677651D01*
X170471000Y-116877651D02*
X173416000Y-116877651D01*
X170471000Y-115357651D02*
X172740000Y-115357651D01*
X168202000Y-113837651D02*
X170660000Y-113837651D01*
X165709000Y-116077651D02*
X168391000Y-116077651D01*
X170471000Y-116917651D02*
X173425000Y-116917651D01*
X166564000Y-114837651D02*
X172298000Y-114837651D01*
X165352000Y-117638651D02*
X173510000Y-117638651D01*
X170471000Y-115477651D02*
X172823000Y-115477651D01*
X166486000Y-114917651D02*
X172376000Y-114917651D01*
X165414000Y-117037651D02*
X168391000Y-117037651D01*
X165626000Y-116277651D02*
X168391000Y-116277651D01*
X165464000Y-116797651D02*
X168391000Y-116797651D01*
X170471000Y-115837651D02*
X173037000Y-115837651D01*
X165610000Y-116317651D02*
X168391000Y-116317651D01*
X166039000Y-115477651D02*
X168391000Y-115477651D01*
X166376000Y-115037651D02*
X168391000Y-115037651D01*
X166780000Y-114637651D02*
X172082000Y-114637651D01*
X166926000Y-114517651D02*
X171936000Y-114517651D01*
X167086000Y-114397651D02*
X171776000Y-114397651D01*
X168483000Y-113757651D02*
X170379000Y-113757651D01*
X170471000Y-116517651D02*
X173320000Y-116517651D01*
X170471000Y-115677651D02*
X172948000Y-115677651D01*
X165437000Y-116917651D02*
X168391000Y-116917651D01*
X170471000Y-116477651D02*
X173308000Y-116477651D01*
X166716000Y-121768349D02*
X167516000Y-121768349D01*
X165394000Y-117158651D02*
X173468000Y-117158651D01*
X170471000Y-116077651D02*
X173153000Y-116077651D01*
X165938000Y-115637651D02*
X168391000Y-115637651D01*
X170471000Y-115037651D02*
X172486000Y-115037651D01*
X170471000Y-116957651D02*
X173433000Y-116957651D01*
X170471000Y-115197651D02*
X172620000Y-115197651D01*
X166875000Y-114557651D02*
X171987000Y-114557651D01*
X165825000Y-115837651D02*
X168391000Y-115837651D01*
X170471000Y-116117651D02*
X173171000Y-116117651D01*
X166977000Y-114477651D02*
X171885000Y-114477651D01*
X170471000Y-116197651D02*
X173205000Y-116197651D01*
X167203000Y-114317651D02*
X171659000Y-114317651D01*
X165389000Y-117198651D02*
X173473000Y-117198651D01*
X167786000Y-113997651D02*
X171076000Y-113997651D01*
X166448000Y-114957651D02*
X172414000Y-114957651D01*
X165554000Y-116477651D02*
X168391000Y-116477651D01*
X165641000Y-116237651D02*
X168391000Y-116237651D01*
X165517000Y-116597651D02*
X168391000Y-116597651D01*
X166211000Y-115237651D02*
X168391000Y-115237651D01*
X170471000Y-116237651D02*
X173221000Y-116237651D01*
X165804000Y-115877651D02*
X168391000Y-115877651D01*
X167397000Y-114197651D02*
X171465000Y-114197651D01*
X165484000Y-116717651D02*
X168391000Y-116717651D01*
X165745000Y-115997651D02*
X168391000Y-115997651D01*
X167116000Y-122168349D02*
X167116000Y-121368349D01*
X170471000Y-115397651D02*
X172769000Y-115397651D01*
X166647000Y-114757651D02*
X172215000Y-114757651D01*
X166242000Y-115197651D02*
X168391000Y-115197651D01*
X173551000Y-117758651D02*
G75*
G03*
X173551000Y-117758651I-4120000J0D01*
G01*
%TO.C,J1*%
X160087400Y-109852000D02*
X158787400Y-111552000D01*
X158787400Y-111552000D02*
X158787400Y-120272000D01*
X164207400Y-111552000D02*
X164207400Y-120272000D01*
X164207400Y-120272000D02*
X158787400Y-120272000D01*
X162907400Y-109852000D02*
X160087400Y-109852000D01*
X162907400Y-109852000D02*
X164207400Y-111552000D01*
%TD*%
%LPC*%
D14*
%TO.C,M2D2*%
X154178000Y-104628200D03*
X152425400Y-104628200D03*
%TD*%
D15*
%TO.C,M2D1*%
X152425400Y-102596200D03*
X154178000Y-102596200D03*
%TD*%
%TO.C,M1D1*%
X182956700Y-106660200D03*
X184709300Y-106660200D03*
%TD*%
D16*
%TO.C,M1J1*%
X190700000Y-109495800D03*
X190700000Y-107495800D03*
X190700000Y-105495800D03*
X190700000Y-103495800D03*
X190700000Y-101495800D03*
X190700000Y-99495800D03*
D17*
X188450000Y-97095800D03*
X188450000Y-111895800D03*
%TD*%
D14*
%TO.C,M1D2*%
X184709300Y-104628200D03*
X182956700Y-104628200D03*
%TD*%
D18*
%TO.C,M1R0*%
X184658000Y-102596200D03*
X183008000Y-102596200D03*
%TD*%
%TO.C,M2R0*%
X154126700Y-106660200D03*
X152476700Y-106660200D03*
%TD*%
D19*
%TO.C,M2J1*%
X146396346Y-99557000D03*
X146396346Y-101557000D03*
X146396346Y-103557000D03*
X146396346Y-105557000D03*
X146396346Y-107557000D03*
X146396346Y-109557000D03*
D20*
X148646346Y-111957000D03*
X148646346Y-97157000D03*
%TD*%
D21*
%TO.C,J2*%
X165030200Y-124200000D03*
D22*
X167570200Y-124200000D03*
X170110200Y-124200000D03*
X172650200Y-124200000D03*
X175190200Y-124200000D03*
X177730200Y-124200000D03*
X180270200Y-124200000D03*
X182810200Y-124200000D03*
X185350200Y-124200000D03*
X187890200Y-124200000D03*
X190430200Y-124200000D03*
%TD*%
D23*
%TO.C,M2CP1*%
X153609418Y-119508651D03*
D24*
X153609418Y-116008651D03*
%TD*%
D23*
%TO.C,M1CP1*%
X169431000Y-119508651D03*
D24*
X169431000Y-116008651D03*
%TD*%
D25*
%TO.C,J1*%
X161497400Y-112562000D03*
D26*
X161497400Y-117562000D03*
%TD*%
M02*
