%TF.GenerationSoftware,KiCad,Pcbnew,(6.0.0-0)*%
%TF.CreationDate,2022-03-27T14:29:03+08:00*%
%TF.ProjectId,driver,64726976-6572-42e6-9b69-6361645f7063,rev?*%
%TF.SameCoordinates,Original*%
%TF.FileFunction,Copper,L1,Top*%
%TF.FilePolarity,Positive*%
%FSLAX46Y46*%
G04 Gerber Fmt 4.6, Leading zero omitted, Abs format (unit mm)*
G04 Created by KiCad (PCBNEW (6.0.0-0)) date 2022-03-27 14:29:03*
%MOMM*%
%LPD*%
G01*
G04 APERTURE LIST*
G04 Aperture macros list*
%AMRoundRect*
0 Rectangle with rounded corners*
0 $1 Rounding radius*
0 $2 $3 $4 $5 $6 $7 $8 $9 X,Y pos of 4 corners*
0 Add a 4 corners polygon primitive as box body*
4,1,4,$2,$3,$4,$5,$6,$7,$8,$9,$2,$3,0*
0 Add four circle primitives for the rounded corners*
1,1,$1+$1,$2,$3*
1,1,$1+$1,$4,$5*
1,1,$1+$1,$6,$7*
1,1,$1+$1,$8,$9*
0 Add four rect primitives between the rounded corners*
20,1,$1+$1,$2,$3,$4,$5,0*
20,1,$1+$1,$4,$5,$6,$7,0*
20,1,$1+$1,$6,$7,$8,$9,0*
20,1,$1+$1,$8,$9,$2,$3,0*%
G04 Aperture macros list end*
%TA.AperFunction,SMDPad,CuDef*%
%ADD10R,0.998220X0.998220*%
%TD*%
%TA.AperFunction,SMDPad,CuDef*%
%ADD11RoundRect,0.250000X2.500000X-0.250000X2.500000X0.250000X-2.500000X0.250000X-2.500000X-0.250000X0*%
%TD*%
%TA.AperFunction,SMDPad,CuDef*%
%ADD12RoundRect,0.250000X1.250000X-0.550000X1.250000X0.550000X-1.250000X0.550000X-1.250000X-0.550000X0*%
%TD*%
%TA.AperFunction,SMDPad,CuDef*%
%ADD13RoundRect,0.200000X0.200000X0.275000X-0.200000X0.275000X-0.200000X-0.275000X0.200000X-0.275000X0*%
%TD*%
%TA.AperFunction,SMDPad,CuDef*%
%ADD14RoundRect,0.250000X-2.500000X0.250000X-2.500000X-0.250000X2.500000X-0.250000X2.500000X0.250000X0*%
%TD*%
%TA.AperFunction,SMDPad,CuDef*%
%ADD15RoundRect,0.250000X-1.250000X0.550000X-1.250000X-0.550000X1.250000X-0.550000X1.250000X0.550000X0*%
%TD*%
%TA.AperFunction,ComponentPad*%
%ADD16R,1.700000X1.700000*%
%TD*%
%TA.AperFunction,ComponentPad*%
%ADD17O,1.700000X1.700000*%
%TD*%
%TA.AperFunction,ComponentPad*%
%ADD18R,1.600000X1.600000*%
%TD*%
%TA.AperFunction,ComponentPad*%
%ADD19C,1.600000*%
%TD*%
%TA.AperFunction,ComponentPad*%
%ADD20R,3.800000X3.800000*%
%TD*%
%TA.AperFunction,ComponentPad*%
%ADD21C,4.000000*%
%TD*%
%TA.AperFunction,ViaPad*%
%ADD22C,0.800000*%
%TD*%
%TA.AperFunction,ViaPad*%
%ADD23C,1.300000*%
%TD*%
%TA.AperFunction,ViaPad*%
%ADD24C,1.200000*%
%TD*%
%TA.AperFunction,ViaPad*%
%ADD25C,1.500000*%
%TD*%
%TA.AperFunction,ViaPad*%
%ADD26C,3.500000*%
%TD*%
%TA.AperFunction,Conductor*%
%ADD27C,0.250000*%
%TD*%
%TA.AperFunction,Conductor*%
%ADD28C,1.000000*%
%TD*%
%TA.AperFunction,Conductor*%
%ADD29C,2.000000*%
%TD*%
G04 APERTURE END LIST*
D10*
%TO.P,M2D2,1,K*%
%TO.N,Net-(M2D1-Pad2)*%
X154178000Y-104628200D03*
%TO.P,M2D2,2,A*%
%TO.N,/M2OUTA*%
X152425400Y-104628200D03*
%TD*%
%TO.P,M2D1,1,K*%
%TO.N,/M2OUTA*%
X152425400Y-102596200D03*
%TO.P,M2D1,2,A*%
%TO.N,Net-(M2D1-Pad2)*%
X154178000Y-102596200D03*
%TD*%
%TO.P,M1D1,1,K*%
%TO.N,/M1OUTA*%
X182956700Y-106660200D03*
%TO.P,M1D1,2,A*%
%TO.N,Net-(M1D1-Pad2)*%
X184709300Y-106660200D03*
%TD*%
D11*
%TO.P,M1J1,1,Pin_1*%
%TO.N,/M1OUTA*%
X190700000Y-109495800D03*
%TO.P,M1J1,2,Pin_2*%
%TO.N,GND*%
X190700000Y-107495800D03*
%TO.P,M1J1,3,Pin_3*%
%TO.N,/M1C1*%
X190700000Y-105495800D03*
%TO.P,M1J1,4,Pin_4*%
%TO.N,/M1C2*%
X190700000Y-103495800D03*
%TO.P,M1J1,5,Pin_5*%
%TO.N,+3V3*%
X190700000Y-101495800D03*
%TO.P,M1J1,6,Pin_6*%
%TO.N,/M1OUTB*%
X190700000Y-99495800D03*
D12*
%TO.P,M1J1,MP*%
%TO.N,N/C*%
X188450000Y-97095800D03*
X188450000Y-111895800D03*
%TD*%
D10*
%TO.P,M1D2,1,K*%
%TO.N,Net-(M1D1-Pad2)*%
X184709300Y-104628200D03*
%TO.P,M1D2,2,A*%
%TO.N,/M1OUTA*%
X182956700Y-104628200D03*
%TD*%
D13*
%TO.P,M1R0,1*%
%TO.N,Net-(M1D1-Pad2)*%
X184658000Y-102596200D03*
%TO.P,M1R0,2*%
%TO.N,/M1OUTB*%
X183008000Y-102596200D03*
%TD*%
%TO.P,M2R0,1*%
%TO.N,Net-(M2D1-Pad2)*%
X154126700Y-106660200D03*
%TO.P,M2R0,2*%
%TO.N,/M2OUTB*%
X152476700Y-106660200D03*
%TD*%
D14*
%TO.P,M2J1,1,Pin_1*%
%TO.N,/M2OUTA*%
X146396346Y-99557000D03*
%TO.P,M2J1,2,Pin_2*%
%TO.N,GND*%
X146396346Y-101557000D03*
%TO.P,M2J1,3,Pin_3*%
%TO.N,/M2C1*%
X146396346Y-103557000D03*
%TO.P,M2J1,4,Pin_4*%
%TO.N,/M2C2*%
X146396346Y-105557000D03*
%TO.P,M2J1,5,Pin_5*%
%TO.N,+3V3*%
X146396346Y-107557000D03*
%TO.P,M2J1,6,Pin_6*%
%TO.N,/M2OUTB*%
X146396346Y-109557000D03*
D15*
%TO.P,M2J1,MP*%
X148646346Y-111957000D03*
%TO.N,/M2OUTA*%
X148646346Y-97157000D03*
%TD*%
D16*
%TO.P,J2,1,Pin_1*%
%TO.N,/M2C1*%
X165030200Y-124200000D03*
D17*
%TO.P,J2,2,Pin_2*%
%TO.N,/M2C2*%
X167570200Y-124200000D03*
%TO.P,J2,3,Pin_3*%
%TO.N,/M2INA*%
X170110200Y-124200000D03*
%TO.P,J2,4,Pin_4*%
%TO.N,/M2PWM*%
X172650200Y-124200000D03*
%TO.P,J2,5,Pin_5*%
%TO.N,/M2CS*%
X175190200Y-124200000D03*
%TO.P,J2,6,Pin_6*%
%TO.N,/M1CS*%
X177730200Y-124200000D03*
%TO.P,J2,7,Pin_7*%
%TO.N,/M1PWM*%
X180270200Y-124200000D03*
%TO.P,J2,8,Pin_8*%
%TO.N,/M1INA*%
X182810200Y-124200000D03*
%TO.P,J2,9,Pin_9*%
%TO.N,/M1C2*%
X185350200Y-124200000D03*
%TO.P,J2,10,Pin_10*%
%TO.N,/M1C1*%
X187890200Y-124200000D03*
%TO.P,J2,11,Pin_11*%
%TO.N,+3V3*%
X190430200Y-124200000D03*
%TD*%
D18*
%TO.P,M2CP1,1*%
%TO.N,Net-(M2C3-Pad1)*%
X153609418Y-119508651D03*
D19*
%TO.P,M2CP1,2*%
%TO.N,GND*%
X153609418Y-116008651D03*
%TD*%
D18*
%TO.P,M1CP1,1*%
%TO.N,Net-(M1C3-Pad1)*%
X169431000Y-119508651D03*
D19*
%TO.P,M1CP1,2*%
%TO.N,GND*%
X169431000Y-116008651D03*
%TD*%
D20*
%TO.P,J1,1,Pin_1*%
%TO.N,GND*%
X161497400Y-112562000D03*
D21*
%TO.P,J1,2,Pin_2*%
%TO.N,+12V*%
X161497400Y-117562000D03*
%TD*%
D22*
%TO.N,+12V*%
X167085400Y-96774000D03*
X162026600Y-102057200D03*
%TO.N,/M2CS*%
X155692889Y-110829311D03*
X155702000Y-115214400D03*
%TO.N,/M2CP*%
X140106400Y-119583200D03*
%TO.N,GND*%
X160782000Y-106222800D03*
X157607000Y-106222800D03*
D23*
X161036000Y-104927400D03*
D22*
X159105600Y-104927400D03*
D23*
X161036000Y-103428800D03*
D22*
X159105600Y-103428800D03*
%TO.N,/M2CP*%
X151536400Y-107492800D03*
D24*
%TO.N,/M2OUTB*%
X143504898Y-111602498D03*
X149862063Y-111584263D03*
%TO.N,/M2OUTA*%
X143504898Y-97581698D03*
X149961600Y-97586800D03*
D22*
%TO.N,GND*%
X131411800Y-101557000D03*
X130624400Y-101557000D03*
X129811600Y-101557000D03*
X129006600Y-101549200D03*
X192303400Y-107492800D03*
X191490600Y-107492800D03*
%TO.N,+3V3*%
X187274200Y-121056400D03*
X155422600Y-108000800D03*
D25*
%TO.N,/M2OUTB*%
X139666000Y-109547200D03*
%TO.N,/M1OUTB*%
X185000000Y-99497200D03*
%TO.N,/M2OUTA*%
X138166000Y-99767400D03*
X139666000Y-99767400D03*
%TO.N,/M1OUTB*%
X181975000Y-99497200D03*
D23*
%TO.N,/M1OUTA*%
X181975000Y-109472200D03*
D25*
X185000000Y-109497200D03*
X183487600Y-109495800D03*
%TO.N,/M2OUTB*%
X141166000Y-109547200D03*
%TO.N,/M2OUTA*%
X141166000Y-99767400D03*
%TO.N,/M2OUTB*%
X138166000Y-109547200D03*
%TO.N,/M1OUTB*%
X183487600Y-99495800D03*
D22*
%TO.N,/M2PWM*%
X160375600Y-121056400D03*
X158292800Y-119837200D03*
%TO.N,+3V3*%
X185420000Y-116840000D03*
%TO.N,/M1CS*%
X193201874Y-96534814D03*
%TO.N,/M1INA*%
X192720041Y-97500359D03*
X192836800Y-116840000D03*
%TO.N,/M1CP*%
X173195880Y-102376480D03*
X183564582Y-113863200D03*
%TO.N,/M2INB*%
X159120400Y-97875000D03*
X156845000Y-109194600D03*
%TO.N,/M2CS*%
X155464160Y-104915235D03*
D24*
%TO.N,/M1OUTA*%
X179910565Y-111526400D03*
X173553400Y-111544635D03*
D22*
%TO.N,/M1INA*%
X165885400Y-109990000D03*
X161781099Y-100562899D03*
%TO.N,+3V3*%
X165875400Y-108600000D03*
X164875400Y-100000000D03*
X157565900Y-107442000D03*
X158151400Y-100000000D03*
X160994105Y-97873554D03*
X162259400Y-95399989D03*
%TO.N,/M1INB*%
X166323400Y-99314000D03*
X163377000Y-96824800D03*
%TO.N,/M1PWM*%
X167498040Y-105550235D03*
%TO.N,/M1CS*%
X164086492Y-95635690D03*
X167479635Y-104026235D03*
X168863400Y-95504000D03*
D24*
%TO.N,/M1OUTB*%
X180010102Y-97528937D03*
X173553400Y-97523835D03*
D26*
%TO.N,+12V*%
X139051400Y-115377235D03*
D22*
X171285400Y-100526400D03*
X151900826Y-108567793D03*
D26*
X183875400Y-119800000D03*
%TD*%
D27*
%TO.N,/M1PWM*%
X167498040Y-107432449D02*
X173157461Y-113091870D01*
X173157461Y-113091870D02*
X181061552Y-113091870D01*
X181061552Y-113091870D02*
X184695489Y-116725807D01*
X184695489Y-117140103D02*
X186258200Y-118702814D01*
X184695489Y-116725807D02*
X184695489Y-117140103D01*
X167498040Y-105550235D02*
X167498040Y-107432449D01*
X186258200Y-118702814D02*
X186258200Y-121564400D01*
X186258200Y-121564400D02*
X185246631Y-122575969D01*
X185246631Y-122575969D02*
X181894231Y-122575969D01*
X181894231Y-122575969D02*
X180270200Y-124200000D01*
%TO.N,+3V3*%
X168222551Y-107521243D02*
X168222551Y-105250132D01*
X185420000Y-116814600D02*
X181074546Y-112469146D01*
X173170454Y-112469146D02*
X168222551Y-107521243D01*
X181074546Y-112469146D02*
X173170454Y-112469146D01*
X185420000Y-116840000D02*
X185420000Y-116814600D01*
X168222551Y-105250132D02*
X167798143Y-104825724D01*
X167798143Y-104825724D02*
X167197937Y-104825724D01*
X167197937Y-104825724D02*
X165875400Y-106148261D01*
X165875400Y-106148261D02*
X165875400Y-108600000D01*
%TO.N,/M2CS*%
X155702000Y-115265200D02*
X162948680Y-122511880D01*
X155702000Y-115214400D02*
X155702000Y-115265200D01*
X162948680Y-122511880D02*
X173502080Y-122511880D01*
X173502080Y-122511880D02*
X175190200Y-124200000D01*
X155692889Y-110829311D02*
X155692889Y-109279911D01*
%TO.N,/M2CP*%
X140106400Y-119583200D02*
X139574436Y-119583200D01*
X139574436Y-119583200D02*
X136568120Y-116576884D01*
X136568120Y-116576884D02*
X136568120Y-113774280D01*
X150008039Y-113207800D02*
X150786574Y-112429265D01*
X150786574Y-108242626D02*
X151536400Y-107492800D01*
X136568120Y-113774280D02*
X137134600Y-113207800D01*
X137134600Y-113207800D02*
X150008039Y-113207800D01*
X150786574Y-112429265D02*
X150786574Y-108242626D01*
%TO.N,/M2C2*%
X146396346Y-105557000D02*
X140283046Y-105557000D01*
X140283046Y-105557000D02*
X136118600Y-109721446D01*
X136118600Y-109721446D02*
X136118600Y-116763082D01*
X136118600Y-116763082D02*
X142316918Y-122961400D01*
X142316918Y-122961400D02*
X166331600Y-122961400D01*
X166331600Y-122961400D02*
X167570200Y-124200000D01*
%TO.N,/M2C1*%
X146396346Y-103557000D02*
X141647328Y-103557000D01*
X135669080Y-109535249D02*
X135669080Y-116949280D01*
X141647328Y-103557000D02*
X135669080Y-109535249D01*
X135669080Y-116949280D02*
X142919800Y-124200000D01*
X142919800Y-124200000D02*
X165030200Y-124200000D01*
%TO.N,GND*%
X157607000Y-106222800D02*
X160782000Y-106222800D01*
%TO.N,+3V3*%
X157565900Y-107442000D02*
X156728040Y-106604140D01*
X156728040Y-106604140D02*
X156728040Y-101427692D01*
X156728040Y-101427692D02*
X158153566Y-100002166D01*
%TO.N,/M2INB*%
X156845000Y-109194600D02*
X156845000Y-107762868D01*
X156278520Y-100716880D02*
X159120400Y-97875000D01*
X156845000Y-107762868D02*
X156278520Y-107196388D01*
X156278520Y-107196388D02*
X156278520Y-100716880D01*
%TO.N,/M2CS*%
X156147111Y-107700697D02*
X155829000Y-107382586D01*
X155829000Y-105280075D02*
X155464160Y-104915235D01*
X155829000Y-107382586D02*
X155829000Y-105280075D01*
X155692889Y-109279911D02*
X156147111Y-108825689D01*
X156147111Y-108825689D02*
X156147111Y-107700697D01*
D28*
%TO.N,GND*%
X161036000Y-104927400D02*
X159105600Y-104927400D01*
X161036000Y-103428800D02*
X159105600Y-103428800D01*
%TO.N,/M2OUTB*%
X149862063Y-111584263D02*
X143523133Y-111584263D01*
%TO.N,/M2OUTA*%
X143510000Y-97586800D02*
X149961600Y-97586800D01*
D27*
%TO.N,GND*%
X131411800Y-101557000D02*
X130624400Y-101557000D01*
X130624400Y-101557000D02*
X129811600Y-101557000D01*
X129811600Y-101557000D02*
X129014400Y-101557000D01*
X129014400Y-101557000D02*
X129006600Y-101549200D01*
X146396346Y-101557000D02*
X131411800Y-101557000D01*
%TO.N,+3V3*%
X187274200Y-121056400D02*
X187248800Y-121031000D01*
X184708800Y-112420400D02*
X182757499Y-112420400D01*
X187248800Y-121031000D02*
X187248800Y-114960400D01*
X179959000Y-109621901D02*
X179959000Y-105529569D01*
X187248800Y-114960400D02*
X184708800Y-112420400D01*
X182757499Y-112420400D02*
X179959000Y-109621901D01*
X179959000Y-105529569D02*
X181683990Y-103804579D01*
X183032400Y-103804579D02*
X183933480Y-102903499D01*
X181683990Y-103804579D02*
X183032400Y-103804579D01*
X183933480Y-102903499D02*
X183933480Y-102103937D01*
X183933480Y-102103937D02*
X184541617Y-101495800D01*
X184541617Y-101495800D02*
X190700000Y-101495800D01*
X155422600Y-108000800D02*
X154250517Y-108000800D01*
X153402180Y-106310580D02*
X152820979Y-105729379D01*
X153402180Y-107152463D02*
X153402180Y-106310580D01*
X154250517Y-108000800D02*
X153402180Y-107152463D01*
X152820979Y-105729379D02*
X150277221Y-105729379D01*
X150277221Y-105729379D02*
X148449600Y-107557000D01*
X148449600Y-107557000D02*
X146396346Y-107557000D01*
%TO.N,/M2OUTA*%
X152425400Y-104628200D02*
X152425400Y-102596200D01*
X152425400Y-102596200D02*
X149386200Y-99557000D01*
X149386200Y-99557000D02*
X146396346Y-99557000D01*
%TO.N,Net-(M1D1-Pad2)*%
X184681360Y-102596200D02*
X184681360Y-104600260D01*
X184709300Y-104628200D02*
X184709300Y-106660200D01*
%TO.N,/M1OUTB*%
X182984640Y-99998760D02*
X183487600Y-99495800D01*
%TO.N,/M1OUTA*%
X182956700Y-109022900D02*
X183406000Y-109472200D01*
%TO.N,Net-(M2D1-Pad2)*%
X154178000Y-102596200D02*
X154178000Y-104628200D01*
%TO.N,/M2OUTB*%
X150855639Y-106660200D02*
X147958839Y-109557000D01*
X152152140Y-106660200D02*
X150855639Y-106660200D01*
%TO.N,/M1OUTB*%
X182984640Y-102596200D02*
X182984640Y-99998760D01*
D29*
%TO.N,/M1OUTA*%
X181975000Y-109472200D02*
X183406000Y-109472200D01*
X183406000Y-109472200D02*
X190676400Y-109472200D01*
%TO.N,/M1OUTB*%
X181975000Y-99497200D02*
X190698600Y-99497200D01*
D27*
%TO.N,/M1OUTA*%
X182956700Y-104628200D02*
X182956700Y-106660200D01*
%TO.N,Net-(M2D1-Pad2)*%
X154178000Y-104628200D02*
X154178000Y-106632260D01*
D29*
%TO.N,/M2OUTB*%
X138166000Y-109547200D02*
X146386546Y-109547200D01*
%TO.N,/M2OUTA*%
X138200800Y-99802200D02*
X146658108Y-99802200D01*
D27*
%TO.N,/M1OUTA*%
X182956700Y-106660200D02*
X182956700Y-109022900D01*
%TO.N,/M2PWM*%
X158292800Y-119837200D02*
X159512000Y-121056400D01*
X159512000Y-121056400D02*
X160375600Y-121056400D01*
%TO.N,/M1CS*%
X168863400Y-95504000D02*
X169286920Y-95080480D01*
X169286920Y-95080480D02*
X191778280Y-95080480D01*
X191778280Y-95080480D02*
X193201874Y-96534814D01*
%TO.N,/M1INA*%
X192720041Y-97500359D02*
X190749682Y-95530000D01*
X188417041Y-123037441D02*
X192836800Y-118617682D01*
X192836800Y-118617682D02*
X192836800Y-116840000D01*
X182810200Y-124200000D02*
X183984711Y-123025489D01*
X188405089Y-123025489D02*
X188417041Y-123037441D01*
X183984711Y-123025489D02*
X188405089Y-123025489D01*
%TO.N,/M1C2*%
X194302320Y-104640320D02*
X194302320Y-118666870D01*
X189103000Y-124665280D02*
X188393769Y-125374511D01*
X186524711Y-125374511D02*
X185350200Y-124200000D01*
X189103000Y-123866190D02*
X189103000Y-124665280D01*
X193157800Y-103495800D02*
X194302320Y-104640320D01*
X190700000Y-103495800D02*
X193157800Y-103495800D01*
X188393769Y-125374511D02*
X186524711Y-125374511D01*
X194302320Y-118666870D02*
X189103000Y-123866190D01*
%TO.N,/M1C1*%
X190700000Y-105495800D02*
X192262493Y-105495800D01*
X192262493Y-105495800D02*
X193852800Y-107086107D01*
X193852800Y-118237400D02*
X187890200Y-124200000D01*
X193852800Y-107086107D02*
X193852800Y-118237400D01*
%TO.N,/M1CP*%
X169792379Y-108116979D02*
X172277289Y-110601889D01*
X180303271Y-110601889D02*
X183564582Y-113863200D01*
X170133400Y-103378000D02*
X169792379Y-103719021D01*
X173195880Y-102376480D02*
X172194360Y-103378000D01*
X172277289Y-110601889D02*
X180303271Y-110601889D01*
X172194360Y-103378000D02*
X170133400Y-103378000D01*
X169792379Y-103719021D02*
X169792379Y-108116979D01*
D28*
%TO.N,/M1OUTA*%
X179910565Y-111526400D02*
X173571635Y-111526400D01*
D27*
X173553400Y-111544635D02*
X173571635Y-111526400D01*
%TO.N,/M1INA*%
X164775400Y-109990000D02*
X165885400Y-109990000D01*
X161781099Y-97541417D02*
X161781099Y-100562899D01*
X160735400Y-96495718D02*
X161781099Y-97541417D01*
X160735400Y-95504000D02*
X160735400Y-96495718D01*
X190749682Y-95530000D02*
X172698200Y-95530000D01*
X172698200Y-95530000D02*
X171606600Y-96621600D01*
X163275400Y-102057200D02*
X163275400Y-108490000D01*
X161781099Y-100562899D02*
X163275400Y-102057200D01*
X171606600Y-96621600D02*
X168507800Y-96621600D01*
X164150889Y-94675489D02*
X161563911Y-94675489D01*
X168507800Y-96621600D02*
X167416200Y-95530000D01*
X167416200Y-95530000D02*
X165005400Y-95530000D01*
X161563911Y-94675489D02*
X160735400Y-95504000D01*
X165005400Y-95530000D02*
X164150889Y-94675489D01*
X163275400Y-108490000D02*
X164775400Y-109990000D01*
%TO.N,+3V3*%
X160994105Y-97873554D02*
X160689659Y-98178000D01*
X160689659Y-98178000D02*
X159973400Y-98178000D01*
X164875400Y-100000000D02*
X164875400Y-107600000D01*
X164875400Y-107600000D02*
X165875400Y-108600000D01*
X162259400Y-97384000D02*
X164875400Y-100000000D01*
X159973400Y-98178000D02*
X158151400Y-100000000D01*
X162259400Y-95399989D02*
X162259400Y-97384000D01*
%TO.N,/M1INB*%
X166323400Y-98759103D02*
X166323400Y-99314000D01*
X164389097Y-96824800D02*
X166323400Y-98759103D01*
X163377000Y-96824800D02*
X164389097Y-96824800D01*
%TO.N,/M1CS*%
X167593400Y-103912470D02*
X167479635Y-104026235D01*
X167593400Y-99393385D02*
X167593400Y-103912470D01*
X164086492Y-95635690D02*
X164086492Y-95886478D01*
X164086492Y-95886478D02*
X167593400Y-99393385D01*
D28*
%TO.N,/M1OUTB*%
X173558502Y-97528937D02*
X180010102Y-97528937D01*
D27*
X173553400Y-97523835D02*
X173558502Y-97528937D01*
%TD*%
%TA.AperFunction,Conductor*%
%TO.N,+12V*%
G36*
X161089720Y-98802056D02*
G01*
X161136213Y-98855712D01*
X161147599Y-98908054D01*
X161147599Y-99860375D01*
X161127597Y-99928496D01*
X161115241Y-99944678D01*
X161042059Y-100025955D01*
X161038758Y-100031673D01*
X160950716Y-100184166D01*
X160946572Y-100191343D01*
X160887557Y-100372971D01*
X160886867Y-100379532D01*
X160886867Y-100379534D01*
X160879933Y-100445507D01*
X160867595Y-100562899D01*
X160868285Y-100569464D01*
X160885981Y-100737828D01*
X160887557Y-100752827D01*
X160946572Y-100934455D01*
X161042059Y-101099843D01*
X161046477Y-101104750D01*
X161046478Y-101104751D01*
X161145037Y-101214212D01*
X161169846Y-101241765D01*
X161324347Y-101354017D01*
X161330375Y-101356701D01*
X161330377Y-101356702D01*
X161492780Y-101429008D01*
X161498811Y-101431693D01*
X161592211Y-101451546D01*
X161679155Y-101470027D01*
X161679160Y-101470027D01*
X161685612Y-101471399D01*
X161741504Y-101471399D01*
X161809625Y-101491401D01*
X161830600Y-101508304D01*
X162604996Y-102282701D01*
X162639021Y-102345013D01*
X162641900Y-102371796D01*
X162641900Y-108411233D01*
X162641373Y-108422416D01*
X162639698Y-108429909D01*
X162639947Y-108437835D01*
X162639947Y-108437836D01*
X162641838Y-108497986D01*
X162641900Y-108501945D01*
X162641900Y-108529856D01*
X162642397Y-108533790D01*
X162642397Y-108533791D01*
X162642405Y-108533856D01*
X162643338Y-108545693D01*
X162644727Y-108589889D01*
X162649572Y-108606565D01*
X162650378Y-108609339D01*
X162654387Y-108628700D01*
X162655597Y-108638274D01*
X162656926Y-108648797D01*
X162659845Y-108656168D01*
X162659845Y-108656170D01*
X162673204Y-108689912D01*
X162677049Y-108701142D01*
X162689382Y-108743593D01*
X162693415Y-108750412D01*
X162693417Y-108750417D01*
X162699693Y-108761028D01*
X162708388Y-108778776D01*
X162715848Y-108797617D01*
X162720510Y-108804033D01*
X162720510Y-108804034D01*
X162741836Y-108833387D01*
X162748352Y-108843307D01*
X162760757Y-108864282D01*
X162770858Y-108881362D01*
X162785179Y-108895683D01*
X162798019Y-108910716D01*
X162809928Y-108927107D01*
X162816034Y-108932158D01*
X162844005Y-108955298D01*
X162852784Y-108963288D01*
X164271743Y-110382247D01*
X164279287Y-110390537D01*
X164283400Y-110397018D01*
X164289177Y-110402443D01*
X164333067Y-110443658D01*
X164335909Y-110446413D01*
X164355630Y-110466134D01*
X164358825Y-110468612D01*
X164367847Y-110476318D01*
X164400079Y-110506586D01*
X164407028Y-110510406D01*
X164417832Y-110516346D01*
X164434356Y-110527199D01*
X164450359Y-110539613D01*
X164490943Y-110557176D01*
X164501573Y-110562383D01*
X164540340Y-110583695D01*
X164548017Y-110585666D01*
X164548022Y-110585668D01*
X164559958Y-110588732D01*
X164578666Y-110595137D01*
X164597255Y-110603181D01*
X164605080Y-110604420D01*
X164605082Y-110604421D01*
X164640919Y-110610097D01*
X164652540Y-110612504D01*
X164687689Y-110621528D01*
X164695370Y-110623500D01*
X164715631Y-110623500D01*
X164735340Y-110625051D01*
X164755343Y-110628219D01*
X164763235Y-110627473D01*
X164768462Y-110626979D01*
X164799354Y-110624059D01*
X164811211Y-110623500D01*
X165177200Y-110623500D01*
X165245321Y-110643502D01*
X165264547Y-110659843D01*
X165264820Y-110659540D01*
X165269732Y-110663963D01*
X165274147Y-110668866D01*
X165428648Y-110781118D01*
X165434676Y-110783802D01*
X165434678Y-110783803D01*
X165551637Y-110835876D01*
X165603112Y-110858794D01*
X165696513Y-110878647D01*
X165783456Y-110897128D01*
X165783461Y-110897128D01*
X165789913Y-110898500D01*
X165980887Y-110898500D01*
X165987339Y-110897128D01*
X165987344Y-110897128D01*
X166074288Y-110878647D01*
X166167688Y-110858794D01*
X166219163Y-110835876D01*
X166336122Y-110783803D01*
X166336124Y-110783802D01*
X166342152Y-110781118D01*
X166496653Y-110668866D01*
X166533252Y-110628219D01*
X166620021Y-110531852D01*
X166620022Y-110531851D01*
X166624440Y-110526944D01*
X166699453Y-110397018D01*
X166716623Y-110367279D01*
X166716624Y-110367278D01*
X166719927Y-110361556D01*
X166778942Y-110179928D01*
X166781100Y-110159402D01*
X166798214Y-109996565D01*
X166798904Y-109990000D01*
X166785945Y-109866702D01*
X166779632Y-109806635D01*
X166779632Y-109806633D01*
X166778942Y-109800072D01*
X166719927Y-109618444D01*
X166624440Y-109453056D01*
X166553039Y-109373757D01*
X166522321Y-109309750D01*
X166531086Y-109239296D01*
X166553039Y-109205137D01*
X166610021Y-109141852D01*
X166610022Y-109141851D01*
X166614440Y-109136944D01*
X166688065Y-109009422D01*
X166706623Y-108977279D01*
X166706624Y-108977278D01*
X166709927Y-108971556D01*
X166768942Y-108789928D01*
X166771083Y-108769563D01*
X166788214Y-108606565D01*
X166788904Y-108600000D01*
X166785538Y-108567974D01*
X166769632Y-108416635D01*
X166769632Y-108416633D01*
X166768942Y-108410072D01*
X166709927Y-108228444D01*
X166614440Y-108063056D01*
X166541263Y-107981785D01*
X166510547Y-107917779D01*
X166508900Y-107897476D01*
X166508900Y-106462855D01*
X166528902Y-106394734D01*
X166545805Y-106373760D01*
X166649445Y-106270120D01*
X166711757Y-106236094D01*
X166782572Y-106241159D01*
X166839408Y-106283706D01*
X166864219Y-106350226D01*
X166864540Y-106359215D01*
X166864540Y-107353682D01*
X166864013Y-107364865D01*
X166862338Y-107372358D01*
X166862587Y-107380284D01*
X166862587Y-107380285D01*
X166864478Y-107440435D01*
X166864540Y-107444394D01*
X166864540Y-107472305D01*
X166865037Y-107476239D01*
X166865037Y-107476240D01*
X166865045Y-107476305D01*
X166865978Y-107488142D01*
X166867367Y-107532338D01*
X166871870Y-107547836D01*
X166873018Y-107551788D01*
X166877027Y-107571149D01*
X166879566Y-107591246D01*
X166882485Y-107598617D01*
X166882485Y-107598619D01*
X166895844Y-107632361D01*
X166899689Y-107643591D01*
X166907988Y-107672158D01*
X166912022Y-107686042D01*
X166916055Y-107692861D01*
X166916057Y-107692866D01*
X166922333Y-107703477D01*
X166931028Y-107721225D01*
X166938488Y-107740066D01*
X166943150Y-107746482D01*
X166943150Y-107746483D01*
X166964476Y-107775836D01*
X166970992Y-107785756D01*
X166993498Y-107823811D01*
X167007819Y-107838132D01*
X167020659Y-107853165D01*
X167032568Y-107869556D01*
X167055814Y-107888787D01*
X167066645Y-107897747D01*
X167075424Y-107905737D01*
X172653809Y-113484123D01*
X172661349Y-113492409D01*
X172665461Y-113498888D01*
X172671238Y-113504313D01*
X172715112Y-113545513D01*
X172717954Y-113548268D01*
X172737691Y-113568005D01*
X172740888Y-113570485D01*
X172749908Y-113578188D01*
X172782140Y-113608456D01*
X172789086Y-113612275D01*
X172789089Y-113612277D01*
X172799895Y-113618218D01*
X172816414Y-113629069D01*
X172832420Y-113641484D01*
X172839689Y-113644629D01*
X172839693Y-113644632D01*
X172872998Y-113659044D01*
X172883648Y-113664261D01*
X172922401Y-113685565D01*
X172930076Y-113687536D01*
X172930077Y-113687536D01*
X172942023Y-113690603D01*
X172960728Y-113697007D01*
X172979316Y-113705051D01*
X172987139Y-113706290D01*
X172987149Y-113706293D01*
X173022985Y-113711969D01*
X173034605Y-113714375D01*
X173069750Y-113723398D01*
X173077431Y-113725370D01*
X173097685Y-113725370D01*
X173117395Y-113726921D01*
X173137404Y-113730090D01*
X173145296Y-113729344D01*
X173181422Y-113725929D01*
X173193280Y-113725370D01*
X180746958Y-113725370D01*
X180815079Y-113745372D01*
X180836053Y-113762275D01*
X184025084Y-116951307D01*
X184059110Y-117013619D01*
X184061989Y-117040402D01*
X184061989Y-117061336D01*
X184061462Y-117072519D01*
X184059787Y-117080012D01*
X184060036Y-117087938D01*
X184060036Y-117087939D01*
X184061927Y-117148089D01*
X184061989Y-117152048D01*
X184061989Y-117179959D01*
X184062486Y-117183893D01*
X184062486Y-117183894D01*
X184062494Y-117183959D01*
X184063427Y-117195796D01*
X184064816Y-117239992D01*
X184070467Y-117259442D01*
X184074476Y-117278803D01*
X184077015Y-117298900D01*
X184079934Y-117306271D01*
X184079934Y-117306273D01*
X184093293Y-117340015D01*
X184097138Y-117351245D01*
X184107260Y-117386086D01*
X184109471Y-117393696D01*
X184113504Y-117400515D01*
X184113506Y-117400520D01*
X184119782Y-117411131D01*
X184128477Y-117428879D01*
X184135937Y-117447720D01*
X184140599Y-117454136D01*
X184140599Y-117454137D01*
X184161925Y-117483490D01*
X184168441Y-117493410D01*
X184183496Y-117518866D01*
X184190947Y-117531465D01*
X184205268Y-117545786D01*
X184218108Y-117560819D01*
X184230017Y-117577210D01*
X184236123Y-117582261D01*
X184264094Y-117605401D01*
X184272873Y-117613391D01*
X185587795Y-118928314D01*
X185621821Y-118990626D01*
X185624700Y-119017409D01*
X185624700Y-121249805D01*
X185604698Y-121317926D01*
X185587795Y-121338901D01*
X185021130Y-121905565D01*
X184958818Y-121939590D01*
X184932035Y-121942469D01*
X181972999Y-121942469D01*
X181961816Y-121941942D01*
X181954323Y-121940267D01*
X181946397Y-121940516D01*
X181946396Y-121940516D01*
X181886233Y-121942407D01*
X181882275Y-121942469D01*
X181854375Y-121942469D01*
X181850385Y-121942973D01*
X181838551Y-121943905D01*
X181794342Y-121945295D01*
X181786726Y-121947508D01*
X181786724Y-121947508D01*
X181774883Y-121950948D01*
X181755524Y-121954957D01*
X181754214Y-121955123D01*
X181735434Y-121957495D01*
X181728068Y-121960411D01*
X181728062Y-121960413D01*
X181694329Y-121973769D01*
X181683099Y-121977614D01*
X181648248Y-121987739D01*
X181640638Y-121989950D01*
X181633815Y-121993985D01*
X181623197Y-122000264D01*
X181605444Y-122008961D01*
X181597799Y-122011988D01*
X181586614Y-122016417D01*
X181580199Y-122021078D01*
X181550843Y-122042406D01*
X181540926Y-122048920D01*
X181502869Y-122071427D01*
X181488548Y-122085748D01*
X181473515Y-122098588D01*
X181457124Y-122110497D01*
X181452074Y-122116601D01*
X181452069Y-122116606D01*
X181428938Y-122144567D01*
X181420948Y-122153348D01*
X180727544Y-122846751D01*
X180665232Y-122880776D01*
X180616353Y-122881702D01*
X180403573Y-122843800D01*
X180403567Y-122843799D01*
X180398484Y-122842894D01*
X180324652Y-122841992D01*
X180180281Y-122840228D01*
X180180279Y-122840228D01*
X180175111Y-122840165D01*
X179954291Y-122873955D01*
X179741956Y-122943357D01*
X179543807Y-123046507D01*
X179539674Y-123049610D01*
X179539671Y-123049612D01*
X179369300Y-123177530D01*
X179365165Y-123180635D01*
X179210829Y-123342138D01*
X179103401Y-123499621D01*
X179048493Y-123544621D01*
X178977968Y-123552792D01*
X178914221Y-123521538D01*
X178893524Y-123497054D01*
X178813022Y-123372617D01*
X178813020Y-123372614D01*
X178810214Y-123368277D01*
X178659870Y-123203051D01*
X178655819Y-123199852D01*
X178655815Y-123199848D01*
X178488614Y-123067800D01*
X178488610Y-123067798D01*
X178484559Y-123064598D01*
X178480031Y-123062098D01*
X178432336Y-123035769D01*
X178288989Y-122956638D01*
X178284120Y-122954914D01*
X178284116Y-122954912D01*
X178083287Y-122883795D01*
X178083283Y-122883794D01*
X178078412Y-122882069D01*
X178073319Y-122881162D01*
X178073316Y-122881161D01*
X177863573Y-122843800D01*
X177863567Y-122843799D01*
X177858484Y-122842894D01*
X177784652Y-122841992D01*
X177640281Y-122840228D01*
X177640279Y-122840228D01*
X177635111Y-122840165D01*
X177414291Y-122873955D01*
X177201956Y-122943357D01*
X177003807Y-123046507D01*
X176999674Y-123049610D01*
X176999671Y-123049612D01*
X176829300Y-123177530D01*
X176825165Y-123180635D01*
X176670829Y-123342138D01*
X176563401Y-123499621D01*
X176508493Y-123544621D01*
X176437968Y-123552792D01*
X176374221Y-123521538D01*
X176353524Y-123497054D01*
X176273022Y-123372617D01*
X176273020Y-123372614D01*
X176270214Y-123368277D01*
X176119870Y-123203051D01*
X176115819Y-123199852D01*
X176115815Y-123199848D01*
X175948614Y-123067800D01*
X175948610Y-123067798D01*
X175944559Y-123064598D01*
X175940031Y-123062098D01*
X175892336Y-123035769D01*
X175748989Y-122956638D01*
X175744120Y-122954914D01*
X175744116Y-122954912D01*
X175543287Y-122883795D01*
X175543283Y-122883794D01*
X175538412Y-122882069D01*
X175533319Y-122881162D01*
X175533316Y-122881161D01*
X175323573Y-122843800D01*
X175323567Y-122843799D01*
X175318484Y-122842894D01*
X175244652Y-122841992D01*
X175100281Y-122840228D01*
X175100279Y-122840228D01*
X175095111Y-122840165D01*
X174874291Y-122873955D01*
X174861732Y-122878060D01*
X174790768Y-122880210D01*
X174733494Y-122847389D01*
X174005732Y-122119627D01*
X173998192Y-122111341D01*
X173994080Y-122104862D01*
X173973726Y-122085748D01*
X173944429Y-122058237D01*
X173941587Y-122055482D01*
X173921850Y-122035745D01*
X173918653Y-122033265D01*
X173909631Y-122025560D01*
X173888068Y-122005311D01*
X173877401Y-121995294D01*
X173870455Y-121991475D01*
X173870452Y-121991473D01*
X173859646Y-121985532D01*
X173843127Y-121974681D01*
X173839612Y-121971955D01*
X173827121Y-121962266D01*
X173819852Y-121959121D01*
X173819848Y-121959118D01*
X173786543Y-121944706D01*
X173775893Y-121939489D01*
X173737140Y-121918185D01*
X173717517Y-121913147D01*
X173698814Y-121906743D01*
X173687500Y-121901847D01*
X173687499Y-121901847D01*
X173680225Y-121898699D01*
X173672402Y-121897460D01*
X173672392Y-121897457D01*
X173636556Y-121891781D01*
X173624936Y-121889375D01*
X173589791Y-121880352D01*
X173589790Y-121880352D01*
X173582110Y-121878380D01*
X173561856Y-121878380D01*
X173542145Y-121876829D01*
X173529966Y-121874900D01*
X173522137Y-121873660D01*
X173514245Y-121874406D01*
X173478119Y-121877821D01*
X173466261Y-121878380D01*
X163263274Y-121878380D01*
X163195153Y-121858378D01*
X163174179Y-121841475D01*
X161689489Y-120356785D01*
X168122500Y-120356785D01*
X168129255Y-120418967D01*
X168180385Y-120555356D01*
X168267739Y-120671912D01*
X168384295Y-120759266D01*
X168520684Y-120810396D01*
X168582866Y-120817151D01*
X170279134Y-120817151D01*
X170341316Y-120810396D01*
X170477705Y-120759266D01*
X170594261Y-120671912D01*
X170681615Y-120555356D01*
X170732745Y-120418967D01*
X170739500Y-120356785D01*
X170739500Y-118660517D01*
X170732745Y-118598335D01*
X170681615Y-118461946D01*
X170594261Y-118345390D01*
X170477705Y-118258036D01*
X170341316Y-118206906D01*
X170279134Y-118200151D01*
X168582866Y-118200151D01*
X168520684Y-118206906D01*
X168384295Y-118258036D01*
X168267739Y-118345390D01*
X168180385Y-118461946D01*
X168129255Y-118598335D01*
X168122500Y-118660517D01*
X168122500Y-120356785D01*
X161689489Y-120356785D01*
X161612889Y-120280185D01*
X161578863Y-120217873D01*
X161583928Y-120147058D01*
X161626475Y-120090222D01*
X161686192Y-120066084D01*
X161964350Y-120030945D01*
X161972121Y-120029462D01*
X162270104Y-119952953D01*
X162277630Y-119950508D01*
X162563693Y-119837247D01*
X162570828Y-119833890D01*
X162840439Y-119685670D01*
X162847119Y-119681430D01*
X163070223Y-119519336D01*
X163078646Y-119508413D01*
X163071742Y-119495552D01*
X161139322Y-117563132D01*
X161861808Y-117563132D01*
X161861939Y-117564965D01*
X161866190Y-117571580D01*
X163428545Y-119133935D01*
X163441807Y-119141177D01*
X163451912Y-119133988D01*
X163527905Y-119042129D01*
X163532549Y-119035736D01*
X163697399Y-118775974D01*
X163701211Y-118769041D01*
X163832201Y-118490672D01*
X163835116Y-118483309D01*
X163930183Y-118190723D01*
X163932154Y-118183046D01*
X163989800Y-117880855D01*
X163990793Y-117872994D01*
X164010110Y-117565958D01*
X164010110Y-117558042D01*
X163990793Y-117251006D01*
X163989800Y-117243145D01*
X163932154Y-116940954D01*
X163930183Y-116933277D01*
X163835116Y-116640691D01*
X163832201Y-116633328D01*
X163701211Y-116354959D01*
X163697399Y-116348026D01*
X163532549Y-116088264D01*
X163527905Y-116081871D01*
X163467332Y-116008651D01*
X168117502Y-116008651D01*
X168137457Y-116236738D01*
X168138881Y-116242051D01*
X168138881Y-116242053D01*
X168168177Y-116351384D01*
X168196716Y-116457894D01*
X168199039Y-116462875D01*
X168199039Y-116462876D01*
X168291151Y-116660413D01*
X168291154Y-116660418D01*
X168293477Y-116665400D01*
X168296634Y-116669908D01*
X168415734Y-116840000D01*
X168424802Y-116852951D01*
X168586700Y-117014849D01*
X168591208Y-117018006D01*
X168591211Y-117018008D01*
X168598862Y-117023365D01*
X168774251Y-117146174D01*
X168779233Y-117148497D01*
X168779238Y-117148500D01*
X168976775Y-117240612D01*
X168981757Y-117242935D01*
X168987065Y-117244357D01*
X168987067Y-117244358D01*
X169197598Y-117300770D01*
X169197600Y-117300770D01*
X169202913Y-117302194D01*
X169431000Y-117322149D01*
X169659087Y-117302194D01*
X169664400Y-117300770D01*
X169664402Y-117300770D01*
X169874933Y-117244358D01*
X169874935Y-117244357D01*
X169880243Y-117242935D01*
X169885225Y-117240612D01*
X170082762Y-117148500D01*
X170082767Y-117148497D01*
X170087749Y-117146174D01*
X170263138Y-117023365D01*
X170270789Y-117018008D01*
X170270792Y-117018006D01*
X170275300Y-117014849D01*
X170437198Y-116852951D01*
X170446267Y-116840000D01*
X170565366Y-116669908D01*
X170568523Y-116665400D01*
X170570846Y-116660418D01*
X170570849Y-116660413D01*
X170662961Y-116462876D01*
X170662961Y-116462875D01*
X170665284Y-116457894D01*
X170693824Y-116351384D01*
X170723119Y-116242053D01*
X170723119Y-116242051D01*
X170724543Y-116236738D01*
X170744498Y-116008651D01*
X170724543Y-115780564D01*
X170723119Y-115775249D01*
X170666707Y-115564718D01*
X170666706Y-115564716D01*
X170665284Y-115559408D01*
X170608825Y-115438330D01*
X170570849Y-115356889D01*
X170570846Y-115356884D01*
X170568523Y-115351902D01*
X170442429Y-115171821D01*
X170440357Y-115168862D01*
X170440355Y-115168859D01*
X170437198Y-115164351D01*
X170275300Y-115002453D01*
X170270792Y-114999296D01*
X170270789Y-114999294D01*
X170146998Y-114912615D01*
X170087749Y-114871128D01*
X170082767Y-114868805D01*
X170082762Y-114868802D01*
X169885225Y-114776690D01*
X169885224Y-114776690D01*
X169880243Y-114774367D01*
X169874935Y-114772945D01*
X169874933Y-114772944D01*
X169664402Y-114716532D01*
X169664400Y-114716532D01*
X169659087Y-114715108D01*
X169431000Y-114695153D01*
X169202913Y-114715108D01*
X169197600Y-114716532D01*
X169197598Y-114716532D01*
X168987067Y-114772944D01*
X168987065Y-114772945D01*
X168981757Y-114774367D01*
X168976776Y-114776690D01*
X168976775Y-114776690D01*
X168779238Y-114868802D01*
X168779233Y-114868805D01*
X168774251Y-114871128D01*
X168715002Y-114912615D01*
X168591211Y-114999294D01*
X168591208Y-114999296D01*
X168586700Y-115002453D01*
X168424802Y-115164351D01*
X168421645Y-115168859D01*
X168421643Y-115168862D01*
X168419571Y-115171821D01*
X168293477Y-115351902D01*
X168291154Y-115356884D01*
X168291151Y-115356889D01*
X168253175Y-115438330D01*
X168196716Y-115559408D01*
X168195294Y-115564716D01*
X168195293Y-115564718D01*
X168138881Y-115775249D01*
X168137457Y-115780564D01*
X168117502Y-116008651D01*
X163467332Y-116008651D01*
X163452903Y-115991210D01*
X163440386Y-115982755D01*
X163429648Y-115988962D01*
X161869422Y-117549188D01*
X161861808Y-117563132D01*
X161139322Y-117563132D01*
X159566255Y-115990065D01*
X159552993Y-115982823D01*
X159542888Y-115990012D01*
X159466895Y-116081871D01*
X159462251Y-116088264D01*
X159297401Y-116348026D01*
X159293589Y-116354959D01*
X159162599Y-116633328D01*
X159159684Y-116640691D01*
X159064617Y-116933277D01*
X159062646Y-116940954D01*
X159005000Y-117243145D01*
X159004007Y-117251005D01*
X158996651Y-117367917D01*
X158972411Y-117434647D01*
X158915942Y-117477679D01*
X158845172Y-117483350D01*
X158781805Y-117449100D01*
X156651496Y-115318791D01*
X156617470Y-115256479D01*
X156615883Y-115227570D01*
X156614814Y-115227570D01*
X156614814Y-115220965D01*
X156615504Y-115214400D01*
X156607554Y-115138756D01*
X156596232Y-115031035D01*
X156596232Y-115031033D01*
X156595542Y-115024472D01*
X156536527Y-114842844D01*
X156526376Y-114825261D01*
X156482499Y-114749265D01*
X156441040Y-114677456D01*
X156418825Y-114652783D01*
X156317675Y-114540445D01*
X156317674Y-114540444D01*
X156313253Y-114535534D01*
X156278293Y-114510134D01*
X159088900Y-114510134D01*
X159095655Y-114572316D01*
X159146785Y-114708705D01*
X159234139Y-114825261D01*
X159350695Y-114912615D01*
X159487084Y-114963745D01*
X159549266Y-114970500D01*
X160569354Y-114970500D01*
X160637475Y-114990502D01*
X160683968Y-115044158D01*
X160694072Y-115114432D01*
X160664578Y-115179012D01*
X160615738Y-115213652D01*
X160431107Y-115286753D01*
X160423972Y-115290110D01*
X160154361Y-115438330D01*
X160147681Y-115442570D01*
X159924577Y-115604664D01*
X159916154Y-115615587D01*
X159923058Y-115628448D01*
X161484588Y-117189978D01*
X161498532Y-117197592D01*
X161500365Y-117197461D01*
X161506980Y-117193210D01*
X163072066Y-115628124D01*
X163078679Y-115616013D01*
X163069852Y-115604395D01*
X162847119Y-115442570D01*
X162840439Y-115438330D01*
X162570828Y-115290110D01*
X162563693Y-115286753D01*
X162379062Y-115213652D01*
X162323088Y-115169977D01*
X162299612Y-115102974D01*
X162316088Y-115033916D01*
X162367283Y-114984727D01*
X162425446Y-114970500D01*
X163445534Y-114970500D01*
X163507716Y-114963745D01*
X163644105Y-114912615D01*
X163760661Y-114825261D01*
X163848015Y-114708705D01*
X163899145Y-114572316D01*
X163905900Y-114510134D01*
X163905900Y-110613866D01*
X163899145Y-110551684D01*
X163848015Y-110415295D01*
X163760661Y-110298739D01*
X163644105Y-110211385D01*
X163507716Y-110160255D01*
X163445534Y-110153500D01*
X159549266Y-110153500D01*
X159487084Y-110160255D01*
X159350695Y-110211385D01*
X159234139Y-110298739D01*
X159146785Y-110415295D01*
X159095655Y-110551684D01*
X159088900Y-110613866D01*
X159088900Y-114510134D01*
X156278293Y-114510134D01*
X156158752Y-114423282D01*
X156152724Y-114420598D01*
X156152722Y-114420597D01*
X155990319Y-114348291D01*
X155990318Y-114348291D01*
X155984288Y-114345606D01*
X155890888Y-114325753D01*
X155803944Y-114307272D01*
X155803939Y-114307272D01*
X155797487Y-114305900D01*
X155606513Y-114305900D01*
X155600061Y-114307272D01*
X155600056Y-114307272D01*
X155513112Y-114325753D01*
X155419712Y-114345606D01*
X155413682Y-114348291D01*
X155413681Y-114348291D01*
X155251278Y-114420597D01*
X155251276Y-114420598D01*
X155245248Y-114423282D01*
X155090747Y-114535534D01*
X155086326Y-114540444D01*
X155086325Y-114540445D01*
X154985176Y-114652783D01*
X154962960Y-114677456D01*
X154921501Y-114749265D01*
X154877625Y-114825261D01*
X154867473Y-114842844D01*
X154808458Y-115024472D01*
X154807769Y-115031031D01*
X154807768Y-115031034D01*
X154804426Y-115062833D01*
X154777412Y-115128489D01*
X154719190Y-115169118D01*
X154648245Y-115171821D01*
X154590021Y-115138756D01*
X154453718Y-115002453D01*
X154449210Y-114999296D01*
X154449207Y-114999294D01*
X154325416Y-114912615D01*
X154266167Y-114871128D01*
X154261185Y-114868805D01*
X154261180Y-114868802D01*
X154063643Y-114776690D01*
X154063642Y-114776690D01*
X154058661Y-114774367D01*
X154053353Y-114772945D01*
X154053351Y-114772944D01*
X153842820Y-114716532D01*
X153842818Y-114716532D01*
X153837505Y-114715108D01*
X153609418Y-114695153D01*
X153381331Y-114715108D01*
X153376018Y-114716532D01*
X153376016Y-114716532D01*
X153165485Y-114772944D01*
X153165483Y-114772945D01*
X153160175Y-114774367D01*
X153155194Y-114776690D01*
X153155193Y-114776690D01*
X152957656Y-114868802D01*
X152957651Y-114868805D01*
X152952669Y-114871128D01*
X152893420Y-114912615D01*
X152769629Y-114999294D01*
X152769626Y-114999296D01*
X152765118Y-115002453D01*
X152603220Y-115164351D01*
X152600063Y-115168859D01*
X152600061Y-115168862D01*
X152597989Y-115171821D01*
X152471895Y-115351902D01*
X152469572Y-115356884D01*
X152469569Y-115356889D01*
X152431593Y-115438330D01*
X152375134Y-115559408D01*
X152373712Y-115564716D01*
X152373711Y-115564718D01*
X152317299Y-115775249D01*
X152315875Y-115780564D01*
X152295920Y-116008651D01*
X152315875Y-116236738D01*
X152317299Y-116242051D01*
X152317299Y-116242053D01*
X152346595Y-116351384D01*
X152375134Y-116457894D01*
X152377457Y-116462875D01*
X152377457Y-116462876D01*
X152469569Y-116660413D01*
X152469572Y-116660418D01*
X152471895Y-116665400D01*
X152475052Y-116669908D01*
X152594152Y-116840000D01*
X152603220Y-116852951D01*
X152765118Y-117014849D01*
X152769626Y-117018006D01*
X152769629Y-117018008D01*
X152777280Y-117023365D01*
X152952669Y-117146174D01*
X152957651Y-117148497D01*
X152957656Y-117148500D01*
X153155193Y-117240612D01*
X153160175Y-117242935D01*
X153165483Y-117244357D01*
X153165485Y-117244358D01*
X153376016Y-117300770D01*
X153376018Y-117300770D01*
X153381331Y-117302194D01*
X153609418Y-117322149D01*
X153837505Y-117302194D01*
X153842818Y-117300770D01*
X153842820Y-117300770D01*
X154053351Y-117244358D01*
X154053353Y-117244357D01*
X154058661Y-117242935D01*
X154063643Y-117240612D01*
X154261180Y-117148500D01*
X154261185Y-117148497D01*
X154266167Y-117146174D01*
X154441556Y-117023365D01*
X154449207Y-117018008D01*
X154449210Y-117018006D01*
X154453718Y-117014849D01*
X154615616Y-116852951D01*
X154624685Y-116840000D01*
X154743784Y-116669908D01*
X154746941Y-116665400D01*
X154749264Y-116660418D01*
X154749267Y-116660413D01*
X154841379Y-116462876D01*
X154841379Y-116462875D01*
X154843702Y-116457894D01*
X154872242Y-116351384D01*
X154901537Y-116242053D01*
X154901537Y-116242051D01*
X154902961Y-116236738D01*
X154922916Y-116008651D01*
X154925203Y-116008851D01*
X154942439Y-115950150D01*
X154996095Y-115903657D01*
X155066369Y-115893553D01*
X155122498Y-115916335D01*
X155239906Y-116001637D01*
X155245248Y-116005518D01*
X155251276Y-116008202D01*
X155251278Y-116008203D01*
X155413681Y-116080509D01*
X155419712Y-116083194D01*
X155513113Y-116103047D01*
X155600056Y-116121528D01*
X155600061Y-116121528D01*
X155606513Y-116122900D01*
X155613115Y-116122900D01*
X155619682Y-116123590D01*
X155619511Y-116125221D01*
X155679727Y-116142902D01*
X155700701Y-116159805D01*
X158257772Y-118716876D01*
X158291798Y-118779188D01*
X158286733Y-118850003D01*
X158244186Y-118906839D01*
X158194874Y-118929218D01*
X158116483Y-118945881D01*
X158010512Y-118968406D01*
X158004482Y-118971091D01*
X158004481Y-118971091D01*
X157842078Y-119043397D01*
X157842076Y-119043398D01*
X157836048Y-119046082D01*
X157830707Y-119049962D01*
X157830706Y-119049963D01*
X157780643Y-119086336D01*
X157681547Y-119158334D01*
X157677126Y-119163244D01*
X157677125Y-119163245D01*
X157577495Y-119273896D01*
X157553760Y-119300256D01*
X157458273Y-119465644D01*
X157399258Y-119647272D01*
X157379296Y-119837200D01*
X157399258Y-120027128D01*
X157458273Y-120208756D01*
X157461576Y-120214478D01*
X157461577Y-120214479D01*
X157489052Y-120262066D01*
X157553760Y-120374144D01*
X157681547Y-120516066D01*
X157836048Y-120628318D01*
X157842076Y-120631002D01*
X157842078Y-120631003D01*
X158004481Y-120703309D01*
X158010512Y-120705994D01*
X158103913Y-120725847D01*
X158190856Y-120744328D01*
X158190861Y-120744328D01*
X158197313Y-120745700D01*
X158253206Y-120745700D01*
X158321327Y-120765702D01*
X158342301Y-120782605D01*
X159008343Y-121448647D01*
X159015887Y-121456937D01*
X159020000Y-121463418D01*
X159025777Y-121468843D01*
X159069667Y-121510058D01*
X159072509Y-121512813D01*
X159092230Y-121532534D01*
X159095425Y-121535012D01*
X159104447Y-121542718D01*
X159136679Y-121572986D01*
X159143628Y-121576806D01*
X159154432Y-121582746D01*
X159170956Y-121593599D01*
X159186959Y-121606013D01*
X159227543Y-121623576D01*
X159238173Y-121628783D01*
X159276940Y-121650095D01*
X159284617Y-121652066D01*
X159284622Y-121652068D01*
X159296558Y-121655132D01*
X159315266Y-121661537D01*
X159333855Y-121669581D01*
X159341683Y-121670821D01*
X159341690Y-121670823D01*
X159377524Y-121676499D01*
X159389144Y-121678905D01*
X159424289Y-121687928D01*
X159431970Y-121689900D01*
X159452224Y-121689900D01*
X159471934Y-121691451D01*
X159491943Y-121694620D01*
X159499835Y-121693874D01*
X159535961Y-121690459D01*
X159547819Y-121689900D01*
X159667400Y-121689900D01*
X159735521Y-121709902D01*
X159754747Y-121726243D01*
X159755020Y-121725940D01*
X159759932Y-121730363D01*
X159764347Y-121735266D01*
X159785929Y-121750946D01*
X159910531Y-121841475D01*
X159918848Y-121847518D01*
X159924876Y-121850202D01*
X159924878Y-121850203D01*
X160066550Y-121913279D01*
X160093312Y-121925194D01*
X160174584Y-121942469D01*
X160273656Y-121963528D01*
X160273661Y-121963528D01*
X160280113Y-121964900D01*
X160471087Y-121964900D01*
X160477539Y-121963528D01*
X160477544Y-121963528D01*
X160576616Y-121942469D01*
X160657888Y-121925194D01*
X160684650Y-121913279D01*
X160826322Y-121850203D01*
X160826324Y-121850202D01*
X160832352Y-121847518D01*
X160840670Y-121841475D01*
X160887757Y-121807264D01*
X160986853Y-121735266D01*
X161035082Y-121681702D01*
X161095528Y-121644462D01*
X161166511Y-121645814D01*
X161217813Y-121676917D01*
X161653701Y-122112805D01*
X161687727Y-122175117D01*
X161682662Y-122245932D01*
X161640115Y-122302768D01*
X161573595Y-122327579D01*
X161564606Y-122327900D01*
X142631513Y-122327900D01*
X142563392Y-122307898D01*
X142542418Y-122290995D01*
X140703619Y-120452196D01*
X140669593Y-120389884D01*
X140671960Y-120356785D01*
X152300918Y-120356785D01*
X152307673Y-120418967D01*
X152358803Y-120555356D01*
X152446157Y-120671912D01*
X152562713Y-120759266D01*
X152699102Y-120810396D01*
X152761284Y-120817151D01*
X154457552Y-120817151D01*
X154519734Y-120810396D01*
X154656123Y-120759266D01*
X154772679Y-120671912D01*
X154860033Y-120555356D01*
X154911163Y-120418967D01*
X154917918Y-120356785D01*
X154917918Y-118660517D01*
X154911163Y-118598335D01*
X154860033Y-118461946D01*
X154772679Y-118345390D01*
X154656123Y-118258036D01*
X154519734Y-118206906D01*
X154457552Y-118200151D01*
X152761284Y-118200151D01*
X152699102Y-118206906D01*
X152562713Y-118258036D01*
X152446157Y-118345390D01*
X152358803Y-118461946D01*
X152307673Y-118598335D01*
X152300918Y-118660517D01*
X152300918Y-120356785D01*
X140671960Y-120356785D01*
X140674658Y-120319069D01*
X140708404Y-120269465D01*
X140712312Y-120265947D01*
X140717653Y-120262066D01*
X140722068Y-120257162D01*
X140722072Y-120257159D01*
X140841021Y-120125052D01*
X140841022Y-120125051D01*
X140845440Y-120120144D01*
X140940927Y-119954756D01*
X140999942Y-119773128D01*
X141019904Y-119583200D01*
X140999942Y-119393272D01*
X140940927Y-119211644D01*
X140845440Y-119046256D01*
X140731237Y-118919420D01*
X140722075Y-118909245D01*
X140722074Y-118909244D01*
X140717653Y-118904334D01*
X140563152Y-118792082D01*
X140557124Y-118789398D01*
X140557122Y-118789397D01*
X140394719Y-118717091D01*
X140394718Y-118717091D01*
X140388688Y-118714406D01*
X140295287Y-118694553D01*
X140208344Y-118676072D01*
X140208339Y-118676072D01*
X140201887Y-118674700D01*
X140010913Y-118674700D01*
X140004461Y-118676072D01*
X140004456Y-118676072D01*
X139865740Y-118705558D01*
X139824112Y-118714406D01*
X139749218Y-118747750D01*
X139678855Y-118757184D01*
X139614558Y-118727078D01*
X139608878Y-118721738D01*
X138432927Y-117545786D01*
X137238525Y-116351384D01*
X137204499Y-116289072D01*
X137201620Y-116262289D01*
X137201620Y-114088874D01*
X137221622Y-114020753D01*
X137238525Y-113999779D01*
X137360099Y-113878205D01*
X137422411Y-113844179D01*
X137449194Y-113841300D01*
X149929272Y-113841300D01*
X149940455Y-113841827D01*
X149947948Y-113843502D01*
X149955874Y-113843253D01*
X149955875Y-113843253D01*
X150016025Y-113841362D01*
X150019984Y-113841300D01*
X150047895Y-113841300D01*
X150051830Y-113840803D01*
X150051895Y-113840795D01*
X150063732Y-113839862D01*
X150095990Y-113838848D01*
X150100009Y-113838722D01*
X150107928Y-113838473D01*
X150127382Y-113832821D01*
X150146739Y-113828813D01*
X150158969Y-113827268D01*
X150158970Y-113827268D01*
X150166836Y-113826274D01*
X150174207Y-113823355D01*
X150174209Y-113823355D01*
X150207951Y-113809996D01*
X150219181Y-113806151D01*
X150254022Y-113796029D01*
X150254023Y-113796029D01*
X150261632Y-113793818D01*
X150268451Y-113789785D01*
X150268456Y-113789783D01*
X150279067Y-113783507D01*
X150296815Y-113774812D01*
X150315656Y-113767352D01*
X150351426Y-113741364D01*
X150361346Y-113734848D01*
X150392574Y-113716380D01*
X150392577Y-113716378D01*
X150399401Y-113712342D01*
X150413722Y-113698021D01*
X150428756Y-113685180D01*
X150433478Y-113681749D01*
X150445146Y-113673272D01*
X150450197Y-113667167D01*
X150450202Y-113667162D01*
X150473338Y-113639196D01*
X150481326Y-113630418D01*
X151178827Y-112932917D01*
X151187113Y-112925377D01*
X151193592Y-112921265D01*
X151201474Y-112912872D01*
X151240217Y-112871614D01*
X151242972Y-112868772D01*
X151262709Y-112849035D01*
X151265189Y-112845838D01*
X151272894Y-112836816D01*
X151297733Y-112810365D01*
X151303160Y-112804586D01*
X151306979Y-112797640D01*
X151306981Y-112797637D01*
X151312922Y-112786831D01*
X151323773Y-112770312D01*
X151331332Y-112760566D01*
X151336188Y-112754306D01*
X151339333Y-112747037D01*
X151339336Y-112747033D01*
X151353748Y-112713728D01*
X151358965Y-112703078D01*
X151380269Y-112664325D01*
X151385307Y-112644702D01*
X151391711Y-112625999D01*
X151396607Y-112614685D01*
X151396607Y-112614684D01*
X151399755Y-112607410D01*
X151400994Y-112599587D01*
X151400997Y-112599577D01*
X151406673Y-112563741D01*
X151409079Y-112552121D01*
X151418102Y-112516976D01*
X151418102Y-112516975D01*
X151420074Y-112509295D01*
X151420074Y-112489041D01*
X151421625Y-112469330D01*
X151423554Y-112457151D01*
X151424794Y-112449322D01*
X151420633Y-112405303D01*
X151420074Y-112393446D01*
X151420074Y-108557220D01*
X151440076Y-108489099D01*
X151456979Y-108468125D01*
X151486899Y-108438205D01*
X151549211Y-108404179D01*
X151575994Y-108401300D01*
X151631887Y-108401300D01*
X151638339Y-108399928D01*
X151638344Y-108399928D01*
X151725288Y-108381447D01*
X151818688Y-108361594D01*
X151843606Y-108350500D01*
X151987122Y-108286603D01*
X151987124Y-108286602D01*
X151993152Y-108283918D01*
X152019879Y-108264500D01*
X152105643Y-108202188D01*
X152147653Y-108171666D01*
X152189897Y-108124749D01*
X152271021Y-108034652D01*
X152271022Y-108034651D01*
X152275440Y-108029744D01*
X152353514Y-107894516D01*
X152367623Y-107870079D01*
X152367624Y-107870078D01*
X152370927Y-107864356D01*
X152414334Y-107730764D01*
X152454408Y-107672158D01*
X152519804Y-107644521D01*
X152534166Y-107643700D01*
X152724954Y-107643699D01*
X152733334Y-107643699D01*
X152736192Y-107643436D01*
X152736201Y-107643436D01*
X152783955Y-107639048D01*
X152806762Y-107636953D01*
X152822797Y-107631928D01*
X152874046Y-107615868D01*
X152945031Y-107614584D01*
X153000820Y-107647007D01*
X153746860Y-108393047D01*
X153754404Y-108401337D01*
X153758517Y-108407818D01*
X153764294Y-108413243D01*
X153808184Y-108454458D01*
X153811026Y-108457213D01*
X153830748Y-108476935D01*
X153833890Y-108479372D01*
X153833950Y-108479419D01*
X153842962Y-108487117D01*
X153854537Y-108497986D01*
X153875196Y-108517386D01*
X153890669Y-108525892D01*
X153892948Y-108527145D01*
X153909470Y-108537998D01*
X153925476Y-108550414D01*
X153932754Y-108553564D01*
X153932755Y-108553564D01*
X153966054Y-108567974D01*
X153976704Y-108573191D01*
X154015457Y-108594495D01*
X154023132Y-108596466D01*
X154023133Y-108596466D01*
X154035079Y-108599533D01*
X154053784Y-108605937D01*
X154072372Y-108613981D01*
X154080195Y-108615220D01*
X154080205Y-108615223D01*
X154116041Y-108620899D01*
X154127661Y-108623305D01*
X154162806Y-108632328D01*
X154170487Y-108634300D01*
X154190741Y-108634300D01*
X154210451Y-108635851D01*
X154230460Y-108639020D01*
X154238352Y-108638274D01*
X154274478Y-108634859D01*
X154286336Y-108634300D01*
X154714400Y-108634300D01*
X154782521Y-108654302D01*
X154801747Y-108670643D01*
X154802020Y-108670340D01*
X154806932Y-108674763D01*
X154811347Y-108679666D01*
X154816686Y-108683545D01*
X154899335Y-108743593D01*
X154965848Y-108791918D01*
X154971874Y-108794601D01*
X154971881Y-108794605D01*
X155059503Y-108833616D01*
X155113599Y-108879596D01*
X155134249Y-108947523D01*
X155118671Y-109009422D01*
X155099194Y-109044851D01*
X155095109Y-109060763D01*
X155094156Y-109064473D01*
X155087752Y-109083177D01*
X155083545Y-109092900D01*
X155079708Y-109101766D01*
X155078469Y-109109589D01*
X155078466Y-109109599D01*
X155072790Y-109145435D01*
X155070384Y-109157055D01*
X155065088Y-109177683D01*
X155059389Y-109199881D01*
X155059389Y-109220135D01*
X155057838Y-109239845D01*
X155054669Y-109259854D01*
X155055415Y-109267746D01*
X155058830Y-109303872D01*
X155059389Y-109315730D01*
X155059389Y-110126787D01*
X155039387Y-110194908D01*
X155027031Y-110211090D01*
X154953849Y-110292367D01*
X154858362Y-110457755D01*
X154799347Y-110639383D01*
X154798657Y-110645944D01*
X154798657Y-110645946D01*
X154795840Y-110672749D01*
X154779385Y-110829311D01*
X154780075Y-110835876D01*
X154795509Y-110982718D01*
X154799347Y-111019239D01*
X154858362Y-111200867D01*
X154953849Y-111366255D01*
X155081636Y-111508177D01*
X155236137Y-111620429D01*
X155242165Y-111623113D01*
X155242167Y-111623114D01*
X155404570Y-111695420D01*
X155410601Y-111698105D01*
X155504001Y-111717958D01*
X155590945Y-111736439D01*
X155590950Y-111736439D01*
X155597402Y-111737811D01*
X155788376Y-111737811D01*
X155794828Y-111736439D01*
X155794833Y-111736439D01*
X155881777Y-111717958D01*
X155975177Y-111698105D01*
X155981208Y-111695420D01*
X156143611Y-111623114D01*
X156143613Y-111623113D01*
X156149641Y-111620429D01*
X156304142Y-111508177D01*
X156431929Y-111366255D01*
X156527416Y-111200867D01*
X156586431Y-111019239D01*
X156590270Y-110982718D01*
X156605703Y-110835876D01*
X156606393Y-110829311D01*
X156589938Y-110672749D01*
X156587121Y-110645946D01*
X156587121Y-110645944D01*
X156586431Y-110639383D01*
X156527416Y-110457755D01*
X156431929Y-110292367D01*
X156396944Y-110253513D01*
X156366228Y-110189506D01*
X156374993Y-110119053D01*
X156420456Y-110064522D01*
X156488184Y-110043227D01*
X156541832Y-110054098D01*
X156556677Y-110060708D01*
X156556685Y-110060711D01*
X156562712Y-110063394D01*
X156656112Y-110083247D01*
X156743056Y-110101728D01*
X156743061Y-110101728D01*
X156749513Y-110103100D01*
X156940487Y-110103100D01*
X156946939Y-110101728D01*
X156946944Y-110101728D01*
X157033888Y-110083247D01*
X157127288Y-110063394D01*
X157133321Y-110060708D01*
X157295722Y-109988403D01*
X157295724Y-109988402D01*
X157301752Y-109985718D01*
X157456253Y-109873466D01*
X157462343Y-109866702D01*
X157579621Y-109736452D01*
X157579622Y-109736451D01*
X157584040Y-109731544D01*
X157679527Y-109566156D01*
X157738542Y-109384528D01*
X157741425Y-109357104D01*
X157757814Y-109201165D01*
X157758504Y-109194600D01*
X157754558Y-109157055D01*
X157739232Y-109011235D01*
X157739232Y-109011233D01*
X157738542Y-109004672D01*
X157679527Y-108823044D01*
X157660408Y-108789928D01*
X157598987Y-108683545D01*
X157584040Y-108657656D01*
X157510863Y-108576385D01*
X157480147Y-108512379D01*
X157478500Y-108492076D01*
X157478500Y-108476500D01*
X157498502Y-108408379D01*
X157552158Y-108361886D01*
X157604500Y-108350500D01*
X157661387Y-108350500D01*
X157667839Y-108349128D01*
X157667844Y-108349128D01*
X157754787Y-108330647D01*
X157848188Y-108310794D01*
X157854219Y-108308109D01*
X158016622Y-108235803D01*
X158016624Y-108235802D01*
X158022652Y-108233118D01*
X158177153Y-108120866D01*
X158181575Y-108115955D01*
X158300521Y-107983852D01*
X158300522Y-107983851D01*
X158304940Y-107978944D01*
X158381705Y-107845983D01*
X158397123Y-107819279D01*
X158397124Y-107819278D01*
X158400427Y-107813556D01*
X158459442Y-107631928D01*
X158461959Y-107607986D01*
X158478714Y-107448565D01*
X158479404Y-107442000D01*
X158459442Y-107252072D01*
X158400427Y-107070444D01*
X158385910Y-107045300D01*
X158369172Y-106976305D01*
X158392392Y-106909213D01*
X158448199Y-106865326D01*
X158495029Y-106856300D01*
X160073800Y-106856300D01*
X160141921Y-106876302D01*
X160161147Y-106892643D01*
X160161420Y-106892340D01*
X160166332Y-106896763D01*
X160170747Y-106901666D01*
X160325248Y-107013918D01*
X160331276Y-107016602D01*
X160331278Y-107016603D01*
X160493681Y-107088909D01*
X160499712Y-107091594D01*
X160593113Y-107111447D01*
X160680056Y-107129928D01*
X160680061Y-107129928D01*
X160686513Y-107131300D01*
X160877487Y-107131300D01*
X160883939Y-107129928D01*
X160883944Y-107129928D01*
X160970888Y-107111447D01*
X161064288Y-107091594D01*
X161070319Y-107088909D01*
X161232722Y-107016603D01*
X161232724Y-107016602D01*
X161238752Y-107013918D01*
X161393253Y-106901666D01*
X161448842Y-106839928D01*
X161516621Y-106764652D01*
X161516622Y-106764651D01*
X161521040Y-106759744D01*
X161616527Y-106594356D01*
X161675542Y-106412728D01*
X161681167Y-106359215D01*
X161694814Y-106229365D01*
X161695504Y-106222800D01*
X161692109Y-106190500D01*
X161676233Y-106039442D01*
X161676232Y-106039438D01*
X161675542Y-106032872D01*
X161673502Y-106026593D01*
X161673501Y-106026589D01*
X161668559Y-106011381D01*
X161666531Y-105940413D01*
X161707823Y-105875570D01*
X161854255Y-105753784D01*
X161858693Y-105750093D01*
X161994840Y-105586393D01*
X162098876Y-105400623D01*
X162167316Y-105199005D01*
X162168303Y-105192202D01*
X162197337Y-104991961D01*
X162197337Y-104991959D01*
X162197869Y-104988291D01*
X162199463Y-104927400D01*
X162184754Y-104767317D01*
X162180510Y-104721130D01*
X162180509Y-104721127D01*
X162179981Y-104715376D01*
X162176962Y-104704671D01*
X162123754Y-104516011D01*
X162123753Y-104516009D01*
X162122186Y-104510452D01*
X162116596Y-104499115D01*
X162062068Y-104388545D01*
X162028015Y-104319492D01*
X161980585Y-104255975D01*
X161955855Y-104189427D01*
X161971030Y-104120071D01*
X161984671Y-104100020D01*
X161991149Y-104092231D01*
X161994840Y-104087793D01*
X162098876Y-103902023D01*
X162167316Y-103700405D01*
X162173731Y-103656167D01*
X162197337Y-103493361D01*
X162197337Y-103493359D01*
X162197869Y-103489691D01*
X162199463Y-103428800D01*
X162184964Y-103271006D01*
X162180510Y-103222530D01*
X162180509Y-103222527D01*
X162179981Y-103216776D01*
X162175921Y-103202379D01*
X162123754Y-103017411D01*
X162123753Y-103017409D01*
X162122186Y-103011852D01*
X162117382Y-103002109D01*
X162030570Y-102826073D01*
X162028015Y-102820892D01*
X161900622Y-102650291D01*
X161744271Y-102505763D01*
X161580744Y-102402585D01*
X161569081Y-102395226D01*
X161564201Y-102392147D01*
X161366441Y-102313249D01*
X161360781Y-102312123D01*
X161360777Y-102312122D01*
X161163282Y-102272838D01*
X161163280Y-102272838D01*
X161157615Y-102271711D01*
X161151840Y-102271635D01*
X161151836Y-102271635D01*
X161045161Y-102270239D01*
X160944716Y-102268924D01*
X160939019Y-102269903D01*
X160939018Y-102269903D01*
X160740564Y-102304003D01*
X160740561Y-102304004D01*
X160734874Y-102304981D01*
X160535116Y-102378675D01*
X160500939Y-102399008D01*
X160494927Y-102402585D01*
X160430504Y-102420300D01*
X159055831Y-102420300D01*
X159052775Y-102420600D01*
X159052768Y-102420600D01*
X158994260Y-102426337D01*
X158908767Y-102434720D01*
X158902866Y-102436502D01*
X158902864Y-102436502D01*
X158837198Y-102456328D01*
X158719431Y-102491884D01*
X158544804Y-102584734D01*
X158461710Y-102652504D01*
X158396313Y-102705840D01*
X158396310Y-102705843D01*
X158391538Y-102709735D01*
X158387611Y-102714482D01*
X158387609Y-102714484D01*
X158269399Y-102857375D01*
X158269397Y-102857379D01*
X158265470Y-102862125D01*
X158171402Y-103036099D01*
X158112918Y-103225032D01*
X158112274Y-103231157D01*
X158112274Y-103231158D01*
X158094397Y-103401253D01*
X158092245Y-103421725D01*
X158098764Y-103493361D01*
X158107597Y-103590410D01*
X158110170Y-103618688D01*
X158111908Y-103624594D01*
X158111909Y-103624598D01*
X158129351Y-103683861D01*
X158166010Y-103808419D01*
X158168863Y-103813877D01*
X158168865Y-103813881D01*
X158193607Y-103861207D01*
X158257640Y-103983690D01*
X158345066Y-104092426D01*
X158350840Y-104099607D01*
X158377937Y-104165229D01*
X158365254Y-104235084D01*
X158349729Y-104258873D01*
X158265470Y-104360725D01*
X158171402Y-104534699D01*
X158112918Y-104723632D01*
X158112274Y-104729757D01*
X158112274Y-104729758D01*
X158093214Y-104911110D01*
X158092245Y-104920325D01*
X158094936Y-104949890D01*
X158109499Y-105109911D01*
X158110170Y-105117288D01*
X158111910Y-105123198D01*
X158111910Y-105123201D01*
X158146662Y-105241281D01*
X158146706Y-105312277D01*
X158108360Y-105372028D01*
X158043798Y-105401561D01*
X157974539Y-105391962D01*
X157895319Y-105356691D01*
X157895318Y-105356691D01*
X157889288Y-105354006D01*
X157789687Y-105332835D01*
X157708944Y-105315672D01*
X157708939Y-105315672D01*
X157702487Y-105314300D01*
X157511513Y-105314300D01*
X157505060Y-105315672D01*
X157500707Y-105316129D01*
X157430869Y-105303355D01*
X157379024Y-105254852D01*
X157361540Y-105190819D01*
X157361540Y-101742286D01*
X157381542Y-101674165D01*
X157398445Y-101653191D01*
X158106231Y-100945405D01*
X158168543Y-100911379D01*
X158195326Y-100908500D01*
X158246887Y-100908500D01*
X158253339Y-100907128D01*
X158253344Y-100907128D01*
X158356438Y-100885214D01*
X158433688Y-100868794D01*
X158446985Y-100862874D01*
X158602122Y-100793803D01*
X158602124Y-100793802D01*
X158608152Y-100791118D01*
X158762653Y-100678866D01*
X158793345Y-100644779D01*
X158886021Y-100541852D01*
X158886025Y-100541847D01*
X158890440Y-100536944D01*
X158985927Y-100371556D01*
X159044942Y-100189928D01*
X159062307Y-100024706D01*
X159089320Y-99959050D01*
X159098522Y-99948782D01*
X160198900Y-98848405D01*
X160261212Y-98814379D01*
X160287995Y-98811500D01*
X160610892Y-98811500D01*
X160622075Y-98812027D01*
X160629568Y-98813702D01*
X160637494Y-98813453D01*
X160637495Y-98813453D01*
X160697645Y-98811562D01*
X160701604Y-98811500D01*
X160729515Y-98811500D01*
X160733450Y-98811003D01*
X160733515Y-98810995D01*
X160745352Y-98810062D01*
X160777610Y-98809048D01*
X160781629Y-98808922D01*
X160789548Y-98808673D01*
X160809002Y-98803021D01*
X160828359Y-98799013D01*
X160840590Y-98797468D01*
X160840592Y-98797468D01*
X160848456Y-98796474D01*
X160862528Y-98790903D01*
X160908911Y-98782054D01*
X161021599Y-98782054D01*
X161089720Y-98802056D01*
G37*
%TD.AperFunction*%
%TA.AperFunction,Conductor*%
G36*
X167169727Y-96183502D02*
G01*
X167190701Y-96200405D01*
X168004143Y-97013847D01*
X168011687Y-97022137D01*
X168015800Y-97028618D01*
X168021577Y-97034043D01*
X168065467Y-97075258D01*
X168068309Y-97078013D01*
X168088031Y-97097735D01*
X168091155Y-97100158D01*
X168091159Y-97100162D01*
X168091224Y-97100212D01*
X168100245Y-97107917D01*
X168132479Y-97138186D01*
X168139427Y-97142005D01*
X168139429Y-97142007D01*
X168150232Y-97147946D01*
X168166759Y-97158802D01*
X168176498Y-97166357D01*
X168176500Y-97166358D01*
X168182760Y-97171214D01*
X168223340Y-97188774D01*
X168233988Y-97193991D01*
X168258776Y-97207618D01*
X168272740Y-97215295D01*
X168280416Y-97217266D01*
X168280419Y-97217267D01*
X168292362Y-97220333D01*
X168311067Y-97226737D01*
X168329655Y-97234781D01*
X168337478Y-97236020D01*
X168337488Y-97236023D01*
X168373324Y-97241699D01*
X168384944Y-97244105D01*
X168416759Y-97252273D01*
X168427770Y-97255100D01*
X168448024Y-97255100D01*
X168467734Y-97256651D01*
X168487743Y-97259820D01*
X168495635Y-97259074D01*
X168514380Y-97257302D01*
X168531762Y-97255659D01*
X168543619Y-97255100D01*
X171527833Y-97255100D01*
X171539016Y-97255627D01*
X171546509Y-97257302D01*
X171554435Y-97257053D01*
X171554436Y-97257053D01*
X171614586Y-97255162D01*
X171618545Y-97255100D01*
X171646456Y-97255100D01*
X171650391Y-97254603D01*
X171650456Y-97254595D01*
X171662293Y-97253662D01*
X171694551Y-97252648D01*
X171698570Y-97252522D01*
X171706489Y-97252273D01*
X171725943Y-97246621D01*
X171745300Y-97242613D01*
X171757530Y-97241068D01*
X171757531Y-97241068D01*
X171765397Y-97240074D01*
X171772768Y-97237155D01*
X171772770Y-97237155D01*
X171806512Y-97223796D01*
X171817742Y-97219951D01*
X171852583Y-97209829D01*
X171852584Y-97209829D01*
X171860193Y-97207618D01*
X171867012Y-97203585D01*
X171867017Y-97203583D01*
X171877628Y-97197307D01*
X171895376Y-97188612D01*
X171914217Y-97181152D01*
X171941429Y-97161382D01*
X171949987Y-97155164D01*
X171959907Y-97148648D01*
X171991135Y-97130180D01*
X171991138Y-97130178D01*
X171997962Y-97126142D01*
X172012283Y-97111821D01*
X172027317Y-97098980D01*
X172029031Y-97097735D01*
X172043707Y-97087072D01*
X172071898Y-97052995D01*
X172079888Y-97044216D01*
X172923699Y-96200405D01*
X172986011Y-96166379D01*
X173012794Y-96163500D01*
X173449012Y-96163500D01*
X173517133Y-96183502D01*
X173518702Y-96185312D01*
X173546191Y-96168150D01*
X173580104Y-96163500D01*
X186353099Y-96163500D01*
X186421220Y-96183502D01*
X186467713Y-96237158D01*
X186477817Y-96307432D01*
X186472693Y-96329162D01*
X186452203Y-96390939D01*
X186451503Y-96397775D01*
X186451502Y-96397778D01*
X186449308Y-96419196D01*
X186441500Y-96495400D01*
X186441500Y-97696200D01*
X186441837Y-97699446D01*
X186441837Y-97699450D01*
X186447091Y-97750081D01*
X186452474Y-97801966D01*
X186454654Y-97808501D01*
X186454656Y-97808509D01*
X186459432Y-97822823D01*
X186462018Y-97893772D01*
X186425834Y-97954856D01*
X186362371Y-97986682D01*
X186339909Y-97988700D01*
X181913999Y-97988700D01*
X181911491Y-97988902D01*
X181911486Y-97988902D01*
X181738076Y-98002854D01*
X181738071Y-98002855D01*
X181733035Y-98003260D01*
X181728127Y-98004466D01*
X181728124Y-98004466D01*
X181574453Y-98042211D01*
X181497294Y-98061163D01*
X181492642Y-98063138D01*
X181492638Y-98063139D01*
X181385252Y-98108722D01*
X181273844Y-98156012D01*
X181244781Y-98174314D01*
X181160962Y-98227098D01*
X181092660Y-98246473D01*
X181024726Y-98225845D01*
X180978729Y-98171764D01*
X180969272Y-98101400D01*
X180983884Y-98058915D01*
X181027106Y-97981736D01*
X181028962Y-97976269D01*
X181028964Y-97976264D01*
X181090736Y-97794289D01*
X181090737Y-97794284D01*
X181092592Y-97788820D01*
X181121825Y-97587200D01*
X181123351Y-97528937D01*
X181106395Y-97344397D01*
X181105239Y-97331817D01*
X181105238Y-97331814D01*
X181104710Y-97326063D01*
X181085817Y-97259074D01*
X181050977Y-97135543D01*
X181050976Y-97135541D01*
X181049409Y-97129984D01*
X181044748Y-97120531D01*
X180961858Y-96952447D01*
X180959303Y-96947266D01*
X180948520Y-96932825D01*
X180840860Y-96788652D01*
X180840860Y-96788651D01*
X180837407Y-96784028D01*
X180687805Y-96645737D01*
X180639180Y-96615057D01*
X180520390Y-96540106D01*
X180520385Y-96540104D01*
X180515506Y-96537025D01*
X180326282Y-96461532D01*
X180126468Y-96421786D01*
X180120694Y-96421710D01*
X180120690Y-96421710D01*
X180017554Y-96420361D01*
X179922757Y-96419120D01*
X179917060Y-96420099D01*
X179917059Y-96420099D01*
X179727669Y-96452642D01*
X179721972Y-96453621D01*
X179599873Y-96498666D01*
X179561970Y-96512649D01*
X179518359Y-96520437D01*
X174054221Y-96520437D01*
X174007531Y-96511467D01*
X173874949Y-96458572D01*
X173869580Y-96456430D01*
X173682395Y-96419196D01*
X173675432Y-96417811D01*
X173675431Y-96417811D01*
X173669766Y-96416684D01*
X173663992Y-96416608D01*
X173663988Y-96416608D01*
X173578455Y-96415489D01*
X173510602Y-96394597D01*
X173510072Y-96393968D01*
X173484510Y-96410396D01*
X173466018Y-96413801D01*
X173466055Y-96414018D01*
X173282194Y-96445611D01*
X173265270Y-96448519D01*
X173074134Y-96519033D01*
X173069173Y-96521985D01*
X173069172Y-96521985D01*
X172971914Y-96579848D01*
X172899049Y-96623198D01*
X172745878Y-96757525D01*
X172742311Y-96762050D01*
X172742306Y-96762055D01*
X172709764Y-96803335D01*
X172619751Y-96917516D01*
X172617062Y-96922627D01*
X172617060Y-96922630D01*
X172594876Y-96964795D01*
X172524892Y-97097813D01*
X172464478Y-97292378D01*
X172440532Y-97494694D01*
X172453857Y-97697986D01*
X172504005Y-97895445D01*
X172589298Y-98080459D01*
X172706879Y-98246832D01*
X172852810Y-98388992D01*
X172857606Y-98392197D01*
X172857609Y-98392199D01*
X172960595Y-98461012D01*
X173022203Y-98502177D01*
X173027506Y-98504455D01*
X173027509Y-98504457D01*
X173151028Y-98557525D01*
X173209387Y-98582598D01*
X173282217Y-98599078D01*
X173402455Y-98626285D01*
X173402460Y-98626286D01*
X173408092Y-98627560D01*
X173413863Y-98627787D01*
X173413865Y-98627787D01*
X173476870Y-98630262D01*
X173611663Y-98635558D01*
X173813283Y-98606325D01*
X173818747Y-98604470D01*
X173818752Y-98604469D01*
X173996522Y-98544124D01*
X174037023Y-98537437D01*
X179523177Y-98537437D01*
X179572914Y-98547669D01*
X179666089Y-98587700D01*
X179724779Y-98600980D01*
X179859157Y-98631387D01*
X179859162Y-98631388D01*
X179864794Y-98632662D01*
X179870565Y-98632889D01*
X179870567Y-98632889D01*
X179932727Y-98635331D01*
X180068365Y-98640660D01*
X180269985Y-98611427D01*
X180275449Y-98609572D01*
X180275454Y-98609571D01*
X180457429Y-98547799D01*
X180457434Y-98547797D01*
X180462901Y-98545941D01*
X180535561Y-98505249D01*
X180604766Y-98489416D01*
X180671549Y-98513512D01*
X180714702Y-98569889D01*
X180720525Y-98640646D01*
X180706024Y-98678564D01*
X180612704Y-98838904D01*
X180612701Y-98838911D01*
X180610159Y-98843278D01*
X180608346Y-98848001D01*
X180529043Y-99054595D01*
X180523167Y-99069902D01*
X180522133Y-99074852D01*
X180522132Y-99074855D01*
X180474802Y-99301414D01*
X180473526Y-99307520D01*
X180462514Y-99550017D01*
X180463095Y-99555037D01*
X180463095Y-99555041D01*
X180470331Y-99617573D01*
X180490415Y-99791156D01*
X180491791Y-99796020D01*
X180491792Y-99796023D01*
X180508486Y-99855017D01*
X180556510Y-100024732D01*
X180558644Y-100029308D01*
X180558646Y-100029314D01*
X180656962Y-100240154D01*
X180659099Y-100244736D01*
X180795544Y-100445507D01*
X180962332Y-100621881D01*
X180966358Y-100624959D01*
X180966359Y-100624960D01*
X181151154Y-100766247D01*
X181151158Y-100766250D01*
X181155174Y-100769320D01*
X181159632Y-100771710D01*
X181159633Y-100771711D01*
X181201689Y-100794261D01*
X181369109Y-100884031D01*
X181598631Y-100963062D01*
X181697978Y-100980222D01*
X181833926Y-101003704D01*
X181833932Y-101003705D01*
X181837836Y-101004379D01*
X181841797Y-101004559D01*
X181841798Y-101004559D01*
X181865506Y-101005636D01*
X181865525Y-101005636D01*
X181866925Y-101005700D01*
X182225140Y-101005700D01*
X182293261Y-101025702D01*
X182339754Y-101079358D01*
X182351140Y-101131700D01*
X182351140Y-101723850D01*
X182331138Y-101791971D01*
X182314235Y-101812945D01*
X182246361Y-101880819D01*
X182157528Y-102027501D01*
X182155257Y-102034748D01*
X182155256Y-102034750D01*
X182146845Y-102061591D01*
X182106247Y-102191138D01*
X182099500Y-102264565D01*
X182099501Y-102927834D01*
X182099764Y-102930692D01*
X182099764Y-102930701D01*
X182102332Y-102958645D01*
X182106247Y-103001262D01*
X182108246Y-103007642D01*
X182109559Y-103014196D01*
X182108297Y-103014449D01*
X182109458Y-103078376D01*
X182072165Y-103138790D01*
X182008130Y-103169450D01*
X181987937Y-103171079D01*
X181762757Y-103171079D01*
X181751574Y-103170552D01*
X181744081Y-103168877D01*
X181736155Y-103169126D01*
X181736154Y-103169126D01*
X181676004Y-103171017D01*
X181672045Y-103171079D01*
X181644134Y-103171079D01*
X181640200Y-103171576D01*
X181640199Y-103171576D01*
X181640134Y-103171584D01*
X181628297Y-103172517D01*
X181596480Y-103173517D01*
X181592019Y-103173657D01*
X181584100Y-103173906D01*
X181566444Y-103179035D01*
X181564648Y-103179557D01*
X181545296Y-103183565D01*
X181538225Y-103184459D01*
X181525193Y-103186105D01*
X181517824Y-103189022D01*
X181517822Y-103189023D01*
X181484087Y-103202379D01*
X181472859Y-103206224D01*
X181430397Y-103218561D01*
X181423575Y-103222595D01*
X181423569Y-103222598D01*
X181412958Y-103228873D01*
X181395208Y-103237569D01*
X181383746Y-103242107D01*
X181383741Y-103242110D01*
X181376373Y-103245027D01*
X181369958Y-103249688D01*
X181340615Y-103271006D01*
X181330697Y-103277522D01*
X181318087Y-103284980D01*
X181292627Y-103300037D01*
X181278303Y-103314361D01*
X181263271Y-103327200D01*
X181246883Y-103339107D01*
X181228395Y-103361455D01*
X181218702Y-103373172D01*
X181210712Y-103381952D01*
X179566747Y-105025917D01*
X179558461Y-105033457D01*
X179551982Y-105037569D01*
X179546557Y-105043346D01*
X179505357Y-105087220D01*
X179502602Y-105090062D01*
X179482865Y-105109799D01*
X179480385Y-105112996D01*
X179472682Y-105122016D01*
X179442414Y-105154248D01*
X179438595Y-105161194D01*
X179438593Y-105161197D01*
X179432652Y-105172003D01*
X179421801Y-105188522D01*
X179409386Y-105204528D01*
X179406241Y-105211797D01*
X179406238Y-105211801D01*
X179391826Y-105245106D01*
X179386609Y-105255756D01*
X179365305Y-105294509D01*
X179363334Y-105302184D01*
X179363334Y-105302185D01*
X179360267Y-105314131D01*
X179353863Y-105332835D01*
X179345819Y-105351424D01*
X179344580Y-105359247D01*
X179344577Y-105359257D01*
X179338901Y-105395093D01*
X179336495Y-105406713D01*
X179325500Y-105449539D01*
X179325500Y-105469793D01*
X179323949Y-105489503D01*
X179320780Y-105509512D01*
X179321526Y-105517404D01*
X179324941Y-105553530D01*
X179325500Y-105565388D01*
X179325500Y-109543134D01*
X179324973Y-109554317D01*
X179323298Y-109561810D01*
X179323547Y-109569736D01*
X179323547Y-109569737D01*
X179325438Y-109629887D01*
X179325500Y-109633846D01*
X179325500Y-109661757D01*
X179325997Y-109665691D01*
X179325997Y-109665692D01*
X179326005Y-109665757D01*
X179326938Y-109677594D01*
X179328327Y-109721790D01*
X179331161Y-109731544D01*
X179333978Y-109741240D01*
X179337987Y-109760601D01*
X179340526Y-109780698D01*
X179343444Y-109788068D01*
X179343445Y-109788072D01*
X179346585Y-109796002D01*
X179353067Y-109866702D01*
X179320296Y-109929683D01*
X179258678Y-109964949D01*
X179229435Y-109968389D01*
X172591884Y-109968389D01*
X172523763Y-109948387D01*
X172502789Y-109931484D01*
X170462784Y-107891479D01*
X170428758Y-107829167D01*
X170425879Y-107802384D01*
X170425879Y-104137500D01*
X170445881Y-104069379D01*
X170499537Y-104022886D01*
X170551879Y-104011500D01*
X172115593Y-104011500D01*
X172126776Y-104012027D01*
X172134269Y-104013702D01*
X172142195Y-104013453D01*
X172142196Y-104013453D01*
X172202346Y-104011562D01*
X172206305Y-104011500D01*
X172234216Y-104011500D01*
X172238151Y-104011003D01*
X172238216Y-104010995D01*
X172250053Y-104010062D01*
X172282311Y-104009048D01*
X172286330Y-104008922D01*
X172294249Y-104008673D01*
X172313703Y-104003021D01*
X172333060Y-103999013D01*
X172345290Y-103997468D01*
X172345291Y-103997468D01*
X172353157Y-103996474D01*
X172360528Y-103993555D01*
X172360530Y-103993555D01*
X172394272Y-103980196D01*
X172405502Y-103976351D01*
X172440343Y-103966229D01*
X172440344Y-103966229D01*
X172447953Y-103964018D01*
X172454772Y-103959985D01*
X172454777Y-103959983D01*
X172465388Y-103953707D01*
X172483136Y-103945012D01*
X172501977Y-103937552D01*
X172537747Y-103911564D01*
X172547667Y-103905048D01*
X172578895Y-103886580D01*
X172578898Y-103886578D01*
X172585722Y-103882542D01*
X172600043Y-103868221D01*
X172615077Y-103855380D01*
X172631467Y-103843472D01*
X172659658Y-103809395D01*
X172667648Y-103800616D01*
X173146379Y-103321885D01*
X173208691Y-103287859D01*
X173235474Y-103284980D01*
X173291367Y-103284980D01*
X173297819Y-103283608D01*
X173297824Y-103283608D01*
X173409518Y-103259866D01*
X173478168Y-103245274D01*
X173484199Y-103242589D01*
X173646602Y-103170283D01*
X173646604Y-103170282D01*
X173652632Y-103167598D01*
X173666267Y-103157692D01*
X173710447Y-103125593D01*
X173807133Y-103055346D01*
X173813365Y-103048425D01*
X173930501Y-102918332D01*
X173930502Y-102918331D01*
X173934920Y-102913424D01*
X173996167Y-102807342D01*
X174027103Y-102753759D01*
X174027104Y-102753758D01*
X174030407Y-102748036D01*
X174089422Y-102566408D01*
X174090417Y-102556946D01*
X174108694Y-102383045D01*
X174109384Y-102376480D01*
X174106077Y-102345013D01*
X174090112Y-102193115D01*
X174090112Y-102193113D01*
X174089422Y-102186552D01*
X174030407Y-102004924D01*
X174009314Y-101968389D01*
X173980507Y-101918495D01*
X173934920Y-101839536D01*
X173910978Y-101812945D01*
X173811555Y-101702525D01*
X173811554Y-101702524D01*
X173807133Y-101697614D01*
X173693483Y-101615042D01*
X173657974Y-101589243D01*
X173657973Y-101589242D01*
X173652632Y-101585362D01*
X173646604Y-101582678D01*
X173646602Y-101582677D01*
X173484199Y-101510371D01*
X173484198Y-101510371D01*
X173478168Y-101507686D01*
X173384768Y-101487833D01*
X173297824Y-101469352D01*
X173297819Y-101469352D01*
X173291367Y-101467980D01*
X173100393Y-101467980D01*
X173093941Y-101469352D01*
X173093936Y-101469352D01*
X173006992Y-101487833D01*
X172913592Y-101507686D01*
X172907562Y-101510371D01*
X172907561Y-101510371D01*
X172745158Y-101582677D01*
X172745156Y-101582678D01*
X172739128Y-101585362D01*
X172733787Y-101589242D01*
X172733786Y-101589243D01*
X172698277Y-101615042D01*
X172584627Y-101697614D01*
X172580206Y-101702524D01*
X172580205Y-101702525D01*
X172480783Y-101812945D01*
X172456840Y-101839536D01*
X172411253Y-101918495D01*
X172382447Y-101968389D01*
X172361353Y-102004924D01*
X172302338Y-102186552D01*
X172301648Y-102193113D01*
X172301648Y-102193115D01*
X172284973Y-102351772D01*
X172257960Y-102417429D01*
X172248758Y-102427697D01*
X171968860Y-102707595D01*
X171906548Y-102741621D01*
X171879765Y-102744500D01*
X170212168Y-102744500D01*
X170200985Y-102743973D01*
X170193492Y-102742298D01*
X170185566Y-102742547D01*
X170185565Y-102742547D01*
X170125402Y-102744438D01*
X170121444Y-102744500D01*
X170093544Y-102744500D01*
X170089554Y-102745004D01*
X170077720Y-102745936D01*
X170033511Y-102747326D01*
X170025895Y-102749539D01*
X170025893Y-102749539D01*
X170014052Y-102752979D01*
X169994693Y-102756988D01*
X169993383Y-102757154D01*
X169974603Y-102759526D01*
X169967237Y-102762442D01*
X169967231Y-102762444D01*
X169933498Y-102775800D01*
X169922268Y-102779645D01*
X169887417Y-102789770D01*
X169879807Y-102791981D01*
X169872984Y-102796016D01*
X169862366Y-102802295D01*
X169844613Y-102810992D01*
X169836968Y-102814019D01*
X169825783Y-102818448D01*
X169819368Y-102823109D01*
X169790012Y-102844437D01*
X169780095Y-102850951D01*
X169742038Y-102873458D01*
X169736433Y-102879062D01*
X169727715Y-102887780D01*
X169712681Y-102900621D01*
X169702930Y-102907706D01*
X169696293Y-102912528D01*
X169684878Y-102926327D01*
X169668112Y-102946593D01*
X169660122Y-102955374D01*
X169400121Y-103215374D01*
X169391842Y-103222908D01*
X169385361Y-103227021D01*
X169360637Y-103253350D01*
X169338735Y-103276673D01*
X169335980Y-103279515D01*
X169316244Y-103299251D01*
X169313764Y-103302448D01*
X169306061Y-103311468D01*
X169275793Y-103343700D01*
X169271974Y-103350646D01*
X169271972Y-103350649D01*
X169266031Y-103361455D01*
X169255180Y-103377974D01*
X169242765Y-103393980D01*
X169239620Y-103401249D01*
X169239617Y-103401253D01*
X169225205Y-103434558D01*
X169219988Y-103445208D01*
X169198684Y-103483961D01*
X169196713Y-103491636D01*
X169196713Y-103491637D01*
X169193646Y-103503583D01*
X169187242Y-103522287D01*
X169179198Y-103540876D01*
X169177959Y-103548699D01*
X169177956Y-103548709D01*
X169172280Y-103584545D01*
X169169874Y-103596165D01*
X169164092Y-103618688D01*
X169158879Y-103638991D01*
X169158879Y-103659245D01*
X169157328Y-103678955D01*
X169154159Y-103698964D01*
X169154905Y-103706856D01*
X169158320Y-103742982D01*
X169158879Y-103754840D01*
X169158879Y-107257476D01*
X169138877Y-107325597D01*
X169085221Y-107372090D01*
X169014947Y-107382194D01*
X168950367Y-107352700D01*
X168943784Y-107346571D01*
X168892956Y-107295743D01*
X168858930Y-107233431D01*
X168856051Y-107206648D01*
X168856051Y-105328900D01*
X168856578Y-105317717D01*
X168858253Y-105310224D01*
X168856542Y-105255767D01*
X168856113Y-105242134D01*
X168856051Y-105238176D01*
X168856051Y-105210276D01*
X168855547Y-105206285D01*
X168854614Y-105194443D01*
X168853841Y-105169827D01*
X168853225Y-105150243D01*
X168850584Y-105141152D01*
X168847572Y-105130784D01*
X168843563Y-105111425D01*
X168842670Y-105104357D01*
X168841025Y-105091335D01*
X168838109Y-105083969D01*
X168838107Y-105083963D01*
X168824751Y-105050230D01*
X168820906Y-105039000D01*
X168810781Y-105004149D01*
X168810781Y-105004148D01*
X168808570Y-104996539D01*
X168798256Y-104979098D01*
X168789559Y-104961345D01*
X168785023Y-104949890D01*
X168782103Y-104942515D01*
X168756114Y-104906744D01*
X168749598Y-104896824D01*
X168727093Y-104858770D01*
X168721489Y-104853165D01*
X168712771Y-104844447D01*
X168699930Y-104829413D01*
X168692682Y-104819437D01*
X168692681Y-104819436D01*
X168688023Y-104813025D01*
X168653952Y-104784839D01*
X168645173Y-104776850D01*
X168356977Y-104488654D01*
X168322951Y-104426342D01*
X168326239Y-104360623D01*
X168371137Y-104222441D01*
X168373177Y-104216163D01*
X168377358Y-104176389D01*
X168392449Y-104032800D01*
X168393139Y-104026235D01*
X168391234Y-104008107D01*
X168373867Y-103842870D01*
X168373867Y-103842868D01*
X168373177Y-103836307D01*
X168314162Y-103654679D01*
X168309683Y-103646920D01*
X168243781Y-103532776D01*
X168226900Y-103469776D01*
X168226900Y-99472152D01*
X168227427Y-99460969D01*
X168229102Y-99453476D01*
X168226962Y-99385399D01*
X168226900Y-99381440D01*
X168226900Y-99353529D01*
X168226395Y-99349529D01*
X168225462Y-99337686D01*
X168224322Y-99301414D01*
X168224073Y-99293495D01*
X168218422Y-99274043D01*
X168214414Y-99254691D01*
X168212867Y-99242448D01*
X168211874Y-99234588D01*
X168208956Y-99227217D01*
X168195600Y-99193482D01*
X168191755Y-99182255D01*
X168186668Y-99164747D01*
X168179418Y-99139792D01*
X168175384Y-99132970D01*
X168175381Y-99132964D01*
X168169106Y-99122353D01*
X168160410Y-99104603D01*
X168155872Y-99093141D01*
X168155869Y-99093136D01*
X168152952Y-99085768D01*
X168126973Y-99050010D01*
X168120457Y-99040092D01*
X168101975Y-99008842D01*
X168097942Y-99002022D01*
X168083618Y-98987698D01*
X168070776Y-98972663D01*
X168058872Y-98956278D01*
X168024806Y-98928096D01*
X168016027Y-98920107D01*
X166774714Y-97678794D01*
X165474514Y-96378595D01*
X165440489Y-96316283D01*
X165445553Y-96245468D01*
X165488100Y-96188632D01*
X165554620Y-96163821D01*
X165563609Y-96163500D01*
X167101606Y-96163500D01*
X167169727Y-96183502D01*
G37*
%TD.AperFunction*%
%TD*%
M02*
