M48
; DRILL file {KiCad (6.0.0-0)} date 2022 March 27, Sunday 14:29:01
; FORMAT={-:-/ absolute / metric / decimal}
; #@! TF.CreationDate,2022-03-27T14:29:01+08:00
; #@! TF.GenerationSoftware,Kicad,Pcbnew,(6.0.0-0)
; #@! TF.FileFunction,Plated,1,2,PTH
FMAT,2
METRIC
; #@! TA.AperFunction,Plated,PTH,ViaDrill
T1C0.400
; #@! TA.AperFunction,Plated,PTH,ComponentDrill
T2C0.800
; #@! TA.AperFunction,Plated,PTH,ViaDrill
T3C0.900
; #@! TA.AperFunction,Plated,PTH,ViaDrill
T4C1.000
; #@! TA.AperFunction,Plated,PTH,ComponentDrill
T5C1.000
; #@! TA.AperFunction,Plated,PTH,ComponentDrill
T6C2.700
; #@! TA.AperFunction,Plated,PTH,ViaDrill
T7C3.000
%
G90
G05
T1
X129.007Y-101.549
X129.812Y-101.557
X130.624Y-101.557
X131.412Y-101.557
X140.106Y-119.583
X151.536Y-107.493
X151.901Y-108.568
X155.423Y-108.001
X155.464Y-104.915
X155.693Y-110.829
X155.702Y-115.214
X156.845Y-109.195
X157.566Y-107.442
X157.607Y-106.223
X158.151Y-100.0
X158.293Y-119.837
X159.106Y-103.429
X159.106Y-104.927
X159.12Y-97.875
X160.376Y-121.056
X160.782Y-106.223
X160.994Y-97.874
X161.781Y-100.563
X162.027Y-102.057
X162.259Y-95.4
X163.377Y-96.825
X164.086Y-95.636
X164.875Y-100.0
X165.875Y-108.6
X165.885Y-109.99
X166.323Y-99.314
X167.085Y-96.774
X167.48Y-104.026
X167.498Y-105.55
X168.863Y-95.504
X171.285Y-100.526
X173.196Y-102.376
X183.565Y-113.863
X185.42Y-116.84
X187.274Y-121.056
X191.491Y-107.493
X192.303Y-107.493
X192.72Y-97.5
X192.837Y-116.84
X193.202Y-96.535
T2
X153.609Y-116.009
X153.609Y-119.509
X169.431Y-116.009
X169.431Y-119.509
T3
X181.975Y-109.472
T4
X138.166Y-99.767
X138.166Y-109.547
X139.666Y-99.767
X139.666Y-109.547
X141.166Y-99.767
X141.166Y-109.547
X143.505Y-97.582
X143.505Y-111.602
X149.862Y-111.584
X149.962Y-97.587
X161.036Y-103.429
X161.036Y-104.927
X173.553Y-97.524
X173.553Y-111.545
X179.911Y-111.526
X180.01Y-97.529
X181.975Y-99.497
X183.488Y-99.496
X183.488Y-109.496
X185.0Y-99.497
X185.0Y-109.497
T5
X165.03Y-124.2
X167.57Y-124.2
X170.11Y-124.2
X172.65Y-124.2
X175.19Y-124.2
X177.73Y-124.2
X180.27Y-124.2
X182.81Y-124.2
X185.35Y-124.2
X187.89Y-124.2
X190.43Y-124.2
T6
X161.497Y-112.562
X161.497Y-117.562
T7
X139.051Y-115.377
X183.875Y-119.8
T0
M30
