%TF.GenerationSoftware,KiCad,Pcbnew,(6.0.0-0)*%
%TF.CreationDate,2022-03-27T14:29:05+08:00*%
%TF.ProjectId,driver,64726976-6572-42e6-9b69-6361645f7063,rev?*%
%TF.SameCoordinates,Original*%
%TF.FileFunction,Soldermask,Bot*%
%TF.FilePolarity,Negative*%
%FSLAX46Y46*%
G04 Gerber Fmt 4.6, Leading zero omitted, Abs format (unit mm)*
G04 Created by KiCad (PCBNEW (6.0.0-0)) date 2022-03-27 14:29:05*
%MOMM*%
%LPD*%
G01*
G04 APERTURE LIST*
G04 Aperture macros list*
%AMRoundRect*
0 Rectangle with rounded corners*
0 $1 Rounding radius*
0 $2 $3 $4 $5 $6 $7 $8 $9 X,Y pos of 4 corners*
0 Add a 4 corners polygon primitive as box body*
4,1,4,$2,$3,$4,$5,$6,$7,$8,$9,$2,$3,0*
0 Add four circle primitives for the rounded corners*
1,1,$1+$1,$2,$3*
1,1,$1+$1,$4,$5*
1,1,$1+$1,$6,$7*
1,1,$1+$1,$8,$9*
0 Add four rect primitives between the rounded corners*
20,1,$1+$1,$2,$3,$4,$5,0*
20,1,$1+$1,$4,$5,$6,$7,0*
20,1,$1+$1,$6,$7,$8,$9,0*
20,1,$1+$1,$8,$9,$2,$3,0*%
G04 Aperture macros list end*
%ADD10R,1.700000X1.700000*%
%ADD11O,1.700000X1.700000*%
%ADD12R,1.600000X1.600000*%
%ADD13C,1.600000*%
%ADD14R,3.800000X3.800000*%
%ADD15C,4.000000*%
%ADD16RoundRect,0.200000X-0.200000X-0.275000X0.200000X-0.275000X0.200000X0.275000X-0.200000X0.275000X0*%
%ADD17RoundRect,0.200000X0.200000X0.275000X-0.200000X0.275000X-0.200000X-0.275000X0.200000X-0.275000X0*%
%ADD18RoundRect,0.225000X-0.225000X-0.250000X0.225000X-0.250000X0.225000X0.250000X-0.225000X0.250000X0*%
%ADD19R,1.350000X0.660000*%
%ADD20R,5.250000X10.300000*%
%ADD21R,5.250000X6.230000*%
%ADD22RoundRect,0.101600X1.499870X-0.798830X1.499870X0.798830X-1.499870X0.798830X-1.499870X-0.798830X0*%
%ADD23RoundRect,0.101600X2.857500X-2.413000X2.857500X2.413000X-2.857500X2.413000X-2.857500X-2.413000X0*%
%ADD24R,0.450000X0.850000*%
%ADD25RoundRect,0.225000X-0.250000X0.225000X-0.250000X-0.225000X0.250000X-0.225000X0.250000X0.225000X0*%
%ADD26RoundRect,0.101600X-1.499870X0.798830X-1.499870X-0.798830X1.499870X-0.798830X1.499870X0.798830X0*%
%ADD27RoundRect,0.101600X-2.857500X2.413000X-2.857500X-2.413000X2.857500X-2.413000X2.857500X2.413000X0*%
%ADD28RoundRect,0.225000X0.225000X0.250000X-0.225000X0.250000X-0.225000X-0.250000X0.225000X-0.250000X0*%
G04 APERTURE END LIST*
D10*
%TO.C,J2*%
X165030200Y-124200000D03*
D11*
X167570200Y-124200000D03*
X170110200Y-124200000D03*
X172650200Y-124200000D03*
X175190200Y-124200000D03*
X177730200Y-124200000D03*
X180270200Y-124200000D03*
X182810200Y-124200000D03*
X185350200Y-124200000D03*
X187890200Y-124200000D03*
X190430200Y-124200000D03*
%TD*%
D12*
%TO.C,M2CP1*%
X153609418Y-119508651D03*
D13*
X153609418Y-116008651D03*
%TD*%
D12*
%TO.C,M1CP1*%
X169431000Y-119508651D03*
D13*
X169431000Y-116008651D03*
%TD*%
D14*
%TO.C,J1*%
X161497400Y-112562000D03*
D15*
X161497400Y-117562000D03*
%TD*%
D16*
%TO.C,M2R6*%
X153790800Y-101867235D03*
X155440800Y-101867235D03*
%TD*%
D17*
%TO.C,M2R5*%
X155440800Y-100343235D03*
X153790800Y-100343235D03*
%TD*%
D18*
%TO.C,M2C8*%
X157420400Y-104915235D03*
X158970400Y-104915235D03*
%TD*%
D19*
%TO.C,M2U1*%
X151550800Y-97526400D03*
X151550800Y-98526400D03*
X151550800Y-99526400D03*
X151550800Y-100526400D03*
X151550800Y-101526400D03*
X151550800Y-102526400D03*
X151550800Y-103526400D03*
X151550800Y-104526400D03*
X151550800Y-105526400D03*
X151550800Y-106526400D03*
X151550800Y-107526400D03*
X151550800Y-108526400D03*
X151550800Y-109526400D03*
X151550800Y-110526400D03*
X151550800Y-111526400D03*
X133300800Y-111526400D03*
X133300800Y-110526400D03*
X133300800Y-109526400D03*
X133300800Y-108526400D03*
X133300800Y-107526400D03*
X133300800Y-106526400D03*
X133300800Y-105526400D03*
X133300800Y-104526400D03*
X133300800Y-103526400D03*
X133300800Y-102526400D03*
X133300800Y-101526400D03*
X133300800Y-100526400D03*
X133300800Y-99526400D03*
X133300800Y-98526400D03*
X133300800Y-97526400D03*
D20*
X145475800Y-104526400D03*
D21*
X139375800Y-108691400D03*
X139375800Y-100361400D03*
%TD*%
D17*
%TO.C,M2R81*%
X155440800Y-104915235D03*
X153790800Y-104915235D03*
%TD*%
%TO.C,M2R71*%
X155440800Y-103391235D03*
X153790800Y-103391235D03*
%TD*%
D16*
%TO.C,M1R71*%
X167521400Y-105550235D03*
X169171400Y-105550235D03*
%TD*%
%TO.C,M1R81*%
X167521400Y-104026235D03*
X169171400Y-104026235D03*
%TD*%
%TO.C,M1R4*%
X167521400Y-110122235D03*
X169171400Y-110122235D03*
%TD*%
D17*
%TO.C,M1R72*%
X165624400Y-105550235D03*
X163974400Y-105550235D03*
%TD*%
D16*
%TO.C,M2R72*%
X157370400Y-103391235D03*
X159020400Y-103391235D03*
%TD*%
D22*
%TO.C,M2Q1*%
X139160535Y-119875380D03*
X139160535Y-115318620D03*
D23*
X146056635Y-117597000D03*
%TD*%
D24*
%TO.C,U1*%
X162035400Y-98950000D03*
X161385400Y-98950000D03*
X160735400Y-98950000D03*
X160735400Y-96850000D03*
X161385400Y-96850000D03*
X162035400Y-96850000D03*
%TD*%
D19*
%TO.C,M1U1*%
X171445200Y-111526400D03*
X171445200Y-110526400D03*
X171445200Y-109526400D03*
X171445200Y-108526400D03*
X171445200Y-107526400D03*
X171445200Y-106526400D03*
X171445200Y-105526400D03*
X171445200Y-104526400D03*
X171445200Y-103526400D03*
X171445200Y-102526400D03*
X171445200Y-101526400D03*
X171445200Y-100526400D03*
X171445200Y-99526400D03*
X171445200Y-98526400D03*
X171445200Y-97526400D03*
X189695200Y-97526400D03*
X189695200Y-98526400D03*
X189695200Y-99526400D03*
X189695200Y-100526400D03*
X189695200Y-101526400D03*
X189695200Y-102526400D03*
X189695200Y-103526400D03*
X189695200Y-104526400D03*
X189695200Y-105526400D03*
X189695200Y-106526400D03*
X189695200Y-107526400D03*
X189695200Y-108526400D03*
X189695200Y-109526400D03*
X189695200Y-110526400D03*
X189695200Y-111526400D03*
D20*
X177520200Y-104526400D03*
D21*
X183620200Y-100361400D03*
X183620200Y-108691400D03*
%TD*%
D17*
%TO.C,M2R4*%
X155440800Y-98819235D03*
X153790800Y-98819235D03*
%TD*%
%TO.C,M1R6*%
X169171400Y-107074235D03*
X167521400Y-107074235D03*
%TD*%
D25*
%TO.C,M1C3*%
X191844982Y-103741000D03*
X191844982Y-105291000D03*
%TD*%
D18*
%TO.C,MUC1*%
X160610400Y-95360000D03*
X162160400Y-95360000D03*
%TD*%
D16*
%TO.C,M1R10*%
X167521400Y-99454235D03*
X169171400Y-99454235D03*
%TD*%
%TO.C,M1R9*%
X167521400Y-100978235D03*
X169171400Y-100978235D03*
%TD*%
%TO.C,M1R5*%
X167521400Y-108598235D03*
X169171400Y-108598235D03*
%TD*%
D26*
%TO.C,M1Q1*%
X183779847Y-115318620D03*
X183779847Y-119875380D03*
D27*
X176883747Y-117597000D03*
%TD*%
D17*
%TO.C,M1R82*%
X169171400Y-102502235D03*
X167521400Y-102502235D03*
%TD*%
D28*
%TO.C,M1C8*%
X165574400Y-104026235D03*
X164024400Y-104026235D03*
%TD*%
D17*
%TO.C,M2R10*%
X155440800Y-109487235D03*
X153790800Y-109487235D03*
%TD*%
%TO.C,M2R9*%
X155440800Y-107963235D03*
X153790800Y-107963235D03*
%TD*%
D16*
%TO.C,M2R82*%
X153790800Y-106439235D03*
X155440800Y-106439235D03*
%TD*%
D25*
%TO.C,M2C3*%
X131095400Y-103741000D03*
X131095400Y-105291000D03*
%TD*%
M02*
