%TF.GenerationSoftware,KiCad,Pcbnew,(6.0.0-0)*%
%TF.CreationDate,2022-03-22T21:17:40+08:00*%
%TF.ProjectId,layer4,6c617965-7234-42e6-9b69-6361645f7063,rev?*%
%TF.SameCoordinates,Original*%
%TF.FileFunction,Paste,Top*%
%TF.FilePolarity,Positive*%
%FSLAX46Y46*%
G04 Gerber Fmt 4.6, Leading zero omitted, Abs format (unit mm)*
G04 Created by KiCad (PCBNEW (6.0.0-0)) date 2022-03-22 21:17:40*
%MOMM*%
%LPD*%
G01*
G04 APERTURE LIST*
G04 Aperture macros list*
%AMRoundRect*
0 Rectangle with rounded corners*
0 $1 Rounding radius*
0 $2 $3 $4 $5 $6 $7 $8 $9 X,Y pos of 4 corners*
0 Add a 4 corners polygon primitive as box body*
4,1,4,$2,$3,$4,$5,$6,$7,$8,$9,$2,$3,0*
0 Add four circle primitives for the rounded corners*
1,1,$1+$1,$2,$3*
1,1,$1+$1,$4,$5*
1,1,$1+$1,$6,$7*
1,1,$1+$1,$8,$9*
0 Add four rect primitives between the rounded corners*
20,1,$1+$1,$2,$3,$4,$5,0*
20,1,$1+$1,$4,$5,$6,$7,0*
20,1,$1+$1,$6,$7,$8,$9,0*
20,1,$1+$1,$8,$9,$2,$3,0*%
%AMRotRect*
0 Rectangle, with rotation*
0 The origin of the aperture is its center*
0 $1 length*
0 $2 width*
0 $3 Rotation angle, in degrees counterclockwise*
0 Add horizontal line*
21,1,$1,$2,0,0,$3*%
G04 Aperture macros list end*
%ADD10R,1.099820X0.998220*%
%ADD11RotRect,1.099820X0.998220X255.000000*%
%ADD12RotRect,1.651000X0.998220X195.000000*%
%ADD13RotRect,1.099820X0.998220X345.000000*%
%ADD14R,0.998220X1.651000*%
%ADD15RoundRect,0.150000X0.150000X0.625000X-0.150000X0.625000X-0.150000X-0.625000X0.150000X-0.625000X0*%
%ADD16RoundRect,0.250000X0.350000X0.650000X-0.350000X0.650000X-0.350000X-0.650000X0.350000X-0.650000X0*%
%ADD17RotRect,1.099820X0.998220X315.000000*%
%ADD18RotRect,1.651000X0.998220X165.000000*%
%ADD19RotRect,1.651000X0.998220X45.000000*%
%ADD20R,0.998220X1.099820*%
%ADD21RotRect,1.099820X0.998220X30.000000*%
%ADD22RotRect,1.099820X0.998220X135.000000*%
%ADD23R,1.651000X0.998220*%
%ADD24RotRect,1.099820X0.998220X300.000000*%
%ADD25RoundRect,0.200000X0.800000X-0.200000X0.800000X0.200000X-0.800000X0.200000X-0.800000X-0.200000X0*%
%ADD26R,0.998220X0.998220*%
%ADD27RotRect,1.651000X0.998220X345.000000*%
%ADD28RotRect,1.651000X0.998220X150.000000*%
%ADD29RotRect,1.099820X0.998220X330.000000*%
%ADD30RotRect,1.651000X0.998220X75.000000*%
%ADD31RotRect,1.099820X0.998220X210.000000*%
%ADD32RotRect,1.651000X0.998220X285.000000*%
%ADD33RotRect,1.099820X0.998220X75.000000*%
%ADD34RotRect,1.099820X0.998220X225.000000*%
%ADD35RoundRect,0.150000X-0.150000X-0.625000X0.150000X-0.625000X0.150000X0.625000X-0.150000X0.625000X0*%
%ADD36RoundRect,0.250000X-0.350000X-0.650000X0.350000X-0.650000X0.350000X0.650000X-0.350000X0.650000X0*%
%ADD37RotRect,1.099820X0.998220X240.000000*%
%ADD38RotRect,1.651000X0.998220X315.000000*%
%ADD39RotRect,1.651000X0.998220X30.000000*%
%ADD40RotRect,1.099820X0.998220X285.000000*%
%ADD41RoundRect,0.109200X0.670800X-0.030800X0.670800X0.030800X-0.670800X0.030800X-0.670800X-0.030800X0*%
%ADD42RoundRect,0.109200X-0.030800X-0.670800X0.030800X-0.670800X0.030800X0.670800X-0.030800X0.670800X0*%
%ADD43RotRect,1.651000X0.998220X210.000000*%
%ADD44RotRect,1.651000X0.998220X105.000000*%
%ADD45RotRect,1.651000X0.998220X240.000000*%
%ADD46RotRect,1.099820X0.998220X120.000000*%
%ADD47RotRect,1.651000X0.998220X255.000000*%
%ADD48RotRect,1.651000X0.998220X15.000000*%
%ADD49RotRect,1.099820X0.998220X15.000000*%
%ADD50RotRect,1.099820X0.998220X45.000000*%
%ADD51RotRect,1.651000X0.998220X300.000000*%
%ADD52RotRect,1.651000X0.998220X330.000000*%
%ADD53RotRect,1.651000X0.998220X60.000000*%
%ADD54R,2.397760X1.699260*%
%ADD55RotRect,1.651000X0.998220X120.000000*%
%ADD56RotRect,1.099820X0.998220X150.000000*%
%ADD57RotRect,1.099820X0.998220X195.000000*%
%ADD58RotRect,1.099820X0.998220X165.000000*%
%ADD59RotRect,1.651000X0.998220X135.000000*%
%ADD60RotRect,1.099820X0.998220X105.000000*%
%ADD61RotRect,1.099820X0.998220X60.000000*%
%ADD62RoundRect,0.109200X-0.670800X0.030800X-0.670800X-0.030800X0.670800X-0.030800X0.670800X0.030800X0*%
%ADD63RoundRect,0.109200X0.030800X0.670800X-0.030800X0.670800X-0.030800X-0.670800X0.030800X-0.670800X0*%
%ADD64RotRect,1.651000X0.998220X225.000000*%
G04 APERTURE END LIST*
D10*
%TO.C,U1C5*%
X149953980Y-87884000D03*
X148257260Y-87884000D03*
%TD*%
D11*
%TO.C,C18*%
X157353752Y-108941272D03*
X156914608Y-110580178D03*
%TD*%
D10*
%TO.C,C13*%
X126578360Y-133858000D03*
X124881640Y-133858000D03*
%TD*%
D12*
%TO.C,D20*%
X165187734Y-92427351D03*
X164360724Y-89340909D03*
X159385124Y-90674117D03*
X160212134Y-93760559D03*
%TD*%
D13*
%TO.C,C24*%
X133325272Y-69722248D03*
X134964178Y-70161392D03*
%TD*%
D14*
%TO.C,D1*%
X127327660Y-60924440D03*
X124132340Y-60924440D03*
X124132340Y-66075560D03*
X127327660Y-66075560D03*
%TD*%
D15*
%TO.C,L4TRJ1*%
X128476000Y-110943000D03*
X127476000Y-110943000D03*
X126476000Y-110943000D03*
X125476000Y-110943000D03*
X124476000Y-110943000D03*
X123476000Y-110943000D03*
X122476000Y-110943000D03*
D16*
X121176000Y-113468000D03*
X129776000Y-113468000D03*
%TD*%
D17*
%TO.C,C22*%
X148119575Y-77756663D03*
X149319337Y-78956425D03*
%TD*%
D18*
%TO.C,D18*%
X164360724Y-113351091D03*
X165187734Y-110264649D03*
X160212134Y-108931441D03*
X159385124Y-112017883D03*
%TD*%
D19*
%TO.C,D10*%
X96017925Y-128798643D03*
X98277357Y-131058075D03*
X101919749Y-127415683D03*
X99660317Y-125156251D03*
%TD*%
D10*
%TO.C,U1C6*%
X149953980Y-84328000D03*
X148257260Y-84328000D03*
%TD*%
D20*
%TO.C,U0C1*%
X129540000Y-73573640D03*
X129540000Y-75270360D03*
%TD*%
D21*
%TO.C,C3*%
X108739299Y-73613962D03*
X110208701Y-72765602D03*
%TD*%
D22*
%TO.C,C10*%
X103340425Y-124935337D03*
X102140663Y-123735575D03*
%TD*%
D23*
%TO.C,D7*%
X85308440Y-99748340D03*
X85308440Y-102943660D03*
X90459560Y-102943660D03*
X90459560Y-99748340D03*
%TD*%
D24*
%TO.C,C21*%
X153462038Y-84355299D03*
X154310398Y-85824701D03*
%TD*%
D25*
%TO.C,U0SW2*%
X104140000Y-103700000D03*
X104140000Y-99500000D03*
%TD*%
D26*
%TO.C,U1D1*%
X133743700Y-74168000D03*
X135496300Y-74168000D03*
%TD*%
D27*
%TO.C,D6*%
X87099276Y-89340909D03*
X86272266Y-92427351D03*
X91247866Y-93760559D03*
X92074876Y-90674117D03*
%TD*%
D28*
%TO.C,D17*%
X159937267Y-122940394D03*
X161534927Y-120173166D03*
X157073927Y-117597606D03*
X155476267Y-120364834D03*
%TD*%
D10*
%TO.C,U0C5*%
X100751640Y-84582000D03*
X102448360Y-84582000D03*
%TD*%
D29*
%TO.C,C23*%
X141251299Y-72765602D03*
X142720701Y-73613962D03*
%TD*%
D14*
%TO.C,D13*%
X124132340Y-141767560D03*
X127327660Y-141767560D03*
X127327660Y-136616440D03*
X124132340Y-136616440D03*
%TD*%
D30*
%TO.C,D12*%
X113724909Y-139976724D03*
X116811351Y-140803734D03*
X118144559Y-135828134D03*
X115058117Y-135001124D03*
%TD*%
D31*
%TO.C,C15*%
X142720701Y-129078038D03*
X141251299Y-129926398D03*
%TD*%
D32*
%TO.C,D2*%
X116811351Y-61888266D03*
X113724909Y-62715276D03*
X115058117Y-67690876D03*
X118144559Y-66863866D03*
%TD*%
D33*
%TO.C,C6*%
X94106248Y-93750728D03*
X94545392Y-92111822D03*
%TD*%
D20*
%TO.C,U1C4*%
X121920000Y-77297280D03*
X121920000Y-78994000D03*
%TD*%
D34*
%TO.C,C16*%
X149319337Y-123735575D03*
X148119575Y-124935337D03*
%TD*%
D35*
%TO.C,U0J1*%
X114340000Y-121952000D03*
X115340000Y-121952000D03*
X116340000Y-121952000D03*
X117340000Y-121952000D03*
X118340000Y-121952000D03*
X119340000Y-121952000D03*
D36*
X120640000Y-125827000D03*
X113040000Y-125827000D03*
%TD*%
D37*
%TO.C,C17*%
X154310398Y-116867299D03*
X153462038Y-118336701D03*
%TD*%
D38*
%TO.C,D4*%
X98277357Y-71633925D03*
X96017925Y-73893357D03*
X99660317Y-77535749D03*
X101919749Y-75276317D03*
%TD*%
D39*
%TO.C,D9*%
X89925073Y-120173166D03*
X91522733Y-122940394D03*
X95983733Y-120364834D03*
X94386073Y-117597606D03*
%TD*%
D40*
%TO.C,C20*%
X156914608Y-92111822D03*
X157353752Y-93750728D03*
%TD*%
D10*
%TO.C,U0C6*%
X100751640Y-88138000D03*
X102448360Y-88138000D03*
%TD*%
D41*
%TO.C,U1*%
X138800000Y-89110000D03*
X138800000Y-88610000D03*
X138800000Y-88110000D03*
X138800000Y-87610000D03*
X138800000Y-87110000D03*
X138800000Y-86610000D03*
X138800000Y-86110000D03*
X138800000Y-85610000D03*
X138800000Y-85110000D03*
X138800000Y-84610000D03*
X138800000Y-84110000D03*
X138800000Y-83610000D03*
D42*
X137370000Y-82180000D03*
X136870000Y-82180000D03*
X136370000Y-82180000D03*
X135870000Y-82180000D03*
X135370000Y-82180000D03*
X134870000Y-82180000D03*
X134370000Y-82180000D03*
X133870000Y-82180000D03*
X133370000Y-82180000D03*
X132870000Y-82180000D03*
X132370000Y-82180000D03*
X131870000Y-82180000D03*
D41*
X130440000Y-83610000D03*
X130440000Y-84110000D03*
X130440000Y-84610000D03*
X130440000Y-85110000D03*
X130440000Y-85610000D03*
X130440000Y-86110000D03*
X130440000Y-86610000D03*
X130440000Y-87110000D03*
X130440000Y-87610000D03*
X130440000Y-88110000D03*
X130440000Y-88610000D03*
X130440000Y-89110000D03*
D42*
X131870000Y-90540000D03*
X132370000Y-90540000D03*
X132870000Y-90540000D03*
X133370000Y-90540000D03*
X133870000Y-90540000D03*
X134370000Y-90540000D03*
X134870000Y-90540000D03*
X135370000Y-90540000D03*
X135870000Y-90540000D03*
X136370000Y-90540000D03*
X136870000Y-90540000D03*
X137370000Y-90540000D03*
%TD*%
D43*
%TO.C,D21*%
X161534927Y-82518834D03*
X159937267Y-79751606D03*
X155476267Y-82327166D03*
X157073927Y-85094394D03*
%TD*%
D10*
%TO.C,IMUR2*%
X104983280Y-149098000D03*
X106680000Y-149098000D03*
%TD*%
D44*
%TO.C,D14*%
X134648649Y-140803734D03*
X137735091Y-139976724D03*
X136401883Y-135001124D03*
X133315441Y-135828134D03*
%TD*%
D45*
%TO.C,D23*%
X147324394Y-67138733D03*
X144557166Y-65541073D03*
X141981606Y-70002073D03*
X144748834Y-71599733D03*
%TD*%
D46*
%TO.C,C9*%
X97997962Y-118336701D03*
X97149602Y-116867299D03*
%TD*%
D20*
%TO.C,U1R2*%
X152146000Y-100751640D03*
X152146000Y-102448360D03*
%TD*%
D35*
%TO.C,U1J1*%
X132120000Y-121952000D03*
X133120000Y-121952000D03*
X134120000Y-121952000D03*
X135120000Y-121952000D03*
X136120000Y-121952000D03*
X137120000Y-121952000D03*
D36*
X130820000Y-125827000D03*
X138420000Y-125827000D03*
%TD*%
D23*
%TO.C,D19*%
X166151560Y-102943660D03*
X166151560Y-99748340D03*
X161000440Y-99748340D03*
X161000440Y-102943660D03*
%TD*%
D25*
%TO.C,U1SW2*%
X147320000Y-103700000D03*
X147320000Y-99500000D03*
%TD*%
D10*
%TO.C,U1R44*%
X137246360Y-94996000D03*
X135549640Y-94996000D03*
%TD*%
D47*
%TO.C,D24*%
X137735091Y-62715276D03*
X134648649Y-61888266D03*
X133315441Y-66863866D03*
X136401883Y-67690876D03*
%TD*%
D48*
%TO.C,D8*%
X86272266Y-110264649D03*
X87099276Y-113351091D03*
X92074876Y-112017883D03*
X91247866Y-108931441D03*
%TD*%
D49*
%TO.C,C2*%
X116495822Y-70161392D03*
X118134728Y-69722248D03*
%TD*%
D50*
%TO.C,C4*%
X102140663Y-78956425D03*
X103340425Y-77756663D03*
%TD*%
D51*
%TO.C,D3*%
X106902834Y-65541073D03*
X104135606Y-67138733D03*
X106711166Y-71599733D03*
X109478394Y-70002073D03*
%TD*%
D52*
%TO.C,D5*%
X91522733Y-79751606D03*
X89925073Y-82518834D03*
X94386073Y-85094394D03*
X95983733Y-82327166D03*
%TD*%
D10*
%TO.C,C1*%
X124881640Y-68834000D03*
X126578360Y-68834000D03*
%TD*%
D53*
%TO.C,D11*%
X104135606Y-135553267D03*
X106902834Y-137150927D03*
X109478394Y-132689927D03*
X106711166Y-131092267D03*
%TD*%
D54*
%TO.C,U0Y1*%
X106680000Y-88209120D03*
X106680000Y-84510880D03*
%TD*%
D55*
%TO.C,D15*%
X144557166Y-137150927D03*
X147324394Y-135553267D03*
X144748834Y-131092267D03*
X141981606Y-132689927D03*
%TD*%
D26*
%TO.C,U0D1*%
X115963700Y-96774000D03*
X117716300Y-96774000D03*
%TD*%
D56*
%TO.C,C11*%
X110208701Y-129926398D03*
X108739299Y-129078038D03*
%TD*%
D20*
%TO.C,U0C3*%
X124460000Y-73573640D03*
X124460000Y-75270360D03*
%TD*%
%TO.C,U0R2*%
X108966000Y-100751640D03*
X108966000Y-102448360D03*
%TD*%
%TO.C,C19*%
X158242000Y-100497640D03*
X158242000Y-102194360D03*
%TD*%
%TO.C,U1C3*%
X124460000Y-77297280D03*
X124460000Y-78994000D03*
%TD*%
D57*
%TO.C,C14*%
X134964178Y-132530608D03*
X133325272Y-132969752D03*
%TD*%
D10*
%TO.C,U1R19*%
X133771640Y-76454000D03*
X135468360Y-76454000D03*
%TD*%
D20*
%TO.C,U0C2*%
X127000000Y-73573640D03*
X127000000Y-75270360D03*
%TD*%
D58*
%TO.C,C12*%
X118134728Y-132969752D03*
X116495822Y-132530608D03*
%TD*%
D10*
%TO.C,U0R19*%
X115991640Y-94519420D03*
X117688360Y-94519420D03*
%TD*%
D59*
%TO.C,D16*%
X153182643Y-131058075D03*
X155442075Y-128798643D03*
X151799683Y-125156251D03*
X149540251Y-127415683D03*
%TD*%
D20*
%TO.C,U1C1*%
X129540000Y-77297280D03*
X129540000Y-78994000D03*
%TD*%
D10*
%TO.C,U0R44*%
X114213640Y-78232000D03*
X115910360Y-78232000D03*
%TD*%
D20*
%TO.C,U0C4*%
X121920000Y-73573640D03*
X121920000Y-75270360D03*
%TD*%
%TO.C,U0R1*%
X99568000Y-102448360D03*
X99568000Y-100751640D03*
%TD*%
D10*
%TO.C,IMUR3*%
X104983280Y-145508000D03*
X106680000Y-145508000D03*
%TD*%
D60*
%TO.C,C8*%
X94545392Y-110580178D03*
X94106248Y-108941272D03*
%TD*%
D61*
%TO.C,C5*%
X97149602Y-85824701D03*
X97997962Y-84355299D03*
%TD*%
D20*
%TO.C,U1R1*%
X142748000Y-102218360D03*
X142748000Y-100521640D03*
%TD*%
D62*
%TO.C,U0*%
X112660000Y-83610000D03*
X112660000Y-84110000D03*
X112660000Y-84610000D03*
X112660000Y-85110000D03*
X112660000Y-85610000D03*
X112660000Y-86110000D03*
X112660000Y-86610000D03*
X112660000Y-87110000D03*
X112660000Y-87610000D03*
X112660000Y-88110000D03*
X112660000Y-88610000D03*
X112660000Y-89110000D03*
D63*
X114090000Y-90540000D03*
X114590000Y-90540000D03*
X115090000Y-90540000D03*
X115590000Y-90540000D03*
X116090000Y-90540000D03*
X116590000Y-90540000D03*
X117090000Y-90540000D03*
X117590000Y-90540000D03*
X118090000Y-90540000D03*
X118590000Y-90540000D03*
X119090000Y-90540000D03*
X119590000Y-90540000D03*
D62*
X121020000Y-89110000D03*
X121020000Y-88610000D03*
X121020000Y-88110000D03*
X121020000Y-87610000D03*
X121020000Y-87110000D03*
X121020000Y-86610000D03*
X121020000Y-86110000D03*
X121020000Y-85610000D03*
X121020000Y-85110000D03*
X121020000Y-84610000D03*
X121020000Y-84110000D03*
X121020000Y-83610000D03*
D63*
X119590000Y-82180000D03*
X119090000Y-82180000D03*
X118590000Y-82180000D03*
X118090000Y-82180000D03*
X117590000Y-82180000D03*
X117090000Y-82180000D03*
X116590000Y-82180000D03*
X116090000Y-82180000D03*
X115590000Y-82180000D03*
X115090000Y-82180000D03*
X114590000Y-82180000D03*
X114090000Y-82180000D03*
%TD*%
D20*
%TO.C,U1C2*%
X127000000Y-77297280D03*
X127000000Y-78994000D03*
%TD*%
D64*
%TO.C,D22*%
X155442075Y-73893357D03*
X153182643Y-71633925D03*
X149540251Y-75276317D03*
X151799683Y-77535749D03*
%TD*%
D20*
%TO.C,C7*%
X93218000Y-102194360D03*
X93218000Y-100497640D03*
%TD*%
D54*
%TO.C,U1Y1*%
X144787620Y-84256880D03*
X144787620Y-87955120D03*
%TD*%
M02*
