%FSLAX45Y45*%
G04 Gerber Fmt 4.5, Leading zero omitted, Abs format (unit mm)*
G04 Created by KiCad (PCBNEW (6.0.0-0)) date 2022-03-22 21:17:44*
%MOMM*%
%LPD*%
G01*
G04 APERTURE LIST*
%TA.AperFunction,Profile*%
%ADD10C,0.200000*%
%TD*%
%ADD11C,0.200000*%
G04 APERTURE END LIST*
D10*
X12883000Y-10134600D02*
G75*
G03*
X12883000Y-10134600I-310000J0D01*
G01*
X9205810Y-6438382D02*
G75*
G03*
X9501431Y-4912966I-875470J961017D01*
G01*
X16375546Y-17692640D02*
G75*
G03*
X16375546Y-17692640I-160000J0D01*
G01*
X15644569Y-4912966D02*
G75*
G03*
X15940190Y-6438382I1171091J-564399D01*
G01*
X9173189Y-17022498D02*
G75*
G03*
X9173189Y-17022498I-150000J0D01*
G01*
X16375546Y-2576561D02*
G75*
G03*
X16375546Y-2576561I-160000J0D01*
G01*
X15940190Y-13830818D02*
G75*
G03*
X15644569Y-15356234I875470J-961017D01*
G01*
X16665965Y-2793637D02*
X15644569Y-4912966D01*
X10402270Y-4478813D02*
G75*
G03*
X11779635Y-5197944I1171091J564399D01*
G01*
X9501431Y-4912966D02*
X8480035Y-2793637D01*
X15940190Y-13830818D02*
G75*
G03*
X15940190Y-6438382I-3367190J3696218D01*
G01*
X14743730Y-15790387D02*
G75*
G03*
X13366364Y-15071256I-1171091J-564399D01*
G01*
X9501431Y-15356234D02*
G75*
G03*
X9205810Y-13830818I-1171091J564399D01*
G01*
X10402270Y-15790387D02*
X9380874Y-17909716D01*
X15765126Y-17909716D02*
G75*
G03*
X16665965Y-17475563I450420J217077D01*
G01*
X14743730Y-4478813D02*
X15765126Y-2359484D01*
X11779635Y-15071256D02*
G75*
G03*
X13366364Y-15071256I793365J4936654D01*
G01*
X13366364Y-5197944D02*
G75*
G03*
X14743730Y-4478813I206275J1283531D01*
G01*
X8480035Y-17475563D02*
X9501431Y-15356234D01*
X9090454Y-17692640D02*
G75*
G03*
X9090454Y-17692640I-160000J0D01*
G01*
X9380874Y-2359484D02*
G75*
G03*
X8480035Y-2793637I-450420J-217077D01*
G01*
X15765126Y-17909716D02*
X14743730Y-15790387D01*
X8480035Y-17475563D02*
G75*
G03*
X9380874Y-17909716I450419J-217077D01*
G01*
X13366364Y-5197944D02*
G75*
G03*
X11779635Y-5197944I-793365J-4936654D01*
G01*
X10140249Y-15013096D02*
G75*
G03*
X10140249Y-15013096I-150000J0D01*
G01*
X15644569Y-15356234D02*
X16665965Y-17475563D01*
X9090454Y-2576561D02*
G75*
G03*
X9090454Y-2576561I-160000J0D01*
G01*
X16665965Y-2793637D02*
G75*
G03*
X15765126Y-2359484I-450420J217077D01*
G01*
X9205810Y-6438382D02*
G75*
G03*
X9205810Y-13830818I3367190J-3696218D01*
G01*
X9380874Y-2359484D02*
X10402270Y-4478813D01*
X11779635Y-15071256D02*
G75*
G03*
X10402270Y-15790387I-206275J-1283531D01*
G01*
D11*
X7820619Y-18513116D02*
X7820619Y-18313116D01*
X7868238Y-18313116D01*
X7896809Y-18322640D01*
X7915857Y-18341687D01*
X7925381Y-18360735D01*
X7934905Y-18398830D01*
X7934905Y-18427402D01*
X7925381Y-18465497D01*
X7915857Y-18484544D01*
X7896809Y-18503592D01*
X7868238Y-18513116D01*
X7820619Y-18513116D01*
X8020619Y-18513116D02*
X8020619Y-18379783D01*
X8020619Y-18417878D02*
X8030143Y-18398830D01*
X8039667Y-18389306D01*
X8058714Y-18379783D01*
X8077762Y-18379783D01*
X8144428Y-18513116D02*
X8144428Y-18379783D01*
X8144428Y-18313116D02*
X8134905Y-18322640D01*
X8144428Y-18332164D01*
X8153952Y-18322640D01*
X8144428Y-18313116D01*
X8144428Y-18332164D01*
X8268238Y-18513116D02*
X8249190Y-18503592D01*
X8239667Y-18484544D01*
X8239667Y-18313116D01*
X8373000Y-18513116D02*
X8353952Y-18503592D01*
X8344428Y-18484544D01*
X8344428Y-18313116D01*
X8601571Y-18513116D02*
X8601571Y-18313116D01*
X8668238Y-18455973D01*
X8734905Y-18313116D01*
X8734905Y-18513116D01*
X8915857Y-18513116D02*
X8915857Y-18408354D01*
X8906333Y-18389306D01*
X8887286Y-18379783D01*
X8849190Y-18379783D01*
X8830143Y-18389306D01*
X8915857Y-18503592D02*
X8896810Y-18513116D01*
X8849190Y-18513116D01*
X8830143Y-18503592D01*
X8820619Y-18484544D01*
X8820619Y-18465497D01*
X8830143Y-18446449D01*
X8849190Y-18436925D01*
X8896810Y-18436925D01*
X8915857Y-18427402D01*
X9011095Y-18379783D02*
X9011095Y-18579783D01*
X9011095Y-18389306D02*
X9030143Y-18379783D01*
X9068238Y-18379783D01*
X9087286Y-18389306D01*
X9096810Y-18398830D01*
X9106333Y-18417878D01*
X9106333Y-18475021D01*
X9096810Y-18494068D01*
X9087286Y-18503592D01*
X9068238Y-18513116D01*
X9030143Y-18513116D01*
X9011095Y-18503592D01*
X9192048Y-18494068D02*
X9201571Y-18503592D01*
X9192048Y-18513116D01*
X9182524Y-18503592D01*
X9192048Y-18494068D01*
X9192048Y-18513116D01*
X9192048Y-18389306D02*
X9201571Y-18398830D01*
X9192048Y-18408354D01*
X9182524Y-18398830D01*
X9192048Y-18389306D01*
X9192048Y-18408354D01*
M02*
