M48
; DRILL file {KiCad (6.0.0-0)} date 2022 March 22, Tuesday 21:17:44
; FORMAT={-:-/ absolute / metric / decimal}
; #@! TF.CreationDate,2022-03-22T21:17:44+08:00
; #@! TF.GenerationSoftware,Kicad,Pcbnew,(6.0.0-0)
; #@! TF.FileFunction,Plated,1,2,PTH
FMAT,2
METRIC
; #@! TA.AperFunction,Plated,PTH,ViaDrill
T1C0.400
; #@! TA.AperFunction,Plated,PTH,ComponentDrill
T2C1.016
%
G90
G05
T1
X82.296Y-108.966
X83.02Y-110.236
X90.424Y-102.87
X91.233Y-93.68
X92.021Y-111.956
X93.218Y-100.584
X94.129Y-109.025
X94.392Y-85.013
X94.523Y-92.195
X95.916Y-120.319
X97.193Y-116.942
X97.955Y-84.43
X99.314Y-120.904
X99.568Y-100.838
X99.687Y-77.459
X100.838Y-84.582
X100.838Y-88.138
X101.092Y-139.7
X101.843Y-127.389
X102.108Y-139.446
X102.202Y-123.797
X102.362Y-120.904
X102.8Y-95.0
X102.8Y-97.6
X103.279Y-77.818
X104.983Y-149.098
X104.988Y-145.508
X106.68Y-149.098
X106.757Y-71.532
X107.0Y-95.0
X107.0Y-97.6
X107.9Y-98.8
X108.7Y-95.0
X108.7Y-97.6
X108.814Y-129.121
X108.966Y-102.362
X109.397Y-132.684
X110.134Y-72.809
X110.744Y-84.328
X111.252Y-86.868
X111.76Y-90.932
X113.03Y-91.694
X113.5Y-95.0
X113.5Y-97.6
X113.538Y-100.838
X114.046Y-86.614
X114.3Y-78.232
X114.3Y-121.92
X114.554Y-80.518
X115.12Y-67.637
X115.316Y-111.252
X115.316Y-121.92
X116.078Y-96.774
X116.332Y-109.22
X116.332Y-121.92
X116.579Y-132.553
X116.586Y-75.946
X117.094Y-80.01
X118.051Y-69.745
X118.064Y-135.843
X118.11Y-80.264
X118.364Y-112.776
X119.126Y-92.202
X119.38Y-112.776
X119.634Y-80.01
X121.92Y-73.66
X121.92Y-77.216
X121.92Y-81.026
X122.428Y-85.852
X122.682Y-87.122
X123.19Y-84.074
X124.206Y-66.04
X124.46Y-73.66
X124.46Y-77.216
X124.714Y-86.106
X124.714Y-88.138
X124.968Y-133.858
X125.984Y-113.538
X126.492Y-68.834
X126.492Y-110.998
X127.0Y-73.66
X127.0Y-77.216
X127.254Y-136.652
X127.724Y-58.035
X128.524Y-110.744
X128.536Y-88.646
X129.54Y-73.66
X129.54Y-77.216
X130.302Y-144.526
X131.675Y-94.488
X131.888Y-93.088
X132.08Y-121.92
X132.08Y-143.764
X132.4Y-95.5
X132.645Y-92.238
X132.842Y-60.452
X133.096Y-78.74
X133.096Y-112.776
X133.35Y-110.211
X133.396Y-66.849
X133.409Y-132.947
X133.858Y-74.168
X133.892Y-111.05
X134.112Y-112.776
X134.881Y-70.139
X135.0Y-84.0
X135.117Y-106.096
X135.2Y-105.1
X136.144Y-121.92
X136.34Y-135.055
X136.906Y-69.85
X136.906Y-92.202
X136.906Y-94.996
X137.16Y-121.92
X137.3Y-80.8
X137.414Y-83.566
X137.414Y-86.868
X137.414Y-99.822
X138.938Y-82.042
X140.462Y-89.662
X140.716Y-87.122
X140.904Y-88.702
X141.224Y-83.566
X141.326Y-129.883
X141.478Y-85.852
X141.478Y-87.884
X141.986Y-84.328
X142.063Y-70.008
X142.646Y-73.571
X142.748Y-100.584
X144.703Y-131.16
X144.788Y-84.257
X144.788Y-87.955
X148.181Y-124.874
X149.258Y-78.895
X149.617Y-75.303
X149.868Y-84.328
X149.868Y-87.884
X150.622Y-98.552
X151.773Y-125.233
X151.8Y-106.1
X152.3Y-105.2
X153.416Y-98.552
X153.416Y-104.394
X153.505Y-118.262
X154.267Y-85.75
X155.544Y-82.373
X156.937Y-110.497
X157.068Y-117.679
X157.331Y-93.667
X158.242Y-102.108
X158.75Y-95.504
X159.439Y-90.736
X160.227Y-109.012
X160.782Y-97.536
X161.036Y-99.822
X163.068Y-104.394
X168.402Y-93.98
X168.402Y-96.266
X169.418Y-93.98
X169.418Y-96.266
T2
X79.248Y-97.536
X79.248Y-102.616
X79.248Y-107.696
X79.756Y-94.996
X79.756Y-100.076
X79.756Y-105.156
X92.267Y-165.886
X93.827Y-163.817
X94.47Y-161.308
X96.03Y-159.24
X96.673Y-156.731
X98.233Y-154.662
X104.14Y-109.042
X104.14Y-111.76
X104.14Y-114.478
X119.38Y-54.864
X119.38Y-147.32
X121.92Y-55.372
X121.92Y-147.828
X124.46Y-54.864
X124.46Y-147.32
X127.0Y-55.372
X127.0Y-147.828
X129.54Y-54.864
X129.54Y-147.32
X132.08Y-55.372
X132.08Y-147.828
X147.32Y-109.042
X147.32Y-111.76
X147.32Y-114.478
X171.704Y-97.536
X171.704Y-102.616
X171.704Y-107.696
X172.212Y-94.996
X172.212Y-100.076
X172.212Y-105.156
T0
M30
