%TF.GenerationSoftware,KiCad,Pcbnew,(6.0.0-0)*%
%TF.CreationDate,2022-05-20T11:27:59+08:00*%
%TF.ProjectId,driver,64726976-6572-42e6-9b69-6361645f7063,rev?*%
%TF.SameCoordinates,Original*%
%TF.FileFunction,Copper,L2,Bot*%
%TF.FilePolarity,Positive*%
%FSLAX46Y46*%
G04 Gerber Fmt 4.6, Leading zero omitted, Abs format (unit mm)*
G04 Created by KiCad (PCBNEW (6.0.0-0)) date 2022-05-20 11:27:59*
%MOMM*%
%LPD*%
G01*
G04 APERTURE LIST*
G04 Aperture macros list*
%AMRoundRect*
0 Rectangle with rounded corners*
0 $1 Rounding radius*
0 $2 $3 $4 $5 $6 $7 $8 $9 X,Y pos of 4 corners*
0 Add a 4 corners polygon primitive as box body*
4,1,4,$2,$3,$4,$5,$6,$7,$8,$9,$2,$3,0*
0 Add four circle primitives for the rounded corners*
1,1,$1+$1,$2,$3*
1,1,$1+$1,$4,$5*
1,1,$1+$1,$6,$7*
1,1,$1+$1,$8,$9*
0 Add four rect primitives between the rounded corners*
20,1,$1+$1,$2,$3,$4,$5,0*
20,1,$1+$1,$4,$5,$6,$7,0*
20,1,$1+$1,$6,$7,$8,$9,0*
20,1,$1+$1,$8,$9,$2,$3,0*%
G04 Aperture macros list end*
%ADD10C,0.100000*%
%ADD11C,0.150000*%
%ADD12C,0.300000*%
%ADD13C,0.400000*%
%TA.AperFunction,ComponentPad*%
%ADD14R,1.700000X1.700000*%
%TD*%
%TA.AperFunction,ComponentPad*%
%ADD15O,1.700000X1.700000*%
%TD*%
%TA.AperFunction,SMDPad,CuDef*%
%ADD16R,0.998220X0.998220*%
%TD*%
%TA.AperFunction,SMDPad,CuDef*%
%ADD17RoundRect,0.250000X2.500000X-0.250000X2.500000X0.250000X-2.500000X0.250000X-2.500000X-0.250000X0*%
%TD*%
%TA.AperFunction,SMDPad,CuDef*%
%ADD18RoundRect,0.250000X1.250000X-0.550000X1.250000X0.550000X-1.250000X0.550000X-1.250000X-0.550000X0*%
%TD*%
%TA.AperFunction,ComponentPad*%
%ADD19R,1.600000X1.600000*%
%TD*%
%TA.AperFunction,ComponentPad*%
%ADD20C,1.600000*%
%TD*%
%TA.AperFunction,SMDPad,CuDef*%
%ADD21RoundRect,0.250000X-2.500000X0.250000X-2.500000X-0.250000X2.500000X-0.250000X2.500000X0.250000X0*%
%TD*%
%TA.AperFunction,SMDPad,CuDef*%
%ADD22RoundRect,0.250000X-1.250000X0.550000X-1.250000X-0.550000X1.250000X-0.550000X1.250000X0.550000X0*%
%TD*%
%TA.AperFunction,SMDPad,CuDef*%
%ADD23RoundRect,0.200000X0.200000X0.275000X-0.200000X0.275000X-0.200000X-0.275000X0.200000X-0.275000X0*%
%TD*%
%TA.AperFunction,ComponentPad*%
%ADD24R,3.800000X3.800000*%
%TD*%
%TA.AperFunction,ComponentPad*%
%ADD25C,4.000000*%
%TD*%
%TA.AperFunction,ViaPad*%
%ADD26C,0.800000*%
%TD*%
%TA.AperFunction,ViaPad*%
%ADD27C,1.500000*%
%TD*%
%TA.AperFunction,ViaPad*%
%ADD28C,1.200000*%
%TD*%
%TA.AperFunction,ViaPad*%
%ADD29C,1.300000*%
%TD*%
%TA.AperFunction,ViaPad*%
%ADD30C,3.500000*%
%TD*%
%TA.AperFunction,Conductor*%
%ADD31C,0.250000*%
%TD*%
%TA.AperFunction,Conductor*%
%ADD32C,2.000000*%
%TD*%
%TA.AperFunction,Conductor*%
%ADD33C,1.000000*%
%TD*%
G04 APERTURE END LIST*
D10*
D11*
X177002200Y-166007200D02*
X177002200Y-198007200D01*
X285002200Y-198007200D01*
X285002200Y-166007200D01*
X177002200Y-166007200D01*
D10*
D11*
X10000000Y-10000000D02*
X10000000Y-200007200D01*
X287002200Y-200007200D01*
X287002200Y-10000000D01*
X10000000Y-10000000D01*
D10*
D11*
X12000000Y-12000000D02*
X12000000Y-198007200D01*
X285002200Y-198007200D01*
X285002200Y-12000000D01*
X12000000Y-12000000D01*
D10*
D11*
X60000000Y-12000000D02*
X60000000Y-10000000D01*
D10*
D11*
X110000000Y-12000000D02*
X110000000Y-10000000D01*
D10*
D11*
X160000000Y-12000000D02*
X160000000Y-10000000D01*
D10*
D11*
X210000000Y-12000000D02*
X210000000Y-10000000D01*
D10*
D11*
X260000000Y-12000000D02*
X260000000Y-10000000D01*
D10*
D11*
X36065476Y-11588095D02*
X35322619Y-11588095D01*
X35694047Y-11588095D02*
X35694047Y-10288095D01*
X35570238Y-10473809D01*
X35446428Y-10597619D01*
X35322619Y-10659523D01*
D10*
D11*
X85322619Y-10411904D02*
X85384523Y-10350000D01*
X85508333Y-10288095D01*
X85817857Y-10288095D01*
X85941666Y-10350000D01*
X86003571Y-10411904D01*
X86065476Y-10535714D01*
X86065476Y-10659523D01*
X86003571Y-10845238D01*
X85260714Y-11588095D01*
X86065476Y-11588095D01*
D10*
D11*
X135260714Y-10288095D02*
X136065476Y-10288095D01*
X135632142Y-10783333D01*
X135817857Y-10783333D01*
X135941666Y-10845238D01*
X136003571Y-10907142D01*
X136065476Y-11030952D01*
X136065476Y-11340476D01*
X136003571Y-11464285D01*
X135941666Y-11526190D01*
X135817857Y-11588095D01*
X135446428Y-11588095D01*
X135322619Y-11526190D01*
X135260714Y-11464285D01*
D10*
D11*
X185941666Y-10721428D02*
X185941666Y-11588095D01*
X185632142Y-10226190D02*
X185322619Y-11154761D01*
X186127380Y-11154761D01*
D10*
D11*
X236003571Y-10288095D02*
X235384523Y-10288095D01*
X235322619Y-10907142D01*
X235384523Y-10845238D01*
X235508333Y-10783333D01*
X235817857Y-10783333D01*
X235941666Y-10845238D01*
X236003571Y-10907142D01*
X236065476Y-11030952D01*
X236065476Y-11340476D01*
X236003571Y-11464285D01*
X235941666Y-11526190D01*
X235817857Y-11588095D01*
X235508333Y-11588095D01*
X235384523Y-11526190D01*
X235322619Y-11464285D01*
D10*
D11*
X285941666Y-10288095D02*
X285694047Y-10288095D01*
X285570238Y-10350000D01*
X285508333Y-10411904D01*
X285384523Y-10597619D01*
X285322619Y-10845238D01*
X285322619Y-11340476D01*
X285384523Y-11464285D01*
X285446428Y-11526190D01*
X285570238Y-11588095D01*
X285817857Y-11588095D01*
X285941666Y-11526190D01*
X286003571Y-11464285D01*
X286065476Y-11340476D01*
X286065476Y-11030952D01*
X286003571Y-10907142D01*
X285941666Y-10845238D01*
X285817857Y-10783333D01*
X285570238Y-10783333D01*
X285446428Y-10845238D01*
X285384523Y-10907142D01*
X285322619Y-11030952D01*
D10*
D11*
X60000000Y-198007200D02*
X60000000Y-200007200D01*
D10*
D11*
X110000000Y-198007200D02*
X110000000Y-200007200D01*
D10*
D11*
X160000000Y-198007200D02*
X160000000Y-200007200D01*
D10*
D11*
X210000000Y-198007200D02*
X210000000Y-200007200D01*
D10*
D11*
X260000000Y-198007200D02*
X260000000Y-200007200D01*
D10*
D11*
X36065476Y-199595295D02*
X35322619Y-199595295D01*
X35694047Y-199595295D02*
X35694047Y-198295295D01*
X35570238Y-198481009D01*
X35446428Y-198604819D01*
X35322619Y-198666723D01*
D10*
D11*
X85322619Y-198419104D02*
X85384523Y-198357200D01*
X85508333Y-198295295D01*
X85817857Y-198295295D01*
X85941666Y-198357200D01*
X86003571Y-198419104D01*
X86065476Y-198542914D01*
X86065476Y-198666723D01*
X86003571Y-198852438D01*
X85260714Y-199595295D01*
X86065476Y-199595295D01*
D10*
D11*
X135260714Y-198295295D02*
X136065476Y-198295295D01*
X135632142Y-198790533D01*
X135817857Y-198790533D01*
X135941666Y-198852438D01*
X136003571Y-198914342D01*
X136065476Y-199038152D01*
X136065476Y-199347676D01*
X136003571Y-199471485D01*
X135941666Y-199533390D01*
X135817857Y-199595295D01*
X135446428Y-199595295D01*
X135322619Y-199533390D01*
X135260714Y-199471485D01*
D10*
D11*
X185941666Y-198728628D02*
X185941666Y-199595295D01*
X185632142Y-198233390D02*
X185322619Y-199161961D01*
X186127380Y-199161961D01*
D10*
D11*
X236003571Y-198295295D02*
X235384523Y-198295295D01*
X235322619Y-198914342D01*
X235384523Y-198852438D01*
X235508333Y-198790533D01*
X235817857Y-198790533D01*
X235941666Y-198852438D01*
X236003571Y-198914342D01*
X236065476Y-199038152D01*
X236065476Y-199347676D01*
X236003571Y-199471485D01*
X235941666Y-199533390D01*
X235817857Y-199595295D01*
X235508333Y-199595295D01*
X235384523Y-199533390D01*
X235322619Y-199471485D01*
D10*
D11*
X285941666Y-198295295D02*
X285694047Y-198295295D01*
X285570238Y-198357200D01*
X285508333Y-198419104D01*
X285384523Y-198604819D01*
X285322619Y-198852438D01*
X285322619Y-199347676D01*
X285384523Y-199471485D01*
X285446428Y-199533390D01*
X285570238Y-199595295D01*
X285817857Y-199595295D01*
X285941666Y-199533390D01*
X286003571Y-199471485D01*
X286065476Y-199347676D01*
X286065476Y-199038152D01*
X286003571Y-198914342D01*
X285941666Y-198852438D01*
X285817857Y-198790533D01*
X285570238Y-198790533D01*
X285446428Y-198852438D01*
X285384523Y-198914342D01*
X285322619Y-199038152D01*
D10*
D11*
X10000000Y-60000000D02*
X12000000Y-60000000D01*
D10*
D11*
X10000000Y-110000000D02*
X12000000Y-110000000D01*
D10*
D11*
X10000000Y-160000000D02*
X12000000Y-160000000D01*
D10*
D11*
X10690476Y-35216666D02*
X11309523Y-35216666D01*
X10566666Y-35588095D02*
X11000000Y-34288095D01*
X11433333Y-35588095D01*
D10*
D11*
X11092857Y-84907142D02*
X11278571Y-84969047D01*
X11340476Y-85030952D01*
X11402380Y-85154761D01*
X11402380Y-85340476D01*
X11340476Y-85464285D01*
X11278571Y-85526190D01*
X11154761Y-85588095D01*
X10659523Y-85588095D01*
X10659523Y-84288095D01*
X11092857Y-84288095D01*
X11216666Y-84350000D01*
X11278571Y-84411904D01*
X11340476Y-84535714D01*
X11340476Y-84659523D01*
X11278571Y-84783333D01*
X11216666Y-84845238D01*
X11092857Y-84907142D01*
X10659523Y-84907142D01*
D10*
D11*
X11402380Y-135464285D02*
X11340476Y-135526190D01*
X11154761Y-135588095D01*
X11030952Y-135588095D01*
X10845238Y-135526190D01*
X10721428Y-135402380D01*
X10659523Y-135278571D01*
X10597619Y-135030952D01*
X10597619Y-134845238D01*
X10659523Y-134597619D01*
X10721428Y-134473809D01*
X10845238Y-134350000D01*
X11030952Y-134288095D01*
X11154761Y-134288095D01*
X11340476Y-134350000D01*
X11402380Y-134411904D01*
D10*
D11*
X10659523Y-185588095D02*
X10659523Y-184288095D01*
X10969047Y-184288095D01*
X11154761Y-184350000D01*
X11278571Y-184473809D01*
X11340476Y-184597619D01*
X11402380Y-184845238D01*
X11402380Y-185030952D01*
X11340476Y-185278571D01*
X11278571Y-185402380D01*
X11154761Y-185526190D01*
X10969047Y-185588095D01*
X10659523Y-185588095D01*
D10*
D11*
X287002200Y-60000000D02*
X285002200Y-60000000D01*
D10*
D11*
X287002200Y-110000000D02*
X285002200Y-110000000D01*
D10*
D11*
X287002200Y-160000000D02*
X285002200Y-160000000D01*
D10*
D11*
X285692676Y-35216666D02*
X286311723Y-35216666D01*
X285568866Y-35588095D02*
X286002200Y-34288095D01*
X286435533Y-35588095D01*
D10*
D11*
X286095057Y-84907142D02*
X286280771Y-84969047D01*
X286342676Y-85030952D01*
X286404580Y-85154761D01*
X286404580Y-85340476D01*
X286342676Y-85464285D01*
X286280771Y-85526190D01*
X286156961Y-85588095D01*
X285661723Y-85588095D01*
X285661723Y-84288095D01*
X286095057Y-84288095D01*
X286218866Y-84350000D01*
X286280771Y-84411904D01*
X286342676Y-84535714D01*
X286342676Y-84659523D01*
X286280771Y-84783333D01*
X286218866Y-84845238D01*
X286095057Y-84907142D01*
X285661723Y-84907142D01*
D10*
D11*
X286404580Y-135464285D02*
X286342676Y-135526190D01*
X286156961Y-135588095D01*
X286033152Y-135588095D01*
X285847438Y-135526190D01*
X285723628Y-135402380D01*
X285661723Y-135278571D01*
X285599819Y-135030952D01*
X285599819Y-134845238D01*
X285661723Y-134597619D01*
X285723628Y-134473809D01*
X285847438Y-134350000D01*
X286033152Y-134288095D01*
X286156961Y-134288095D01*
X286342676Y-134350000D01*
X286404580Y-134411904D01*
D10*
D11*
X285661723Y-185588095D02*
X285661723Y-184288095D01*
X285971247Y-184288095D01*
X286156961Y-184350000D01*
X286280771Y-184473809D01*
X286342676Y-184597619D01*
X286404580Y-184845238D01*
X286404580Y-185030952D01*
X286342676Y-185278571D01*
X286280771Y-185402380D01*
X286156961Y-185526190D01*
X285971247Y-185588095D01*
X285661723Y-185588095D01*
D10*
D11*
X200434342Y-193785771D02*
X200434342Y-192285771D01*
X200791485Y-192285771D01*
X201005771Y-192357200D01*
X201148628Y-192500057D01*
X201220057Y-192642914D01*
X201291485Y-192928628D01*
X201291485Y-193142914D01*
X201220057Y-193428628D01*
X201148628Y-193571485D01*
X201005771Y-193714342D01*
X200791485Y-193785771D01*
X200434342Y-193785771D01*
X202577200Y-193785771D02*
X202577200Y-193000057D01*
X202505771Y-192857200D01*
X202362914Y-192785771D01*
X202077200Y-192785771D01*
X201934342Y-192857200D01*
X202577200Y-193714342D02*
X202434342Y-193785771D01*
X202077200Y-193785771D01*
X201934342Y-193714342D01*
X201862914Y-193571485D01*
X201862914Y-193428628D01*
X201934342Y-193285771D01*
X202077200Y-193214342D01*
X202434342Y-193214342D01*
X202577200Y-193142914D01*
X203077200Y-192785771D02*
X203648628Y-192785771D01*
X203291485Y-192285771D02*
X203291485Y-193571485D01*
X203362914Y-193714342D01*
X203505771Y-193785771D01*
X203648628Y-193785771D01*
X204720057Y-193714342D02*
X204577200Y-193785771D01*
X204291485Y-193785771D01*
X204148628Y-193714342D01*
X204077200Y-193571485D01*
X204077200Y-193000057D01*
X204148628Y-192857200D01*
X204291485Y-192785771D01*
X204577200Y-192785771D01*
X204720057Y-192857200D01*
X204791485Y-193000057D01*
X204791485Y-193142914D01*
X204077200Y-193285771D01*
X205434342Y-193642914D02*
X205505771Y-193714342D01*
X205434342Y-193785771D01*
X205362914Y-193714342D01*
X205434342Y-193642914D01*
X205434342Y-193785771D01*
X205434342Y-192857200D02*
X205505771Y-192928628D01*
X205434342Y-193000057D01*
X205362914Y-192928628D01*
X205434342Y-192857200D01*
X205434342Y-193000057D01*
D10*
D11*
X177002200Y-194507200D02*
X285002200Y-194507200D01*
D10*
D11*
X178434342Y-196585771D02*
X178434342Y-195085771D01*
X179291485Y-196585771D02*
X178648628Y-195728628D01*
X179291485Y-195085771D02*
X178434342Y-195942914D01*
X179934342Y-196585771D02*
X179934342Y-195585771D01*
X179934342Y-195085771D02*
X179862914Y-195157200D01*
X179934342Y-195228628D01*
X180005771Y-195157200D01*
X179934342Y-195085771D01*
X179934342Y-195228628D01*
X181505771Y-196442914D02*
X181434342Y-196514342D01*
X181220057Y-196585771D01*
X181077200Y-196585771D01*
X180862914Y-196514342D01*
X180720057Y-196371485D01*
X180648628Y-196228628D01*
X180577200Y-195942914D01*
X180577200Y-195728628D01*
X180648628Y-195442914D01*
X180720057Y-195300057D01*
X180862914Y-195157200D01*
X181077200Y-195085771D01*
X181220057Y-195085771D01*
X181434342Y-195157200D01*
X181505771Y-195228628D01*
X182791485Y-196585771D02*
X182791485Y-195800057D01*
X182720057Y-195657200D01*
X182577200Y-195585771D01*
X182291485Y-195585771D01*
X182148628Y-195657200D01*
X182791485Y-196514342D02*
X182648628Y-196585771D01*
X182291485Y-196585771D01*
X182148628Y-196514342D01*
X182077200Y-196371485D01*
X182077200Y-196228628D01*
X182148628Y-196085771D01*
X182291485Y-196014342D01*
X182648628Y-196014342D01*
X182791485Y-195942914D01*
X184148628Y-196585771D02*
X184148628Y-195085771D01*
X184148628Y-196514342D02*
X184005771Y-196585771D01*
X183720057Y-196585771D01*
X183577200Y-196514342D01*
X183505771Y-196442914D01*
X183434342Y-196300057D01*
X183434342Y-195871485D01*
X183505771Y-195728628D01*
X183577200Y-195657200D01*
X183720057Y-195585771D01*
X184005771Y-195585771D01*
X184148628Y-195657200D01*
X186005771Y-195800057D02*
X186505771Y-195800057D01*
X186720057Y-196585771D02*
X186005771Y-196585771D01*
X186005771Y-195085771D01*
X186720057Y-195085771D01*
X187362914Y-196442914D02*
X187434342Y-196514342D01*
X187362914Y-196585771D01*
X187291485Y-196514342D01*
X187362914Y-196442914D01*
X187362914Y-196585771D01*
X188077200Y-196585771D02*
X188077200Y-195085771D01*
X188434342Y-195085771D01*
X188648628Y-195157200D01*
X188791485Y-195300057D01*
X188862914Y-195442914D01*
X188934342Y-195728628D01*
X188934342Y-195942914D01*
X188862914Y-196228628D01*
X188791485Y-196371485D01*
X188648628Y-196514342D01*
X188434342Y-196585771D01*
X188077200Y-196585771D01*
X189577200Y-196442914D02*
X189648628Y-196514342D01*
X189577200Y-196585771D01*
X189505771Y-196514342D01*
X189577200Y-196442914D01*
X189577200Y-196585771D01*
X190220057Y-196157200D02*
X190934342Y-196157200D01*
X190077200Y-196585771D02*
X190577200Y-195085771D01*
X191077200Y-196585771D01*
X191577200Y-196442914D02*
X191648628Y-196514342D01*
X191577200Y-196585771D01*
X191505771Y-196514342D01*
X191577200Y-196442914D01*
X191577200Y-196585771D01*
X194577200Y-196585771D02*
X194577200Y-195085771D01*
X194720057Y-196014342D02*
X195148628Y-196585771D01*
X195148628Y-195585771D02*
X194577200Y-196157200D01*
X195791485Y-196585771D02*
X195791485Y-195585771D01*
X195791485Y-195085771D02*
X195720057Y-195157200D01*
X195791485Y-195228628D01*
X195862914Y-195157200D01*
X195791485Y-195085771D01*
X195791485Y-195228628D01*
X197148628Y-196514342D02*
X197005771Y-196585771D01*
X196720057Y-196585771D01*
X196577200Y-196514342D01*
X196505771Y-196442914D01*
X196434342Y-196300057D01*
X196434342Y-195871485D01*
X196505771Y-195728628D01*
X196577200Y-195657200D01*
X196720057Y-195585771D01*
X197005771Y-195585771D01*
X197148628Y-195657200D01*
X198434342Y-196585771D02*
X198434342Y-195800057D01*
X198362914Y-195657200D01*
X198220057Y-195585771D01*
X197934342Y-195585771D01*
X197791485Y-195657200D01*
X198434342Y-196514342D02*
X198291485Y-196585771D01*
X197934342Y-196585771D01*
X197791485Y-196514342D01*
X197720057Y-196371485D01*
X197720057Y-196228628D01*
X197791485Y-196085771D01*
X197934342Y-196014342D01*
X198291485Y-196014342D01*
X198434342Y-195942914D01*
X199791485Y-196585771D02*
X199791485Y-195085771D01*
X199791485Y-196514342D02*
X199648628Y-196585771D01*
X199362914Y-196585771D01*
X199220057Y-196514342D01*
X199148628Y-196442914D01*
X199077200Y-196300057D01*
X199077200Y-195871485D01*
X199148628Y-195728628D01*
X199220057Y-195657200D01*
X199362914Y-195585771D01*
X199648628Y-195585771D01*
X199791485Y-195657200D01*
X202077200Y-197157200D02*
X202005771Y-197085771D01*
X201862914Y-196871485D01*
X201791485Y-196728628D01*
X201720057Y-196514342D01*
X201648628Y-196157200D01*
X201648628Y-195871485D01*
X201720057Y-195514342D01*
X201791485Y-195300057D01*
X201862914Y-195157200D01*
X202005771Y-194942914D01*
X202077200Y-194871485D01*
X203291485Y-195085771D02*
X203005771Y-195085771D01*
X202862914Y-195157200D01*
X202791485Y-195228628D01*
X202648628Y-195442914D01*
X202577200Y-195728628D01*
X202577200Y-196300057D01*
X202648628Y-196442914D01*
X202720057Y-196514342D01*
X202862914Y-196585771D01*
X203148628Y-196585771D01*
X203291485Y-196514342D01*
X203362914Y-196442914D01*
X203434342Y-196300057D01*
X203434342Y-195942914D01*
X203362914Y-195800057D01*
X203291485Y-195728628D01*
X203148628Y-195657200D01*
X202862914Y-195657200D01*
X202720057Y-195728628D01*
X202648628Y-195800057D01*
X202577200Y-195942914D01*
X204077200Y-196442914D02*
X204148628Y-196514342D01*
X204077200Y-196585771D01*
X204005771Y-196514342D01*
X204077200Y-196442914D01*
X204077200Y-196585771D01*
X205077200Y-195085771D02*
X205220057Y-195085771D01*
X205362914Y-195157200D01*
X205434342Y-195228628D01*
X205505771Y-195371485D01*
X205577200Y-195657200D01*
X205577200Y-196014342D01*
X205505771Y-196300057D01*
X205434342Y-196442914D01*
X205362914Y-196514342D01*
X205220057Y-196585771D01*
X205077200Y-196585771D01*
X204934342Y-196514342D01*
X204862914Y-196442914D01*
X204791485Y-196300057D01*
X204720057Y-196014342D01*
X204720057Y-195657200D01*
X204791485Y-195371485D01*
X204862914Y-195228628D01*
X204934342Y-195157200D01*
X205077200Y-195085771D01*
X206220057Y-196442914D02*
X206291485Y-196514342D01*
X206220057Y-196585771D01*
X206148628Y-196514342D01*
X206220057Y-196442914D01*
X206220057Y-196585771D01*
X207220057Y-195085771D02*
X207362914Y-195085771D01*
X207505771Y-195157200D01*
X207577200Y-195228628D01*
X207648628Y-195371485D01*
X207720057Y-195657200D01*
X207720057Y-196014342D01*
X207648628Y-196300057D01*
X207577200Y-196442914D01*
X207505771Y-196514342D01*
X207362914Y-196585771D01*
X207220057Y-196585771D01*
X207077200Y-196514342D01*
X207005771Y-196442914D01*
X206934342Y-196300057D01*
X206862914Y-196014342D01*
X206862914Y-195657200D01*
X206934342Y-195371485D01*
X207005771Y-195228628D01*
X207077200Y-195157200D01*
X207220057Y-195085771D01*
X208362914Y-196014342D02*
X209505771Y-196014342D01*
X210505771Y-195085771D02*
X210648628Y-195085771D01*
X210791485Y-195157200D01*
X210862914Y-195228628D01*
X210934342Y-195371485D01*
X211005771Y-195657200D01*
X211005771Y-196014342D01*
X210934342Y-196300057D01*
X210862914Y-196442914D01*
X210791485Y-196514342D01*
X210648628Y-196585771D01*
X210505771Y-196585771D01*
X210362914Y-196514342D01*
X210291485Y-196442914D01*
X210220057Y-196300057D01*
X210148628Y-196014342D01*
X210148628Y-195657200D01*
X210220057Y-195371485D01*
X210291485Y-195228628D01*
X210362914Y-195157200D01*
X210505771Y-195085771D01*
X211505771Y-197157200D02*
X211577200Y-197085771D01*
X211720057Y-196871485D01*
X211791485Y-196728628D01*
X211862914Y-196514342D01*
X211934342Y-196157200D01*
X211934342Y-195871485D01*
X211862914Y-195514342D01*
X211791485Y-195300057D01*
X211720057Y-195157200D01*
X211577200Y-194942914D01*
X211505771Y-194871485D01*
D10*
D11*
X177002200Y-191507200D02*
X285002200Y-191507200D01*
D10*
D12*
X264411485Y-193785771D02*
X263911485Y-193071485D01*
X263554342Y-193785771D02*
X263554342Y-192285771D01*
X264125771Y-192285771D01*
X264268628Y-192357200D01*
X264340057Y-192428628D01*
X264411485Y-192571485D01*
X264411485Y-192785771D01*
X264340057Y-192928628D01*
X264268628Y-193000057D01*
X264125771Y-193071485D01*
X263554342Y-193071485D01*
X265625771Y-193714342D02*
X265482914Y-193785771D01*
X265197200Y-193785771D01*
X265054342Y-193714342D01*
X264982914Y-193571485D01*
X264982914Y-193000057D01*
X265054342Y-192857200D01*
X265197200Y-192785771D01*
X265482914Y-192785771D01*
X265625771Y-192857200D01*
X265697200Y-193000057D01*
X265697200Y-193142914D01*
X264982914Y-193285771D01*
X266197200Y-192785771D02*
X266554342Y-193785771D01*
X266911485Y-192785771D01*
X267482914Y-193642914D02*
X267554342Y-193714342D01*
X267482914Y-193785771D01*
X267411485Y-193714342D01*
X267482914Y-193642914D01*
X267482914Y-193785771D01*
X267482914Y-192857200D02*
X267554342Y-192928628D01*
X267482914Y-193000057D01*
X267411485Y-192928628D01*
X267482914Y-192857200D01*
X267482914Y-193000057D01*
D10*
D11*
X178362914Y-193714342D02*
X178577200Y-193785771D01*
X178934342Y-193785771D01*
X179077200Y-193714342D01*
X179148628Y-193642914D01*
X179220057Y-193500057D01*
X179220057Y-193357200D01*
X179148628Y-193214342D01*
X179077200Y-193142914D01*
X178934342Y-193071485D01*
X178648628Y-193000057D01*
X178505771Y-192928628D01*
X178434342Y-192857200D01*
X178362914Y-192714342D01*
X178362914Y-192571485D01*
X178434342Y-192428628D01*
X178505771Y-192357200D01*
X178648628Y-192285771D01*
X179005771Y-192285771D01*
X179220057Y-192357200D01*
X179862914Y-193785771D02*
X179862914Y-192785771D01*
X179862914Y-192285771D02*
X179791485Y-192357200D01*
X179862914Y-192428628D01*
X179934342Y-192357200D01*
X179862914Y-192285771D01*
X179862914Y-192428628D01*
X180434342Y-192785771D02*
X181220057Y-192785771D01*
X180434342Y-193785771D01*
X181220057Y-193785771D01*
X182362914Y-193714342D02*
X182220057Y-193785771D01*
X181934342Y-193785771D01*
X181791485Y-193714342D01*
X181720057Y-193571485D01*
X181720057Y-193000057D01*
X181791485Y-192857200D01*
X181934342Y-192785771D01*
X182220057Y-192785771D01*
X182362914Y-192857200D01*
X182434342Y-193000057D01*
X182434342Y-193142914D01*
X181720057Y-193285771D01*
X183077200Y-193642914D02*
X183148628Y-193714342D01*
X183077200Y-193785771D01*
X183005771Y-193714342D01*
X183077200Y-193642914D01*
X183077200Y-193785771D01*
X183077200Y-192857200D02*
X183148628Y-192928628D01*
X183077200Y-193000057D01*
X183005771Y-192928628D01*
X183077200Y-192857200D01*
X183077200Y-193000057D01*
X184862914Y-193357200D02*
X185577200Y-193357200D01*
X184720057Y-193785771D02*
X185220057Y-192285771D01*
X185720057Y-193785771D01*
X186862914Y-192785771D02*
X186862914Y-193785771D01*
X186505771Y-192214342D02*
X186148628Y-193285771D01*
X187077200Y-193285771D01*
D10*
D11*
X263434342Y-196585771D02*
X263434342Y-195085771D01*
X264791485Y-196585771D02*
X264791485Y-195085771D01*
X264791485Y-196514342D02*
X264648628Y-196585771D01*
X264362914Y-196585771D01*
X264220057Y-196514342D01*
X264148628Y-196442914D01*
X264077200Y-196300057D01*
X264077200Y-195871485D01*
X264148628Y-195728628D01*
X264220057Y-195657200D01*
X264362914Y-195585771D01*
X264648628Y-195585771D01*
X264791485Y-195657200D01*
X265505771Y-196442914D02*
X265577200Y-196514342D01*
X265505771Y-196585771D01*
X265434342Y-196514342D01*
X265505771Y-196442914D01*
X265505771Y-196585771D01*
X265505771Y-195657200D02*
X265577200Y-195728628D01*
X265505771Y-195800057D01*
X265434342Y-195728628D01*
X265505771Y-195657200D01*
X265505771Y-195800057D01*
X268148628Y-196585771D02*
X267291485Y-196585771D01*
X267720057Y-196585771D02*
X267720057Y-195085771D01*
X267577200Y-195300057D01*
X267434342Y-195442914D01*
X267291485Y-195514342D01*
X269862914Y-195014342D02*
X268577200Y-196942914D01*
X271148628Y-196585771D02*
X270291485Y-196585771D01*
X270720057Y-196585771D02*
X270720057Y-195085771D01*
X270577200Y-195300057D01*
X270434342Y-195442914D01*
X270291485Y-195514342D01*
D10*
D11*
X177002200Y-187507200D02*
X285002200Y-187507200D01*
D10*
D13*
X178714580Y-188211961D02*
X179857438Y-188211961D01*
X179036009Y-190211961D02*
X179286009Y-188211961D01*
X180274104Y-190211961D02*
X180440771Y-188878628D01*
X180524104Y-188211961D02*
X180416961Y-188307200D01*
X180500295Y-188402438D01*
X180607438Y-188307200D01*
X180524104Y-188211961D01*
X180500295Y-188402438D01*
X181107438Y-188878628D02*
X181869342Y-188878628D01*
X181476485Y-188211961D02*
X181262200Y-189926247D01*
X181333628Y-190116723D01*
X181512200Y-190211961D01*
X181702676Y-190211961D01*
X182655057Y-190211961D02*
X182476485Y-190116723D01*
X182405057Y-189926247D01*
X182619342Y-188211961D01*
X184190771Y-190116723D02*
X183988390Y-190211961D01*
X183607438Y-190211961D01*
X183428866Y-190116723D01*
X183357438Y-189926247D01*
X183452676Y-189164342D01*
X183571723Y-188973866D01*
X183774104Y-188878628D01*
X184155057Y-188878628D01*
X184333628Y-188973866D01*
X184405057Y-189164342D01*
X184381247Y-189354819D01*
X183405057Y-189545295D01*
X185155057Y-190021485D02*
X185238390Y-190116723D01*
X185131247Y-190211961D01*
X185047914Y-190116723D01*
X185155057Y-190021485D01*
X185131247Y-190211961D01*
X185286009Y-188973866D02*
X185369342Y-189069104D01*
X185262200Y-189164342D01*
X185178866Y-189069104D01*
X185286009Y-188973866D01*
X185262200Y-189164342D01*
D10*
D11*
X178934342Y-185600057D02*
X178434342Y-185600057D01*
X178434342Y-186385771D02*
X178434342Y-184885771D01*
X179148628Y-184885771D01*
X179720057Y-186385771D02*
X179720057Y-185385771D01*
X179720057Y-184885771D02*
X179648628Y-184957200D01*
X179720057Y-185028628D01*
X179791485Y-184957200D01*
X179720057Y-184885771D01*
X179720057Y-185028628D01*
X180648628Y-186385771D02*
X180505771Y-186314342D01*
X180434342Y-186171485D01*
X180434342Y-184885771D01*
X181791485Y-186314342D02*
X181648628Y-186385771D01*
X181362914Y-186385771D01*
X181220057Y-186314342D01*
X181148628Y-186171485D01*
X181148628Y-185600057D01*
X181220057Y-185457200D01*
X181362914Y-185385771D01*
X181648628Y-185385771D01*
X181791485Y-185457200D01*
X181862914Y-185600057D01*
X181862914Y-185742914D01*
X181148628Y-185885771D01*
X182505771Y-186242914D02*
X182577200Y-186314342D01*
X182505771Y-186385771D01*
X182434342Y-186314342D01*
X182505771Y-186242914D01*
X182505771Y-186385771D01*
X182505771Y-185457200D02*
X182577200Y-185528628D01*
X182505771Y-185600057D01*
X182434342Y-185528628D01*
X182505771Y-185457200D01*
X182505771Y-185600057D01*
X185005771Y-186385771D02*
X185005771Y-184885771D01*
X185005771Y-186314342D02*
X184862914Y-186385771D01*
X184577200Y-186385771D01*
X184434342Y-186314342D01*
X184362914Y-186242914D01*
X184291485Y-186100057D01*
X184291485Y-185671485D01*
X184362914Y-185528628D01*
X184434342Y-185457200D01*
X184577200Y-185385771D01*
X184862914Y-185385771D01*
X185005771Y-185457200D01*
X185720057Y-186385771D02*
X185720057Y-185385771D01*
X185720057Y-185671485D02*
X185791485Y-185528628D01*
X185862914Y-185457200D01*
X186005771Y-185385771D01*
X186148628Y-185385771D01*
X186648628Y-186385771D02*
X186648628Y-185385771D01*
X186648628Y-184885771D02*
X186577200Y-184957200D01*
X186648628Y-185028628D01*
X186720057Y-184957200D01*
X186648628Y-184885771D01*
X186648628Y-185028628D01*
X187220057Y-185385771D02*
X187577200Y-186385771D01*
X187934342Y-185385771D01*
X189077200Y-186314342D02*
X188934342Y-186385771D01*
X188648628Y-186385771D01*
X188505771Y-186314342D01*
X188434342Y-186171485D01*
X188434342Y-185600057D01*
X188505771Y-185457200D01*
X188648628Y-185385771D01*
X188934342Y-185385771D01*
X189077200Y-185457200D01*
X189148628Y-185600057D01*
X189148628Y-185742914D01*
X188434342Y-185885771D01*
X189791485Y-186385771D02*
X189791485Y-185385771D01*
X189791485Y-185671485D02*
X189862914Y-185528628D01*
X189934342Y-185457200D01*
X190077200Y-185385771D01*
X190220057Y-185385771D01*
X190720057Y-186242914D02*
X190791485Y-186314342D01*
X190720057Y-186385771D01*
X190648628Y-186314342D01*
X190720057Y-186242914D01*
X190720057Y-186385771D01*
X191434342Y-186385771D02*
X191434342Y-184885771D01*
X191577200Y-185814342D02*
X192005771Y-186385771D01*
X192005771Y-185385771D02*
X191434342Y-185957200D01*
X192648628Y-186385771D02*
X192648628Y-185385771D01*
X192648628Y-184885771D02*
X192577200Y-184957200D01*
X192648628Y-185028628D01*
X192720057Y-184957200D01*
X192648628Y-184885771D01*
X192648628Y-185028628D01*
X194005771Y-186314342D02*
X193862914Y-186385771D01*
X193577200Y-186385771D01*
X193434342Y-186314342D01*
X193362914Y-186242914D01*
X193291485Y-186100057D01*
X193291485Y-185671485D01*
X193362914Y-185528628D01*
X193434342Y-185457200D01*
X193577200Y-185385771D01*
X193862914Y-185385771D01*
X194005771Y-185457200D01*
X195291485Y-186385771D02*
X195291485Y-185600057D01*
X195220057Y-185457200D01*
X195077200Y-185385771D01*
X194791485Y-185385771D01*
X194648628Y-185457200D01*
X195291485Y-186314342D02*
X195148628Y-186385771D01*
X194791485Y-186385771D01*
X194648628Y-186314342D01*
X194577200Y-186171485D01*
X194577200Y-186028628D01*
X194648628Y-185885771D01*
X194791485Y-185814342D01*
X195148628Y-185814342D01*
X195291485Y-185742914D01*
X196648628Y-186385771D02*
X196648628Y-184885771D01*
X196648628Y-186314342D02*
X196505771Y-186385771D01*
X196220057Y-186385771D01*
X196077200Y-186314342D01*
X196005771Y-186242914D01*
X195934342Y-186100057D01*
X195934342Y-185671485D01*
X196005771Y-185528628D01*
X196077200Y-185457200D01*
X196220057Y-185385771D01*
X196505771Y-185385771D01*
X196648628Y-185457200D01*
X197005771Y-186528628D02*
X198148628Y-186528628D01*
X198505771Y-185385771D02*
X198505771Y-186885771D01*
X198505771Y-185457200D02*
X198648628Y-185385771D01*
X198934342Y-185385771D01*
X199077200Y-185457200D01*
X199148628Y-185528628D01*
X199220057Y-185671485D01*
X199220057Y-186100057D01*
X199148628Y-186242914D01*
X199077200Y-186314342D01*
X198934342Y-186385771D01*
X198648628Y-186385771D01*
X198505771Y-186314342D01*
X200505771Y-186314342D02*
X200362914Y-186385771D01*
X200077200Y-186385771D01*
X199934342Y-186314342D01*
X199862914Y-186242914D01*
X199791485Y-186100057D01*
X199791485Y-185671485D01*
X199862914Y-185528628D01*
X199934342Y-185457200D01*
X200077200Y-185385771D01*
X200362914Y-185385771D01*
X200505771Y-185457200D01*
X201148628Y-186385771D02*
X201148628Y-184885771D01*
X201148628Y-185457200D02*
X201291485Y-185385771D01*
X201577200Y-185385771D01*
X201720057Y-185457200D01*
X201791485Y-185528628D01*
X201862914Y-185671485D01*
X201862914Y-186100057D01*
X201791485Y-186242914D01*
X201720057Y-186314342D01*
X201577200Y-186385771D01*
X201291485Y-186385771D01*
X201148628Y-186314342D01*
D10*
D11*
X177002200Y-181507200D02*
X285002200Y-181507200D01*
D10*
D11*
X178362914Y-183614342D02*
X178577200Y-183685771D01*
X178934342Y-183685771D01*
X179077200Y-183614342D01*
X179148628Y-183542914D01*
X179220057Y-183400057D01*
X179220057Y-183257200D01*
X179148628Y-183114342D01*
X179077200Y-183042914D01*
X178934342Y-182971485D01*
X178648628Y-182900057D01*
X178505771Y-182828628D01*
X178434342Y-182757200D01*
X178362914Y-182614342D01*
X178362914Y-182471485D01*
X178434342Y-182328628D01*
X178505771Y-182257200D01*
X178648628Y-182185771D01*
X179005771Y-182185771D01*
X179220057Y-182257200D01*
X179862914Y-183685771D02*
X179862914Y-182185771D01*
X180505771Y-183685771D02*
X180505771Y-182900057D01*
X180434342Y-182757200D01*
X180291485Y-182685771D01*
X180077200Y-182685771D01*
X179934342Y-182757200D01*
X179862914Y-182828628D01*
X181791485Y-183614342D02*
X181648628Y-183685771D01*
X181362914Y-183685771D01*
X181220057Y-183614342D01*
X181148628Y-183471485D01*
X181148628Y-182900057D01*
X181220057Y-182757200D01*
X181362914Y-182685771D01*
X181648628Y-182685771D01*
X181791485Y-182757200D01*
X181862914Y-182900057D01*
X181862914Y-183042914D01*
X181148628Y-183185771D01*
X183077200Y-183614342D02*
X182934342Y-183685771D01*
X182648628Y-183685771D01*
X182505771Y-183614342D01*
X182434342Y-183471485D01*
X182434342Y-182900057D01*
X182505771Y-182757200D01*
X182648628Y-182685771D01*
X182934342Y-182685771D01*
X183077200Y-182757200D01*
X183148628Y-182900057D01*
X183148628Y-183042914D01*
X182434342Y-183185771D01*
X183577200Y-182685771D02*
X184148628Y-182685771D01*
X183791485Y-182185771D02*
X183791485Y-183471485D01*
X183862914Y-183614342D01*
X184005771Y-183685771D01*
X184148628Y-183685771D01*
X184648628Y-183542914D02*
X184720057Y-183614342D01*
X184648628Y-183685771D01*
X184577200Y-183614342D01*
X184648628Y-183542914D01*
X184648628Y-183685771D01*
X184648628Y-182757200D02*
X184720057Y-182828628D01*
X184648628Y-182900057D01*
X184577200Y-182828628D01*
X184648628Y-182757200D01*
X184648628Y-182900057D01*
D10*
D12*
D10*
D11*
D10*
D11*
D10*
D11*
D10*
D11*
D10*
D11*
X197002200Y-191507200D02*
X197002200Y-194507200D01*
D10*
D11*
X261002200Y-191507200D02*
X261002200Y-198007200D01*
D14*
%TO.P,J2,1,Pin_1*%
%TO.N,/M2C1*%
X190425000Y-124200000D03*
D15*
%TO.P,J2,2,Pin_2*%
%TO.N,/M2C2*%
X187885000Y-124200000D03*
%TO.P,J2,3,Pin_3*%
%TO.N,/M2INA*%
X185345000Y-124200000D03*
%TO.P,J2,4,Pin_4*%
%TO.N,/M2PWM*%
X182805000Y-124200000D03*
%TO.P,J2,5,Pin_5*%
%TO.N,/M2CS*%
X180265000Y-124200000D03*
%TO.P,J2,6,Pin_6*%
%TO.N,/M1CS*%
X177725000Y-124200000D03*
%TO.P,J2,7,Pin_7*%
%TO.N,/M1PWM*%
X175185000Y-124200000D03*
%TO.P,J2,8,Pin_8*%
%TO.N,/M1INA*%
X172645000Y-124200000D03*
%TO.P,J2,9,Pin_9*%
%TO.N,/M1C2*%
X170105000Y-124200000D03*
%TO.P,J2,10,Pin_10*%
%TO.N,/M1C1*%
X167565000Y-124200000D03*
%TO.P,J2,11,Pin_11*%
%TO.N,+3V3*%
X165025000Y-124200000D03*
%TD*%
D16*
%TO.P,M1D2,1,K*%
%TO.N,Net-(M1D1-Pad2)*%
X154178000Y-104394000D03*
%TO.P,M1D2,2,A*%
%TO.N,/M1OUTA*%
X152425400Y-104394000D03*
%TD*%
%TO.P,M2D2,1,K*%
%TO.N,Net-(M2D1-Pad2)*%
X184709300Y-104394000D03*
%TO.P,M2D2,2,A*%
%TO.N,/M2OUTA*%
X182956700Y-104394000D03*
%TD*%
D17*
%TO.P,M1J1,1,Pin_1*%
%TO.N,/M1OUTA*%
X146396346Y-109465200D03*
%TO.P,M1J1,2,Pin_2*%
%TO.N,GND*%
X146396346Y-107465200D03*
%TO.P,M1J1,3,Pin_3*%
%TO.N,/M1C1*%
X146396346Y-105465200D03*
%TO.P,M1J1,4,Pin_4*%
%TO.N,/M1C2*%
X146396346Y-103465200D03*
%TO.P,M1J1,5,Pin_5*%
%TO.N,+3V3*%
X146396346Y-101465200D03*
%TO.P,M1J1,6,Pin_6*%
%TO.N,/M1OUTB*%
X146396346Y-99465200D03*
D18*
%TO.P,M1J1,MP*%
X148646346Y-97065200D03*
%TO.N,/M1OUTA*%
X148646346Y-111865200D03*
%TD*%
D16*
%TO.P,M1D1,1,K*%
%TO.N,/M1OUTA*%
X152425400Y-106426000D03*
%TO.P,M1D1,2,A*%
%TO.N,Net-(M1D1-Pad2)*%
X154178000Y-106426000D03*
%TD*%
D19*
%TO.P,M2CP1,1*%
%TO.N,Net-(M2C3-Pad1)*%
X169431982Y-119508651D03*
D20*
%TO.P,M2CP1,2*%
%TO.N,GND*%
X169431982Y-116008651D03*
%TD*%
D16*
%TO.P,M2D1,1,K*%
%TO.N,/M2OUTA*%
X182956700Y-102362000D03*
%TO.P,M2D1,2,A*%
%TO.N,Net-(M2D1-Pad2)*%
X184709300Y-102362000D03*
%TD*%
D21*
%TO.P,M2J1,1,Pin_1*%
%TO.N,/M2OUTA*%
X190700000Y-99526400D03*
%TO.P,M2J1,2,Pin_2*%
%TO.N,GND*%
X190700000Y-101526400D03*
%TO.P,M2J1,3,Pin_3*%
%TO.N,/M2C1*%
X190700000Y-103526400D03*
%TO.P,M2J1,4,Pin_4*%
%TO.N,/M2C2*%
X190700000Y-105526400D03*
%TO.P,M2J1,5,Pin_5*%
%TO.N,+3V3*%
X190700000Y-107526400D03*
%TO.P,M2J1,6,Pin_6*%
%TO.N,/M2OUTB*%
X190700000Y-109526400D03*
D22*
%TO.P,M2J1,MP*%
%TO.N,N/C*%
X188450000Y-111926400D03*
X188450000Y-97126400D03*
%TD*%
D19*
%TO.P,M1CP1,1*%
%TO.N,Net-(M1C3-Pad1)*%
X153610400Y-119508651D03*
D20*
%TO.P,M1CP1,2*%
%TO.N,GND*%
X153610400Y-116008651D03*
%TD*%
D23*
%TO.P,M1R0,1*%
%TO.N,Net-(M1D1-Pad2)*%
X154126700Y-102362000D03*
%TO.P,M1R0,2*%
%TO.N,/M1OUTB*%
X152476700Y-102362000D03*
%TD*%
D24*
%TO.P,J1,1,Pin_1*%
%TO.N,GND*%
X161544000Y-112562000D03*
D25*
%TO.P,J1,2,Pin_2*%
%TO.N,+12V*%
X161544000Y-117562000D03*
%TD*%
D23*
%TO.P,M2R0,1*%
%TO.N,Net-(M2D1-Pad2)*%
X184658000Y-106426000D03*
%TO.P,M2R0,2*%
%TO.N,/M2OUTB*%
X183008000Y-106426000D03*
%TD*%
D26*
%TO.N,/M2CP*%
X181684400Y-118486000D03*
X172720000Y-107442000D03*
%TO.N,/M1CP*%
X149845520Y-102376480D03*
X139476818Y-113863200D03*
%TO.N,/M2INB*%
X163921000Y-97875000D03*
X166624000Y-108966000D03*
%TO.N,/M2CS*%
X167640000Y-110744000D03*
X171704000Y-115824000D03*
X167577240Y-104915235D03*
D27*
%TO.N,/M1OUTA*%
X141166000Y-109254800D03*
D28*
X143130835Y-111526400D03*
D27*
X139666000Y-109254800D03*
X138166000Y-109254800D03*
D28*
X149488000Y-111544635D03*
D26*
%TO.N,/M1INA*%
X157156000Y-109990000D03*
X161260301Y-100562899D03*
%TO.N,+3V3*%
X157166000Y-108600000D03*
X173000000Y-122325000D03*
X192140000Y-115480000D03*
X134992000Y-114300000D03*
X158166000Y-100000000D03*
X156464000Y-121412000D03*
X165475500Y-107442000D03*
X164890000Y-100000000D03*
X131826000Y-101600000D03*
X162047295Y-97873554D03*
X160782000Y-95399989D03*
%TO.N,/M1INB*%
X156718000Y-99314000D03*
X159664400Y-96824800D03*
%TO.N,/M1PWM*%
X155543360Y-105550235D03*
X154940000Y-111760000D03*
X151816000Y-116400000D03*
%TO.N,/M1CS*%
X158954908Y-95635690D03*
X155561765Y-104026235D03*
X154178000Y-95504000D03*
X160750000Y-124100000D03*
%TO.N,/M2PWM*%
X167600600Y-103391235D03*
X189992000Y-114285500D03*
D27*
%TO.N,/M2OUTA*%
X185000000Y-99525000D03*
D29*
X181975000Y-99550000D03*
D28*
X179980035Y-97526400D03*
X173632600Y-97526400D03*
D27*
X183487600Y-99526400D03*
D26*
%TO.N,/M2INA*%
X169926000Y-97028000D03*
X191200000Y-115010000D03*
D28*
%TO.N,/M1OUTB*%
X143031298Y-97528937D03*
D27*
X139666000Y-99475000D03*
X141166000Y-99475000D03*
D28*
X149488000Y-97523835D03*
D27*
X138166000Y-99475000D03*
%TO.N,/M2OUTB*%
X183487600Y-109526400D03*
X181975000Y-109525000D03*
D28*
X179324000Y-111526400D03*
X173632600Y-111544635D03*
D27*
X185000000Y-109525000D03*
D26*
%TO.N,/M1C2*%
X162000000Y-123124500D03*
%TO.N,GND*%
X131064000Y-106934000D03*
X157480000Y-115316000D03*
X157480000Y-114554000D03*
X155448000Y-114554000D03*
D29*
X191262000Y-101600000D03*
D26*
X131064000Y-107950000D03*
X131064000Y-114554000D03*
X133468000Y-108458000D03*
D27*
X192662000Y-101570000D03*
D26*
X157480000Y-116078000D03*
X155448000Y-115316000D03*
X155448000Y-116078000D03*
X131064000Y-113538000D03*
X131064000Y-108966000D03*
X131064000Y-112522000D03*
D30*
%TO.N,+12V*%
X183990000Y-115377235D03*
D26*
X151756000Y-100526400D03*
X171490600Y-108526400D03*
X162204400Y-101600000D03*
X155956000Y-96774000D03*
D30*
X139166000Y-119800000D03*
%TD*%
D31*
%TO.N,/M2CP*%
X180248511Y-117050111D02*
X181684400Y-118486000D01*
X172720000Y-107442000D02*
X173332000Y-107442000D01*
X173332000Y-107442000D02*
X176340000Y-110450000D01*
X176340000Y-110450000D02*
X179555057Y-110450000D01*
X179555057Y-110450000D02*
X180248511Y-111143454D01*
X180248511Y-111143454D02*
X180248511Y-117050111D01*
%TO.N,/M1CP*%
X153249021Y-108116979D02*
X150764111Y-110601889D01*
X142738129Y-110601889D02*
X139476818Y-113863200D01*
X152908000Y-103378000D02*
X153249021Y-103719021D01*
X149845520Y-102376480D02*
X150847040Y-103378000D01*
X150764111Y-110601889D02*
X142738129Y-110601889D01*
X150847040Y-103378000D02*
X152908000Y-103378000D01*
X153249021Y-103719021D02*
X153249021Y-108116979D01*
%TO.N,/M2INB*%
X166200000Y-108542000D02*
X166200000Y-100285386D01*
X166200000Y-100285386D02*
X163921000Y-98006386D01*
X166624000Y-108966000D02*
X166200000Y-108542000D01*
X163921000Y-98006386D02*
X163921000Y-97875000D01*
%TO.N,/M2CS*%
X171704000Y-115858500D02*
X180045500Y-124200000D01*
X171704000Y-115824000D02*
X171704000Y-115858500D01*
X167640000Y-110744000D02*
X167577240Y-110681240D01*
X180045500Y-124200000D02*
X180265000Y-124200000D01*
X167577240Y-110681240D02*
X167577240Y-104915235D01*
%TO.N,Net-(M1D1-Pad2)*%
X154178000Y-106426000D02*
X154178000Y-104394000D01*
X154178000Y-104394000D02*
X154178000Y-102389940D01*
D32*
%TO.N,/M1OUTA*%
X138166000Y-109254800D02*
X138200800Y-109220000D01*
D31*
X152124200Y-107209800D02*
X149868800Y-109465200D01*
D33*
X143130835Y-111526400D02*
X149469765Y-111526400D01*
D31*
X149868800Y-109465200D02*
X146396346Y-109465200D01*
X149488000Y-111544635D02*
X149469765Y-111526400D01*
X152124200Y-106426000D02*
X152124200Y-107209800D01*
X152425400Y-106426000D02*
X152425400Y-104394000D01*
D32*
X138200800Y-109220000D02*
X146658108Y-109220000D01*
D31*
%TO.N,/M1INA*%
X130239480Y-115887762D02*
X130239480Y-97582238D01*
X158266000Y-109990000D02*
X157156000Y-109990000D01*
X137650758Y-123299040D02*
X130239480Y-115887762D01*
X172645000Y-124200000D02*
X171470489Y-125374511D01*
X161260301Y-97541417D02*
X161260301Y-100562899D01*
X162306000Y-96495718D02*
X161260301Y-97541417D01*
X130239480Y-97582238D02*
X132291718Y-95530000D01*
X162306000Y-95504000D02*
X162306000Y-96495718D01*
X132291718Y-95530000D02*
X150343200Y-95530000D01*
X150343200Y-95530000D02*
X151434800Y-96621600D01*
X171470489Y-125374511D02*
X163225397Y-125374511D01*
X159766000Y-102057200D02*
X159766000Y-108490000D01*
X161260301Y-100562899D02*
X159766000Y-102057200D01*
X151434800Y-96621600D02*
X154533600Y-96621600D01*
X161149926Y-123299040D02*
X137650758Y-123299040D01*
X158890511Y-94675489D02*
X161477489Y-94675489D01*
X154533600Y-96621600D02*
X155625200Y-95530000D01*
X155625200Y-95530000D02*
X158036000Y-95530000D01*
X163225397Y-125374511D02*
X161149926Y-123299040D01*
X161477489Y-94675489D02*
X162306000Y-95504000D01*
X158036000Y-95530000D02*
X158890511Y-94675489D01*
X159766000Y-108490000D02*
X158266000Y-109990000D01*
%TO.N,+3V3*%
X152623520Y-121950480D02*
X138382677Y-121950480D01*
X193774520Y-107668520D02*
X193632400Y-107526400D01*
X159200762Y-121950480D02*
X158662282Y-121412000D01*
X162047295Y-97873554D02*
X162351741Y-98178000D01*
X193774520Y-113845480D02*
X193774520Y-107668520D01*
X162351741Y-98178000D02*
X163068000Y-98178000D01*
X164846000Y-100044000D02*
X164887834Y-100002166D01*
X172625480Y-121950480D02*
X159200762Y-121950480D01*
X153162000Y-121412000D02*
X152623520Y-121950480D01*
X173000000Y-122325000D02*
X172625480Y-121950480D01*
X193632400Y-107526400D02*
X190700000Y-107526400D01*
X134992000Y-118559803D02*
X134992000Y-114300000D01*
X156464000Y-121412000D02*
X153162000Y-121412000D01*
X158166000Y-100000000D02*
X158166000Y-107600000D01*
X158166000Y-107600000D02*
X157166000Y-108600000D01*
X160782000Y-97384000D02*
X158166000Y-100000000D01*
X165475500Y-107442000D02*
X164846000Y-106812500D01*
X131826000Y-101600000D02*
X146261546Y-101600000D01*
X163068000Y-98178000D02*
X164890000Y-100000000D01*
X164846000Y-106812500D02*
X164846000Y-100044000D01*
X192140000Y-115480000D02*
X193774520Y-113845480D01*
X146261546Y-101600000D02*
X146396346Y-101465200D01*
X138382677Y-121950480D02*
X134992000Y-118559803D01*
X158662282Y-121412000D02*
X156464000Y-121412000D01*
X160782000Y-95399989D02*
X160782000Y-97384000D01*
%TO.N,/M1INB*%
X156718000Y-98759103D02*
X156718000Y-99314000D01*
X158652303Y-96824800D02*
X156718000Y-98759103D01*
X159664400Y-96824800D02*
X158652303Y-96824800D01*
%TO.N,/M1PWM*%
X151816000Y-116400000D02*
X151816000Y-116700000D01*
X151816000Y-116700000D02*
X152406000Y-117290000D01*
X173200574Y-121500960D02*
X175185000Y-123485386D01*
X152406000Y-117290000D02*
X155176000Y-117290000D01*
X175185000Y-123485386D02*
X175185000Y-124200000D01*
X155176000Y-117290000D02*
X159386960Y-121500960D01*
X155543360Y-111156640D02*
X155543360Y-105550235D01*
X154940000Y-111760000D02*
X155543360Y-111156640D01*
X159386960Y-121500960D02*
X173200574Y-121500960D01*
%TO.N,/M1CS*%
X132071500Y-95114500D02*
X129789960Y-97396040D01*
X132105521Y-95080480D02*
X132071500Y-95114500D01*
X154178000Y-95504000D02*
X153754480Y-95080480D01*
X129789960Y-97396040D02*
X129789960Y-116073959D01*
X155448000Y-103912470D02*
X155561765Y-104026235D01*
X155448000Y-99393385D02*
X155448000Y-103912470D01*
X158954908Y-95635690D02*
X158954908Y-95886478D01*
X129789960Y-116073959D02*
X137464560Y-123748560D01*
X137464560Y-123748560D02*
X160398560Y-123748560D01*
X153754480Y-95080480D02*
X132105521Y-95080480D01*
X160398560Y-123748560D02*
X160750000Y-124100000D01*
X158954908Y-95886478D02*
X155448000Y-99393385D01*
%TO.N,/M2PWM*%
X182308325Y-111931833D02*
X179073609Y-108697117D01*
X189526500Y-113820000D02*
X186670516Y-113820000D01*
X180904546Y-97143454D02*
X180027092Y-96266000D01*
X186670516Y-113820000D02*
X184782349Y-111931833D01*
X179073609Y-99740283D02*
X180904546Y-97909346D01*
X189992000Y-114285500D02*
X189526500Y-113820000D01*
X179073609Y-108697117D02*
X179073609Y-99740283D01*
X184782349Y-111931833D02*
X182308325Y-111931833D01*
X168935400Y-96266000D02*
X167600600Y-97600800D01*
X180904546Y-97909346D02*
X180904546Y-97143454D01*
X167600600Y-97600800D02*
X167600600Y-103391235D01*
X180027092Y-96266000D02*
X168935400Y-96266000D01*
%TO.N,Net-(M2D1-Pad2)*%
X184709300Y-104394000D02*
X184709300Y-102362000D01*
X184681360Y-106426000D02*
X184681360Y-104421940D01*
X184681360Y-104421940D02*
X184709300Y-104394000D01*
%TO.N,/M2OUTA*%
X182956700Y-104394000D02*
X182956700Y-102362000D01*
D33*
X179980035Y-97526400D02*
X173632600Y-97526400D01*
D31*
X182956700Y-102362000D02*
X182956700Y-99999300D01*
D32*
X183406000Y-99550000D02*
X190676400Y-99550000D01*
D31*
X182956700Y-99999300D02*
X183406000Y-99550000D01*
D32*
X190676400Y-99550000D02*
X190700000Y-99526400D01*
X181975000Y-99550000D02*
X183406000Y-99550000D01*
D31*
%TO.N,/M2INA*%
X171850152Y-97051409D02*
X178624089Y-103825346D01*
X169949409Y-97051409D02*
X169926000Y-97028000D01*
X178624089Y-108883315D02*
X182122127Y-112381353D01*
X182122127Y-112381353D02*
X184596151Y-112381353D01*
X178624089Y-103825346D02*
X178624089Y-108883315D01*
X184596151Y-112381353D02*
X187224798Y-115010000D01*
X171850152Y-97051409D02*
X169949409Y-97051409D01*
X187224798Y-115010000D02*
X191200000Y-115010000D01*
D33*
%TO.N,/M1OUTB*%
X148489170Y-99465200D02*
X146396346Y-99465200D01*
D32*
X146386546Y-99475000D02*
X146396346Y-99465200D01*
D31*
X152152140Y-102362000D02*
X150855639Y-102362000D01*
D33*
X146485698Y-97528937D02*
X146485698Y-99375848D01*
D32*
X138166000Y-99475000D02*
X146386546Y-99475000D01*
D33*
X149482898Y-97528937D02*
X146485698Y-97528937D01*
X146485698Y-99375848D02*
X146396346Y-99465200D01*
D32*
X141156200Y-99465200D02*
X141166000Y-99475000D01*
D33*
X146485698Y-97528937D02*
X143031298Y-97528937D01*
D31*
X150855639Y-102362000D02*
X147958839Y-99465200D01*
X149488000Y-97523835D02*
X149482898Y-97528937D01*
X147958839Y-99465200D02*
X146396346Y-99465200D01*
%TO.N,/M2OUTB*%
X182984640Y-109023440D02*
X183487600Y-109526400D01*
X182984640Y-106426000D02*
X182984640Y-109023440D01*
D32*
X190698600Y-109525000D02*
X190700000Y-109526400D01*
D33*
X179324000Y-111526400D02*
X173650835Y-111526400D01*
D32*
X181975000Y-109525000D02*
X190698600Y-109525000D01*
D31*
X173650835Y-111526400D02*
X173632600Y-111544635D01*
%TO.N,/M1C2*%
X132002480Y-107255802D02*
X135793082Y-103465200D01*
X135793082Y-103465200D02*
X146396346Y-103465200D01*
X161725020Y-122849520D02*
X137836956Y-122849520D01*
X137836956Y-122849520D02*
X132002480Y-117015044D01*
X162000000Y-123124500D02*
X161725020Y-122849520D01*
X132002480Y-117015044D02*
X132002480Y-107255802D01*
%TO.N,/M1C1*%
X132452000Y-116828846D02*
X132452000Y-107442000D01*
X167565000Y-124200000D02*
X165765000Y-122400000D01*
X132452000Y-107442000D02*
X134428800Y-105465200D01*
X134428800Y-105465200D02*
X146396346Y-105465200D01*
X165765000Y-122400000D02*
X138023154Y-122400000D01*
X138023154Y-122400000D02*
X132452000Y-116828846D01*
%TO.N,/M2C2*%
X194224040Y-107356040D02*
X194224040Y-119765242D01*
X189975480Y-122109520D02*
X191879762Y-122109520D01*
X187885000Y-124200000D02*
X189975480Y-122109520D01*
X190700000Y-105526400D02*
X192394400Y-105526400D01*
X191879762Y-122109520D02*
X194224040Y-119765242D01*
X192394400Y-105526400D02*
X194224040Y-107356040D01*
%TO.N,/M2C1*%
X194673560Y-119951440D02*
X194673560Y-105937467D01*
X190425000Y-124200000D02*
X194673560Y-119951440D01*
X192262493Y-103526400D02*
X190700000Y-103526400D01*
X194673560Y-105937467D02*
X192262493Y-103526400D01*
%TO.N,GND*%
X134460800Y-107465200D02*
X133468000Y-108458000D01*
D33*
X131064000Y-114554000D02*
X131064000Y-113538000D01*
X131064000Y-107950000D02*
X131064000Y-108966000D01*
X131064000Y-112522000D02*
X131064000Y-113538000D01*
X131064000Y-106934000D02*
X131064000Y-107950000D01*
X155448000Y-116078000D02*
X157480000Y-116078000D01*
X131064000Y-108966000D02*
X131064000Y-112522000D01*
X155448000Y-115316000D02*
X157480000Y-115316000D01*
X155448000Y-114554000D02*
X157480000Y-114554000D01*
D31*
X146396346Y-107465200D02*
X134460800Y-107465200D01*
%TD*%
%TA.AperFunction,Conductor*%
%TO.N,+12V*%
G36*
X168982654Y-97218816D02*
G01*
X169039490Y-97261363D01*
X169058453Y-97297933D01*
X169091473Y-97399556D01*
X169186960Y-97564944D01*
X169191378Y-97569851D01*
X169191379Y-97569852D01*
X169295162Y-97685115D01*
X169314747Y-97706866D01*
X169469248Y-97819118D01*
X169475276Y-97821802D01*
X169475278Y-97821803D01*
X169637681Y-97894109D01*
X169643712Y-97896794D01*
X169731218Y-97915394D01*
X169824056Y-97935128D01*
X169824061Y-97935128D01*
X169830513Y-97936500D01*
X170021487Y-97936500D01*
X170027939Y-97935128D01*
X170027944Y-97935128D01*
X170120782Y-97915394D01*
X170208288Y-97896794D01*
X170214319Y-97894109D01*
X170376722Y-97821803D01*
X170376724Y-97821802D01*
X170382752Y-97819118D01*
X170418950Y-97792819D01*
X170534353Y-97708973D01*
X170601221Y-97685115D01*
X170608414Y-97684909D01*
X171535558Y-97684909D01*
X171603679Y-97704911D01*
X171624653Y-97721814D01*
X177953684Y-104050845D01*
X177987710Y-104113157D01*
X177990589Y-104139940D01*
X177990589Y-108804548D01*
X177990062Y-108815731D01*
X177988387Y-108823224D01*
X177988636Y-108831150D01*
X177988636Y-108831151D01*
X177990527Y-108891301D01*
X177990589Y-108895260D01*
X177990589Y-108923171D01*
X177991086Y-108927105D01*
X177991086Y-108927106D01*
X177991094Y-108927171D01*
X177992027Y-108939008D01*
X177993416Y-108983204D01*
X177996453Y-108993657D01*
X177999067Y-109002654D01*
X178003076Y-109022015D01*
X178005615Y-109042112D01*
X178008534Y-109049483D01*
X178008534Y-109049485D01*
X178021893Y-109083227D01*
X178025738Y-109094457D01*
X178038071Y-109136908D01*
X178042104Y-109143727D01*
X178042106Y-109143732D01*
X178048382Y-109154343D01*
X178057077Y-109172091D01*
X178064537Y-109190932D01*
X178069199Y-109197348D01*
X178069199Y-109197349D01*
X178090525Y-109226702D01*
X178097041Y-109236622D01*
X178100115Y-109241819D01*
X178119547Y-109274677D01*
X178133868Y-109288998D01*
X178146708Y-109304031D01*
X178158617Y-109320422D01*
X178179677Y-109337844D01*
X178192694Y-109348613D01*
X178201473Y-109356603D01*
X178446275Y-109601405D01*
X178480301Y-109663717D01*
X178475236Y-109734532D01*
X178432689Y-109791368D01*
X178366169Y-109816179D01*
X178357180Y-109816500D01*
X176654595Y-109816500D01*
X176586474Y-109796498D01*
X176565500Y-109779595D01*
X173835652Y-107049747D01*
X173828112Y-107041461D01*
X173824000Y-107034982D01*
X173774348Y-106988356D01*
X173771507Y-106985602D01*
X173751770Y-106965865D01*
X173748573Y-106963385D01*
X173739551Y-106955680D01*
X173713100Y-106930841D01*
X173707321Y-106925414D01*
X173700375Y-106921595D01*
X173700372Y-106921593D01*
X173689566Y-106915652D01*
X173673047Y-106904801D01*
X173664539Y-106898202D01*
X173657041Y-106892386D01*
X173649772Y-106889241D01*
X173649768Y-106889238D01*
X173616463Y-106874826D01*
X173605813Y-106869609D01*
X173567060Y-106848305D01*
X173547437Y-106843267D01*
X173528734Y-106836863D01*
X173517420Y-106831967D01*
X173517419Y-106831967D01*
X173510145Y-106828819D01*
X173502322Y-106827580D01*
X173502312Y-106827577D01*
X173466476Y-106821901D01*
X173454856Y-106819495D01*
X173419706Y-106810470D01*
X173419700Y-106810469D01*
X173412030Y-106808500D01*
X173411476Y-106808500D01*
X173349403Y-106781426D01*
X173336648Y-106769126D01*
X173331253Y-106763134D01*
X173176752Y-106650882D01*
X173170724Y-106648198D01*
X173170722Y-106648197D01*
X173008319Y-106575891D01*
X173008318Y-106575891D01*
X173002288Y-106573206D01*
X172873881Y-106545912D01*
X172821944Y-106534872D01*
X172821939Y-106534872D01*
X172815487Y-106533500D01*
X172624513Y-106533500D01*
X172618061Y-106534872D01*
X172618056Y-106534872D01*
X172566119Y-106545912D01*
X172437712Y-106573206D01*
X172431682Y-106575891D01*
X172431681Y-106575891D01*
X172269278Y-106648197D01*
X172269276Y-106648198D01*
X172263248Y-106650882D01*
X172108747Y-106763134D01*
X172104326Y-106768044D01*
X172104325Y-106768045D01*
X171995203Y-106889238D01*
X171980960Y-106905056D01*
X171926301Y-106999728D01*
X171892061Y-107059034D01*
X171885473Y-107070444D01*
X171826458Y-107252072D01*
X171825768Y-107258633D01*
X171825768Y-107258635D01*
X171822914Y-107285788D01*
X171806496Y-107442000D01*
X171807186Y-107448565D01*
X171825382Y-107621686D01*
X171826458Y-107631928D01*
X171885473Y-107813556D01*
X171980960Y-107978944D01*
X171985378Y-107983851D01*
X171985379Y-107983852D01*
X172056695Y-108063056D01*
X172108747Y-108120866D01*
X172183813Y-108175405D01*
X172234021Y-108211883D01*
X172263248Y-108233118D01*
X172269276Y-108235802D01*
X172269278Y-108235803D01*
X172431681Y-108308109D01*
X172437712Y-108310794D01*
X172531113Y-108330647D01*
X172618056Y-108349128D01*
X172618061Y-108349128D01*
X172624513Y-108350500D01*
X172815487Y-108350500D01*
X172821939Y-108349128D01*
X172821944Y-108349128D01*
X172908887Y-108330647D01*
X173002288Y-108310794D01*
X173012241Y-108306363D01*
X173055063Y-108287297D01*
X173132559Y-108252794D01*
X173202925Y-108243360D01*
X173267222Y-108273466D01*
X173272902Y-108278806D01*
X175296901Y-110302805D01*
X175330927Y-110365117D01*
X175325862Y-110435932D01*
X175283315Y-110492768D01*
X175216795Y-110517579D01*
X175207806Y-110517900D01*
X174074927Y-110517900D01*
X174028237Y-110508930D01*
X173954149Y-110479372D01*
X173948780Y-110477230D01*
X173748966Y-110437484D01*
X173743192Y-110437408D01*
X173743188Y-110437408D01*
X173640052Y-110436059D01*
X173545255Y-110434818D01*
X173539558Y-110435797D01*
X173539557Y-110435797D01*
X173460590Y-110449366D01*
X173344470Y-110469319D01*
X173153334Y-110539833D01*
X173148373Y-110542785D01*
X173148372Y-110542785D01*
X172997448Y-110632576D01*
X172978249Y-110643998D01*
X172825078Y-110778325D01*
X172821511Y-110782850D01*
X172821506Y-110782855D01*
X172754489Y-110867866D01*
X172698951Y-110938316D01*
X172696262Y-110943427D01*
X172696260Y-110943430D01*
X172656848Y-111018340D01*
X172604092Y-111118613D01*
X172543678Y-111313178D01*
X172519732Y-111515494D01*
X172533057Y-111718786D01*
X172583205Y-111916245D01*
X172668498Y-112101259D01*
X172786079Y-112267632D01*
X172790213Y-112271659D01*
X172912606Y-112390889D01*
X172932010Y-112409792D01*
X172936806Y-112412997D01*
X172936809Y-112412999D01*
X173046232Y-112486113D01*
X173101403Y-112522977D01*
X173106706Y-112525255D01*
X173106709Y-112525257D01*
X173283280Y-112601118D01*
X173288587Y-112603398D01*
X173316518Y-112609718D01*
X173481655Y-112647085D01*
X173481660Y-112647086D01*
X173487292Y-112648360D01*
X173493063Y-112648587D01*
X173493065Y-112648587D01*
X173556070Y-112651062D01*
X173690863Y-112656358D01*
X173892483Y-112627125D01*
X173897947Y-112625270D01*
X173897952Y-112625269D01*
X174056744Y-112571366D01*
X174085399Y-112561639D01*
X174104459Y-112550965D01*
X174166025Y-112534900D01*
X178837075Y-112534900D01*
X178886812Y-112545132D01*
X178944836Y-112570061D01*
X178960031Y-112576589D01*
X178979987Y-112585163D01*
X179050499Y-112601118D01*
X179173055Y-112628850D01*
X179173060Y-112628851D01*
X179178692Y-112630125D01*
X179184463Y-112630352D01*
X179184465Y-112630352D01*
X179240822Y-112632566D01*
X179382263Y-112638123D01*
X179470931Y-112625267D01*
X179541217Y-112635287D01*
X179594928Y-112681716D01*
X179615011Y-112749963D01*
X179615011Y-116971344D01*
X179614484Y-116982527D01*
X179612809Y-116990020D01*
X179613058Y-116997946D01*
X179613058Y-116997947D01*
X179614949Y-117058097D01*
X179615011Y-117062056D01*
X179615011Y-117089967D01*
X179615508Y-117093901D01*
X179615508Y-117093902D01*
X179615516Y-117093967D01*
X179616449Y-117105804D01*
X179617838Y-117150000D01*
X179623203Y-117168467D01*
X179623489Y-117169450D01*
X179627498Y-117188811D01*
X179630037Y-117208908D01*
X179632956Y-117216279D01*
X179632956Y-117216281D01*
X179646315Y-117250023D01*
X179650160Y-117261253D01*
X179662493Y-117303704D01*
X179666526Y-117310523D01*
X179666528Y-117310528D01*
X179672804Y-117321139D01*
X179681499Y-117338887D01*
X179688959Y-117357728D01*
X179693621Y-117364144D01*
X179693621Y-117364145D01*
X179714947Y-117393498D01*
X179721463Y-117403418D01*
X179743969Y-117441473D01*
X179758290Y-117455794D01*
X179771130Y-117470827D01*
X179783039Y-117487218D01*
X179789145Y-117492269D01*
X179817116Y-117515409D01*
X179825895Y-117523399D01*
X180737278Y-118434782D01*
X180771304Y-118497094D01*
X180773492Y-118510703D01*
X180790858Y-118675928D01*
X180849873Y-118857556D01*
X180945360Y-119022944D01*
X180949778Y-119027851D01*
X180949779Y-119027852D01*
X181068725Y-119159955D01*
X181073147Y-119164866D01*
X181227648Y-119277118D01*
X181233676Y-119279802D01*
X181233678Y-119279803D01*
X181396081Y-119352109D01*
X181402112Y-119354794D01*
X181495513Y-119374647D01*
X181582456Y-119393128D01*
X181582461Y-119393128D01*
X181588913Y-119394500D01*
X181779887Y-119394500D01*
X181786339Y-119393128D01*
X181786344Y-119393128D01*
X181873287Y-119374647D01*
X181966688Y-119354794D01*
X181972719Y-119352109D01*
X182135122Y-119279803D01*
X182135124Y-119279802D01*
X182141152Y-119277118D01*
X182295653Y-119164866D01*
X182300075Y-119159955D01*
X182419021Y-119027852D01*
X182419022Y-119027851D01*
X182423440Y-119022944D01*
X182518927Y-118857556D01*
X182577942Y-118675928D01*
X182597904Y-118486000D01*
X182583880Y-118352570D01*
X182578632Y-118302635D01*
X182578632Y-118302633D01*
X182577942Y-118296072D01*
X182518927Y-118114444D01*
X182423440Y-117949056D01*
X182409904Y-117934022D01*
X182300075Y-117812045D01*
X182300074Y-117812044D01*
X182295653Y-117807134D01*
X182141152Y-117694882D01*
X182135124Y-117692198D01*
X182135122Y-117692197D01*
X181972719Y-117619891D01*
X181972718Y-117619891D01*
X181966688Y-117617206D01*
X181873288Y-117597353D01*
X181786344Y-117578872D01*
X181786339Y-117578872D01*
X181779887Y-117577500D01*
X181723995Y-117577500D01*
X181655874Y-117557498D01*
X181634899Y-117540595D01*
X180918915Y-116824610D01*
X180884890Y-116762298D01*
X180882011Y-116735515D01*
X180882011Y-112341332D01*
X180902013Y-112273211D01*
X180955669Y-112226718D01*
X181025943Y-112216614D01*
X181090523Y-112246108D01*
X181097106Y-112252237D01*
X181618475Y-112773606D01*
X181626015Y-112781892D01*
X181630127Y-112788371D01*
X181635904Y-112793796D01*
X181679778Y-112834996D01*
X181682620Y-112837751D01*
X181702357Y-112857488D01*
X181705554Y-112859968D01*
X181714574Y-112867671D01*
X181746806Y-112897939D01*
X181753752Y-112901758D01*
X181753755Y-112901760D01*
X181764561Y-112907701D01*
X181781080Y-112918552D01*
X181797086Y-112930967D01*
X181804355Y-112934112D01*
X181804359Y-112934115D01*
X181837664Y-112948527D01*
X181848314Y-112953744D01*
X181887067Y-112975048D01*
X181894742Y-112977019D01*
X181894743Y-112977019D01*
X181906689Y-112980086D01*
X181925394Y-112986490D01*
X181943982Y-112994534D01*
X181951805Y-112995773D01*
X181951815Y-112995776D01*
X181987651Y-113001452D01*
X181999271Y-113003858D01*
X182034416Y-113012881D01*
X182042097Y-113014853D01*
X182062351Y-113014853D01*
X182082061Y-113016404D01*
X182102070Y-113019573D01*
X182109962Y-113018827D01*
X182146088Y-113015412D01*
X182157946Y-113014853D01*
X184281557Y-113014853D01*
X184349678Y-113034855D01*
X184370652Y-113051758D01*
X186721141Y-115402247D01*
X186728685Y-115410537D01*
X186732798Y-115417018D01*
X186738575Y-115422443D01*
X186782465Y-115463658D01*
X186785307Y-115466413D01*
X186805028Y-115486134D01*
X186808223Y-115488612D01*
X186817245Y-115496318D01*
X186849477Y-115526586D01*
X186856426Y-115530406D01*
X186867230Y-115536346D01*
X186883754Y-115547199D01*
X186899757Y-115559613D01*
X186940341Y-115577176D01*
X186950971Y-115582383D01*
X186989738Y-115603695D01*
X186997415Y-115605666D01*
X186997420Y-115605668D01*
X187009356Y-115608732D01*
X187028064Y-115615137D01*
X187046653Y-115623181D01*
X187054481Y-115624421D01*
X187054488Y-115624423D01*
X187090322Y-115630099D01*
X187101942Y-115632505D01*
X187133609Y-115640635D01*
X187144768Y-115643500D01*
X187165022Y-115643500D01*
X187184732Y-115645051D01*
X187204741Y-115648220D01*
X187212633Y-115647474D01*
X187238265Y-115645051D01*
X187248760Y-115644059D01*
X187260617Y-115643500D01*
X190491800Y-115643500D01*
X190559921Y-115663502D01*
X190579147Y-115679843D01*
X190579420Y-115679540D01*
X190584332Y-115683963D01*
X190588747Y-115688866D01*
X190594086Y-115692745D01*
X190722501Y-115786044D01*
X190743248Y-115801118D01*
X190749276Y-115803802D01*
X190749278Y-115803803D01*
X190911681Y-115876109D01*
X190917712Y-115878794D01*
X191011112Y-115898647D01*
X191098056Y-115917128D01*
X191098061Y-115917128D01*
X191104513Y-115918500D01*
X191271377Y-115918500D01*
X191339498Y-115938502D01*
X191380495Y-115981498D01*
X191400960Y-116016944D01*
X191405378Y-116021851D01*
X191405379Y-116021852D01*
X191502448Y-116129658D01*
X191528747Y-116158866D01*
X191683248Y-116271118D01*
X191689276Y-116273802D01*
X191689278Y-116273803D01*
X191701827Y-116279390D01*
X191857712Y-116348794D01*
X191923351Y-116362746D01*
X192038056Y-116387128D01*
X192038061Y-116387128D01*
X192044513Y-116388500D01*
X192235487Y-116388500D01*
X192241939Y-116387128D01*
X192241944Y-116387128D01*
X192356649Y-116362746D01*
X192422288Y-116348794D01*
X192578173Y-116279390D01*
X192590722Y-116273803D01*
X192590724Y-116273802D01*
X192596752Y-116271118D01*
X192751253Y-116158866D01*
X192777552Y-116129658D01*
X192874621Y-116021852D01*
X192874622Y-116021851D01*
X192879040Y-116016944D01*
X192955052Y-115885288D01*
X192971223Y-115857279D01*
X192971224Y-115857278D01*
X192974527Y-115851556D01*
X193033542Y-115669928D01*
X193037971Y-115627794D01*
X193042348Y-115586144D01*
X193050907Y-115504706D01*
X193077920Y-115439050D01*
X193087122Y-115428782D01*
X193375445Y-115140459D01*
X193437757Y-115106433D01*
X193508572Y-115111498D01*
X193565408Y-115154045D01*
X193590219Y-115220565D01*
X193590540Y-115229554D01*
X193590540Y-119450648D01*
X193570538Y-119518769D01*
X193553635Y-119539743D01*
X191654262Y-121439115D01*
X191591950Y-121473141D01*
X191565167Y-121476020D01*
X190054247Y-121476020D01*
X190043064Y-121475493D01*
X190035571Y-121473818D01*
X190027645Y-121474067D01*
X190027644Y-121474067D01*
X189967494Y-121475958D01*
X189963535Y-121476020D01*
X189935624Y-121476020D01*
X189931690Y-121476517D01*
X189931689Y-121476517D01*
X189931624Y-121476525D01*
X189919787Y-121477458D01*
X189887970Y-121478458D01*
X189883509Y-121478598D01*
X189875590Y-121478847D01*
X189857934Y-121483976D01*
X189856138Y-121484498D01*
X189836786Y-121488506D01*
X189829715Y-121489400D01*
X189816683Y-121491046D01*
X189809314Y-121493963D01*
X189809312Y-121493964D01*
X189775577Y-121507320D01*
X189764349Y-121511165D01*
X189721887Y-121523502D01*
X189715065Y-121527536D01*
X189715059Y-121527539D01*
X189704448Y-121533814D01*
X189686698Y-121542510D01*
X189675236Y-121547048D01*
X189675231Y-121547051D01*
X189667863Y-121549968D01*
X189661448Y-121554629D01*
X189632105Y-121575947D01*
X189622187Y-121582463D01*
X189603499Y-121593515D01*
X189584117Y-121604978D01*
X189569793Y-121619302D01*
X189554761Y-121632141D01*
X189538373Y-121644048D01*
X189510192Y-121678113D01*
X189502202Y-121686893D01*
X188342345Y-122846750D01*
X188280033Y-122880776D01*
X188231154Y-122881702D01*
X188018373Y-122843800D01*
X188018367Y-122843799D01*
X188013284Y-122842894D01*
X187939452Y-122841992D01*
X187795081Y-122840228D01*
X187795079Y-122840228D01*
X187789911Y-122840165D01*
X187569091Y-122873955D01*
X187356756Y-122943357D01*
X187158607Y-123046507D01*
X187154474Y-123049610D01*
X187154471Y-123049612D01*
X187025656Y-123146329D01*
X186979965Y-123180635D01*
X186825629Y-123342138D01*
X186718201Y-123499621D01*
X186663293Y-123544621D01*
X186592768Y-123552792D01*
X186529021Y-123521538D01*
X186508324Y-123497054D01*
X186427822Y-123372617D01*
X186427820Y-123372614D01*
X186425014Y-123368277D01*
X186274670Y-123203051D01*
X186270619Y-123199852D01*
X186270615Y-123199848D01*
X186103414Y-123067800D01*
X186103410Y-123067798D01*
X186099359Y-123064598D01*
X185903789Y-122956638D01*
X185898920Y-122954914D01*
X185898916Y-122954912D01*
X185698087Y-122883795D01*
X185698083Y-122883794D01*
X185693212Y-122882069D01*
X185688119Y-122881162D01*
X185688116Y-122881161D01*
X185478373Y-122843800D01*
X185478367Y-122843799D01*
X185473284Y-122842894D01*
X185399452Y-122841992D01*
X185255081Y-122840228D01*
X185255079Y-122840228D01*
X185249911Y-122840165D01*
X185029091Y-122873955D01*
X184816756Y-122943357D01*
X184618607Y-123046507D01*
X184614474Y-123049610D01*
X184614471Y-123049612D01*
X184485656Y-123146329D01*
X184439965Y-123180635D01*
X184285629Y-123342138D01*
X184178201Y-123499621D01*
X184123293Y-123544621D01*
X184052768Y-123552792D01*
X183989021Y-123521538D01*
X183968324Y-123497054D01*
X183887822Y-123372617D01*
X183887820Y-123372614D01*
X183885014Y-123368277D01*
X183734670Y-123203051D01*
X183730619Y-123199852D01*
X183730615Y-123199848D01*
X183563414Y-123067800D01*
X183563410Y-123067798D01*
X183559359Y-123064598D01*
X183363789Y-122956638D01*
X183358920Y-122954914D01*
X183358916Y-122954912D01*
X183158087Y-122883795D01*
X183158083Y-122883794D01*
X183153212Y-122882069D01*
X183148119Y-122881162D01*
X183148116Y-122881161D01*
X182938373Y-122843800D01*
X182938367Y-122843799D01*
X182933284Y-122842894D01*
X182859452Y-122841992D01*
X182715081Y-122840228D01*
X182715079Y-122840228D01*
X182709911Y-122840165D01*
X182489091Y-122873955D01*
X182276756Y-122943357D01*
X182078607Y-123046507D01*
X182074474Y-123049610D01*
X182074471Y-123049612D01*
X181945656Y-123146329D01*
X181899965Y-123180635D01*
X181745629Y-123342138D01*
X181638201Y-123499621D01*
X181583293Y-123544621D01*
X181512768Y-123552792D01*
X181449021Y-123521538D01*
X181428324Y-123497054D01*
X181347822Y-123372617D01*
X181347820Y-123372614D01*
X181345014Y-123368277D01*
X181194670Y-123203051D01*
X181190619Y-123199852D01*
X181190615Y-123199848D01*
X181023414Y-123067800D01*
X181023410Y-123067798D01*
X181019359Y-123064598D01*
X180823789Y-122956638D01*
X180818920Y-122954914D01*
X180818916Y-122954912D01*
X180618087Y-122883795D01*
X180618083Y-122883794D01*
X180613212Y-122882069D01*
X180608119Y-122881162D01*
X180608116Y-122881161D01*
X180398373Y-122843800D01*
X180398367Y-122843799D01*
X180393284Y-122842894D01*
X180319452Y-122841992D01*
X180175081Y-122840228D01*
X180175079Y-122840228D01*
X180169911Y-122840165D01*
X179949091Y-122873955D01*
X179771105Y-122932130D01*
X179700141Y-122934281D01*
X179642865Y-122901460D01*
X172653719Y-115912314D01*
X172619693Y-115850002D01*
X172617204Y-115826851D01*
X172617504Y-115824000D01*
X172607209Y-115726045D01*
X172598232Y-115640635D01*
X172598232Y-115640633D01*
X172597542Y-115634072D01*
X172538527Y-115452444D01*
X172443040Y-115287056D01*
X172323277Y-115154045D01*
X172319675Y-115150045D01*
X172319674Y-115150044D01*
X172315253Y-115145134D01*
X172160752Y-115032882D01*
X172154724Y-115030198D01*
X172154722Y-115030197D01*
X171992319Y-114957891D01*
X171992318Y-114957891D01*
X171986288Y-114955206D01*
X171884730Y-114933619D01*
X171805944Y-114916872D01*
X171805939Y-114916872D01*
X171799487Y-114915500D01*
X171608513Y-114915500D01*
X171602061Y-114916872D01*
X171602056Y-114916872D01*
X171523270Y-114933619D01*
X171421712Y-114955206D01*
X171415682Y-114957891D01*
X171415681Y-114957891D01*
X171253278Y-115030197D01*
X171253276Y-115030198D01*
X171247248Y-115032882D01*
X171092747Y-115145134D01*
X171088326Y-115150044D01*
X171088325Y-115150045D01*
X171084724Y-115154045D01*
X170964960Y-115287056D01*
X170869473Y-115452444D01*
X170867431Y-115458728D01*
X170867429Y-115458733D01*
X170864387Y-115468095D01*
X170824313Y-115526700D01*
X170758916Y-115554336D01*
X170688959Y-115542228D01*
X170636654Y-115494221D01*
X170630360Y-115482407D01*
X170616388Y-115452444D01*
X170569505Y-115351902D01*
X170448446Y-115179012D01*
X170441339Y-115168862D01*
X170441337Y-115168859D01*
X170438180Y-115164351D01*
X170276282Y-115002453D01*
X170271774Y-114999296D01*
X170271771Y-114999294D01*
X170152482Y-114915767D01*
X170088731Y-114871128D01*
X170083749Y-114868805D01*
X170083744Y-114868802D01*
X169886207Y-114776690D01*
X169886206Y-114776690D01*
X169881225Y-114774367D01*
X169875917Y-114772945D01*
X169875915Y-114772944D01*
X169665384Y-114716532D01*
X169665382Y-114716532D01*
X169660069Y-114715108D01*
X169431982Y-114695153D01*
X169203895Y-114715108D01*
X169198582Y-114716532D01*
X169198580Y-114716532D01*
X168988049Y-114772944D01*
X168988047Y-114772945D01*
X168982739Y-114774367D01*
X168977758Y-114776690D01*
X168977757Y-114776690D01*
X168780220Y-114868802D01*
X168780215Y-114868805D01*
X168775233Y-114871128D01*
X168711482Y-114915767D01*
X168592193Y-114999294D01*
X168592190Y-114999296D01*
X168587682Y-115002453D01*
X168425784Y-115164351D01*
X168422627Y-115168859D01*
X168422625Y-115168862D01*
X168415518Y-115179012D01*
X168294459Y-115351902D01*
X168292136Y-115356884D01*
X168292133Y-115356889D01*
X168228724Y-115492872D01*
X168197698Y-115559408D01*
X168196276Y-115564716D01*
X168196275Y-115564718D01*
X168155404Y-115717251D01*
X168138439Y-115780564D01*
X168118484Y-116008651D01*
X168138439Y-116236738D01*
X168139863Y-116242051D01*
X168139863Y-116242053D01*
X168188121Y-116422151D01*
X168197698Y-116457894D01*
X168200021Y-116462875D01*
X168200021Y-116462876D01*
X168292133Y-116660413D01*
X168292136Y-116660418D01*
X168294459Y-116665400D01*
X168425784Y-116852951D01*
X168587682Y-117014849D01*
X168592190Y-117018006D01*
X168592193Y-117018008D01*
X168649446Y-117058097D01*
X168775233Y-117146174D01*
X168780215Y-117148497D01*
X168780220Y-117148500D01*
X168961051Y-117232822D01*
X168982739Y-117242935D01*
X168988047Y-117244357D01*
X168988049Y-117244358D01*
X169198580Y-117300770D01*
X169198582Y-117300770D01*
X169203895Y-117302194D01*
X169431982Y-117322149D01*
X169660069Y-117302194D01*
X169665382Y-117300770D01*
X169665384Y-117300770D01*
X169875915Y-117244358D01*
X169875917Y-117244357D01*
X169881225Y-117242935D01*
X169902913Y-117232822D01*
X170083744Y-117148500D01*
X170083749Y-117148497D01*
X170088731Y-117146174D01*
X170214518Y-117058097D01*
X170271771Y-117018008D01*
X170271774Y-117018006D01*
X170276282Y-117014849D01*
X170438180Y-116852951D01*
X170569505Y-116665400D01*
X170571828Y-116660418D01*
X170571831Y-116660413D01*
X170663943Y-116462876D01*
X170663943Y-116462875D01*
X170666266Y-116457894D01*
X170699961Y-116332143D01*
X170736913Y-116271521D01*
X170800774Y-116240499D01*
X170871268Y-116248928D01*
X170926015Y-116294131D01*
X170930787Y-116301755D01*
X170964960Y-116360944D01*
X170969378Y-116365851D01*
X170969379Y-116365852D01*
X171068664Y-116476119D01*
X171092747Y-116502866D01*
X171247248Y-116615118D01*
X171253276Y-116617802D01*
X171253278Y-116617803D01*
X171370309Y-116669908D01*
X171421712Y-116692794D01*
X171515113Y-116712647D01*
X171602056Y-116731128D01*
X171602061Y-116731128D01*
X171608513Y-116732500D01*
X171629906Y-116732500D01*
X171698027Y-116752502D01*
X171719001Y-116769405D01*
X177592550Y-122642954D01*
X177626576Y-122705266D01*
X177621511Y-122776081D01*
X177578964Y-122832917D01*
X177522514Y-122856599D01*
X177409091Y-122873955D01*
X177196756Y-122943357D01*
X176998607Y-123046507D01*
X176994474Y-123049610D01*
X176994471Y-123049612D01*
X176865656Y-123146329D01*
X176819965Y-123180635D01*
X176665629Y-123342138D01*
X176558201Y-123499621D01*
X176503293Y-123544621D01*
X176432768Y-123552792D01*
X176369021Y-123521538D01*
X176348324Y-123497054D01*
X176267822Y-123372617D01*
X176267820Y-123372614D01*
X176265014Y-123368277D01*
X176114670Y-123203051D01*
X176110619Y-123199852D01*
X176110615Y-123199848D01*
X175943414Y-123067800D01*
X175943410Y-123067798D01*
X175939359Y-123064598D01*
X175743789Y-122956638D01*
X175738920Y-122954914D01*
X175738916Y-122954912D01*
X175538081Y-122883793D01*
X175538079Y-122883792D01*
X175533212Y-122882069D01*
X175528126Y-122881163D01*
X175528122Y-122881162D01*
X175504525Y-122876959D01*
X175437526Y-122842007D01*
X173704226Y-121108707D01*
X173696686Y-121100421D01*
X173692574Y-121093942D01*
X173642922Y-121047316D01*
X173640081Y-121044562D01*
X173620344Y-121024825D01*
X173617147Y-121022345D01*
X173608125Y-121014640D01*
X173581674Y-120989801D01*
X173575895Y-120984374D01*
X173568949Y-120980555D01*
X173568946Y-120980553D01*
X173558140Y-120974612D01*
X173541621Y-120963761D01*
X173541157Y-120963401D01*
X173525615Y-120951346D01*
X173518346Y-120948201D01*
X173518342Y-120948198D01*
X173485037Y-120933786D01*
X173474387Y-120928569D01*
X173435634Y-120907265D01*
X173416011Y-120902227D01*
X173397308Y-120895823D01*
X173385994Y-120890927D01*
X173385993Y-120890927D01*
X173378719Y-120887779D01*
X173370896Y-120886540D01*
X173370886Y-120886537D01*
X173335050Y-120880861D01*
X173323430Y-120878455D01*
X173288285Y-120869432D01*
X173288284Y-120869432D01*
X173280604Y-120867460D01*
X173260350Y-120867460D01*
X173240639Y-120865909D01*
X173228460Y-120863980D01*
X173220631Y-120862740D01*
X173212739Y-120863486D01*
X173176613Y-120866901D01*
X173164755Y-120867460D01*
X170700578Y-120867460D01*
X170632457Y-120847458D01*
X170585964Y-120793802D01*
X170575860Y-120723528D01*
X170599752Y-120665895D01*
X170623231Y-120634568D01*
X170682597Y-120555356D01*
X170733727Y-120418967D01*
X170740482Y-120356785D01*
X170740482Y-118660517D01*
X170733727Y-118598335D01*
X170682597Y-118461946D01*
X170595243Y-118345390D01*
X170478687Y-118258036D01*
X170342298Y-118206906D01*
X170280116Y-118200151D01*
X168583848Y-118200151D01*
X168521666Y-118206906D01*
X168385277Y-118258036D01*
X168268721Y-118345390D01*
X168181367Y-118461946D01*
X168130237Y-118598335D01*
X168123482Y-118660517D01*
X168123482Y-120356785D01*
X168130237Y-120418967D01*
X168181367Y-120555356D01*
X168240734Y-120634568D01*
X168264212Y-120665895D01*
X168289060Y-120732401D01*
X168274007Y-120801783D01*
X168223833Y-120852014D01*
X168163386Y-120867460D01*
X159701554Y-120867460D01*
X159633433Y-120847458D01*
X159612459Y-120830555D01*
X158289891Y-119507987D01*
X159962721Y-119507987D01*
X159971548Y-119519605D01*
X160194281Y-119681430D01*
X160200961Y-119685670D01*
X160470572Y-119833890D01*
X160477707Y-119837247D01*
X160763770Y-119950508D01*
X160771296Y-119952953D01*
X161069279Y-120029462D01*
X161077050Y-120030945D01*
X161382278Y-120069503D01*
X161390169Y-120070000D01*
X161697831Y-120070000D01*
X161705722Y-120069503D01*
X162010950Y-120030945D01*
X162018721Y-120029462D01*
X162316704Y-119952953D01*
X162324230Y-119950508D01*
X162610293Y-119837247D01*
X162617428Y-119833890D01*
X162887039Y-119685670D01*
X162893719Y-119681430D01*
X163116823Y-119519336D01*
X163125246Y-119508413D01*
X163118342Y-119495552D01*
X161556812Y-117934022D01*
X161542868Y-117926408D01*
X161541035Y-117926539D01*
X161534420Y-117930790D01*
X159969334Y-119495876D01*
X159962721Y-119507987D01*
X158289891Y-119507987D01*
X156347863Y-117565958D01*
X159031290Y-117565958D01*
X159050607Y-117872994D01*
X159051600Y-117880855D01*
X159109246Y-118183046D01*
X159111217Y-118190723D01*
X159206284Y-118483309D01*
X159209199Y-118490672D01*
X159340189Y-118769041D01*
X159344001Y-118775974D01*
X159508851Y-119035736D01*
X159513495Y-119042129D01*
X159588497Y-119132790D01*
X159601014Y-119141245D01*
X159611752Y-119135038D01*
X161171978Y-117574812D01*
X161178356Y-117563132D01*
X161908408Y-117563132D01*
X161908539Y-117564965D01*
X161912790Y-117571580D01*
X163475145Y-119133935D01*
X163488407Y-119141177D01*
X163498512Y-119133988D01*
X163574505Y-119042129D01*
X163579149Y-119035736D01*
X163743999Y-118775974D01*
X163747811Y-118769041D01*
X163878801Y-118490672D01*
X163881716Y-118483309D01*
X163976783Y-118190723D01*
X163978754Y-118183046D01*
X164036400Y-117880855D01*
X164037393Y-117872994D01*
X164056710Y-117565958D01*
X164056710Y-117558042D01*
X164037393Y-117251006D01*
X164036400Y-117243145D01*
X163978754Y-116940954D01*
X163976783Y-116933277D01*
X163881716Y-116640691D01*
X163878801Y-116633328D01*
X163747811Y-116354959D01*
X163743999Y-116348026D01*
X163579149Y-116088264D01*
X163574505Y-116081871D01*
X163499503Y-115991210D01*
X163486986Y-115982755D01*
X163476248Y-115988962D01*
X161916022Y-117549188D01*
X161908408Y-117563132D01*
X161178356Y-117563132D01*
X161179592Y-117560868D01*
X161179461Y-117559035D01*
X161175210Y-117552420D01*
X159612855Y-115990065D01*
X159599593Y-115982823D01*
X159589488Y-115990012D01*
X159513495Y-116081871D01*
X159508851Y-116088264D01*
X159344001Y-116348026D01*
X159340189Y-116354959D01*
X159209199Y-116633328D01*
X159206284Y-116640691D01*
X159111217Y-116933277D01*
X159109246Y-116940954D01*
X159051600Y-117243145D01*
X159050607Y-117251006D01*
X159031290Y-117558042D01*
X159031290Y-117565958D01*
X156347863Y-117565958D01*
X156083500Y-117301595D01*
X156049474Y-117239283D01*
X156054539Y-117168467D01*
X156097086Y-117111632D01*
X156163606Y-117086821D01*
X156172595Y-117086500D01*
X157529769Y-117086500D01*
X157532825Y-117086200D01*
X157532832Y-117086200D01*
X157591340Y-117080463D01*
X157676833Y-117072080D01*
X157682734Y-117070298D01*
X157682736Y-117070298D01*
X157756053Y-117048162D01*
X157866169Y-117014916D01*
X158040796Y-116922066D01*
X158160289Y-116824610D01*
X158189287Y-116800960D01*
X158189290Y-116800957D01*
X158194062Y-116797065D01*
X158197991Y-116792316D01*
X158316201Y-116649425D01*
X158316203Y-116649421D01*
X158320130Y-116644675D01*
X158414198Y-116470701D01*
X158472682Y-116281768D01*
X158476856Y-116242053D01*
X158492711Y-116091204D01*
X158492711Y-116091202D01*
X158493355Y-116085075D01*
X158475430Y-115888112D01*
X158473092Y-115880166D01*
X158429259Y-115731235D01*
X158429768Y-115658403D01*
X158472682Y-115519768D01*
X158475957Y-115488607D01*
X158492711Y-115329204D01*
X158492711Y-115329202D01*
X158493355Y-115323075D01*
X158478910Y-115164351D01*
X158475989Y-115132251D01*
X158475988Y-115132248D01*
X158475430Y-115126112D01*
X158471993Y-115114432D01*
X158440183Y-115006350D01*
X158429259Y-114969234D01*
X158429768Y-114896403D01*
X158472682Y-114757768D01*
X158477016Y-114716532D01*
X158492711Y-114567204D01*
X158492711Y-114567202D01*
X158493355Y-114561075D01*
X158488719Y-114510134D01*
X159135500Y-114510134D01*
X159142255Y-114572316D01*
X159193385Y-114708705D01*
X159280739Y-114825261D01*
X159397295Y-114912615D01*
X159533684Y-114963745D01*
X159595866Y-114970500D01*
X160615954Y-114970500D01*
X160684075Y-114990502D01*
X160730568Y-115044158D01*
X160740672Y-115114432D01*
X160711178Y-115179012D01*
X160662338Y-115213652D01*
X160477707Y-115286753D01*
X160470572Y-115290110D01*
X160200961Y-115438330D01*
X160194281Y-115442570D01*
X159971177Y-115604664D01*
X159962754Y-115615587D01*
X159969658Y-115628448D01*
X161531188Y-117189978D01*
X161545132Y-117197592D01*
X161546965Y-117197461D01*
X161553580Y-117193210D01*
X163118666Y-115628124D01*
X163125279Y-115616013D01*
X163116452Y-115604395D01*
X162893719Y-115442570D01*
X162887039Y-115438330D01*
X162617428Y-115290110D01*
X162610293Y-115286753D01*
X162425662Y-115213652D01*
X162369688Y-115169977D01*
X162346212Y-115102974D01*
X162362688Y-115033916D01*
X162413883Y-114984727D01*
X162472046Y-114970500D01*
X163492134Y-114970500D01*
X163554316Y-114963745D01*
X163690705Y-114912615D01*
X163807261Y-114825261D01*
X163894615Y-114708705D01*
X163945745Y-114572316D01*
X163952500Y-114510134D01*
X163952500Y-110613866D01*
X163945745Y-110551684D01*
X163894615Y-110415295D01*
X163807261Y-110298739D01*
X163690705Y-110211385D01*
X163554316Y-110160255D01*
X163492134Y-110153500D01*
X159595866Y-110153500D01*
X159533684Y-110160255D01*
X159397295Y-110211385D01*
X159280739Y-110298739D01*
X159193385Y-110415295D01*
X159142255Y-110551684D01*
X159135500Y-110613866D01*
X159135500Y-114510134D01*
X158488719Y-114510134D01*
X158475430Y-114364112D01*
X158464582Y-114327251D01*
X158421330Y-114180294D01*
X158419590Y-114174381D01*
X158409919Y-114155881D01*
X158330813Y-114004568D01*
X158327960Y-113999110D01*
X158204032Y-113844975D01*
X158197727Y-113839684D01*
X158176949Y-113822250D01*
X158052526Y-113717846D01*
X158047128Y-113714879D01*
X158047123Y-113714875D01*
X157903820Y-113636095D01*
X157879213Y-113622567D01*
X157873346Y-113620706D01*
X157873344Y-113620705D01*
X157696564Y-113564627D01*
X157696563Y-113564627D01*
X157690694Y-113562765D01*
X157536773Y-113545500D01*
X155398231Y-113545500D01*
X155395175Y-113545800D01*
X155395168Y-113545800D01*
X155336660Y-113551537D01*
X155251167Y-113559920D01*
X155245266Y-113561702D01*
X155245264Y-113561702D01*
X155174474Y-113583075D01*
X155061831Y-113617084D01*
X154887204Y-113709934D01*
X154845867Y-113743648D01*
X154738713Y-113831040D01*
X154738710Y-113831043D01*
X154733938Y-113834935D01*
X154730011Y-113839682D01*
X154730009Y-113839684D01*
X154611799Y-113982575D01*
X154611797Y-113982579D01*
X154607870Y-113987325D01*
X154513802Y-114161299D01*
X154455318Y-114350232D01*
X154454674Y-114356357D01*
X154454674Y-114356358D01*
X154440636Y-114489928D01*
X154434645Y-114546925D01*
X154442153Y-114629424D01*
X154451488Y-114731994D01*
X154452029Y-114737939D01*
X154452570Y-114743888D01*
X154451439Y-114743991D01*
X154445147Y-114808535D01*
X154401150Y-114864255D01*
X154334012Y-114887344D01*
X154267181Y-114871059D01*
X154267149Y-114871128D01*
X154266806Y-114870968D01*
X154059643Y-114774367D01*
X154054335Y-114772945D01*
X154054333Y-114772944D01*
X153843802Y-114716532D01*
X153843800Y-114716532D01*
X153838487Y-114715108D01*
X153610400Y-114695153D01*
X153382313Y-114715108D01*
X153377000Y-114716532D01*
X153376998Y-114716532D01*
X153166467Y-114772944D01*
X153166465Y-114772945D01*
X153161157Y-114774367D01*
X153156176Y-114776690D01*
X153156175Y-114776690D01*
X152958638Y-114868802D01*
X152958633Y-114868805D01*
X152953651Y-114871128D01*
X152889900Y-114915767D01*
X152770611Y-114999294D01*
X152770608Y-114999296D01*
X152766100Y-115002453D01*
X152604202Y-115164351D01*
X152601045Y-115168859D01*
X152601043Y-115168862D01*
X152593936Y-115179012D01*
X152472877Y-115351902D01*
X152470554Y-115356884D01*
X152470551Y-115356889D01*
X152391570Y-115526266D01*
X152344653Y-115579551D01*
X152276376Y-115599012D01*
X152226126Y-115588123D01*
X152213250Y-115582390D01*
X152169162Y-115562761D01*
X152104319Y-115533891D01*
X152104318Y-115533891D01*
X152098288Y-115531206D01*
X152004887Y-115511353D01*
X151917944Y-115492872D01*
X151917939Y-115492872D01*
X151911487Y-115491500D01*
X151720513Y-115491500D01*
X151714061Y-115492872D01*
X151714056Y-115492872D01*
X151627113Y-115511353D01*
X151533712Y-115531206D01*
X151527682Y-115533891D01*
X151527681Y-115533891D01*
X151365278Y-115606197D01*
X151365276Y-115606198D01*
X151359248Y-115608882D01*
X151353907Y-115612762D01*
X151353906Y-115612763D01*
X151350637Y-115615138D01*
X151204747Y-115721134D01*
X151200326Y-115726044D01*
X151200325Y-115726045D01*
X151082162Y-115857279D01*
X151076960Y-115863056D01*
X151044949Y-115918500D01*
X150988113Y-116016944D01*
X150981473Y-116028444D01*
X150922458Y-116210072D01*
X150921768Y-116216633D01*
X150921768Y-116216635D01*
X150906085Y-116365852D01*
X150902496Y-116400000D01*
X150903186Y-116406565D01*
X150917530Y-116543036D01*
X150922458Y-116589928D01*
X150981473Y-116771556D01*
X151076960Y-116936944D01*
X151081378Y-116941851D01*
X151081379Y-116941852D01*
X151187822Y-117060069D01*
X151204747Y-117078866D01*
X151291755Y-117142081D01*
X151342531Y-117178972D01*
X151359248Y-117191118D01*
X151365277Y-117193802D01*
X151365280Y-117193804D01*
X151431583Y-117223323D01*
X151469431Y-117249335D01*
X151690923Y-117470828D01*
X151902353Y-117682258D01*
X151909887Y-117690537D01*
X151914000Y-117697018D01*
X151963651Y-117743643D01*
X151966493Y-117746398D01*
X151986230Y-117766135D01*
X151989427Y-117768615D01*
X151998447Y-117776318D01*
X152030679Y-117806586D01*
X152037625Y-117810405D01*
X152037628Y-117810407D01*
X152048434Y-117816348D01*
X152064953Y-117827199D01*
X152080959Y-117839614D01*
X152088228Y-117842759D01*
X152088232Y-117842762D01*
X152121537Y-117857174D01*
X152132187Y-117862391D01*
X152170940Y-117883695D01*
X152178615Y-117885666D01*
X152178616Y-117885666D01*
X152190562Y-117888733D01*
X152209267Y-117895137D01*
X152227855Y-117903181D01*
X152235678Y-117904420D01*
X152235688Y-117904423D01*
X152271524Y-117910099D01*
X152283144Y-117912505D01*
X152318289Y-117921528D01*
X152325970Y-117923500D01*
X152346224Y-117923500D01*
X152365934Y-117925051D01*
X152385943Y-117928220D01*
X152393835Y-117927474D01*
X152429961Y-117924059D01*
X152441819Y-117923500D01*
X154861406Y-117923500D01*
X154929527Y-117943502D01*
X154950501Y-117960405D01*
X157553500Y-120563405D01*
X157587526Y-120625717D01*
X157582461Y-120696533D01*
X157539914Y-120753368D01*
X157473394Y-120778179D01*
X157464405Y-120778500D01*
X157172200Y-120778500D01*
X157104079Y-120758498D01*
X157084853Y-120742157D01*
X157084580Y-120742460D01*
X157079668Y-120738037D01*
X157075253Y-120733134D01*
X156998395Y-120677293D01*
X156926094Y-120624763D01*
X156926093Y-120624762D01*
X156920752Y-120620882D01*
X156914724Y-120618198D01*
X156914722Y-120618197D01*
X156752319Y-120545891D01*
X156752318Y-120545891D01*
X156746288Y-120543206D01*
X156652887Y-120523353D01*
X156565944Y-120504872D01*
X156565939Y-120504872D01*
X156559487Y-120503500D01*
X156368513Y-120503500D01*
X156362061Y-120504872D01*
X156362056Y-120504872D01*
X156275113Y-120523353D01*
X156181712Y-120543206D01*
X156175682Y-120545891D01*
X156175681Y-120545891D01*
X156013278Y-120618197D01*
X156013276Y-120618198D01*
X156007248Y-120620882D01*
X156001907Y-120624762D01*
X156001906Y-120624763D01*
X155929605Y-120677293D01*
X155852747Y-120733134D01*
X155848332Y-120738037D01*
X155843420Y-120742460D01*
X155842295Y-120741211D01*
X155788986Y-120774051D01*
X155755800Y-120778500D01*
X154945668Y-120778500D01*
X154877547Y-120758498D01*
X154831054Y-120704842D01*
X154820950Y-120634568D01*
X154844843Y-120576934D01*
X154855629Y-120562543D01*
X154855630Y-120562541D01*
X154861015Y-120555356D01*
X154912145Y-120418967D01*
X154918900Y-120356785D01*
X154918900Y-118660517D01*
X154912145Y-118598335D01*
X154861015Y-118461946D01*
X154773661Y-118345390D01*
X154657105Y-118258036D01*
X154520716Y-118206906D01*
X154458534Y-118200151D01*
X152762266Y-118200151D01*
X152700084Y-118206906D01*
X152563695Y-118258036D01*
X152447139Y-118345390D01*
X152359785Y-118461946D01*
X152308655Y-118598335D01*
X152301900Y-118660517D01*
X152301900Y-120356785D01*
X152308655Y-120418967D01*
X152359785Y-120555356D01*
X152447139Y-120671912D01*
X152563695Y-120759266D01*
X152572103Y-120762418D01*
X152638750Y-120787403D01*
X152695514Y-120830045D01*
X152720214Y-120896606D01*
X152705007Y-120965955D01*
X152683615Y-120994481D01*
X152398019Y-121280076D01*
X152335707Y-121314101D01*
X152308924Y-121316980D01*
X138697272Y-121316980D01*
X138629151Y-121296978D01*
X138608177Y-121280075D01*
X135662405Y-118334303D01*
X135628379Y-118271991D01*
X135625500Y-118245208D01*
X135625500Y-115002524D01*
X135645502Y-114934403D01*
X135657858Y-114918221D01*
X135731040Y-114836944D01*
X135826527Y-114671556D01*
X135885542Y-114489928D01*
X135900225Y-114350232D01*
X135904814Y-114306565D01*
X135905504Y-114300000D01*
X135890038Y-114152849D01*
X135886232Y-114116635D01*
X135886232Y-114116633D01*
X135885542Y-114110072D01*
X135826527Y-113928444D01*
X135818156Y-113913944D01*
X135734341Y-113768774D01*
X135731040Y-113763056D01*
X135644546Y-113666994D01*
X135607675Y-113626045D01*
X135607674Y-113626044D01*
X135603253Y-113621134D01*
X135499152Y-113545500D01*
X135454094Y-113512763D01*
X135454093Y-113512762D01*
X135448752Y-113508882D01*
X135442724Y-113506198D01*
X135442722Y-113506197D01*
X135280319Y-113433891D01*
X135280318Y-113433891D01*
X135274288Y-113431206D01*
X135180887Y-113411353D01*
X135093944Y-113392872D01*
X135093939Y-113392872D01*
X135087487Y-113391500D01*
X134896513Y-113391500D01*
X134890061Y-113392872D01*
X134890056Y-113392872D01*
X134803113Y-113411353D01*
X134709712Y-113431206D01*
X134703682Y-113433891D01*
X134703681Y-113433891D01*
X134541278Y-113506197D01*
X134541276Y-113506198D01*
X134535248Y-113508882D01*
X134529907Y-113512762D01*
X134529906Y-113512763D01*
X134484848Y-113545500D01*
X134380747Y-113621134D01*
X134376326Y-113626044D01*
X134376325Y-113626045D01*
X134339455Y-113666994D01*
X134252960Y-113763056D01*
X134249659Y-113768774D01*
X134165845Y-113913944D01*
X134157473Y-113928444D01*
X134098458Y-114110072D01*
X134097768Y-114116633D01*
X134097768Y-114116635D01*
X134093962Y-114152849D01*
X134078496Y-114300000D01*
X134079186Y-114306565D01*
X134083776Y-114350232D01*
X134098458Y-114489928D01*
X134157473Y-114671556D01*
X134252960Y-114836944D01*
X134326137Y-114918215D01*
X134356853Y-114982221D01*
X134358500Y-115002524D01*
X134358500Y-117535251D01*
X134338498Y-117603372D01*
X134284842Y-117649865D01*
X134214568Y-117659969D01*
X134149988Y-117630475D01*
X134143405Y-117624346D01*
X133122405Y-116603346D01*
X133088379Y-116541034D01*
X133085500Y-116514251D01*
X133085500Y-109461091D01*
X133105502Y-109392970D01*
X133159158Y-109346477D01*
X133229432Y-109336373D01*
X133237697Y-109337844D01*
X133366056Y-109365128D01*
X133366061Y-109365128D01*
X133372513Y-109366500D01*
X133563487Y-109366500D01*
X133569939Y-109365128D01*
X133569944Y-109365128D01*
X133657687Y-109346477D01*
X133750288Y-109326794D01*
X133779004Y-109314009D01*
X133918722Y-109251803D01*
X133918724Y-109251802D01*
X133924752Y-109249118D01*
X133948992Y-109231507D01*
X134030755Y-109172102D01*
X134079253Y-109136866D01*
X134086067Y-109129298D01*
X134202621Y-108999852D01*
X134202622Y-108999851D01*
X134207040Y-108994944D01*
X134292128Y-108847568D01*
X134299223Y-108835279D01*
X134299224Y-108835278D01*
X134302527Y-108829556D01*
X134361542Y-108647928D01*
X134364007Y-108624481D01*
X134371006Y-108557884D01*
X134378907Y-108482706D01*
X134405920Y-108417050D01*
X134415122Y-108406782D01*
X134686299Y-108135605D01*
X134748611Y-108101579D01*
X134775394Y-108098700D01*
X136896327Y-108098700D01*
X136964448Y-108118702D01*
X137010941Y-108172358D01*
X137021045Y-108242632D01*
X136992281Y-108306362D01*
X136938530Y-108369520D01*
X136812779Y-108577158D01*
X136721845Y-108802229D01*
X136715357Y-108830787D01*
X136674147Y-109012176D01*
X136668065Y-109038944D01*
X136667747Y-109043991D01*
X136667747Y-109043994D01*
X136657123Y-109212858D01*
X136652822Y-109281213D01*
X136676511Y-109522802D01*
X136738519Y-109757496D01*
X136740575Y-109762113D01*
X136740575Y-109762114D01*
X136783794Y-109859184D01*
X136837254Y-109979256D01*
X136970174Y-110182378D01*
X136988232Y-110202154D01*
X137076426Y-110298739D01*
X137133858Y-110361636D01*
X137212167Y-110423703D01*
X137320129Y-110509273D01*
X137320135Y-110509277D01*
X137324098Y-110512418D01*
X137423291Y-110567855D01*
X137526796Y-110625702D01*
X137535998Y-110630845D01*
X137614836Y-110659540D01*
X137759348Y-110712139D01*
X137759353Y-110712140D01*
X137764105Y-110713870D01*
X137769074Y-110714818D01*
X137769078Y-110714819D01*
X137997578Y-110758407D01*
X138002553Y-110759356D01*
X138158051Y-110763700D01*
X138240150Y-110765993D01*
X138240153Y-110765993D01*
X138245205Y-110766134D01*
X138250218Y-110765465D01*
X138250220Y-110765465D01*
X138480806Y-110734698D01*
X138485820Y-110734029D01*
X138490663Y-110732567D01*
X138495611Y-110731497D01*
X138495823Y-110732475D01*
X138522738Y-110728500D01*
X141411423Y-110728500D01*
X141479544Y-110748502D01*
X141526037Y-110802158D01*
X141536141Y-110872432D01*
X141506647Y-110937012D01*
X141500518Y-110943595D01*
X139526318Y-112917795D01*
X139464006Y-112951821D01*
X139437223Y-112954700D01*
X139381331Y-112954700D01*
X139374879Y-112956072D01*
X139374874Y-112956072D01*
X139303554Y-112971232D01*
X139194530Y-112994406D01*
X139188500Y-112997091D01*
X139188499Y-112997091D01*
X139026096Y-113069397D01*
X139026094Y-113069398D01*
X139020066Y-113072082D01*
X138865565Y-113184334D01*
X138861144Y-113189244D01*
X138861143Y-113189245D01*
X138788084Y-113270386D01*
X138737778Y-113326256D01*
X138642291Y-113491644D01*
X138583276Y-113673272D01*
X138582586Y-113679833D01*
X138582586Y-113679835D01*
X138564988Y-113847274D01*
X138563314Y-113863200D01*
X138564004Y-113869765D01*
X138577599Y-113999110D01*
X138583276Y-114053128D01*
X138642291Y-114234756D01*
X138737778Y-114400144D01*
X138742196Y-114405051D01*
X138742197Y-114405052D01*
X138833737Y-114506717D01*
X138865565Y-114542066D01*
X139020066Y-114654318D01*
X139026094Y-114657002D01*
X139026096Y-114657003D01*
X139188499Y-114729309D01*
X139194530Y-114731994D01*
X139286966Y-114751642D01*
X139374874Y-114770328D01*
X139374879Y-114770328D01*
X139381331Y-114771700D01*
X139572305Y-114771700D01*
X139578757Y-114770328D01*
X139578762Y-114770328D01*
X139666670Y-114751642D01*
X139759106Y-114731994D01*
X139765137Y-114729309D01*
X139927540Y-114657003D01*
X139927542Y-114657002D01*
X139933570Y-114654318D01*
X140088071Y-114542066D01*
X140119899Y-114506717D01*
X140211439Y-114405052D01*
X140211440Y-114405051D01*
X140215858Y-114400144D01*
X140311345Y-114234756D01*
X140370360Y-114053128D01*
X140376038Y-113999110D01*
X140387725Y-113887907D01*
X140414738Y-113822250D01*
X140423940Y-113811982D01*
X142055294Y-112180628D01*
X142117606Y-112146602D01*
X142188421Y-112151667D01*
X142247285Y-112197002D01*
X142284314Y-112249397D01*
X142430245Y-112391557D01*
X142435041Y-112394762D01*
X142435044Y-112394764D01*
X142506859Y-112442749D01*
X142599638Y-112504742D01*
X142604941Y-112507020D01*
X142604944Y-112507022D01*
X142781515Y-112582883D01*
X142786822Y-112585163D01*
X142857334Y-112601118D01*
X142979890Y-112628850D01*
X142979895Y-112628851D01*
X142985527Y-112630125D01*
X142991298Y-112630352D01*
X142991300Y-112630352D01*
X143047657Y-112632566D01*
X143189098Y-112638123D01*
X143390718Y-112608890D01*
X143396182Y-112607035D01*
X143396187Y-112607034D01*
X143583634Y-112543404D01*
X143583942Y-112544311D01*
X143628216Y-112534900D01*
X146545863Y-112534900D01*
X146613984Y-112554902D01*
X146660477Y-112608558D01*
X146665386Y-112621023D01*
X146702075Y-112730991D01*
X146704796Y-112739146D01*
X146797868Y-112889548D01*
X146923043Y-113014505D01*
X146929273Y-113018345D01*
X146929274Y-113018346D01*
X147066436Y-113102894D01*
X147073608Y-113107315D01*
X147153351Y-113133764D01*
X147234957Y-113160832D01*
X147234959Y-113160832D01*
X147241485Y-113162997D01*
X147248321Y-113163697D01*
X147248324Y-113163698D01*
X147289826Y-113167950D01*
X147345946Y-113173700D01*
X149946746Y-113173700D01*
X149949992Y-113173363D01*
X149949996Y-113173363D01*
X150045654Y-113163438D01*
X150045658Y-113163437D01*
X150052512Y-113162726D01*
X150059048Y-113160545D01*
X150059050Y-113160545D01*
X150191152Y-113116472D01*
X150220292Y-113106750D01*
X150370694Y-113013678D01*
X150404228Y-112980086D01*
X150490480Y-112893683D01*
X150495651Y-112888503D01*
X150514769Y-112857488D01*
X150584621Y-112744168D01*
X150584622Y-112744166D01*
X150588461Y-112737938D01*
X150623844Y-112631261D01*
X150641978Y-112576589D01*
X150641978Y-112576587D01*
X150644143Y-112570061D01*
X150648576Y-112526800D01*
X150650602Y-112507022D01*
X150654846Y-112465600D01*
X150654846Y-111361389D01*
X150674848Y-111293268D01*
X150728504Y-111246775D01*
X150780846Y-111235389D01*
X150803967Y-111235389D01*
X150807902Y-111234892D01*
X150807967Y-111234884D01*
X150819804Y-111233951D01*
X150852062Y-111232937D01*
X150856081Y-111232811D01*
X150864000Y-111232562D01*
X150883454Y-111226910D01*
X150902811Y-111222902D01*
X150915041Y-111221357D01*
X150915042Y-111221357D01*
X150922908Y-111220363D01*
X150930279Y-111217444D01*
X150930281Y-111217444D01*
X150964023Y-111204085D01*
X150975253Y-111200240D01*
X151010094Y-111190118D01*
X151010095Y-111190118D01*
X151017704Y-111187907D01*
X151024523Y-111183874D01*
X151024528Y-111183872D01*
X151035139Y-111177596D01*
X151052887Y-111168901D01*
X151071728Y-111161441D01*
X151107498Y-111135453D01*
X151117418Y-111128937D01*
X151148646Y-111110469D01*
X151148649Y-111110467D01*
X151155473Y-111106431D01*
X151169794Y-111092110D01*
X151184828Y-111079269D01*
X151201218Y-111067361D01*
X151229409Y-111033284D01*
X151237399Y-111024505D01*
X153641268Y-108620636D01*
X153649558Y-108613092D01*
X153656039Y-108608979D01*
X153702680Y-108559311D01*
X153705434Y-108556470D01*
X153725155Y-108536749D01*
X153727633Y-108533554D01*
X153735339Y-108524532D01*
X153737796Y-108521916D01*
X153765607Y-108492300D01*
X153771753Y-108481121D01*
X153775367Y-108474547D01*
X153786220Y-108458024D01*
X153789195Y-108454189D01*
X153798634Y-108442020D01*
X153816197Y-108401436D01*
X153821404Y-108390806D01*
X153842716Y-108352039D01*
X153844687Y-108344362D01*
X153844689Y-108344357D01*
X153847753Y-108332421D01*
X153854159Y-108313709D01*
X153854173Y-108313678D01*
X153862202Y-108295124D01*
X153865633Y-108273466D01*
X153869118Y-108251460D01*
X153871525Y-108239839D01*
X153880549Y-108204690D01*
X153880549Y-108204689D01*
X153882521Y-108197009D01*
X153882521Y-108176748D01*
X153884072Y-108157037D01*
X153886000Y-108144864D01*
X153887240Y-108137036D01*
X153883080Y-108093025D01*
X153882521Y-108081168D01*
X153882521Y-107559610D01*
X153902523Y-107491489D01*
X153956179Y-107444996D01*
X154008521Y-107433610D01*
X154725244Y-107433610D01*
X154728639Y-107433241D01*
X154728643Y-107433241D01*
X154770253Y-107428721D01*
X154840136Y-107441250D01*
X154892151Y-107489571D01*
X154909860Y-107553984D01*
X154909860Y-110735577D01*
X154889858Y-110803698D01*
X154836202Y-110850191D01*
X154810058Y-110858824D01*
X154657712Y-110891206D01*
X154651682Y-110893891D01*
X154651681Y-110893891D01*
X154489278Y-110966197D01*
X154489276Y-110966198D01*
X154483248Y-110968882D01*
X154328747Y-111081134D01*
X154324326Y-111086044D01*
X154324325Y-111086045D01*
X154206939Y-111216416D01*
X154200960Y-111223056D01*
X154157499Y-111298333D01*
X154110885Y-111379071D01*
X154105473Y-111388444D01*
X154046458Y-111570072D01*
X154045768Y-111576633D01*
X154045768Y-111576635D01*
X154031879Y-111708783D01*
X154026496Y-111760000D01*
X154046458Y-111949928D01*
X154105473Y-112131556D01*
X154200960Y-112296944D01*
X154328747Y-112438866D01*
X154365543Y-112465600D01*
X154472631Y-112543404D01*
X154483248Y-112551118D01*
X154489276Y-112553802D01*
X154489278Y-112553803D01*
X154651681Y-112626109D01*
X154657712Y-112628794D01*
X154743764Y-112647085D01*
X154838056Y-112667128D01*
X154838061Y-112667128D01*
X154844513Y-112668500D01*
X155035487Y-112668500D01*
X155041939Y-112667128D01*
X155041944Y-112667128D01*
X155136236Y-112647085D01*
X155222288Y-112628794D01*
X155228319Y-112626109D01*
X155390722Y-112553803D01*
X155390724Y-112553802D01*
X155396752Y-112551118D01*
X155407370Y-112543404D01*
X155514457Y-112465600D01*
X155551253Y-112438866D01*
X155679040Y-112296944D01*
X155774527Y-112131556D01*
X155833542Y-111949928D01*
X155850907Y-111784708D01*
X155877920Y-111719051D01*
X155887122Y-111708783D01*
X155935613Y-111660292D01*
X155943899Y-111652752D01*
X155950378Y-111648640D01*
X155997004Y-111598988D01*
X155999758Y-111596147D01*
X156019495Y-111576410D01*
X156021975Y-111573213D01*
X156029680Y-111564191D01*
X156054519Y-111537740D01*
X156059946Y-111531961D01*
X156063765Y-111525015D01*
X156063767Y-111525012D01*
X156069708Y-111514206D01*
X156080559Y-111497687D01*
X156088118Y-111487941D01*
X156092974Y-111481681D01*
X156096119Y-111474412D01*
X156096122Y-111474408D01*
X156110534Y-111441103D01*
X156115751Y-111430453D01*
X156137055Y-111391700D01*
X156139361Y-111382721D01*
X156142093Y-111372078D01*
X156148497Y-111353374D01*
X156153393Y-111342060D01*
X156153393Y-111342059D01*
X156156541Y-111334785D01*
X156157780Y-111326962D01*
X156157783Y-111326952D01*
X156163459Y-111291116D01*
X156165865Y-111279496D01*
X156174888Y-111244351D01*
X156174888Y-111244350D01*
X156176860Y-111236670D01*
X156176860Y-111216416D01*
X156178411Y-111196705D01*
X156179805Y-111187907D01*
X156181580Y-111176697D01*
X156177419Y-111132678D01*
X156176860Y-111120821D01*
X156176860Y-110581317D01*
X156196862Y-110513196D01*
X156250518Y-110466703D01*
X156320792Y-110456599D01*
X156385372Y-110486093D01*
X156411978Y-110518315D01*
X156416960Y-110526944D01*
X156421378Y-110531851D01*
X156421379Y-110531852D01*
X156503452Y-110623003D01*
X156544747Y-110668866D01*
X156607996Y-110714819D01*
X156690167Y-110774520D01*
X156699248Y-110781118D01*
X156705276Y-110783802D01*
X156705278Y-110783803D01*
X156865518Y-110855146D01*
X156873712Y-110858794D01*
X156967113Y-110878647D01*
X157054056Y-110897128D01*
X157054061Y-110897128D01*
X157060513Y-110898500D01*
X157251487Y-110898500D01*
X157257939Y-110897128D01*
X157257944Y-110897128D01*
X157344888Y-110878647D01*
X157438288Y-110858794D01*
X157446482Y-110855146D01*
X157606722Y-110783803D01*
X157606724Y-110783802D01*
X157612752Y-110781118D01*
X157621834Y-110774520D01*
X157745671Y-110684546D01*
X157767253Y-110668866D01*
X157771668Y-110663963D01*
X157776580Y-110659540D01*
X157777705Y-110660789D01*
X157831014Y-110627949D01*
X157864200Y-110623500D01*
X158187233Y-110623500D01*
X158198416Y-110624027D01*
X158205909Y-110625702D01*
X158213835Y-110625453D01*
X158213836Y-110625453D01*
X158273986Y-110623562D01*
X158277945Y-110623500D01*
X158305856Y-110623500D01*
X158309791Y-110623003D01*
X158309856Y-110622995D01*
X158321693Y-110622062D01*
X158353951Y-110621048D01*
X158357970Y-110620922D01*
X158365889Y-110620673D01*
X158385343Y-110615021D01*
X158404700Y-110611013D01*
X158416930Y-110609468D01*
X158416931Y-110609468D01*
X158424797Y-110608474D01*
X158432168Y-110605555D01*
X158432170Y-110605555D01*
X158465912Y-110592196D01*
X158477142Y-110588351D01*
X158511983Y-110578229D01*
X158511984Y-110578229D01*
X158519593Y-110576018D01*
X158526412Y-110571985D01*
X158526417Y-110571983D01*
X158537028Y-110565707D01*
X158554776Y-110557012D01*
X158573617Y-110549552D01*
X158609387Y-110523564D01*
X158619307Y-110517048D01*
X158650535Y-110498580D01*
X158650538Y-110498578D01*
X158657362Y-110494542D01*
X158671683Y-110480221D01*
X158686717Y-110467380D01*
X158696694Y-110460131D01*
X158703107Y-110455472D01*
X158731298Y-110421395D01*
X158739288Y-110412616D01*
X160158247Y-108993657D01*
X160166537Y-108986113D01*
X160173018Y-108982000D01*
X160182826Y-108971556D01*
X160219658Y-108932333D01*
X160222413Y-108929491D01*
X160242134Y-108909770D01*
X160244612Y-108906575D01*
X160252318Y-108897553D01*
X160263743Y-108885387D01*
X160282586Y-108865321D01*
X160292346Y-108847568D01*
X160303199Y-108831045D01*
X160309229Y-108823271D01*
X160315613Y-108815041D01*
X160333176Y-108774457D01*
X160338383Y-108763827D01*
X160359695Y-108725060D01*
X160361666Y-108717383D01*
X160361668Y-108717378D01*
X160364732Y-108705442D01*
X160371138Y-108686730D01*
X160376034Y-108675417D01*
X160379181Y-108668145D01*
X160380888Y-108657372D01*
X160386097Y-108624481D01*
X160388504Y-108612860D01*
X160397528Y-108577711D01*
X160397528Y-108577710D01*
X160399500Y-108570030D01*
X160399500Y-108549769D01*
X160401051Y-108530058D01*
X160402156Y-108523085D01*
X160404219Y-108510057D01*
X160400059Y-108466046D01*
X160399500Y-108454189D01*
X160399500Y-102371795D01*
X160419502Y-102303674D01*
X160436405Y-102282699D01*
X161210802Y-101508303D01*
X161273114Y-101474278D01*
X161299897Y-101471399D01*
X161355788Y-101471399D01*
X161362240Y-101470027D01*
X161362245Y-101470027D01*
X161479608Y-101445080D01*
X161542589Y-101431693D01*
X161591151Y-101410072D01*
X161711023Y-101356702D01*
X161711025Y-101356701D01*
X161717053Y-101354017D01*
X161871554Y-101241765D01*
X161923116Y-101184500D01*
X161994922Y-101104751D01*
X161994923Y-101104750D01*
X161999341Y-101099843D01*
X162063903Y-100988018D01*
X162091524Y-100940178D01*
X162091525Y-100940177D01*
X162094828Y-100934455D01*
X162153843Y-100752827D01*
X162156116Y-100731206D01*
X162173115Y-100569464D01*
X162173805Y-100562899D01*
X162159520Y-100426984D01*
X162154533Y-100379534D01*
X162154533Y-100379532D01*
X162153843Y-100372971D01*
X162094828Y-100191343D01*
X162090685Y-100184166D01*
X162010442Y-100045183D01*
X161999341Y-100025955D01*
X161926164Y-99944684D01*
X161895448Y-99880678D01*
X161893801Y-99860375D01*
X161893801Y-98908054D01*
X161913803Y-98839933D01*
X161967459Y-98793440D01*
X162019801Y-98782054D01*
X162127809Y-98782054D01*
X162162964Y-98787058D01*
X162166325Y-98788034D01*
X162173596Y-98791181D01*
X162181420Y-98792420D01*
X162181426Y-98792422D01*
X162217265Y-98798099D01*
X162228885Y-98800505D01*
X162259169Y-98808280D01*
X162271711Y-98811500D01*
X162291965Y-98811500D01*
X162311675Y-98813051D01*
X162331684Y-98816220D01*
X162339576Y-98815474D01*
X162375702Y-98812059D01*
X162387560Y-98811500D01*
X162753406Y-98811500D01*
X162821527Y-98831502D01*
X162842501Y-98848405D01*
X163942878Y-99948783D01*
X163976904Y-100011095D01*
X163979093Y-100024708D01*
X163991804Y-100145644D01*
X163996458Y-100189928D01*
X164055473Y-100371556D01*
X164058776Y-100377278D01*
X164058777Y-100377279D01*
X164087474Y-100426984D01*
X164150960Y-100536944D01*
X164155375Y-100541847D01*
X164155379Y-100541852D01*
X164180136Y-100569347D01*
X164210853Y-100633355D01*
X164212500Y-100653658D01*
X164212500Y-106733733D01*
X164211973Y-106744916D01*
X164210298Y-106752409D01*
X164210547Y-106760335D01*
X164210547Y-106760336D01*
X164212438Y-106820486D01*
X164212500Y-106824445D01*
X164212500Y-106852356D01*
X164212997Y-106856290D01*
X164212997Y-106856291D01*
X164213005Y-106856356D01*
X164213938Y-106868193D01*
X164215327Y-106912389D01*
X164220688Y-106930841D01*
X164220978Y-106931839D01*
X164224987Y-106951200D01*
X164226067Y-106959745D01*
X164227526Y-106971297D01*
X164230445Y-106978668D01*
X164230445Y-106978670D01*
X164243804Y-107012412D01*
X164247649Y-107023642D01*
X164251308Y-107036236D01*
X164259982Y-107066093D01*
X164264015Y-107072912D01*
X164264017Y-107072917D01*
X164270293Y-107083528D01*
X164278988Y-107101276D01*
X164286448Y-107120117D01*
X164291110Y-107126533D01*
X164291110Y-107126534D01*
X164312436Y-107155887D01*
X164318952Y-107165807D01*
X164341458Y-107203862D01*
X164355779Y-107218183D01*
X164368619Y-107233216D01*
X164380528Y-107249607D01*
X164391441Y-107258635D01*
X164414605Y-107277798D01*
X164423384Y-107285788D01*
X164528378Y-107390782D01*
X164562404Y-107453094D01*
X164564592Y-107466703D01*
X164573152Y-107548144D01*
X164580882Y-107621686D01*
X164581958Y-107631928D01*
X164640973Y-107813556D01*
X164736460Y-107978944D01*
X164740878Y-107983851D01*
X164740879Y-107983852D01*
X164812195Y-108063056D01*
X164864247Y-108120866D01*
X164939313Y-108175405D01*
X164989521Y-108211883D01*
X165018748Y-108233118D01*
X165024776Y-108235802D01*
X165024778Y-108235803D01*
X165187181Y-108308109D01*
X165193212Y-108310794D01*
X165286613Y-108330647D01*
X165373556Y-108349128D01*
X165373561Y-108349128D01*
X165380013Y-108350500D01*
X165439246Y-108350500D01*
X165507367Y-108370502D01*
X165553860Y-108424158D01*
X165563601Y-108481931D01*
X165564298Y-108481909D01*
X165564458Y-108487015D01*
X165564459Y-108487019D01*
X165564547Y-108489832D01*
X165564547Y-108489833D01*
X165566438Y-108549986D01*
X165566500Y-108553945D01*
X165566500Y-108581856D01*
X165566997Y-108585790D01*
X165566997Y-108585791D01*
X165567005Y-108585856D01*
X165567938Y-108597693D01*
X165569327Y-108641889D01*
X165574681Y-108660318D01*
X165574978Y-108661339D01*
X165578987Y-108680700D01*
X165581526Y-108700797D01*
X165584445Y-108708168D01*
X165584445Y-108708170D01*
X165597804Y-108741912D01*
X165601649Y-108753142D01*
X165611771Y-108787983D01*
X165613982Y-108795593D01*
X165618015Y-108802412D01*
X165618017Y-108802417D01*
X165624293Y-108813028D01*
X165632988Y-108830776D01*
X165640448Y-108849617D01*
X165645110Y-108856033D01*
X165645110Y-108856034D01*
X165666436Y-108885387D01*
X165672952Y-108895307D01*
X165695458Y-108933362D01*
X165692561Y-108935075D01*
X165712440Y-108984492D01*
X165719249Y-109049278D01*
X165728979Y-109141852D01*
X165730458Y-109155928D01*
X165789473Y-109337556D01*
X165792776Y-109343278D01*
X165792777Y-109343279D01*
X165800410Y-109356500D01*
X165884960Y-109502944D01*
X165889378Y-109507851D01*
X165889379Y-109507852D01*
X166008325Y-109639955D01*
X166012747Y-109644866D01*
X166038693Y-109663717D01*
X166161041Y-109752608D01*
X166167248Y-109757118D01*
X166173276Y-109759802D01*
X166173278Y-109759803D01*
X166304259Y-109818119D01*
X166341712Y-109834794D01*
X166435113Y-109854647D01*
X166522056Y-109873128D01*
X166522061Y-109873128D01*
X166528513Y-109874500D01*
X166719487Y-109874500D01*
X166725939Y-109873128D01*
X166725944Y-109873128D01*
X166791543Y-109859184D01*
X166862334Y-109864586D01*
X166918966Y-109907403D01*
X166943460Y-109974041D01*
X166943740Y-109982431D01*
X166943740Y-110111178D01*
X166923738Y-110179299D01*
X166911382Y-110195482D01*
X166900960Y-110207056D01*
X166897659Y-110212774D01*
X166809900Y-110364777D01*
X166805473Y-110372444D01*
X166746458Y-110554072D01*
X166745768Y-110560633D01*
X166745768Y-110560635D01*
X166736606Y-110647808D01*
X166726496Y-110744000D01*
X166727186Y-110750565D01*
X166741824Y-110889834D01*
X166746458Y-110933928D01*
X166805473Y-111115556D01*
X166808776Y-111121278D01*
X166808777Y-111121279D01*
X166829273Y-111156779D01*
X166900960Y-111280944D01*
X166905378Y-111285851D01*
X166905379Y-111285852D01*
X166996521Y-111387075D01*
X167028747Y-111422866D01*
X167183248Y-111535118D01*
X167189276Y-111537802D01*
X167189278Y-111537803D01*
X167320322Y-111596147D01*
X167357712Y-111612794D01*
X167451113Y-111632647D01*
X167538056Y-111651128D01*
X167538061Y-111651128D01*
X167544513Y-111652500D01*
X167735487Y-111652500D01*
X167741939Y-111651128D01*
X167741944Y-111651128D01*
X167828887Y-111632647D01*
X167922288Y-111612794D01*
X167959678Y-111596147D01*
X168090722Y-111537803D01*
X168090724Y-111537802D01*
X168096752Y-111535118D01*
X168251253Y-111422866D01*
X168283479Y-111387075D01*
X168374621Y-111285852D01*
X168374622Y-111285851D01*
X168379040Y-111280944D01*
X168450727Y-111156779D01*
X168471223Y-111121279D01*
X168471224Y-111121278D01*
X168474527Y-111115556D01*
X168533542Y-110933928D01*
X168538177Y-110889834D01*
X168552814Y-110750565D01*
X168553504Y-110744000D01*
X168543394Y-110647808D01*
X168534232Y-110560635D01*
X168534232Y-110560633D01*
X168533542Y-110554072D01*
X168474527Y-110372444D01*
X168470101Y-110364777D01*
X168382341Y-110212774D01*
X168379040Y-110207056D01*
X168251253Y-110065134D01*
X168251163Y-110065069D01*
X168215189Y-110006671D01*
X168210740Y-109973486D01*
X168210740Y-105617759D01*
X168230742Y-105549638D01*
X168243098Y-105533456D01*
X168316280Y-105452179D01*
X168411767Y-105286791D01*
X168470782Y-105105163D01*
X168473960Y-105074931D01*
X168490054Y-104921800D01*
X168490744Y-104915235D01*
X168478099Y-104794921D01*
X168471472Y-104731870D01*
X168471472Y-104731868D01*
X168470782Y-104725307D01*
X168411767Y-104543679D01*
X168316280Y-104378291D01*
X168298056Y-104358051D01*
X168200122Y-104249284D01*
X168169404Y-104185277D01*
X168178169Y-104114823D01*
X168208676Y-104072409D01*
X168211853Y-104070101D01*
X168266393Y-104009528D01*
X168335221Y-103933087D01*
X168335222Y-103933086D01*
X168339640Y-103928179D01*
X168425754Y-103779026D01*
X168431823Y-103768514D01*
X168431824Y-103768513D01*
X168435127Y-103762791D01*
X168494142Y-103581163D01*
X168514104Y-103391235D01*
X168508092Y-103334033D01*
X168494832Y-103207870D01*
X168494832Y-103207868D01*
X168494142Y-103201307D01*
X168435127Y-103019679D01*
X168420919Y-102995069D01*
X168359964Y-102889493D01*
X168339640Y-102854291D01*
X168266463Y-102773020D01*
X168235747Y-102709014D01*
X168234100Y-102688711D01*
X168234100Y-97915394D01*
X168254102Y-97847273D01*
X168271005Y-97826299D01*
X168849527Y-97247777D01*
X168911839Y-97213751D01*
X168982654Y-97218816D01*
G37*
%TD.AperFunction*%
%TA.AperFunction,Conductor*%
G36*
X157545913Y-96183502D02*
G01*
X157592406Y-96237158D01*
X157602510Y-96307432D01*
X157573016Y-96372012D01*
X157566889Y-96378593D01*
X155682313Y-98263167D01*
X155055747Y-98889733D01*
X155047461Y-98897273D01*
X155040982Y-98901385D01*
X155035557Y-98907162D01*
X154994357Y-98951036D01*
X154991602Y-98953878D01*
X154971865Y-98973615D01*
X154969385Y-98976812D01*
X154961682Y-98985832D01*
X154931414Y-99018064D01*
X154927595Y-99025010D01*
X154927593Y-99025013D01*
X154921652Y-99035819D01*
X154910801Y-99052338D01*
X154898386Y-99068344D01*
X154895241Y-99075613D01*
X154895238Y-99075617D01*
X154880826Y-99108922D01*
X154875609Y-99119572D01*
X154854305Y-99158325D01*
X154852334Y-99166000D01*
X154852334Y-99166001D01*
X154849267Y-99177947D01*
X154842863Y-99196651D01*
X154834819Y-99215240D01*
X154833580Y-99223063D01*
X154833577Y-99223073D01*
X154827901Y-99258909D01*
X154825495Y-99270529D01*
X154816472Y-99305674D01*
X154814500Y-99313355D01*
X154814500Y-99333609D01*
X154812949Y-99353319D01*
X154809780Y-99373328D01*
X154810526Y-99381220D01*
X154813941Y-99417346D01*
X154814500Y-99429204D01*
X154814500Y-101330466D01*
X154794498Y-101398587D01*
X154740842Y-101445080D01*
X154670568Y-101455184D01*
X154634425Y-101442248D01*
X154633820Y-101443589D01*
X154626896Y-101440463D01*
X154620399Y-101436528D01*
X154613152Y-101434257D01*
X154613150Y-101434256D01*
X154506474Y-101400826D01*
X154456762Y-101385247D01*
X154383335Y-101378500D01*
X154380437Y-101378500D01*
X154126035Y-101378501D01*
X153870066Y-101378501D01*
X153867208Y-101378764D01*
X153867199Y-101378764D01*
X153831696Y-101382026D01*
X153796638Y-101385247D01*
X153790260Y-101387246D01*
X153790259Y-101387246D01*
X153640250Y-101434256D01*
X153640248Y-101434257D01*
X153633001Y-101436528D01*
X153486319Y-101525361D01*
X153390795Y-101620885D01*
X153328483Y-101654911D01*
X153257668Y-101649846D01*
X153212605Y-101620885D01*
X153117081Y-101525361D01*
X152970399Y-101436528D01*
X152963152Y-101434257D01*
X152963150Y-101434256D01*
X152856474Y-101400826D01*
X152806762Y-101385247D01*
X152733335Y-101378500D01*
X152730437Y-101378500D01*
X152476035Y-101378501D01*
X152220066Y-101378501D01*
X152217208Y-101378764D01*
X152217199Y-101378764D01*
X152181696Y-101382026D01*
X152146638Y-101385247D01*
X152140260Y-101387246D01*
X152140259Y-101387246D01*
X151990250Y-101434256D01*
X151990248Y-101434257D01*
X151983001Y-101436528D01*
X151836319Y-101525361D01*
X151715061Y-101646619D01*
X151711124Y-101653120D01*
X151702251Y-101667771D01*
X151649854Y-101715678D01*
X151594475Y-101728500D01*
X151170233Y-101728500D01*
X151102112Y-101708498D01*
X151081138Y-101691595D01*
X149597499Y-100207956D01*
X149563473Y-100145644D01*
X149568538Y-100074829D01*
X149579334Y-100052746D01*
X149584619Y-100044172D01*
X149584621Y-100044167D01*
X149588461Y-100037938D01*
X149626112Y-99924422D01*
X149641978Y-99876589D01*
X149641978Y-99876587D01*
X149644143Y-99870061D01*
X149645136Y-99860375D01*
X149654518Y-99768798D01*
X149654846Y-99765600D01*
X149654846Y-99164800D01*
X149654509Y-99161550D01*
X149644584Y-99065892D01*
X149644583Y-99065888D01*
X149643872Y-99059034D01*
X149640092Y-99047702D01*
X149590214Y-98898202D01*
X149587896Y-98891254D01*
X149540395Y-98814493D01*
X149521557Y-98746043D01*
X149542718Y-98678273D01*
X149597159Y-98632702D01*
X149629458Y-98623495D01*
X149675175Y-98616867D01*
X149742168Y-98607154D01*
X149742172Y-98607153D01*
X149747883Y-98606325D01*
X149753347Y-98604470D01*
X149753352Y-98604469D01*
X149935327Y-98542697D01*
X149935332Y-98542695D01*
X149940799Y-98540839D01*
X149981760Y-98517900D01*
X149999941Y-98507718D01*
X150118551Y-98441293D01*
X150275186Y-98311021D01*
X150310316Y-98268782D01*
X150327595Y-98248006D01*
X150358166Y-98221431D01*
X150364466Y-98217533D01*
X150364472Y-98217528D01*
X150370694Y-98213678D01*
X150495651Y-98088503D01*
X150540506Y-98015735D01*
X150584621Y-97944168D01*
X150584622Y-97944166D01*
X150588461Y-97937938D01*
X150631067Y-97809485D01*
X150641978Y-97776589D01*
X150641978Y-97776587D01*
X150644143Y-97770061D01*
X150648243Y-97730050D01*
X150652178Y-97691635D01*
X150654846Y-97665600D01*
X150654846Y-97041740D01*
X150674848Y-96973619D01*
X150728504Y-96927126D01*
X150798778Y-96917022D01*
X150863358Y-96946516D01*
X150869941Y-96952645D01*
X150931143Y-97013847D01*
X150938687Y-97022137D01*
X150942800Y-97028618D01*
X150948577Y-97034043D01*
X150992467Y-97075258D01*
X150995309Y-97078013D01*
X151015031Y-97097735D01*
X151018155Y-97100158D01*
X151018159Y-97100162D01*
X151018224Y-97100212D01*
X151027245Y-97107917D01*
X151059479Y-97138186D01*
X151066427Y-97142005D01*
X151066429Y-97142007D01*
X151077232Y-97147946D01*
X151093759Y-97158802D01*
X151103498Y-97166357D01*
X151103500Y-97166358D01*
X151109760Y-97171214D01*
X151150340Y-97188774D01*
X151160988Y-97193991D01*
X151185776Y-97207618D01*
X151199740Y-97215295D01*
X151207416Y-97217266D01*
X151207419Y-97217267D01*
X151219362Y-97220333D01*
X151238067Y-97226737D01*
X151256655Y-97234781D01*
X151264478Y-97236020D01*
X151264488Y-97236023D01*
X151300324Y-97241699D01*
X151311944Y-97244105D01*
X151343759Y-97252273D01*
X151354770Y-97255100D01*
X151375024Y-97255100D01*
X151394734Y-97256651D01*
X151414743Y-97259820D01*
X151422635Y-97259074D01*
X151441380Y-97257302D01*
X151458762Y-97255659D01*
X151470619Y-97255100D01*
X154454833Y-97255100D01*
X154466016Y-97255627D01*
X154473509Y-97257302D01*
X154481435Y-97257053D01*
X154481436Y-97257053D01*
X154541586Y-97255162D01*
X154545545Y-97255100D01*
X154573456Y-97255100D01*
X154577391Y-97254603D01*
X154577456Y-97254595D01*
X154589293Y-97253662D01*
X154621551Y-97252648D01*
X154625570Y-97252522D01*
X154633489Y-97252273D01*
X154652943Y-97246621D01*
X154672300Y-97242613D01*
X154684530Y-97241068D01*
X154684531Y-97241068D01*
X154692397Y-97240074D01*
X154699768Y-97237155D01*
X154699770Y-97237155D01*
X154733512Y-97223796D01*
X154744742Y-97219951D01*
X154779583Y-97209829D01*
X154779584Y-97209829D01*
X154787193Y-97207618D01*
X154794012Y-97203585D01*
X154794017Y-97203583D01*
X154804628Y-97197307D01*
X154822376Y-97188612D01*
X154841217Y-97181152D01*
X154876987Y-97155164D01*
X154886907Y-97148648D01*
X154918135Y-97130180D01*
X154918138Y-97130178D01*
X154924962Y-97126142D01*
X154939283Y-97111821D01*
X154954317Y-97098980D01*
X154970707Y-97087072D01*
X154998898Y-97052995D01*
X155006888Y-97044216D01*
X155850699Y-96200405D01*
X155913011Y-96166379D01*
X155939794Y-96163500D01*
X157477792Y-96163500D01*
X157545913Y-96183502D01*
G37*
%TD.AperFunction*%
%TD*%
M02*
