%FSLAX45Y45*%
G04 Gerber Fmt 4.5, Leading zero omitted, Abs format (unit mm)*
G04 Created by KiCad (PCBNEW (6.0.0-0)) date 2022-03-22 21:28:28*
%MOMM*%
%LPD*%
G01*
G04 APERTURE LIST*
%TA.AperFunction,Profile*%
%ADD10C,0.200000*%
%TD*%
%ADD11C,0.200000*%
%ADD12C,0.040000*%
%ADD13C,0.080000*%
%ADD14C,0.090000*%
%ADD15C,0.100000*%
%ADD16C,0.270000*%
%ADD17C,0.300000*%
G04 APERTURE END LIST*
D10*
X19598640Y-9598200D02*
X19598640Y-12398200D01*
X12698640Y-12398200D02*
X12698640Y-9598200D01*
X12998640Y-9298200D02*
X19298640Y-9298200D01*
X19598640Y-9598200D02*
G75*
G03*
X19298640Y-9298200I-300000J0D01*
G01*
X12998640Y-9298200D02*
G75*
G03*
X12698640Y-9598200I0J-300000D01*
G01*
X19298640Y-12698200D02*
G75*
G03*
X19598640Y-12398200I0J300000D01*
G01*
X12698640Y-12398200D02*
G75*
G03*
X12998640Y-12698200I300000J0D01*
G01*
X19298640Y-12698200D02*
X12998640Y-12698200D01*
D11*
D12*
X13086400Y-10673400D02*
X13126400Y-10713400D01*
X13126400Y-10673400D02*
X13086400Y-10713400D01*
X13086400Y-10775000D02*
X13126400Y-10815000D01*
X13126400Y-10775000D02*
X13086400Y-10815000D01*
X13086400Y-10876600D02*
X13126400Y-10916600D01*
X13126400Y-10876600D02*
X13086400Y-10916600D01*
X13086400Y-11232200D02*
X13126400Y-11272200D01*
X13126400Y-11232200D02*
X13086400Y-11272200D01*
X13086400Y-11333800D02*
X13126400Y-11373800D01*
X13126400Y-11333800D02*
X13086400Y-11373800D01*
X13086400Y-11435400D02*
X13126400Y-11475400D01*
X13126400Y-11435400D02*
X13086400Y-11475400D01*
X13162600Y-10140000D02*
X13202600Y-10180000D01*
X13202600Y-10140000D02*
X13162600Y-10180000D01*
X13326800Y-10825800D02*
X13366800Y-10865800D01*
X13366800Y-10825800D02*
X13326800Y-10865800D01*
X13479200Y-11410000D02*
X13519200Y-11450000D01*
X13519200Y-11410000D02*
X13479200Y-11450000D01*
X13927682Y-11366320D02*
X13967682Y-11406320D01*
X13967682Y-11366320D02*
X13927682Y-11406320D01*
X14964552Y-10217648D02*
X15004552Y-10257648D01*
X15004552Y-10217648D02*
X14964552Y-10257648D01*
X15155600Y-10032640D02*
X15195600Y-10072640D01*
X15195600Y-10032640D02*
X15155600Y-10072640D01*
X15161600Y-11620000D02*
X15201600Y-11660000D01*
X15201600Y-11620000D02*
X15161600Y-11660000D01*
X15397800Y-9530400D02*
X15437800Y-9570400D01*
X15437800Y-9530400D02*
X15397800Y-9570400D01*
X15474000Y-11156000D02*
X15514000Y-11196000D01*
X15514000Y-11156000D02*
X15474000Y-11196000D01*
X15524800Y-11435400D02*
X15564800Y-11475400D01*
X15564800Y-11435400D02*
X15524800Y-11475400D01*
X15524800Y-11511600D02*
X15564800Y-11551600D01*
X15564800Y-11511600D02*
X15524800Y-11551600D01*
X15524800Y-11587800D02*
X15564800Y-11627800D01*
X15564800Y-11587800D02*
X15524800Y-11627800D01*
X15534336Y-10535024D02*
X15574336Y-10575024D01*
X15574336Y-10535024D02*
X15534336Y-10575024D01*
X15536176Y-10382624D02*
X15576176Y-10422624D01*
X15576176Y-10382624D02*
X15536176Y-10422624D01*
X15575600Y-9657400D02*
X15615600Y-9697400D01*
X15615600Y-9657400D02*
X15575600Y-9697400D01*
X15626400Y-12121200D02*
X15666400Y-12161200D01*
X15666400Y-12121200D02*
X15626400Y-12161200D01*
X15651800Y-9911400D02*
X15691800Y-9951400D01*
X15691800Y-9911400D02*
X15651800Y-9951400D01*
X15695600Y-10979000D02*
X15735600Y-11019000D01*
X15735600Y-10979000D02*
X15695600Y-11019000D01*
X15696600Y-10840000D02*
X15736600Y-10880000D01*
X15736600Y-10840000D02*
X15696600Y-10880000D01*
X15728000Y-11435400D02*
X15768000Y-11475400D01*
X15768000Y-11435400D02*
X15728000Y-11475400D01*
X15728000Y-11511600D02*
X15768000Y-11551600D01*
X15768000Y-11511600D02*
X15728000Y-11551600D01*
X15728000Y-11587800D02*
X15768000Y-11627800D01*
X15768000Y-11587800D02*
X15728000Y-11627800D01*
X15796600Y-9980000D02*
X15836600Y-10020000D01*
X15836600Y-9980000D02*
X15796600Y-10020000D01*
X15875491Y-9543569D02*
X15915491Y-9583569D01*
X15915491Y-9543569D02*
X15875491Y-9583569D01*
X15946440Y-9662480D02*
X15986440Y-9702480D01*
X15986440Y-9662480D02*
X15946440Y-9702480D01*
X16055000Y-12390000D02*
X16095000Y-12430000D01*
X16095000Y-12390000D02*
X16055000Y-12430000D01*
X16058200Y-9519999D02*
X16098200Y-9559999D01*
X16098200Y-9519999D02*
X16058200Y-9559999D01*
X16106030Y-10036290D02*
X16146030Y-10076290D01*
X16146030Y-10036290D02*
X16106030Y-10076290D01*
X16180000Y-12292450D02*
X16220000Y-12332450D01*
X16220000Y-12292450D02*
X16180000Y-12332450D01*
X16184729Y-9767355D02*
X16224729Y-9807355D01*
X16224729Y-9767355D02*
X16184729Y-9807355D01*
X16200440Y-10140000D02*
X16240440Y-10180000D01*
X16240440Y-10140000D02*
X16200440Y-10180000D01*
X16372100Y-9767500D02*
X16412100Y-9807500D01*
X16412100Y-9767500D02*
X16372100Y-9807500D01*
X16469000Y-9980000D02*
X16509000Y-10020000D01*
X16509000Y-9980000D02*
X16469000Y-10020000D01*
X16527550Y-10724200D02*
X16567550Y-10764200D01*
X16567550Y-10724200D02*
X16527550Y-10764200D01*
X16642400Y-10876600D02*
X16682400Y-10916600D01*
X16682400Y-10876600D02*
X16642400Y-10916600D01*
X16737724Y-10471524D02*
X16777724Y-10511524D01*
X16777724Y-10471524D02*
X16737724Y-10511524D01*
X16740060Y-10319124D02*
X16780060Y-10359124D01*
X16780060Y-10319124D02*
X16740060Y-10359124D01*
X16744000Y-11054400D02*
X16784000Y-11094400D01*
X16784000Y-11054400D02*
X16744000Y-11094400D01*
X16972600Y-9682800D02*
X17012600Y-9722800D01*
X17012600Y-9682800D02*
X16972600Y-9722800D01*
X17129060Y-10832640D02*
X17169060Y-10872640D01*
X17169060Y-10832640D02*
X17129060Y-10872640D01*
X17150400Y-11562400D02*
X17190400Y-11602400D01*
X17190400Y-11562400D02*
X17150400Y-11602400D01*
X17252000Y-10724200D02*
X17292000Y-10764200D01*
X17292000Y-10724200D02*
X17252000Y-10764200D01*
X17280000Y-12212500D02*
X17320000Y-12252500D01*
X17320000Y-12212500D02*
X17280000Y-12252500D01*
X18148440Y-11828600D02*
X18188440Y-11868600D01*
X18188440Y-11828600D02*
X18148440Y-11868600D01*
X18979200Y-11408550D02*
X19019200Y-11448550D01*
X19019200Y-11408550D02*
X18979200Y-11448550D01*
X19100000Y-11481000D02*
X19140000Y-11521000D01*
X19140000Y-11481000D02*
X19100000Y-11521000D01*
X19194000Y-11528000D02*
X19234000Y-11568000D01*
X19234000Y-11528000D02*
X19194000Y-11568000D01*
D13*
X19166200Y-10160000D02*
G75*
G03*
X19166200Y-10160000I-40000J0D01*
G01*
X15361040Y-11560865D02*
X15361040Y-11640865D01*
X15321040Y-11600865D02*
X15401040Y-11600865D01*
X15361040Y-11910865D02*
X15361040Y-11990865D01*
X15321040Y-11950865D02*
X15401040Y-11950865D01*
X16943198Y-11560865D02*
X16943198Y-11640865D01*
X16903198Y-11600865D02*
X16983198Y-11600865D01*
X16943198Y-11910865D02*
X16943198Y-11990865D01*
X16903198Y-11950865D02*
X16983198Y-11950865D01*
D14*
X18229320Y-9986820D02*
X18229320Y-9923180D01*
X18165680Y-9923180D01*
X18165680Y-9986820D01*
X18229320Y-9986820D01*
D15*
X13816600Y-9997500D02*
X13866600Y-9947500D01*
X13816600Y-9897500D01*
X13766600Y-9947500D01*
X13816600Y-9997500D01*
X13816600Y-10975480D02*
X13866600Y-10925480D01*
X13816600Y-10875480D01*
X13766600Y-10925480D01*
X13816600Y-10975480D01*
X13966600Y-9997500D02*
X14016600Y-9947500D01*
X13966600Y-9897500D01*
X13916600Y-9947500D01*
X13966600Y-9997500D01*
X13966600Y-10975480D02*
X14016600Y-10925480D01*
X13966600Y-10875480D01*
X13916600Y-10925480D01*
X13966600Y-10975480D01*
X14116600Y-9997500D02*
X14166600Y-9947500D01*
X14116600Y-9897500D01*
X14066600Y-9947500D01*
X14116600Y-9997500D01*
X14116600Y-10975480D02*
X14166600Y-10925480D01*
X14116600Y-10875480D01*
X14066600Y-10925480D01*
X14116600Y-10975480D01*
X14303130Y-9802894D02*
X14353130Y-9752894D01*
X14303130Y-9702894D01*
X14253130Y-9752894D01*
X14303130Y-9802894D01*
X14313083Y-11202640D02*
X14363083Y-11152640D01*
X14313083Y-11102640D01*
X14263083Y-11152640D01*
X14313083Y-11202640D01*
X14948800Y-9802384D02*
X14998800Y-9752384D01*
X14948800Y-9702384D01*
X14898800Y-9752384D01*
X14948800Y-9802384D01*
X14948800Y-11204463D02*
X14998800Y-11154464D01*
X14948800Y-11104464D01*
X14898800Y-11154464D01*
X14948800Y-11204463D01*
X17363260Y-9802640D02*
X17413260Y-9752640D01*
X17363260Y-9702640D01*
X17313260Y-9752640D01*
X17363260Y-9802640D01*
X17363260Y-11204463D02*
X17413260Y-11154464D01*
X17363260Y-11104464D01*
X17313260Y-11154464D01*
X17363260Y-11204463D01*
X17932400Y-11202640D02*
X17982400Y-11152640D01*
X17932400Y-11102640D01*
X17882400Y-11152640D01*
X17932400Y-11202640D01*
X17998004Y-9802640D02*
X18048004Y-9752640D01*
X17998004Y-9702640D01*
X17948004Y-9752640D01*
X17998004Y-9802640D01*
X18197500Y-11002500D02*
X18247500Y-10952500D01*
X18197500Y-10902500D01*
X18147500Y-10952500D01*
X18197500Y-11002500D01*
X18348760Y-10002640D02*
X18398760Y-9952640D01*
X18348760Y-9902640D01*
X18298760Y-9952640D01*
X18348760Y-10002640D01*
X18348760Y-11002640D02*
X18398760Y-10952640D01*
X18348760Y-10902640D01*
X18298760Y-10952640D01*
X18348760Y-11002640D01*
X18500000Y-10002500D02*
X18550000Y-9952500D01*
X18500000Y-9902500D01*
X18450000Y-9952500D01*
X18500000Y-10002500D01*
X18500000Y-11002500D02*
X18550000Y-10952500D01*
X18500000Y-10902500D01*
X18450000Y-10952500D01*
X18500000Y-11002500D01*
X19266200Y-10207000D02*
X19316200Y-10157000D01*
X19266200Y-10107000D01*
X19216200Y-10157000D01*
X19266200Y-10207000D01*
X16452500Y-12370000D02*
X16552500Y-12470000D01*
X16552500Y-12370000D02*
X16452500Y-12470000D01*
X16552500Y-12420000D02*
G75*
G03*
X16552500Y-12420000I-50000J0D01*
G01*
X16706500Y-12370000D02*
X16806500Y-12470000D01*
X16806500Y-12370000D02*
X16706500Y-12470000D01*
X16806500Y-12420000D02*
G75*
G03*
X16806500Y-12420000I-50000J0D01*
G01*
X16960500Y-12370000D02*
X17060500Y-12470000D01*
X17060500Y-12370000D02*
X16960500Y-12470000D01*
X17060500Y-12420000D02*
G75*
G03*
X17060500Y-12420000I-50000J0D01*
G01*
X17214500Y-12370000D02*
X17314500Y-12470000D01*
X17314500Y-12370000D02*
X17214500Y-12470000D01*
X17314500Y-12420000D02*
G75*
G03*
X17314500Y-12420000I-50000J0D01*
G01*
X17468500Y-12370000D02*
X17568500Y-12470000D01*
X17568500Y-12370000D02*
X17468500Y-12470000D01*
X17568500Y-12420000D02*
G75*
G03*
X17568500Y-12420000I-50000J0D01*
G01*
X17722500Y-12370000D02*
X17822500Y-12470000D01*
X17822500Y-12370000D02*
X17722500Y-12470000D01*
X17822500Y-12420000D02*
G75*
G03*
X17822500Y-12420000I-50000J0D01*
G01*
X17976500Y-12370000D02*
X18076500Y-12470000D01*
X18076500Y-12370000D02*
X17976500Y-12470000D01*
X18076500Y-12420000D02*
G75*
G03*
X18076500Y-12420000I-50000J0D01*
G01*
X18230500Y-12370000D02*
X18330500Y-12470000D01*
X18330500Y-12370000D02*
X18230500Y-12470000D01*
X18330500Y-12420000D02*
G75*
G03*
X18330500Y-12420000I-50000J0D01*
G01*
X18484500Y-12370000D02*
X18584500Y-12470000D01*
X18584500Y-12370000D02*
X18484500Y-12470000D01*
X18584500Y-12420000D02*
G75*
G03*
X18584500Y-12420000I-50000J0D01*
G01*
X18738500Y-12370000D02*
X18838500Y-12470000D01*
X18838500Y-12370000D02*
X18738500Y-12470000D01*
X18838500Y-12420000D02*
G75*
G03*
X18838500Y-12420000I-50000J0D01*
G01*
X18992500Y-12370000D02*
X19092500Y-12470000D01*
X19092500Y-12370000D02*
X18992500Y-12470000D01*
X19092500Y-12420000D02*
G75*
G03*
X19092500Y-12420000I-50000J0D01*
G01*
D16*
X16019400Y-11121200D02*
X16289400Y-11391200D01*
X16289400Y-11121200D02*
X16019400Y-11391200D01*
X16154400Y-11121200D02*
X16154400Y-11391200D01*
X16019400Y-11256200D02*
X16289400Y-11256200D01*
X16019400Y-11621200D02*
X16289400Y-11891200D01*
X16289400Y-11621200D02*
X16019400Y-11891200D01*
X16154400Y-11621200D02*
X16154400Y-11891200D01*
X16019400Y-11756200D02*
X16289400Y-11756200D01*
D17*
X13766600Y-11830000D02*
X14066600Y-12130000D01*
X14066600Y-11830000D02*
X13766600Y-12130000D01*
X14022667Y-12086067D02*
X14022667Y-11873933D01*
X13810533Y-11873933D01*
X13810533Y-12086067D01*
X14022667Y-12086067D01*
X18249000Y-11387723D02*
X18549000Y-11687723D01*
X18549000Y-11387723D02*
X18249000Y-11687723D01*
X18505067Y-11643790D02*
X18505067Y-11431656D01*
X18292933Y-11431656D01*
X18292933Y-11643790D01*
X18505067Y-11643790D01*
D11*
X12946259Y-13018676D02*
X12946259Y-12818676D01*
X12993878Y-12818676D01*
X13022449Y-12828200D01*
X13041497Y-12847248D01*
X13051021Y-12866295D01*
X13060545Y-12904390D01*
X13060545Y-12932962D01*
X13051021Y-12971057D01*
X13041497Y-12990105D01*
X13022449Y-13009152D01*
X12993878Y-13018676D01*
X12946259Y-13018676D01*
X13146259Y-13018676D02*
X13146259Y-12885343D01*
X13146259Y-12923438D02*
X13155783Y-12904390D01*
X13165307Y-12894867D01*
X13184354Y-12885343D01*
X13203402Y-12885343D01*
X13270068Y-13018676D02*
X13270068Y-12885343D01*
X13270068Y-12818676D02*
X13260545Y-12828200D01*
X13270068Y-12837724D01*
X13279592Y-12828200D01*
X13270068Y-12818676D01*
X13270068Y-12837724D01*
X13393878Y-13018676D02*
X13374830Y-13009152D01*
X13365307Y-12990105D01*
X13365307Y-12818676D01*
X13498640Y-13018676D02*
X13479592Y-13009152D01*
X13470068Y-12990105D01*
X13470068Y-12818676D01*
X13727211Y-13018676D02*
X13727211Y-12818676D01*
X13793878Y-12961533D01*
X13860545Y-12818676D01*
X13860545Y-13018676D01*
X14041497Y-13018676D02*
X14041497Y-12913914D01*
X14031973Y-12894867D01*
X14012926Y-12885343D01*
X13974830Y-12885343D01*
X13955783Y-12894867D01*
X14041497Y-13009152D02*
X14022449Y-13018676D01*
X13974830Y-13018676D01*
X13955783Y-13009152D01*
X13946259Y-12990105D01*
X13946259Y-12971057D01*
X13955783Y-12952009D01*
X13974830Y-12942486D01*
X14022449Y-12942486D01*
X14041497Y-12932962D01*
X14136735Y-12885343D02*
X14136735Y-13085343D01*
X14136735Y-12894867D02*
X14155783Y-12885343D01*
X14193878Y-12885343D01*
X14212926Y-12894867D01*
X14222449Y-12904390D01*
X14231973Y-12923438D01*
X14231973Y-12980581D01*
X14222449Y-12999628D01*
X14212926Y-13009152D01*
X14193878Y-13018676D01*
X14155783Y-13018676D01*
X14136735Y-13009152D01*
X14317688Y-12999628D02*
X14327211Y-13009152D01*
X14317688Y-13018676D01*
X14308164Y-13009152D01*
X14317688Y-12999628D01*
X14317688Y-13018676D01*
X14317688Y-12894867D02*
X14327211Y-12904390D01*
X14317688Y-12913914D01*
X14308164Y-12904390D01*
X14317688Y-12894867D01*
X14317688Y-12913914D01*
D12*
X12648640Y-13328200D02*
X12688640Y-13368200D01*
X12688640Y-13328200D02*
X12648640Y-13368200D01*
D11*
X12984354Y-13238676D02*
X13003402Y-13238676D01*
X13022449Y-13248200D01*
X13031973Y-13257724D01*
X13041497Y-13276771D01*
X13051021Y-13314867D01*
X13051021Y-13362486D01*
X13041497Y-13400581D01*
X13031973Y-13419628D01*
X13022449Y-13429152D01*
X13003402Y-13438676D01*
X12984354Y-13438676D01*
X12965307Y-13429152D01*
X12955783Y-13419628D01*
X12946259Y-13400581D01*
X12936735Y-13362486D01*
X12936735Y-13314867D01*
X12946259Y-13276771D01*
X12955783Y-13257724D01*
X12965307Y-13248200D01*
X12984354Y-13238676D01*
X13136735Y-13419628D02*
X13146259Y-13429152D01*
X13136735Y-13438676D01*
X13127211Y-13429152D01*
X13136735Y-13419628D01*
X13136735Y-13438676D01*
X13317688Y-13305343D02*
X13317688Y-13438676D01*
X13270068Y-13229152D02*
X13222449Y-13372009D01*
X13346259Y-13372009D01*
X13460545Y-13238676D02*
X13479592Y-13238676D01*
X13498640Y-13248200D01*
X13508164Y-13257724D01*
X13517688Y-13276771D01*
X13527211Y-13314867D01*
X13527211Y-13362486D01*
X13517688Y-13400581D01*
X13508164Y-13419628D01*
X13498640Y-13429152D01*
X13479592Y-13438676D01*
X13460545Y-13438676D01*
X13441497Y-13429152D01*
X13431973Y-13419628D01*
X13422449Y-13400581D01*
X13412926Y-13362486D01*
X13412926Y-13314867D01*
X13422449Y-13276771D01*
X13431973Y-13257724D01*
X13441497Y-13248200D01*
X13460545Y-13238676D01*
X13651021Y-13238676D02*
X13670068Y-13238676D01*
X13689116Y-13248200D01*
X13698640Y-13257724D01*
X13708164Y-13276771D01*
X13717688Y-13314867D01*
X13717688Y-13362486D01*
X13708164Y-13400581D01*
X13698640Y-13419628D01*
X13689116Y-13429152D01*
X13670068Y-13438676D01*
X13651021Y-13438676D01*
X13631973Y-13429152D01*
X13622449Y-13419628D01*
X13612926Y-13400581D01*
X13603402Y-13362486D01*
X13603402Y-13314867D01*
X13612926Y-13276771D01*
X13622449Y-13257724D01*
X13631973Y-13248200D01*
X13651021Y-13238676D01*
X13803402Y-13438676D02*
X13803402Y-13305343D01*
X13803402Y-13324390D02*
X13812926Y-13314867D01*
X13831973Y-13305343D01*
X13860545Y-13305343D01*
X13879592Y-13314867D01*
X13889116Y-13333914D01*
X13889116Y-13438676D01*
X13889116Y-13333914D02*
X13898640Y-13314867D01*
X13917688Y-13305343D01*
X13946259Y-13305343D01*
X13965307Y-13314867D01*
X13974830Y-13333914D01*
X13974830Y-13438676D01*
X14070068Y-13438676D02*
X14070068Y-13305343D01*
X14070068Y-13324390D02*
X14079592Y-13314867D01*
X14098640Y-13305343D01*
X14127211Y-13305343D01*
X14146259Y-13314867D01*
X14155783Y-13333914D01*
X14155783Y-13438676D01*
X14155783Y-13333914D02*
X14165307Y-13314867D01*
X14184354Y-13305343D01*
X14212926Y-13305343D01*
X14231973Y-13314867D01*
X14241497Y-13333914D01*
X14241497Y-13438676D01*
X14631973Y-13229152D02*
X14460545Y-13486295D01*
X14889116Y-13238676D02*
X14908164Y-13238676D01*
X14927211Y-13248200D01*
X14936735Y-13257724D01*
X14946259Y-13276771D01*
X14955783Y-13314867D01*
X14955783Y-13362486D01*
X14946259Y-13400581D01*
X14936735Y-13419628D01*
X14927211Y-13429152D01*
X14908164Y-13438676D01*
X14889116Y-13438676D01*
X14870068Y-13429152D01*
X14860545Y-13419628D01*
X14851021Y-13400581D01*
X14841497Y-13362486D01*
X14841497Y-13314867D01*
X14851021Y-13276771D01*
X14860545Y-13257724D01*
X14870068Y-13248200D01*
X14889116Y-13238676D01*
X15041497Y-13419628D02*
X15051021Y-13429152D01*
X15041497Y-13438676D01*
X15031973Y-13429152D01*
X15041497Y-13419628D01*
X15041497Y-13438676D01*
X15174830Y-13238676D02*
X15193878Y-13238676D01*
X15212926Y-13248200D01*
X15222449Y-13257724D01*
X15231973Y-13276771D01*
X15241497Y-13314867D01*
X15241497Y-13362486D01*
X15231973Y-13400581D01*
X15222449Y-13419628D01*
X15212926Y-13429152D01*
X15193878Y-13438676D01*
X15174830Y-13438676D01*
X15155783Y-13429152D01*
X15146259Y-13419628D01*
X15136735Y-13400581D01*
X15127211Y-13362486D01*
X15127211Y-13314867D01*
X15136735Y-13276771D01*
X15146259Y-13257724D01*
X15155783Y-13248200D01*
X15174830Y-13238676D01*
X15431973Y-13438676D02*
X15317688Y-13438676D01*
X15374830Y-13438676D02*
X15374830Y-13238676D01*
X15355783Y-13267248D01*
X15336735Y-13286295D01*
X15317688Y-13295819D01*
X15612926Y-13238676D02*
X15517688Y-13238676D01*
X15508164Y-13333914D01*
X15517688Y-13324390D01*
X15536735Y-13314867D01*
X15584354Y-13314867D01*
X15603402Y-13324390D01*
X15612926Y-13333914D01*
X15622449Y-13352962D01*
X15622449Y-13400581D01*
X15612926Y-13419628D01*
X15603402Y-13429152D01*
X15584354Y-13438676D01*
X15536735Y-13438676D01*
X15517688Y-13429152D01*
X15508164Y-13419628D01*
X15689116Y-13238676D02*
X15822449Y-13238676D01*
X15736735Y-13438676D01*
X15889116Y-13238676D02*
X15889116Y-13276771D01*
X15965307Y-13238676D02*
X15965307Y-13276771D01*
X16260545Y-13514867D02*
X16251021Y-13505343D01*
X16231973Y-13476771D01*
X16222449Y-13457724D01*
X16212926Y-13429152D01*
X16203402Y-13381533D01*
X16203402Y-13343438D01*
X16212926Y-13295819D01*
X16222449Y-13267248D01*
X16231973Y-13248200D01*
X16251021Y-13219628D01*
X16260545Y-13210105D01*
X16431973Y-13238676D02*
X16336735Y-13238676D01*
X16327211Y-13333914D01*
X16336735Y-13324390D01*
X16355783Y-13314867D01*
X16403402Y-13314867D01*
X16422449Y-13324390D01*
X16431973Y-13333914D01*
X16441497Y-13352962D01*
X16441497Y-13400581D01*
X16431973Y-13419628D01*
X16422449Y-13429152D01*
X16403402Y-13438676D01*
X16355783Y-13438676D01*
X16336735Y-13429152D01*
X16327211Y-13419628D01*
X16508164Y-13238676D02*
X16631973Y-13238676D01*
X16565307Y-13314867D01*
X16593878Y-13314867D01*
X16612926Y-13324390D01*
X16622449Y-13333914D01*
X16631973Y-13352962D01*
X16631973Y-13400581D01*
X16622449Y-13419628D01*
X16612926Y-13429152D01*
X16593878Y-13438676D01*
X16536735Y-13438676D01*
X16517688Y-13429152D01*
X16508164Y-13419628D01*
X16870069Y-13438676D02*
X16870069Y-13238676D01*
X16955783Y-13438676D02*
X16955783Y-13333914D01*
X16946259Y-13314867D01*
X16927211Y-13305343D01*
X16898640Y-13305343D01*
X16879592Y-13314867D01*
X16870069Y-13324390D01*
X17079592Y-13438676D02*
X17060545Y-13429152D01*
X17051021Y-13419628D01*
X17041497Y-13400581D01*
X17041497Y-13343438D01*
X17051021Y-13324390D01*
X17060545Y-13314867D01*
X17079592Y-13305343D01*
X17108164Y-13305343D01*
X17127211Y-13314867D01*
X17136735Y-13324390D01*
X17146259Y-13343438D01*
X17146259Y-13400581D01*
X17136735Y-13419628D01*
X17127211Y-13429152D01*
X17108164Y-13438676D01*
X17079592Y-13438676D01*
X17260545Y-13438676D02*
X17241497Y-13429152D01*
X17231973Y-13410105D01*
X17231973Y-13238676D01*
X17412926Y-13429152D02*
X17393878Y-13438676D01*
X17355783Y-13438676D01*
X17336735Y-13429152D01*
X17327211Y-13410105D01*
X17327211Y-13333914D01*
X17336735Y-13314867D01*
X17355783Y-13305343D01*
X17393878Y-13305343D01*
X17412926Y-13314867D01*
X17422450Y-13333914D01*
X17422450Y-13352962D01*
X17327211Y-13372009D01*
X17498640Y-13429152D02*
X17517688Y-13438676D01*
X17555783Y-13438676D01*
X17574830Y-13429152D01*
X17584354Y-13410105D01*
X17584354Y-13400581D01*
X17574830Y-13381533D01*
X17555783Y-13372009D01*
X17527211Y-13372009D01*
X17508164Y-13362486D01*
X17498640Y-13343438D01*
X17498640Y-13333914D01*
X17508164Y-13314867D01*
X17527211Y-13305343D01*
X17555783Y-13305343D01*
X17574830Y-13314867D01*
X17651021Y-13514867D02*
X17660545Y-13505343D01*
X17679592Y-13476771D01*
X17689116Y-13457724D01*
X17698640Y-13429152D01*
X17708164Y-13381533D01*
X17708164Y-13343438D01*
X17698640Y-13295819D01*
X17689116Y-13267248D01*
X17679592Y-13248200D01*
X17660545Y-13219628D01*
X17651021Y-13210105D01*
D13*
X12688640Y-13612200D02*
G75*
G03*
X12688640Y-13612200I-40000J0D01*
G01*
D11*
X12984354Y-13502676D02*
X13003402Y-13502676D01*
X13022449Y-13512200D01*
X13031973Y-13521724D01*
X13041497Y-13540771D01*
X13051021Y-13578867D01*
X13051021Y-13626486D01*
X13041497Y-13664581D01*
X13031973Y-13683628D01*
X13022449Y-13693152D01*
X13003402Y-13702676D01*
X12984354Y-13702676D01*
X12965307Y-13693152D01*
X12955783Y-13683628D01*
X12946259Y-13664581D01*
X12936735Y-13626486D01*
X12936735Y-13578867D01*
X12946259Y-13540771D01*
X12955783Y-13521724D01*
X12965307Y-13512200D01*
X12984354Y-13502676D01*
X13136735Y-13683628D02*
X13146259Y-13693152D01*
X13136735Y-13702676D01*
X13127211Y-13693152D01*
X13136735Y-13683628D01*
X13136735Y-13702676D01*
X13260545Y-13588390D02*
X13241497Y-13578867D01*
X13231973Y-13569343D01*
X13222449Y-13550295D01*
X13222449Y-13540771D01*
X13231973Y-13521724D01*
X13241497Y-13512200D01*
X13260545Y-13502676D01*
X13298640Y-13502676D01*
X13317688Y-13512200D01*
X13327211Y-13521724D01*
X13336735Y-13540771D01*
X13336735Y-13550295D01*
X13327211Y-13569343D01*
X13317688Y-13578867D01*
X13298640Y-13588390D01*
X13260545Y-13588390D01*
X13241497Y-13597914D01*
X13231973Y-13607438D01*
X13222449Y-13626486D01*
X13222449Y-13664581D01*
X13231973Y-13683628D01*
X13241497Y-13693152D01*
X13260545Y-13702676D01*
X13298640Y-13702676D01*
X13317688Y-13693152D01*
X13327211Y-13683628D01*
X13336735Y-13664581D01*
X13336735Y-13626486D01*
X13327211Y-13607438D01*
X13317688Y-13597914D01*
X13298640Y-13588390D01*
X13460545Y-13502676D02*
X13479592Y-13502676D01*
X13498640Y-13512200D01*
X13508164Y-13521724D01*
X13517688Y-13540771D01*
X13527211Y-13578867D01*
X13527211Y-13626486D01*
X13517688Y-13664581D01*
X13508164Y-13683628D01*
X13498640Y-13693152D01*
X13479592Y-13702676D01*
X13460545Y-13702676D01*
X13441497Y-13693152D01*
X13431973Y-13683628D01*
X13422449Y-13664581D01*
X13412926Y-13626486D01*
X13412926Y-13578867D01*
X13422449Y-13540771D01*
X13431973Y-13521724D01*
X13441497Y-13512200D01*
X13460545Y-13502676D01*
X13651021Y-13502676D02*
X13670068Y-13502676D01*
X13689116Y-13512200D01*
X13698640Y-13521724D01*
X13708164Y-13540771D01*
X13717688Y-13578867D01*
X13717688Y-13626486D01*
X13708164Y-13664581D01*
X13698640Y-13683628D01*
X13689116Y-13693152D01*
X13670068Y-13702676D01*
X13651021Y-13702676D01*
X13631973Y-13693152D01*
X13622449Y-13683628D01*
X13612926Y-13664581D01*
X13603402Y-13626486D01*
X13603402Y-13578867D01*
X13612926Y-13540771D01*
X13622449Y-13521724D01*
X13631973Y-13512200D01*
X13651021Y-13502676D01*
X13803402Y-13702676D02*
X13803402Y-13569343D01*
X13803402Y-13588390D02*
X13812926Y-13578867D01*
X13831973Y-13569343D01*
X13860545Y-13569343D01*
X13879592Y-13578867D01*
X13889116Y-13597914D01*
X13889116Y-13702676D01*
X13889116Y-13597914D02*
X13898640Y-13578867D01*
X13917688Y-13569343D01*
X13946259Y-13569343D01*
X13965307Y-13578867D01*
X13974830Y-13597914D01*
X13974830Y-13702676D01*
X14070068Y-13702676D02*
X14070068Y-13569343D01*
X14070068Y-13588390D02*
X14079592Y-13578867D01*
X14098640Y-13569343D01*
X14127211Y-13569343D01*
X14146259Y-13578867D01*
X14155783Y-13597914D01*
X14155783Y-13702676D01*
X14155783Y-13597914D02*
X14165307Y-13578867D01*
X14184354Y-13569343D01*
X14212926Y-13569343D01*
X14231973Y-13578867D01*
X14241497Y-13597914D01*
X14241497Y-13702676D01*
X14631973Y-13493152D02*
X14460545Y-13750295D01*
X14889116Y-13502676D02*
X14908164Y-13502676D01*
X14927211Y-13512200D01*
X14936735Y-13521724D01*
X14946259Y-13540771D01*
X14955783Y-13578867D01*
X14955783Y-13626486D01*
X14946259Y-13664581D01*
X14936735Y-13683628D01*
X14927211Y-13693152D01*
X14908164Y-13702676D01*
X14889116Y-13702676D01*
X14870068Y-13693152D01*
X14860545Y-13683628D01*
X14851021Y-13664581D01*
X14841497Y-13626486D01*
X14841497Y-13578867D01*
X14851021Y-13540771D01*
X14860545Y-13521724D01*
X14870068Y-13512200D01*
X14889116Y-13502676D01*
X15041497Y-13683628D02*
X15051021Y-13693152D01*
X15041497Y-13702676D01*
X15031973Y-13693152D01*
X15041497Y-13683628D01*
X15041497Y-13702676D01*
X15174830Y-13502676D02*
X15193878Y-13502676D01*
X15212926Y-13512200D01*
X15222449Y-13521724D01*
X15231973Y-13540771D01*
X15241497Y-13578867D01*
X15241497Y-13626486D01*
X15231973Y-13664581D01*
X15222449Y-13683628D01*
X15212926Y-13693152D01*
X15193878Y-13702676D01*
X15174830Y-13702676D01*
X15155783Y-13693152D01*
X15146259Y-13683628D01*
X15136735Y-13664581D01*
X15127211Y-13626486D01*
X15127211Y-13578867D01*
X15136735Y-13540771D01*
X15146259Y-13521724D01*
X15155783Y-13512200D01*
X15174830Y-13502676D01*
X15308164Y-13502676D02*
X15431973Y-13502676D01*
X15365307Y-13578867D01*
X15393878Y-13578867D01*
X15412926Y-13588390D01*
X15422449Y-13597914D01*
X15431973Y-13616962D01*
X15431973Y-13664581D01*
X15422449Y-13683628D01*
X15412926Y-13693152D01*
X15393878Y-13702676D01*
X15336735Y-13702676D01*
X15317688Y-13693152D01*
X15308164Y-13683628D01*
X15622449Y-13702676D02*
X15508164Y-13702676D01*
X15565307Y-13702676D02*
X15565307Y-13502676D01*
X15546259Y-13531248D01*
X15527211Y-13550295D01*
X15508164Y-13559819D01*
X15803402Y-13502676D02*
X15708164Y-13502676D01*
X15698640Y-13597914D01*
X15708164Y-13588390D01*
X15727211Y-13578867D01*
X15774830Y-13578867D01*
X15793878Y-13588390D01*
X15803402Y-13597914D01*
X15812926Y-13616962D01*
X15812926Y-13664581D01*
X15803402Y-13683628D01*
X15793878Y-13693152D01*
X15774830Y-13702676D01*
X15727211Y-13702676D01*
X15708164Y-13693152D01*
X15698640Y-13683628D01*
X15889116Y-13502676D02*
X15889116Y-13540771D01*
X15965307Y-13502676D02*
X15965307Y-13540771D01*
X16260545Y-13778867D02*
X16251021Y-13769343D01*
X16231973Y-13740771D01*
X16222449Y-13721724D01*
X16212926Y-13693152D01*
X16203402Y-13645533D01*
X16203402Y-13607438D01*
X16212926Y-13559819D01*
X16222449Y-13531248D01*
X16231973Y-13512200D01*
X16251021Y-13483628D01*
X16260545Y-13474105D01*
X16441497Y-13702676D02*
X16327211Y-13702676D01*
X16384354Y-13702676D02*
X16384354Y-13502676D01*
X16365307Y-13531248D01*
X16346259Y-13550295D01*
X16327211Y-13559819D01*
X16679592Y-13702676D02*
X16679592Y-13502676D01*
X16765307Y-13702676D02*
X16765307Y-13597914D01*
X16755783Y-13578867D01*
X16736735Y-13569343D01*
X16708164Y-13569343D01*
X16689116Y-13578867D01*
X16679592Y-13588390D01*
X16889116Y-13702676D02*
X16870069Y-13693152D01*
X16860545Y-13683628D01*
X16851021Y-13664581D01*
X16851021Y-13607438D01*
X16860545Y-13588390D01*
X16870069Y-13578867D01*
X16889116Y-13569343D01*
X16917688Y-13569343D01*
X16936735Y-13578867D01*
X16946259Y-13588390D01*
X16955783Y-13607438D01*
X16955783Y-13664581D01*
X16946259Y-13683628D01*
X16936735Y-13693152D01*
X16917688Y-13702676D01*
X16889116Y-13702676D01*
X17070069Y-13702676D02*
X17051021Y-13693152D01*
X17041497Y-13674105D01*
X17041497Y-13502676D01*
X17222450Y-13693152D02*
X17203402Y-13702676D01*
X17165307Y-13702676D01*
X17146259Y-13693152D01*
X17136735Y-13674105D01*
X17136735Y-13597914D01*
X17146259Y-13578867D01*
X17165307Y-13569343D01*
X17203402Y-13569343D01*
X17222450Y-13578867D01*
X17231973Y-13597914D01*
X17231973Y-13616962D01*
X17136735Y-13636009D01*
X17298640Y-13778867D02*
X17308164Y-13769343D01*
X17327211Y-13740771D01*
X17336735Y-13721724D01*
X17346259Y-13693152D01*
X17355783Y-13645533D01*
X17355783Y-13607438D01*
X17346259Y-13559819D01*
X17336735Y-13531248D01*
X17327211Y-13512200D01*
X17308164Y-13483628D01*
X17298640Y-13474105D01*
D13*
X12648640Y-13836200D02*
X12648640Y-13916200D01*
X12608640Y-13876200D02*
X12688640Y-13876200D01*
D11*
X12984354Y-13766676D02*
X13003402Y-13766676D01*
X13022449Y-13776200D01*
X13031973Y-13785724D01*
X13041497Y-13804771D01*
X13051021Y-13842867D01*
X13051021Y-13890486D01*
X13041497Y-13928581D01*
X13031973Y-13947628D01*
X13022449Y-13957152D01*
X13003402Y-13966676D01*
X12984354Y-13966676D01*
X12965307Y-13957152D01*
X12955783Y-13947628D01*
X12946259Y-13928581D01*
X12936735Y-13890486D01*
X12936735Y-13842867D01*
X12946259Y-13804771D01*
X12955783Y-13785724D01*
X12965307Y-13776200D01*
X12984354Y-13766676D01*
X13136735Y-13947628D02*
X13146259Y-13957152D01*
X13136735Y-13966676D01*
X13127211Y-13957152D01*
X13136735Y-13947628D01*
X13136735Y-13966676D01*
X13260545Y-13852390D02*
X13241497Y-13842867D01*
X13231973Y-13833343D01*
X13222449Y-13814295D01*
X13222449Y-13804771D01*
X13231973Y-13785724D01*
X13241497Y-13776200D01*
X13260545Y-13766676D01*
X13298640Y-13766676D01*
X13317688Y-13776200D01*
X13327211Y-13785724D01*
X13336735Y-13804771D01*
X13336735Y-13814295D01*
X13327211Y-13833343D01*
X13317688Y-13842867D01*
X13298640Y-13852390D01*
X13260545Y-13852390D01*
X13241497Y-13861914D01*
X13231973Y-13871438D01*
X13222449Y-13890486D01*
X13222449Y-13928581D01*
X13231973Y-13947628D01*
X13241497Y-13957152D01*
X13260545Y-13966676D01*
X13298640Y-13966676D01*
X13317688Y-13957152D01*
X13327211Y-13947628D01*
X13336735Y-13928581D01*
X13336735Y-13890486D01*
X13327211Y-13871438D01*
X13317688Y-13861914D01*
X13298640Y-13852390D01*
X13460545Y-13766676D02*
X13479592Y-13766676D01*
X13498640Y-13776200D01*
X13508164Y-13785724D01*
X13517688Y-13804771D01*
X13527211Y-13842867D01*
X13527211Y-13890486D01*
X13517688Y-13928581D01*
X13508164Y-13947628D01*
X13498640Y-13957152D01*
X13479592Y-13966676D01*
X13460545Y-13966676D01*
X13441497Y-13957152D01*
X13431973Y-13947628D01*
X13422449Y-13928581D01*
X13412926Y-13890486D01*
X13412926Y-13842867D01*
X13422449Y-13804771D01*
X13431973Y-13785724D01*
X13441497Y-13776200D01*
X13460545Y-13766676D01*
X13651021Y-13766676D02*
X13670068Y-13766676D01*
X13689116Y-13776200D01*
X13698640Y-13785724D01*
X13708164Y-13804771D01*
X13717688Y-13842867D01*
X13717688Y-13890486D01*
X13708164Y-13928581D01*
X13698640Y-13947628D01*
X13689116Y-13957152D01*
X13670068Y-13966676D01*
X13651021Y-13966676D01*
X13631973Y-13957152D01*
X13622449Y-13947628D01*
X13612926Y-13928581D01*
X13603402Y-13890486D01*
X13603402Y-13842867D01*
X13612926Y-13804771D01*
X13622449Y-13785724D01*
X13631973Y-13776200D01*
X13651021Y-13766676D01*
X13803402Y-13966676D02*
X13803402Y-13833343D01*
X13803402Y-13852390D02*
X13812926Y-13842867D01*
X13831973Y-13833343D01*
X13860545Y-13833343D01*
X13879592Y-13842867D01*
X13889116Y-13861914D01*
X13889116Y-13966676D01*
X13889116Y-13861914D02*
X13898640Y-13842867D01*
X13917688Y-13833343D01*
X13946259Y-13833343D01*
X13965307Y-13842867D01*
X13974830Y-13861914D01*
X13974830Y-13966676D01*
X14070068Y-13966676D02*
X14070068Y-13833343D01*
X14070068Y-13852390D02*
X14079592Y-13842867D01*
X14098640Y-13833343D01*
X14127211Y-13833343D01*
X14146259Y-13842867D01*
X14155783Y-13861914D01*
X14155783Y-13966676D01*
X14155783Y-13861914D02*
X14165307Y-13842867D01*
X14184354Y-13833343D01*
X14212926Y-13833343D01*
X14231973Y-13842867D01*
X14241497Y-13861914D01*
X14241497Y-13966676D01*
X14631973Y-13757152D02*
X14460545Y-14014295D01*
X14889116Y-13766676D02*
X14908164Y-13766676D01*
X14927211Y-13776200D01*
X14936735Y-13785724D01*
X14946259Y-13804771D01*
X14955783Y-13842867D01*
X14955783Y-13890486D01*
X14946259Y-13928581D01*
X14936735Y-13947628D01*
X14927211Y-13957152D01*
X14908164Y-13966676D01*
X14889116Y-13966676D01*
X14870068Y-13957152D01*
X14860545Y-13947628D01*
X14851021Y-13928581D01*
X14841497Y-13890486D01*
X14841497Y-13842867D01*
X14851021Y-13804771D01*
X14860545Y-13785724D01*
X14870068Y-13776200D01*
X14889116Y-13766676D01*
X15041497Y-13947628D02*
X15051021Y-13957152D01*
X15041497Y-13966676D01*
X15031973Y-13957152D01*
X15041497Y-13947628D01*
X15041497Y-13966676D01*
X15174830Y-13766676D02*
X15193878Y-13766676D01*
X15212926Y-13776200D01*
X15222449Y-13785724D01*
X15231973Y-13804771D01*
X15241497Y-13842867D01*
X15241497Y-13890486D01*
X15231973Y-13928581D01*
X15222449Y-13947628D01*
X15212926Y-13957152D01*
X15193878Y-13966676D01*
X15174830Y-13966676D01*
X15155783Y-13957152D01*
X15146259Y-13947628D01*
X15136735Y-13928581D01*
X15127211Y-13890486D01*
X15127211Y-13842867D01*
X15136735Y-13804771D01*
X15146259Y-13785724D01*
X15155783Y-13776200D01*
X15174830Y-13766676D01*
X15308164Y-13766676D02*
X15431973Y-13766676D01*
X15365307Y-13842867D01*
X15393878Y-13842867D01*
X15412926Y-13852390D01*
X15422449Y-13861914D01*
X15431973Y-13880962D01*
X15431973Y-13928581D01*
X15422449Y-13947628D01*
X15412926Y-13957152D01*
X15393878Y-13966676D01*
X15336735Y-13966676D01*
X15317688Y-13957152D01*
X15308164Y-13947628D01*
X15622449Y-13966676D02*
X15508164Y-13966676D01*
X15565307Y-13966676D02*
X15565307Y-13766676D01*
X15546259Y-13795248D01*
X15527211Y-13814295D01*
X15508164Y-13823819D01*
X15803402Y-13766676D02*
X15708164Y-13766676D01*
X15698640Y-13861914D01*
X15708164Y-13852390D01*
X15727211Y-13842867D01*
X15774830Y-13842867D01*
X15793878Y-13852390D01*
X15803402Y-13861914D01*
X15812926Y-13880962D01*
X15812926Y-13928581D01*
X15803402Y-13947628D01*
X15793878Y-13957152D01*
X15774830Y-13966676D01*
X15727211Y-13966676D01*
X15708164Y-13957152D01*
X15698640Y-13947628D01*
X15889116Y-13766676D02*
X15889116Y-13804771D01*
X15965307Y-13766676D02*
X15965307Y-13804771D01*
X16260545Y-14042867D02*
X16251021Y-14033343D01*
X16231973Y-14004771D01*
X16222449Y-13985724D01*
X16212926Y-13957152D01*
X16203402Y-13909533D01*
X16203402Y-13871438D01*
X16212926Y-13823819D01*
X16222449Y-13795248D01*
X16231973Y-13776200D01*
X16251021Y-13747628D01*
X16260545Y-13738105D01*
X16422449Y-13833343D02*
X16422449Y-13966676D01*
X16374830Y-13757152D02*
X16327211Y-13900009D01*
X16451021Y-13900009D01*
X16679592Y-13966676D02*
X16679592Y-13766676D01*
X16765307Y-13966676D02*
X16765307Y-13861914D01*
X16755783Y-13842867D01*
X16736735Y-13833343D01*
X16708164Y-13833343D01*
X16689116Y-13842867D01*
X16679592Y-13852390D01*
X16889116Y-13966676D02*
X16870069Y-13957152D01*
X16860545Y-13947628D01*
X16851021Y-13928581D01*
X16851021Y-13871438D01*
X16860545Y-13852390D01*
X16870069Y-13842867D01*
X16889116Y-13833343D01*
X16917688Y-13833343D01*
X16936735Y-13842867D01*
X16946259Y-13852390D01*
X16955783Y-13871438D01*
X16955783Y-13928581D01*
X16946259Y-13947628D01*
X16936735Y-13957152D01*
X16917688Y-13966676D01*
X16889116Y-13966676D01*
X17070069Y-13966676D02*
X17051021Y-13957152D01*
X17041497Y-13938105D01*
X17041497Y-13766676D01*
X17222450Y-13957152D02*
X17203402Y-13966676D01*
X17165307Y-13966676D01*
X17146259Y-13957152D01*
X17136735Y-13938105D01*
X17136735Y-13861914D01*
X17146259Y-13842867D01*
X17165307Y-13833343D01*
X17203402Y-13833343D01*
X17222450Y-13842867D01*
X17231973Y-13861914D01*
X17231973Y-13880962D01*
X17136735Y-13900009D01*
X17308164Y-13957152D02*
X17327211Y-13966676D01*
X17365307Y-13966676D01*
X17384354Y-13957152D01*
X17393878Y-13938105D01*
X17393878Y-13928581D01*
X17384354Y-13909533D01*
X17365307Y-13900009D01*
X17336735Y-13900009D01*
X17317688Y-13890486D01*
X17308164Y-13871438D01*
X17308164Y-13861914D01*
X17317688Y-13842867D01*
X17336735Y-13833343D01*
X17365307Y-13833343D01*
X17384354Y-13842867D01*
X17460545Y-14042867D02*
X17470069Y-14033343D01*
X17489116Y-14004771D01*
X17498640Y-13985724D01*
X17508164Y-13957152D01*
X17517688Y-13909533D01*
X17517688Y-13871438D01*
X17508164Y-13823819D01*
X17498640Y-13795248D01*
X17489116Y-13776200D01*
X17470069Y-13747628D01*
X17460545Y-13738105D01*
D14*
X12675460Y-14172020D02*
X12675460Y-14108380D01*
X12611820Y-14108380D01*
X12611820Y-14172020D01*
X12675460Y-14172020D01*
D11*
X12984354Y-14030676D02*
X13003402Y-14030676D01*
X13022449Y-14040200D01*
X13031973Y-14049724D01*
X13041497Y-14068771D01*
X13051021Y-14106867D01*
X13051021Y-14154486D01*
X13041497Y-14192581D01*
X13031973Y-14211628D01*
X13022449Y-14221152D01*
X13003402Y-14230676D01*
X12984354Y-14230676D01*
X12965307Y-14221152D01*
X12955783Y-14211628D01*
X12946259Y-14192581D01*
X12936735Y-14154486D01*
X12936735Y-14106867D01*
X12946259Y-14068771D01*
X12955783Y-14049724D01*
X12965307Y-14040200D01*
X12984354Y-14030676D01*
X13136735Y-14211628D02*
X13146259Y-14221152D01*
X13136735Y-14230676D01*
X13127211Y-14221152D01*
X13136735Y-14211628D01*
X13136735Y-14230676D01*
X13241497Y-14230676D02*
X13279592Y-14230676D01*
X13298640Y-14221152D01*
X13308164Y-14211628D01*
X13327211Y-14183057D01*
X13336735Y-14144962D01*
X13336735Y-14068771D01*
X13327211Y-14049724D01*
X13317688Y-14040200D01*
X13298640Y-14030676D01*
X13260545Y-14030676D01*
X13241497Y-14040200D01*
X13231973Y-14049724D01*
X13222449Y-14068771D01*
X13222449Y-14116390D01*
X13231973Y-14135438D01*
X13241497Y-14144962D01*
X13260545Y-14154486D01*
X13298640Y-14154486D01*
X13317688Y-14144962D01*
X13327211Y-14135438D01*
X13336735Y-14116390D01*
X13460545Y-14030676D02*
X13479592Y-14030676D01*
X13498640Y-14040200D01*
X13508164Y-14049724D01*
X13517688Y-14068771D01*
X13527211Y-14106867D01*
X13527211Y-14154486D01*
X13517688Y-14192581D01*
X13508164Y-14211628D01*
X13498640Y-14221152D01*
X13479592Y-14230676D01*
X13460545Y-14230676D01*
X13441497Y-14221152D01*
X13431973Y-14211628D01*
X13422449Y-14192581D01*
X13412926Y-14154486D01*
X13412926Y-14106867D01*
X13422449Y-14068771D01*
X13431973Y-14049724D01*
X13441497Y-14040200D01*
X13460545Y-14030676D01*
X13651021Y-14030676D02*
X13670068Y-14030676D01*
X13689116Y-14040200D01*
X13698640Y-14049724D01*
X13708164Y-14068771D01*
X13717688Y-14106867D01*
X13717688Y-14154486D01*
X13708164Y-14192581D01*
X13698640Y-14211628D01*
X13689116Y-14221152D01*
X13670068Y-14230676D01*
X13651021Y-14230676D01*
X13631973Y-14221152D01*
X13622449Y-14211628D01*
X13612926Y-14192581D01*
X13603402Y-14154486D01*
X13603402Y-14106867D01*
X13612926Y-14068771D01*
X13622449Y-14049724D01*
X13631973Y-14040200D01*
X13651021Y-14030676D01*
X13803402Y-14230676D02*
X13803402Y-14097343D01*
X13803402Y-14116390D02*
X13812926Y-14106867D01*
X13831973Y-14097343D01*
X13860545Y-14097343D01*
X13879592Y-14106867D01*
X13889116Y-14125914D01*
X13889116Y-14230676D01*
X13889116Y-14125914D02*
X13898640Y-14106867D01*
X13917688Y-14097343D01*
X13946259Y-14097343D01*
X13965307Y-14106867D01*
X13974830Y-14125914D01*
X13974830Y-14230676D01*
X14070068Y-14230676D02*
X14070068Y-14097343D01*
X14070068Y-14116390D02*
X14079592Y-14106867D01*
X14098640Y-14097343D01*
X14127211Y-14097343D01*
X14146259Y-14106867D01*
X14155783Y-14125914D01*
X14155783Y-14230676D01*
X14155783Y-14125914D02*
X14165307Y-14106867D01*
X14184354Y-14097343D01*
X14212926Y-14097343D01*
X14231973Y-14106867D01*
X14241497Y-14125914D01*
X14241497Y-14230676D01*
X14631973Y-14021152D02*
X14460545Y-14278295D01*
X14889116Y-14030676D02*
X14908164Y-14030676D01*
X14927211Y-14040200D01*
X14936735Y-14049724D01*
X14946259Y-14068771D01*
X14955783Y-14106867D01*
X14955783Y-14154486D01*
X14946259Y-14192581D01*
X14936735Y-14211628D01*
X14927211Y-14221152D01*
X14908164Y-14230676D01*
X14889116Y-14230676D01*
X14870068Y-14221152D01*
X14860545Y-14211628D01*
X14851021Y-14192581D01*
X14841497Y-14154486D01*
X14841497Y-14106867D01*
X14851021Y-14068771D01*
X14860545Y-14049724D01*
X14870068Y-14040200D01*
X14889116Y-14030676D01*
X15041497Y-14211628D02*
X15051021Y-14221152D01*
X15041497Y-14230676D01*
X15031973Y-14221152D01*
X15041497Y-14211628D01*
X15041497Y-14230676D01*
X15174830Y-14030676D02*
X15193878Y-14030676D01*
X15212926Y-14040200D01*
X15222449Y-14049724D01*
X15231973Y-14068771D01*
X15241497Y-14106867D01*
X15241497Y-14154486D01*
X15231973Y-14192581D01*
X15222449Y-14211628D01*
X15212926Y-14221152D01*
X15193878Y-14230676D01*
X15174830Y-14230676D01*
X15155783Y-14221152D01*
X15146259Y-14211628D01*
X15136735Y-14192581D01*
X15127211Y-14154486D01*
X15127211Y-14106867D01*
X15136735Y-14068771D01*
X15146259Y-14049724D01*
X15155783Y-14040200D01*
X15174830Y-14030676D01*
X15308164Y-14030676D02*
X15431973Y-14030676D01*
X15365307Y-14106867D01*
X15393878Y-14106867D01*
X15412926Y-14116390D01*
X15422449Y-14125914D01*
X15431973Y-14144962D01*
X15431973Y-14192581D01*
X15422449Y-14211628D01*
X15412926Y-14221152D01*
X15393878Y-14230676D01*
X15336735Y-14230676D01*
X15317688Y-14221152D01*
X15308164Y-14211628D01*
X15612926Y-14030676D02*
X15517688Y-14030676D01*
X15508164Y-14125914D01*
X15517688Y-14116390D01*
X15536735Y-14106867D01*
X15584354Y-14106867D01*
X15603402Y-14116390D01*
X15612926Y-14125914D01*
X15622449Y-14144962D01*
X15622449Y-14192581D01*
X15612926Y-14211628D01*
X15603402Y-14221152D01*
X15584354Y-14230676D01*
X15536735Y-14230676D01*
X15517688Y-14221152D01*
X15508164Y-14211628D01*
X15793878Y-14097343D02*
X15793878Y-14230676D01*
X15746259Y-14021152D02*
X15698640Y-14164009D01*
X15822449Y-14164009D01*
X15889116Y-14030676D02*
X15889116Y-14068771D01*
X15965307Y-14030676D02*
X15965307Y-14068771D01*
X16260545Y-14306867D02*
X16251021Y-14297343D01*
X16231973Y-14268771D01*
X16222449Y-14249724D01*
X16212926Y-14221152D01*
X16203402Y-14173533D01*
X16203402Y-14135438D01*
X16212926Y-14087819D01*
X16222449Y-14059248D01*
X16231973Y-14040200D01*
X16251021Y-14011628D01*
X16260545Y-14002105D01*
X16441497Y-14230676D02*
X16327211Y-14230676D01*
X16384354Y-14230676D02*
X16384354Y-14030676D01*
X16365307Y-14059248D01*
X16346259Y-14078295D01*
X16327211Y-14087819D01*
X16679592Y-14230676D02*
X16679592Y-14030676D01*
X16765307Y-14230676D02*
X16765307Y-14125914D01*
X16755783Y-14106867D01*
X16736735Y-14097343D01*
X16708164Y-14097343D01*
X16689116Y-14106867D01*
X16679592Y-14116390D01*
X16889116Y-14230676D02*
X16870069Y-14221152D01*
X16860545Y-14211628D01*
X16851021Y-14192581D01*
X16851021Y-14135438D01*
X16860545Y-14116390D01*
X16870069Y-14106867D01*
X16889116Y-14097343D01*
X16917688Y-14097343D01*
X16936735Y-14106867D01*
X16946259Y-14116390D01*
X16955783Y-14135438D01*
X16955783Y-14192581D01*
X16946259Y-14211628D01*
X16936735Y-14221152D01*
X16917688Y-14230676D01*
X16889116Y-14230676D01*
X17070069Y-14230676D02*
X17051021Y-14221152D01*
X17041497Y-14202105D01*
X17041497Y-14030676D01*
X17222450Y-14221152D02*
X17203402Y-14230676D01*
X17165307Y-14230676D01*
X17146259Y-14221152D01*
X17136735Y-14202105D01*
X17136735Y-14125914D01*
X17146259Y-14106867D01*
X17165307Y-14097343D01*
X17203402Y-14097343D01*
X17222450Y-14106867D01*
X17231973Y-14125914D01*
X17231973Y-14144962D01*
X17136735Y-14164009D01*
X17298640Y-14306867D02*
X17308164Y-14297343D01*
X17327211Y-14268771D01*
X17336735Y-14249724D01*
X17346259Y-14221152D01*
X17355783Y-14173533D01*
X17355783Y-14135438D01*
X17346259Y-14087819D01*
X17336735Y-14059248D01*
X17327211Y-14040200D01*
X17308164Y-14011628D01*
X17298640Y-14002105D01*
D15*
X12638640Y-14454200D02*
X12688640Y-14404200D01*
X12638640Y-14354200D01*
X12588640Y-14404200D01*
X12638640Y-14454200D01*
D11*
X13051021Y-14494676D02*
X12936735Y-14494676D01*
X12993878Y-14494676D02*
X12993878Y-14294676D01*
X12974830Y-14323248D01*
X12955783Y-14342295D01*
X12936735Y-14351819D01*
X13136735Y-14475628D02*
X13146259Y-14485152D01*
X13136735Y-14494676D01*
X13127211Y-14485152D01*
X13136735Y-14475628D01*
X13136735Y-14494676D01*
X13270068Y-14294676D02*
X13289116Y-14294676D01*
X13308164Y-14304200D01*
X13317688Y-14313724D01*
X13327211Y-14332771D01*
X13336735Y-14370867D01*
X13336735Y-14418486D01*
X13327211Y-14456581D01*
X13317688Y-14475628D01*
X13308164Y-14485152D01*
X13289116Y-14494676D01*
X13270068Y-14494676D01*
X13251021Y-14485152D01*
X13241497Y-14475628D01*
X13231973Y-14456581D01*
X13222449Y-14418486D01*
X13222449Y-14370867D01*
X13231973Y-14332771D01*
X13241497Y-14313724D01*
X13251021Y-14304200D01*
X13270068Y-14294676D01*
X13460545Y-14294676D02*
X13479592Y-14294676D01*
X13498640Y-14304200D01*
X13508164Y-14313724D01*
X13517688Y-14332771D01*
X13527211Y-14370867D01*
X13527211Y-14418486D01*
X13517688Y-14456581D01*
X13508164Y-14475628D01*
X13498640Y-14485152D01*
X13479592Y-14494676D01*
X13460545Y-14494676D01*
X13441497Y-14485152D01*
X13431973Y-14475628D01*
X13422449Y-14456581D01*
X13412926Y-14418486D01*
X13412926Y-14370867D01*
X13422449Y-14332771D01*
X13431973Y-14313724D01*
X13441497Y-14304200D01*
X13460545Y-14294676D01*
X13651021Y-14294676D02*
X13670068Y-14294676D01*
X13689116Y-14304200D01*
X13698640Y-14313724D01*
X13708164Y-14332771D01*
X13717688Y-14370867D01*
X13717688Y-14418486D01*
X13708164Y-14456581D01*
X13698640Y-14475628D01*
X13689116Y-14485152D01*
X13670068Y-14494676D01*
X13651021Y-14494676D01*
X13631973Y-14485152D01*
X13622449Y-14475628D01*
X13612926Y-14456581D01*
X13603402Y-14418486D01*
X13603402Y-14370867D01*
X13612926Y-14332771D01*
X13622449Y-14313724D01*
X13631973Y-14304200D01*
X13651021Y-14294676D01*
X13803402Y-14494676D02*
X13803402Y-14361343D01*
X13803402Y-14380390D02*
X13812926Y-14370867D01*
X13831973Y-14361343D01*
X13860545Y-14361343D01*
X13879592Y-14370867D01*
X13889116Y-14389914D01*
X13889116Y-14494676D01*
X13889116Y-14389914D02*
X13898640Y-14370867D01*
X13917688Y-14361343D01*
X13946259Y-14361343D01*
X13965307Y-14370867D01*
X13974830Y-14389914D01*
X13974830Y-14494676D01*
X14070068Y-14494676D02*
X14070068Y-14361343D01*
X14070068Y-14380390D02*
X14079592Y-14370867D01*
X14098640Y-14361343D01*
X14127211Y-14361343D01*
X14146259Y-14370867D01*
X14155783Y-14389914D01*
X14155783Y-14494676D01*
X14155783Y-14389914D02*
X14165307Y-14370867D01*
X14184354Y-14361343D01*
X14212926Y-14361343D01*
X14231973Y-14370867D01*
X14241497Y-14389914D01*
X14241497Y-14494676D01*
X14631973Y-14285152D02*
X14460545Y-14542295D01*
X14889116Y-14294676D02*
X14908164Y-14294676D01*
X14927211Y-14304200D01*
X14936735Y-14313724D01*
X14946259Y-14332771D01*
X14955783Y-14370867D01*
X14955783Y-14418486D01*
X14946259Y-14456581D01*
X14936735Y-14475628D01*
X14927211Y-14485152D01*
X14908164Y-14494676D01*
X14889116Y-14494676D01*
X14870068Y-14485152D01*
X14860545Y-14475628D01*
X14851021Y-14456581D01*
X14841497Y-14418486D01*
X14841497Y-14370867D01*
X14851021Y-14332771D01*
X14860545Y-14313724D01*
X14870068Y-14304200D01*
X14889116Y-14294676D01*
X15041497Y-14475628D02*
X15051021Y-14485152D01*
X15041497Y-14494676D01*
X15031973Y-14485152D01*
X15041497Y-14475628D01*
X15041497Y-14494676D01*
X15174830Y-14294676D02*
X15193878Y-14294676D01*
X15212926Y-14304200D01*
X15222449Y-14313724D01*
X15231973Y-14332771D01*
X15241497Y-14370867D01*
X15241497Y-14418486D01*
X15231973Y-14456581D01*
X15222449Y-14475628D01*
X15212926Y-14485152D01*
X15193878Y-14494676D01*
X15174830Y-14494676D01*
X15155783Y-14485152D01*
X15146259Y-14475628D01*
X15136735Y-14456581D01*
X15127211Y-14418486D01*
X15127211Y-14370867D01*
X15136735Y-14332771D01*
X15146259Y-14313724D01*
X15155783Y-14304200D01*
X15174830Y-14294676D01*
X15308164Y-14294676D02*
X15431973Y-14294676D01*
X15365307Y-14370867D01*
X15393878Y-14370867D01*
X15412926Y-14380390D01*
X15422449Y-14389914D01*
X15431973Y-14408962D01*
X15431973Y-14456581D01*
X15422449Y-14475628D01*
X15412926Y-14485152D01*
X15393878Y-14494676D01*
X15336735Y-14494676D01*
X15317688Y-14485152D01*
X15308164Y-14475628D01*
X15527211Y-14494676D02*
X15565307Y-14494676D01*
X15584354Y-14485152D01*
X15593878Y-14475628D01*
X15612926Y-14447057D01*
X15622449Y-14408962D01*
X15622449Y-14332771D01*
X15612926Y-14313724D01*
X15603402Y-14304200D01*
X15584354Y-14294676D01*
X15546259Y-14294676D01*
X15527211Y-14304200D01*
X15517688Y-14313724D01*
X15508164Y-14332771D01*
X15508164Y-14380390D01*
X15517688Y-14399438D01*
X15527211Y-14408962D01*
X15546259Y-14418486D01*
X15584354Y-14418486D01*
X15603402Y-14408962D01*
X15612926Y-14399438D01*
X15622449Y-14380390D01*
X15793878Y-14361343D02*
X15793878Y-14494676D01*
X15746259Y-14285152D02*
X15698640Y-14428009D01*
X15822449Y-14428009D01*
X15889116Y-14294676D02*
X15889116Y-14332771D01*
X15965307Y-14294676D02*
X15965307Y-14332771D01*
X16260545Y-14570867D02*
X16251021Y-14561343D01*
X16231973Y-14532771D01*
X16222449Y-14513724D01*
X16212926Y-14485152D01*
X16203402Y-14437533D01*
X16203402Y-14399438D01*
X16212926Y-14351819D01*
X16222449Y-14323248D01*
X16231973Y-14304200D01*
X16251021Y-14275628D01*
X16260545Y-14266105D01*
X16327211Y-14313724D02*
X16336735Y-14304200D01*
X16355783Y-14294676D01*
X16403402Y-14294676D01*
X16422449Y-14304200D01*
X16431973Y-14313724D01*
X16441497Y-14332771D01*
X16441497Y-14351819D01*
X16431973Y-14380390D01*
X16317688Y-14494676D01*
X16441497Y-14494676D01*
X16565307Y-14294676D02*
X16584354Y-14294676D01*
X16603402Y-14304200D01*
X16612926Y-14313724D01*
X16622449Y-14332771D01*
X16631973Y-14370867D01*
X16631973Y-14418486D01*
X16622449Y-14456581D01*
X16612926Y-14475628D01*
X16603402Y-14485152D01*
X16584354Y-14494676D01*
X16565307Y-14494676D01*
X16546259Y-14485152D01*
X16536735Y-14475628D01*
X16527211Y-14456581D01*
X16517688Y-14418486D01*
X16517688Y-14370867D01*
X16527211Y-14332771D01*
X16536735Y-14313724D01*
X16546259Y-14304200D01*
X16565307Y-14294676D01*
X16870069Y-14494676D02*
X16870069Y-14294676D01*
X16955783Y-14494676D02*
X16955783Y-14389914D01*
X16946259Y-14370867D01*
X16927211Y-14361343D01*
X16898640Y-14361343D01*
X16879592Y-14370867D01*
X16870069Y-14380390D01*
X17079592Y-14494676D02*
X17060545Y-14485152D01*
X17051021Y-14475628D01*
X17041497Y-14456581D01*
X17041497Y-14399438D01*
X17051021Y-14380390D01*
X17060545Y-14370867D01*
X17079592Y-14361343D01*
X17108164Y-14361343D01*
X17127211Y-14370867D01*
X17136735Y-14380390D01*
X17146259Y-14399438D01*
X17146259Y-14456581D01*
X17136735Y-14475628D01*
X17127211Y-14485152D01*
X17108164Y-14494676D01*
X17079592Y-14494676D01*
X17260545Y-14494676D02*
X17241497Y-14485152D01*
X17231973Y-14466105D01*
X17231973Y-14294676D01*
X17412926Y-14485152D02*
X17393878Y-14494676D01*
X17355783Y-14494676D01*
X17336735Y-14485152D01*
X17327211Y-14466105D01*
X17327211Y-14389914D01*
X17336735Y-14370867D01*
X17355783Y-14361343D01*
X17393878Y-14361343D01*
X17412926Y-14370867D01*
X17422450Y-14389914D01*
X17422450Y-14408962D01*
X17327211Y-14428009D01*
X17498640Y-14485152D02*
X17517688Y-14494676D01*
X17555783Y-14494676D01*
X17574830Y-14485152D01*
X17584354Y-14466105D01*
X17584354Y-14456581D01*
X17574830Y-14437533D01*
X17555783Y-14428009D01*
X17527211Y-14428009D01*
X17508164Y-14418486D01*
X17498640Y-14399438D01*
X17498640Y-14389914D01*
X17508164Y-14370867D01*
X17527211Y-14361343D01*
X17555783Y-14361343D01*
X17574830Y-14370867D01*
X17651021Y-14570867D02*
X17660545Y-14561343D01*
X17679592Y-14532771D01*
X17689116Y-14513724D01*
X17698640Y-14485152D01*
X17708164Y-14437533D01*
X17708164Y-14399438D01*
X17698640Y-14351819D01*
X17689116Y-14323248D01*
X17679592Y-14304200D01*
X17660545Y-14275628D01*
X17651021Y-14266105D01*
D15*
X12588640Y-14618200D02*
X12688640Y-14718200D01*
X12688640Y-14618200D02*
X12588640Y-14718200D01*
X12688640Y-14668200D02*
G75*
G03*
X12688640Y-14668200I-50000J0D01*
G01*
D11*
X13051021Y-14758676D02*
X12936735Y-14758676D01*
X12993878Y-14758676D02*
X12993878Y-14558676D01*
X12974830Y-14587248D01*
X12955783Y-14606295D01*
X12936735Y-14615819D01*
X13136735Y-14739628D02*
X13146259Y-14749152D01*
X13136735Y-14758676D01*
X13127211Y-14749152D01*
X13136735Y-14739628D01*
X13136735Y-14758676D01*
X13270068Y-14558676D02*
X13289116Y-14558676D01*
X13308164Y-14568200D01*
X13317688Y-14577724D01*
X13327211Y-14596771D01*
X13336735Y-14634867D01*
X13336735Y-14682486D01*
X13327211Y-14720581D01*
X13317688Y-14739628D01*
X13308164Y-14749152D01*
X13289116Y-14758676D01*
X13270068Y-14758676D01*
X13251021Y-14749152D01*
X13241497Y-14739628D01*
X13231973Y-14720581D01*
X13222449Y-14682486D01*
X13222449Y-14634867D01*
X13231973Y-14596771D01*
X13241497Y-14577724D01*
X13251021Y-14568200D01*
X13270068Y-14558676D01*
X13460545Y-14558676D02*
X13479592Y-14558676D01*
X13498640Y-14568200D01*
X13508164Y-14577724D01*
X13517688Y-14596771D01*
X13527211Y-14634867D01*
X13527211Y-14682486D01*
X13517688Y-14720581D01*
X13508164Y-14739628D01*
X13498640Y-14749152D01*
X13479592Y-14758676D01*
X13460545Y-14758676D01*
X13441497Y-14749152D01*
X13431973Y-14739628D01*
X13422449Y-14720581D01*
X13412926Y-14682486D01*
X13412926Y-14634867D01*
X13422449Y-14596771D01*
X13431973Y-14577724D01*
X13441497Y-14568200D01*
X13460545Y-14558676D01*
X13651021Y-14558676D02*
X13670068Y-14558676D01*
X13689116Y-14568200D01*
X13698640Y-14577724D01*
X13708164Y-14596771D01*
X13717688Y-14634867D01*
X13717688Y-14682486D01*
X13708164Y-14720581D01*
X13698640Y-14739628D01*
X13689116Y-14749152D01*
X13670068Y-14758676D01*
X13651021Y-14758676D01*
X13631973Y-14749152D01*
X13622449Y-14739628D01*
X13612926Y-14720581D01*
X13603402Y-14682486D01*
X13603402Y-14634867D01*
X13612926Y-14596771D01*
X13622449Y-14577724D01*
X13631973Y-14568200D01*
X13651021Y-14558676D01*
X13803402Y-14758676D02*
X13803402Y-14625343D01*
X13803402Y-14644390D02*
X13812926Y-14634867D01*
X13831973Y-14625343D01*
X13860545Y-14625343D01*
X13879592Y-14634867D01*
X13889116Y-14653914D01*
X13889116Y-14758676D01*
X13889116Y-14653914D02*
X13898640Y-14634867D01*
X13917688Y-14625343D01*
X13946259Y-14625343D01*
X13965307Y-14634867D01*
X13974830Y-14653914D01*
X13974830Y-14758676D01*
X14070068Y-14758676D02*
X14070068Y-14625343D01*
X14070068Y-14644390D02*
X14079592Y-14634867D01*
X14098640Y-14625343D01*
X14127211Y-14625343D01*
X14146259Y-14634867D01*
X14155783Y-14653914D01*
X14155783Y-14758676D01*
X14155783Y-14653914D02*
X14165307Y-14634867D01*
X14184354Y-14625343D01*
X14212926Y-14625343D01*
X14231973Y-14634867D01*
X14241497Y-14653914D01*
X14241497Y-14758676D01*
X14631973Y-14549152D02*
X14460545Y-14806295D01*
X14889116Y-14558676D02*
X14908164Y-14558676D01*
X14927211Y-14568200D01*
X14936735Y-14577724D01*
X14946259Y-14596771D01*
X14955783Y-14634867D01*
X14955783Y-14682486D01*
X14946259Y-14720581D01*
X14936735Y-14739628D01*
X14927211Y-14749152D01*
X14908164Y-14758676D01*
X14889116Y-14758676D01*
X14870068Y-14749152D01*
X14860545Y-14739628D01*
X14851021Y-14720581D01*
X14841497Y-14682486D01*
X14841497Y-14634867D01*
X14851021Y-14596771D01*
X14860545Y-14577724D01*
X14870068Y-14568200D01*
X14889116Y-14558676D01*
X15041497Y-14739628D02*
X15051021Y-14749152D01*
X15041497Y-14758676D01*
X15031973Y-14749152D01*
X15041497Y-14739628D01*
X15041497Y-14758676D01*
X15174830Y-14558676D02*
X15193878Y-14558676D01*
X15212926Y-14568200D01*
X15222449Y-14577724D01*
X15231973Y-14596771D01*
X15241497Y-14634867D01*
X15241497Y-14682486D01*
X15231973Y-14720581D01*
X15222449Y-14739628D01*
X15212926Y-14749152D01*
X15193878Y-14758676D01*
X15174830Y-14758676D01*
X15155783Y-14749152D01*
X15146259Y-14739628D01*
X15136735Y-14720581D01*
X15127211Y-14682486D01*
X15127211Y-14634867D01*
X15136735Y-14596771D01*
X15146259Y-14577724D01*
X15155783Y-14568200D01*
X15174830Y-14558676D01*
X15308164Y-14558676D02*
X15431973Y-14558676D01*
X15365307Y-14634867D01*
X15393878Y-14634867D01*
X15412926Y-14644390D01*
X15422449Y-14653914D01*
X15431973Y-14672962D01*
X15431973Y-14720581D01*
X15422449Y-14739628D01*
X15412926Y-14749152D01*
X15393878Y-14758676D01*
X15336735Y-14758676D01*
X15317688Y-14749152D01*
X15308164Y-14739628D01*
X15527211Y-14758676D02*
X15565307Y-14758676D01*
X15584354Y-14749152D01*
X15593878Y-14739628D01*
X15612926Y-14711057D01*
X15622449Y-14672962D01*
X15622449Y-14596771D01*
X15612926Y-14577724D01*
X15603402Y-14568200D01*
X15584354Y-14558676D01*
X15546259Y-14558676D01*
X15527211Y-14568200D01*
X15517688Y-14577724D01*
X15508164Y-14596771D01*
X15508164Y-14644390D01*
X15517688Y-14663438D01*
X15527211Y-14672962D01*
X15546259Y-14682486D01*
X15584354Y-14682486D01*
X15603402Y-14672962D01*
X15612926Y-14663438D01*
X15622449Y-14644390D01*
X15793878Y-14625343D02*
X15793878Y-14758676D01*
X15746259Y-14549152D02*
X15698640Y-14692009D01*
X15822449Y-14692009D01*
X15889116Y-14558676D02*
X15889116Y-14596771D01*
X15965307Y-14558676D02*
X15965307Y-14596771D01*
X16260545Y-14834867D02*
X16251021Y-14825343D01*
X16231973Y-14796771D01*
X16222449Y-14777724D01*
X16212926Y-14749152D01*
X16203402Y-14701533D01*
X16203402Y-14663438D01*
X16212926Y-14615819D01*
X16222449Y-14587248D01*
X16231973Y-14568200D01*
X16251021Y-14539628D01*
X16260545Y-14530105D01*
X16441497Y-14758676D02*
X16327211Y-14758676D01*
X16384354Y-14758676D02*
X16384354Y-14558676D01*
X16365307Y-14587248D01*
X16346259Y-14606295D01*
X16327211Y-14615819D01*
X16631973Y-14758676D02*
X16517688Y-14758676D01*
X16574830Y-14758676D02*
X16574830Y-14558676D01*
X16555783Y-14587248D01*
X16536735Y-14606295D01*
X16517688Y-14615819D01*
X16870069Y-14758676D02*
X16870069Y-14558676D01*
X16955783Y-14758676D02*
X16955783Y-14653914D01*
X16946259Y-14634867D01*
X16927211Y-14625343D01*
X16898640Y-14625343D01*
X16879592Y-14634867D01*
X16870069Y-14644390D01*
X17079592Y-14758676D02*
X17060545Y-14749152D01*
X17051021Y-14739628D01*
X17041497Y-14720581D01*
X17041497Y-14663438D01*
X17051021Y-14644390D01*
X17060545Y-14634867D01*
X17079592Y-14625343D01*
X17108164Y-14625343D01*
X17127211Y-14634867D01*
X17136735Y-14644390D01*
X17146259Y-14663438D01*
X17146259Y-14720581D01*
X17136735Y-14739628D01*
X17127211Y-14749152D01*
X17108164Y-14758676D01*
X17079592Y-14758676D01*
X17260545Y-14758676D02*
X17241497Y-14749152D01*
X17231973Y-14730105D01*
X17231973Y-14558676D01*
X17412926Y-14749152D02*
X17393878Y-14758676D01*
X17355783Y-14758676D01*
X17336735Y-14749152D01*
X17327211Y-14730105D01*
X17327211Y-14653914D01*
X17336735Y-14634867D01*
X17355783Y-14625343D01*
X17393878Y-14625343D01*
X17412926Y-14634867D01*
X17422450Y-14653914D01*
X17422450Y-14672962D01*
X17327211Y-14692009D01*
X17498640Y-14749152D02*
X17517688Y-14758676D01*
X17555783Y-14758676D01*
X17574830Y-14749152D01*
X17584354Y-14730105D01*
X17584354Y-14720581D01*
X17574830Y-14701533D01*
X17555783Y-14692009D01*
X17527211Y-14692009D01*
X17508164Y-14682486D01*
X17498640Y-14663438D01*
X17498640Y-14653914D01*
X17508164Y-14634867D01*
X17527211Y-14625343D01*
X17555783Y-14625343D01*
X17574830Y-14634867D01*
X17651021Y-14834867D02*
X17660545Y-14825343D01*
X17679592Y-14796771D01*
X17689116Y-14777724D01*
X17698640Y-14749152D01*
X17708164Y-14701533D01*
X17708164Y-14663438D01*
X17698640Y-14615819D01*
X17689116Y-14587248D01*
X17679592Y-14568200D01*
X17660545Y-14539628D01*
X17651021Y-14530105D01*
X12488640Y-14832200D02*
X12688640Y-15032200D01*
X12688640Y-14832200D02*
X12488640Y-15032200D01*
X12588640Y-14832200D02*
X12588640Y-15032200D01*
X12488640Y-14932200D02*
X12688640Y-14932200D01*
X12936735Y-14841724D02*
X12946259Y-14832200D01*
X12965307Y-14822676D01*
X13012926Y-14822676D01*
X13031973Y-14832200D01*
X13041497Y-14841724D01*
X13051021Y-14860771D01*
X13051021Y-14879819D01*
X13041497Y-14908390D01*
X12927211Y-15022676D01*
X13051021Y-15022676D01*
X13136735Y-15003628D02*
X13146259Y-15013152D01*
X13136735Y-15022676D01*
X13127211Y-15013152D01*
X13136735Y-15003628D01*
X13136735Y-15022676D01*
X13212926Y-14822676D02*
X13346259Y-14822676D01*
X13260545Y-15022676D01*
X13460545Y-14822676D02*
X13479592Y-14822676D01*
X13498640Y-14832200D01*
X13508164Y-14841724D01*
X13517688Y-14860771D01*
X13527211Y-14898867D01*
X13527211Y-14946486D01*
X13517688Y-14984581D01*
X13508164Y-15003628D01*
X13498640Y-15013152D01*
X13479592Y-15022676D01*
X13460545Y-15022676D01*
X13441497Y-15013152D01*
X13431973Y-15003628D01*
X13422449Y-14984581D01*
X13412926Y-14946486D01*
X13412926Y-14898867D01*
X13422449Y-14860771D01*
X13431973Y-14841724D01*
X13441497Y-14832200D01*
X13460545Y-14822676D01*
X13651021Y-14822676D02*
X13670068Y-14822676D01*
X13689116Y-14832200D01*
X13698640Y-14841724D01*
X13708164Y-14860771D01*
X13717688Y-14898867D01*
X13717688Y-14946486D01*
X13708164Y-14984581D01*
X13698640Y-15003628D01*
X13689116Y-15013152D01*
X13670068Y-15022676D01*
X13651021Y-15022676D01*
X13631973Y-15013152D01*
X13622449Y-15003628D01*
X13612926Y-14984581D01*
X13603402Y-14946486D01*
X13603402Y-14898867D01*
X13612926Y-14860771D01*
X13622449Y-14841724D01*
X13631973Y-14832200D01*
X13651021Y-14822676D01*
X13803402Y-15022676D02*
X13803402Y-14889343D01*
X13803402Y-14908390D02*
X13812926Y-14898867D01*
X13831973Y-14889343D01*
X13860545Y-14889343D01*
X13879592Y-14898867D01*
X13889116Y-14917914D01*
X13889116Y-15022676D01*
X13889116Y-14917914D02*
X13898640Y-14898867D01*
X13917688Y-14889343D01*
X13946259Y-14889343D01*
X13965307Y-14898867D01*
X13974830Y-14917914D01*
X13974830Y-15022676D01*
X14070068Y-15022676D02*
X14070068Y-14889343D01*
X14070068Y-14908390D02*
X14079592Y-14898867D01*
X14098640Y-14889343D01*
X14127211Y-14889343D01*
X14146259Y-14898867D01*
X14155783Y-14917914D01*
X14155783Y-15022676D01*
X14155783Y-14917914D02*
X14165307Y-14898867D01*
X14184354Y-14889343D01*
X14212926Y-14889343D01*
X14231973Y-14898867D01*
X14241497Y-14917914D01*
X14241497Y-15022676D01*
X14631973Y-14813152D02*
X14460545Y-15070295D01*
X14889116Y-14822676D02*
X14908164Y-14822676D01*
X14927211Y-14832200D01*
X14936735Y-14841724D01*
X14946259Y-14860771D01*
X14955783Y-14898867D01*
X14955783Y-14946486D01*
X14946259Y-14984581D01*
X14936735Y-15003628D01*
X14927211Y-15013152D01*
X14908164Y-15022676D01*
X14889116Y-15022676D01*
X14870068Y-15013152D01*
X14860545Y-15003628D01*
X14851021Y-14984581D01*
X14841497Y-14946486D01*
X14841497Y-14898867D01*
X14851021Y-14860771D01*
X14860545Y-14841724D01*
X14870068Y-14832200D01*
X14889116Y-14822676D01*
X15041497Y-15003628D02*
X15051021Y-15013152D01*
X15041497Y-15022676D01*
X15031973Y-15013152D01*
X15041497Y-15003628D01*
X15041497Y-15022676D01*
X15241497Y-15022676D02*
X15127211Y-15022676D01*
X15184354Y-15022676D02*
X15184354Y-14822676D01*
X15165307Y-14851248D01*
X15146259Y-14870295D01*
X15127211Y-14879819D01*
X15365307Y-14822676D02*
X15384354Y-14822676D01*
X15403402Y-14832200D01*
X15412926Y-14841724D01*
X15422449Y-14860771D01*
X15431973Y-14898867D01*
X15431973Y-14946486D01*
X15422449Y-14984581D01*
X15412926Y-15003628D01*
X15403402Y-15013152D01*
X15384354Y-15022676D01*
X15365307Y-15022676D01*
X15346259Y-15013152D01*
X15336735Y-15003628D01*
X15327211Y-14984581D01*
X15317688Y-14946486D01*
X15317688Y-14898867D01*
X15327211Y-14860771D01*
X15336735Y-14841724D01*
X15346259Y-14832200D01*
X15365307Y-14822676D01*
X15603402Y-14822676D02*
X15565307Y-14822676D01*
X15546259Y-14832200D01*
X15536735Y-14841724D01*
X15517688Y-14870295D01*
X15508164Y-14908390D01*
X15508164Y-14984581D01*
X15517688Y-15003628D01*
X15527211Y-15013152D01*
X15546259Y-15022676D01*
X15584354Y-15022676D01*
X15603402Y-15013152D01*
X15612926Y-15003628D01*
X15622449Y-14984581D01*
X15622449Y-14936962D01*
X15612926Y-14917914D01*
X15603402Y-14908390D01*
X15584354Y-14898867D01*
X15546259Y-14898867D01*
X15527211Y-14908390D01*
X15517688Y-14917914D01*
X15508164Y-14936962D01*
X15689116Y-14822676D02*
X15812926Y-14822676D01*
X15746259Y-14898867D01*
X15774830Y-14898867D01*
X15793878Y-14908390D01*
X15803402Y-14917914D01*
X15812926Y-14936962D01*
X15812926Y-14984581D01*
X15803402Y-15003628D01*
X15793878Y-15013152D01*
X15774830Y-15022676D01*
X15717688Y-15022676D01*
X15698640Y-15013152D01*
X15689116Y-15003628D01*
X15889116Y-14822676D02*
X15889116Y-14860771D01*
X15965307Y-14822676D02*
X15965307Y-14860771D01*
X16260545Y-15098867D02*
X16251021Y-15089343D01*
X16231973Y-15060771D01*
X16222449Y-15041724D01*
X16212926Y-15013152D01*
X16203402Y-14965533D01*
X16203402Y-14927438D01*
X16212926Y-14879819D01*
X16222449Y-14851248D01*
X16231973Y-14832200D01*
X16251021Y-14803628D01*
X16260545Y-14794105D01*
X16327211Y-14841724D02*
X16336735Y-14832200D01*
X16355783Y-14822676D01*
X16403402Y-14822676D01*
X16422449Y-14832200D01*
X16431973Y-14841724D01*
X16441497Y-14860771D01*
X16441497Y-14879819D01*
X16431973Y-14908390D01*
X16317688Y-15022676D01*
X16441497Y-15022676D01*
X16679592Y-15022676D02*
X16679592Y-14822676D01*
X16765307Y-15022676D02*
X16765307Y-14917914D01*
X16755783Y-14898867D01*
X16736735Y-14889343D01*
X16708164Y-14889343D01*
X16689116Y-14898867D01*
X16679592Y-14908390D01*
X16889116Y-15022676D02*
X16870069Y-15013152D01*
X16860545Y-15003628D01*
X16851021Y-14984581D01*
X16851021Y-14927438D01*
X16860545Y-14908390D01*
X16870069Y-14898867D01*
X16889116Y-14889343D01*
X16917688Y-14889343D01*
X16936735Y-14898867D01*
X16946259Y-14908390D01*
X16955783Y-14927438D01*
X16955783Y-14984581D01*
X16946259Y-15003628D01*
X16936735Y-15013152D01*
X16917688Y-15022676D01*
X16889116Y-15022676D01*
X17070069Y-15022676D02*
X17051021Y-15013152D01*
X17041497Y-14994105D01*
X17041497Y-14822676D01*
X17222450Y-15013152D02*
X17203402Y-15022676D01*
X17165307Y-15022676D01*
X17146259Y-15013152D01*
X17136735Y-14994105D01*
X17136735Y-14917914D01*
X17146259Y-14898867D01*
X17165307Y-14889343D01*
X17203402Y-14889343D01*
X17222450Y-14898867D01*
X17231973Y-14917914D01*
X17231973Y-14936962D01*
X17136735Y-14956009D01*
X17308164Y-15013152D02*
X17327211Y-15022676D01*
X17365307Y-15022676D01*
X17384354Y-15013152D01*
X17393878Y-14994105D01*
X17393878Y-14984581D01*
X17384354Y-14965533D01*
X17365307Y-14956009D01*
X17336735Y-14956009D01*
X17317688Y-14946486D01*
X17308164Y-14927438D01*
X17308164Y-14917914D01*
X17317688Y-14898867D01*
X17336735Y-14889343D01*
X17365307Y-14889343D01*
X17384354Y-14898867D01*
X17460545Y-15098867D02*
X17470069Y-15089343D01*
X17489116Y-15060771D01*
X17498640Y-15041724D01*
X17508164Y-15013152D01*
X17517688Y-14965533D01*
X17517688Y-14927438D01*
X17508164Y-14879819D01*
X17498640Y-14851248D01*
X17489116Y-14832200D01*
X17470069Y-14803628D01*
X17460545Y-14794105D01*
X12488640Y-15152200D02*
X12688640Y-15352200D01*
X12688640Y-15152200D02*
X12488640Y-15352200D01*
X12659351Y-15322911D02*
X12659351Y-15181489D01*
X12517929Y-15181489D01*
X12517929Y-15322911D01*
X12659351Y-15322911D01*
X12927211Y-15142676D02*
X13051021Y-15142676D01*
X12984354Y-15218867D01*
X13012926Y-15218867D01*
X13031973Y-15228390D01*
X13041497Y-15237914D01*
X13051021Y-15256962D01*
X13051021Y-15304581D01*
X13041497Y-15323628D01*
X13031973Y-15333152D01*
X13012926Y-15342676D01*
X12955783Y-15342676D01*
X12936735Y-15333152D01*
X12927211Y-15323628D01*
X13136735Y-15323628D02*
X13146259Y-15333152D01*
X13136735Y-15342676D01*
X13127211Y-15333152D01*
X13136735Y-15323628D01*
X13136735Y-15342676D01*
X13270068Y-15142676D02*
X13289116Y-15142676D01*
X13308164Y-15152200D01*
X13317688Y-15161724D01*
X13327211Y-15180771D01*
X13336735Y-15218867D01*
X13336735Y-15266486D01*
X13327211Y-15304581D01*
X13317688Y-15323628D01*
X13308164Y-15333152D01*
X13289116Y-15342676D01*
X13270068Y-15342676D01*
X13251021Y-15333152D01*
X13241497Y-15323628D01*
X13231973Y-15304581D01*
X13222449Y-15266486D01*
X13222449Y-15218867D01*
X13231973Y-15180771D01*
X13241497Y-15161724D01*
X13251021Y-15152200D01*
X13270068Y-15142676D01*
X13460545Y-15142676D02*
X13479592Y-15142676D01*
X13498640Y-15152200D01*
X13508164Y-15161724D01*
X13517688Y-15180771D01*
X13527211Y-15218867D01*
X13527211Y-15266486D01*
X13517688Y-15304581D01*
X13508164Y-15323628D01*
X13498640Y-15333152D01*
X13479592Y-15342676D01*
X13460545Y-15342676D01*
X13441497Y-15333152D01*
X13431973Y-15323628D01*
X13422449Y-15304581D01*
X13412926Y-15266486D01*
X13412926Y-15218867D01*
X13422449Y-15180771D01*
X13431973Y-15161724D01*
X13441497Y-15152200D01*
X13460545Y-15142676D01*
X13651021Y-15142676D02*
X13670068Y-15142676D01*
X13689116Y-15152200D01*
X13698640Y-15161724D01*
X13708164Y-15180771D01*
X13717688Y-15218867D01*
X13717688Y-15266486D01*
X13708164Y-15304581D01*
X13698640Y-15323628D01*
X13689116Y-15333152D01*
X13670068Y-15342676D01*
X13651021Y-15342676D01*
X13631973Y-15333152D01*
X13622449Y-15323628D01*
X13612926Y-15304581D01*
X13603402Y-15266486D01*
X13603402Y-15218867D01*
X13612926Y-15180771D01*
X13622449Y-15161724D01*
X13631973Y-15152200D01*
X13651021Y-15142676D01*
X13803402Y-15342676D02*
X13803402Y-15209343D01*
X13803402Y-15228390D02*
X13812926Y-15218867D01*
X13831973Y-15209343D01*
X13860545Y-15209343D01*
X13879592Y-15218867D01*
X13889116Y-15237914D01*
X13889116Y-15342676D01*
X13889116Y-15237914D02*
X13898640Y-15218867D01*
X13917688Y-15209343D01*
X13946259Y-15209343D01*
X13965307Y-15218867D01*
X13974830Y-15237914D01*
X13974830Y-15342676D01*
X14070068Y-15342676D02*
X14070068Y-15209343D01*
X14070068Y-15228390D02*
X14079592Y-15218867D01*
X14098640Y-15209343D01*
X14127211Y-15209343D01*
X14146259Y-15218867D01*
X14155783Y-15237914D01*
X14155783Y-15342676D01*
X14155783Y-15237914D02*
X14165307Y-15218867D01*
X14184354Y-15209343D01*
X14212926Y-15209343D01*
X14231973Y-15218867D01*
X14241497Y-15237914D01*
X14241497Y-15342676D01*
X14631973Y-15133152D02*
X14460545Y-15390295D01*
X14889116Y-15142676D02*
X14908164Y-15142676D01*
X14927211Y-15152200D01*
X14936735Y-15161724D01*
X14946259Y-15180771D01*
X14955783Y-15218867D01*
X14955783Y-15266486D01*
X14946259Y-15304581D01*
X14936735Y-15323628D01*
X14927211Y-15333152D01*
X14908164Y-15342676D01*
X14889116Y-15342676D01*
X14870068Y-15333152D01*
X14860545Y-15323628D01*
X14851021Y-15304581D01*
X14841497Y-15266486D01*
X14841497Y-15218867D01*
X14851021Y-15180771D01*
X14860545Y-15161724D01*
X14870068Y-15152200D01*
X14889116Y-15142676D01*
X15041497Y-15323628D02*
X15051021Y-15333152D01*
X15041497Y-15342676D01*
X15031973Y-15333152D01*
X15041497Y-15323628D01*
X15041497Y-15342676D01*
X15241497Y-15342676D02*
X15127211Y-15342676D01*
X15184354Y-15342676D02*
X15184354Y-15142676D01*
X15165307Y-15171248D01*
X15146259Y-15190295D01*
X15127211Y-15199819D01*
X15431973Y-15342676D02*
X15317688Y-15342676D01*
X15374830Y-15342676D02*
X15374830Y-15142676D01*
X15355783Y-15171248D01*
X15336735Y-15190295D01*
X15317688Y-15199819D01*
X15546259Y-15228390D02*
X15527211Y-15218867D01*
X15517688Y-15209343D01*
X15508164Y-15190295D01*
X15508164Y-15180771D01*
X15517688Y-15161724D01*
X15527211Y-15152200D01*
X15546259Y-15142676D01*
X15584354Y-15142676D01*
X15603402Y-15152200D01*
X15612926Y-15161724D01*
X15622449Y-15180771D01*
X15622449Y-15190295D01*
X15612926Y-15209343D01*
X15603402Y-15218867D01*
X15584354Y-15228390D01*
X15546259Y-15228390D01*
X15527211Y-15237914D01*
X15517688Y-15247438D01*
X15508164Y-15266486D01*
X15508164Y-15304581D01*
X15517688Y-15323628D01*
X15527211Y-15333152D01*
X15546259Y-15342676D01*
X15584354Y-15342676D01*
X15603402Y-15333152D01*
X15612926Y-15323628D01*
X15622449Y-15304581D01*
X15622449Y-15266486D01*
X15612926Y-15247438D01*
X15603402Y-15237914D01*
X15584354Y-15228390D01*
X15812926Y-15342676D02*
X15698640Y-15342676D01*
X15755783Y-15342676D02*
X15755783Y-15142676D01*
X15736735Y-15171248D01*
X15717688Y-15190295D01*
X15698640Y-15199819D01*
X15889116Y-15142676D02*
X15889116Y-15180771D01*
X15965307Y-15142676D02*
X15965307Y-15180771D01*
X16260545Y-15418867D02*
X16251021Y-15409343D01*
X16231973Y-15380771D01*
X16222449Y-15361724D01*
X16212926Y-15333152D01*
X16203402Y-15285533D01*
X16203402Y-15247438D01*
X16212926Y-15199819D01*
X16222449Y-15171248D01*
X16231973Y-15152200D01*
X16251021Y-15123628D01*
X16260545Y-15114105D01*
X16327211Y-15161724D02*
X16336735Y-15152200D01*
X16355783Y-15142676D01*
X16403402Y-15142676D01*
X16422449Y-15152200D01*
X16431973Y-15161724D01*
X16441497Y-15180771D01*
X16441497Y-15199819D01*
X16431973Y-15228390D01*
X16317688Y-15342676D01*
X16441497Y-15342676D01*
X16679592Y-15342676D02*
X16679592Y-15142676D01*
X16765307Y-15342676D02*
X16765307Y-15237914D01*
X16755783Y-15218867D01*
X16736735Y-15209343D01*
X16708164Y-15209343D01*
X16689116Y-15218867D01*
X16679592Y-15228390D01*
X16889116Y-15342676D02*
X16870069Y-15333152D01*
X16860545Y-15323628D01*
X16851021Y-15304581D01*
X16851021Y-15247438D01*
X16860545Y-15228390D01*
X16870069Y-15218867D01*
X16889116Y-15209343D01*
X16917688Y-15209343D01*
X16936735Y-15218867D01*
X16946259Y-15228390D01*
X16955783Y-15247438D01*
X16955783Y-15304581D01*
X16946259Y-15323628D01*
X16936735Y-15333152D01*
X16917688Y-15342676D01*
X16889116Y-15342676D01*
X17070069Y-15342676D02*
X17051021Y-15333152D01*
X17041497Y-15314105D01*
X17041497Y-15142676D01*
X17222450Y-15333152D02*
X17203402Y-15342676D01*
X17165307Y-15342676D01*
X17146259Y-15333152D01*
X17136735Y-15314105D01*
X17136735Y-15237914D01*
X17146259Y-15218867D01*
X17165307Y-15209343D01*
X17203402Y-15209343D01*
X17222450Y-15218867D01*
X17231973Y-15237914D01*
X17231973Y-15256962D01*
X17136735Y-15276009D01*
X17308164Y-15333152D02*
X17327211Y-15342676D01*
X17365307Y-15342676D01*
X17384354Y-15333152D01*
X17393878Y-15314105D01*
X17393878Y-15304581D01*
X17384354Y-15285533D01*
X17365307Y-15276009D01*
X17336735Y-15276009D01*
X17317688Y-15266486D01*
X17308164Y-15247438D01*
X17308164Y-15237914D01*
X17317688Y-15218867D01*
X17336735Y-15209343D01*
X17365307Y-15209343D01*
X17384354Y-15218867D01*
X17460545Y-15418867D02*
X17470069Y-15409343D01*
X17489116Y-15380771D01*
X17498640Y-15361724D01*
X17508164Y-15333152D01*
X17517688Y-15285533D01*
X17517688Y-15247438D01*
X17508164Y-15199819D01*
X17498640Y-15171248D01*
X17489116Y-15152200D01*
X17470069Y-15123628D01*
X17460545Y-15114105D01*
M02*
