M48
; DRILL file {KiCad (6.0.0-0)} date 2022 March 22, Tuesday 21:28:27
; FORMAT={-:-/ absolute / metric / decimal}
; #@! TF.CreationDate,2022-03-22T21:28:27+08:00
; #@! TF.GenerationSoftware,Kicad,Pcbnew,(6.0.0-0)
; #@! TF.FileFunction,Plated,1,2,PTH
FMAT,2
METRIC
; #@! TA.AperFunction,Plated,PTH,ViaDrill
T1C0.400
; #@! TA.AperFunction,Plated,PTH,ViaDrill
T2C0.800
; #@! TA.AperFunction,Plated,PTH,ComponentDrill
T3C0.800
; #@! TA.AperFunction,Plated,PTH,ViaDrill
T4C0.900
; #@! TA.AperFunction,Plated,PTH,ViaDrill
T5C1.000
; #@! TA.AperFunction,Plated,PTH,ComponentDrill
T6C1.000
; #@! TA.AperFunction,Plated,PTH,ComponentDrill
T7C2.700
; #@! TA.AperFunction,Plated,PTH,ViaDrill
T8C3.000
%
G90
G05
T1
X131.064Y-106.934
X131.064Y-107.95
X131.064Y-108.966
X131.064Y-112.522
X131.064Y-113.538
X131.064Y-114.554
X131.826Y-101.6
X133.468Y-108.458
X134.992Y-114.3
X139.477Y-113.863
X149.846Y-102.376
X151.756Y-100.526
X151.816Y-116.4
X154.178Y-95.504
X154.94Y-111.76
X155.448Y-114.554
X155.448Y-115.316
X155.448Y-116.078
X155.543Y-105.55
X155.562Y-104.026
X155.956Y-96.774
X156.464Y-121.412
X156.718Y-99.314
X157.156Y-109.99
X157.166Y-108.6
X157.48Y-114.554
X157.48Y-115.316
X157.48Y-116.078
X158.166Y-100.0
X158.955Y-95.636
X159.664Y-96.825
X160.75Y-124.1
X160.782Y-95.4
X161.26Y-100.563
X162.0Y-123.124
X162.047Y-97.874
X162.204Y-101.6
X163.921Y-97.875
X164.89Y-100.0
X165.475Y-107.442
X166.624Y-108.966
X167.577Y-104.915
X167.601Y-103.391
X167.64Y-110.744
X169.926Y-97.028
X171.491Y-108.526
X171.704Y-115.824
X172.72Y-107.442
X173.0Y-122.325
X181.684Y-118.486
X189.992Y-114.285
X191.2Y-115.01
X192.14Y-115.48
T2
X191.262Y-101.6
T3
X153.61Y-116.009
X153.61Y-119.509
X169.432Y-116.009
X169.432Y-119.509
T4
X181.975Y-99.55
T5
X138.166Y-99.475
X138.166Y-109.255
X139.666Y-99.475
X139.666Y-109.255
X141.166Y-99.475
X141.166Y-109.255
X143.031Y-97.529
X143.131Y-111.526
X149.488Y-97.524
X149.488Y-111.545
X173.633Y-97.526
X173.633Y-111.545
X179.324Y-111.526
X179.98Y-97.526
X181.975Y-109.525
X183.488Y-99.526
X183.488Y-109.526
X185.0Y-99.525
X185.0Y-109.525
X192.662Y-101.57
T6
X165.025Y-124.2
X167.565Y-124.2
X170.105Y-124.2
X172.645Y-124.2
X175.185Y-124.2
X177.725Y-124.2
X180.265Y-124.2
X182.805Y-124.2
X185.345Y-124.2
X187.885Y-124.2
X190.425Y-124.2
T7
X161.544Y-112.562
X161.544Y-117.562
T8
X139.166Y-119.8
X183.99Y-115.377
T0
M30
