%TF.GenerationSoftware,KiCad,Pcbnew,(6.0.0-0)*%
%TF.CreationDate,2022-03-22T21:28:24+08:00*%
%TF.ProjectId,driver,64726976-6572-42e6-9b69-6361645f7063,rev?*%
%TF.SameCoordinates,Original*%
%TF.FileFunction,Legend,Top*%
%TF.FilePolarity,Positive*%
%FSLAX46Y46*%
G04 Gerber Fmt 4.6, Leading zero omitted, Abs format (unit mm)*
G04 Created by KiCad (PCBNEW (6.0.0-0)) date 2022-03-22 21:28:24*
%MOMM*%
%LPD*%
G01*
G04 APERTURE LIST*
G04 Aperture macros list*
%AMRoundRect*
0 Rectangle with rounded corners*
0 $1 Rounding radius*
0 $2 $3 $4 $5 $6 $7 $8 $9 X,Y pos of 4 corners*
0 Add a 4 corners polygon primitive as box body*
4,1,4,$2,$3,$4,$5,$6,$7,$8,$9,$2,$3,0*
0 Add four circle primitives for the rounded corners*
1,1,$1+$1,$2,$3*
1,1,$1+$1,$4,$5*
1,1,$1+$1,$6,$7*
1,1,$1+$1,$8,$9*
0 Add four rect primitives between the rounded corners*
20,1,$1+$1,$2,$3,$4,$5,0*
20,1,$1+$1,$4,$5,$6,$7,0*
20,1,$1+$1,$6,$7,$8,$9,0*
20,1,$1+$1,$8,$9,$2,$3,0*%
G04 Aperture macros list end*
%ADD10C,0.045000*%
%ADD11C,0.150000*%
%ADD12C,0.127000*%
%ADD13C,0.120000*%
%ADD14C,0.203200*%
%ADD15C,0.100000*%
%ADD16RoundRect,0.200000X0.200000X0.275000X-0.200000X0.275000X-0.200000X-0.275000X0.200000X-0.275000X0*%
%ADD17RoundRect,0.200000X-0.200000X-0.275000X0.200000X-0.275000X0.200000X0.275000X-0.200000X0.275000X0*%
%ADD18RoundRect,0.225000X0.225000X0.250000X-0.225000X0.250000X-0.225000X-0.250000X0.225000X-0.250000X0*%
%ADD19R,1.350000X0.660000*%
%ADD20R,5.250000X10.300000*%
%ADD21R,5.250000X6.230000*%
%ADD22R,1.700000X1.700000*%
%ADD23O,1.700000X1.700000*%
%ADD24RoundRect,0.101600X1.499870X-0.798830X1.499870X0.798830X-1.499870X0.798830X-1.499870X-0.798830X0*%
%ADD25RoundRect,0.101600X2.857500X-2.413000X2.857500X2.413000X-2.857500X2.413000X-2.857500X-2.413000X0*%
%ADD26R,0.450000X0.850000*%
%ADD27RoundRect,0.225000X-0.250000X0.225000X-0.250000X-0.225000X0.250000X-0.225000X0.250000X0.225000X0*%
%ADD28RoundRect,0.101600X-1.499870X0.798830X-1.499870X-0.798830X1.499870X-0.798830X1.499870X0.798830X0*%
%ADD29RoundRect,0.101600X-2.857500X2.413000X-2.857500X-2.413000X2.857500X-2.413000X2.857500X2.413000X0*%
%ADD30RoundRect,0.225000X-0.225000X-0.250000X0.225000X-0.250000X0.225000X0.250000X-0.225000X0.250000X0*%
%ADD31R,1.600000X1.600000*%
%ADD32C,1.600000*%
%ADD33R,3.800000X3.800000*%
%ADD34C,4.000000*%
G04 APERTURE END LIST*
D10*
%TO.C,M2R6*%
X168247028Y-100572949D02*
X168075600Y-100572949D01*
X168161314Y-100572949D02*
X168161314Y-100272949D01*
X168132742Y-100315806D01*
X168104171Y-100344377D01*
X168075600Y-100358663D01*
X168432742Y-100272949D02*
X168461314Y-100272949D01*
X168489885Y-100287235D01*
X168504171Y-100301520D01*
X168518457Y-100330092D01*
X168532742Y-100387235D01*
X168532742Y-100458663D01*
X168518457Y-100515806D01*
X168504171Y-100544377D01*
X168489885Y-100558663D01*
X168461314Y-100572949D01*
X168432742Y-100572949D01*
X168404171Y-100558663D01*
X168389885Y-100544377D01*
X168375600Y-100515806D01*
X168361314Y-100458663D01*
X168361314Y-100387235D01*
X168375600Y-100330092D01*
X168389885Y-100301520D01*
X168404171Y-100287235D01*
X168432742Y-100272949D01*
X168661314Y-100572949D02*
X168661314Y-100272949D01*
X168689885Y-100458663D02*
X168775600Y-100572949D01*
X168775600Y-100372949D02*
X168661314Y-100487235D01*
%TO.C,M2R5*%
X167847028Y-101608949D02*
X168032742Y-101608949D01*
X167932742Y-101723235D01*
X167975600Y-101723235D01*
X168004171Y-101737520D01*
X168018457Y-101751806D01*
X168032742Y-101780377D01*
X168032742Y-101851806D01*
X168018457Y-101880377D01*
X168004171Y-101894663D01*
X167975600Y-101908949D01*
X167889885Y-101908949D01*
X167861314Y-101894663D01*
X167847028Y-101880377D01*
X168161314Y-101880377D02*
X168175600Y-101894663D01*
X168161314Y-101908949D01*
X168147028Y-101894663D01*
X168161314Y-101880377D01*
X168161314Y-101908949D01*
X168289885Y-101637520D02*
X168304171Y-101623235D01*
X168332742Y-101608949D01*
X168404171Y-101608949D01*
X168432742Y-101623235D01*
X168447028Y-101637520D01*
X168461314Y-101666092D01*
X168461314Y-101694663D01*
X168447028Y-101737520D01*
X168275600Y-101908949D01*
X168461314Y-101908949D01*
X168718457Y-101708949D02*
X168718457Y-101908949D01*
X168647028Y-101594663D02*
X168575600Y-101808949D01*
X168761314Y-101808949D01*
X168875600Y-101908949D02*
X168875600Y-101608949D01*
X168904171Y-101794663D02*
X168989885Y-101908949D01*
X168989885Y-101708949D02*
X168875600Y-101823235D01*
D11*
%TO.C,M2C8*%
X163060285Y-106797615D02*
X163060285Y-105797615D01*
X163393619Y-106511901D01*
X163726952Y-105797615D01*
X163726952Y-106797615D01*
X164155523Y-105892854D02*
X164203142Y-105845235D01*
X164298380Y-105797615D01*
X164536476Y-105797615D01*
X164631714Y-105845235D01*
X164679333Y-105892854D01*
X164726952Y-105988092D01*
X164726952Y-106083330D01*
X164679333Y-106226187D01*
X164107904Y-106797615D01*
X164726952Y-106797615D01*
X165726952Y-106702377D02*
X165679333Y-106749996D01*
X165536476Y-106797615D01*
X165441238Y-106797615D01*
X165298380Y-106749996D01*
X165203142Y-106654758D01*
X165155523Y-106559520D01*
X165107904Y-106369044D01*
X165107904Y-106226187D01*
X165155523Y-106035711D01*
X165203142Y-105940473D01*
X165298380Y-105845235D01*
X165441238Y-105797615D01*
X165536476Y-105797615D01*
X165679333Y-105845235D01*
X165726952Y-105892854D01*
X166298380Y-106226187D02*
X166203142Y-106178568D01*
X166155523Y-106130949D01*
X166107904Y-106035711D01*
X166107904Y-105988092D01*
X166155523Y-105892854D01*
X166203142Y-105845235D01*
X166298380Y-105797615D01*
X166488857Y-105797615D01*
X166584095Y-105845235D01*
X166631714Y-105892854D01*
X166679333Y-105988092D01*
X166679333Y-106035711D01*
X166631714Y-106130949D01*
X166584095Y-106178568D01*
X166488857Y-106226187D01*
X166298380Y-106226187D01*
X166203142Y-106273806D01*
X166155523Y-106321425D01*
X166107904Y-106416663D01*
X166107904Y-106607139D01*
X166155523Y-106702377D01*
X166203142Y-106749996D01*
X166298380Y-106797615D01*
X166488857Y-106797615D01*
X166584095Y-106749996D01*
X166631714Y-106702377D01*
X166679333Y-106607139D01*
X166679333Y-106416663D01*
X166631714Y-106321425D01*
X166584095Y-106273806D01*
X166488857Y-106226187D01*
%TO.C,M2U1*%
X178806076Y-95378780D02*
X178806076Y-94378780D01*
X179139409Y-95093066D01*
X179472742Y-94378780D01*
X179472742Y-95378780D01*
X179901314Y-94474019D02*
X179948933Y-94426400D01*
X180044171Y-94378780D01*
X180282266Y-94378780D01*
X180377504Y-94426400D01*
X180425123Y-94474019D01*
X180472742Y-94569257D01*
X180472742Y-94664495D01*
X180425123Y-94807352D01*
X179853695Y-95378780D01*
X180472742Y-95378780D01*
X180901314Y-94378780D02*
X180901314Y-95188304D01*
X180948933Y-95283542D01*
X180996552Y-95331161D01*
X181091790Y-95378780D01*
X181282266Y-95378780D01*
X181377504Y-95331161D01*
X181425123Y-95283542D01*
X181472742Y-95188304D01*
X181472742Y-94378780D01*
X182472742Y-95378780D02*
X181901314Y-95378780D01*
X182187028Y-95378780D02*
X182187028Y-94378780D01*
X182091790Y-94521638D01*
X181996552Y-94616876D01*
X181901314Y-94664495D01*
D10*
%TO.C,M2R81*%
X168247028Y-106480949D02*
X168075600Y-106480949D01*
X168161314Y-106480949D02*
X168161314Y-106180949D01*
X168132742Y-106223806D01*
X168104171Y-106252377D01*
X168075600Y-106266663D01*
X168432742Y-106180949D02*
X168461314Y-106180949D01*
X168489885Y-106195235D01*
X168504171Y-106209520D01*
X168518457Y-106238092D01*
X168532742Y-106295235D01*
X168532742Y-106366663D01*
X168518457Y-106423806D01*
X168504171Y-106452377D01*
X168489885Y-106466663D01*
X168461314Y-106480949D01*
X168432742Y-106480949D01*
X168404171Y-106466663D01*
X168389885Y-106452377D01*
X168375600Y-106423806D01*
X168361314Y-106366663D01*
X168361314Y-106295235D01*
X168375600Y-106238092D01*
X168389885Y-106209520D01*
X168404171Y-106195235D01*
X168432742Y-106180949D01*
X168661314Y-106480949D02*
X168661314Y-106180949D01*
X168689885Y-106366663D02*
X168775600Y-106480949D01*
X168775600Y-106280949D02*
X168661314Y-106395235D01*
%TO.C,M2R71*%
X168389885Y-104956949D02*
X168218457Y-104956949D01*
X168304171Y-104956949D02*
X168304171Y-104656949D01*
X168275600Y-104699806D01*
X168247028Y-104728377D01*
X168218457Y-104742663D01*
X168518457Y-104956949D02*
X168518457Y-104656949D01*
X168547028Y-104842663D02*
X168632742Y-104956949D01*
X168632742Y-104756949D02*
X168518457Y-104871235D01*
D11*
%TO.C,J2*%
X192207380Y-124533333D02*
X192921666Y-124533333D01*
X193064523Y-124580952D01*
X193159761Y-124676190D01*
X193207380Y-124819047D01*
X193207380Y-124914285D01*
X192302619Y-124104761D02*
X192255000Y-124057142D01*
X192207380Y-123961904D01*
X192207380Y-123723809D01*
X192255000Y-123628571D01*
X192302619Y-123580952D01*
X192397857Y-123533333D01*
X192493095Y-123533333D01*
X192635952Y-123580952D01*
X193207380Y-124152380D01*
X193207380Y-123533333D01*
D10*
%TO.C,M1R71*%
X154659285Y-104255949D02*
X154487857Y-104255949D01*
X154573571Y-104255949D02*
X154573571Y-103955949D01*
X154545000Y-103998806D01*
X154516428Y-104027377D01*
X154487857Y-104041663D01*
X154787857Y-104255949D02*
X154787857Y-103955949D01*
X154816428Y-104141663D02*
X154902142Y-104255949D01*
X154902142Y-104055949D02*
X154787857Y-104170235D01*
%TO.C,M1R81*%
X154516428Y-102731949D02*
X154345000Y-102731949D01*
X154430714Y-102731949D02*
X154430714Y-102431949D01*
X154402142Y-102474806D01*
X154373571Y-102503377D01*
X154345000Y-102517663D01*
X154702142Y-102431949D02*
X154730714Y-102431949D01*
X154759285Y-102446235D01*
X154773571Y-102460520D01*
X154787857Y-102489092D01*
X154802142Y-102546235D01*
X154802142Y-102617663D01*
X154787857Y-102674806D01*
X154773571Y-102703377D01*
X154759285Y-102717663D01*
X154730714Y-102731949D01*
X154702142Y-102731949D01*
X154673571Y-102717663D01*
X154659285Y-102703377D01*
X154645000Y-102674806D01*
X154630714Y-102617663D01*
X154630714Y-102546235D01*
X154645000Y-102489092D01*
X154659285Y-102460520D01*
X154673571Y-102446235D01*
X154702142Y-102431949D01*
X154930714Y-102731949D02*
X154930714Y-102431949D01*
X154959285Y-102617663D02*
X155045000Y-102731949D01*
X155045000Y-102531949D02*
X154930714Y-102646235D01*
%TO.C,M1R4*%
X154659285Y-108827949D02*
X154487857Y-108827949D01*
X154573571Y-108827949D02*
X154573571Y-108527949D01*
X154545000Y-108570806D01*
X154516428Y-108599377D01*
X154487857Y-108613663D01*
X154787857Y-108827949D02*
X154787857Y-108527949D01*
X154816428Y-108713663D02*
X154902142Y-108827949D01*
X154902142Y-108627949D02*
X154787857Y-108742235D01*
%TO.C,M1R72*%
X158063428Y-107115949D02*
X157892000Y-107115949D01*
X157977714Y-107115949D02*
X157977714Y-106815949D01*
X157949142Y-106858806D01*
X157920571Y-106887377D01*
X157892000Y-106901663D01*
X158249142Y-106815949D02*
X158277714Y-106815949D01*
X158306285Y-106830235D01*
X158320571Y-106844520D01*
X158334857Y-106873092D01*
X158349142Y-106930235D01*
X158349142Y-107001663D01*
X158334857Y-107058806D01*
X158320571Y-107087377D01*
X158306285Y-107101663D01*
X158277714Y-107115949D01*
X158249142Y-107115949D01*
X158220571Y-107101663D01*
X158206285Y-107087377D01*
X158192000Y-107058806D01*
X158177714Y-107001663D01*
X158177714Y-106930235D01*
X158192000Y-106873092D01*
X158206285Y-106844520D01*
X158220571Y-106830235D01*
X158249142Y-106815949D01*
X158477714Y-107115949D02*
X158477714Y-106815949D01*
X158506285Y-107001663D02*
X158592000Y-107115949D01*
X158592000Y-106915949D02*
X158477714Y-107030235D01*
%TO.C,M2R72*%
X164667428Y-102096949D02*
X164496000Y-102096949D01*
X164581714Y-102096949D02*
X164581714Y-101796949D01*
X164553142Y-101839806D01*
X164524571Y-101868377D01*
X164496000Y-101882663D01*
X164853142Y-101796949D02*
X164881714Y-101796949D01*
X164910285Y-101811235D01*
X164924571Y-101825520D01*
X164938857Y-101854092D01*
X164953142Y-101911235D01*
X164953142Y-101982663D01*
X164938857Y-102039806D01*
X164924571Y-102068377D01*
X164910285Y-102082663D01*
X164881714Y-102096949D01*
X164853142Y-102096949D01*
X164824571Y-102082663D01*
X164810285Y-102068377D01*
X164796000Y-102039806D01*
X164781714Y-101982663D01*
X164781714Y-101911235D01*
X164796000Y-101854092D01*
X164810285Y-101825520D01*
X164824571Y-101811235D01*
X164853142Y-101796949D01*
X165081714Y-102096949D02*
X165081714Y-101796949D01*
X165110285Y-101982663D02*
X165196000Y-102096949D01*
X165196000Y-101896949D02*
X165081714Y-102011235D01*
D12*
%TO.C,M2Q1*%
X177469179Y-121809771D02*
X177469179Y-121200171D01*
X177672379Y-121635600D01*
X177875579Y-121200171D01*
X177875579Y-121809771D01*
X178136836Y-121258228D02*
X178165865Y-121229200D01*
X178223922Y-121200171D01*
X178369065Y-121200171D01*
X178427122Y-121229200D01*
X178456150Y-121258228D01*
X178485179Y-121316285D01*
X178485179Y-121374342D01*
X178456150Y-121461428D01*
X178107807Y-121809771D01*
X178485179Y-121809771D01*
X179152836Y-121867828D02*
X179094779Y-121838800D01*
X179036722Y-121780742D01*
X178949636Y-121693657D01*
X178891579Y-121664628D01*
X178833522Y-121664628D01*
X178862550Y-121809771D02*
X178804493Y-121780742D01*
X178746436Y-121722685D01*
X178717407Y-121606571D01*
X178717407Y-121403371D01*
X178746436Y-121287257D01*
X178804493Y-121229200D01*
X178862550Y-121200171D01*
X178978665Y-121200171D01*
X179036722Y-121229200D01*
X179094779Y-121287257D01*
X179123807Y-121403371D01*
X179123807Y-121606571D01*
X179094779Y-121722685D01*
X179036722Y-121780742D01*
X178978665Y-121809771D01*
X178862550Y-121809771D01*
X179704379Y-121809771D02*
X179356036Y-121809771D01*
X179530207Y-121809771D02*
X179530207Y-121200171D01*
X179472150Y-121287257D01*
X179414093Y-121345314D01*
X179356036Y-121374342D01*
X173260036Y-113935771D02*
X173260036Y-113326171D01*
X173463236Y-113761600D01*
X173666436Y-113326171D01*
X173666436Y-113935771D01*
X174072836Y-113326171D02*
X174188950Y-113326171D01*
X174247007Y-113355200D01*
X174305065Y-113413257D01*
X174334093Y-113529371D01*
X174334093Y-113732571D01*
X174305065Y-113848685D01*
X174247007Y-113906742D01*
X174188950Y-113935771D01*
X174072836Y-113935771D01*
X174014779Y-113906742D01*
X173956722Y-113848685D01*
X173927693Y-113732571D01*
X173927693Y-113529371D01*
X173956722Y-113413257D01*
X174014779Y-113355200D01*
X174072836Y-113326171D01*
X174566322Y-113906742D02*
X174653407Y-113935771D01*
X174798550Y-113935771D01*
X174856607Y-113906742D01*
X174885636Y-113877714D01*
X174914665Y-113819657D01*
X174914665Y-113761600D01*
X174885636Y-113703542D01*
X174856607Y-113674514D01*
X174798550Y-113645485D01*
X174682436Y-113616457D01*
X174624379Y-113587428D01*
X174595350Y-113558400D01*
X174566322Y-113500342D01*
X174566322Y-113442285D01*
X174595350Y-113384228D01*
X174624379Y-113355200D01*
X174682436Y-113326171D01*
X174827579Y-113326171D01*
X174914665Y-113355200D01*
X175379122Y-113616457D02*
X175175922Y-113616457D01*
X175175922Y-113935771D02*
X175175922Y-113326171D01*
X175466207Y-113326171D01*
X175698436Y-113616457D02*
X175901636Y-113616457D01*
X175988722Y-113935771D02*
X175698436Y-113935771D01*
X175698436Y-113326171D01*
X175988722Y-113326171D01*
X176162893Y-113326171D02*
X176511236Y-113326171D01*
X176337065Y-113935771D02*
X176337065Y-113326171D01*
X176714436Y-113703542D02*
X177178893Y-113703542D01*
X177469179Y-113935771D02*
X177469179Y-113326171D01*
X177817522Y-113935771D01*
X177817522Y-113326171D01*
X178456150Y-113877714D02*
X178427122Y-113906742D01*
X178340036Y-113935771D01*
X178281979Y-113935771D01*
X178194893Y-113906742D01*
X178136836Y-113848685D01*
X178107807Y-113790628D01*
X178078779Y-113674514D01*
X178078779Y-113587428D01*
X178107807Y-113471314D01*
X178136836Y-113413257D01*
X178194893Y-113355200D01*
X178281979Y-113326171D01*
X178340036Y-113326171D01*
X178427122Y-113355200D01*
X178456150Y-113384228D01*
X178717407Y-113935771D02*
X178717407Y-113326171D01*
X178717407Y-113616457D02*
X179065750Y-113616457D01*
X179065750Y-113935771D02*
X179065750Y-113326171D01*
X179356036Y-113703542D02*
X179820493Y-113703542D01*
X180313979Y-113616457D02*
X180110779Y-113616457D01*
X180110779Y-113935771D02*
X180110779Y-113326171D01*
X180401065Y-113326171D01*
X180633293Y-113935771D02*
X180633293Y-113326171D01*
X180778436Y-113326171D01*
X180865522Y-113355200D01*
X180923579Y-113413257D01*
X180952607Y-113471314D01*
X180981636Y-113587428D01*
X180981636Y-113674514D01*
X180952607Y-113790628D01*
X180923579Y-113848685D01*
X180865522Y-113906742D01*
X180778436Y-113935771D01*
X180633293Y-113935771D01*
X181242893Y-113935771D02*
X181242893Y-113326171D01*
X181388036Y-113326171D01*
X181475122Y-113355200D01*
X181533179Y-113413257D01*
X181562207Y-113471314D01*
X181591236Y-113587428D01*
X181591236Y-113674514D01*
X181562207Y-113790628D01*
X181533179Y-113848685D01*
X181475122Y-113906742D01*
X181388036Y-113935771D01*
X181242893Y-113935771D01*
X181939579Y-113587428D02*
X181881522Y-113558400D01*
X181852493Y-113529371D01*
X181823465Y-113471314D01*
X181823465Y-113442285D01*
X181852493Y-113384228D01*
X181881522Y-113355200D01*
X181939579Y-113326171D01*
X182055693Y-113326171D01*
X182113750Y-113355200D01*
X182142779Y-113384228D01*
X182171807Y-113442285D01*
X182171807Y-113471314D01*
X182142779Y-113529371D01*
X182113750Y-113558400D01*
X182055693Y-113587428D01*
X181939579Y-113587428D01*
X181881522Y-113616457D01*
X181852493Y-113645485D01*
X181823465Y-113703542D01*
X181823465Y-113819657D01*
X181852493Y-113877714D01*
X181881522Y-113906742D01*
X181939579Y-113935771D01*
X182055693Y-113935771D01*
X182113750Y-113906742D01*
X182142779Y-113877714D01*
X182171807Y-113819657D01*
X182171807Y-113703542D01*
X182142779Y-113645485D01*
X182113750Y-113616457D01*
X182055693Y-113587428D01*
X182375007Y-113326171D02*
X182781407Y-113326171D01*
X182520150Y-113935771D01*
X183100722Y-113587428D02*
X183042665Y-113558400D01*
X183013636Y-113529371D01*
X182984607Y-113471314D01*
X182984607Y-113442285D01*
X183013636Y-113384228D01*
X183042665Y-113355200D01*
X183100722Y-113326171D01*
X183216836Y-113326171D01*
X183274893Y-113355200D01*
X183303922Y-113384228D01*
X183332950Y-113442285D01*
X183332950Y-113471314D01*
X183303922Y-113529371D01*
X183274893Y-113558400D01*
X183216836Y-113587428D01*
X183100722Y-113587428D01*
X183042665Y-113616457D01*
X183013636Y-113645485D01*
X182984607Y-113703542D01*
X182984607Y-113819657D01*
X183013636Y-113877714D01*
X183042665Y-113906742D01*
X183100722Y-113935771D01*
X183216836Y-113935771D01*
X183274893Y-113906742D01*
X183303922Y-113877714D01*
X183332950Y-113819657D01*
X183332950Y-113703542D01*
X183303922Y-113645485D01*
X183274893Y-113616457D01*
X183216836Y-113587428D01*
X183710322Y-113326171D02*
X183768379Y-113326171D01*
X183826436Y-113355200D01*
X183855465Y-113384228D01*
X183884493Y-113442285D01*
X183913522Y-113558400D01*
X183913522Y-113703542D01*
X183884493Y-113819657D01*
X183855465Y-113877714D01*
X183826436Y-113906742D01*
X183768379Y-113935771D01*
X183710322Y-113935771D01*
X183652265Y-113906742D01*
X183623236Y-113877714D01*
X183594207Y-113819657D01*
X183565179Y-113703542D01*
X183565179Y-113558400D01*
X183594207Y-113442285D01*
X183623236Y-113384228D01*
X183652265Y-113355200D01*
X183710322Y-113326171D01*
D11*
%TO.C,U1*%
X159645156Y-98206223D02*
X160164276Y-98206223D01*
X160225349Y-98175687D01*
X160255886Y-98145150D01*
X160286422Y-98084077D01*
X160286422Y-97961931D01*
X160255886Y-97900858D01*
X160225349Y-97870322D01*
X160164276Y-97839785D01*
X159645156Y-97839785D01*
X160286422Y-97198519D02*
X160286422Y-97564957D01*
X160286422Y-97381738D02*
X159645156Y-97381738D01*
X159736765Y-97442811D01*
X159797838Y-97503884D01*
X159828375Y-97564957D01*
%TO.C,M1U1*%
X140661676Y-114578780D02*
X140661676Y-113578780D01*
X140995009Y-114293066D01*
X141328342Y-113578780D01*
X141328342Y-114578780D01*
X142328342Y-114578780D02*
X141756914Y-114578780D01*
X142042628Y-114578780D02*
X142042628Y-113578780D01*
X141947390Y-113721638D01*
X141852152Y-113816876D01*
X141756914Y-113864495D01*
X142756914Y-113578780D02*
X142756914Y-114388304D01*
X142804533Y-114483542D01*
X142852152Y-114531161D01*
X142947390Y-114578780D01*
X143137866Y-114578780D01*
X143233104Y-114531161D01*
X143280723Y-114483542D01*
X143328342Y-114388304D01*
X143328342Y-113578780D01*
X144328342Y-114578780D02*
X143756914Y-114578780D01*
X144042628Y-114578780D02*
X144042628Y-113578780D01*
X143947390Y-113721638D01*
X143852152Y-113816876D01*
X143756914Y-113864495D01*
D10*
%TO.C,M2R4*%
X168389885Y-100384949D02*
X168218457Y-100384949D01*
X168304171Y-100384949D02*
X168304171Y-100084949D01*
X168275600Y-100127806D01*
X168247028Y-100156377D01*
X168218457Y-100170663D01*
X168518457Y-100384949D02*
X168518457Y-100084949D01*
X168547028Y-100270663D02*
X168632742Y-100384949D01*
X168632742Y-100184949D02*
X168518457Y-100299235D01*
%TO.C,M1R6*%
X154516428Y-108639949D02*
X154345000Y-108639949D01*
X154430714Y-108639949D02*
X154430714Y-108339949D01*
X154402142Y-108382806D01*
X154373571Y-108411377D01*
X154345000Y-108425663D01*
X154702142Y-108339949D02*
X154730714Y-108339949D01*
X154759285Y-108354235D01*
X154773571Y-108368520D01*
X154787857Y-108397092D01*
X154802142Y-108454235D01*
X154802142Y-108525663D01*
X154787857Y-108582806D01*
X154773571Y-108611377D01*
X154759285Y-108625663D01*
X154730714Y-108639949D01*
X154702142Y-108639949D01*
X154673571Y-108625663D01*
X154659285Y-108611377D01*
X154645000Y-108582806D01*
X154630714Y-108525663D01*
X154630714Y-108454235D01*
X154645000Y-108397092D01*
X154659285Y-108368520D01*
X154673571Y-108354235D01*
X154702142Y-108339949D01*
X154930714Y-108639949D02*
X154930714Y-108339949D01*
X154959285Y-108525663D02*
X155045000Y-108639949D01*
X155045000Y-108439949D02*
X154930714Y-108554235D01*
D11*
%TO.C,M1C3*%
X133078798Y-106301714D02*
X132078798Y-106301714D01*
X132793084Y-105968380D01*
X132078798Y-105635047D01*
X133078798Y-105635047D01*
X133078798Y-104635047D02*
X133078798Y-105206476D01*
X133078798Y-104920761D02*
X132078798Y-104920761D01*
X132221656Y-105016000D01*
X132316894Y-105111238D01*
X132364513Y-105206476D01*
X132983560Y-103635047D02*
X133031179Y-103682666D01*
X133078798Y-103825523D01*
X133078798Y-103920761D01*
X133031179Y-104063619D01*
X132935941Y-104158857D01*
X132840703Y-104206476D01*
X132650227Y-104254095D01*
X132507370Y-104254095D01*
X132316894Y-104206476D01*
X132221656Y-104158857D01*
X132126418Y-104063619D01*
X132078798Y-103920761D01*
X132078798Y-103825523D01*
X132126418Y-103682666D01*
X132174037Y-103635047D01*
X132078798Y-103301714D02*
X132078798Y-102682666D01*
X132459751Y-103016000D01*
X132459751Y-102873142D01*
X132507370Y-102777904D01*
X132554989Y-102730285D01*
X132650227Y-102682666D01*
X132888322Y-102682666D01*
X132983560Y-102730285D01*
X133031179Y-102777904D01*
X133078798Y-102873142D01*
X133078798Y-103158857D01*
X133031179Y-103254095D01*
X132983560Y-103301714D01*
%TO.C,MUC1*%
X159822666Y-97242380D02*
X159822666Y-96242380D01*
X160156000Y-96956666D01*
X160489333Y-96242380D01*
X160489333Y-97242380D01*
X160965523Y-96242380D02*
X160965523Y-97051904D01*
X161013142Y-97147142D01*
X161060761Y-97194761D01*
X161156000Y-97242380D01*
X161346476Y-97242380D01*
X161441714Y-97194761D01*
X161489333Y-97147142D01*
X161536952Y-97051904D01*
X161536952Y-96242380D01*
X162584571Y-97147142D02*
X162536952Y-97194761D01*
X162394095Y-97242380D01*
X162298857Y-97242380D01*
X162156000Y-97194761D01*
X162060761Y-97099523D01*
X162013142Y-97004285D01*
X161965523Y-96813809D01*
X161965523Y-96670952D01*
X162013142Y-96480476D01*
X162060761Y-96385238D01*
X162156000Y-96290000D01*
X162298857Y-96242380D01*
X162394095Y-96242380D01*
X162536952Y-96290000D01*
X162584571Y-96337619D01*
X163536952Y-97242380D02*
X162965523Y-97242380D01*
X163251238Y-97242380D02*
X163251238Y-96242380D01*
X163156000Y-96385238D01*
X163060761Y-96480476D01*
X162965523Y-96528095D01*
D10*
%TO.C,M1R10*%
X154659285Y-98159949D02*
X154487857Y-98159949D01*
X154573571Y-98159949D02*
X154573571Y-97859949D01*
X154545000Y-97902806D01*
X154516428Y-97931377D01*
X154487857Y-97945663D01*
X154787857Y-98159949D02*
X154787857Y-97859949D01*
X154816428Y-98045663D02*
X154902142Y-98159949D01*
X154902142Y-97959949D02*
X154787857Y-98074235D01*
%TO.C,M1R9*%
X154116428Y-99383949D02*
X154302142Y-99383949D01*
X154202142Y-99498235D01*
X154245000Y-99498235D01*
X154273571Y-99512520D01*
X154287857Y-99526806D01*
X154302142Y-99555377D01*
X154302142Y-99626806D01*
X154287857Y-99655377D01*
X154273571Y-99669663D01*
X154245000Y-99683949D01*
X154159285Y-99683949D01*
X154130714Y-99669663D01*
X154116428Y-99655377D01*
X154430714Y-99655377D02*
X154445000Y-99669663D01*
X154430714Y-99683949D01*
X154416428Y-99669663D01*
X154430714Y-99655377D01*
X154430714Y-99683949D01*
X154559285Y-99412520D02*
X154573571Y-99398235D01*
X154602142Y-99383949D01*
X154673571Y-99383949D01*
X154702142Y-99398235D01*
X154716428Y-99412520D01*
X154730714Y-99441092D01*
X154730714Y-99469663D01*
X154716428Y-99512520D01*
X154545000Y-99683949D01*
X154730714Y-99683949D01*
X154987857Y-99483949D02*
X154987857Y-99683949D01*
X154916428Y-99369663D02*
X154845000Y-99583949D01*
X155030714Y-99583949D01*
X155145000Y-99683949D02*
X155145000Y-99383949D01*
X155173571Y-99569663D02*
X155259285Y-99683949D01*
X155259285Y-99483949D02*
X155145000Y-99598235D01*
%TO.C,M1R5*%
X154116428Y-107003949D02*
X154302142Y-107003949D01*
X154202142Y-107118235D01*
X154245000Y-107118235D01*
X154273571Y-107132520D01*
X154287857Y-107146806D01*
X154302142Y-107175377D01*
X154302142Y-107246806D01*
X154287857Y-107275377D01*
X154273571Y-107289663D01*
X154245000Y-107303949D01*
X154159285Y-107303949D01*
X154130714Y-107289663D01*
X154116428Y-107275377D01*
X154430714Y-107275377D02*
X154445000Y-107289663D01*
X154430714Y-107303949D01*
X154416428Y-107289663D01*
X154430714Y-107275377D01*
X154430714Y-107303949D01*
X154559285Y-107032520D02*
X154573571Y-107018235D01*
X154602142Y-107003949D01*
X154673571Y-107003949D01*
X154702142Y-107018235D01*
X154716428Y-107032520D01*
X154730714Y-107061092D01*
X154730714Y-107089663D01*
X154716428Y-107132520D01*
X154545000Y-107303949D01*
X154730714Y-107303949D01*
X154987857Y-107103949D02*
X154987857Y-107303949D01*
X154916428Y-106989663D02*
X154845000Y-107203949D01*
X155030714Y-107203949D01*
X155145000Y-107303949D02*
X155145000Y-107003949D01*
X155173571Y-107189663D02*
X155259285Y-107303949D01*
X155259285Y-107103949D02*
X155145000Y-107218235D01*
D12*
%TO.C,M1Q1*%
X145062914Y-114035771D02*
X145062914Y-113426171D01*
X145266114Y-113861600D01*
X145469314Y-113426171D01*
X145469314Y-114035771D01*
X146078914Y-114035771D02*
X145730571Y-114035771D01*
X145904742Y-114035771D02*
X145904742Y-113426171D01*
X145846685Y-113513257D01*
X145788628Y-113571314D01*
X145730571Y-113600342D01*
X146746571Y-114093828D02*
X146688514Y-114064800D01*
X146630457Y-114006742D01*
X146543371Y-113919657D01*
X146485314Y-113890628D01*
X146427257Y-113890628D01*
X146456285Y-114035771D02*
X146398228Y-114006742D01*
X146340171Y-113948685D01*
X146311142Y-113832571D01*
X146311142Y-113629371D01*
X146340171Y-113513257D01*
X146398228Y-113455200D01*
X146456285Y-113426171D01*
X146572400Y-113426171D01*
X146630457Y-113455200D01*
X146688514Y-113513257D01*
X146717542Y-113629371D01*
X146717542Y-113832571D01*
X146688514Y-113948685D01*
X146630457Y-114006742D01*
X146572400Y-114035771D01*
X146456285Y-114035771D01*
X147298114Y-114035771D02*
X146949771Y-114035771D01*
X147123942Y-114035771D02*
X147123942Y-113426171D01*
X147065885Y-113513257D01*
X147007828Y-113571314D01*
X146949771Y-113600342D01*
X139257924Y-121809771D02*
X139257924Y-121200171D01*
X139461124Y-121635600D01*
X139664324Y-121200171D01*
X139664324Y-121809771D01*
X140070724Y-121200171D02*
X140186838Y-121200171D01*
X140244895Y-121229200D01*
X140302953Y-121287257D01*
X140331981Y-121403371D01*
X140331981Y-121606571D01*
X140302953Y-121722685D01*
X140244895Y-121780742D01*
X140186838Y-121809771D01*
X140070724Y-121809771D01*
X140012667Y-121780742D01*
X139954610Y-121722685D01*
X139925581Y-121606571D01*
X139925581Y-121403371D01*
X139954610Y-121287257D01*
X140012667Y-121229200D01*
X140070724Y-121200171D01*
X140564210Y-121780742D02*
X140651295Y-121809771D01*
X140796438Y-121809771D01*
X140854495Y-121780742D01*
X140883524Y-121751714D01*
X140912553Y-121693657D01*
X140912553Y-121635600D01*
X140883524Y-121577542D01*
X140854495Y-121548514D01*
X140796438Y-121519485D01*
X140680324Y-121490457D01*
X140622267Y-121461428D01*
X140593238Y-121432400D01*
X140564210Y-121374342D01*
X140564210Y-121316285D01*
X140593238Y-121258228D01*
X140622267Y-121229200D01*
X140680324Y-121200171D01*
X140825467Y-121200171D01*
X140912553Y-121229200D01*
X141377010Y-121490457D02*
X141173810Y-121490457D01*
X141173810Y-121809771D02*
X141173810Y-121200171D01*
X141464095Y-121200171D01*
X141696324Y-121490457D02*
X141899524Y-121490457D01*
X141986610Y-121809771D02*
X141696324Y-121809771D01*
X141696324Y-121200171D01*
X141986610Y-121200171D01*
X142160781Y-121200171D02*
X142509124Y-121200171D01*
X142334953Y-121809771D02*
X142334953Y-121200171D01*
X142712324Y-121577542D02*
X143176781Y-121577542D01*
X143467067Y-121809771D02*
X143467067Y-121200171D01*
X143815410Y-121809771D01*
X143815410Y-121200171D01*
X144454038Y-121751714D02*
X144425010Y-121780742D01*
X144337924Y-121809771D01*
X144279867Y-121809771D01*
X144192781Y-121780742D01*
X144134724Y-121722685D01*
X144105695Y-121664628D01*
X144076667Y-121548514D01*
X144076667Y-121461428D01*
X144105695Y-121345314D01*
X144134724Y-121287257D01*
X144192781Y-121229200D01*
X144279867Y-121200171D01*
X144337924Y-121200171D01*
X144425010Y-121229200D01*
X144454038Y-121258228D01*
X144715295Y-121809771D02*
X144715295Y-121200171D01*
X144715295Y-121490457D02*
X145063638Y-121490457D01*
X145063638Y-121809771D02*
X145063638Y-121200171D01*
X145353924Y-121577542D02*
X145818381Y-121577542D01*
X146311867Y-121490457D02*
X146108667Y-121490457D01*
X146108667Y-121809771D02*
X146108667Y-121200171D01*
X146398953Y-121200171D01*
X146631181Y-121809771D02*
X146631181Y-121200171D01*
X146776324Y-121200171D01*
X146863410Y-121229200D01*
X146921467Y-121287257D01*
X146950495Y-121345314D01*
X146979524Y-121461428D01*
X146979524Y-121548514D01*
X146950495Y-121664628D01*
X146921467Y-121722685D01*
X146863410Y-121780742D01*
X146776324Y-121809771D01*
X146631181Y-121809771D01*
X147240781Y-121809771D02*
X147240781Y-121200171D01*
X147385924Y-121200171D01*
X147473010Y-121229200D01*
X147531067Y-121287257D01*
X147560095Y-121345314D01*
X147589124Y-121461428D01*
X147589124Y-121548514D01*
X147560095Y-121664628D01*
X147531067Y-121722685D01*
X147473010Y-121780742D01*
X147385924Y-121809771D01*
X147240781Y-121809771D01*
X147937467Y-121461428D02*
X147879410Y-121432400D01*
X147850381Y-121403371D01*
X147821353Y-121345314D01*
X147821353Y-121316285D01*
X147850381Y-121258228D01*
X147879410Y-121229200D01*
X147937467Y-121200171D01*
X148053581Y-121200171D01*
X148111638Y-121229200D01*
X148140667Y-121258228D01*
X148169695Y-121316285D01*
X148169695Y-121345314D01*
X148140667Y-121403371D01*
X148111638Y-121432400D01*
X148053581Y-121461428D01*
X147937467Y-121461428D01*
X147879410Y-121490457D01*
X147850381Y-121519485D01*
X147821353Y-121577542D01*
X147821353Y-121693657D01*
X147850381Y-121751714D01*
X147879410Y-121780742D01*
X147937467Y-121809771D01*
X148053581Y-121809771D01*
X148111638Y-121780742D01*
X148140667Y-121751714D01*
X148169695Y-121693657D01*
X148169695Y-121577542D01*
X148140667Y-121519485D01*
X148111638Y-121490457D01*
X148053581Y-121461428D01*
X148372895Y-121200171D02*
X148779295Y-121200171D01*
X148518038Y-121809771D01*
X149098610Y-121461428D02*
X149040553Y-121432400D01*
X149011524Y-121403371D01*
X148982495Y-121345314D01*
X148982495Y-121316285D01*
X149011524Y-121258228D01*
X149040553Y-121229200D01*
X149098610Y-121200171D01*
X149214724Y-121200171D01*
X149272781Y-121229200D01*
X149301810Y-121258228D01*
X149330838Y-121316285D01*
X149330838Y-121345314D01*
X149301810Y-121403371D01*
X149272781Y-121432400D01*
X149214724Y-121461428D01*
X149098610Y-121461428D01*
X149040553Y-121490457D01*
X149011524Y-121519485D01*
X148982495Y-121577542D01*
X148982495Y-121693657D01*
X149011524Y-121751714D01*
X149040553Y-121780742D01*
X149098610Y-121809771D01*
X149214724Y-121809771D01*
X149272781Y-121780742D01*
X149301810Y-121751714D01*
X149330838Y-121693657D01*
X149330838Y-121577542D01*
X149301810Y-121519485D01*
X149272781Y-121490457D01*
X149214724Y-121461428D01*
X149708210Y-121200171D02*
X149766267Y-121200171D01*
X149824324Y-121229200D01*
X149853353Y-121258228D01*
X149882381Y-121316285D01*
X149911410Y-121432400D01*
X149911410Y-121577542D01*
X149882381Y-121693657D01*
X149853353Y-121751714D01*
X149824324Y-121780742D01*
X149766267Y-121809771D01*
X149708210Y-121809771D01*
X149650153Y-121780742D01*
X149621124Y-121751714D01*
X149592095Y-121693657D01*
X149563067Y-121577542D01*
X149563067Y-121432400D01*
X149592095Y-121316285D01*
X149621124Y-121258228D01*
X149650153Y-121229200D01*
X149708210Y-121200171D01*
D10*
%TO.C,M1R82*%
X154659285Y-104067949D02*
X154487857Y-104067949D01*
X154573571Y-104067949D02*
X154573571Y-103767949D01*
X154545000Y-103810806D01*
X154516428Y-103839377D01*
X154487857Y-103853663D01*
X154787857Y-104067949D02*
X154787857Y-103767949D01*
X154816428Y-103953663D02*
X154902142Y-104067949D01*
X154902142Y-103867949D02*
X154787857Y-103982235D01*
D11*
%TO.C,M1C8*%
X156456285Y-103048615D02*
X156456285Y-102048615D01*
X156789619Y-102762901D01*
X157122952Y-102048615D01*
X157122952Y-103048615D01*
X158122952Y-103048615D02*
X157551523Y-103048615D01*
X157837238Y-103048615D02*
X157837238Y-102048615D01*
X157742000Y-102191473D01*
X157646761Y-102286711D01*
X157551523Y-102334330D01*
X159122952Y-102953377D02*
X159075333Y-103000996D01*
X158932476Y-103048615D01*
X158837238Y-103048615D01*
X158694380Y-103000996D01*
X158599142Y-102905758D01*
X158551523Y-102810520D01*
X158503904Y-102620044D01*
X158503904Y-102477187D01*
X158551523Y-102286711D01*
X158599142Y-102191473D01*
X158694380Y-102096235D01*
X158837238Y-102048615D01*
X158932476Y-102048615D01*
X159075333Y-102096235D01*
X159122952Y-102143854D01*
X159694380Y-102477187D02*
X159599142Y-102429568D01*
X159551523Y-102381949D01*
X159503904Y-102286711D01*
X159503904Y-102239092D01*
X159551523Y-102143854D01*
X159599142Y-102096235D01*
X159694380Y-102048615D01*
X159884857Y-102048615D01*
X159980095Y-102096235D01*
X160027714Y-102143854D01*
X160075333Y-102239092D01*
X160075333Y-102286711D01*
X160027714Y-102381949D01*
X159980095Y-102429568D01*
X159884857Y-102477187D01*
X159694380Y-102477187D01*
X159599142Y-102524806D01*
X159551523Y-102572425D01*
X159503904Y-102667663D01*
X159503904Y-102858139D01*
X159551523Y-102953377D01*
X159599142Y-103000996D01*
X159694380Y-103048615D01*
X159884857Y-103048615D01*
X159980095Y-103000996D01*
X160027714Y-102953377D01*
X160075333Y-102858139D01*
X160075333Y-102667663D01*
X160027714Y-102572425D01*
X159980095Y-102524806D01*
X159884857Y-102477187D01*
D10*
%TO.C,M2R10*%
X168389885Y-111052949D02*
X168218457Y-111052949D01*
X168304171Y-111052949D02*
X168304171Y-110752949D01*
X168275600Y-110795806D01*
X168247028Y-110824377D01*
X168218457Y-110838663D01*
X168518457Y-111052949D02*
X168518457Y-110752949D01*
X168547028Y-110938663D02*
X168632742Y-111052949D01*
X168632742Y-110852949D02*
X168518457Y-110967235D01*
%TO.C,M2R9*%
X167847028Y-109228949D02*
X168032742Y-109228949D01*
X167932742Y-109343235D01*
X167975600Y-109343235D01*
X168004171Y-109357520D01*
X168018457Y-109371806D01*
X168032742Y-109400377D01*
X168032742Y-109471806D01*
X168018457Y-109500377D01*
X168004171Y-109514663D01*
X167975600Y-109528949D01*
X167889885Y-109528949D01*
X167861314Y-109514663D01*
X167847028Y-109500377D01*
X168161314Y-109500377D02*
X168175600Y-109514663D01*
X168161314Y-109528949D01*
X168147028Y-109514663D01*
X168161314Y-109500377D01*
X168161314Y-109528949D01*
X168289885Y-109257520D02*
X168304171Y-109243235D01*
X168332742Y-109228949D01*
X168404171Y-109228949D01*
X168432742Y-109243235D01*
X168447028Y-109257520D01*
X168461314Y-109286092D01*
X168461314Y-109314663D01*
X168447028Y-109357520D01*
X168275600Y-109528949D01*
X168461314Y-109528949D01*
X168718457Y-109328949D02*
X168718457Y-109528949D01*
X168647028Y-109214663D02*
X168575600Y-109428949D01*
X168761314Y-109428949D01*
X168875600Y-109528949D02*
X168875600Y-109228949D01*
X168904171Y-109414663D02*
X168989885Y-109528949D01*
X168989885Y-109328949D02*
X168875600Y-109443235D01*
%TO.C,M2R82*%
X168389885Y-105144949D02*
X168218457Y-105144949D01*
X168304171Y-105144949D02*
X168304171Y-104844949D01*
X168275600Y-104887806D01*
X168247028Y-104916377D01*
X168218457Y-104930663D01*
X168518457Y-105144949D02*
X168518457Y-104844949D01*
X168547028Y-105030663D02*
X168632742Y-105144949D01*
X168632742Y-104944949D02*
X168518457Y-105059235D01*
D11*
%TO.C,M2C3*%
X193828380Y-106301714D02*
X192828380Y-106301714D01*
X193542666Y-105968380D01*
X192828380Y-105635047D01*
X193828380Y-105635047D01*
X192923619Y-105206476D02*
X192876000Y-105158857D01*
X192828380Y-105063619D01*
X192828380Y-104825523D01*
X192876000Y-104730285D01*
X192923619Y-104682666D01*
X193018857Y-104635047D01*
X193114095Y-104635047D01*
X193256952Y-104682666D01*
X193828380Y-105254095D01*
X193828380Y-104635047D01*
X193733142Y-103635047D02*
X193780761Y-103682666D01*
X193828380Y-103825523D01*
X193828380Y-103920761D01*
X193780761Y-104063619D01*
X193685523Y-104158857D01*
X193590285Y-104206476D01*
X193399809Y-104254095D01*
X193256952Y-104254095D01*
X193066476Y-104206476D01*
X192971238Y-104158857D01*
X192876000Y-104063619D01*
X192828380Y-103920761D01*
X192828380Y-103825523D01*
X192876000Y-103682666D01*
X192923619Y-103635047D01*
X192828380Y-103301714D02*
X192828380Y-102682666D01*
X193209333Y-103016000D01*
X193209333Y-102873142D01*
X193256952Y-102777904D01*
X193304571Y-102730285D01*
X193399809Y-102682666D01*
X193637904Y-102682666D01*
X193733142Y-102730285D01*
X193780761Y-102777904D01*
X193828380Y-102873142D01*
X193828380Y-103158857D01*
X193780761Y-103254095D01*
X193733142Y-103301714D01*
D13*
%TO.C,M2R6*%
X168662858Y-101344735D02*
X168188342Y-101344735D01*
X168662858Y-102389735D02*
X168188342Y-102389735D01*
%TO.C,M2R5*%
X168188342Y-100865735D02*
X168662858Y-100865735D01*
X168188342Y-99820735D02*
X168662858Y-99820735D01*
%TO.C,M2C8*%
X164986580Y-105425235D02*
X164705420Y-105425235D01*
X164986580Y-104405235D02*
X164705420Y-104405235D01*
%TO.C,M2U1*%
X188615600Y-95826400D02*
X172615600Y-95826400D01*
X188615600Y-95826400D02*
X188715600Y-95826400D01*
X188615600Y-113226400D02*
X172515600Y-113226400D01*
X188615600Y-113226400D02*
X188715600Y-113226400D01*
X172615600Y-95826400D02*
X172515600Y-95826400D01*
X172515600Y-113226400D02*
X172515600Y-112026400D01*
X172515600Y-97026400D02*
X170815600Y-97026400D01*
X188715600Y-95826400D02*
X188715600Y-97026400D01*
X172515600Y-95826400D02*
X172515600Y-97026400D01*
X188715600Y-113226400D02*
X188715600Y-112026400D01*
%TO.C,M2R81*%
X168188342Y-105437735D02*
X168662858Y-105437735D01*
X168188342Y-104392735D02*
X168662858Y-104392735D01*
%TO.C,M2R71*%
X168188342Y-102868735D02*
X168662858Y-102868735D01*
X168188342Y-103913735D02*
X168662858Y-103913735D01*
%TO.C,J2*%
X189155000Y-122870000D02*
X163695000Y-122870000D01*
X189155000Y-125530000D02*
X163695000Y-125530000D01*
X190425000Y-122870000D02*
X191755000Y-122870000D01*
X189155000Y-122870000D02*
X189155000Y-125530000D01*
X163695000Y-122870000D02*
X163695000Y-125530000D01*
X191755000Y-122870000D02*
X191755000Y-124200000D01*
%TO.C,M1R71*%
X154932258Y-105027735D02*
X154457742Y-105027735D01*
X154932258Y-106072735D02*
X154457742Y-106072735D01*
%TO.C,M1R81*%
X154932258Y-104548735D02*
X154457742Y-104548735D01*
X154932258Y-103503735D02*
X154457742Y-103503735D01*
%TO.C,M1R4*%
X154932258Y-109599735D02*
X154457742Y-109599735D01*
X154932258Y-110644735D02*
X154457742Y-110644735D01*
%TO.C,M1R72*%
X158004742Y-106072735D02*
X158479258Y-106072735D01*
X158004742Y-105027735D02*
X158479258Y-105027735D01*
%TO.C,M2R72*%
X165083258Y-103913735D02*
X164608742Y-103913735D01*
X165083258Y-102868735D02*
X164608742Y-102868735D01*
D14*
%TO.C,M2Q1*%
X182300985Y-120873600D02*
X176108465Y-120873600D01*
X176108465Y-114320400D02*
X182300985Y-114320400D01*
X182300985Y-114320400D02*
X182300985Y-120873600D01*
D15*
%TO.C,U1*%
X160606000Y-99000000D02*
G75*
G03*
X160606000Y-99000000I-50000J0D01*
G01*
D13*
%TO.C,M1U1*%
X150471200Y-113226400D02*
X150571200Y-113226400D01*
X134471200Y-95826400D02*
X150571200Y-95826400D01*
X134371200Y-95826400D02*
X134371200Y-97026400D01*
X134371200Y-113226400D02*
X134371200Y-112026400D01*
X134471200Y-95826400D02*
X134371200Y-95826400D01*
X134471200Y-113226400D02*
X150471200Y-113226400D01*
X150571200Y-95826400D02*
X150571200Y-97026400D01*
X150571200Y-112026400D02*
X152271200Y-112026400D01*
X134471200Y-113226400D02*
X134371200Y-113226400D01*
X150571200Y-113226400D02*
X150571200Y-112026400D01*
%TO.C,M2R4*%
X168188342Y-98296735D02*
X168662858Y-98296735D01*
X168188342Y-99341735D02*
X168662858Y-99341735D01*
%TO.C,M1R6*%
X154457742Y-107596735D02*
X154932258Y-107596735D01*
X154457742Y-106551735D02*
X154932258Y-106551735D01*
%TO.C,M1C3*%
X131706418Y-104375420D02*
X131706418Y-104656580D01*
X130686418Y-104375420D02*
X130686418Y-104656580D01*
%TO.C,MUC1*%
X161796580Y-95870000D02*
X161515420Y-95870000D01*
X161796580Y-94850000D02*
X161515420Y-94850000D01*
%TO.C,M1R10*%
X154932258Y-99976735D02*
X154457742Y-99976735D01*
X154932258Y-98931735D02*
X154457742Y-98931735D01*
%TO.C,M1R9*%
X154932258Y-101500735D02*
X154457742Y-101500735D01*
X154932258Y-100455735D02*
X154457742Y-100455735D01*
%TO.C,M1R5*%
X154932258Y-109120735D02*
X154457742Y-109120735D01*
X154932258Y-108075735D02*
X154457742Y-108075735D01*
D14*
%TO.C,M1Q1*%
X140841433Y-120873600D02*
X140841433Y-114320400D01*
X147033953Y-120873600D02*
X140841433Y-120873600D01*
X140841433Y-114320400D02*
X147033953Y-114320400D01*
D13*
%TO.C,M1R82*%
X154457742Y-101979735D02*
X154932258Y-101979735D01*
X154457742Y-103024735D02*
X154932258Y-103024735D01*
%TO.C,M1C8*%
X158101420Y-103516235D02*
X158382580Y-103516235D01*
X158101420Y-104536235D02*
X158382580Y-104536235D01*
%TO.C,M2R10*%
X168188342Y-108964735D02*
X168662858Y-108964735D01*
X168188342Y-110009735D02*
X168662858Y-110009735D01*
%TO.C,M2R9*%
X168188342Y-108485735D02*
X168662858Y-108485735D01*
X168188342Y-107440735D02*
X168662858Y-107440735D01*
%TO.C,M2R82*%
X168662858Y-105916735D02*
X168188342Y-105916735D01*
X168662858Y-106961735D02*
X168188342Y-106961735D01*
%TO.C,M2C3*%
X192456000Y-104375420D02*
X192456000Y-104656580D01*
X191436000Y-104375420D02*
X191436000Y-104656580D01*
%TD*%
%LPC*%
D16*
%TO.C,M2R6*%
X169250600Y-101867235D03*
X167600600Y-101867235D03*
%TD*%
D17*
%TO.C,M2R5*%
X167600600Y-100343235D03*
X169250600Y-100343235D03*
%TD*%
D18*
%TO.C,M2C8*%
X165621000Y-104915235D03*
X164071000Y-104915235D03*
%TD*%
D19*
%TO.C,M2U1*%
X171490600Y-97526400D03*
X171490600Y-98526400D03*
X171490600Y-99526400D03*
X171490600Y-100526400D03*
X171490600Y-101526400D03*
X171490600Y-102526400D03*
X171490600Y-103526400D03*
X171490600Y-104526400D03*
X171490600Y-105526400D03*
X171490600Y-106526400D03*
X171490600Y-107526400D03*
X171490600Y-108526400D03*
X171490600Y-109526400D03*
X171490600Y-110526400D03*
X171490600Y-111526400D03*
X189740600Y-111526400D03*
X189740600Y-110526400D03*
X189740600Y-109526400D03*
X189740600Y-108526400D03*
X189740600Y-107526400D03*
X189740600Y-106526400D03*
X189740600Y-105526400D03*
X189740600Y-104526400D03*
X189740600Y-103526400D03*
X189740600Y-102526400D03*
X189740600Y-101526400D03*
X189740600Y-100526400D03*
X189740600Y-99526400D03*
X189740600Y-98526400D03*
X189740600Y-97526400D03*
D20*
X177565600Y-104526400D03*
D21*
X183665600Y-108691400D03*
X183665600Y-100361400D03*
%TD*%
D17*
%TO.C,M2R81*%
X167600600Y-104915235D03*
X169250600Y-104915235D03*
%TD*%
%TO.C,M2R71*%
X167600600Y-103391235D03*
X169250600Y-103391235D03*
%TD*%
D22*
%TO.C,J2*%
X190425000Y-124200000D03*
D23*
X187885000Y-124200000D03*
X185345000Y-124200000D03*
X182805000Y-124200000D03*
X180265000Y-124200000D03*
X177725000Y-124200000D03*
X175185000Y-124200000D03*
X172645000Y-124200000D03*
X170105000Y-124200000D03*
X167565000Y-124200000D03*
X165025000Y-124200000D03*
%TD*%
D16*
%TO.C,M1R71*%
X155520000Y-105550235D03*
X153870000Y-105550235D03*
%TD*%
%TO.C,M1R81*%
X155520000Y-104026235D03*
X153870000Y-104026235D03*
%TD*%
%TO.C,M1R4*%
X155520000Y-110122235D03*
X153870000Y-110122235D03*
%TD*%
D17*
%TO.C,M1R72*%
X157417000Y-105550235D03*
X159067000Y-105550235D03*
%TD*%
D16*
%TO.C,M2R72*%
X165671000Y-103391235D03*
X164021000Y-103391235D03*
%TD*%
D24*
%TO.C,M2Q1*%
X183880865Y-119875380D03*
X183880865Y-115318620D03*
D25*
X176984765Y-117597000D03*
%TD*%
D26*
%TO.C,U1*%
X161006000Y-98950000D03*
X161656000Y-98950000D03*
X162306000Y-98950000D03*
X162306000Y-96850000D03*
X161656000Y-96850000D03*
X161006000Y-96850000D03*
%TD*%
D19*
%TO.C,M1U1*%
X151596200Y-111526400D03*
X151596200Y-110526400D03*
X151596200Y-109526400D03*
X151596200Y-108526400D03*
X151596200Y-107526400D03*
X151596200Y-106526400D03*
X151596200Y-105526400D03*
X151596200Y-104526400D03*
X151596200Y-103526400D03*
X151596200Y-102526400D03*
X151596200Y-101526400D03*
X151596200Y-100526400D03*
X151596200Y-99526400D03*
X151596200Y-98526400D03*
X151596200Y-97526400D03*
X133346200Y-97526400D03*
X133346200Y-98526400D03*
X133346200Y-99526400D03*
X133346200Y-100526400D03*
X133346200Y-101526400D03*
X133346200Y-102526400D03*
X133346200Y-103526400D03*
X133346200Y-104526400D03*
X133346200Y-105526400D03*
X133346200Y-106526400D03*
X133346200Y-107526400D03*
X133346200Y-108526400D03*
X133346200Y-109526400D03*
X133346200Y-110526400D03*
X133346200Y-111526400D03*
D20*
X145521200Y-104526400D03*
D21*
X139421200Y-100361400D03*
X139421200Y-108691400D03*
%TD*%
D17*
%TO.C,M2R4*%
X167600600Y-98819235D03*
X169250600Y-98819235D03*
%TD*%
%TO.C,M1R6*%
X153870000Y-107074235D03*
X155520000Y-107074235D03*
%TD*%
D27*
%TO.C,M1C3*%
X131196418Y-103741000D03*
X131196418Y-105291000D03*
%TD*%
D18*
%TO.C,MUC1*%
X162431000Y-95360000D03*
X160881000Y-95360000D03*
%TD*%
D16*
%TO.C,M1R10*%
X155520000Y-99454235D03*
X153870000Y-99454235D03*
%TD*%
%TO.C,M1R9*%
X155520000Y-100978235D03*
X153870000Y-100978235D03*
%TD*%
%TO.C,M1R5*%
X155520000Y-108598235D03*
X153870000Y-108598235D03*
%TD*%
D28*
%TO.C,M1Q1*%
X139261553Y-115318620D03*
X139261553Y-119875380D03*
D29*
X146157653Y-117597000D03*
%TD*%
D17*
%TO.C,M1R82*%
X153870000Y-102502235D03*
X155520000Y-102502235D03*
%TD*%
D30*
%TO.C,M1C8*%
X157467000Y-104026235D03*
X159017000Y-104026235D03*
%TD*%
D17*
%TO.C,M2R10*%
X167600600Y-109487235D03*
X169250600Y-109487235D03*
%TD*%
%TO.C,M2R9*%
X167600600Y-107963235D03*
X169250600Y-107963235D03*
%TD*%
D16*
%TO.C,M2R82*%
X169250600Y-106439235D03*
X167600600Y-106439235D03*
%TD*%
D27*
%TO.C,M2C3*%
X191946000Y-103741000D03*
X191946000Y-105291000D03*
%TD*%
D31*
%TO.C,M2CP1*%
X169431982Y-119508651D03*
D32*
X169431982Y-116008651D03*
%TD*%
D31*
%TO.C,M1CP1*%
X153610400Y-119508651D03*
D32*
X153610400Y-116008651D03*
%TD*%
D33*
%TO.C,J1*%
X161544000Y-112562000D03*
D34*
X161544000Y-117562000D03*
%TD*%
M02*
