%FSLAX45Y45*%
G04 Gerber Fmt 4.5, Leading zero omitted, Abs format (unit mm)*
G04 Created by KiCad (PCBNEW (6.0.0-0)) date 2022-03-22 21:28:28*
%MOMM*%
%LPD*%
G01*
G04 APERTURE LIST*
%TA.AperFunction,Profile*%
%ADD10C,0.200000*%
%TD*%
%ADD11C,0.200000*%
G04 APERTURE END LIST*
D10*
X19598640Y-9598200D02*
X19598640Y-12398200D01*
X12698640Y-12398200D02*
X12698640Y-9598200D01*
X12998640Y-9298200D02*
X19298640Y-9298200D01*
X19598640Y-9598200D02*
G75*
G03*
X19298640Y-9298200I-300000J0D01*
G01*
X12998640Y-9298200D02*
G75*
G03*
X12698640Y-9598200I0J-300000D01*
G01*
X19298640Y-12698200D02*
G75*
G03*
X19598640Y-12398200I0J300000D01*
G01*
X12698640Y-12398200D02*
G75*
G03*
X12998640Y-12698200I300000J0D01*
G01*
X19298640Y-12698200D02*
X12998640Y-12698200D01*
D11*
X12946259Y-13018676D02*
X12946259Y-12818676D01*
X12993878Y-12818676D01*
X13022449Y-12828200D01*
X13041497Y-12847248D01*
X13051021Y-12866295D01*
X13060545Y-12904390D01*
X13060545Y-12932962D01*
X13051021Y-12971057D01*
X13041497Y-12990105D01*
X13022449Y-13009152D01*
X12993878Y-13018676D01*
X12946259Y-13018676D01*
X13146259Y-13018676D02*
X13146259Y-12885343D01*
X13146259Y-12923438D02*
X13155783Y-12904390D01*
X13165307Y-12894867D01*
X13184354Y-12885343D01*
X13203402Y-12885343D01*
X13270068Y-13018676D02*
X13270068Y-12885343D01*
X13270068Y-12818676D02*
X13260545Y-12828200D01*
X13270068Y-12837724D01*
X13279592Y-12828200D01*
X13270068Y-12818676D01*
X13270068Y-12837724D01*
X13393878Y-13018676D02*
X13374830Y-13009152D01*
X13365307Y-12990105D01*
X13365307Y-12818676D01*
X13498640Y-13018676D02*
X13479592Y-13009152D01*
X13470068Y-12990105D01*
X13470068Y-12818676D01*
X13727211Y-13018676D02*
X13727211Y-12818676D01*
X13793878Y-12961533D01*
X13860545Y-12818676D01*
X13860545Y-13018676D01*
X14041497Y-13018676D02*
X14041497Y-12913914D01*
X14031973Y-12894867D01*
X14012926Y-12885343D01*
X13974830Y-12885343D01*
X13955783Y-12894867D01*
X14041497Y-13009152D02*
X14022449Y-13018676D01*
X13974830Y-13018676D01*
X13955783Y-13009152D01*
X13946259Y-12990105D01*
X13946259Y-12971057D01*
X13955783Y-12952009D01*
X13974830Y-12942486D01*
X14022449Y-12942486D01*
X14041497Y-12932962D01*
X14136735Y-12885343D02*
X14136735Y-13085343D01*
X14136735Y-12894867D02*
X14155783Y-12885343D01*
X14193878Y-12885343D01*
X14212926Y-12894867D01*
X14222449Y-12904390D01*
X14231973Y-12923438D01*
X14231973Y-12980581D01*
X14222449Y-12999628D01*
X14212926Y-13009152D01*
X14193878Y-13018676D01*
X14155783Y-13018676D01*
X14136735Y-13009152D01*
X14317688Y-12999628D02*
X14327211Y-13009152D01*
X14317688Y-13018676D01*
X14308164Y-13009152D01*
X14317688Y-12999628D01*
X14317688Y-13018676D01*
X14317688Y-12894867D02*
X14327211Y-12904390D01*
X14317688Y-12913914D01*
X14308164Y-12904390D01*
X14317688Y-12894867D01*
X14317688Y-12913914D01*
M02*
