%TF.GenerationSoftware,KiCad,Pcbnew,(6.0.0-0)*%
%TF.CreationDate,2022-03-22T21:28:24+08:00*%
%TF.ProjectId,driver,64726976-6572-42e6-9b69-6361645f7063,rev?*%
%TF.SameCoordinates,Original*%
%TF.FileFunction,Legend,Bot*%
%TF.FilePolarity,Positive*%
%FSLAX46Y46*%
G04 Gerber Fmt 4.6, Leading zero omitted, Abs format (unit mm)*
G04 Created by KiCad (PCBNEW (6.0.0-0)) date 2022-03-22 21:28:24*
%MOMM*%
%LPD*%
G01*
G04 APERTURE LIST*
G04 Aperture macros list*
%AMRoundRect*
0 Rectangle with rounded corners*
0 $1 Rounding radius*
0 $2 $3 $4 $5 $6 $7 $8 $9 X,Y pos of 4 corners*
0 Add a 4 corners polygon primitive as box body*
4,1,4,$2,$3,$4,$5,$6,$7,$8,$9,$2,$3,0*
0 Add four circle primitives for the rounded corners*
1,1,$1+$1,$2,$3*
1,1,$1+$1,$4,$5*
1,1,$1+$1,$6,$7*
1,1,$1+$1,$8,$9*
0 Add four rect primitives between the rounded corners*
20,1,$1+$1,$2,$3,$4,$5,0*
20,1,$1+$1,$4,$5,$6,$7,0*
20,1,$1+$1,$6,$7,$8,$9,0*
20,1,$1+$1,$8,$9,$2,$3,0*%
G04 Aperture macros list end*
%ADD10C,0.127000*%
%ADD11C,0.150000*%
%ADD12C,0.045000*%
%ADD13C,0.120000*%
%ADD14R,1.700000X1.700000*%
%ADD15O,1.700000X1.700000*%
%ADD16RoundRect,0.101600X0.499110X-0.499110X0.499110X0.499110X-0.499110X0.499110X-0.499110X-0.499110X0*%
%ADD17RoundRect,0.250000X2.500000X-0.250000X2.500000X0.250000X-2.500000X0.250000X-2.500000X-0.250000X0*%
%ADD18RoundRect,0.250000X1.250000X-0.550000X1.250000X0.550000X-1.250000X0.550000X-1.250000X-0.550000X0*%
%ADD19RoundRect,0.101600X-0.499110X0.499110X-0.499110X-0.499110X0.499110X-0.499110X0.499110X0.499110X0*%
%ADD20R,1.600000X1.600000*%
%ADD21C,1.600000*%
%ADD22RoundRect,0.250000X-2.500000X0.250000X-2.500000X-0.250000X2.500000X-0.250000X2.500000X0.250000X0*%
%ADD23RoundRect,0.250000X-1.250000X0.550000X-1.250000X-0.550000X1.250000X-0.550000X1.250000X0.550000X0*%
%ADD24RoundRect,0.200000X0.200000X0.275000X-0.200000X0.275000X-0.200000X-0.275000X0.200000X-0.275000X0*%
%ADD25R,3.800000X3.800000*%
%ADD26C,4.000000*%
G04 APERTURE END LIST*
D10*
%TO.C,M1D2*%
X154390271Y-105685771D02*
X154390271Y-105076171D01*
X154187071Y-105511600D01*
X153983871Y-105076171D01*
X153983871Y-105685771D01*
X153374271Y-105685771D02*
X153722614Y-105685771D01*
X153548442Y-105685771D02*
X153548442Y-105076171D01*
X153606500Y-105163257D01*
X153664557Y-105221314D01*
X153722614Y-105250342D01*
X153113014Y-105685771D02*
X153113014Y-105076171D01*
X152967871Y-105076171D01*
X152880785Y-105105200D01*
X152822728Y-105163257D01*
X152793700Y-105221314D01*
X152764671Y-105337428D01*
X152764671Y-105424514D01*
X152793700Y-105540628D01*
X152822728Y-105598685D01*
X152880785Y-105656742D01*
X152967871Y-105685771D01*
X153113014Y-105685771D01*
X152532442Y-105134228D02*
X152503414Y-105105200D01*
X152445357Y-105076171D01*
X152300214Y-105076171D01*
X152242157Y-105105200D01*
X152213128Y-105134228D01*
X152184100Y-105192285D01*
X152184100Y-105250342D01*
X152213128Y-105337428D01*
X152561471Y-105685771D01*
X152184100Y-105685771D01*
X154317700Y-103073200D02*
X154375757Y-103044171D01*
X154462842Y-103044171D01*
X154549928Y-103073200D01*
X154607985Y-103131257D01*
X154637014Y-103189314D01*
X154666042Y-103305428D01*
X154666042Y-103392514D01*
X154637014Y-103508628D01*
X154607985Y-103566685D01*
X154549928Y-103624742D01*
X154462842Y-103653771D01*
X154404785Y-103653771D01*
X154317700Y-103624742D01*
X154288671Y-103595714D01*
X154288671Y-103392514D01*
X154404785Y-103392514D01*
X153679071Y-103653771D02*
X153882271Y-103363485D01*
X154027414Y-103653771D02*
X154027414Y-103044171D01*
X153795185Y-103044171D01*
X153737128Y-103073200D01*
X153708100Y-103102228D01*
X153679071Y-103160285D01*
X153679071Y-103247371D01*
X153708100Y-103305428D01*
X153737128Y-103334457D01*
X153795185Y-103363485D01*
X154027414Y-103363485D01*
X153417814Y-103334457D02*
X153214614Y-103334457D01*
X153127528Y-103653771D02*
X153417814Y-103653771D01*
X153417814Y-103044171D01*
X153127528Y-103044171D01*
X152866271Y-103334457D02*
X152663071Y-103334457D01*
X152575985Y-103653771D02*
X152866271Y-103653771D01*
X152866271Y-103044171D01*
X152575985Y-103044171D01*
X152314728Y-103653771D02*
X152314728Y-103044171D01*
X151966385Y-103653771D01*
X151966385Y-103044171D01*
%TO.C,M2D2*%
X184921571Y-105685771D02*
X184921571Y-105076171D01*
X184718371Y-105511600D01*
X184515171Y-105076171D01*
X184515171Y-105685771D01*
X184253914Y-105134228D02*
X184224885Y-105105200D01*
X184166828Y-105076171D01*
X184021685Y-105076171D01*
X183963628Y-105105200D01*
X183934600Y-105134228D01*
X183905571Y-105192285D01*
X183905571Y-105250342D01*
X183934600Y-105337428D01*
X184282942Y-105685771D01*
X183905571Y-105685771D01*
X183644314Y-105685771D02*
X183644314Y-105076171D01*
X183499171Y-105076171D01*
X183412085Y-105105200D01*
X183354028Y-105163257D01*
X183325000Y-105221314D01*
X183295971Y-105337428D01*
X183295971Y-105424514D01*
X183325000Y-105540628D01*
X183354028Y-105598685D01*
X183412085Y-105656742D01*
X183499171Y-105685771D01*
X183644314Y-105685771D01*
X183063742Y-105134228D02*
X183034714Y-105105200D01*
X182976657Y-105076171D01*
X182831514Y-105076171D01*
X182773457Y-105105200D01*
X182744428Y-105134228D01*
X182715400Y-105192285D01*
X182715400Y-105250342D01*
X182744428Y-105337428D01*
X183092771Y-105685771D01*
X182715400Y-105685771D01*
X184849000Y-103073200D02*
X184907057Y-103044171D01*
X184994142Y-103044171D01*
X185081228Y-103073200D01*
X185139285Y-103131257D01*
X185168314Y-103189314D01*
X185197342Y-103305428D01*
X185197342Y-103392514D01*
X185168314Y-103508628D01*
X185139285Y-103566685D01*
X185081228Y-103624742D01*
X184994142Y-103653771D01*
X184936085Y-103653771D01*
X184849000Y-103624742D01*
X184819971Y-103595714D01*
X184819971Y-103392514D01*
X184936085Y-103392514D01*
X184210371Y-103653771D02*
X184413571Y-103363485D01*
X184558714Y-103653771D02*
X184558714Y-103044171D01*
X184326485Y-103044171D01*
X184268428Y-103073200D01*
X184239400Y-103102228D01*
X184210371Y-103160285D01*
X184210371Y-103247371D01*
X184239400Y-103305428D01*
X184268428Y-103334457D01*
X184326485Y-103363485D01*
X184558714Y-103363485D01*
X183949114Y-103334457D02*
X183745914Y-103334457D01*
X183658828Y-103653771D02*
X183949114Y-103653771D01*
X183949114Y-103044171D01*
X183658828Y-103044171D01*
X183397571Y-103334457D02*
X183194371Y-103334457D01*
X183107285Y-103653771D02*
X183397571Y-103653771D01*
X183397571Y-103044171D01*
X183107285Y-103044171D01*
X182846028Y-103653771D02*
X182846028Y-103044171D01*
X182497685Y-103653771D01*
X182497685Y-103044171D01*
D11*
%TO.C,M1J1*%
X152798726Y-102798533D02*
X151798726Y-102798533D01*
X152513012Y-103131866D01*
X151798726Y-103465200D01*
X152798726Y-103465200D01*
X152798726Y-104465200D02*
X152798726Y-103893771D01*
X152798726Y-104179485D02*
X151798726Y-104179485D01*
X151941584Y-104084247D01*
X152036822Y-103989009D01*
X152084441Y-103893771D01*
X151798726Y-105179485D02*
X152513012Y-105179485D01*
X152655869Y-105131866D01*
X152751107Y-105036628D01*
X152798726Y-104893771D01*
X152798726Y-104798533D01*
X152798726Y-106179485D02*
X152798726Y-105608057D01*
X152798726Y-105893771D02*
X151798726Y-105893771D01*
X151941584Y-105798533D01*
X152036822Y-105703295D01*
X152084441Y-105608057D01*
D10*
%TO.C,M1D1*%
X154390271Y-105685771D02*
X154390271Y-105076171D01*
X154187071Y-105511600D01*
X153983871Y-105076171D01*
X153983871Y-105685771D01*
X153374271Y-105685771D02*
X153722614Y-105685771D01*
X153548442Y-105685771D02*
X153548442Y-105076171D01*
X153606500Y-105163257D01*
X153664557Y-105221314D01*
X153722614Y-105250342D01*
X153113014Y-105685771D02*
X153113014Y-105076171D01*
X152967871Y-105076171D01*
X152880785Y-105105200D01*
X152822728Y-105163257D01*
X152793700Y-105221314D01*
X152764671Y-105337428D01*
X152764671Y-105424514D01*
X152793700Y-105540628D01*
X152822728Y-105598685D01*
X152880785Y-105656742D01*
X152967871Y-105685771D01*
X153113014Y-105685771D01*
X152184100Y-105685771D02*
X152532442Y-105685771D01*
X152358271Y-105685771D02*
X152358271Y-105076171D01*
X152416328Y-105163257D01*
X152474385Y-105221314D01*
X152532442Y-105250342D01*
X153693585Y-107717771D02*
X153896785Y-107427485D01*
X154041928Y-107717771D02*
X154041928Y-107108171D01*
X153809700Y-107108171D01*
X153751642Y-107137200D01*
X153722614Y-107166228D01*
X153693585Y-107224285D01*
X153693585Y-107311371D01*
X153722614Y-107369428D01*
X153751642Y-107398457D01*
X153809700Y-107427485D01*
X154041928Y-107427485D01*
X153432328Y-107398457D02*
X153229128Y-107398457D01*
X153142042Y-107717771D02*
X153432328Y-107717771D01*
X153432328Y-107108171D01*
X153142042Y-107108171D01*
X152880785Y-107717771D02*
X152880785Y-107108171D01*
X152735642Y-107108171D01*
X152648557Y-107137200D01*
X152590500Y-107195257D01*
X152561471Y-107253314D01*
X152532442Y-107369428D01*
X152532442Y-107456514D01*
X152561471Y-107572628D01*
X152590500Y-107630685D01*
X152648557Y-107688742D01*
X152735642Y-107717771D01*
X152880785Y-107717771D01*
D11*
%TO.C,M2CP1*%
X175134362Y-115472936D02*
X174134362Y-115472936D01*
X174848648Y-115806270D01*
X174134362Y-116139603D01*
X175134362Y-116139603D01*
X174229601Y-116568174D02*
X174181982Y-116615793D01*
X174134362Y-116711031D01*
X174134362Y-116949127D01*
X174181982Y-117044365D01*
X174229601Y-117091984D01*
X174324839Y-117139603D01*
X174420077Y-117139603D01*
X174562934Y-117091984D01*
X175134362Y-116520555D01*
X175134362Y-117139603D01*
X175039124Y-118139603D02*
X175086743Y-118091984D01*
X175134362Y-117949127D01*
X175134362Y-117853889D01*
X175086743Y-117711031D01*
X174991505Y-117615793D01*
X174896267Y-117568174D01*
X174705791Y-117520555D01*
X174562934Y-117520555D01*
X174372458Y-117568174D01*
X174277220Y-117615793D01*
X174181982Y-117711031D01*
X174134362Y-117853889D01*
X174134362Y-117949127D01*
X174181982Y-118091984D01*
X174229601Y-118139603D01*
X175134362Y-118568174D02*
X174134362Y-118568174D01*
X174134362Y-118949127D01*
X174181982Y-119044365D01*
X174229601Y-119091984D01*
X174324839Y-119139603D01*
X174467696Y-119139603D01*
X174562934Y-119091984D01*
X174610553Y-119044365D01*
X174658172Y-118949127D01*
X174658172Y-118568174D01*
X175134362Y-120091984D02*
X175134362Y-119520555D01*
X175134362Y-119806270D02*
X174134362Y-119806270D01*
X174277220Y-119711031D01*
X174372458Y-119615793D01*
X174420077Y-119520555D01*
D10*
%TO.C,M2D1*%
X184921571Y-101621771D02*
X184921571Y-101012171D01*
X184718371Y-101447600D01*
X184515171Y-101012171D01*
X184515171Y-101621771D01*
X184253914Y-101070228D02*
X184224885Y-101041200D01*
X184166828Y-101012171D01*
X184021685Y-101012171D01*
X183963628Y-101041200D01*
X183934600Y-101070228D01*
X183905571Y-101128285D01*
X183905571Y-101186342D01*
X183934600Y-101273428D01*
X184282942Y-101621771D01*
X183905571Y-101621771D01*
X183644314Y-101621771D02*
X183644314Y-101012171D01*
X183499171Y-101012171D01*
X183412085Y-101041200D01*
X183354028Y-101099257D01*
X183325000Y-101157314D01*
X183295971Y-101273428D01*
X183295971Y-101360514D01*
X183325000Y-101476628D01*
X183354028Y-101534685D01*
X183412085Y-101592742D01*
X183499171Y-101621771D01*
X183644314Y-101621771D01*
X182715400Y-101621771D02*
X183063742Y-101621771D01*
X182889571Y-101621771D02*
X182889571Y-101012171D01*
X182947628Y-101099257D01*
X183005685Y-101157314D01*
X183063742Y-101186342D01*
X184224885Y-103653771D02*
X184428085Y-103363485D01*
X184573228Y-103653771D02*
X184573228Y-103044171D01*
X184341000Y-103044171D01*
X184282942Y-103073200D01*
X184253914Y-103102228D01*
X184224885Y-103160285D01*
X184224885Y-103247371D01*
X184253914Y-103305428D01*
X184282942Y-103334457D01*
X184341000Y-103363485D01*
X184573228Y-103363485D01*
X183963628Y-103334457D02*
X183760428Y-103334457D01*
X183673342Y-103653771D02*
X183963628Y-103653771D01*
X183963628Y-103044171D01*
X183673342Y-103044171D01*
X183412085Y-103653771D02*
X183412085Y-103044171D01*
X183266942Y-103044171D01*
X183179857Y-103073200D01*
X183121800Y-103131257D01*
X183092771Y-103189314D01*
X183063742Y-103305428D01*
X183063742Y-103392514D01*
X183092771Y-103508628D01*
X183121800Y-103566685D01*
X183179857Y-103624742D01*
X183266942Y-103653771D01*
X183412085Y-103653771D01*
D11*
%TO.C,M2J1*%
X185202380Y-102859733D02*
X184202380Y-102859733D01*
X184916666Y-103193066D01*
X184202380Y-103526400D01*
X185202380Y-103526400D01*
X184297619Y-103954971D02*
X184250000Y-104002590D01*
X184202380Y-104097828D01*
X184202380Y-104335923D01*
X184250000Y-104431161D01*
X184297619Y-104478780D01*
X184392857Y-104526400D01*
X184488095Y-104526400D01*
X184630952Y-104478780D01*
X185202380Y-103907352D01*
X185202380Y-104526400D01*
X184202380Y-105240685D02*
X184916666Y-105240685D01*
X185059523Y-105193066D01*
X185154761Y-105097828D01*
X185202380Y-104954971D01*
X185202380Y-104859733D01*
X185202380Y-106240685D02*
X185202380Y-105669257D01*
X185202380Y-105954971D02*
X184202380Y-105954971D01*
X184345238Y-105859733D01*
X184440476Y-105764495D01*
X184488095Y-105669257D01*
%TO.C,M1CP1*%
X159312780Y-115472936D02*
X158312780Y-115472936D01*
X159027066Y-115806270D01*
X158312780Y-116139603D01*
X159312780Y-116139603D01*
X159312780Y-117139603D02*
X159312780Y-116568174D01*
X159312780Y-116853889D02*
X158312780Y-116853889D01*
X158455638Y-116758651D01*
X158550876Y-116663412D01*
X158598495Y-116568174D01*
X159217542Y-118139603D02*
X159265161Y-118091984D01*
X159312780Y-117949127D01*
X159312780Y-117853889D01*
X159265161Y-117711031D01*
X159169923Y-117615793D01*
X159074685Y-117568174D01*
X158884209Y-117520555D01*
X158741352Y-117520555D01*
X158550876Y-117568174D01*
X158455638Y-117615793D01*
X158360400Y-117711031D01*
X158312780Y-117853889D01*
X158312780Y-117949127D01*
X158360400Y-118091984D01*
X158408019Y-118139603D01*
X159312780Y-118568174D02*
X158312780Y-118568174D01*
X158312780Y-118949127D01*
X158360400Y-119044365D01*
X158408019Y-119091984D01*
X158503257Y-119139603D01*
X158646114Y-119139603D01*
X158741352Y-119091984D01*
X158788971Y-119044365D01*
X158836590Y-118949127D01*
X158836590Y-118568174D01*
X159312780Y-120091984D02*
X159312780Y-119520555D01*
X159312780Y-119806270D02*
X158312780Y-119806270D01*
X158455638Y-119711031D01*
X158550876Y-119615793D01*
X158598495Y-119520555D01*
D12*
%TO.C,M1R0*%
X153580271Y-103727714D02*
X153580271Y-103927714D01*
X153651700Y-103613428D02*
X153723128Y-103827714D01*
X153537414Y-103827714D01*
X153423128Y-103899142D02*
X153408842Y-103913428D01*
X153423128Y-103927714D01*
X153437414Y-103913428D01*
X153423128Y-103899142D01*
X153423128Y-103927714D01*
X153308842Y-103627714D02*
X153108842Y-103627714D01*
X153237414Y-103927714D01*
X152994557Y-103927714D02*
X152994557Y-103627714D01*
X152965985Y-103813428D02*
X152880271Y-103927714D01*
X152880271Y-103727714D02*
X152994557Y-103842000D01*
D11*
%TO.C,J1*%
X156996380Y-114728666D02*
X157710666Y-114728666D01*
X157853523Y-114681047D01*
X157948761Y-114585809D01*
X157996380Y-114442952D01*
X157996380Y-114347714D01*
X157996380Y-115728666D02*
X157996380Y-115157238D01*
X157996380Y-115442952D02*
X156996380Y-115442952D01*
X157139238Y-115347714D01*
X157234476Y-115252476D01*
X157282095Y-115157238D01*
X161651142Y-107990571D02*
X161651142Y-109133428D01*
X161651142Y-120990571D02*
X161651142Y-122133428D01*
X162222571Y-121562000D02*
X161079714Y-121562000D01*
D12*
%TO.C,M2R0*%
X184111571Y-107791714D02*
X184111571Y-107991714D01*
X184183000Y-107677428D02*
X184254428Y-107891714D01*
X184068714Y-107891714D01*
X183954428Y-107963142D02*
X183940142Y-107977428D01*
X183954428Y-107991714D01*
X183968714Y-107977428D01*
X183954428Y-107963142D01*
X183954428Y-107991714D01*
X183840142Y-107691714D02*
X183640142Y-107691714D01*
X183768714Y-107991714D01*
X183525857Y-107991714D02*
X183525857Y-107691714D01*
X183497285Y-107877428D02*
X183411571Y-107991714D01*
X183411571Y-107791714D02*
X183525857Y-107906000D01*
D10*
%TO.C,M1D2*%
X153459180Y-104394000D02*
X153144220Y-104076500D01*
X154889200Y-104868980D02*
X154889200Y-103919020D01*
X153459180Y-104868980D02*
X153459180Y-104394000D01*
X153459180Y-104394000D02*
X153459180Y-103919020D01*
X153459180Y-104394000D02*
X153144220Y-104711500D01*
%TO.C,M2D2*%
X185420500Y-104868980D02*
X185420500Y-103919020D01*
X183990480Y-104394000D02*
X183990480Y-103919020D01*
X183990480Y-104868980D02*
X183990480Y-104394000D01*
X183990480Y-104394000D02*
X183675520Y-104076500D01*
X183990480Y-104394000D02*
X183675520Y-104711500D01*
D13*
%TO.C,M1J1*%
X146036346Y-110225200D02*
X143646346Y-110225200D01*
X150406346Y-112550200D02*
X151256346Y-112550200D01*
X151256346Y-96380200D02*
X150406346Y-96380200D01*
X146036346Y-96380200D02*
X146036346Y-98705200D01*
X146886346Y-112550200D02*
X146036346Y-112550200D01*
X151256346Y-112550200D02*
X151256346Y-96380200D01*
X146036346Y-112550200D02*
X146036346Y-110225200D01*
X146886346Y-96380200D02*
X146036346Y-96380200D01*
D10*
%TO.C,M1D1*%
X151714200Y-105951020D02*
X151714200Y-106900980D01*
X153144220Y-106426000D02*
X153459180Y-106743500D01*
X153144220Y-106426000D02*
X153459180Y-106108500D01*
X153144220Y-105951020D02*
X153144220Y-106426000D01*
X153144220Y-106426000D02*
X153144220Y-106900980D01*
D13*
%TO.C,M2CP1*%
X172924982Y-115637651D02*
X170471982Y-115637651D01*
X171244982Y-114077651D02*
X167618982Y-114077651D01*
X173078982Y-115917651D02*
X170471982Y-115917651D01*
X172740982Y-115357651D02*
X170471982Y-115357651D01*
X172450982Y-114997651D02*
X170471982Y-114997651D01*
X172993982Y-115757651D02*
X170471982Y-115757651D01*
X173356982Y-116637651D02*
X170471982Y-116637651D01*
X168391982Y-116757651D02*
X165474982Y-116757651D01*
X172146982Y-121768349D02*
X171346982Y-121768349D01*
X171076982Y-113997651D02*
X167786982Y-113997651D01*
X168391982Y-115357651D02*
X166122982Y-115357651D01*
X172823982Y-115477651D02*
X170471982Y-115477651D01*
X168391982Y-115437651D02*
X166066982Y-115437651D01*
X173496982Y-117398651D02*
X165366982Y-117398651D01*
X173473982Y-117198651D02*
X165389982Y-117198651D01*
X168391982Y-115997651D02*
X165745982Y-115997651D01*
X171533982Y-114237651D02*
X167329982Y-114237651D01*
X172082982Y-114637651D02*
X166780982Y-114637651D01*
X173378982Y-116717651D02*
X170471982Y-116717651D01*
X172651982Y-115237651D02*
X170471982Y-115237651D01*
X172971982Y-115717651D02*
X170471982Y-115717651D01*
X173508982Y-117598651D02*
X165354982Y-117598651D01*
X168391982Y-115877651D02*
X165804982Y-115877651D01*
X173502982Y-117478651D02*
X165360982Y-117478651D01*
X173510982Y-117638651D02*
X165352982Y-117638651D01*
X173236982Y-116277651D02*
X170471982Y-116277651D01*
X173037982Y-115837651D02*
X170471982Y-115837651D01*
X172796982Y-115437651D02*
X170471982Y-115437651D01*
X173333982Y-116557651D02*
X170471982Y-116557651D01*
X168391982Y-115557651D02*
X165987982Y-115557651D01*
X171936982Y-114517651D02*
X166926982Y-114517651D01*
X168391982Y-115157651D02*
X166275982Y-115157651D01*
X168391982Y-115837651D02*
X165825982Y-115837651D01*
X173455982Y-117078651D02*
X165407982Y-117078651D01*
X171395982Y-114157651D02*
X167467982Y-114157651D01*
X173407982Y-116837651D02*
X170471982Y-116837651D01*
X168391982Y-115757651D02*
X165869982Y-115757651D01*
X173425982Y-116917651D02*
X170471982Y-116917651D01*
X173398982Y-116797651D02*
X170471982Y-116797651D01*
X173461982Y-117118651D02*
X165401982Y-117118651D01*
X168391982Y-116117651D02*
X165691982Y-116117651D01*
X171885982Y-114477651D02*
X166977982Y-114477651D01*
X168391982Y-115117651D02*
X166307982Y-115117651D01*
X168391982Y-115677651D02*
X165914982Y-115677651D01*
X168391982Y-116877651D02*
X165446982Y-116877651D01*
X173416982Y-116877651D02*
X170471982Y-116877651D01*
X170777982Y-113877651D02*
X168085982Y-113877651D01*
X168391982Y-114997651D02*
X166412982Y-114997651D01*
X173441982Y-116997651D02*
X170471982Y-116997651D01*
X172298982Y-114837651D02*
X166564982Y-114837651D01*
X173433982Y-116957651D02*
X170471982Y-116957651D01*
X172128982Y-114677651D02*
X166734982Y-114677651D01*
X168391982Y-115397651D02*
X166093982Y-115397651D01*
X170983982Y-113957651D02*
X167879982Y-113957651D01*
X168391982Y-115637651D02*
X165938982Y-115637651D01*
X173511982Y-117678651D02*
X165351982Y-117678651D01*
X168391982Y-115957651D02*
X165765982Y-115957651D01*
X168391982Y-115917651D02*
X165784982Y-115917651D01*
X171659982Y-114317651D02*
X167203982Y-114317651D01*
X172769982Y-115397651D02*
X170471982Y-115397651D01*
X173468982Y-117158651D02*
X165394982Y-117158651D01*
X173511982Y-117758651D02*
X165351982Y-117758651D01*
X168391982Y-116037651D02*
X165727982Y-116037651D01*
X168391982Y-116837651D02*
X165455982Y-116837651D01*
X170884982Y-113917651D02*
X167978982Y-113917651D01*
X172035982Y-114597651D02*
X166827982Y-114597651D01*
X173252982Y-116317651D02*
X170471982Y-116317651D01*
X168391982Y-116437651D02*
X165568982Y-116437651D01*
X168391982Y-115037651D02*
X166376982Y-115037651D01*
X173015982Y-115797651D02*
X170471982Y-115797651D01*
X173205982Y-116197651D02*
X170471982Y-116197651D01*
X168391982Y-116637651D02*
X165506982Y-116637651D01*
X171718982Y-114357651D02*
X167144982Y-114357651D01*
X173511982Y-117718651D02*
X165351982Y-117718651D01*
X168391982Y-115197651D02*
X166242982Y-115197651D01*
X168391982Y-115277651D02*
X166181982Y-115277651D01*
X173507982Y-117558651D02*
X165355982Y-117558651D01*
X172711982Y-115317651D02*
X170471982Y-115317651D01*
X172587982Y-115157651D02*
X170471982Y-115157651D01*
X172900982Y-115597651D02*
X170471982Y-115597651D01*
X170529982Y-113797651D02*
X168333982Y-113797651D01*
X173483982Y-117278651D02*
X165379982Y-117278651D01*
X168391982Y-115477651D02*
X166039982Y-115477651D01*
X172620982Y-115197651D02*
X170471982Y-115197651D01*
X172338982Y-114877651D02*
X166524982Y-114877651D01*
X172875982Y-115557651D02*
X170471982Y-115557651D01*
X171746982Y-122168349D02*
X171746982Y-121368349D01*
X173221982Y-116237651D02*
X170471982Y-116237651D01*
X168391982Y-116517651D02*
X165542982Y-116517651D01*
X171597982Y-114277651D02*
X167265982Y-114277651D01*
X168391982Y-115797651D02*
X165847982Y-115797651D01*
X168391982Y-115237651D02*
X166211982Y-115237651D01*
X171321982Y-114117651D02*
X167541982Y-114117651D01*
X168391982Y-116317651D02*
X165610982Y-116317651D01*
X173320982Y-116517651D02*
X170471982Y-116517651D01*
X171776982Y-114397651D02*
X167086982Y-114397651D01*
X171162982Y-114037651D02*
X167700982Y-114037651D01*
X168391982Y-116277651D02*
X165626982Y-116277651D01*
X173448982Y-117037651D02*
X170471982Y-117037651D01*
X168391982Y-116237651D02*
X165641982Y-116237651D01*
X168391982Y-115517651D02*
X166013982Y-115517651D01*
X172948982Y-115677651D02*
X170471982Y-115677651D01*
X168391982Y-116557651D02*
X165529982Y-116557651D01*
X168391982Y-116477651D02*
X165554982Y-116477651D01*
X168391982Y-116997651D02*
X165421982Y-116997651D01*
X168391982Y-116677651D02*
X165495982Y-116677651D01*
X173488982Y-117318651D02*
X165374982Y-117318651D01*
X173492982Y-117358651D02*
X165370982Y-117358651D01*
X171831982Y-114437651D02*
X167031982Y-114437651D01*
X170379982Y-113757651D02*
X168483982Y-113757651D01*
X173479982Y-117238651D02*
X165383982Y-117238651D01*
X172849982Y-115517651D02*
X170471982Y-115517651D01*
X172555982Y-115117651D02*
X170471982Y-115117651D01*
X173345982Y-116597651D02*
X170471982Y-116597651D01*
X173388982Y-116757651D02*
X170471982Y-116757651D01*
X168391982Y-115717651D02*
X165891982Y-115717651D01*
X168391982Y-116357651D02*
X165596982Y-116357651D01*
X173153982Y-116077651D02*
X170471982Y-116077651D01*
X172172982Y-114717651D02*
X166690982Y-114717651D01*
X170660982Y-113837651D02*
X168202982Y-113837651D01*
X173188982Y-116157651D02*
X170471982Y-116157651D01*
X168391982Y-116917651D02*
X165437982Y-116917651D01*
X168391982Y-115317651D02*
X166151982Y-115317651D01*
X172486982Y-115037651D02*
X170471982Y-115037651D01*
X172257982Y-114797651D02*
X166605982Y-114797651D01*
X173135982Y-116037651D02*
X170471982Y-116037651D01*
X173505982Y-117518651D02*
X165357982Y-117518651D01*
X172215982Y-114757651D02*
X166647982Y-114757651D01*
X168391982Y-115077651D02*
X166341982Y-115077651D01*
X170199982Y-113717651D02*
X168663982Y-113717651D01*
X168391982Y-116597651D02*
X165517982Y-116597651D01*
X172376982Y-114917651D02*
X166486982Y-114917651D01*
X168391982Y-116197651D02*
X165657982Y-116197651D01*
X173097982Y-115957651D02*
X170471982Y-115957651D01*
X173499982Y-117438651D02*
X165363982Y-117438651D01*
X171987982Y-114557651D02*
X166875982Y-114557651D01*
X173058982Y-115877651D02*
X170471982Y-115877651D01*
X171465982Y-114197651D02*
X167397982Y-114197651D01*
X168391982Y-116157651D02*
X165674982Y-116157651D01*
X172681982Y-115277651D02*
X170471982Y-115277651D01*
X173308982Y-116477651D02*
X170471982Y-116477651D01*
X168391982Y-115597651D02*
X165962982Y-115597651D01*
X168391982Y-117037651D02*
X165414982Y-117037651D01*
X173281982Y-116397651D02*
X170471982Y-116397651D01*
X168391982Y-116717651D02*
X165484982Y-116717651D01*
X168391982Y-116797651D02*
X165464982Y-116797651D01*
X173294982Y-116437651D02*
X170471982Y-116437651D01*
X173266982Y-116357651D02*
X170471982Y-116357651D01*
X173367982Y-116677651D02*
X170471982Y-116677651D01*
X173117982Y-115997651D02*
X170471982Y-115997651D01*
X168391982Y-116077651D02*
X165709982Y-116077651D01*
X169964982Y-113677651D02*
X168898982Y-113677651D01*
X168391982Y-116397651D02*
X165581982Y-116397651D01*
X173171982Y-116117651D02*
X170471982Y-116117651D01*
X172414982Y-114957651D02*
X166448982Y-114957651D01*
X168391982Y-116957651D02*
X165429982Y-116957651D01*
X172521982Y-115077651D02*
X170471982Y-115077651D01*
X173551982Y-117758651D02*
G75*
G03*
X173551982Y-117758651I-4120000J0D01*
G01*
D10*
%TO.C,M2D1*%
X183675520Y-102362000D02*
X183990480Y-102679500D01*
X183675520Y-101887020D02*
X183675520Y-102362000D01*
X183675520Y-102362000D02*
X183990480Y-102044500D01*
X182245500Y-101887020D02*
X182245500Y-102836980D01*
X183675520Y-102362000D02*
X183675520Y-102836980D01*
D13*
%TO.C,M2J1*%
X191060000Y-112611400D02*
X191060000Y-110286400D01*
X191060000Y-96441400D02*
X191060000Y-98766400D01*
X190210000Y-96441400D02*
X191060000Y-96441400D01*
X186690000Y-96441400D02*
X185840000Y-96441400D01*
X185840000Y-112611400D02*
X186690000Y-112611400D01*
X191060000Y-98766400D02*
X193450000Y-98766400D01*
X190210000Y-112611400D02*
X191060000Y-112611400D01*
X185840000Y-96441400D02*
X185840000Y-112611400D01*
%TO.C,M1CP1*%
X156214400Y-114597651D02*
X151006400Y-114597651D01*
X155712400Y-114237651D02*
X151508400Y-114237651D01*
X152570400Y-115237651D02*
X150390400Y-115237651D01*
X157512400Y-116557651D02*
X154650400Y-116557651D01*
X156860400Y-115277651D02*
X154650400Y-115277651D01*
X157690400Y-117678651D02*
X149530400Y-117678651D01*
X152570400Y-116637651D02*
X149685400Y-116637651D01*
X157671400Y-117358651D02*
X149549400Y-117358651D01*
X152570400Y-115957651D02*
X149944400Y-115957651D01*
X154378400Y-113717651D02*
X152842400Y-113717651D01*
X157054400Y-115557651D02*
X154650400Y-115557651D01*
X152570400Y-115117651D02*
X150486400Y-115117651D01*
X152570400Y-115637651D02*
X150117400Y-115637651D01*
X155063400Y-113917651D02*
X152157400Y-113917651D01*
X157460400Y-116397651D02*
X154650400Y-116397651D01*
X157350400Y-116117651D02*
X154650400Y-116117651D01*
X157620400Y-116997651D02*
X154650400Y-116997651D01*
X157384400Y-116197651D02*
X154650400Y-116197651D01*
X155162400Y-113957651D02*
X152058400Y-113957651D01*
X157690400Y-117758651D02*
X149530400Y-117758651D01*
X152570400Y-116677651D02*
X149674400Y-116677651D01*
X155776400Y-114277651D02*
X151444400Y-114277651D01*
X157595400Y-116877651D02*
X154650400Y-116877651D01*
X155500400Y-114117651D02*
X151720400Y-114117651D01*
X152570400Y-115597651D02*
X150141400Y-115597651D01*
X157079400Y-115597651D02*
X154650400Y-115597651D01*
X157314400Y-116037651D02*
X154650400Y-116037651D01*
X152570400Y-115917651D02*
X149963400Y-115917651D01*
X157686400Y-117558651D02*
X149534400Y-117558651D01*
X157473400Y-116437651D02*
X154650400Y-116437651D01*
X152570400Y-115517651D02*
X150192400Y-115517651D01*
X157662400Y-117278651D02*
X149558400Y-117278651D01*
X157640400Y-117118651D02*
X149580400Y-117118651D01*
X152570400Y-116797651D02*
X149643400Y-116797651D01*
X157612400Y-116957651D02*
X154650400Y-116957651D01*
X156351400Y-114717651D02*
X150869400Y-114717651D01*
X152570400Y-115757651D02*
X150048400Y-115757651D01*
X157028400Y-115517651D02*
X154650400Y-115517651D01*
X157675400Y-117398651D02*
X149545400Y-117398651D01*
X157586400Y-116837651D02*
X154650400Y-116837651D01*
X155423400Y-114077651D02*
X151797400Y-114077651D01*
X152570400Y-115157651D02*
X150454400Y-115157651D01*
X152570400Y-116277651D02*
X149805400Y-116277651D01*
X157634400Y-117078651D02*
X149586400Y-117078651D01*
X152570400Y-114997651D02*
X150591400Y-114997651D01*
X156948400Y-115397651D02*
X154650400Y-115397651D01*
X152570400Y-116717651D02*
X149663400Y-116717651D01*
X156975400Y-115437651D02*
X154650400Y-115437651D01*
X157257400Y-115917651D02*
X154650400Y-115917651D01*
X152570400Y-115557651D02*
X150166400Y-115557651D01*
X152570400Y-115877651D02*
X149983400Y-115877651D01*
X152570400Y-116037651D02*
X149906400Y-116037651D01*
X156307400Y-114677651D02*
X150913400Y-114677651D01*
X152570400Y-116437651D02*
X149747400Y-116437651D01*
X157567400Y-116757651D02*
X154650400Y-116757651D01*
X157127400Y-115677651D02*
X154650400Y-115677651D01*
X157658400Y-117238651D02*
X149562400Y-117238651D01*
X155574400Y-114157651D02*
X151646400Y-114157651D01*
X152570400Y-116757651D02*
X149653400Y-116757651D01*
X157367400Y-116157651D02*
X154650400Y-116157651D01*
X157276400Y-115957651D02*
X154650400Y-115957651D01*
X157681400Y-117478651D02*
X149539400Y-117478651D01*
X157684400Y-117518651D02*
X149536400Y-117518651D01*
X157687400Y-117598651D02*
X149533400Y-117598651D01*
X157172400Y-115757651D02*
X154650400Y-115757651D01*
X157690400Y-117718651D02*
X149530400Y-117718651D01*
X152570400Y-115437651D02*
X150245400Y-115437651D01*
X156734400Y-115117651D02*
X154650400Y-115117651D01*
X156890400Y-115317651D02*
X154650400Y-115317651D01*
X152570400Y-116837651D02*
X149634400Y-116837651D01*
X157445400Y-116357651D02*
X154650400Y-116357651D01*
X154708400Y-113797651D02*
X152512400Y-113797651D01*
X155341400Y-114037651D02*
X151879400Y-114037651D01*
X152570400Y-115317651D02*
X150330400Y-115317651D01*
X157499400Y-116517651D02*
X154650400Y-116517651D01*
X157546400Y-116677651D02*
X154650400Y-116677651D01*
X156766400Y-115157651D02*
X154650400Y-115157651D01*
X156919400Y-115357651D02*
X154650400Y-115357651D01*
X152570400Y-115797651D02*
X150026400Y-115797651D01*
X152570400Y-117037651D02*
X149593400Y-117037651D01*
X152570400Y-115997651D02*
X149924400Y-115997651D01*
X152570400Y-116397651D02*
X149760400Y-116397651D01*
X156700400Y-115077651D02*
X154650400Y-115077651D01*
X157667400Y-117318651D02*
X149553400Y-117318651D01*
X155897400Y-114357651D02*
X151323400Y-114357651D01*
X156010400Y-114437651D02*
X151210400Y-114437651D01*
X152570400Y-116357651D02*
X149775400Y-116357651D01*
X157194400Y-115797651D02*
X154650400Y-115797651D01*
X156629400Y-114997651D02*
X154650400Y-114997651D01*
X152570400Y-116317651D02*
X149789400Y-116317651D01*
X152570400Y-116997651D02*
X149600400Y-116997651D01*
X157150400Y-115717651D02*
X154650400Y-115717651D01*
X156436400Y-114797651D02*
X150784400Y-114797651D01*
X157535400Y-116637651D02*
X154650400Y-116637651D01*
X156517400Y-114877651D02*
X150703400Y-114877651D01*
X152570400Y-116557651D02*
X149708400Y-116557651D01*
X154956400Y-113877651D02*
X152264400Y-113877651D01*
X152570400Y-115717651D02*
X150070400Y-115717651D01*
X152570400Y-116597651D02*
X149696400Y-116597651D01*
X152570400Y-115277651D02*
X150360400Y-115277651D01*
X152570400Y-116157651D02*
X149853400Y-116157651D01*
X157678400Y-117438651D02*
X149542400Y-117438651D01*
X152570400Y-115077651D02*
X150520400Y-115077651D01*
X154143400Y-113677651D02*
X153077400Y-113677651D01*
X152570400Y-116877651D02*
X149625400Y-116877651D01*
X152570400Y-115357651D02*
X150301400Y-115357651D01*
X154839400Y-113837651D02*
X152381400Y-113837651D01*
X157332400Y-116077651D02*
X154650400Y-116077651D01*
X152570400Y-116917651D02*
X149616400Y-116917651D01*
X156477400Y-114837651D02*
X150743400Y-114837651D01*
X157689400Y-117638651D02*
X149531400Y-117638651D01*
X152570400Y-115477651D02*
X150218400Y-115477651D01*
X156555400Y-114917651D02*
X150665400Y-114917651D01*
X157627400Y-117037651D02*
X154650400Y-117037651D01*
X157415400Y-116277651D02*
X154650400Y-116277651D01*
X157577400Y-116797651D02*
X154650400Y-116797651D01*
X152570400Y-115837651D02*
X150004400Y-115837651D01*
X157431400Y-116317651D02*
X154650400Y-116317651D01*
X157002400Y-115477651D02*
X154650400Y-115477651D01*
X156665400Y-115037651D02*
X154650400Y-115037651D01*
X156261400Y-114637651D02*
X150959400Y-114637651D01*
X156115400Y-114517651D02*
X151105400Y-114517651D01*
X155955400Y-114397651D02*
X151265400Y-114397651D01*
X154558400Y-113757651D02*
X152662400Y-113757651D01*
X152570400Y-116517651D02*
X149721400Y-116517651D01*
X152570400Y-115677651D02*
X150093400Y-115677651D01*
X157604400Y-116917651D02*
X154650400Y-116917651D01*
X152570400Y-116477651D02*
X149733400Y-116477651D01*
X156325400Y-121768349D02*
X155525400Y-121768349D01*
X157647400Y-117158651D02*
X149573400Y-117158651D01*
X152570400Y-116077651D02*
X149888400Y-116077651D01*
X157103400Y-115637651D02*
X154650400Y-115637651D01*
X152570400Y-115037651D02*
X150555400Y-115037651D01*
X152570400Y-116957651D02*
X149608400Y-116957651D01*
X152570400Y-115197651D02*
X150421400Y-115197651D01*
X156166400Y-114557651D02*
X151054400Y-114557651D01*
X157216400Y-115837651D02*
X154650400Y-115837651D01*
X152570400Y-116117651D02*
X149870400Y-116117651D01*
X156064400Y-114477651D02*
X151156400Y-114477651D01*
X152570400Y-116197651D02*
X149836400Y-116197651D01*
X155838400Y-114317651D02*
X151382400Y-114317651D01*
X157652400Y-117198651D02*
X149568400Y-117198651D01*
X155255400Y-113997651D02*
X151965400Y-113997651D01*
X156593400Y-114957651D02*
X150627400Y-114957651D01*
X157487400Y-116477651D02*
X154650400Y-116477651D01*
X157400400Y-116237651D02*
X154650400Y-116237651D01*
X157524400Y-116597651D02*
X154650400Y-116597651D01*
X156830400Y-115237651D02*
X154650400Y-115237651D01*
X152570400Y-116237651D02*
X149820400Y-116237651D01*
X157237400Y-115877651D02*
X154650400Y-115877651D01*
X155644400Y-114197651D02*
X151576400Y-114197651D01*
X157557400Y-116717651D02*
X154650400Y-116717651D01*
X157296400Y-115997651D02*
X154650400Y-115997651D01*
X155925400Y-122168349D02*
X155925400Y-121368349D01*
X152570400Y-115397651D02*
X150272400Y-115397651D01*
X156394400Y-114757651D02*
X150826400Y-114757651D01*
X156799400Y-115197651D02*
X154650400Y-115197651D01*
X157730400Y-117758651D02*
G75*
G03*
X157730400Y-117758651I-4120000J0D01*
G01*
%TO.C,M1R0*%
X153538958Y-101839500D02*
X153064442Y-101839500D01*
X153538958Y-102884500D02*
X153064442Y-102884500D01*
%TO.C,J1*%
X162954000Y-109852000D02*
X164254000Y-111552000D01*
X164254000Y-111552000D02*
X164254000Y-120272000D01*
X158834000Y-111552000D02*
X158834000Y-120272000D01*
X158834000Y-120272000D02*
X164254000Y-120272000D01*
X160134000Y-109852000D02*
X162954000Y-109852000D01*
X160134000Y-109852000D02*
X158834000Y-111552000D01*
%TO.C,M2R0*%
X184070258Y-105903500D02*
X183595742Y-105903500D01*
X184070258Y-106948500D02*
X183595742Y-106948500D01*
%TD*%
%LPC*%
D14*
%TO.C,J2*%
X190425000Y-124200000D03*
D15*
X187885000Y-124200000D03*
X185345000Y-124200000D03*
X182805000Y-124200000D03*
X180265000Y-124200000D03*
X177725000Y-124200000D03*
X175185000Y-124200000D03*
X172645000Y-124200000D03*
X170105000Y-124200000D03*
X167565000Y-124200000D03*
X165025000Y-124200000D03*
%TD*%
D16*
%TO.C,M1D2*%
X154178000Y-104394000D03*
X152425400Y-104394000D03*
%TD*%
%TO.C,M2D2*%
X184709300Y-104394000D03*
X182956700Y-104394000D03*
%TD*%
D17*
%TO.C,M1J1*%
X146396346Y-109465200D03*
X146396346Y-107465200D03*
X146396346Y-105465200D03*
X146396346Y-103465200D03*
X146396346Y-101465200D03*
X146396346Y-99465200D03*
D18*
X148646346Y-97065200D03*
X148646346Y-111865200D03*
%TD*%
D19*
%TO.C,M1D1*%
X152425400Y-106426000D03*
X154178000Y-106426000D03*
%TD*%
D20*
%TO.C,M2CP1*%
X169431982Y-119508651D03*
D21*
X169431982Y-116008651D03*
%TD*%
D19*
%TO.C,M2D1*%
X182956700Y-102362000D03*
X184709300Y-102362000D03*
%TD*%
D22*
%TO.C,M2J1*%
X190700000Y-99526400D03*
X190700000Y-101526400D03*
X190700000Y-103526400D03*
X190700000Y-105526400D03*
X190700000Y-107526400D03*
X190700000Y-109526400D03*
D23*
X188450000Y-111926400D03*
X188450000Y-97126400D03*
%TD*%
D20*
%TO.C,M1CP1*%
X153610400Y-119508651D03*
D21*
X153610400Y-116008651D03*
%TD*%
D24*
%TO.C,M1R0*%
X154126700Y-102362000D03*
X152476700Y-102362000D03*
%TD*%
D25*
%TO.C,J1*%
X161544000Y-112562000D03*
D26*
X161544000Y-117562000D03*
%TD*%
D24*
%TO.C,M2R0*%
X184658000Y-106426000D03*
X183008000Y-106426000D03*
%TD*%
M02*
