%TF.GenerationSoftware,KiCad,Pcbnew,(6.0.0-0)*%
%TF.CreationDate,2022-03-22T21:28:24+08:00*%
%TF.ProjectId,driver,64726976-6572-42e6-9b69-6361645f7063,rev?*%
%TF.SameCoordinates,Original*%
%TF.FileFunction,Soldermask,Top*%
%TF.FilePolarity,Negative*%
%FSLAX46Y46*%
G04 Gerber Fmt 4.6, Leading zero omitted, Abs format (unit mm)*
G04 Created by KiCad (PCBNEW (6.0.0-0)) date 2022-03-22 21:28:24*
%MOMM*%
%LPD*%
G01*
G04 APERTURE LIST*
G04 Aperture macros list*
%AMRoundRect*
0 Rectangle with rounded corners*
0 $1 Rounding radius*
0 $2 $3 $4 $5 $6 $7 $8 $9 X,Y pos of 4 corners*
0 Add a 4 corners polygon primitive as box body*
4,1,4,$2,$3,$4,$5,$6,$7,$8,$9,$2,$3,0*
0 Add four circle primitives for the rounded corners*
1,1,$1+$1,$2,$3*
1,1,$1+$1,$4,$5*
1,1,$1+$1,$6,$7*
1,1,$1+$1,$8,$9*
0 Add four rect primitives between the rounded corners*
20,1,$1+$1,$2,$3,$4,$5,0*
20,1,$1+$1,$4,$5,$6,$7,0*
20,1,$1+$1,$6,$7,$8,$9,0*
20,1,$1+$1,$8,$9,$2,$3,0*%
G04 Aperture macros list end*
%ADD10RoundRect,0.200000X0.200000X0.275000X-0.200000X0.275000X-0.200000X-0.275000X0.200000X-0.275000X0*%
%ADD11RoundRect,0.200000X-0.200000X-0.275000X0.200000X-0.275000X0.200000X0.275000X-0.200000X0.275000X0*%
%ADD12RoundRect,0.225000X0.225000X0.250000X-0.225000X0.250000X-0.225000X-0.250000X0.225000X-0.250000X0*%
%ADD13R,1.350000X0.660000*%
%ADD14R,5.250000X10.300000*%
%ADD15R,5.250000X6.230000*%
%ADD16R,1.700000X1.700000*%
%ADD17O,1.700000X1.700000*%
%ADD18RoundRect,0.101600X1.499870X-0.798830X1.499870X0.798830X-1.499870X0.798830X-1.499870X-0.798830X0*%
%ADD19RoundRect,0.101600X2.857500X-2.413000X2.857500X2.413000X-2.857500X2.413000X-2.857500X-2.413000X0*%
%ADD20R,0.450000X0.850000*%
%ADD21RoundRect,0.225000X-0.250000X0.225000X-0.250000X-0.225000X0.250000X-0.225000X0.250000X0.225000X0*%
%ADD22RoundRect,0.101600X-1.499870X0.798830X-1.499870X-0.798830X1.499870X-0.798830X1.499870X0.798830X0*%
%ADD23RoundRect,0.101600X-2.857500X2.413000X-2.857500X-2.413000X2.857500X-2.413000X2.857500X2.413000X0*%
%ADD24RoundRect,0.225000X-0.225000X-0.250000X0.225000X-0.250000X0.225000X0.250000X-0.225000X0.250000X0*%
%ADD25R,1.600000X1.600000*%
%ADD26C,1.600000*%
%ADD27R,3.800000X3.800000*%
%ADD28C,4.000000*%
G04 APERTURE END LIST*
D10*
%TO.C,M2R6*%
X169250600Y-101867235D03*
X167600600Y-101867235D03*
%TD*%
D11*
%TO.C,M2R5*%
X167600600Y-100343235D03*
X169250600Y-100343235D03*
%TD*%
D12*
%TO.C,M2C8*%
X165621000Y-104915235D03*
X164071000Y-104915235D03*
%TD*%
D13*
%TO.C,M2U1*%
X171490600Y-97526400D03*
X171490600Y-98526400D03*
X171490600Y-99526400D03*
X171490600Y-100526400D03*
X171490600Y-101526400D03*
X171490600Y-102526400D03*
X171490600Y-103526400D03*
X171490600Y-104526400D03*
X171490600Y-105526400D03*
X171490600Y-106526400D03*
X171490600Y-107526400D03*
X171490600Y-108526400D03*
X171490600Y-109526400D03*
X171490600Y-110526400D03*
X171490600Y-111526400D03*
X189740600Y-111526400D03*
X189740600Y-110526400D03*
X189740600Y-109526400D03*
X189740600Y-108526400D03*
X189740600Y-107526400D03*
X189740600Y-106526400D03*
X189740600Y-105526400D03*
X189740600Y-104526400D03*
X189740600Y-103526400D03*
X189740600Y-102526400D03*
X189740600Y-101526400D03*
X189740600Y-100526400D03*
X189740600Y-99526400D03*
X189740600Y-98526400D03*
X189740600Y-97526400D03*
D14*
X177565600Y-104526400D03*
D15*
X183665600Y-108691400D03*
X183665600Y-100361400D03*
%TD*%
D11*
%TO.C,M2R81*%
X167600600Y-104915235D03*
X169250600Y-104915235D03*
%TD*%
%TO.C,M2R71*%
X167600600Y-103391235D03*
X169250600Y-103391235D03*
%TD*%
D16*
%TO.C,J2*%
X190425000Y-124200000D03*
D17*
X187885000Y-124200000D03*
X185345000Y-124200000D03*
X182805000Y-124200000D03*
X180265000Y-124200000D03*
X177725000Y-124200000D03*
X175185000Y-124200000D03*
X172645000Y-124200000D03*
X170105000Y-124200000D03*
X167565000Y-124200000D03*
X165025000Y-124200000D03*
%TD*%
D10*
%TO.C,M1R71*%
X155520000Y-105550235D03*
X153870000Y-105550235D03*
%TD*%
%TO.C,M1R81*%
X155520000Y-104026235D03*
X153870000Y-104026235D03*
%TD*%
%TO.C,M1R4*%
X155520000Y-110122235D03*
X153870000Y-110122235D03*
%TD*%
D11*
%TO.C,M1R72*%
X157417000Y-105550235D03*
X159067000Y-105550235D03*
%TD*%
D10*
%TO.C,M2R72*%
X165671000Y-103391235D03*
X164021000Y-103391235D03*
%TD*%
D18*
%TO.C,M2Q1*%
X183880865Y-119875380D03*
X183880865Y-115318620D03*
D19*
X176984765Y-117597000D03*
%TD*%
D20*
%TO.C,U1*%
X161006000Y-98950000D03*
X161656000Y-98950000D03*
X162306000Y-98950000D03*
X162306000Y-96850000D03*
X161656000Y-96850000D03*
X161006000Y-96850000D03*
%TD*%
D13*
%TO.C,M1U1*%
X151596200Y-111526400D03*
X151596200Y-110526400D03*
X151596200Y-109526400D03*
X151596200Y-108526400D03*
X151596200Y-107526400D03*
X151596200Y-106526400D03*
X151596200Y-105526400D03*
X151596200Y-104526400D03*
X151596200Y-103526400D03*
X151596200Y-102526400D03*
X151596200Y-101526400D03*
X151596200Y-100526400D03*
X151596200Y-99526400D03*
X151596200Y-98526400D03*
X151596200Y-97526400D03*
X133346200Y-97526400D03*
X133346200Y-98526400D03*
X133346200Y-99526400D03*
X133346200Y-100526400D03*
X133346200Y-101526400D03*
X133346200Y-102526400D03*
X133346200Y-103526400D03*
X133346200Y-104526400D03*
X133346200Y-105526400D03*
X133346200Y-106526400D03*
X133346200Y-107526400D03*
X133346200Y-108526400D03*
X133346200Y-109526400D03*
X133346200Y-110526400D03*
X133346200Y-111526400D03*
D14*
X145521200Y-104526400D03*
D15*
X139421200Y-100361400D03*
X139421200Y-108691400D03*
%TD*%
D11*
%TO.C,M2R4*%
X167600600Y-98819235D03*
X169250600Y-98819235D03*
%TD*%
%TO.C,M1R6*%
X153870000Y-107074235D03*
X155520000Y-107074235D03*
%TD*%
D21*
%TO.C,M1C3*%
X131196418Y-103741000D03*
X131196418Y-105291000D03*
%TD*%
D12*
%TO.C,MUC1*%
X162431000Y-95360000D03*
X160881000Y-95360000D03*
%TD*%
D10*
%TO.C,M1R10*%
X155520000Y-99454235D03*
X153870000Y-99454235D03*
%TD*%
%TO.C,M1R9*%
X155520000Y-100978235D03*
X153870000Y-100978235D03*
%TD*%
%TO.C,M1R5*%
X155520000Y-108598235D03*
X153870000Y-108598235D03*
%TD*%
D22*
%TO.C,M1Q1*%
X139261553Y-115318620D03*
X139261553Y-119875380D03*
D23*
X146157653Y-117597000D03*
%TD*%
D11*
%TO.C,M1R82*%
X153870000Y-102502235D03*
X155520000Y-102502235D03*
%TD*%
D24*
%TO.C,M1C8*%
X157467000Y-104026235D03*
X159017000Y-104026235D03*
%TD*%
D11*
%TO.C,M2R10*%
X167600600Y-109487235D03*
X169250600Y-109487235D03*
%TD*%
%TO.C,M2R9*%
X167600600Y-107963235D03*
X169250600Y-107963235D03*
%TD*%
D10*
%TO.C,M2R82*%
X169250600Y-106439235D03*
X167600600Y-106439235D03*
%TD*%
D21*
%TO.C,M2C3*%
X191946000Y-103741000D03*
X191946000Y-105291000D03*
%TD*%
D25*
%TO.C,M2CP1*%
X169431982Y-119508651D03*
D26*
X169431982Y-116008651D03*
%TD*%
D25*
%TO.C,M1CP1*%
X153610400Y-119508651D03*
D26*
X153610400Y-116008651D03*
%TD*%
D27*
%TO.C,J1*%
X161544000Y-112562000D03*
D28*
X161544000Y-117562000D03*
%TD*%
M02*
